<svg xmlns="http://www.w3.org/2000/svg" xmlns:xlink="http://www.w3.org/1999/xlink" width="1920" zoomAndPan="magnify" viewBox="0 0 1440 809.999993" height="1080" preserveAspectRatio="xMidYMid meet" version="1.0"><defs><g/></defs><rect x="-144" width="1728" fill="#ffffff" y="-80.999999" height="971.999992" fill-opacity="1"/><rect x="-144" width="1728" fill="#faf4eb" y="-80.999999" height="971.999992" fill-opacity="1"/><path fill="#2d3e70" d="M 0 729 L 1439.964844 729 L 1439.964844 810 L 0 810 Z M 0 729 " fill-opacity="1" fill-rule="nonzero"/><g fill="#2d3e70" fill-opacity="1"><g transform="translate(247.373519, 291.266943)"><g><path d="M 1.953125 -88.484375 L 1.953125 -90.71875 C 7.460938 -90.71875 12.898438 -90.738281 18.265625 -90.78125 C 23.628906 -90.832031 29.019531 -90.859375 34.4375 -90.859375 C 37.707031 -90.859375 40.953125 -90.785156 44.171875 -90.640625 C 47.390625 -90.503906 50.492188 -90.019531 53.484375 -89.1875 C 58.703125 -87.78125 62.757812 -85.113281 65.65625 -81.1875 C 68.550781 -77.269531 70 -72.609375 70 -67.203125 C 70 -61.785156 68.710938 -57.347656 66.140625 -53.890625 C 63.578125 -50.441406 60.171875 -47.921875 55.921875 -46.328125 C 51.679688 -44.742188 47.039062 -43.953125 42 -43.953125 C 46.195312 -43.773438 49.625 -42.5625 52.28125 -40.3125 C 54.945312 -38.070312 57.097656 -35.34375 58.734375 -32.125 C 60.367188 -28.90625 61.789062 -25.710938 63 -22.546875 C 63.46875 -21.328125 63.910156 -20.132812 64.328125 -18.96875 C 64.742188 -17.800781 65.140625 -16.660156 65.515625 -15.546875 C 65.984375 -14.421875 66.453125 -13.320312 66.921875 -12.25 C 67.390625 -11.175781 67.851562 -10.171875 68.3125 -9.234375 C 69.34375 -7.460938 70.507812 -5.96875 71.8125 -4.75 C 73.125 -3.539062 74.757812 -2.75 76.71875 -2.375 L 76.71875 0 L 61.734375 0 C 58.378906 0 55.789062 -1.488281 53.96875 -4.46875 C 52.144531 -7.457031 50.535156 -11.195312 49.140625 -15.6875 C 48.484375 -17.832031 47.804688 -20.070312 47.109375 -22.40625 C 46.410156 -24.738281 45.640625 -26.976562 44.796875 -29.125 C 43.023438 -33.695312 40.832031 -37.195312 38.21875 -39.625 C 35.601562 -42.050781 31.679688 -43.265625 26.453125 -43.265625 L 24.5 -43.265625 L 24.5 -9.9375 C 24.5 -5.082031 26.691406 -2.515625 31.078125 -2.234375 L 31.078125 0 L 1.953125 0 L 1.953125 -2.375 C 4.109375 -2.46875 6 -3.070312 7.625 -4.1875 C 9.257812 -5.3125 10.078125 -7.226562 10.078125 -9.9375 L 10.078125 -80.78125 C 10.078125 -83.488281 9.257812 -85.425781 7.625 -86.59375 C 6 -87.757812 4.109375 -88.390625 1.953125 -88.484375 Z M 25.484375 -88.765625 L 24.5 -88.765625 L 24.5 -45.640625 L 25.484375 -45.640625 C 26.785156 -45.640625 28.226562 -45.640625 29.8125 -45.640625 C 31.40625 -45.640625 33.039062 -45.6875 34.71875 -45.78125 C 36.394531 -45.96875 38.050781 -46.175781 39.6875 -46.40625 C 41.320312 -46.644531 42.742188 -46.992188 43.953125 -47.453125 C 47.878906 -49.046875 50.679688 -51.773438 52.359375 -55.640625 C 54.035156 -59.515625 54.875 -63.367188 54.875 -67.203125 C 54.875 -71.023438 54.035156 -74.847656 52.359375 -78.671875 C 50.679688 -82.503906 47.878906 -85.210938 43.953125 -86.796875 C 42.742188 -87.265625 41.320312 -87.640625 39.6875 -87.921875 C 38.050781 -88.203125 36.394531 -88.390625 34.71875 -88.484375 C 33.039062 -88.671875 31.40625 -88.765625 29.8125 -88.765625 C 28.226562 -88.765625 26.785156 -88.765625 25.484375 -88.765625 Z M 25.484375 -88.765625 "/></g></g></g><g fill="#2d3e70" fill-opacity="1"><g transform="translate(323.249275, 291.266943)"><g><path d="M 3.5 -32.0625 C 3.5 -38.125 4.59375 -43.722656 6.78125 -48.859375 C 8.976562 -53.992188 12.222656 -58.125 16.515625 -61.25 C 20.804688 -64.375 26.128906 -65.9375 32.484375 -65.9375 C 37.984375 -65.9375 42.671875 -64.695312 46.546875 -62.21875 C 50.421875 -59.75 53.382812 -56.367188 55.4375 -52.078125 C 57.488281 -47.785156 58.515625 -42.976562 58.515625 -37.65625 L 58.515625 -37.234375 L 18.625 -37.234375 L 18.625 -35.28125 C 18.625 -32.289062 18.992188 -29.207031 19.734375 -26.03125 C 20.484375 -22.863281 21.648438 -19.898438 23.234375 -17.140625 C 24.828125 -14.390625 26.90625 -12.148438 29.46875 -10.421875 C 32.03125 -8.703125 35.179688 -7.84375 38.921875 -7.84375 C 42.367188 -7.84375 45.75 -8.65625 49.0625 -10.28125 C 52.382812 -11.914062 55.070312 -14.132812 57.125 -16.9375 L 58.375 -16.09375 C 55.582031 -10.6875 52.34375 -6.414062 48.65625 -3.28125 C 44.96875 -0.15625 39.8125 1.40625 33.1875 1.40625 C 26.738281 1.40625 21.320312 -0.0859375 16.9375 -3.078125 C 12.550781 -6.066406 9.210938 -10.101562 6.921875 -15.1875 C 4.640625 -20.269531 3.5 -25.894531 3.5 -32.0625 Z M 18.90625 -40.453125 L 18.90625 -39.484375 L 43.546875 -39.484375 L 43.546875 -40.453125 C 43.453125 -42.140625 43.191406 -44.265625 42.765625 -46.828125 C 42.347656 -49.398438 41.695312 -51.988281 40.8125 -54.59375 C 39.925781 -57.207031 38.734375 -59.398438 37.234375 -61.171875 C 35.742188 -62.953125 33.925781 -63.84375 31.78125 -63.84375 C 29.539062 -63.84375 27.648438 -62.953125 26.109375 -61.171875 C 24.566406 -59.398438 23.28125 -57.226562 22.25 -54.65625 C 21.226562 -52.09375 20.460938 -49.503906 19.953125 -46.890625 C 19.441406 -44.285156 19.09375 -42.140625 18.90625 -40.453125 Z M 18.90625 -40.453125 "/></g></g></g><g fill="#2d3e70" fill-opacity="1"><g transform="translate(385.405796, 291.266943)"><g><path d="M 24.078125 1.265625 C 20.160156 1.265625 16.566406 0.566406 13.296875 -0.828125 C 10.035156 -2.234375 7.398438 -4.359375 5.390625 -7.203125 C 3.378906 -10.054688 2.375 -13.535156 2.375 -17.640625 C 2.375 -22.492188 3.492188 -26.578125 5.734375 -29.890625 C 7.972656 -33.203125 11.003906 -35.722656 14.828125 -37.453125 C 18.660156 -39.179688 22.863281 -40.046875 27.4375 -40.046875 C 29.113281 -40.046875 30.769531 -39.925781 32.40625 -39.6875 C 34.039062 -39.457031 35.601562 -39.015625 37.09375 -38.359375 L 38.5 -37.796875 L 38.5 -48.015625 C 38.5 -49.421875 38.453125 -51.101562 38.359375 -53.0625 C 38.265625 -55.019531 37.984375 -56.601562 37.515625 -57.8125 C 37.046875 -59.5 36.226562 -60.925781 35.0625 -62.09375 C 33.894531 -63.257812 32.191406 -63.84375 29.953125 -63.84375 C 27.160156 -63.84375 25.0625 -63.046875 23.65625 -61.453125 C 22.257812 -59.867188 21.347656 -57.957031 20.921875 -55.71875 C 20.503906 -53.476562 20.296875 -51.378906 20.296875 -49.421875 C 20.296875 -47.929688 19.476562 -46.8125 17.84375 -46.0625 C 16.21875 -45.3125 14.5625 -44.9375 12.875 -44.9375 C 11.289062 -44.9375 9.726562 -45.285156 8.1875 -45.984375 C 6.644531 -46.691406 5.875 -47.789062 5.875 -49.28125 C 5.875 -53.476562 7.132812 -56.789062 9.65625 -59.21875 C 12.175781 -61.644531 15.328125 -63.367188 19.109375 -64.390625 C 22.890625 -65.421875 26.597656 -65.9375 30.234375 -65.9375 C 37.046875 -65.9375 42.53125 -64.347656 46.6875 -61.171875 C 50.84375 -58.003906 52.921875 -52.921875 52.921875 -45.921875 L 52.921875 -10.5 C 52.921875 -10.21875 52.921875 -9.957031 52.921875 -9.71875 C 52.921875 -9.488281 52.921875 -9.234375 52.921875 -8.953125 C 52.921875 -8.679688 52.941406 -8.378906 52.984375 -8.046875 C 53.035156 -7.722656 53.109375 -7.421875 53.203125 -7.140625 C 53.390625 -6.578125 53.691406 -6.039062 54.109375 -5.53125 C 54.523438 -5.019531 55.203125 -4.765625 56.140625 -4.765625 C 57.171875 -4.765625 58.148438 -5.085938 59.078125 -5.734375 L 60.203125 -4.34375 C 58.703125 -2.570312 56.898438 -1.285156 54.796875 -0.484375 C 52.703125 0.304688 50.441406 0.703125 48.015625 0.703125 C 46.242188 0.703125 44.632812 0.328125 43.1875 -0.421875 C 41.738281 -1.171875 40.597656 -2.289062 39.765625 -3.78125 L 39.203125 -4.90625 L 38.21875 -4.0625 C 36.351562 -2.101562 34.207031 -0.726562 31.78125 0.0625 C 29.351562 0.863281 26.785156 1.265625 24.078125 1.265625 Z M 17.5 -17.078125 C 17.5 -14.929688 17.78125 -12.644531 18.34375 -10.21875 C 18.90625 -7.789062 19.953125 -5.738281 21.484375 -4.0625 C 23.023438 -2.382812 25.289062 -1.546875 28.28125 -1.546875 C 29.675781 -1.546875 31.164062 -1.894531 32.75 -2.59375 C 34.34375 -3.289062 35.695312 -4.289062 36.8125 -5.59375 C 37.9375 -6.90625 38.5 -8.398438 38.5 -10.078125 L 38.5 -35.84375 L 37.796875 -36.125 C 37.140625 -36.40625 36.414062 -36.585938 35.625 -36.671875 C 34.832031 -36.765625 34.0625 -36.8125 33.3125 -36.8125 C 29.488281 -36.8125 26.410156 -35.851562 24.078125 -33.9375 C 21.742188 -32.03125 20.0625 -29.5625 19.03125 -26.53125 C 18.007812 -23.5 17.5 -20.347656 17.5 -17.078125 Z M 17.5 -17.078125 "/></g></g></g><g fill="#2d3e70" fill-opacity="1"><g transform="translate(446.862363, 291.266943)"><g><path d="M 31.640625 1.40625 C 25.109375 1.40625 19.691406 -0.0859375 15.390625 -3.078125 C 11.097656 -6.066406 7.878906 -10.101562 5.734375 -15.1875 C 3.585938 -20.269531 2.515625 -25.941406 2.515625 -32.203125 C 2.515625 -42.460938 5.101562 -50.648438 10.28125 -56.765625 C 15.46875 -62.878906 23.285156 -65.9375 33.734375 -65.9375 C 37.003906 -65.9375 40.316406 -65.351562 43.671875 -64.1875 C 47.035156 -63.019531 49.859375 -61.242188 52.140625 -58.859375 C 54.429688 -56.484375 55.578125 -53.523438 55.578125 -49.984375 C 55.578125 -48.117188 54.875 -46.601562 53.46875 -45.4375 C 52.070312 -44.269531 50.394531 -43.6875 48.4375 -43.6875 C 44.613281 -43.6875 42.1875 -45.691406 41.15625 -49.703125 C 40.96875 -50.359375 40.78125 -51.035156 40.59375 -51.734375 C 40.40625 -52.429688 40.175781 -53.15625 39.90625 -53.90625 C 39.25 -56.238281 38.21875 -58.453125 36.8125 -60.546875 C 35.414062 -62.648438 33.316406 -63.703125 30.515625 -63.703125 C 27.710938 -63.703125 25.445312 -62.648438 23.71875 -60.546875 C 22 -58.453125 20.695312 -55.863281 19.8125 -52.78125 C 18.925781 -49.695312 18.316406 -46.59375 17.984375 -43.46875 C 17.660156 -40.34375 17.5 -37.753906 17.5 -35.703125 C 17.5 -32.617188 17.894531 -29.421875 18.6875 -26.109375 C 19.476562 -22.796875 20.710938 -19.710938 22.390625 -16.859375 C 24.078125 -14.015625 26.273438 -11.707031 28.984375 -9.9375 C 31.691406 -8.164062 34.957031 -7.28125 38.78125 -7.28125 C 41.863281 -7.28125 44.875 -7.976562 47.8125 -9.375 C 50.75 -10.78125 53.101562 -12.789062 54.875 -15.40625 L 56.421875 -14.421875 C 53.804688 -9.285156 50.535156 -5.363281 46.609375 -2.65625 C 42.691406 0.0507812 37.703125 1.40625 31.640625 1.40625 Z M 31.640625 1.40625 "/></g></g></g><g fill="#2d3e70" fill-opacity="1"><g transform="translate(505.659059, 291.266943)"><g><path d="M -0.84375 -65.234375 C 2.050781 -65.703125 4.898438 -66.914062 7.703125 -68.875 C 10.503906 -70.832031 13.046875 -73.140625 15.328125 -75.796875 C 17.617188 -78.460938 19.507812 -81.148438 21 -83.859375 L 21 -65.09375 L 34.015625 -65.09375 L 34.015625 -62.859375 L 21 -62.859375 L 21 -13.015625 C 21 -11.242188 21.441406 -9.515625 22.328125 -7.828125 C 23.210938 -6.148438 24.820312 -5.3125 27.15625 -5.3125 C 28.375 -5.3125 29.519531 -5.566406 30.59375 -6.078125 C 31.664062 -6.597656 32.617188 -7.1875 33.453125 -7.84375 L 34.71875 -6.296875 C 32.757812 -3.867188 30.566406 -2 28.140625 -0.6875 C 25.710938 0.613281 22.910156 1.265625 19.734375 1.265625 C 15.441406 1.265625 12.175781 0.0976562 9.9375 -2.234375 C 7.695312 -4.566406 6.578125 -7.882812 6.578125 -12.1875 L 6.578125 -62.859375 L -0.84375 -62.859375 Z M -0.84375 -65.234375 "/></g></g></g><g fill="#2d3e70" fill-opacity="1"><g transform="translate(541.637039, 291.266943)"><g><path d="M 33.3125 1.40625 C 26.59375 1.40625 21.015625 -0.0625 16.578125 -3 C 12.148438 -5.945312 8.835938 -9.984375 6.640625 -15.109375 C 4.453125 -20.242188 3.359375 -26.082031 3.359375 -32.625 C 3.359375 -39.15625 4.453125 -44.914062 6.640625 -49.90625 C 8.835938 -54.90625 12.148438 -58.828125 16.578125 -61.671875 C 21.015625 -64.515625 26.59375 -65.9375 33.3125 -65.9375 C 43.488281 -65.9375 51.050781 -62.851562 56 -56.6875 C 60.945312 -50.53125 63.421875 -42.507812 63.421875 -32.625 C 63.421875 -26.082031 62.320312 -20.242188 60.125 -15.109375 C 57.9375 -9.984375 54.625 -5.945312 50.1875 -3 C 45.757812 -0.0625 40.132812 1.40625 33.3125 1.40625 Z M 18.625 -32.625 C 18.625 -30.195312 18.757812 -27.1875 19.03125 -23.59375 C 19.3125 -20 19.921875 -16.425781 20.859375 -12.875 C 21.796875 -9.332031 23.265625 -6.367188 25.265625 -3.984375 C 27.273438 -1.609375 29.957031 -0.421875 33.3125 -0.421875 C 36.769531 -0.421875 39.476562 -1.609375 41.4375 -3.984375 C 43.394531 -6.367188 44.863281 -9.332031 45.84375 -12.875 C 46.820312 -16.425781 47.453125 -20 47.734375 -23.59375 C 48.015625 -27.1875 48.15625 -30.195312 48.15625 -32.625 C 48.15625 -35.144531 48.035156 -38.15625 47.796875 -41.65625 C 47.566406 -45.15625 46.960938 -48.628906 45.984375 -52.078125 C 45.003906 -55.535156 43.535156 -58.40625 41.578125 -60.6875 C 39.617188 -62.976562 36.863281 -64.125 33.3125 -64.125 C 29.863281 -64.125 27.160156 -62.976562 25.203125 -60.6875 C 23.242188 -58.40625 21.796875 -55.535156 20.859375 -52.078125 C 19.921875 -48.628906 19.3125 -45.128906 19.03125 -41.578125 C 18.757812 -38.035156 18.625 -35.050781 18.625 -32.625 Z M 18.625 -32.625 "/></g></g></g><g fill="#2d3e70" fill-opacity="1"><g transform="translate(607.573361, 291.266943)"><g><path d="M 1.6875 -57.546875 L 22.8125 -64.265625 L 22.8125 -54.3125 L 24.640625 -57.40625 C 26.410156 -60.289062 28.765625 -62.457031 31.703125 -63.90625 C 34.648438 -65.351562 37.847656 -66.078125 41.296875 -66.078125 C 44.003906 -66.078125 46.59375 -65.585938 49.0625 -64.609375 C 51.539062 -63.628906 53.476562 -61.925781 54.875 -59.5 C 55.34375 -58.75 55.71875 -57.953125 56 -57.109375 C 56.28125 -56.273438 56.421875 -55.4375 56.421875 -54.59375 C 56.421875 -52.726562 55.695312 -51.234375 54.25 -50.109375 C 52.800781 -48.992188 51.144531 -48.4375 49.28125 -48.4375 C 48.25 -48.4375 47.382812 -48.578125 46.6875 -48.859375 C 45.988281 -49.140625 45.40625 -49.46875 44.9375 -49.84375 C 44.375 -50.3125 43.863281 -50.820312 43.40625 -51.375 C 43.21875 -51.65625 42.984375 -51.957031 42.703125 -52.28125 C 42.421875 -52.613281 42.1875 -52.921875 42 -53.203125 C 41.0625 -54.503906 39.960938 -55.757812 38.703125 -56.96875 C 37.441406 -58.1875 35.507812 -58.796875 32.90625 -58.796875 C 29.726562 -58.796875 27.25 -57.601562 25.46875 -55.21875 C 23.695312 -52.84375 22.8125 -50.207031 22.8125 -47.3125 L 22.8125 -9.9375 C 22.8125 -4.988281 25.007812 -2.46875 29.40625 -2.375 L 29.40625 0 L 1.6875 0 L 1.6875 -2.375 C 6.164062 -2.46875 8.40625 -4.988281 8.40625 -9.9375 L 8.40625 -47.3125 C 8.40625 -52.164062 6.164062 -54.734375 1.6875 -55.015625 Z M 1.6875 -57.546875 "/></g></g></g><g fill="#2d3e70" fill-opacity="1"><g transform="translate(664.270181, 291.266943)"><g/></g></g><g fill="#2d3e70" fill-opacity="1"><g transform="translate(691.428657, 291.266943)"><g><path d="M 2.375 -45.078125 C 2.375 -54.316406 4.125 -62.484375 7.625 -69.578125 C 11.125 -76.671875 16.164062 -82.222656 22.75 -86.234375 C 29.332031 -90.253906 37.242188 -92.265625 46.484375 -92.265625 C 51.523438 -92.265625 56.515625 -91.5625 61.453125 -90.15625 C 66.398438 -88.757812 70.789062 -86.425781 74.625 -83.15625 C 74.71875 -83.0625 74.925781 -82.851562 75.25 -82.53125 C 75.570312 -82.207031 75.921875 -81.859375 76.296875 -81.484375 C 76.484375 -81.296875 76.691406 -81.109375 76.921875 -80.921875 C 77.160156 -80.734375 77.328125 -80.546875 77.421875 -80.359375 C 77.515625 -80.265625 77.5625 -80.191406 77.5625 -80.140625 C 77.5625 -80.097656 77.609375 -80.03125 77.703125 -79.9375 C 78.171875 -77.320312 78.539062 -74.726562 78.8125 -72.15625 C 79.09375 -69.59375 79.421875 -66.960938 79.796875 -64.265625 L 77.28125 -64.265625 C 75.132812 -68.460938 72.632812 -72.519531 69.78125 -76.4375 C 66.9375 -80.351562 63.554688 -83.570312 59.640625 -86.09375 C 55.722656 -88.613281 51.054688 -89.875 45.640625 -89.875 C 41.441406 -89.875 37.773438 -88.800781 34.640625 -86.65625 C 31.515625 -84.507812 28.878906 -81.707031 26.734375 -78.25 C 24.585938 -74.800781 22.859375 -71.046875 21.546875 -66.984375 C 20.242188 -62.929688 19.289062 -58.894531 18.6875 -54.875 C 18.082031 -50.863281 17.78125 -47.316406 17.78125 -44.234375 C 17.78125 -41.066406 18.082031 -37.566406 18.6875 -33.734375 C 19.289062 -29.910156 20.242188 -26.109375 21.546875 -22.328125 C 22.859375 -18.546875 24.585938 -15.066406 26.734375 -11.890625 C 28.878906 -8.722656 31.492188 -6.179688 34.578125 -4.265625 C 37.660156 -2.359375 41.253906 -1.40625 45.359375 -1.40625 C 49.835938 -1.40625 53.800781 -2.3125 57.25 -4.125 C 60.707031 -5.945312 63.742188 -8.347656 66.359375 -11.328125 C 68.972656 -14.316406 71.257812 -17.609375 73.21875 -21.203125 C 75.175781 -24.796875 76.859375 -28.367188 78.265625 -31.921875 L 80.78125 -31.921875 C 80.40625 -28.742188 80.097656 -25.59375 79.859375 -22.46875 C 79.628906 -19.34375 79.28125 -16.238281 78.8125 -13.15625 C 78.632812 -12.78125 78.546875 -12.59375 78.546875 -12.59375 C 78.453125 -12.40625 78.332031 -12.195312 78.1875 -11.96875 C 78.050781 -11.738281 77.890625 -11.53125 77.703125 -11.34375 C 73.867188 -6.769531 68.96875 -3.453125 63 -1.390625 C 57.03125 0.660156 51.148438 1.6875 45.359375 1.6875 C 35.742188 1.6875 27.765625 -0.269531 21.421875 -4.1875 C 15.078125 -8.113281 10.316406 -13.578125 7.140625 -20.578125 C 3.960938 -27.578125 2.375 -35.742188 2.375 -45.078125 Z M 2.375 -45.078125 "/></g></g></g><g fill="#2d3e70" fill-opacity="1"><g transform="translate(772.624118, 291.266943)"><g><path d="M 0.703125 -91 L 21.84375 -97.578125 L 21.84375 -57.6875 L 23.515625 -59.21875 C 25.847656 -61.550781 28.554688 -63.253906 31.640625 -64.328125 C 34.722656 -65.398438 37.847656 -65.9375 41.015625 -65.9375 C 47.179688 -65.9375 52.363281 -64.535156 56.5625 -61.734375 C 60.757812 -58.941406 62.859375 -54.226562 62.859375 -47.59375 L 62.859375 -9.9375 C 62.859375 -4.988281 65.050781 -2.46875 69.4375 -2.375 L 69.4375 0 L 41.71875 0 L 41.71875 -2.375 C 46.195312 -2.46875 48.4375 -4.988281 48.4375 -9.9375 L 48.4375 -47.59375 C 48.4375 -51.894531 47.457031 -55.488281 45.5 -58.375 C 43.539062 -61.269531 40.132812 -62.71875 35.28125 -62.71875 C 32.570312 -62.71875 30.191406 -61.96875 28.140625 -60.46875 C 26.085938 -58.976562 24.523438 -57.085938 23.453125 -54.796875 C 22.378906 -52.515625 21.84375 -50.113281 21.84375 -47.59375 L 21.84375 -9.9375 C 21.84375 -4.988281 24.035156 -2.46875 28.421875 -2.375 L 28.421875 0 L 0.703125 0 L 0.703125 -2.375 C 5.179688 -2.46875 7.421875 -4.988281 7.421875 -9.9375 L 7.421875 -80.78125 C 7.421875 -85.632812 5.179688 -88.203125 0.703125 -88.484375 Z M 0.703125 -91 "/></g></g></g><g fill="#2d3e70" fill-opacity="1"><g transform="translate(841.780258, 291.266943)"><g><path d="M 3.5 -32.0625 C 3.5 -38.125 4.59375 -43.722656 6.78125 -48.859375 C 8.976562 -53.992188 12.222656 -58.125 16.515625 -61.25 C 20.804688 -64.375 26.128906 -65.9375 32.484375 -65.9375 C 37.984375 -65.9375 42.671875 -64.695312 46.546875 -62.21875 C 50.421875 -59.75 53.382812 -56.367188 55.4375 -52.078125 C 57.488281 -47.785156 58.515625 -42.976562 58.515625 -37.65625 L 58.515625 -37.234375 L 18.625 -37.234375 L 18.625 -35.28125 C 18.625 -32.289062 18.992188 -29.207031 19.734375 -26.03125 C 20.484375 -22.863281 21.648438 -19.898438 23.234375 -17.140625 C 24.828125 -14.390625 26.90625 -12.148438 29.46875 -10.421875 C 32.03125 -8.703125 35.179688 -7.84375 38.921875 -7.84375 C 42.367188 -7.84375 45.75 -8.65625 49.0625 -10.28125 C 52.382812 -11.914062 55.070312 -14.132812 57.125 -16.9375 L 58.375 -16.09375 C 55.582031 -10.6875 52.34375 -6.414062 48.65625 -3.28125 C 44.96875 -0.15625 39.8125 1.40625 33.1875 1.40625 C 26.738281 1.40625 21.320312 -0.0859375 16.9375 -3.078125 C 12.550781 -6.066406 9.210938 -10.101562 6.921875 -15.1875 C 4.640625 -20.269531 3.5 -25.894531 3.5 -32.0625 Z M 18.90625 -40.453125 L 18.90625 -39.484375 L 43.546875 -39.484375 L 43.546875 -40.453125 C 43.453125 -42.140625 43.191406 -44.265625 42.765625 -46.828125 C 42.347656 -49.398438 41.695312 -51.988281 40.8125 -54.59375 C 39.925781 -57.207031 38.734375 -59.398438 37.234375 -61.171875 C 35.742188 -62.953125 33.925781 -63.84375 31.78125 -63.84375 C 29.539062 -63.84375 27.648438 -62.953125 26.109375 -61.171875 C 24.566406 -59.398438 23.28125 -57.226562 22.25 -54.65625 C 21.226562 -52.09375 20.460938 -49.503906 19.953125 -46.890625 C 19.441406 -44.285156 19.09375 -42.140625 18.90625 -40.453125 Z M 18.90625 -40.453125 "/></g></g></g><g fill="#2d3e70" fill-opacity="1"><g transform="translate(903.936779, 291.266943)"><g><path d="M 1.125 -57.546875 L 22.265625 -64.265625 L 22.265625 -58.234375 L 23.796875 -59.640625 C 26.222656 -61.785156 28.929688 -63.367188 31.921875 -64.390625 C 34.910156 -65.421875 37.988281 -65.9375 41.15625 -65.9375 C 44.988281 -65.9375 48.65625 -65.304688 52.15625 -64.046875 C 55.65625 -62.785156 58.242188 -60.382812 59.921875 -56.84375 L 60.625 -55.4375 L 61.59375 -56.703125 C 63.925781 -59.867188 66.863281 -62.195312 70.40625 -63.6875 C 73.957031 -65.1875 77.648438 -65.9375 81.484375 -65.9375 C 87.546875 -65.9375 92.328125 -64.46875 95.828125 -61.53125 C 99.328125 -58.59375 101.078125 -53.945312 101.078125 -47.59375 L 101.078125 -9.9375 C 101.078125 -4.988281 103.316406 -2.46875 107.796875 -2.375 L 107.796875 0 L 80.078125 0 L 80.078125 -2.375 C 84.460938 -2.46875 86.65625 -4.988281 86.65625 -9.9375 L 86.65625 -47.3125 C 86.65625 -49.644531 86.257812 -51.976562 85.46875 -54.3125 C 84.675781 -56.644531 83.414062 -58.582031 81.6875 -60.125 C 79.957031 -61.664062 77.648438 -62.4375 74.765625 -62.4375 C 72.242188 -62.4375 70 -61.664062 68.03125 -60.125 C 66.070312 -58.582031 64.507812 -56.691406 63.34375 -54.453125 C 62.175781 -52.210938 61.59375 -49.925781 61.59375 -47.59375 L 61.59375 -9.9375 C 61.59375 -4.988281 63.832031 -2.46875 68.3125 -2.375 L 68.3125 0 L 40.59375 0 L 40.59375 -2.375 C 43.019531 -2.46875 44.722656 -3.117188 45.703125 -4.328125 C 46.691406 -5.546875 47.1875 -7.414062 47.1875 -9.9375 L 47.1875 -47.3125 C 47.1875 -51.425781 46.34375 -54.972656 44.65625 -57.953125 C 42.976562 -60.941406 39.710938 -62.4375 34.859375 -62.4375 C 32.242188 -62.4375 29.976562 -61.644531 28.0625 -60.0625 C 26.15625 -58.476562 24.710938 -56.519531 23.734375 -54.1875 C 22.753906 -51.851562 22.265625 -49.5625 22.265625 -47.3125 L 22.265625 -9.9375 C 22.265625 -4.988281 24.457031 -2.46875 28.84375 -2.375 L 28.84375 0 L 1.125 0 L 1.125 -2.375 C 5.601562 -2.46875 7.84375 -4.988281 7.84375 -9.9375 L 7.84375 -47.3125 C 7.84375 -52.164062 5.601562 -54.734375 1.125 -55.015625 Z M 1.125 -57.546875 "/></g></g></g><g fill="#2d3e70" fill-opacity="1"><g transform="translate(1012.710669, 291.266943)"><g><path d="M 1.546875 -57.546875 L 22.6875 -64.265625 L 22.6875 -9.9375 C 22.6875 -4.988281 24.878906 -2.46875 29.265625 -2.375 L 29.265625 0 L 1.546875 0 L 1.546875 -2.375 C 6.023438 -2.46875 8.265625 -4.988281 8.265625 -9.9375 L 8.265625 -47.3125 C 8.265625 -52.164062 6.023438 -54.734375 1.546875 -55.015625 Z M 3.5 -81.203125 C 3.5 -83.816406 4.429688 -86.054688 6.296875 -87.921875 C 8.160156 -89.785156 10.398438 -90.71875 13.015625 -90.71875 C 15.628906 -90.71875 17.894531 -89.785156 19.8125 -87.921875 C 21.726562 -86.054688 22.6875 -83.816406 22.6875 -81.203125 C 22.6875 -78.585938 21.703125 -76.300781 19.734375 -74.34375 C 17.773438 -72.382812 15.535156 -71.40625 13.015625 -71.40625 C 10.398438 -71.40625 8.160156 -72.382812 6.296875 -74.34375 C 4.429688 -76.300781 3.5 -78.585938 3.5 -81.203125 Z M 3.5 -81.203125 "/></g></g></g><g fill="#2d3e70" fill-opacity="1"><g transform="translate(1042.669011, 291.266943)"><g><path d="M 31.640625 1.40625 C 25.109375 1.40625 19.691406 -0.0859375 15.390625 -3.078125 C 11.097656 -6.066406 7.878906 -10.101562 5.734375 -15.1875 C 3.585938 -20.269531 2.515625 -25.941406 2.515625 -32.203125 C 2.515625 -42.460938 5.101562 -50.648438 10.28125 -56.765625 C 15.46875 -62.878906 23.285156 -65.9375 33.734375 -65.9375 C 37.003906 -65.9375 40.316406 -65.351562 43.671875 -64.1875 C 47.035156 -63.019531 49.859375 -61.242188 52.140625 -58.859375 C 54.429688 -56.484375 55.578125 -53.523438 55.578125 -49.984375 C 55.578125 -48.117188 54.875 -46.601562 53.46875 -45.4375 C 52.070312 -44.269531 50.394531 -43.6875 48.4375 -43.6875 C 44.613281 -43.6875 42.1875 -45.691406 41.15625 -49.703125 C 40.96875 -50.359375 40.78125 -51.035156 40.59375 -51.734375 C 40.40625 -52.429688 40.175781 -53.15625 39.90625 -53.90625 C 39.25 -56.238281 38.21875 -58.453125 36.8125 -60.546875 C 35.414062 -62.648438 33.316406 -63.703125 30.515625 -63.703125 C 27.710938 -63.703125 25.445312 -62.648438 23.71875 -60.546875 C 22 -58.453125 20.695312 -55.863281 19.8125 -52.78125 C 18.925781 -49.695312 18.316406 -46.59375 17.984375 -43.46875 C 17.660156 -40.34375 17.5 -37.753906 17.5 -35.703125 C 17.5 -32.617188 17.894531 -29.421875 18.6875 -26.109375 C 19.476562 -22.796875 20.710938 -19.710938 22.390625 -16.859375 C 24.078125 -14.015625 26.273438 -11.707031 28.984375 -9.9375 C 31.691406 -8.164062 34.957031 -7.28125 38.78125 -7.28125 C 41.863281 -7.28125 44.875 -7.976562 47.8125 -9.375 C 50.75 -10.78125 53.101562 -12.789062 54.875 -15.40625 L 56.421875 -14.421875 C 53.804688 -9.285156 50.535156 -5.363281 46.609375 -2.65625 C 42.691406 0.0507812 37.703125 1.40625 31.640625 1.40625 Z M 31.640625 1.40625 "/></g></g></g><g fill="#2d3e70" fill-opacity="1"><g transform="translate(1101.465731, 291.266943)"><g><path d="M 24.078125 1.265625 C 20.160156 1.265625 16.566406 0.566406 13.296875 -0.828125 C 10.035156 -2.234375 7.398438 -4.359375 5.390625 -7.203125 C 3.378906 -10.054688 2.375 -13.535156 2.375 -17.640625 C 2.375 -22.492188 3.492188 -26.578125 5.734375 -29.890625 C 7.972656 -33.203125 11.003906 -35.722656 14.828125 -37.453125 C 18.660156 -39.179688 22.863281 -40.046875 27.4375 -40.046875 C 29.113281 -40.046875 30.769531 -39.925781 32.40625 -39.6875 C 34.039062 -39.457031 35.601562 -39.015625 37.09375 -38.359375 L 38.5 -37.796875 L 38.5 -48.015625 C 38.5 -49.421875 38.453125 -51.101562 38.359375 -53.0625 C 38.265625 -55.019531 37.984375 -56.601562 37.515625 -57.8125 C 37.046875 -59.5 36.226562 -60.925781 35.0625 -62.09375 C 33.894531 -63.257812 32.191406 -63.84375 29.953125 -63.84375 C 27.160156 -63.84375 25.0625 -63.046875 23.65625 -61.453125 C 22.257812 -59.867188 21.347656 -57.957031 20.921875 -55.71875 C 20.503906 -53.476562 20.296875 -51.378906 20.296875 -49.421875 C 20.296875 -47.929688 19.476562 -46.8125 17.84375 -46.0625 C 16.21875 -45.3125 14.5625 -44.9375 12.875 -44.9375 C 11.289062 -44.9375 9.726562 -45.285156 8.1875 -45.984375 C 6.644531 -46.691406 5.875 -47.789062 5.875 -49.28125 C 5.875 -53.476562 7.132812 -56.789062 9.65625 -59.21875 C 12.175781 -61.644531 15.328125 -63.367188 19.109375 -64.390625 C 22.890625 -65.421875 26.597656 -65.9375 30.234375 -65.9375 C 37.046875 -65.9375 42.53125 -64.347656 46.6875 -61.171875 C 50.84375 -58.003906 52.921875 -52.921875 52.921875 -45.921875 L 52.921875 -10.5 C 52.921875 -10.21875 52.921875 -9.957031 52.921875 -9.71875 C 52.921875 -9.488281 52.921875 -9.234375 52.921875 -8.953125 C 52.921875 -8.679688 52.941406 -8.378906 52.984375 -8.046875 C 53.035156 -7.722656 53.109375 -7.421875 53.203125 -7.140625 C 53.390625 -6.578125 53.691406 -6.039062 54.109375 -5.53125 C 54.523438 -5.019531 55.203125 -4.765625 56.140625 -4.765625 C 57.171875 -4.765625 58.148438 -5.085938 59.078125 -5.734375 L 60.203125 -4.34375 C 58.703125 -2.570312 56.898438 -1.285156 54.796875 -0.484375 C 52.703125 0.304688 50.441406 0.703125 48.015625 0.703125 C 46.242188 0.703125 44.632812 0.328125 43.1875 -0.421875 C 41.738281 -1.171875 40.597656 -2.289062 39.765625 -3.78125 L 39.203125 -4.90625 L 38.21875 -4.0625 C 36.351562 -2.101562 34.207031 -0.726562 31.78125 0.0625 C 29.351562 0.863281 26.785156 1.265625 24.078125 1.265625 Z M 17.5 -17.078125 C 17.5 -14.929688 17.78125 -12.644531 18.34375 -10.21875 C 18.90625 -7.789062 19.953125 -5.738281 21.484375 -4.0625 C 23.023438 -2.382812 25.289062 -1.546875 28.28125 -1.546875 C 29.675781 -1.546875 31.164062 -1.894531 32.75 -2.59375 C 34.34375 -3.289062 35.695312 -4.289062 36.8125 -5.59375 C 37.9375 -6.90625 38.5 -8.398438 38.5 -10.078125 L 38.5 -35.84375 L 37.796875 -36.125 C 37.140625 -36.40625 36.414062 -36.585938 35.625 -36.671875 C 34.832031 -36.765625 34.0625 -36.8125 33.3125 -36.8125 C 29.488281 -36.8125 26.410156 -35.851562 24.078125 -33.9375 C 21.742188 -32.03125 20.0625 -29.5625 19.03125 -26.53125 C 18.007812 -23.5 17.5 -20.347656 17.5 -17.078125 Z M 17.5 -17.078125 "/></g></g></g><g fill="#2d3e70" fill-opacity="1"><g transform="translate(1162.922332, 291.266943)"><g><path d="M 0.984375 -91 L 22.125 -97.578125 L 22.125 -9.9375 C 22.125 -4.988281 24.316406 -2.46875 28.703125 -2.375 L 28.703125 0 L 0.984375 0 L 0.984375 -2.375 C 5.460938 -2.46875 7.703125 -4.988281 7.703125 -9.9375 L 7.703125 -80.78125 C 7.703125 -85.632812 5.460938 -88.203125 0.984375 -88.484375 Z M 0.984375 -91 "/></g></g></g><g fill="#2d3e70" fill-opacity="1"><g transform="translate(270.6118, 487.016933)"><g><path d="M 3.5 -45.921875 C 3.5 -52.171875 4.269531 -58.070312 5.8125 -63.625 C 7.351562 -69.175781 9.707031 -74.097656 12.875 -78.390625 C 16.050781 -82.691406 20.066406 -86.078125 24.921875 -88.546875 C 29.773438 -91.023438 35.515625 -92.265625 42.140625 -92.265625 C 51.003906 -92.265625 58.257812 -90.160156 63.90625 -85.953125 C 69.550781 -81.753906 73.75 -76.175781 76.5 -69.21875 C 79.257812 -62.269531 80.640625 -54.644531 80.640625 -46.34375 C 80.640625 -40.175781 79.867188 -34.222656 78.328125 -28.484375 C 76.785156 -22.742188 74.425781 -17.632812 71.25 -13.15625 C 68.082031 -8.675781 64.070312 -5.128906 59.21875 -2.515625 C 54.363281 0.0976562 48.578125 1.40625 41.859375 1.40625 C 35.234375 1.40625 29.492188 0.125 24.640625 -2.4375 C 19.785156 -5.007812 15.796875 -8.507812 12.671875 -12.9375 C 9.546875 -17.375 7.234375 -22.441406 5.734375 -28.140625 C 4.242188 -33.835938 3.5 -39.765625 3.5 -45.921875 Z M 18.765625 -45.78125 C 18.765625 -43.070312 18.898438 -39.800781 19.171875 -35.96875 C 19.453125 -32.144531 20.035156 -28.203125 20.921875 -24.140625 C 21.816406 -20.085938 23.101562 -16.285156 24.78125 -12.734375 C 26.457031 -9.191406 28.695312 -6.320312 31.5 -4.125 C 34.300781 -1.9375 37.800781 -0.84375 42 -0.84375 C 46.195312 -0.84375 49.695312 -1.9375 52.5 -4.125 C 55.300781 -6.320312 57.5625 -9.191406 59.28125 -12.734375 C 61.007812 -16.285156 62.316406 -20.113281 63.203125 -24.21875 C 64.097656 -28.320312 64.679688 -32.285156 64.953125 -36.109375 C 65.234375 -39.941406 65.375 -43.210938 65.375 -45.921875 C 65.375 -48.628906 65.234375 -51.867188 64.953125 -55.640625 C 64.679688 -59.421875 64.097656 -63.316406 63.203125 -67.328125 C 62.316406 -71.347656 61.035156 -75.082031 59.359375 -78.53125 C 57.679688 -81.988281 55.441406 -84.789062 52.640625 -86.9375 C 49.835938 -89.082031 46.335938 -90.15625 42.140625 -90.15625 C 37.941406 -90.15625 34.441406 -89.082031 31.640625 -86.9375 C 28.835938 -84.789062 26.570312 -81.988281 24.84375 -78.53125 C 23.125 -75.082031 21.816406 -71.347656 20.921875 -67.328125 C 20.035156 -63.316406 19.453125 -59.398438 19.171875 -55.578125 C 18.898438 -51.753906 18.765625 -48.488281 18.765625 -45.78125 Z M 18.765625 -45.78125 "/></g></g></g><g fill="#2d3e70" fill-opacity="1"><g transform="translate(352.92719, 487.016933)"><g><path d="M 1.40625 -62.859375 L 1.40625 -65.09375 L 31.5 -65.09375 L 31.5 -62.859375 C 30.65625 -62.765625 29.90625 -62.414062 29.25 -61.8125 C 28.601562 -61.207031 28.28125 -60.296875 28.28125 -59.078125 C 28.28125 -58.234375 28.441406 -57.414062 28.765625 -56.625 C 29.097656 -55.832031 29.445312 -55.15625 29.8125 -54.59375 L 40.046875 -39.765625 L 49.984375 -53.0625 C 50.816406 -54.175781 51.234375 -55.484375 51.234375 -56.984375 C 51.234375 -59.222656 50.414062 -60.738281 48.78125 -61.53125 C 47.15625 -62.320312 45.546875 -62.765625 43.953125 -62.859375 L 43.953125 -65.09375 L 68.875 -65.09375 L 68.875 -62.859375 C 66.820312 -62.671875 64.742188 -61.96875 62.640625 -60.75 C 60.546875 -59.539062 58.632812 -58.144531 56.90625 -56.5625 C 55.175781 -54.976562 53.753906 -53.4375 52.640625 -51.9375 L 41.4375 -37.65625 L 60.0625 -10.5 C 61.269531 -8.726562 62.738281 -6.976562 64.46875 -5.25 C 66.195312 -3.519531 68.320312 -2.5625 70.84375 -2.375 L 70.84375 0 L 40.734375 0 L 40.734375 -2.375 C 41.578125 -2.5625 42.320312 -2.9375 42.96875 -3.5 C 43.625 -4.0625 43.953125 -4.898438 43.953125 -6.015625 C 43.953125 -6.859375 43.8125 -7.675781 43.53125 -8.46875 C 43.257812 -9.257812 42.890625 -9.984375 42.421875 -10.640625 L 31.5 -26.59375 L 20.578125 -12.046875 C 19.734375 -10.921875 19.3125 -9.660156 19.3125 -8.265625 C 19.3125 -6.023438 20.148438 -4.503906 21.828125 -3.703125 C 23.515625 -2.910156 25.101562 -2.46875 26.59375 -2.375 L 26.59375 0 L 1.6875 0 L 1.6875 -2.375 C 3.832031 -2.5625 5.90625 -3.257812 7.90625 -4.46875 C 9.914062 -5.6875 11.804688 -7.113281 13.578125 -8.75 C 15.347656 -10.382812 16.796875 -11.898438 17.921875 -13.296875 L 30.09375 -28.703125 L 12.3125 -54.734375 C 11.101562 -56.609375 9.613281 -58.359375 7.84375 -59.984375 C 6.070312 -61.617188 3.925781 -62.578125 1.40625 -62.859375 Z M 1.40625 -62.859375 "/></g></g></g><g fill="#2d3e70" fill-opacity="1"><g transform="translate(424.323202, 487.016933)"><g><path d="M 11.765625 32.0625 C 8.304688 32.0625 5.242188 30.960938 2.578125 28.765625 C -0.078125 26.578125 -1.40625 23.660156 -1.40625 20.015625 C -1.40625 17.960938 -0.679688 16.28125 0.765625 14.96875 C 2.210938 13.664062 3.914062 13.015625 5.875 13.015625 C 8.019531 13.015625 9.628906 13.664062 10.703125 14.96875 C 11.773438 16.28125 12.5 18.007812 12.875 20.15625 C 12.96875 20.71875 13.082031 21.320312 13.21875 21.96875 C 13.363281 22.625 13.625 23.234375 14 23.796875 C 14.28125 24.453125 14.695312 25.015625 15.25 25.484375 C 15.8125 25.953125 16.5625 26.1875 17.5 26.1875 C 19.363281 26.1875 21.132812 25.179688 22.8125 23.171875 C 24.5 21.160156 25.945312 19.035156 27.15625 16.796875 C 28.5625 14.367188 29.800781 11.960938 30.875 9.578125 C 31.945312 7.203125 32.757812 5.457031 33.3125 4.34375 L 33.453125 3.921875 L 11.0625 -52.359375 C 10.21875 -54.316406 8.742188 -56.460938 6.640625 -58.796875 C 4.546875 -61.128906 2.238281 -62.484375 -0.28125 -62.859375 L -0.28125 -65.09375 L 28.421875 -65.09375 L 28.421875 -62.859375 C 27.484375 -62.671875 26.664062 -62.25 25.96875 -61.59375 C 25.269531 -60.945312 24.921875 -59.96875 24.921875 -58.65625 C 24.921875 -57.914062 25.0625 -57.171875 25.34375 -56.421875 C 25.4375 -56.234375 25.550781 -56 25.6875 -55.71875 C 25.832031 -55.4375 25.953125 -55.109375 26.046875 -54.734375 L 42.140625 -13.859375 L 58.796875 -50.6875 C 59.359375 -51.988281 59.640625 -53.335938 59.640625 -54.734375 C 59.640625 -56.972656 59.007812 -58.648438 57.75 -59.765625 C 56.488281 -60.890625 54.992188 -61.6875 53.265625 -62.15625 C 51.546875 -62.625 49.9375 -62.859375 48.4375 -62.859375 L 48.4375 -65.09375 L 73.21875 -65.09375 L 73.21875 -62.71875 C 71.632812 -62.4375 70.070312 -61.617188 68.53125 -60.265625 C 66.988281 -58.910156 65.65625 -57.441406 64.53125 -55.859375 C 63.414062 -54.273438 62.578125 -52.875 62.015625 -51.65625 L 37.515625 0.5625 C 36.492188 2.707031 35.46875 4.898438 34.4375 7.140625 C 33.414062 9.378906 32.390625 11.617188 31.359375 13.859375 C 30.054688 16.378906 28.515625 19.0625 26.734375 21.90625 C 24.960938 24.757812 22.835938 27.164062 20.359375 29.125 C 17.890625 31.082031 15.023438 32.0625 11.765625 32.0625 Z M 11.765625 32.0625 "/></g></g></g><g fill="#2d3e70" fill-opacity="1"><g transform="translate(495.719225, 487.016933)"><g><path d="M -1.125 21.421875 C -1.125 18.898438 -0.398438 16.707031 1.046875 14.84375 C 2.492188 12.976562 4.359375 11.4375 6.640625 10.21875 C 8.929688 9.007812 11.242188 8.171875 13.578125 7.703125 L 17.078125 7 L 13.71875 5.734375 C 10.632812 4.617188 8.132812 3.082031 6.21875 1.125 C 4.3125 -0.832031 3.359375 -3.492188 3.359375 -6.859375 C 3.359375 -9.285156 4.175781 -11.429688 5.8125 -13.296875 C 7.445312 -15.160156 9.382812 -16.421875 11.625 -17.078125 L 13.296875 -17.640625 L 12.046875 -18.765625 C 9.148438 -21.378906 7 -24.476562 5.59375 -28.0625 C 4.195312 -31.65625 3.5 -35.414062 3.5 -39.34375 C 3.5 -44.75 4.640625 -49.4375 6.921875 -53.40625 C 9.210938 -57.375 12.410156 -60.453125 16.515625 -62.640625 C 20.628906 -64.835938 25.296875 -65.9375 30.515625 -65.9375 C 34.628906 -65.9375 38.550781 -65.238281 42.28125 -63.84375 L 43.546875 -63.28125 L 43.546875 -64.6875 C 43.816406 -67.570312 44.488281 -70.414062 45.5625 -73.21875 C 46.644531 -76.019531 48.210938 -78.351562 50.265625 -80.21875 C 52.316406 -82.082031 54.832031 -83.015625 57.8125 -83.015625 C 59.96875 -83.015625 61.695312 -82.382812 63 -81.125 C 64.300781 -79.863281 64.953125 -78.160156 64.953125 -76.015625 C 64.953125 -74.054688 64.367188 -72.398438 63.203125 -71.046875 C 62.035156 -69.691406 60.472656 -69.015625 58.515625 -69.015625 C 58.140625 -69.015625 57.742188 -69.035156 57.328125 -69.078125 C 56.910156 -69.128906 56.46875 -69.15625 56 -69.15625 C 53.664062 -69.15625 51.703125 -68.5 50.109375 -67.1875 C 48.523438 -65.882812 47.410156 -64.160156 46.765625 -62.015625 L 46.484375 -61.3125 L 47.046875 -60.90625 C 50.585938 -58.382812 53.148438 -55.234375 54.734375 -51.453125 C 56.328125 -47.671875 57.125 -43.632812 57.125 -39.34375 C 57.125 -31.125 54.71875 -24.585938 49.90625 -19.734375 C 45.101562 -14.878906 38.640625 -12.453125 30.515625 -12.453125 C 27.804688 -12.453125 25.125 -12.78125 22.46875 -13.4375 C 19.8125 -14.09375 17.316406 -15.117188 14.984375 -16.515625 L 14.5625 -16.796875 L 14 -16.65625 C 13.25 -16.28125 12.523438 -15.695312 11.828125 -14.90625 C 11.128906 -14.113281 10.78125 -13.160156 10.78125 -12.046875 C 10.78125 -11.203125 11.015625 -10.472656 11.484375 -9.859375 C 11.953125 -9.253906 12.507812 -8.722656 13.15625 -8.265625 C 13.8125 -7.796875 14.554688 -7.394531 15.390625 -7.0625 C 16.234375 -6.738281 17.078125 -6.4375 17.921875 -6.15625 C 19.691406 -5.6875 21.441406 -5.335938 23.171875 -5.109375 C 24.898438 -4.878906 26.179688 -4.671875 27.015625 -4.484375 C 28.328125 -4.296875 29.632812 -4.109375 30.9375 -3.921875 C 32.25 -3.734375 33.554688 -3.546875 34.859375 -3.359375 C 37.472656 -2.984375 40.179688 -2.445312 42.984375 -1.75 C 45.785156 -1.050781 48.394531 -0.0507812 50.8125 1.25 C 53.238281 2.5625 55.222656 4.289062 56.765625 6.4375 C 58.304688 8.582031 59.078125 11.289062 59.078125 14.5625 C 59.078125 17.082031 58.445312 19.507812 57.1875 21.84375 C 55.925781 24.175781 54.363281 26.226562 52.5 28 C 50.257812 30.144531 47.53125 31.820312 44.3125 33.03125 C 41.09375 34.25 37.753906 35.09375 34.296875 35.5625 C 30.847656 36.03125 27.535156 36.265625 24.359375 36.265625 C 21.929688 36.265625 19.25 36.03125 16.3125 35.5625 C 13.375 35.09375 10.570312 34.296875 7.90625 33.171875 C 5.25 32.054688 3.078125 30.539062 1.390625 28.625 C -0.285156 26.71875 -1.125 24.316406 -1.125 21.421875 Z M 30.234375 -64.40625 C 27.441406 -64.40625 25.273438 -63.492188 23.734375 -61.671875 C 22.191406 -59.847656 21.066406 -57.5625 20.359375 -54.8125 C 19.660156 -52.0625 19.242188 -49.285156 19.109375 -46.484375 C 18.972656 -43.679688 18.90625 -41.300781 18.90625 -39.34375 C 18.90625 -37.382812 18.992188 -34.976562 19.171875 -32.125 C 19.359375 -29.28125 19.800781 -26.476562 20.5 -23.71875 C 21.207031 -20.96875 22.351562 -18.660156 23.9375 -16.796875 C 25.519531 -14.929688 27.710938 -14 30.515625 -14 C 33.316406 -14 35.488281 -14.929688 37.03125 -16.796875 C 38.570312 -18.660156 39.691406 -20.96875 40.390625 -23.71875 C 41.085938 -26.476562 41.503906 -29.28125 41.640625 -32.125 C 41.785156 -34.976562 41.859375 -37.382812 41.859375 -39.34375 C 41.859375 -41.300781 41.765625 -43.703125 41.578125 -46.546875 C 41.390625 -49.390625 40.945312 -52.164062 40.25 -54.875 C 39.550781 -57.582031 38.40625 -59.847656 36.8125 -61.671875 C 35.226562 -63.492188 33.035156 -64.40625 30.234375 -64.40625 Z M 19.453125 7.84375 C 16.566406 8.863281 14.164062 10.609375 12.25 13.078125 C 10.332031 15.554688 9.375 18.429688 9.375 21.703125 C 9.375 24.867188 10.304688 27.335938 12.171875 29.109375 C 14.046875 30.890625 16.285156 32.148438 18.890625 32.890625 C 21.503906 33.640625 23.976562 34.015625 26.3125 34.015625 C 29.019531 34.015625 31.726562 33.546875 34.4375 32.609375 C 37.144531 31.679688 39.40625 30.191406 41.21875 28.140625 C 43.039062 26.085938 43.953125 23.378906 43.953125 20.015625 C 43.953125 17.960938 43.367188 16.328125 42.203125 15.109375 C 41.035156 13.898438 39.585938 12.921875 37.859375 12.171875 C 36.140625 11.429688 34.441406 10.875 32.765625 10.5 C 31.921875 10.3125 31.125 10.125 30.375 9.9375 C 29.632812 9.75 28.9375 9.609375 28.28125 9.515625 C 26.96875 9.234375 25.613281 8.953125 24.21875 8.671875 C 22.820312 8.398438 21.421875 8.078125 20.015625 7.703125 L 19.734375 7.703125 Z M 19.453125 7.84375 "/></g></g></g><g fill="#2d3e70" fill-opacity="1"><g transform="translate(556.195845, 487.016933)"><g><path d="M 3.5 -32.0625 C 3.5 -38.125 4.59375 -43.722656 6.78125 -48.859375 C 8.976562 -53.992188 12.222656 -58.125 16.515625 -61.25 C 20.804688 -64.375 26.128906 -65.9375 32.484375 -65.9375 C 37.984375 -65.9375 42.671875 -64.695312 46.546875 -62.21875 C 50.421875 -59.75 53.382812 -56.367188 55.4375 -52.078125 C 57.488281 -47.785156 58.515625 -42.976562 58.515625 -37.65625 L 58.515625 -37.234375 L 18.625 -37.234375 L 18.625 -35.28125 C 18.625 -32.289062 18.992188 -29.207031 19.734375 -26.03125 C 20.484375 -22.863281 21.648438 -19.898438 23.234375 -17.140625 C 24.828125 -14.390625 26.90625 -12.148438 29.46875 -10.421875 C 32.03125 -8.703125 35.179688 -7.84375 38.921875 -7.84375 C 42.367188 -7.84375 45.75 -8.65625 49.0625 -10.28125 C 52.382812 -11.914062 55.070312 -14.132812 57.125 -16.9375 L 58.375 -16.09375 C 55.582031 -10.6875 52.34375 -6.414062 48.65625 -3.28125 C 44.96875 -0.15625 39.8125 1.40625 33.1875 1.40625 C 26.738281 1.40625 21.320312 -0.0859375 16.9375 -3.078125 C 12.550781 -6.066406 9.210938 -10.101562 6.921875 -15.1875 C 4.640625 -20.269531 3.5 -25.894531 3.5 -32.0625 Z M 18.90625 -40.453125 L 18.90625 -39.484375 L 43.546875 -39.484375 L 43.546875 -40.453125 C 43.453125 -42.140625 43.191406 -44.265625 42.765625 -46.828125 C 42.347656 -49.398438 41.695312 -51.988281 40.8125 -54.59375 C 39.925781 -57.207031 38.734375 -59.398438 37.234375 -61.171875 C 35.742188 -62.953125 33.925781 -63.84375 31.78125 -63.84375 C 29.539062 -63.84375 27.648438 -62.953125 26.109375 -61.171875 C 24.566406 -59.398438 23.28125 -57.226562 22.25 -54.65625 C 21.226562 -52.09375 20.460938 -49.503906 19.953125 -46.890625 C 19.441406 -44.285156 19.09375 -42.140625 18.90625 -40.453125 Z M 18.90625 -40.453125 "/></g></g></g><g fill="#2d3e70" fill-opacity="1"><g transform="translate(618.352367, 487.016933)"><g><path d="M 1.125 -57.546875 L 22.265625 -64.265625 L 22.265625 -55.71875 L 23.9375 -58.234375 C 26.082031 -61.222656 28.785156 -63.253906 32.046875 -64.328125 C 35.316406 -65.398438 38.679688 -65.9375 42.140625 -65.9375 C 48.203125 -65.9375 53.144531 -64.46875 56.96875 -61.53125 C 60.800781 -58.59375 62.71875 -53.945312 62.71875 -47.59375 L 62.71875 -9.9375 C 62.71875 -7.414062 63.226562 -5.546875 64.25 -4.328125 C 65.28125 -3.117188 66.960938 -2.46875 69.296875 -2.375 L 69.296875 0 L 41.578125 0 L 41.578125 -2.375 C 46.054688 -2.46875 48.296875 -4.988281 48.296875 -9.9375 L 48.296875 -47.3125 C 48.296875 -49.738281 47.851562 -52.09375 46.96875 -54.375 C 46.082031 -56.664062 44.75 -58.582031 42.96875 -60.125 C 41.195312 -61.664062 38.867188 -62.4375 35.984375 -62.4375 C 33.554688 -62.4375 31.289062 -61.644531 29.1875 -60.0625 C 27.09375 -58.476562 25.414062 -56.519531 24.15625 -54.1875 C 22.894531 -51.851562 22.265625 -49.5625 22.265625 -47.3125 L 22.265625 -9.9375 C 22.265625 -4.988281 24.457031 -2.46875 28.84375 -2.375 L 28.84375 0 L 1.125 0 L 1.125 -2.375 C 5.601562 -2.46875 7.84375 -4.988281 7.84375 -9.9375 L 7.84375 -47.3125 C 7.84375 -52.164062 5.601562 -54.734375 1.125 -55.015625 Z M 1.125 -57.546875 "/></g></g></g><g fill="#2d3e70" fill-opacity="1"><g transform="translate(687.788475, 487.016933)"><g/></g></g><g fill="#2d3e70" fill-opacity="1"><g transform="translate(714.946951, 487.016933)"><g><path d="M 1.265625 -90.71875 L 24.78125 -90.71875 C 27.207031 -90.71875 29.65625 -90.738281 32.125 -90.78125 C 34.601562 -90.832031 37.148438 -90.8125 39.765625 -90.71875 C 42.191406 -90.625 44.660156 -90.484375 47.171875 -90.296875 C 49.691406 -90.109375 52.117188 -89.78125 54.453125 -89.3125 C 61.734375 -87.820312 67.5 -84.882812 71.75 -80.5 C 76 -76.113281 79.03125 -70.789062 80.84375 -64.53125 C 82.664062 -58.28125 83.578125 -51.609375 83.578125 -44.515625 C 83.578125 -37.515625 82.597656 -30.9375 80.640625 -24.78125 C 78.679688 -18.625 75.507812 -13.421875 71.125 -9.171875 C 66.738281 -4.921875 60.859375 -2.238281 53.484375 -1.125 C 48.910156 -0.46875 44.125 -0.113281 39.125 -0.0625 C 34.132812 -0.0195312 29.351562 0 24.78125 0 L 1.265625 0 L 1.265625 -2.234375 C 3.410156 -2.421875 5.296875 -3.070312 6.921875 -4.1875 C 8.554688 -5.3125 9.375 -7.226562 9.375 -9.9375 L 9.375 -80.78125 C 9.375 -83.488281 8.554688 -85.425781 6.921875 -86.59375 C 5.296875 -87.757812 3.410156 -88.390625 1.265625 -88.484375 Z M 23.796875 -2.234375 L 24.78125 -2.234375 C 28.976562 -2.234375 33.316406 -2.488281 37.796875 -3 C 42.273438 -3.519531 46.476562 -4.804688 50.40625 -6.859375 C 55.164062 -9.378906 58.828125 -12.804688 61.390625 -17.140625 C 63.953125 -21.484375 65.742188 -26.222656 66.765625 -31.359375 C 67.796875 -36.492188 68.3125 -41.441406 68.3125 -46.203125 C 68.3125 -49.460938 68.007812 -53.125 67.40625 -57.1875 C 66.800781 -61.25 65.773438 -65.285156 64.328125 -69.296875 C 62.878906 -73.304688 60.914062 -76.851562 58.4375 -79.9375 C 55.96875 -83.019531 52.867188 -85.164062 49.140625 -86.375 C 47.085938 -87.125 44.566406 -87.640625 41.578125 -87.921875 C 38.585938 -88.203125 35.597656 -88.390625 32.609375 -88.484375 C 29.628906 -88.578125 27.019531 -88.625 24.78125 -88.625 L 23.796875 -88.625 Z M 23.796875 -2.234375 "/></g></g></g><g fill="#2d3e70" fill-opacity="1"><g transform="translate(801.042131, 487.016933)"><g><path d="M 3.5 -32.0625 C 3.5 -38.125 4.59375 -43.722656 6.78125 -48.859375 C 8.976562 -53.992188 12.222656 -58.125 16.515625 -61.25 C 20.804688 -64.375 26.128906 -65.9375 32.484375 -65.9375 C 37.984375 -65.9375 42.671875 -64.695312 46.546875 -62.21875 C 50.421875 -59.75 53.382812 -56.367188 55.4375 -52.078125 C 57.488281 -47.785156 58.515625 -42.976562 58.515625 -37.65625 L 58.515625 -37.234375 L 18.625 -37.234375 L 18.625 -35.28125 C 18.625 -32.289062 18.992188 -29.207031 19.734375 -26.03125 C 20.484375 -22.863281 21.648438 -19.898438 23.234375 -17.140625 C 24.828125 -14.390625 26.90625 -12.148438 29.46875 -10.421875 C 32.03125 -8.703125 35.179688 -7.84375 38.921875 -7.84375 C 42.367188 -7.84375 45.75 -8.65625 49.0625 -10.28125 C 52.382812 -11.914062 55.070312 -14.132812 57.125 -16.9375 L 58.375 -16.09375 C 55.582031 -10.6875 52.34375 -6.414062 48.65625 -3.28125 C 44.96875 -0.15625 39.8125 1.40625 33.1875 1.40625 C 26.738281 1.40625 21.320312 -0.0859375 16.9375 -3.078125 C 12.550781 -6.066406 9.210938 -10.101562 6.921875 -15.1875 C 4.640625 -20.269531 3.5 -25.894531 3.5 -32.0625 Z M 18.90625 -40.453125 L 18.90625 -39.484375 L 43.546875 -39.484375 L 43.546875 -40.453125 C 43.453125 -42.140625 43.191406 -44.265625 42.765625 -46.828125 C 42.347656 -49.398438 41.695312 -51.988281 40.8125 -54.59375 C 39.925781 -57.207031 38.734375 -59.398438 37.234375 -61.171875 C 35.742188 -62.953125 33.925781 -63.84375 31.78125 -63.84375 C 29.539062 -63.84375 27.648438 -62.953125 26.109375 -61.171875 C 24.566406 -59.398438 23.28125 -57.226562 22.25 -54.65625 C 21.226562 -52.09375 20.460938 -49.503906 19.953125 -46.890625 C 19.441406 -44.285156 19.09375 -42.140625 18.90625 -40.453125 Z M 18.90625 -40.453125 "/></g></g></g><g fill="#2d3e70" fill-opacity="1"><g transform="translate(863.198653, 487.016933)"><g><path d="M 1.125 -57.546875 L 22.265625 -64.265625 L 22.265625 -58.234375 L 23.796875 -59.640625 C 26.222656 -61.785156 28.929688 -63.367188 31.921875 -64.390625 C 34.910156 -65.421875 37.988281 -65.9375 41.15625 -65.9375 C 44.988281 -65.9375 48.65625 -65.304688 52.15625 -64.046875 C 55.65625 -62.785156 58.242188 -60.382812 59.921875 -56.84375 L 60.625 -55.4375 L 61.59375 -56.703125 C 63.925781 -59.867188 66.863281 -62.195312 70.40625 -63.6875 C 73.957031 -65.1875 77.648438 -65.9375 81.484375 -65.9375 C 87.546875 -65.9375 92.328125 -64.46875 95.828125 -61.53125 C 99.328125 -58.59375 101.078125 -53.945312 101.078125 -47.59375 L 101.078125 -9.9375 C 101.078125 -4.988281 103.316406 -2.46875 107.796875 -2.375 L 107.796875 0 L 80.078125 0 L 80.078125 -2.375 C 84.460938 -2.46875 86.65625 -4.988281 86.65625 -9.9375 L 86.65625 -47.3125 C 86.65625 -49.644531 86.257812 -51.976562 85.46875 -54.3125 C 84.675781 -56.644531 83.414062 -58.582031 81.6875 -60.125 C 79.957031 -61.664062 77.648438 -62.4375 74.765625 -62.4375 C 72.242188 -62.4375 70 -61.664062 68.03125 -60.125 C 66.070312 -58.582031 64.507812 -56.691406 63.34375 -54.453125 C 62.175781 -52.210938 61.59375 -49.925781 61.59375 -47.59375 L 61.59375 -9.9375 C 61.59375 -4.988281 63.832031 -2.46875 68.3125 -2.375 L 68.3125 0 L 40.59375 0 L 40.59375 -2.375 C 43.019531 -2.46875 44.722656 -3.117188 45.703125 -4.328125 C 46.691406 -5.546875 47.1875 -7.414062 47.1875 -9.9375 L 47.1875 -47.3125 C 47.1875 -51.425781 46.34375 -54.972656 44.65625 -57.953125 C 42.976562 -60.941406 39.710938 -62.4375 34.859375 -62.4375 C 32.242188 -62.4375 29.976562 -61.644531 28.0625 -60.0625 C 26.15625 -58.476562 24.710938 -56.519531 23.734375 -54.1875 C 22.753906 -51.851562 22.265625 -49.5625 22.265625 -47.3125 L 22.265625 -9.9375 C 22.265625 -4.988281 24.457031 -2.46875 28.84375 -2.375 L 28.84375 0 L 1.125 0 L 1.125 -2.375 C 5.601562 -2.46875 7.84375 -4.988281 7.84375 -9.9375 L 7.84375 -47.3125 C 7.84375 -52.164062 5.601562 -54.734375 1.125 -55.015625 Z M 1.125 -57.546875 "/></g></g></g><g fill="#2d3e70" fill-opacity="1"><g transform="translate(971.972542, 487.016933)"><g><path d="M 24.078125 1.265625 C 20.160156 1.265625 16.566406 0.566406 13.296875 -0.828125 C 10.035156 -2.234375 7.398438 -4.359375 5.390625 -7.203125 C 3.378906 -10.054688 2.375 -13.535156 2.375 -17.640625 C 2.375 -22.492188 3.492188 -26.578125 5.734375 -29.890625 C 7.972656 -33.203125 11.003906 -35.722656 14.828125 -37.453125 C 18.660156 -39.179688 22.863281 -40.046875 27.4375 -40.046875 C 29.113281 -40.046875 30.769531 -39.925781 32.40625 -39.6875 C 34.039062 -39.457031 35.601562 -39.015625 37.09375 -38.359375 L 38.5 -37.796875 L 38.5 -48.015625 C 38.5 -49.421875 38.453125 -51.101562 38.359375 -53.0625 C 38.265625 -55.019531 37.984375 -56.601562 37.515625 -57.8125 C 37.046875 -59.5 36.226562 -60.925781 35.0625 -62.09375 C 33.894531 -63.257812 32.191406 -63.84375 29.953125 -63.84375 C 27.160156 -63.84375 25.0625 -63.046875 23.65625 -61.453125 C 22.257812 -59.867188 21.347656 -57.957031 20.921875 -55.71875 C 20.503906 -53.476562 20.296875 -51.378906 20.296875 -49.421875 C 20.296875 -47.929688 19.476562 -46.8125 17.84375 -46.0625 C 16.21875 -45.3125 14.5625 -44.9375 12.875 -44.9375 C 11.289062 -44.9375 9.726562 -45.285156 8.1875 -45.984375 C 6.644531 -46.691406 5.875 -47.789062 5.875 -49.28125 C 5.875 -53.476562 7.132812 -56.789062 9.65625 -59.21875 C 12.175781 -61.644531 15.328125 -63.367188 19.109375 -64.390625 C 22.890625 -65.421875 26.597656 -65.9375 30.234375 -65.9375 C 37.046875 -65.9375 42.53125 -64.347656 46.6875 -61.171875 C 50.84375 -58.003906 52.921875 -52.921875 52.921875 -45.921875 L 52.921875 -10.5 C 52.921875 -10.21875 52.921875 -9.957031 52.921875 -9.71875 C 52.921875 -9.488281 52.921875 -9.234375 52.921875 -8.953125 C 52.921875 -8.679688 52.941406 -8.378906 52.984375 -8.046875 C 53.035156 -7.722656 53.109375 -7.421875 53.203125 -7.140625 C 53.390625 -6.578125 53.691406 -6.039062 54.109375 -5.53125 C 54.523438 -5.019531 55.203125 -4.765625 56.140625 -4.765625 C 57.171875 -4.765625 58.148438 -5.085938 59.078125 -5.734375 L 60.203125 -4.34375 C 58.703125 -2.570312 56.898438 -1.285156 54.796875 -0.484375 C 52.703125 0.304688 50.441406 0.703125 48.015625 0.703125 C 46.242188 0.703125 44.632812 0.328125 43.1875 -0.421875 C 41.738281 -1.171875 40.597656 -2.289062 39.765625 -3.78125 L 39.203125 -4.90625 L 38.21875 -4.0625 C 36.351562 -2.101562 34.207031 -0.726562 31.78125 0.0625 C 29.351562 0.863281 26.785156 1.265625 24.078125 1.265625 Z M 17.5 -17.078125 C 17.5 -14.929688 17.78125 -12.644531 18.34375 -10.21875 C 18.90625 -7.789062 19.953125 -5.738281 21.484375 -4.0625 C 23.023438 -2.382812 25.289062 -1.546875 28.28125 -1.546875 C 29.675781 -1.546875 31.164062 -1.894531 32.75 -2.59375 C 34.34375 -3.289062 35.695312 -4.289062 36.8125 -5.59375 C 37.9375 -6.90625 38.5 -8.398438 38.5 -10.078125 L 38.5 -35.84375 L 37.796875 -36.125 C 37.140625 -36.40625 36.414062 -36.585938 35.625 -36.671875 C 34.832031 -36.765625 34.0625 -36.8125 33.3125 -36.8125 C 29.488281 -36.8125 26.410156 -35.851562 24.078125 -33.9375 C 21.742188 -32.03125 20.0625 -29.5625 19.03125 -26.53125 C 18.007812 -23.5 17.5 -20.347656 17.5 -17.078125 Z M 17.5 -17.078125 "/></g></g></g><g fill="#2d3e70" fill-opacity="1"><g transform="translate(1033.429098, 487.016933)"><g><path d="M 1.125 -57.546875 L 22.265625 -64.265625 L 22.265625 -55.71875 L 23.9375 -58.234375 C 26.082031 -61.222656 28.785156 -63.253906 32.046875 -64.328125 C 35.316406 -65.398438 38.679688 -65.9375 42.140625 -65.9375 C 48.203125 -65.9375 53.144531 -64.46875 56.96875 -61.53125 C 60.800781 -58.59375 62.71875 -53.945312 62.71875 -47.59375 L 62.71875 -9.9375 C 62.71875 -7.414062 63.226562 -5.546875 64.25 -4.328125 C 65.28125 -3.117188 66.960938 -2.46875 69.296875 -2.375 L 69.296875 0 L 41.578125 0 L 41.578125 -2.375 C 46.054688 -2.46875 48.296875 -4.988281 48.296875 -9.9375 L 48.296875 -47.3125 C 48.296875 -49.738281 47.851562 -52.09375 46.96875 -54.375 C 46.082031 -56.664062 44.75 -58.582031 42.96875 -60.125 C 41.195312 -61.664062 38.867188 -62.4375 35.984375 -62.4375 C 33.554688 -62.4375 31.289062 -61.644531 29.1875 -60.0625 C 27.09375 -58.476562 25.414062 -56.519531 24.15625 -54.1875 C 22.894531 -51.851562 22.265625 -49.5625 22.265625 -47.3125 L 22.265625 -9.9375 C 22.265625 -4.988281 24.457031 -2.46875 28.84375 -2.375 L 28.84375 0 L 1.125 0 L 1.125 -2.375 C 5.601562 -2.46875 7.84375 -4.988281 7.84375 -9.9375 L 7.84375 -47.3125 C 7.84375 -52.164062 5.601562 -54.734375 1.125 -55.015625 Z M 1.125 -57.546875 "/></g></g></g><g fill="#2d3e70" fill-opacity="1"><g transform="translate(1102.865206, 487.016933)"><g><path d="M 27.4375 -0.140625 C 21.375 -0.140625 16.59375 -1.675781 13.09375 -4.75 C 9.59375 -7.832031 7.09375 -11.867188 5.59375 -16.859375 C 4.101562 -21.859375 3.359375 -27.113281 3.359375 -32.625 C 3.359375 -39.0625 4.289062 -44.800781 6.15625 -49.84375 C 8.019531 -54.882812 11.003906 -58.847656 15.109375 -61.734375 C 19.222656 -64.628906 24.640625 -66.078125 31.359375 -66.078125 C 33.503906 -66.078125 35.71875 -65.890625 38 -65.515625 C 40.289062 -65.140625 42.1875 -64.300781 43.6875 -63 L 45.21875 -61.59375 L 45.21875 -80.78125 C 45.21875 -85.632812 43.023438 -88.203125 38.640625 -88.484375 L 38.640625 -91 L 59.640625 -97.578125 L 59.640625 -17.359375 C 59.640625 -12.316406 61.878906 -9.75 66.359375 -9.65625 L 66.359375 -7 L 45.21875 -0.421875 L 45.21875 -9.65625 L 43.40625 -7.140625 C 41.625 -4.710938 39.265625 -2.9375 36.328125 -1.8125 C 33.390625 -0.695312 30.425781 -0.140625 27.4375 -0.140625 Z M 35.421875 -63.703125 C 32.054688 -63.703125 29.273438 -62.441406 27.078125 -59.921875 C 24.890625 -57.398438 23.1875 -54.296875 21.96875 -50.609375 C 20.757812 -46.921875 19.898438 -43.1875 19.390625 -39.40625 C 18.878906 -35.625 18.625 -32.472656 18.625 -29.953125 C 18.625 -27.898438 18.785156 -25.425781 19.109375 -22.53125 C 19.429688 -19.644531 20.109375 -16.820312 21.140625 -14.0625 C 22.171875 -11.3125 23.640625 -9.003906 25.546875 -7.140625 C 27.460938 -5.273438 30.007812 -4.34375 33.1875 -4.34375 C 35.601562 -4.34375 37.769531 -5.066406 39.6875 -6.515625 C 41.601562 -7.960938 43.164062 -9.570312 44.375 -11.34375 C 44.46875 -11.53125 44.609375 -11.71875 44.796875 -11.90625 C 44.890625 -12.09375 44.984375 -12.273438 45.078125 -12.453125 C 45.171875 -12.640625 45.21875 -12.875 45.21875 -13.15625 L 45.21875 -56.84375 C 45.21875 -57.40625 45.078125 -57.867188 44.796875 -58.234375 C 44.515625 -58.234375 44.375 -58.421875 44.375 -58.796875 C 43.351562 -60.296875 42.070312 -61.488281 40.53125 -62.375 C 38.988281 -63.257812 37.285156 -63.703125 35.421875 -63.703125 Z M 35.421875 -63.703125 "/></g></g></g><g fill="#ffffff" fill-opacity="1"><g transform="translate(81.000002, 777.374981)"><g><path d="M 5.140625 -5.015625 L 2.890625 -5.015625 L 2.890625 0 L 1.34375 0 L 1.34375 -12.59375 L 5.640625 -12.59375 C 6.648438 -12.59375 7.484375 -12.40625 8.140625 -12.03125 C 8.796875 -11.664062 9.265625 -11.191406 9.546875 -10.609375 C 9.835938 -10.035156 9.984375 -9.429688 9.984375 -8.796875 C 9.984375 -7.921875 9.722656 -7.132812 9.203125 -6.4375 C 8.679688 -5.75 7.867188 -5.304688 6.765625 -5.109375 L 10.09375 0 L 8.390625 0 Z M 2.890625 -6.359375 L 5.4375 -6.359375 C 6.289062 -6.359375 7.007812 -6.539062 7.59375 -6.90625 C 8.1875 -7.28125 8.484375 -7.910156 8.484375 -8.796875 C 8.484375 -9.671875 8.1875 -10.289062 7.59375 -10.65625 C 7.007812 -11.019531 6.289062 -11.203125 5.4375 -11.203125 L 2.890625 -11.203125 Z M 2.890625 -6.359375 "/></g></g></g><g fill="#ffffff" fill-opacity="1"><g transform="translate(91.88997, 777.374981)"><g><path d="M 4.71875 0.015625 L 4.71875 -4.546875 L 0.609375 -12.59375 L 2.296875 -12.59375 L 5.4375 -6.296875 L 5.5625 -6.296875 L 8.671875 -12.59375 L 10.375 -12.59375 L 6.28125 -4.546875 L 6.28125 0 Z M 4.71875 0.015625 "/></g></g></g><g fill="#ffffff" fill-opacity="1"><g transform="translate(102.941941, 777.374981)"><g><path d="M 8.6875 -3.671875 L 3.5625 -3.671875 L 2.234375 0 L 0.640625 0 L 5.375 -12.59375 L 6.859375 -12.59375 L 11.625 0 L 10.046875 0 Z M 8.25 -4.90625 L 6.140625 -10.625 L 6.0625 -10.625 L 4.015625 -4.90625 Z M 8.25 -4.90625 "/></g></g></g><g fill="#ffffff" fill-opacity="1"><g transform="translate(115.1819, 777.374981)"><g><path d="M 1.34375 -12.59375 L 3.09375 -12.59375 L 9.84375 -2.484375 L 9.921875 -2.484375 L 9.921875 -12.59375 L 11.453125 -12.59375 L 11.453125 0 L 9.6875 0 L 2.953125 -9.96875 L 2.875 -9.96875 L 2.875 0 L 1.34375 0 Z M 1.34375 -12.59375 "/></g></g></g><g fill="#ffffff" fill-opacity="1"><g transform="translate(127.979862, 777.374981)"><g/></g></g><g fill="#ffffff" fill-opacity="1"><g transform="translate(132.119854, 777.374981)"><g><path d="M 1.40625 -12.59375 L 2.96875 -12.59375 L 2.96875 0 L 1.40625 0 Z M 1.40625 -12.59375 "/></g></g></g><g fill="#ffffff" fill-opacity="1"><g transform="translate(136.493843, 777.374981)"><g><path d="M 1.34375 -12.59375 L 6.390625 -12.59375 C 7.234375 -12.59375 7.921875 -12.429688 8.453125 -12.109375 C 8.984375 -11.785156 9.363281 -11.378906 9.59375 -10.890625 C 9.820312 -10.410156 9.9375 -9.910156 9.9375 -9.390625 C 9.9375 -8.859375 9.820312 -8.390625 9.59375 -7.984375 C 9.363281 -7.585938 9.085938 -7.28125 8.765625 -7.0625 C 8.441406 -6.851562 8.132812 -6.71875 7.84375 -6.65625 L 7.84375 -6.546875 C 8.15625 -6.523438 8.519531 -6.414062 8.9375 -6.21875 C 9.351562 -6.019531 9.71875 -5.703125 10.03125 -5.265625 C 10.351562 -4.828125 10.515625 -4.269531 10.515625 -3.59375 C 10.515625 -3 10.378906 -2.425781 10.109375 -1.875 C 9.835938 -1.332031 9.410156 -0.882812 8.828125 -0.53125 C 8.253906 -0.175781 7.535156 0 6.671875 0 L 1.34375 0 Z M 5.9375 -7.078125 C 6.625 -7.078125 7.210938 -7.253906 7.703125 -7.609375 C 8.191406 -7.960938 8.4375 -8.507812 8.4375 -9.25 C 8.4375 -9.957031 8.195312 -10.472656 7.71875 -10.796875 C 7.25 -11.117188 6.65625 -11.28125 5.9375 -11.28125 L 2.859375 -11.28125 L 2.859375 -7.078125 Z M 6.28125 -1.3125 C 7.0625 -1.3125 7.707031 -1.488281 8.21875 -1.84375 C 8.738281 -2.207031 9 -2.800781 9 -3.625 C 9 -4.425781 8.738281 -4.992188 8.21875 -5.328125 C 7.707031 -5.671875 7.0625 -5.84375 6.28125 -5.84375 L 2.859375 -5.84375 L 2.859375 -1.3125 Z M 6.28125 -1.3125 "/></g></g></g><g fill="#ffffff" fill-opacity="1"><g transform="translate(147.725806, 777.374981)"><g><path d="M 5.140625 -5.015625 L 2.890625 -5.015625 L 2.890625 0 L 1.34375 0 L 1.34375 -12.59375 L 5.640625 -12.59375 C 6.648438 -12.59375 7.484375 -12.40625 8.140625 -12.03125 C 8.796875 -11.664062 9.265625 -11.191406 9.546875 -10.609375 C 9.835938 -10.035156 9.984375 -9.429688 9.984375 -8.796875 C 9.984375 -7.921875 9.722656 -7.132812 9.203125 -6.4375 C 8.679688 -5.75 7.867188 -5.304688 6.765625 -5.109375 L 10.09375 0 L 8.390625 0 Z M 2.890625 -6.359375 L 5.4375 -6.359375 C 6.289062 -6.359375 7.007812 -6.539062 7.59375 -6.90625 C 8.1875 -7.28125 8.484375 -7.910156 8.484375 -8.796875 C 8.484375 -9.671875 8.1875 -10.289062 7.59375 -10.65625 C 7.007812 -11.019531 6.289062 -11.203125 5.4375 -11.203125 L 2.890625 -11.203125 Z M 2.890625 -6.359375 "/></g></g></g><g fill="#ffffff" fill-opacity="1"><g transform="translate(158.615775, 777.374981)"><g><path d="M 8.6875 -3.671875 L 3.5625 -3.671875 L 2.234375 0 L 0.640625 0 L 5.375 -12.59375 L 6.859375 -12.59375 L 11.625 0 L 10.046875 0 Z M 8.25 -4.90625 L 6.140625 -10.625 L 6.0625 -10.625 L 4.015625 -4.90625 Z M 8.25 -4.90625 "/></g></g></g><g fill="#ffffff" fill-opacity="1"><g transform="translate(170.855734, 777.374981)"><g><path d="M 10.875 -12.59375 L 10.875 0 L 9.3125 0 L 9.3125 -5.703125 L 2.890625 -5.703125 L 2.890625 0 L 1.34375 0 L 1.34375 -12.59375 L 2.890625 -12.59375 L 2.890625 -6.96875 L 9.3125 -6.96875 L 9.3125 -12.59375 Z M 10.875 -12.59375 "/></g></g></g><g fill="#ffffff" fill-opacity="1"><g transform="translate(183.077703, 777.374981)"><g><path d="M 1.40625 -12.59375 L 2.96875 -12.59375 L 2.96875 0 L 1.40625 0 Z M 1.40625 -12.59375 "/></g></g></g><g fill="#ffffff" fill-opacity="1"><g transform="translate(187.451692, 777.374981)"><g><path d="M 1.34375 -12.59375 L 3.640625 -12.59375 L 7.375 -2.953125 L 7.4375 -2.953125 L 11.171875 -12.59375 L 13.46875 -12.59375 L 13.46875 0 L 11.9375 0 L 11.9375 -10.203125 L 11.859375 -10.203125 L 7.953125 0 L 6.84375 0 L 2.953125 -10.203125 L 2.875 -10.203125 L 2.875 0 L 1.34375 0 Z M 1.34375 -12.59375 "/></g></g></g></svg>