<svg xmlns="http://www.w3.org/2000/svg" xmlns:xlink="http://www.w3.org/1999/xlink" width="1920" zoomAndPan="magnify" viewBox="0 0 1440 809.999993" height="1080" preserveAspectRatio="xMidYMid meet" version="1.0"><defs><g/></defs><rect x="-144" width="1728" fill="#ffffff" y="-80.999999" height="971.999992" fill-opacity="1"/><rect x="-144" width="1728" fill="#faf4eb" y="-80.999999" height="971.999992" fill-opacity="1"/><path fill="#2d3e70" d="M 0 729 L 1439.964844 729 L 1439.964844 810 L 0 810 Z M 0 729 " fill-opacity="1" fill-rule="nonzero"/><g fill="#ffffff" fill-opacity="1"><g transform="translate(81.000002, 777.374981)"><g><path d="M 5.140625 -5.015625 L 2.890625 -5.015625 L 2.890625 0 L 1.34375 0 L 1.34375 -12.59375 L 5.640625 -12.59375 C 6.648438 -12.59375 7.484375 -12.40625 8.140625 -12.03125 C 8.796875 -11.664062 9.265625 -11.191406 9.546875 -10.609375 C 9.835938 -10.035156 9.984375 -9.429688 9.984375 -8.796875 C 9.984375 -7.921875 9.722656 -7.132812 9.203125 -6.4375 C 8.679688 -5.75 7.867188 -5.304688 6.765625 -5.109375 L 10.09375 0 L 8.390625 0 Z M 2.890625 -6.359375 L 5.4375 -6.359375 C 6.289062 -6.359375 7.007812 -6.539062 7.59375 -6.90625 C 8.1875 -7.28125 8.484375 -7.910156 8.484375 -8.796875 C 8.484375 -9.671875 8.1875 -10.289062 7.59375 -10.65625 C 7.007812 -11.019531 6.289062 -11.203125 5.4375 -11.203125 L 2.890625 -11.203125 Z M 2.890625 -6.359375 "/></g></g></g><g fill="#ffffff" fill-opacity="1"><g transform="translate(91.88997, 777.374981)"><g><path d="M 4.71875 0.015625 L 4.71875 -4.546875 L 0.609375 -12.59375 L 2.296875 -12.59375 L 5.4375 -6.296875 L 5.5625 -6.296875 L 8.671875 -12.59375 L 10.375 -12.59375 L 6.28125 -4.546875 L 6.28125 0 Z M 4.71875 0.015625 "/></g></g></g><g fill="#ffffff" fill-opacity="1"><g transform="translate(102.941941, 777.374981)"><g><path d="M 8.6875 -3.671875 L 3.5625 -3.671875 L 2.234375 0 L 0.640625 0 L 5.375 -12.59375 L 6.859375 -12.59375 L 11.625 0 L 10.046875 0 Z M 8.25 -4.90625 L 6.140625 -10.625 L 6.0625 -10.625 L 4.015625 -4.90625 Z M 8.25 -4.90625 "/></g></g></g><g fill="#ffffff" fill-opacity="1"><g transform="translate(115.1819, 777.374981)"><g><path d="M 1.34375 -12.59375 L 3.09375 -12.59375 L 9.84375 -2.484375 L 9.921875 -2.484375 L 9.921875 -12.59375 L 11.453125 -12.59375 L 11.453125 0 L 9.6875 0 L 2.953125 -9.96875 L 2.875 -9.96875 L 2.875 0 L 1.34375 0 Z M 1.34375 -12.59375 "/></g></g></g><g fill="#ffffff" fill-opacity="1"><g transform="translate(127.979862, 777.374981)"><g/></g></g><g fill="#ffffff" fill-opacity="1"><g transform="translate(132.119854, 777.374981)"><g><path d="M 1.40625 -12.59375 L 2.96875 -12.59375 L 2.96875 0 L 1.40625 0 Z M 1.40625 -12.59375 "/></g></g></g><g fill="#ffffff" fill-opacity="1"><g transform="translate(136.493843, 777.374981)"><g><path d="M 1.34375 -12.59375 L 6.390625 -12.59375 C 7.234375 -12.59375 7.921875 -12.429688 8.453125 -12.109375 C 8.984375 -11.785156 9.363281 -11.378906 9.59375 -10.890625 C 9.820312 -10.410156 9.9375 -9.910156 9.9375 -9.390625 C 9.9375 -8.859375 9.820312 -8.390625 9.59375 -7.984375 C 9.363281 -7.585938 9.085938 -7.28125 8.765625 -7.0625 C 8.441406 -6.851562 8.132812 -6.71875 7.84375 -6.65625 L 7.84375 -6.546875 C 8.15625 -6.523438 8.519531 -6.414062 8.9375 -6.21875 C 9.351562 -6.019531 9.71875 -5.703125 10.03125 -5.265625 C 10.351562 -4.828125 10.515625 -4.269531 10.515625 -3.59375 C 10.515625 -3 10.378906 -2.425781 10.109375 -1.875 C 9.835938 -1.332031 9.410156 -0.882812 8.828125 -0.53125 C 8.253906 -0.175781 7.535156 0 6.671875 0 L 1.34375 0 Z M 5.9375 -7.078125 C 6.625 -7.078125 7.210938 -7.253906 7.703125 -7.609375 C 8.191406 -7.960938 8.4375 -8.507812 8.4375 -9.25 C 8.4375 -9.957031 8.195312 -10.472656 7.71875 -10.796875 C 7.25 -11.117188 6.65625 -11.28125 5.9375 -11.28125 L 2.859375 -11.28125 L 2.859375 -7.078125 Z M 6.28125 -1.3125 C 7.0625 -1.3125 7.707031 -1.488281 8.21875 -1.84375 C 8.738281 -2.207031 9 -2.800781 9 -3.625 C 9 -4.425781 8.738281 -4.992188 8.21875 -5.328125 C 7.707031 -5.671875 7.0625 -5.84375 6.28125 -5.84375 L 2.859375 -5.84375 L 2.859375 -1.3125 Z M 6.28125 -1.3125 "/></g></g></g><g fill="#ffffff" fill-opacity="1"><g transform="translate(147.725806, 777.374981)"><g><path d="M 5.140625 -5.015625 L 2.890625 -5.015625 L 2.890625 0 L 1.34375 0 L 1.34375 -12.59375 L 5.640625 -12.59375 C 6.648438 -12.59375 7.484375 -12.40625 8.140625 -12.03125 C 8.796875 -11.664062 9.265625 -11.191406 9.546875 -10.609375 C 9.835938 -10.035156 9.984375 -9.429688 9.984375 -8.796875 C 9.984375 -7.921875 9.722656 -7.132812 9.203125 -6.4375 C 8.679688 -5.75 7.867188 -5.304688 6.765625 -5.109375 L 10.09375 0 L 8.390625 0 Z M 2.890625 -6.359375 L 5.4375 -6.359375 C 6.289062 -6.359375 7.007812 -6.539062 7.59375 -6.90625 C 8.1875 -7.28125 8.484375 -7.910156 8.484375 -8.796875 C 8.484375 -9.671875 8.1875 -10.289062 7.59375 -10.65625 C 7.007812 -11.019531 6.289062 -11.203125 5.4375 -11.203125 L 2.890625 -11.203125 Z M 2.890625 -6.359375 "/></g></g></g><g fill="#ffffff" fill-opacity="1"><g transform="translate(158.615775, 777.374981)"><g><path d="M 8.6875 -3.671875 L 3.5625 -3.671875 L 2.234375 0 L 0.640625 0 L 5.375 -12.59375 L 6.859375 -12.59375 L 11.625 0 L 10.046875 0 Z M 8.25 -4.90625 L 6.140625 -10.625 L 6.0625 -10.625 L 4.015625 -4.90625 Z M 8.25 -4.90625 "/></g></g></g><g fill="#ffffff" fill-opacity="1"><g transform="translate(170.855734, 777.374981)"><g><path d="M 10.875 -12.59375 L 10.875 0 L 9.3125 0 L 9.3125 -5.703125 L 2.890625 -5.703125 L 2.890625 0 L 1.34375 0 L 1.34375 -12.59375 L 2.890625 -12.59375 L 2.890625 -6.96875 L 9.3125 -6.96875 L 9.3125 -12.59375 Z M 10.875 -12.59375 "/></g></g></g><g fill="#ffffff" fill-opacity="1"><g transform="translate(183.077703, 777.374981)"><g><path d="M 1.40625 -12.59375 L 2.96875 -12.59375 L 2.96875 0 L 1.40625 0 Z M 1.40625 -12.59375 "/></g></g></g><g fill="#ffffff" fill-opacity="1"><g transform="translate(187.451692, 777.374981)"><g><path d="M 1.34375 -12.59375 L 3.640625 -12.59375 L 7.375 -2.953125 L 7.4375 -2.953125 L 11.171875 -12.59375 L 13.46875 -12.59375 L 13.46875 0 L 11.9375 0 L 11.9375 -10.203125 L 11.859375 -10.203125 L 7.953125 0 L 6.84375 0 L 2.953125 -10.203125 L 2.875 -10.203125 L 2.875 0 L 1.34375 0 Z M 1.34375 -12.59375 "/></g></g></g><g fill="#2d3e70" fill-opacity="1"><g transform="translate(441.909584, 433.674123)"><g><path d="M 2.296875 -40.46875 L 0.890625 -40.5625 L 4.328125 -57.25 L 50.28125 -57.25 L 53.984375 -40.5625 L 52.484375 -40.46875 C 51.191406 -43.289062 49.75 -45.863281 48.15625 -48.1875 C 46.5625 -50.519531 44.613281 -52.378906 42.3125 -53.765625 C 40.019531 -55.148438 37.195312 -55.84375 33.84375 -55.84375 L 31.453125 -55.84375 L 31.453125 -6.28125 C 31.453125 -4.570312 31.953125 -3.363281 32.953125 -2.65625 C 33.953125 -1.945312 35.132812 -1.53125 36.5 -1.40625 L 36.5 0 L 17.234375 0 L 17.234375 -1.40625 C 18.585938 -1.53125 19.78125 -1.945312 20.8125 -2.65625 C 21.84375 -3.363281 22.359375 -4.570312 22.359375 -6.28125 L 22.359375 -55.84375 L 19.875 -55.84375 C 16.632812 -55.84375 13.941406 -55.117188 11.796875 -53.671875 C 9.648438 -52.234375 7.835938 -50.332031 6.359375 -47.96875 C 4.890625 -45.613281 3.535156 -43.113281 2.296875 -40.46875 Z M 2.296875 -40.46875 "/></g></g></g><g fill="#2d3e70" fill-opacity="1"><g transform="translate(495.80434, 433.674123)"><g><path d="M 0.796875 0 L 0.796875 -1.5 C 2.148438 -1.5625 3.34375 -1.945312 4.375 -2.65625 C 5.40625 -3.363281 5.921875 -4.570312 5.921875 -6.28125 L 5.921875 -50.984375 C 5.921875 -52.691406 5.40625 -53.910156 4.375 -54.640625 C 3.34375 -55.378906 2.148438 -55.78125 0.796875 -55.84375 L 0.796875 -57.25 L 42.0625 -57.25 L 45.59375 -40.5625 L 44.171875 -40.46875 C 43.765625 -41.40625 43.398438 -42.332031 43.078125 -43.25 C 42.753906 -44.164062 42.382812 -45.066406 41.96875 -45.953125 C 40.4375 -49.191406 38.460938 -51.648438 36.046875 -53.328125 C 33.628906 -55.003906 30.597656 -55.84375 26.953125 -55.84375 L 15.015625 -55.84375 L 15.015625 -28.546875 L 15.640625 -28.625 C 17.285156 -28.625 18.90625 -28.625 20.5 -28.625 C 22.09375 -28.625 23.710938 -28.65625 25.359375 -28.71875 C 27.359375 -28.71875 29.210938 -28.921875 30.921875 -29.328125 C 32.628906 -29.742188 34.015625 -30.554688 35.078125 -31.765625 C 36.140625 -32.972656 36.726562 -34.722656 36.84375 -37.015625 L 38.171875 -37.015625 L 38.171875 -20.140625 L 36.75 -20.140625 C 36.632812 -22.503906 35.882812 -24.171875 34.5 -25.140625 C 33.113281 -26.109375 31.390625 -26.648438 29.328125 -26.765625 C 28.742188 -26.890625 28.097656 -26.953125 27.390625 -26.953125 C 26.679688 -26.953125 26.003906 -26.953125 25.359375 -26.953125 L 15.015625 -27.03125 L 15.015625 -1.40625 L 31.1875 -1.40625 C 34.550781 -1.40625 37.25 -2.300781 39.28125 -4.09375 C 41.3125 -5.894531 42.972656 -8.210938 44.265625 -11.046875 C 44.734375 -12.046875 45.128906 -13.015625 45.453125 -13.953125 C 45.785156 -14.898438 46.15625 -15.84375 46.5625 -16.78125 L 47.984375 -16.703125 L 44.4375 0 Z M 0.796875 0 "/></g></g></g><g fill="#2d3e70" fill-opacity="1"><g transform="translate(544.044565, 433.674123)"><g><path d="M 1.234375 -55.84375 L 1.234375 -57.25 C 4.710938 -57.25 8.144531 -57.265625 11.53125 -57.296875 C 14.914062 -57.328125 18.316406 -57.34375 21.734375 -57.34375 C 23.796875 -57.34375 25.84375 -57.296875 27.875 -57.203125 C 29.90625 -57.117188 31.863281 -56.8125 33.75 -56.28125 C 37.050781 -55.394531 39.613281 -53.710938 41.4375 -51.234375 C 43.257812 -48.765625 44.171875 -45.820312 44.171875 -42.40625 C 44.171875 -38.988281 43.359375 -36.191406 41.734375 -34.015625 C 40.117188 -31.835938 37.972656 -30.25 35.296875 -29.25 C 32.617188 -28.25 29.6875 -27.75 26.5 -27.75 C 29.15625 -27.625 31.320312 -26.851562 33 -25.4375 C 34.675781 -24.03125 36.03125 -22.3125 37.0625 -20.28125 C 38.09375 -18.25 38.992188 -16.226562 39.765625 -14.21875 C 40.054688 -13.457031 40.332031 -12.707031 40.59375 -11.96875 C 40.863281 -11.238281 41.117188 -10.519531 41.359375 -9.8125 C 41.648438 -9.101562 41.941406 -8.410156 42.234375 -7.734375 C 42.523438 -7.054688 42.820312 -6.421875 43.125 -5.828125 C 43.769531 -4.710938 44.503906 -3.769531 45.328125 -3 C 46.148438 -2.238281 47.179688 -1.738281 48.421875 -1.5 L 48.421875 0 L 38.96875 0 C 36.84375 0 35.207031 -0.941406 34.0625 -2.828125 C 32.914062 -4.710938 31.898438 -7.066406 31.015625 -9.890625 C 30.597656 -11.242188 30.164062 -12.65625 29.71875 -14.125 C 29.28125 -15.601562 28.800781 -17.019531 28.28125 -18.375 C 27.15625 -21.257812 25.765625 -23.46875 24.109375 -25 C 22.460938 -26.53125 19.992188 -27.296875 16.703125 -27.296875 L 15.46875 -27.296875 L 15.46875 -6.28125 C 15.46875 -3.207031 16.847656 -1.582031 19.609375 -1.40625 L 19.609375 0 L 1.234375 0 L 1.234375 -1.5 C 2.585938 -1.5625 3.78125 -1.945312 4.8125 -2.65625 C 5.84375 -3.363281 6.359375 -4.570312 6.359375 -6.28125 L 6.359375 -50.984375 C 6.359375 -52.691406 5.84375 -53.910156 4.8125 -54.640625 C 3.78125 -55.378906 2.585938 -55.78125 1.234375 -55.84375 Z M 16.078125 -56.015625 L 15.46875 -56.015625 L 15.46875 -28.8125 L 16.078125 -28.8125 C 16.898438 -28.8125 17.8125 -28.8125 18.8125 -28.8125 C 19.820312 -28.8125 20.851562 -28.835938 21.90625 -28.890625 C 22.96875 -29.003906 24.015625 -29.132812 25.046875 -29.28125 C 26.078125 -29.4375 26.976562 -29.660156 27.75 -29.953125 C 30.21875 -30.953125 31.984375 -32.675781 33.046875 -35.125 C 34.109375 -37.570312 34.640625 -40 34.640625 -42.40625 C 34.640625 -44.820312 34.109375 -47.238281 33.046875 -49.65625 C 31.984375 -52.070312 30.21875 -53.78125 27.75 -54.78125 C 26.976562 -55.070312 26.078125 -55.304688 25.046875 -55.484375 C 24.015625 -55.660156 22.96875 -55.78125 21.90625 -55.84375 C 20.851562 -55.957031 19.820312 -56.015625 18.8125 -56.015625 C 17.8125 -56.015625 16.898438 -56.015625 16.078125 -56.015625 Z M 16.078125 -56.015625 "/></g></g></g><g fill="#2d3e70" fill-opacity="1"><g transform="translate(591.931399, 433.674123)"><g><path d="M 2.296875 -57.25 L 21.5625 -57.25 L 21.5625 -55.84375 C 20.207031 -55.78125 19.023438 -55.378906 18.015625 -54.640625 C 17.015625 -53.910156 16.515625 -52.691406 16.515625 -50.984375 L 16.515625 -6.28125 C 16.515625 -4.570312 17.015625 -3.363281 18.015625 -2.65625 C 19.023438 -1.945312 20.207031 -1.5625 21.5625 -1.5 L 21.5625 0 L 2.296875 0 L 2.296875 -1.5 C 3.648438 -1.5625 4.84375 -1.945312 5.875 -2.65625 C 6.90625 -3.363281 7.421875 -4.570312 7.421875 -6.28125 L 7.421875 -50.984375 C 7.421875 -52.691406 6.90625 -53.910156 5.875 -54.640625 C 4.84375 -55.378906 3.648438 -55.78125 2.296875 -55.84375 Z M 2.296875 -57.25 "/></g></g></g><g fill="#2d3e70" fill-opacity="1"><g transform="translate(614.991282, 433.674123)"><g><path d="M 1.59375 -1.40625 C 3.707031 -1.53125 5.472656 -2.0625 6.890625 -3 C 8.304688 -3.945312 9.015625 -5.742188 9.015625 -8.390625 L 9.015625 -52.921875 L 8.828125 -53.109375 C 7.953125 -54.046875 7 -54.71875 5.96875 -55.125 C 4.9375 -55.539062 3.832031 -55.78125 2.65625 -55.84375 L 2.65625 -57.25 L 17.578125 -57.25 L 39.140625 -11.84375 L 56.90625 -57.25 L 71.21875 -57.25 L 71.21875 -55.84375 C 69.863281 -55.78125 68.671875 -55.378906 67.640625 -54.640625 C 66.609375 -53.910156 66.09375 -52.691406 66.09375 -50.984375 L 66.09375 -6.28125 C 66.09375 -4.570312 66.609375 -3.363281 67.640625 -2.65625 C 68.671875 -1.945312 69.863281 -1.5625 71.21875 -1.5 L 71.21875 0 L 51.953125 0 L 51.953125 -1.5 C 53.304688 -1.5625 54.484375 -1.945312 55.484375 -2.65625 C 56.484375 -3.363281 56.984375 -4.570312 56.984375 -6.28125 L 56.984375 -53.90625 L 36.3125 -0.890625 L 34.453125 -0.890625 L 10.421875 -50.8125 L 10.421875 -8.390625 C 10.421875 -6.273438 10.890625 -4.726562 11.828125 -3.75 C 12.773438 -2.78125 13.957031 -2.160156 15.375 -1.890625 C 16.789062 -1.628906 18.234375 -1.46875 19.703125 -1.40625 L 19.703125 0 L 1.59375 0 Z M 1.59375 -1.40625 "/></g></g></g><g fill="#2d3e70" fill-opacity="1"><g transform="translate(687.086571, 433.674123)"><g><path d="M 20.59375 0 L 0.4375 0 L 0.4375 -1.5 C 2.738281 -1.675781 4.671875 -2.441406 6.234375 -3.796875 C 7.796875 -5.148438 9.015625 -6.859375 9.890625 -8.921875 L 30.3125 -57.25 L 32.78125 -57.25 L 53.984375 -6.359375 C 54.628906 -4.710938 55.484375 -3.503906 56.546875 -2.734375 C 57.609375 -1.972656 58.960938 -1.5625 60.609375 -1.5 L 60.609375 0 L 39.234375 0 L 39.234375 -1.40625 C 40.296875 -1.53125 41.398438 -1.78125 42.546875 -2.15625 C 43.691406 -2.539062 44.265625 -3.441406 44.265625 -4.859375 C 44.265625 -5.210938 44.234375 -5.566406 44.171875 -5.921875 C 44.117188 -6.273438 44.035156 -6.566406 43.921875 -6.796875 L 37.375 -22.53125 L 17.578125 -22.53125 L 12.28125 -9.453125 C 12.101562 -9.035156 11.96875 -8.546875 11.875 -7.984375 C 11.789062 -7.429688 11.75 -6.945312 11.75 -6.53125 C 11.75 -4.945312 12.234375 -3.800781 13.203125 -3.09375 C 14.179688 -2.382812 15.363281 -1.925781 16.75 -1.71875 C 18.132812 -1.507812 19.414062 -1.40625 20.59375 -1.40625 Z M 27.390625 -46.484375 L 18.203125 -23.953125 L 36.75 -23.953125 Z M 27.390625 -46.484375 "/></g></g></g><g fill="#2d3e70" fill-opacity="1"><g transform="translate(747.077632, 433.674123)"><g/></g></g><g fill="#2d3e70" fill-opacity="1"><g transform="translate(764.217935, 433.674123)"><g><path d="M 19.875 0 L 0.625 0 L 0.625 -1.5 C 1.976562 -1.5625 3.171875 -1.945312 4.203125 -2.65625 C 5.234375 -3.363281 5.75 -4.570312 5.75 -6.28125 L 5.75 -50.984375 C 5.75 -52.691406 5.234375 -53.910156 4.203125 -54.640625 C 3.171875 -55.378906 1.976562 -55.78125 0.625 -55.84375 L 0.625 -57.25 L 19.875 -57.25 L 19.875 -55.84375 C 18.519531 -55.78125 17.34375 -55.378906 16.34375 -54.640625 C 15.34375 -53.910156 14.84375 -52.691406 14.84375 -50.984375 L 14.84375 -28.71875 L 31.28125 -44.09375 C 31.75 -44.5 32.4375 -45.082031 33.34375 -45.84375 C 34.257812 -46.613281 35.203125 -47.457031 36.171875 -48.375 C 37.148438 -49.289062 37.976562 -50.1875 38.65625 -51.0625 C 39.332031 -51.945312 39.671875 -52.742188 39.671875 -53.453125 C 39.671875 -54.515625 39.242188 -55.117188 38.390625 -55.265625 C 37.535156 -55.410156 36.429688 -55.515625 35.078125 -55.578125 L 35.078125 -57.25 L 49.921875 -57.25 L 49.921875 -55.75 C 48.859375 -55.632812 47.59375 -55.101562 46.125 -54.15625 C 44.65625 -53.21875 43.078125 -52.039062 41.390625 -50.625 C 39.710938 -49.21875 38.019531 -47.75 36.3125 -46.21875 L 22.96875 -34.28125 L 44.625 -5.921875 C 45.5625 -4.742188 46.648438 -3.738281 47.890625 -2.90625 C 49.128906 -2.082031 50.539062 -1.613281 52.125 -1.5 L 52.125 0 L 30.046875 0 L 30.046875 -1.5 C 30.628906 -1.5 31.273438 -1.644531 31.984375 -1.9375 C 32.398438 -2.175781 32.753906 -2.472656 33.046875 -2.828125 C 33.335938 -3.179688 33.484375 -3.648438 33.484375 -4.234375 C 33.484375 -4.890625 33.367188 -5.363281 33.140625 -5.65625 C 33.015625 -5.894531 32.894531 -6.070312 32.78125 -6.1875 C 32.664062 -6.414062 32.546875 -6.59375 32.421875 -6.71875 L 16.265625 -28.09375 L 14.84375 -26.765625 L 14.84375 -6.28125 C 14.84375 -4.570312 15.34375 -3.363281 16.34375 -2.65625 C 17.34375 -1.945312 18.519531 -1.5625 19.875 -1.5 Z M 19.875 0 "/></g></g></g><g fill="#2d3e70" fill-opacity="1"><g transform="translate(815.638845, 433.674123)"><g><path d="M 20.59375 0 L 0.4375 0 L 0.4375 -1.5 C 2.738281 -1.675781 4.671875 -2.441406 6.234375 -3.796875 C 7.796875 -5.148438 9.015625 -6.859375 9.890625 -8.921875 L 30.3125 -57.25 L 32.78125 -57.25 L 53.984375 -6.359375 C 54.628906 -4.710938 55.484375 -3.503906 56.546875 -2.734375 C 57.609375 -1.972656 58.960938 -1.5625 60.609375 -1.5 L 60.609375 0 L 39.234375 0 L 39.234375 -1.40625 C 40.296875 -1.53125 41.398438 -1.78125 42.546875 -2.15625 C 43.691406 -2.539062 44.265625 -3.441406 44.265625 -4.859375 C 44.265625 -5.210938 44.234375 -5.566406 44.171875 -5.921875 C 44.117188 -6.273438 44.035156 -6.566406 43.921875 -6.796875 L 37.375 -22.53125 L 17.578125 -22.53125 L 12.28125 -9.453125 C 12.101562 -9.035156 11.96875 -8.546875 11.875 -7.984375 C 11.789062 -7.429688 11.75 -6.945312 11.75 -6.53125 C 11.75 -4.945312 12.234375 -3.800781 13.203125 -3.09375 C 14.179688 -2.382812 15.363281 -1.925781 16.75 -1.71875 C 18.132812 -1.507812 19.414062 -1.40625 20.59375 -1.40625 Z M 27.390625 -46.484375 L 18.203125 -23.953125 L 36.75 -23.953125 Z M 27.390625 -46.484375 "/></g></g></g><g fill="#2d3e70" fill-opacity="1"><g transform="translate(875.629906, 433.674123)"><g><path d="M 1.40625 -6.71875 C 1.351562 -6.769531 1.328125 -6.828125 1.328125 -6.890625 L 2.921875 -18.828125 L 4.234375 -18.640625 C 4.535156 -16.460938 5.257812 -14.28125 6.40625 -12.09375 C 7.550781 -9.914062 8.976562 -7.957031 10.6875 -6.21875 C 12.394531 -4.488281 14.320312 -3.09375 16.46875 -2.03125 C 18.625 -0.96875 20.851562 -0.4375 23.15625 -0.4375 C 25.914062 -0.4375 28.34375 -1.304688 30.4375 -3.046875 C 32.53125 -4.785156 33.578125 -7.15625 33.578125 -10.15625 C 33.578125 -12.164062 33.0625 -13.921875 32.03125 -15.421875 C 31 -16.921875 29.703125 -18.226562 28.140625 -19.34375 C 26.578125 -20.46875 25.003906 -21.441406 23.421875 -22.265625 C 22.472656 -22.796875 21.523438 -23.3125 20.578125 -23.8125 C 19.640625 -24.3125 18.671875 -24.828125 17.671875 -25.359375 C 15.078125 -26.710938 12.613281 -28.171875 10.28125 -29.734375 C 7.957031 -31.296875 6.070312 -33.109375 4.625 -35.171875 C 3.1875 -37.234375 2.46875 -39.707031 2.46875 -42.59375 C 2.46875 -46.1875 3.425781 -49.128906 5.34375 -51.421875 C 7.257812 -53.722656 9.71875 -55.429688 12.71875 -56.546875 C 15.726562 -57.671875 18.851562 -58.234375 22.09375 -58.234375 C 23.675781 -58.234375 25.484375 -58.082031 27.515625 -57.78125 C 29.554688 -57.488281 31.519531 -57.03125 33.40625 -56.40625 C 35.289062 -55.789062 36.820312 -54.957031 38 -53.90625 C 38.050781 -53.84375 38.132812 -53.75 38.25 -53.625 C 38.375 -53.507812 38.492188 -53.394531 38.609375 -53.28125 C 38.734375 -53.164062 38.820312 -53.019531 38.875 -52.84375 L 40.375 -40.5625 L 38.796875 -40.5625 C 38.140625 -42.269531 37.222656 -44.078125 36.046875 -45.984375 C 34.867188 -47.898438 33.515625 -49.695312 31.984375 -51.375 C 30.453125 -53.0625 28.742188 -54.414062 26.859375 -55.4375 C 24.972656 -56.46875 23 -56.984375 20.9375 -56.984375 C 18.226562 -56.984375 15.914062 -56.1875 14 -54.59375 C 12.09375 -53.007812 11.140625 -50.742188 11.140625 -47.796875 C 11.140625 -45.617188 11.640625 -43.734375 12.640625 -42.140625 C 13.640625 -40.554688 14.929688 -39.160156 16.515625 -37.953125 C 18.109375 -36.742188 19.734375 -35.664062 21.390625 -34.71875 C 22.328125 -34.132812 23.28125 -33.59375 24.25 -33.09375 C 25.226562 -32.59375 26.1875 -32.078125 27.125 -31.546875 C 29.78125 -30.128906 32.269531 -28.640625 34.59375 -27.078125 C 36.914062 -25.515625 38.8125 -23.703125 40.28125 -21.640625 C 41.757812 -19.585938 42.5 -17.113281 42.5 -14.21875 C 42.5 -12.28125 42.085938 -10.425781 41.265625 -8.65625 C 40.140625 -6.125 38.503906 -4.164062 36.359375 -2.78125 C 34.210938 -1.394531 31.828125 -0.4375 29.203125 0.09375 C 26.578125 0.625 23.972656 0.890625 21.390625 0.890625 C 19.378906 0.890625 17.179688 0.648438 14.796875 0.171875 C 12.410156 -0.296875 10.097656 -1 7.859375 -1.9375 C 5.617188 -2.882812 3.765625 -4.066406 2.296875 -5.484375 C 2.234375 -5.597656 2.144531 -5.710938 2.03125 -5.828125 C 1.914062 -5.953125 1.796875 -6.101562 1.671875 -6.28125 C 1.492188 -6.445312 1.40625 -6.59375 1.40625 -6.71875 Z M 1.40625 -6.71875 "/></g></g></g><g fill="#2d3e70" fill-opacity="1"><g transform="translate(918.834073, 433.674123)"><g><path d="M 2.296875 -57.25 L 21.5625 -57.25 L 21.5625 -55.84375 C 20.207031 -55.78125 19.023438 -55.378906 18.015625 -54.640625 C 17.015625 -53.910156 16.515625 -52.691406 16.515625 -50.984375 L 16.515625 -6.28125 C 16.515625 -4.570312 17.015625 -3.363281 18.015625 -2.65625 C 19.023438 -1.945312 20.207031 -1.5625 21.5625 -1.5 L 21.5625 0 L 2.296875 0 L 2.296875 -1.5 C 3.648438 -1.5625 4.84375 -1.945312 5.875 -2.65625 C 6.90625 -3.363281 7.421875 -4.570312 7.421875 -6.28125 L 7.421875 -50.984375 C 7.421875 -52.691406 6.90625 -53.910156 5.875 -54.640625 C 4.84375 -55.378906 3.648438 -55.78125 2.296875 -55.84375 Z M 2.296875 -57.25 "/></g></g></g><g fill="#2d3e70" fill-opacity="1"><g transform="translate(941.893937, 433.674123)"><g><path d="M 0.890625 -55.84375 L 0.890625 -57.25 L 20.140625 -57.25 L 20.140625 -55.84375 C 18.785156 -55.78125 17.609375 -55.378906 16.609375 -54.640625 C 15.609375 -53.910156 15.109375 -52.691406 15.109375 -50.984375 L 15.109375 -28.546875 L 41 -28.546875 L 41 -50.984375 C 41 -52.691406 40.484375 -53.910156 39.453125 -54.640625 C 38.421875 -55.378906 37.226562 -55.78125 35.875 -55.84375 L 35.875 -57.25 L 55.140625 -57.25 L 55.140625 -55.84375 C 53.785156 -55.78125 52.601562 -55.378906 51.59375 -54.640625 C 50.59375 -53.910156 50.09375 -52.691406 50.09375 -50.984375 L 50.09375 -6.28125 C 50.09375 -4.570312 50.59375 -3.363281 51.59375 -2.65625 C 52.601562 -1.945312 53.785156 -1.5625 55.140625 -1.5 L 55.140625 0 L 35.875 0 L 35.875 -1.5 C 37.226562 -1.5625 38.421875 -1.945312 39.453125 -2.65625 C 40.484375 -3.363281 41 -4.570312 41 -6.28125 L 41 -26.953125 L 15.109375 -26.953125 L 15.109375 -6.28125 C 15.109375 -4.570312 15.609375 -3.363281 16.609375 -2.65625 C 17.609375 -1.945312 18.785156 -1.5625 20.140625 -1.5 L 20.140625 0 L 0.890625 0 L 0.890625 -1.5 C 2.242188 -1.5625 3.4375 -1.945312 4.46875 -2.65625 C 5.5 -3.363281 6.015625 -4.570312 6.015625 -6.28125 L 6.015625 -50.984375 C 6.015625 -52.691406 5.5 -53.910156 4.46875 -54.640625 C 3.4375 -55.378906 2.242188 -55.78125 0.890625 -55.84375 Z M 0.890625 -55.84375 "/></g></g></g></svg>