<svg xmlns="http://www.w3.org/2000/svg" xmlns:xlink="http://www.w3.org/1999/xlink" width="1920" zoomAndPan="magnify" viewBox="0 0 1440 809.999993" height="1080" preserveAspectRatio="xMidYMid meet" version="1.0"><defs><g/></defs><rect x="-144" width="1728" fill="#ffffff" y="-80.999999" height="971.999992" fill-opacity="1"/><rect x="-144" width="1728" fill="#faf4eb" y="-80.999999" height="971.999992" fill-opacity="1"/><path fill="#2d3e70" d="M 0 729 L 1439.964844 729 L 1439.964844 810 L 0 810 Z M 0 729 " fill-opacity="1" fill-rule="nonzero"/><g fill="#2d3e70" fill-opacity="1"><g transform="translate(443.296859, 389.318175)"><g><path d="M 2.375 -45.078125 C 2.375 -54.316406 4.125 -62.484375 7.625 -69.578125 C 11.125 -76.671875 16.164062 -82.222656 22.75 -86.234375 C 29.332031 -90.253906 37.242188 -92.265625 46.484375 -92.265625 C 51.523438 -92.265625 56.515625 -91.5625 61.453125 -90.15625 C 66.398438 -88.757812 70.789062 -86.425781 74.625 -83.15625 C 74.71875 -83.0625 74.925781 -82.851562 75.25 -82.53125 C 75.570312 -82.207031 75.921875 -81.859375 76.296875 -81.484375 C 76.484375 -81.296875 76.691406 -81.109375 76.921875 -80.921875 C 77.160156 -80.734375 77.328125 -80.546875 77.421875 -80.359375 C 77.515625 -80.265625 77.5625 -80.191406 77.5625 -80.140625 C 77.5625 -80.097656 77.609375 -80.03125 77.703125 -79.9375 C 78.171875 -77.320312 78.539062 -74.726562 78.8125 -72.15625 C 79.09375 -69.59375 79.421875 -66.960938 79.796875 -64.265625 L 77.28125 -64.265625 C 75.132812 -68.460938 72.632812 -72.519531 69.78125 -76.4375 C 66.9375 -80.351562 63.554688 -83.570312 59.640625 -86.09375 C 55.722656 -88.613281 51.054688 -89.875 45.640625 -89.875 C 41.441406 -89.875 37.773438 -88.800781 34.640625 -86.65625 C 31.515625 -84.507812 28.878906 -81.707031 26.734375 -78.25 C 24.585938 -74.800781 22.859375 -71.046875 21.546875 -66.984375 C 20.242188 -62.929688 19.289062 -58.894531 18.6875 -54.875 C 18.082031 -50.863281 17.78125 -47.316406 17.78125 -44.234375 C 17.78125 -41.066406 18.082031 -37.566406 18.6875 -33.734375 C 19.289062 -29.910156 20.242188 -26.109375 21.546875 -22.328125 C 22.859375 -18.546875 24.585938 -15.066406 26.734375 -11.890625 C 28.878906 -8.722656 31.492188 -6.179688 34.578125 -4.265625 C 37.660156 -2.359375 41.253906 -1.40625 45.359375 -1.40625 C 49.835938 -1.40625 53.800781 -2.3125 57.25 -4.125 C 60.707031 -5.945312 63.742188 -8.347656 66.359375 -11.328125 C 68.972656 -14.316406 71.257812 -17.609375 73.21875 -21.203125 C 75.175781 -24.796875 76.859375 -28.367188 78.265625 -31.921875 L 80.78125 -31.921875 C 80.40625 -28.742188 80.097656 -25.59375 79.859375 -22.46875 C 79.628906 -19.34375 79.28125 -16.238281 78.8125 -13.15625 C 78.632812 -12.78125 78.546875 -12.59375 78.546875 -12.59375 C 78.453125 -12.40625 78.332031 -12.195312 78.1875 -11.96875 C 78.050781 -11.738281 77.890625 -11.53125 77.703125 -11.34375 C 73.867188 -6.769531 68.96875 -3.453125 63 -1.390625 C 57.03125 0.660156 51.148438 1.6875 45.359375 1.6875 C 35.742188 1.6875 27.765625 -0.269531 21.421875 -4.1875 C 15.078125 -8.113281 10.316406 -13.578125 7.140625 -20.578125 C 3.960938 -27.578125 2.375 -35.742188 2.375 -45.078125 Z M 2.375 -45.078125 "/></g></g></g><g fill="#2d3e70" fill-opacity="1"><g transform="translate(524.49232, 389.318175)"><g><path d="M 33.3125 1.40625 C 26.59375 1.40625 21.015625 -0.0625 16.578125 -3 C 12.148438 -5.945312 8.835938 -9.984375 6.640625 -15.109375 C 4.453125 -20.242188 3.359375 -26.082031 3.359375 -32.625 C 3.359375 -39.15625 4.453125 -44.914062 6.640625 -49.90625 C 8.835938 -54.90625 12.148438 -58.828125 16.578125 -61.671875 C 21.015625 -64.515625 26.59375 -65.9375 33.3125 -65.9375 C 43.488281 -65.9375 51.050781 -62.851562 56 -56.6875 C 60.945312 -50.53125 63.421875 -42.507812 63.421875 -32.625 C 63.421875 -26.082031 62.320312 -20.242188 60.125 -15.109375 C 57.9375 -9.984375 54.625 -5.945312 50.1875 -3 C 45.757812 -0.0625 40.132812 1.40625 33.3125 1.40625 Z M 18.625 -32.625 C 18.625 -30.195312 18.757812 -27.1875 19.03125 -23.59375 C 19.3125 -20 19.921875 -16.425781 20.859375 -12.875 C 21.796875 -9.332031 23.265625 -6.367188 25.265625 -3.984375 C 27.273438 -1.609375 29.957031 -0.421875 33.3125 -0.421875 C 36.769531 -0.421875 39.476562 -1.609375 41.4375 -3.984375 C 43.394531 -6.367188 44.863281 -9.332031 45.84375 -12.875 C 46.820312 -16.425781 47.453125 -20 47.734375 -23.59375 C 48.015625 -27.1875 48.15625 -30.195312 48.15625 -32.625 C 48.15625 -35.144531 48.035156 -38.15625 47.796875 -41.65625 C 47.566406 -45.15625 46.960938 -48.628906 45.984375 -52.078125 C 45.003906 -55.535156 43.535156 -58.40625 41.578125 -60.6875 C 39.617188 -62.976562 36.863281 -64.125 33.3125 -64.125 C 29.863281 -64.125 27.160156 -62.976562 25.203125 -60.6875 C 23.242188 -58.40625 21.796875 -55.535156 20.859375 -52.078125 C 19.921875 -48.628906 19.3125 -45.128906 19.03125 -41.578125 C 18.757812 -38.035156 18.625 -35.050781 18.625 -32.625 Z M 18.625 -32.625 "/></g></g></g><g fill="#2d3e70" fill-opacity="1"><g transform="translate(590.42863, 389.318175)"><g><path d="M 1.125 -57.546875 L 22.265625 -64.265625 L 22.265625 -55.71875 L 23.9375 -58.234375 C 26.082031 -61.222656 28.785156 -63.253906 32.046875 -64.328125 C 35.316406 -65.398438 38.679688 -65.9375 42.140625 -65.9375 C 48.203125 -65.9375 53.144531 -64.46875 56.96875 -61.53125 C 60.800781 -58.59375 62.71875 -53.945312 62.71875 -47.59375 L 62.71875 -9.9375 C 62.71875 -7.414062 63.226562 -5.546875 64.25 -4.328125 C 65.28125 -3.117188 66.960938 -2.46875 69.296875 -2.375 L 69.296875 0 L 41.578125 0 L 41.578125 -2.375 C 46.054688 -2.46875 48.296875 -4.988281 48.296875 -9.9375 L 48.296875 -47.3125 C 48.296875 -49.738281 47.851562 -52.09375 46.96875 -54.375 C 46.082031 -56.664062 44.75 -58.582031 42.96875 -60.125 C 41.195312 -61.664062 38.867188 -62.4375 35.984375 -62.4375 C 33.554688 -62.4375 31.289062 -61.644531 29.1875 -60.0625 C 27.09375 -58.476562 25.414062 -56.519531 24.15625 -54.1875 C 22.894531 -51.851562 22.265625 -49.5625 22.265625 -47.3125 L 22.265625 -9.9375 C 22.265625 -4.988281 24.457031 -2.46875 28.84375 -2.375 L 28.84375 0 L 1.125 0 L 1.125 -2.375 C 5.601562 -2.46875 7.84375 -4.988281 7.84375 -9.9375 L 7.84375 -47.3125 C 7.84375 -52.164062 5.601562 -54.734375 1.125 -55.015625 Z M 1.125 -57.546875 "/></g></g></g><g fill="#2d3e70" fill-opacity="1"><g transform="translate(659.86475, 389.318175)"><g><path d="M -0.84375 -65.234375 C 2.050781 -65.703125 4.898438 -66.914062 7.703125 -68.875 C 10.503906 -70.832031 13.046875 -73.140625 15.328125 -75.796875 C 17.617188 -78.460938 19.507812 -81.148438 21 -83.859375 L 21 -65.09375 L 34.015625 -65.09375 L 34.015625 -62.859375 L 21 -62.859375 L 21 -13.015625 C 21 -11.242188 21.441406 -9.515625 22.328125 -7.828125 C 23.210938 -6.148438 24.820312 -5.3125 27.15625 -5.3125 C 28.375 -5.3125 29.519531 -5.566406 30.59375 -6.078125 C 31.664062 -6.597656 32.617188 -7.1875 33.453125 -7.84375 L 34.71875 -6.296875 C 32.757812 -3.867188 30.566406 -2 28.140625 -0.6875 C 25.710938 0.613281 22.910156 1.265625 19.734375 1.265625 C 15.441406 1.265625 12.175781 0.0976562 9.9375 -2.234375 C 7.695312 -4.566406 6.578125 -7.882812 6.578125 -12.1875 L 6.578125 -62.859375 L -0.84375 -62.859375 Z M -0.84375 -65.234375 "/></g></g></g><g fill="#2d3e70" fill-opacity="1"><g transform="translate(695.842729, 389.318175)"><g><path d="M 1.6875 -57.546875 L 22.8125 -64.265625 L 22.8125 -54.3125 L 24.640625 -57.40625 C 26.410156 -60.289062 28.765625 -62.457031 31.703125 -63.90625 C 34.648438 -65.351562 37.847656 -66.078125 41.296875 -66.078125 C 44.003906 -66.078125 46.59375 -65.585938 49.0625 -64.609375 C 51.539062 -63.628906 53.476562 -61.925781 54.875 -59.5 C 55.34375 -58.75 55.71875 -57.953125 56 -57.109375 C 56.28125 -56.273438 56.421875 -55.4375 56.421875 -54.59375 C 56.421875 -52.726562 55.695312 -51.234375 54.25 -50.109375 C 52.800781 -48.992188 51.144531 -48.4375 49.28125 -48.4375 C 48.25 -48.4375 47.382812 -48.578125 46.6875 -48.859375 C 45.988281 -49.140625 45.40625 -49.46875 44.9375 -49.84375 C 44.375 -50.3125 43.863281 -50.820312 43.40625 -51.375 C 43.21875 -51.65625 42.984375 -51.957031 42.703125 -52.28125 C 42.421875 -52.613281 42.1875 -52.921875 42 -53.203125 C 41.0625 -54.503906 39.960938 -55.757812 38.703125 -56.96875 C 37.441406 -58.1875 35.507812 -58.796875 32.90625 -58.796875 C 29.726562 -58.796875 27.25 -57.601562 25.46875 -55.21875 C 23.695312 -52.84375 22.8125 -50.207031 22.8125 -47.3125 L 22.8125 -9.9375 C 22.8125 -4.988281 25.007812 -2.46875 29.40625 -2.375 L 29.40625 0 L 1.6875 0 L 1.6875 -2.375 C 6.164062 -2.46875 8.40625 -4.988281 8.40625 -9.9375 L 8.40625 -47.3125 C 8.40625 -52.164062 6.164062 -54.734375 1.6875 -55.015625 Z M 1.6875 -57.546875 "/></g></g></g><g fill="#2d3e70" fill-opacity="1"><g transform="translate(752.539549, 389.318175)"><g><path d="M 33.3125 1.40625 C 26.59375 1.40625 21.015625 -0.0625 16.578125 -3 C 12.148438 -5.945312 8.835938 -9.984375 6.640625 -15.109375 C 4.453125 -20.242188 3.359375 -26.082031 3.359375 -32.625 C 3.359375 -39.15625 4.453125 -44.914062 6.640625 -49.90625 C 8.835938 -54.90625 12.148438 -58.828125 16.578125 -61.671875 C 21.015625 -64.515625 26.59375 -65.9375 33.3125 -65.9375 C 43.488281 -65.9375 51.050781 -62.851562 56 -56.6875 C 60.945312 -50.53125 63.421875 -42.507812 63.421875 -32.625 C 63.421875 -26.082031 62.320312 -20.242188 60.125 -15.109375 C 57.9375 -9.984375 54.625 -5.945312 50.1875 -3 C 45.757812 -0.0625 40.132812 1.40625 33.3125 1.40625 Z M 18.625 -32.625 C 18.625 -30.195312 18.757812 -27.1875 19.03125 -23.59375 C 19.3125 -20 19.921875 -16.425781 20.859375 -12.875 C 21.796875 -9.332031 23.265625 -6.367188 25.265625 -3.984375 C 27.273438 -1.609375 29.957031 -0.421875 33.3125 -0.421875 C 36.769531 -0.421875 39.476562 -1.609375 41.4375 -3.984375 C 43.394531 -6.367188 44.863281 -9.332031 45.84375 -12.875 C 46.820312 -16.425781 47.453125 -20 47.734375 -23.59375 C 48.015625 -27.1875 48.15625 -30.195312 48.15625 -32.625 C 48.15625 -35.144531 48.035156 -38.15625 47.796875 -41.65625 C 47.566406 -45.15625 46.960938 -48.628906 45.984375 -52.078125 C 45.003906 -55.535156 43.535156 -58.40625 41.578125 -60.6875 C 39.617188 -62.976562 36.863281 -64.125 33.3125 -64.125 C 29.863281 -64.125 27.160156 -62.976562 25.203125 -60.6875 C 23.242188 -58.40625 21.796875 -55.535156 20.859375 -52.078125 C 19.921875 -48.628906 19.3125 -45.128906 19.03125 -41.578125 C 18.757812 -38.035156 18.625 -35.050781 18.625 -32.625 Z M 18.625 -32.625 "/></g></g></g><g fill="#2d3e70" fill-opacity="1"><g transform="translate(818.475871, 389.318175)"><g><path d="M 0.984375 -91 L 22.125 -97.578125 L 22.125 -9.9375 C 22.125 -4.988281 24.316406 -2.46875 28.703125 -2.375 L 28.703125 0 L 0.984375 0 L 0.984375 -2.375 C 5.460938 -2.46875 7.703125 -4.988281 7.703125 -9.9375 L 7.703125 -80.78125 C 7.703125 -85.632812 5.460938 -88.203125 0.984375 -88.484375 Z M 0.984375 -91 "/></g></g></g><g fill="#2d3e70" fill-opacity="1"><g transform="translate(848.154199, 389.318175)"><g><path d="M 0.984375 -91 L 22.125 -97.578125 L 22.125 -9.9375 C 22.125 -4.988281 24.316406 -2.46875 28.703125 -2.375 L 28.703125 0 L 0.984375 0 L 0.984375 -2.375 C 5.460938 -2.46875 7.703125 -4.988281 7.703125 -9.9375 L 7.703125 -80.78125 C 7.703125 -85.632812 5.460938 -88.203125 0.984375 -88.484375 Z M 0.984375 -91 "/></g></g></g><g fill="#2d3e70" fill-opacity="1"><g transform="translate(877.832527, 389.318175)"><g><path d="M 3.5 -32.0625 C 3.5 -38.125 4.59375 -43.722656 6.78125 -48.859375 C 8.976562 -53.992188 12.222656 -58.125 16.515625 -61.25 C 20.804688 -64.375 26.128906 -65.9375 32.484375 -65.9375 C 37.984375 -65.9375 42.671875 -64.695312 46.546875 -62.21875 C 50.421875 -59.75 53.382812 -56.367188 55.4375 -52.078125 C 57.488281 -47.785156 58.515625 -42.976562 58.515625 -37.65625 L 58.515625 -37.234375 L 18.625 -37.234375 L 18.625 -35.28125 C 18.625 -32.289062 18.992188 -29.207031 19.734375 -26.03125 C 20.484375 -22.863281 21.648438 -19.898438 23.234375 -17.140625 C 24.828125 -14.390625 26.90625 -12.148438 29.46875 -10.421875 C 32.03125 -8.703125 35.179688 -7.84375 38.921875 -7.84375 C 42.367188 -7.84375 45.75 -8.65625 49.0625 -10.28125 C 52.382812 -11.914062 55.070312 -14.132812 57.125 -16.9375 L 58.375 -16.09375 C 55.582031 -10.6875 52.34375 -6.414062 48.65625 -3.28125 C 44.96875 -0.15625 39.8125 1.40625 33.1875 1.40625 C 26.738281 1.40625 21.320312 -0.0859375 16.9375 -3.078125 C 12.550781 -6.066406 9.210938 -10.101562 6.921875 -15.1875 C 4.640625 -20.269531 3.5 -25.894531 3.5 -32.0625 Z M 18.90625 -40.453125 L 18.90625 -39.484375 L 43.546875 -39.484375 L 43.546875 -40.453125 C 43.453125 -42.140625 43.191406 -44.265625 42.765625 -46.828125 C 42.347656 -49.398438 41.695312 -51.988281 40.8125 -54.59375 C 39.925781 -57.207031 38.734375 -59.398438 37.234375 -61.171875 C 35.742188 -62.953125 33.925781 -63.84375 31.78125 -63.84375 C 29.539062 -63.84375 27.648438 -62.953125 26.109375 -61.171875 C 24.566406 -59.398438 23.28125 -57.226562 22.25 -54.65625 C 21.226562 -52.09375 20.460938 -49.503906 19.953125 -46.890625 C 19.441406 -44.285156 19.09375 -42.140625 18.90625 -40.453125 Z M 18.90625 -40.453125 "/></g></g></g><g fill="#2d3e70" fill-opacity="1"><g transform="translate(939.989048, 389.318175)"><g><path d="M 1.6875 -57.546875 L 22.8125 -64.265625 L 22.8125 -54.3125 L 24.640625 -57.40625 C 26.410156 -60.289062 28.765625 -62.457031 31.703125 -63.90625 C 34.648438 -65.351562 37.847656 -66.078125 41.296875 -66.078125 C 44.003906 -66.078125 46.59375 -65.585938 49.0625 -64.609375 C 51.539062 -63.628906 53.476562 -61.925781 54.875 -59.5 C 55.34375 -58.75 55.71875 -57.953125 56 -57.109375 C 56.28125 -56.273438 56.421875 -55.4375 56.421875 -54.59375 C 56.421875 -52.726562 55.695312 -51.234375 54.25 -50.109375 C 52.800781 -48.992188 51.144531 -48.4375 49.28125 -48.4375 C 48.25 -48.4375 47.382812 -48.578125 46.6875 -48.859375 C 45.988281 -49.140625 45.40625 -49.46875 44.9375 -49.84375 C 44.375 -50.3125 43.863281 -50.820312 43.40625 -51.375 C 43.21875 -51.65625 42.984375 -51.957031 42.703125 -52.28125 C 42.421875 -52.613281 42.1875 -52.921875 42 -53.203125 C 41.0625 -54.503906 39.960938 -55.757812 38.703125 -56.96875 C 37.441406 -58.1875 35.507812 -58.796875 32.90625 -58.796875 C 29.726562 -58.796875 27.25 -57.601562 25.46875 -55.21875 C 23.695312 -52.84375 22.8125 -50.207031 22.8125 -47.3125 L 22.8125 -9.9375 C 22.8125 -4.988281 25.007812 -2.46875 29.40625 -2.375 L 29.40625 0 L 1.6875 0 L 1.6875 -2.375 C 6.164062 -2.46875 8.40625 -4.988281 8.40625 -9.9375 L 8.40625 -47.3125 C 8.40625 -52.164062 6.164062 -54.734375 1.6875 -55.015625 Z M 1.6875 -57.546875 "/></g></g></g><g fill="#ffffff" fill-opacity="1"><g transform="translate(81.000002, 777.374981)"><g><path d="M 5.140625 -5.015625 L 2.890625 -5.015625 L 2.890625 0 L 1.34375 0 L 1.34375 -12.59375 L 5.640625 -12.59375 C 6.648438 -12.59375 7.484375 -12.40625 8.140625 -12.03125 C 8.796875 -11.664062 9.265625 -11.191406 9.546875 -10.609375 C 9.835938 -10.035156 9.984375 -9.429688 9.984375 -8.796875 C 9.984375 -7.921875 9.722656 -7.132812 9.203125 -6.4375 C 8.679688 -5.75 7.867188 -5.304688 6.765625 -5.109375 L 10.09375 0 L 8.390625 0 Z M 2.890625 -6.359375 L 5.4375 -6.359375 C 6.289062 -6.359375 7.007812 -6.539062 7.59375 -6.90625 C 8.1875 -7.28125 8.484375 -7.910156 8.484375 -8.796875 C 8.484375 -9.671875 8.1875 -10.289062 7.59375 -10.65625 C 7.007812 -11.019531 6.289062 -11.203125 5.4375 -11.203125 L 2.890625 -11.203125 Z M 2.890625 -6.359375 "/></g></g></g><g fill="#ffffff" fill-opacity="1"><g transform="translate(91.88997, 777.374981)"><g><path d="M 4.71875 0.015625 L 4.71875 -4.546875 L 0.609375 -12.59375 L 2.296875 -12.59375 L 5.4375 -6.296875 L 5.5625 -6.296875 L 8.671875 -12.59375 L 10.375 -12.59375 L 6.28125 -4.546875 L 6.28125 0 Z M 4.71875 0.015625 "/></g></g></g><g fill="#ffffff" fill-opacity="1"><g transform="translate(102.941941, 777.374981)"><g><path d="M 8.6875 -3.671875 L 3.5625 -3.671875 L 2.234375 0 L 0.640625 0 L 5.375 -12.59375 L 6.859375 -12.59375 L 11.625 0 L 10.046875 0 Z M 8.25 -4.90625 L 6.140625 -10.625 L 6.0625 -10.625 L 4.015625 -4.90625 Z M 8.25 -4.90625 "/></g></g></g><g fill="#ffffff" fill-opacity="1"><g transform="translate(115.1819, 777.374981)"><g><path d="M 1.34375 -12.59375 L 3.09375 -12.59375 L 9.84375 -2.484375 L 9.921875 -2.484375 L 9.921875 -12.59375 L 11.453125 -12.59375 L 11.453125 0 L 9.6875 0 L 2.953125 -9.96875 L 2.875 -9.96875 L 2.875 0 L 1.34375 0 Z M 1.34375 -12.59375 "/></g></g></g><g fill="#ffffff" fill-opacity="1"><g transform="translate(127.979862, 777.374981)"><g/></g></g><g fill="#ffffff" fill-opacity="1"><g transform="translate(132.119854, 777.374981)"><g><path d="M 1.40625 -12.59375 L 2.96875 -12.59375 L 2.96875 0 L 1.40625 0 Z M 1.40625 -12.59375 "/></g></g></g><g fill="#ffffff" fill-opacity="1"><g transform="translate(136.493843, 777.374981)"><g><path d="M 1.34375 -12.59375 L 6.390625 -12.59375 C 7.234375 -12.59375 7.921875 -12.429688 8.453125 -12.109375 C 8.984375 -11.785156 9.363281 -11.378906 9.59375 -10.890625 C 9.820312 -10.410156 9.9375 -9.910156 9.9375 -9.390625 C 9.9375 -8.859375 9.820312 -8.390625 9.59375 -7.984375 C 9.363281 -7.585938 9.085938 -7.28125 8.765625 -7.0625 C 8.441406 -6.851562 8.132812 -6.71875 7.84375 -6.65625 L 7.84375 -6.546875 C 8.15625 -6.523438 8.519531 -6.414062 8.9375 -6.21875 C 9.351562 -6.019531 9.71875 -5.703125 10.03125 -5.265625 C 10.351562 -4.828125 10.515625 -4.269531 10.515625 -3.59375 C 10.515625 -3 10.378906 -2.425781 10.109375 -1.875 C 9.835938 -1.332031 9.410156 -0.882812 8.828125 -0.53125 C 8.253906 -0.175781 7.535156 0 6.671875 0 L 1.34375 0 Z M 5.9375 -7.078125 C 6.625 -7.078125 7.210938 -7.253906 7.703125 -7.609375 C 8.191406 -7.960938 8.4375 -8.507812 8.4375 -9.25 C 8.4375 -9.957031 8.195312 -10.472656 7.71875 -10.796875 C 7.25 -11.117188 6.65625 -11.28125 5.9375 -11.28125 L 2.859375 -11.28125 L 2.859375 -7.078125 Z M 6.28125 -1.3125 C 7.0625 -1.3125 7.707031 -1.488281 8.21875 -1.84375 C 8.738281 -2.207031 9 -2.800781 9 -3.625 C 9 -4.425781 8.738281 -4.992188 8.21875 -5.328125 C 7.707031 -5.671875 7.0625 -5.84375 6.28125 -5.84375 L 2.859375 -5.84375 L 2.859375 -1.3125 Z M 6.28125 -1.3125 "/></g></g></g><g fill="#ffffff" fill-opacity="1"><g transform="translate(147.725806, 777.374981)"><g><path d="M 5.140625 -5.015625 L 2.890625 -5.015625 L 2.890625 0 L 1.34375 0 L 1.34375 -12.59375 L 5.640625 -12.59375 C 6.648438 -12.59375 7.484375 -12.40625 8.140625 -12.03125 C 8.796875 -11.664062 9.265625 -11.191406 9.546875 -10.609375 C 9.835938 -10.035156 9.984375 -9.429688 9.984375 -8.796875 C 9.984375 -7.921875 9.722656 -7.132812 9.203125 -6.4375 C 8.679688 -5.75 7.867188 -5.304688 6.765625 -5.109375 L 10.09375 0 L 8.390625 0 Z M 2.890625 -6.359375 L 5.4375 -6.359375 C 6.289062 -6.359375 7.007812 -6.539062 7.59375 -6.90625 C 8.1875 -7.28125 8.484375 -7.910156 8.484375 -8.796875 C 8.484375 -9.671875 8.1875 -10.289062 7.59375 -10.65625 C 7.007812 -11.019531 6.289062 -11.203125 5.4375 -11.203125 L 2.890625 -11.203125 Z M 2.890625 -6.359375 "/></g></g></g><g fill="#ffffff" fill-opacity="1"><g transform="translate(158.615775, 777.374981)"><g><path d="M 8.6875 -3.671875 L 3.5625 -3.671875 L 2.234375 0 L 0.640625 0 L 5.375 -12.59375 L 6.859375 -12.59375 L 11.625 0 L 10.046875 0 Z M 8.25 -4.90625 L 6.140625 -10.625 L 6.0625 -10.625 L 4.015625 -4.90625 Z M 8.25 -4.90625 "/></g></g></g><g fill="#ffffff" fill-opacity="1"><g transform="translate(170.855734, 777.374981)"><g><path d="M 10.875 -12.59375 L 10.875 0 L 9.3125 0 L 9.3125 -5.703125 L 2.890625 -5.703125 L 2.890625 0 L 1.34375 0 L 1.34375 -12.59375 L 2.890625 -12.59375 L 2.890625 -6.96875 L 9.3125 -6.96875 L 9.3125 -12.59375 Z M 10.875 -12.59375 "/></g></g></g><g fill="#ffffff" fill-opacity="1"><g transform="translate(183.077703, 777.374981)"><g><path d="M 1.40625 -12.59375 L 2.96875 -12.59375 L 2.96875 0 L 1.40625 0 Z M 1.40625 -12.59375 "/></g></g></g><g fill="#ffffff" fill-opacity="1"><g transform="translate(187.451692, 777.374981)"><g><path d="M 1.34375 -12.59375 L 3.640625 -12.59375 L 7.375 -2.953125 L 7.4375 -2.953125 L 11.171875 -12.59375 L 13.46875 -12.59375 L 13.46875 0 L 11.9375 0 L 11.9375 -10.203125 L 11.859375 -10.203125 L 7.953125 0 L 6.84375 0 L 2.953125 -10.203125 L 2.875 -10.203125 L 2.875 0 L 1.34375 0 Z M 1.34375 -12.59375 "/></g></g></g></svg>