<svg xmlns="http://www.w3.org/2000/svg" xmlns:xlink="http://www.w3.org/1999/xlink" width="1920" zoomAndPan="magnify" viewBox="0 0 1440 809.999993" height="1080" preserveAspectRatio="xMidYMid meet" version="1.0"><defs><g/></defs><rect x="-144" width="1728" fill="#ffffff" y="-80.999999" height="971.999992" fill-opacity="1"/><rect x="-144" width="1728" fill="#faf4eb" y="-80.999999" height="971.999992" fill-opacity="1"/><path fill="#2d3e70" d="M 0 729 L 1439.964844 729 L 1439.964844 810 L 0 810 Z M 0 729 " fill-opacity="1" fill-rule="nonzero"/><g fill="#2d3e70" fill-opacity="1"><g transform="translate(361.757801, 412.613114)"><g><path d="M 2.234375 -10.640625 C 2.140625 -10.734375 2.09375 -10.828125 2.09375 -10.921875 L 4.625 -29.8125 L 6.71875 -29.546875 C 7.1875 -26.085938 8.328125 -22.628906 10.140625 -19.171875 C 11.960938 -15.722656 14.226562 -12.617188 16.9375 -9.859375 C 19.644531 -7.109375 22.703125 -4.894531 26.109375 -3.21875 C 29.515625 -1.539062 33.039062 -0.703125 36.6875 -0.703125 C 41.070312 -0.703125 44.921875 -2.078125 48.234375 -4.828125 C 51.546875 -7.578125 53.203125 -11.332031 53.203125 -16.09375 C 53.203125 -19.269531 52.382812 -22.046875 50.75 -24.421875 C 49.113281 -26.804688 47.054688 -28.882812 44.578125 -30.65625 C 42.109375 -32.425781 39.613281 -33.96875 37.09375 -35.28125 C 35.601562 -36.125 34.109375 -36.941406 32.609375 -37.734375 C 31.117188 -38.523438 29.582031 -39.34375 28 -40.1875 C 23.894531 -42.332031 20 -44.640625 16.3125 -47.109375 C 12.625 -49.578125 9.632812 -52.445312 7.34375 -55.71875 C 5.0625 -58.988281 3.921875 -62.910156 3.921875 -67.484375 C 3.921875 -73.171875 5.4375 -77.832031 8.46875 -81.46875 C 11.5 -85.113281 15.394531 -87.820312 20.15625 -89.59375 C 24.914062 -91.375 29.863281 -92.265625 35 -92.265625 C 37.519531 -92.265625 40.390625 -92.03125 43.609375 -91.5625 C 46.828125 -91.09375 49.929688 -90.367188 52.921875 -89.390625 C 55.910156 -88.410156 58.335938 -87.082031 60.203125 -85.40625 C 60.296875 -85.3125 60.4375 -85.171875 60.625 -84.984375 C 60.8125 -84.796875 61 -84.609375 61.1875 -84.421875 C 61.363281 -84.234375 61.5 -84 61.59375 -83.71875 L 63.984375 -64.265625 L 61.453125 -64.265625 C 60.429688 -66.960938 58.984375 -69.828125 57.109375 -72.859375 C 55.242188 -75.898438 53.097656 -78.75 50.671875 -81.40625 C 48.253906 -84.070312 45.550781 -86.21875 42.5625 -87.84375 C 39.570312 -89.476562 36.445312 -90.296875 33.1875 -90.296875 C 28.882812 -90.296875 25.21875 -89.035156 22.1875 -86.515625 C 19.15625 -83.992188 17.640625 -80.398438 17.640625 -75.734375 C 17.640625 -72.285156 18.429688 -69.300781 20.015625 -66.78125 C 21.609375 -64.257812 23.660156 -62.039062 26.171875 -60.125 C 28.691406 -58.21875 31.257812 -56.515625 33.875 -55.015625 C 35.375 -54.085938 36.890625 -53.222656 38.421875 -52.421875 C 39.960938 -51.628906 41.484375 -50.816406 42.984375 -49.984375 C 47.179688 -47.742188 51.125 -45.382812 54.8125 -42.90625 C 58.5 -40.4375 61.507812 -37.566406 63.84375 -34.296875 C 66.175781 -31.035156 67.34375 -27.117188 67.34375 -22.546875 C 67.34375 -19.460938 66.6875 -16.519531 65.375 -13.71875 C 63.601562 -9.707031 61.015625 -6.601562 57.609375 -4.40625 C 54.203125 -2.21875 50.421875 -0.703125 46.265625 0.140625 C 42.117188 0.984375 37.988281 1.40625 33.875 1.40625 C 30.707031 1.40625 27.234375 1.03125 23.453125 0.28125 C 19.671875 -0.46875 16.003906 -1.585938 12.453125 -3.078125 C 8.910156 -4.566406 5.972656 -6.4375 3.640625 -8.6875 C 3.546875 -8.863281 3.40625 -9.046875 3.21875 -9.234375 C 3.03125 -9.421875 2.84375 -9.65625 2.65625 -9.9375 C 2.375 -10.21875 2.234375 -10.453125 2.234375 -10.640625 Z M 2.234375 -10.640625 "/></g></g></g><g fill="#2d3e70" fill-opacity="1"><g transform="translate(430.213974, 412.613114)"><g><path d="M 3.5 -32.0625 C 3.5 -38.125 4.59375 -43.722656 6.78125 -48.859375 C 8.976562 -53.992188 12.222656 -58.125 16.515625 -61.25 C 20.804688 -64.375 26.128906 -65.9375 32.484375 -65.9375 C 37.984375 -65.9375 42.671875 -64.695312 46.546875 -62.21875 C 50.421875 -59.75 53.382812 -56.367188 55.4375 -52.078125 C 57.488281 -47.785156 58.515625 -42.976562 58.515625 -37.65625 L 58.515625 -37.234375 L 18.625 -37.234375 L 18.625 -35.28125 C 18.625 -32.289062 18.992188 -29.207031 19.734375 -26.03125 C 20.484375 -22.863281 21.648438 -19.898438 23.234375 -17.140625 C 24.828125 -14.390625 26.90625 -12.148438 29.46875 -10.421875 C 32.03125 -8.703125 35.179688 -7.84375 38.921875 -7.84375 C 42.367188 -7.84375 45.75 -8.65625 49.0625 -10.28125 C 52.382812 -11.914062 55.070312 -14.132812 57.125 -16.9375 L 58.375 -16.09375 C 55.582031 -10.6875 52.34375 -6.414062 48.65625 -3.28125 C 44.96875 -0.15625 39.8125 1.40625 33.1875 1.40625 C 26.738281 1.40625 21.320312 -0.0859375 16.9375 -3.078125 C 12.550781 -6.066406 9.210938 -10.101562 6.921875 -15.1875 C 4.640625 -20.269531 3.5 -25.894531 3.5 -32.0625 Z M 18.90625 -40.453125 L 18.90625 -39.484375 L 43.546875 -39.484375 L 43.546875 -40.453125 C 43.453125 -42.140625 43.191406 -44.265625 42.765625 -46.828125 C 42.347656 -49.398438 41.695312 -51.988281 40.8125 -54.59375 C 39.925781 -57.207031 38.734375 -59.398438 37.234375 -61.171875 C 35.742188 -62.953125 33.925781 -63.84375 31.78125 -63.84375 C 29.539062 -63.84375 27.648438 -62.953125 26.109375 -61.171875 C 24.566406 -59.398438 23.28125 -57.226562 22.25 -54.65625 C 21.226562 -52.09375 20.460938 -49.503906 19.953125 -46.890625 C 19.441406 -44.285156 19.09375 -42.140625 18.90625 -40.453125 Z M 18.90625 -40.453125 "/></g></g></g><g fill="#2d3e70" fill-opacity="1"><g transform="translate(492.370495, 412.613114)"><g><path d="M -1.125 21.421875 C -1.125 18.898438 -0.398438 16.707031 1.046875 14.84375 C 2.492188 12.976562 4.359375 11.4375 6.640625 10.21875 C 8.929688 9.007812 11.242188 8.171875 13.578125 7.703125 L 17.078125 7 L 13.71875 5.734375 C 10.632812 4.617188 8.132812 3.082031 6.21875 1.125 C 4.3125 -0.832031 3.359375 -3.492188 3.359375 -6.859375 C 3.359375 -9.285156 4.175781 -11.429688 5.8125 -13.296875 C 7.445312 -15.160156 9.382812 -16.421875 11.625 -17.078125 L 13.296875 -17.640625 L 12.046875 -18.765625 C 9.148438 -21.378906 7 -24.476562 5.59375 -28.0625 C 4.195312 -31.65625 3.5 -35.414062 3.5 -39.34375 C 3.5 -44.75 4.640625 -49.4375 6.921875 -53.40625 C 9.210938 -57.375 12.410156 -60.453125 16.515625 -62.640625 C 20.628906 -64.835938 25.296875 -65.9375 30.515625 -65.9375 C 34.628906 -65.9375 38.550781 -65.238281 42.28125 -63.84375 L 43.546875 -63.28125 L 43.546875 -64.6875 C 43.816406 -67.570312 44.488281 -70.414062 45.5625 -73.21875 C 46.644531 -76.019531 48.210938 -78.351562 50.265625 -80.21875 C 52.316406 -82.082031 54.832031 -83.015625 57.8125 -83.015625 C 59.96875 -83.015625 61.695312 -82.382812 63 -81.125 C 64.300781 -79.863281 64.953125 -78.160156 64.953125 -76.015625 C 64.953125 -74.054688 64.367188 -72.398438 63.203125 -71.046875 C 62.035156 -69.691406 60.472656 -69.015625 58.515625 -69.015625 C 58.140625 -69.015625 57.742188 -69.035156 57.328125 -69.078125 C 56.910156 -69.128906 56.46875 -69.15625 56 -69.15625 C 53.664062 -69.15625 51.703125 -68.5 50.109375 -67.1875 C 48.523438 -65.882812 47.410156 -64.160156 46.765625 -62.015625 L 46.484375 -61.3125 L 47.046875 -60.90625 C 50.585938 -58.382812 53.148438 -55.234375 54.734375 -51.453125 C 56.328125 -47.671875 57.125 -43.632812 57.125 -39.34375 C 57.125 -31.125 54.71875 -24.585938 49.90625 -19.734375 C 45.101562 -14.878906 38.640625 -12.453125 30.515625 -12.453125 C 27.804688 -12.453125 25.125 -12.78125 22.46875 -13.4375 C 19.8125 -14.09375 17.316406 -15.117188 14.984375 -16.515625 L 14.5625 -16.796875 L 14 -16.65625 C 13.25 -16.28125 12.523438 -15.695312 11.828125 -14.90625 C 11.128906 -14.113281 10.78125 -13.160156 10.78125 -12.046875 C 10.78125 -11.203125 11.015625 -10.472656 11.484375 -9.859375 C 11.953125 -9.253906 12.507812 -8.722656 13.15625 -8.265625 C 13.8125 -7.796875 14.554688 -7.394531 15.390625 -7.0625 C 16.234375 -6.738281 17.078125 -6.4375 17.921875 -6.15625 C 19.691406 -5.6875 21.441406 -5.335938 23.171875 -5.109375 C 24.898438 -4.878906 26.179688 -4.671875 27.015625 -4.484375 C 28.328125 -4.296875 29.632812 -4.109375 30.9375 -3.921875 C 32.25 -3.734375 33.554688 -3.546875 34.859375 -3.359375 C 37.472656 -2.984375 40.179688 -2.445312 42.984375 -1.75 C 45.785156 -1.050781 48.394531 -0.0507812 50.8125 1.25 C 53.238281 2.5625 55.222656 4.289062 56.765625 6.4375 C 58.304688 8.582031 59.078125 11.289062 59.078125 14.5625 C 59.078125 17.082031 58.445312 19.507812 57.1875 21.84375 C 55.925781 24.175781 54.363281 26.226562 52.5 28 C 50.257812 30.144531 47.53125 31.820312 44.3125 33.03125 C 41.09375 34.25 37.753906 35.09375 34.296875 35.5625 C 30.847656 36.03125 27.535156 36.265625 24.359375 36.265625 C 21.929688 36.265625 19.25 36.03125 16.3125 35.5625 C 13.375 35.09375 10.570312 34.296875 7.90625 33.171875 C 5.25 32.054688 3.078125 30.539062 1.390625 28.625 C -0.285156 26.71875 -1.125 24.316406 -1.125 21.421875 Z M 30.234375 -64.40625 C 27.441406 -64.40625 25.273438 -63.492188 23.734375 -61.671875 C 22.191406 -59.847656 21.066406 -57.5625 20.359375 -54.8125 C 19.660156 -52.0625 19.242188 -49.285156 19.109375 -46.484375 C 18.972656 -43.679688 18.90625 -41.300781 18.90625 -39.34375 C 18.90625 -37.382812 18.992188 -34.976562 19.171875 -32.125 C 19.359375 -29.28125 19.800781 -26.476562 20.5 -23.71875 C 21.207031 -20.96875 22.351562 -18.660156 23.9375 -16.796875 C 25.519531 -14.929688 27.710938 -14 30.515625 -14 C 33.316406 -14 35.488281 -14.929688 37.03125 -16.796875 C 38.570312 -18.660156 39.691406 -20.96875 40.390625 -23.71875 C 41.085938 -26.476562 41.503906 -29.28125 41.640625 -32.125 C 41.785156 -34.976562 41.859375 -37.382812 41.859375 -39.34375 C 41.859375 -41.300781 41.765625 -43.703125 41.578125 -46.546875 C 41.390625 -49.390625 40.945312 -52.164062 40.25 -54.875 C 39.550781 -57.582031 38.40625 -59.847656 36.8125 -61.671875 C 35.226562 -63.492188 33.035156 -64.40625 30.234375 -64.40625 Z M 19.453125 7.84375 C 16.566406 8.863281 14.164062 10.609375 12.25 13.078125 C 10.332031 15.554688 9.375 18.429688 9.375 21.703125 C 9.375 24.867188 10.304688 27.335938 12.171875 29.109375 C 14.046875 30.890625 16.285156 32.148438 18.890625 32.890625 C 21.503906 33.640625 23.976562 34.015625 26.3125 34.015625 C 29.019531 34.015625 31.726562 33.546875 34.4375 32.609375 C 37.144531 31.679688 39.40625 30.191406 41.21875 28.140625 C 43.039062 26.085938 43.953125 23.378906 43.953125 20.015625 C 43.953125 17.960938 43.367188 16.328125 42.203125 15.109375 C 41.035156 13.898438 39.585938 12.921875 37.859375 12.171875 C 36.140625 11.429688 34.441406 10.875 32.765625 10.5 C 31.921875 10.3125 31.125 10.125 30.375 9.9375 C 29.632812 9.75 28.9375 9.609375 28.28125 9.515625 C 26.96875 9.234375 25.613281 8.953125 24.21875 8.671875 C 22.820312 8.398438 21.421875 8.078125 20.015625 7.703125 L 19.734375 7.703125 Z M 19.453125 7.84375 "/></g></g></g><g fill="#2d3e70" fill-opacity="1"><g transform="translate(552.847115, 412.613114)"><g><path d="M 1.546875 -57.546875 L 22.6875 -64.265625 L 22.6875 -9.9375 C 22.6875 -4.988281 24.878906 -2.46875 29.265625 -2.375 L 29.265625 0 L 1.546875 0 L 1.546875 -2.375 C 6.023438 -2.46875 8.265625 -4.988281 8.265625 -9.9375 L 8.265625 -47.3125 C 8.265625 -52.164062 6.023438 -54.734375 1.546875 -55.015625 Z M 3.5 -81.203125 C 3.5 -83.816406 4.429688 -86.054688 6.296875 -87.921875 C 8.160156 -89.785156 10.398438 -90.71875 13.015625 -90.71875 C 15.628906 -90.71875 17.894531 -89.785156 19.8125 -87.921875 C 21.726562 -86.054688 22.6875 -83.816406 22.6875 -81.203125 C 22.6875 -78.585938 21.703125 -76.300781 19.734375 -74.34375 C 17.773438 -72.382812 15.535156 -71.40625 13.015625 -71.40625 C 10.398438 -71.40625 8.160156 -72.382812 6.296875 -74.34375 C 4.429688 -76.300781 3.5 -78.585938 3.5 -81.203125 Z M 3.5 -81.203125 "/></g></g></g><g fill="#2d3e70" fill-opacity="1"><g transform="translate(582.805434, 412.613114)"><g><path d="M -0.84375 -65.234375 C 2.050781 -65.703125 4.898438 -66.914062 7.703125 -68.875 C 10.503906 -70.832031 13.046875 -73.140625 15.328125 -75.796875 C 17.617188 -78.460938 19.507812 -81.148438 21 -83.859375 L 21 -65.09375 L 34.015625 -65.09375 L 34.015625 -62.859375 L 21 -62.859375 L 21 -13.015625 C 21 -11.242188 21.441406 -9.515625 22.328125 -7.828125 C 23.210938 -6.148438 24.820312 -5.3125 27.15625 -5.3125 C 28.375 -5.3125 29.519531 -5.566406 30.59375 -6.078125 C 31.664062 -6.597656 32.617188 -7.1875 33.453125 -7.84375 L 34.71875 -6.296875 C 32.757812 -3.867188 30.566406 -2 28.140625 -0.6875 C 25.710938 0.613281 22.910156 1.265625 19.734375 1.265625 C 15.441406 1.265625 12.175781 0.0976562 9.9375 -2.234375 C 7.695312 -4.566406 6.578125 -7.882812 6.578125 -12.1875 L 6.578125 -62.859375 L -0.84375 -62.859375 Z M -0.84375 -65.234375 "/></g></g></g><g fill="#2d3e70" fill-opacity="1"><g transform="translate(618.783437, 412.613114)"><g><path d="M 1.546875 -57.546875 L 22.6875 -64.265625 L 22.6875 -9.9375 C 22.6875 -4.988281 24.878906 -2.46875 29.265625 -2.375 L 29.265625 0 L 1.546875 0 L 1.546875 -2.375 C 6.023438 -2.46875 8.265625 -4.988281 8.265625 -9.9375 L 8.265625 -47.3125 C 8.265625 -52.164062 6.023438 -54.734375 1.546875 -55.015625 Z M 3.5 -81.203125 C 3.5 -83.816406 4.429688 -86.054688 6.296875 -87.921875 C 8.160156 -89.785156 10.398438 -90.71875 13.015625 -90.71875 C 15.628906 -90.71875 17.894531 -89.785156 19.8125 -87.921875 C 21.726562 -86.054688 22.6875 -83.816406 22.6875 -81.203125 C 22.6875 -78.585938 21.703125 -76.300781 19.734375 -74.34375 C 17.773438 -72.382812 15.535156 -71.40625 13.015625 -71.40625 C 10.398438 -71.40625 8.160156 -72.382812 6.296875 -74.34375 C 4.429688 -76.300781 3.5 -78.585938 3.5 -81.203125 Z M 3.5 -81.203125 "/></g></g></g><g fill="#2d3e70" fill-opacity="1"><g transform="translate(648.741756, 412.613114)"><g><path d="M -1.125 21.421875 C -1.125 18.898438 -0.398438 16.707031 1.046875 14.84375 C 2.492188 12.976562 4.359375 11.4375 6.640625 10.21875 C 8.929688 9.007812 11.242188 8.171875 13.578125 7.703125 L 17.078125 7 L 13.71875 5.734375 C 10.632812 4.617188 8.132812 3.082031 6.21875 1.125 C 4.3125 -0.832031 3.359375 -3.492188 3.359375 -6.859375 C 3.359375 -9.285156 4.175781 -11.429688 5.8125 -13.296875 C 7.445312 -15.160156 9.382812 -16.421875 11.625 -17.078125 L 13.296875 -17.640625 L 12.046875 -18.765625 C 9.148438 -21.378906 7 -24.476562 5.59375 -28.0625 C 4.195312 -31.65625 3.5 -35.414062 3.5 -39.34375 C 3.5 -44.75 4.640625 -49.4375 6.921875 -53.40625 C 9.210938 -57.375 12.410156 -60.453125 16.515625 -62.640625 C 20.628906 -64.835938 25.296875 -65.9375 30.515625 -65.9375 C 34.628906 -65.9375 38.550781 -65.238281 42.28125 -63.84375 L 43.546875 -63.28125 L 43.546875 -64.6875 C 43.816406 -67.570312 44.488281 -70.414062 45.5625 -73.21875 C 46.644531 -76.019531 48.210938 -78.351562 50.265625 -80.21875 C 52.316406 -82.082031 54.832031 -83.015625 57.8125 -83.015625 C 59.96875 -83.015625 61.695312 -82.382812 63 -81.125 C 64.300781 -79.863281 64.953125 -78.160156 64.953125 -76.015625 C 64.953125 -74.054688 64.367188 -72.398438 63.203125 -71.046875 C 62.035156 -69.691406 60.472656 -69.015625 58.515625 -69.015625 C 58.140625 -69.015625 57.742188 -69.035156 57.328125 -69.078125 C 56.910156 -69.128906 56.46875 -69.15625 56 -69.15625 C 53.664062 -69.15625 51.703125 -68.5 50.109375 -67.1875 C 48.523438 -65.882812 47.410156 -64.160156 46.765625 -62.015625 L 46.484375 -61.3125 L 47.046875 -60.90625 C 50.585938 -58.382812 53.148438 -55.234375 54.734375 -51.453125 C 56.328125 -47.671875 57.125 -43.632812 57.125 -39.34375 C 57.125 -31.125 54.71875 -24.585938 49.90625 -19.734375 C 45.101562 -14.878906 38.640625 -12.453125 30.515625 -12.453125 C 27.804688 -12.453125 25.125 -12.78125 22.46875 -13.4375 C 19.8125 -14.09375 17.316406 -15.117188 14.984375 -16.515625 L 14.5625 -16.796875 L 14 -16.65625 C 13.25 -16.28125 12.523438 -15.695312 11.828125 -14.90625 C 11.128906 -14.113281 10.78125 -13.160156 10.78125 -12.046875 C 10.78125 -11.203125 11.015625 -10.472656 11.484375 -9.859375 C 11.953125 -9.253906 12.507812 -8.722656 13.15625 -8.265625 C 13.8125 -7.796875 14.554688 -7.394531 15.390625 -7.0625 C 16.234375 -6.738281 17.078125 -6.4375 17.921875 -6.15625 C 19.691406 -5.6875 21.441406 -5.335938 23.171875 -5.109375 C 24.898438 -4.878906 26.179688 -4.671875 27.015625 -4.484375 C 28.328125 -4.296875 29.632812 -4.109375 30.9375 -3.921875 C 32.25 -3.734375 33.554688 -3.546875 34.859375 -3.359375 C 37.472656 -2.984375 40.179688 -2.445312 42.984375 -1.75 C 45.785156 -1.050781 48.394531 -0.0507812 50.8125 1.25 C 53.238281 2.5625 55.222656 4.289062 56.765625 6.4375 C 58.304688 8.582031 59.078125 11.289062 59.078125 14.5625 C 59.078125 17.082031 58.445312 19.507812 57.1875 21.84375 C 55.925781 24.175781 54.363281 26.226562 52.5 28 C 50.257812 30.144531 47.53125 31.820312 44.3125 33.03125 C 41.09375 34.25 37.753906 35.09375 34.296875 35.5625 C 30.847656 36.03125 27.535156 36.265625 24.359375 36.265625 C 21.929688 36.265625 19.25 36.03125 16.3125 35.5625 C 13.375 35.09375 10.570312 34.296875 7.90625 33.171875 C 5.25 32.054688 3.078125 30.539062 1.390625 28.625 C -0.285156 26.71875 -1.125 24.316406 -1.125 21.421875 Z M 30.234375 -64.40625 C 27.441406 -64.40625 25.273438 -63.492188 23.734375 -61.671875 C 22.191406 -59.847656 21.066406 -57.5625 20.359375 -54.8125 C 19.660156 -52.0625 19.242188 -49.285156 19.109375 -46.484375 C 18.972656 -43.679688 18.90625 -41.300781 18.90625 -39.34375 C 18.90625 -37.382812 18.992188 -34.976562 19.171875 -32.125 C 19.359375 -29.28125 19.800781 -26.476562 20.5 -23.71875 C 21.207031 -20.96875 22.351562 -18.660156 23.9375 -16.796875 C 25.519531 -14.929688 27.710938 -14 30.515625 -14 C 33.316406 -14 35.488281 -14.929688 37.03125 -16.796875 C 38.570312 -18.660156 39.691406 -20.96875 40.390625 -23.71875 C 41.085938 -26.476562 41.503906 -29.28125 41.640625 -32.125 C 41.785156 -34.976562 41.859375 -37.382812 41.859375 -39.34375 C 41.859375 -41.300781 41.765625 -43.703125 41.578125 -46.546875 C 41.390625 -49.390625 40.945312 -52.164062 40.25 -54.875 C 39.550781 -57.582031 38.40625 -59.847656 36.8125 -61.671875 C 35.226562 -63.492188 33.035156 -64.40625 30.234375 -64.40625 Z M 19.453125 7.84375 C 16.566406 8.863281 14.164062 10.609375 12.25 13.078125 C 10.332031 15.554688 9.375 18.429688 9.375 21.703125 C 9.375 24.867188 10.304688 27.335938 12.171875 29.109375 C 14.046875 30.890625 16.285156 32.148438 18.890625 32.890625 C 21.503906 33.640625 23.976562 34.015625 26.3125 34.015625 C 29.019531 34.015625 31.726562 33.546875 34.4375 32.609375 C 37.144531 31.679688 39.40625 30.191406 41.21875 28.140625 C 43.039062 26.085938 43.953125 23.378906 43.953125 20.015625 C 43.953125 17.960938 43.367188 16.328125 42.203125 15.109375 C 41.035156 13.898438 39.585938 12.921875 37.859375 12.171875 C 36.140625 11.429688 34.441406 10.875 32.765625 10.5 C 31.921875 10.3125 31.125 10.125 30.375 9.9375 C 29.632812 9.75 28.9375 9.609375 28.28125 9.515625 C 26.96875 9.234375 25.613281 8.953125 24.21875 8.671875 C 22.820312 8.398438 21.421875 8.078125 20.015625 7.703125 L 19.734375 7.703125 Z M 19.453125 7.84375 "/></g></g></g><g fill="#2d3e70" fill-opacity="1"><g transform="translate(709.218376, 412.613114)"><g><path d="M 24.078125 1.265625 C 20.160156 1.265625 16.566406 0.566406 13.296875 -0.828125 C 10.035156 -2.234375 7.398438 -4.359375 5.390625 -7.203125 C 3.378906 -10.054688 2.375 -13.535156 2.375 -17.640625 C 2.375 -22.492188 3.492188 -26.578125 5.734375 -29.890625 C 7.972656 -33.203125 11.003906 -35.722656 14.828125 -37.453125 C 18.660156 -39.179688 22.863281 -40.046875 27.4375 -40.046875 C 29.113281 -40.046875 30.769531 -39.925781 32.40625 -39.6875 C 34.039062 -39.457031 35.601562 -39.015625 37.09375 -38.359375 L 38.5 -37.796875 L 38.5 -48.015625 C 38.5 -49.421875 38.453125 -51.101562 38.359375 -53.0625 C 38.265625 -55.019531 37.984375 -56.601562 37.515625 -57.8125 C 37.046875 -59.5 36.226562 -60.925781 35.0625 -62.09375 C 33.894531 -63.257812 32.191406 -63.84375 29.953125 -63.84375 C 27.160156 -63.84375 25.0625 -63.046875 23.65625 -61.453125 C 22.257812 -59.867188 21.347656 -57.957031 20.921875 -55.71875 C 20.503906 -53.476562 20.296875 -51.378906 20.296875 -49.421875 C 20.296875 -47.929688 19.476562 -46.8125 17.84375 -46.0625 C 16.21875 -45.3125 14.5625 -44.9375 12.875 -44.9375 C 11.289062 -44.9375 9.726562 -45.285156 8.1875 -45.984375 C 6.644531 -46.691406 5.875 -47.789062 5.875 -49.28125 C 5.875 -53.476562 7.132812 -56.789062 9.65625 -59.21875 C 12.175781 -61.644531 15.328125 -63.367188 19.109375 -64.390625 C 22.890625 -65.421875 26.597656 -65.9375 30.234375 -65.9375 C 37.046875 -65.9375 42.53125 -64.347656 46.6875 -61.171875 C 50.84375 -58.003906 52.921875 -52.921875 52.921875 -45.921875 L 52.921875 -10.5 C 52.921875 -10.21875 52.921875 -9.957031 52.921875 -9.71875 C 52.921875 -9.488281 52.921875 -9.234375 52.921875 -8.953125 C 52.921875 -8.679688 52.941406 -8.378906 52.984375 -8.046875 C 53.035156 -7.722656 53.109375 -7.421875 53.203125 -7.140625 C 53.390625 -6.578125 53.691406 -6.039062 54.109375 -5.53125 C 54.523438 -5.019531 55.203125 -4.765625 56.140625 -4.765625 C 57.171875 -4.765625 58.148438 -5.085938 59.078125 -5.734375 L 60.203125 -4.34375 C 58.703125 -2.570312 56.898438 -1.285156 54.796875 -0.484375 C 52.703125 0.304688 50.441406 0.703125 48.015625 0.703125 C 46.242188 0.703125 44.632812 0.328125 43.1875 -0.421875 C 41.738281 -1.171875 40.597656 -2.289062 39.765625 -3.78125 L 39.203125 -4.90625 L 38.21875 -4.0625 C 36.351562 -2.101562 34.207031 -0.726562 31.78125 0.0625 C 29.351562 0.863281 26.785156 1.265625 24.078125 1.265625 Z M 17.5 -17.078125 C 17.5 -14.929688 17.78125 -12.644531 18.34375 -10.21875 C 18.90625 -7.789062 19.953125 -5.738281 21.484375 -4.0625 C 23.023438 -2.382812 25.289062 -1.546875 28.28125 -1.546875 C 29.675781 -1.546875 31.164062 -1.894531 32.75 -2.59375 C 34.34375 -3.289062 35.695312 -4.289062 36.8125 -5.59375 C 37.9375 -6.90625 38.5 -8.398438 38.5 -10.078125 L 38.5 -35.84375 L 37.796875 -36.125 C 37.140625 -36.40625 36.414062 -36.585938 35.625 -36.671875 C 34.832031 -36.765625 34.0625 -36.8125 33.3125 -36.8125 C 29.488281 -36.8125 26.410156 -35.851562 24.078125 -33.9375 C 21.742188 -32.03125 20.0625 -29.5625 19.03125 -26.53125 C 18.007812 -23.5 17.5 -20.347656 17.5 -17.078125 Z M 17.5 -17.078125 "/></g></g></g><g fill="#2d3e70" fill-opacity="1"><g transform="translate(770.674954, 412.613114)"><g/></g></g><g fill="#2d3e70" fill-opacity="1"><g transform="translate(797.833431, 412.613114)"><g><path d="M 1.265625 -90.71875 L 24.78125 -90.71875 C 27.207031 -90.71875 29.65625 -90.738281 32.125 -90.78125 C 34.601562 -90.832031 37.148438 -90.8125 39.765625 -90.71875 C 42.191406 -90.625 44.660156 -90.484375 47.171875 -90.296875 C 49.691406 -90.109375 52.117188 -89.78125 54.453125 -89.3125 C 61.734375 -87.820312 67.5 -84.882812 71.75 -80.5 C 76 -76.113281 79.03125 -70.789062 80.84375 -64.53125 C 82.664062 -58.28125 83.578125 -51.609375 83.578125 -44.515625 C 83.578125 -37.515625 82.597656 -30.9375 80.640625 -24.78125 C 78.679688 -18.625 75.507812 -13.421875 71.125 -9.171875 C 66.738281 -4.921875 60.859375 -2.238281 53.484375 -1.125 C 48.910156 -0.46875 44.125 -0.113281 39.125 -0.0625 C 34.132812 -0.0195312 29.351562 0 24.78125 0 L 1.265625 0 L 1.265625 -2.234375 C 3.410156 -2.421875 5.296875 -3.070312 6.921875 -4.1875 C 8.554688 -5.3125 9.375 -7.226562 9.375 -9.9375 L 9.375 -80.78125 C 9.375 -83.488281 8.554688 -85.425781 6.921875 -86.59375 C 5.296875 -87.757812 3.410156 -88.390625 1.265625 -88.484375 Z M 23.796875 -2.234375 L 24.78125 -2.234375 C 28.976562 -2.234375 33.316406 -2.488281 37.796875 -3 C 42.273438 -3.519531 46.476562 -4.804688 50.40625 -6.859375 C 55.164062 -9.378906 58.828125 -12.804688 61.390625 -17.140625 C 63.953125 -21.484375 65.742188 -26.222656 66.765625 -31.359375 C 67.796875 -36.492188 68.3125 -41.441406 68.3125 -46.203125 C 68.3125 -49.460938 68.007812 -53.125 67.40625 -57.1875 C 66.800781 -61.25 65.773438 -65.285156 64.328125 -69.296875 C 62.878906 -73.304688 60.914062 -76.851562 58.4375 -79.9375 C 55.96875 -83.019531 52.867188 -85.164062 49.140625 -86.375 C 47.085938 -87.125 44.566406 -87.640625 41.578125 -87.921875 C 38.585938 -88.203125 35.597656 -88.390625 32.609375 -88.484375 C 29.628906 -88.578125 27.019531 -88.625 24.78125 -88.625 L 23.796875 -88.625 Z M 23.796875 -2.234375 "/></g></g></g><g fill="#2d3e70" fill-opacity="1"><g transform="translate(883.928611, 412.613114)"><g><path d="M 24.078125 1.265625 C 20.160156 1.265625 16.566406 0.566406 13.296875 -0.828125 C 10.035156 -2.234375 7.398438 -4.359375 5.390625 -7.203125 C 3.378906 -10.054688 2.375 -13.535156 2.375 -17.640625 C 2.375 -22.492188 3.492188 -26.578125 5.734375 -29.890625 C 7.972656 -33.203125 11.003906 -35.722656 14.828125 -37.453125 C 18.660156 -39.179688 22.863281 -40.046875 27.4375 -40.046875 C 29.113281 -40.046875 30.769531 -39.925781 32.40625 -39.6875 C 34.039062 -39.457031 35.601562 -39.015625 37.09375 -38.359375 L 38.5 -37.796875 L 38.5 -48.015625 C 38.5 -49.421875 38.453125 -51.101562 38.359375 -53.0625 C 38.265625 -55.019531 37.984375 -56.601562 37.515625 -57.8125 C 37.046875 -59.5 36.226562 -60.925781 35.0625 -62.09375 C 33.894531 -63.257812 32.191406 -63.84375 29.953125 -63.84375 C 27.160156 -63.84375 25.0625 -63.046875 23.65625 -61.453125 C 22.257812 -59.867188 21.347656 -57.957031 20.921875 -55.71875 C 20.503906 -53.476562 20.296875 -51.378906 20.296875 -49.421875 C 20.296875 -47.929688 19.476562 -46.8125 17.84375 -46.0625 C 16.21875 -45.3125 14.5625 -44.9375 12.875 -44.9375 C 11.289062 -44.9375 9.726562 -45.285156 8.1875 -45.984375 C 6.644531 -46.691406 5.875 -47.789062 5.875 -49.28125 C 5.875 -53.476562 7.132812 -56.789062 9.65625 -59.21875 C 12.175781 -61.644531 15.328125 -63.367188 19.109375 -64.390625 C 22.890625 -65.421875 26.597656 -65.9375 30.234375 -65.9375 C 37.046875 -65.9375 42.53125 -64.347656 46.6875 -61.171875 C 50.84375 -58.003906 52.921875 -52.921875 52.921875 -45.921875 L 52.921875 -10.5 C 52.921875 -10.21875 52.921875 -9.957031 52.921875 -9.71875 C 52.921875 -9.488281 52.921875 -9.234375 52.921875 -8.953125 C 52.921875 -8.679688 52.941406 -8.378906 52.984375 -8.046875 C 53.035156 -7.722656 53.109375 -7.421875 53.203125 -7.140625 C 53.390625 -6.578125 53.691406 -6.039062 54.109375 -5.53125 C 54.523438 -5.019531 55.203125 -4.765625 56.140625 -4.765625 C 57.171875 -4.765625 58.148438 -5.085938 59.078125 -5.734375 L 60.203125 -4.34375 C 58.703125 -2.570312 56.898438 -1.285156 54.796875 -0.484375 C 52.703125 0.304688 50.441406 0.703125 48.015625 0.703125 C 46.242188 0.703125 44.632812 0.328125 43.1875 -0.421875 C 41.738281 -1.171875 40.597656 -2.289062 39.765625 -3.78125 L 39.203125 -4.90625 L 38.21875 -4.0625 C 36.351562 -2.101562 34.207031 -0.726562 31.78125 0.0625 C 29.351562 0.863281 26.785156 1.265625 24.078125 1.265625 Z M 17.5 -17.078125 C 17.5 -14.929688 17.78125 -12.644531 18.34375 -10.21875 C 18.90625 -7.789062 19.953125 -5.738281 21.484375 -4.0625 C 23.023438 -2.382812 25.289062 -1.546875 28.28125 -1.546875 C 29.675781 -1.546875 31.164062 -1.894531 32.75 -2.59375 C 34.34375 -3.289062 35.695312 -4.289062 36.8125 -5.59375 C 37.9375 -6.90625 38.5 -8.398438 38.5 -10.078125 L 38.5 -35.84375 L 37.796875 -36.125 C 37.140625 -36.40625 36.414062 -36.585938 35.625 -36.671875 C 34.832031 -36.765625 34.0625 -36.8125 33.3125 -36.8125 C 29.488281 -36.8125 26.410156 -35.851562 24.078125 -33.9375 C 21.742188 -32.03125 20.0625 -29.5625 19.03125 -26.53125 C 18.007812 -23.5 17.5 -20.347656 17.5 -17.078125 Z M 17.5 -17.078125 "/></g></g></g><g fill="#2d3e70" fill-opacity="1"><g transform="translate(945.385166, 412.613114)"><g><path d="M 11.765625 32.0625 C 8.304688 32.0625 5.242188 30.960938 2.578125 28.765625 C -0.078125 26.578125 -1.40625 23.660156 -1.40625 20.015625 C -1.40625 17.960938 -0.679688 16.28125 0.765625 14.96875 C 2.210938 13.664062 3.914062 13.015625 5.875 13.015625 C 8.019531 13.015625 9.628906 13.664062 10.703125 14.96875 C 11.773438 16.28125 12.5 18.007812 12.875 20.15625 C 12.96875 20.71875 13.082031 21.320312 13.21875 21.96875 C 13.363281 22.625 13.625 23.234375 14 23.796875 C 14.28125 24.453125 14.695312 25.015625 15.25 25.484375 C 15.8125 25.953125 16.5625 26.1875 17.5 26.1875 C 19.363281 26.1875 21.132812 25.179688 22.8125 23.171875 C 24.5 21.160156 25.945312 19.035156 27.15625 16.796875 C 28.5625 14.367188 29.800781 11.960938 30.875 9.578125 C 31.945312 7.203125 32.757812 5.457031 33.3125 4.34375 L 33.453125 3.921875 L 11.0625 -52.359375 C 10.21875 -54.316406 8.742188 -56.460938 6.640625 -58.796875 C 4.546875 -61.128906 2.238281 -62.484375 -0.28125 -62.859375 L -0.28125 -65.09375 L 28.421875 -65.09375 L 28.421875 -62.859375 C 27.484375 -62.671875 26.664062 -62.25 25.96875 -61.59375 C 25.269531 -60.945312 24.921875 -59.96875 24.921875 -58.65625 C 24.921875 -57.914062 25.0625 -57.171875 25.34375 -56.421875 C 25.4375 -56.234375 25.550781 -56 25.6875 -55.71875 C 25.832031 -55.4375 25.953125 -55.109375 26.046875 -54.734375 L 42.140625 -13.859375 L 58.796875 -50.6875 C 59.359375 -51.988281 59.640625 -53.335938 59.640625 -54.734375 C 59.640625 -56.972656 59.007812 -58.648438 57.75 -59.765625 C 56.488281 -60.890625 54.992188 -61.6875 53.265625 -62.15625 C 51.546875 -62.625 49.9375 -62.859375 48.4375 -62.859375 L 48.4375 -65.09375 L 73.21875 -65.09375 L 73.21875 -62.71875 C 71.632812 -62.4375 70.070312 -61.617188 68.53125 -60.265625 C 66.988281 -58.910156 65.65625 -57.441406 64.53125 -55.859375 C 63.414062 -54.273438 62.578125 -52.875 62.015625 -51.65625 L 37.515625 0.5625 C 36.492188 2.707031 35.46875 4.898438 34.4375 7.140625 C 33.414062 9.378906 32.390625 11.617188 31.359375 13.859375 C 30.054688 16.378906 28.515625 19.0625 26.734375 21.90625 C 24.960938 24.757812 22.835938 27.164062 20.359375 29.125 C 17.890625 31.082031 15.023438 32.0625 11.765625 32.0625 Z M 11.765625 32.0625 "/></g></g></g><g fill="#2d3e70" fill-opacity="1"><g transform="translate(1016.781189, 412.613114)"><g><path d="M 24.078125 1.265625 C 20.160156 1.265625 16.566406 0.566406 13.296875 -0.828125 C 10.035156 -2.234375 7.398438 -4.359375 5.390625 -7.203125 C 3.378906 -10.054688 2.375 -13.535156 2.375 -17.640625 C 2.375 -22.492188 3.492188 -26.578125 5.734375 -29.890625 C 7.972656 -33.203125 11.003906 -35.722656 14.828125 -37.453125 C 18.660156 -39.179688 22.863281 -40.046875 27.4375 -40.046875 C 29.113281 -40.046875 30.769531 -39.925781 32.40625 -39.6875 C 34.039062 -39.457031 35.601562 -39.015625 37.09375 -38.359375 L 38.5 -37.796875 L 38.5 -48.015625 C 38.5 -49.421875 38.453125 -51.101562 38.359375 -53.0625 C 38.265625 -55.019531 37.984375 -56.601562 37.515625 -57.8125 C 37.046875 -59.5 36.226562 -60.925781 35.0625 -62.09375 C 33.894531 -63.257812 32.191406 -63.84375 29.953125 -63.84375 C 27.160156 -63.84375 25.0625 -63.046875 23.65625 -61.453125 C 22.257812 -59.867188 21.347656 -57.957031 20.921875 -55.71875 C 20.503906 -53.476562 20.296875 -51.378906 20.296875 -49.421875 C 20.296875 -47.929688 19.476562 -46.8125 17.84375 -46.0625 C 16.21875 -45.3125 14.5625 -44.9375 12.875 -44.9375 C 11.289062 -44.9375 9.726562 -45.285156 8.1875 -45.984375 C 6.644531 -46.691406 5.875 -47.789062 5.875 -49.28125 C 5.875 -53.476562 7.132812 -56.789062 9.65625 -59.21875 C 12.175781 -61.644531 15.328125 -63.367188 19.109375 -64.390625 C 22.890625 -65.421875 26.597656 -65.9375 30.234375 -65.9375 C 37.046875 -65.9375 42.53125 -64.347656 46.6875 -61.171875 C 50.84375 -58.003906 52.921875 -52.921875 52.921875 -45.921875 L 52.921875 -10.5 C 52.921875 -10.21875 52.921875 -9.957031 52.921875 -9.71875 C 52.921875 -9.488281 52.921875 -9.234375 52.921875 -8.953125 C 52.921875 -8.679688 52.941406 -8.378906 52.984375 -8.046875 C 53.035156 -7.722656 53.109375 -7.421875 53.203125 -7.140625 C 53.390625 -6.578125 53.691406 -6.039062 54.109375 -5.53125 C 54.523438 -5.019531 55.203125 -4.765625 56.140625 -4.765625 C 57.171875 -4.765625 58.148438 -5.085938 59.078125 -5.734375 L 60.203125 -4.34375 C 58.703125 -2.570312 56.898438 -1.285156 54.796875 -0.484375 C 52.703125 0.304688 50.441406 0.703125 48.015625 0.703125 C 46.242188 0.703125 44.632812 0.328125 43.1875 -0.421875 C 41.738281 -1.171875 40.597656 -2.289062 39.765625 -3.78125 L 39.203125 -4.90625 L 38.21875 -4.0625 C 36.351562 -2.101562 34.207031 -0.726562 31.78125 0.0625 C 29.351562 0.863281 26.785156 1.265625 24.078125 1.265625 Z M 17.5 -17.078125 C 17.5 -14.929688 17.78125 -12.644531 18.34375 -10.21875 C 18.90625 -7.789062 19.953125 -5.738281 21.484375 -4.0625 C 23.023438 -2.382812 25.289062 -1.546875 28.28125 -1.546875 C 29.675781 -1.546875 31.164062 -1.894531 32.75 -2.59375 C 34.34375 -3.289062 35.695312 -4.289062 36.8125 -5.59375 C 37.9375 -6.90625 38.5 -8.398438 38.5 -10.078125 L 38.5 -35.84375 L 37.796875 -36.125 C 37.140625 -36.40625 36.414062 -36.585938 35.625 -36.671875 C 34.832031 -36.765625 34.0625 -36.8125 33.3125 -36.8125 C 29.488281 -36.8125 26.410156 -35.851562 24.078125 -33.9375 C 21.742188 -32.03125 20.0625 -29.5625 19.03125 -26.53125 C 18.007812 -23.5 17.5 -20.347656 17.5 -17.078125 Z M 17.5 -17.078125 "/></g></g></g><g fill="#ffffff" fill-opacity="1"><g transform="translate(81.000002, 777.374981)"><g><path d="M 5.140625 -5.015625 L 2.890625 -5.015625 L 2.890625 0 L 1.34375 0 L 1.34375 -12.59375 L 5.640625 -12.59375 C 6.648438 -12.59375 7.484375 -12.40625 8.140625 -12.03125 C 8.796875 -11.664062 9.265625 -11.191406 9.546875 -10.609375 C 9.835938 -10.035156 9.984375 -9.429688 9.984375 -8.796875 C 9.984375 -7.921875 9.722656 -7.132812 9.203125 -6.4375 C 8.679688 -5.75 7.867188 -5.304688 6.765625 -5.109375 L 10.09375 0 L 8.390625 0 Z M 2.890625 -6.359375 L 5.4375 -6.359375 C 6.289062 -6.359375 7.007812 -6.539062 7.59375 -6.90625 C 8.1875 -7.28125 8.484375 -7.910156 8.484375 -8.796875 C 8.484375 -9.671875 8.1875 -10.289062 7.59375 -10.65625 C 7.007812 -11.019531 6.289062 -11.203125 5.4375 -11.203125 L 2.890625 -11.203125 Z M 2.890625 -6.359375 "/></g></g></g><g fill="#ffffff" fill-opacity="1"><g transform="translate(91.88997, 777.374981)"><g><path d="M 4.71875 0.015625 L 4.71875 -4.546875 L 0.609375 -12.59375 L 2.296875 -12.59375 L 5.4375 -6.296875 L 5.5625 -6.296875 L 8.671875 -12.59375 L 10.375 -12.59375 L 6.28125 -4.546875 L 6.28125 0 Z M 4.71875 0.015625 "/></g></g></g><g fill="#ffffff" fill-opacity="1"><g transform="translate(102.941941, 777.374981)"><g><path d="M 8.6875 -3.671875 L 3.5625 -3.671875 L 2.234375 0 L 0.640625 0 L 5.375 -12.59375 L 6.859375 -12.59375 L 11.625 0 L 10.046875 0 Z M 8.25 -4.90625 L 6.140625 -10.625 L 6.0625 -10.625 L 4.015625 -4.90625 Z M 8.25 -4.90625 "/></g></g></g><g fill="#ffffff" fill-opacity="1"><g transform="translate(115.1819, 777.374981)"><g><path d="M 1.34375 -12.59375 L 3.09375 -12.59375 L 9.84375 -2.484375 L 9.921875 -2.484375 L 9.921875 -12.59375 L 11.453125 -12.59375 L 11.453125 0 L 9.6875 0 L 2.953125 -9.96875 L 2.875 -9.96875 L 2.875 0 L 1.34375 0 Z M 1.34375 -12.59375 "/></g></g></g><g fill="#ffffff" fill-opacity="1"><g transform="translate(127.979862, 777.374981)"><g/></g></g><g fill="#ffffff" fill-opacity="1"><g transform="translate(132.119854, 777.374981)"><g><path d="M 1.40625 -12.59375 L 2.96875 -12.59375 L 2.96875 0 L 1.40625 0 Z M 1.40625 -12.59375 "/></g></g></g><g fill="#ffffff" fill-opacity="1"><g transform="translate(136.493843, 777.374981)"><g><path d="M 1.34375 -12.59375 L 6.390625 -12.59375 C 7.234375 -12.59375 7.921875 -12.429688 8.453125 -12.109375 C 8.984375 -11.785156 9.363281 -11.378906 9.59375 -10.890625 C 9.820312 -10.410156 9.9375 -9.910156 9.9375 -9.390625 C 9.9375 -8.859375 9.820312 -8.390625 9.59375 -7.984375 C 9.363281 -7.585938 9.085938 -7.28125 8.765625 -7.0625 C 8.441406 -6.851562 8.132812 -6.71875 7.84375 -6.65625 L 7.84375 -6.546875 C 8.15625 -6.523438 8.519531 -6.414062 8.9375 -6.21875 C 9.351562 -6.019531 9.71875 -5.703125 10.03125 -5.265625 C 10.351562 -4.828125 10.515625 -4.269531 10.515625 -3.59375 C 10.515625 -3 10.378906 -2.425781 10.109375 -1.875 C 9.835938 -1.332031 9.410156 -0.882812 8.828125 -0.53125 C 8.253906 -0.175781 7.535156 0 6.671875 0 L 1.34375 0 Z M 5.9375 -7.078125 C 6.625 -7.078125 7.210938 -7.253906 7.703125 -7.609375 C 8.191406 -7.960938 8.4375 -8.507812 8.4375 -9.25 C 8.4375 -9.957031 8.195312 -10.472656 7.71875 -10.796875 C 7.25 -11.117188 6.65625 -11.28125 5.9375 -11.28125 L 2.859375 -11.28125 L 2.859375 -7.078125 Z M 6.28125 -1.3125 C 7.0625 -1.3125 7.707031 -1.488281 8.21875 -1.84375 C 8.738281 -2.207031 9 -2.800781 9 -3.625 C 9 -4.425781 8.738281 -4.992188 8.21875 -5.328125 C 7.707031 -5.671875 7.0625 -5.84375 6.28125 -5.84375 L 2.859375 -5.84375 L 2.859375 -1.3125 Z M 6.28125 -1.3125 "/></g></g></g><g fill="#ffffff" fill-opacity="1"><g transform="translate(147.725806, 777.374981)"><g><path d="M 5.140625 -5.015625 L 2.890625 -5.015625 L 2.890625 0 L 1.34375 0 L 1.34375 -12.59375 L 5.640625 -12.59375 C 6.648438 -12.59375 7.484375 -12.40625 8.140625 -12.03125 C 8.796875 -11.664062 9.265625 -11.191406 9.546875 -10.609375 C 9.835938 -10.035156 9.984375 -9.429688 9.984375 -8.796875 C 9.984375 -7.921875 9.722656 -7.132812 9.203125 -6.4375 C 8.679688 -5.75 7.867188 -5.304688 6.765625 -5.109375 L 10.09375 0 L 8.390625 0 Z M 2.890625 -6.359375 L 5.4375 -6.359375 C 6.289062 -6.359375 7.007812 -6.539062 7.59375 -6.90625 C 8.1875 -7.28125 8.484375 -7.910156 8.484375 -8.796875 C 8.484375 -9.671875 8.1875 -10.289062 7.59375 -10.65625 C 7.007812 -11.019531 6.289062 -11.203125 5.4375 -11.203125 L 2.890625 -11.203125 Z M 2.890625 -6.359375 "/></g></g></g><g fill="#ffffff" fill-opacity="1"><g transform="translate(158.615775, 777.374981)"><g><path d="M 8.6875 -3.671875 L 3.5625 -3.671875 L 2.234375 0 L 0.640625 0 L 5.375 -12.59375 L 6.859375 -12.59375 L 11.625 0 L 10.046875 0 Z M 8.25 -4.90625 L 6.140625 -10.625 L 6.0625 -10.625 L 4.015625 -4.90625 Z M 8.25 -4.90625 "/></g></g></g><g fill="#ffffff" fill-opacity="1"><g transform="translate(170.855734, 777.374981)"><g><path d="M 10.875 -12.59375 L 10.875 0 L 9.3125 0 L 9.3125 -5.703125 L 2.890625 -5.703125 L 2.890625 0 L 1.34375 0 L 1.34375 -12.59375 L 2.890625 -12.59375 L 2.890625 -6.96875 L 9.3125 -6.96875 L 9.3125 -12.59375 Z M 10.875 -12.59375 "/></g></g></g><g fill="#ffffff" fill-opacity="1"><g transform="translate(183.077703, 777.374981)"><g><path d="M 1.40625 -12.59375 L 2.96875 -12.59375 L 2.96875 0 L 1.40625 0 Z M 1.40625 -12.59375 "/></g></g></g><g fill="#ffffff" fill-opacity="1"><g transform="translate(187.451692, 777.374981)"><g><path d="M 1.34375 -12.59375 L 3.640625 -12.59375 L 7.375 -2.953125 L 7.4375 -2.953125 L 11.171875 -12.59375 L 13.46875 -12.59375 L 13.46875 0 L 11.9375 0 L 11.9375 -10.203125 L 11.859375 -10.203125 L 7.953125 0 L 6.84375 0 L 2.953125 -10.203125 L 2.875 -10.203125 L 2.875 0 L 1.34375 0 Z M 1.34375 -12.59375 "/></g></g></g></svg>