<svg xmlns="http://www.w3.org/2000/svg" xmlns:xlink="http://www.w3.org/1999/xlink" width="1920" zoomAndPan="magnify" viewBox="0 0 1440 809.999993" height="1080" preserveAspectRatio="xMidYMid meet" version="1.0"><defs><g/></defs><rect x="-144" width="1728" fill="#ffffff" y="-80.999999" height="971.999992" fill-opacity="1"/><rect x="-144" width="1728" fill="#faf4eb" y="-80.999999" height="971.999992" fill-opacity="1"/><path fill="#2d3e70" d="M 0 729 L 1439.964844 729 L 1439.964844 810 L 0 810 Z M 0 729 " fill-opacity="1" fill-rule="nonzero"/><g fill="#2d3e70" fill-opacity="1"><g transform="translate(293.578116, 383.662311)"><g><path d="M 47.738281 1.960938 C 33.457031 1.960938 22.328125 -2.007812 14.347656 -9.941406 C 6.371094 -17.871094 2.378906 -29.027344 2.378906 -43.398438 C 2.378906 -53.105469 4.175781 -61.621094 7.769531 -68.949219 C 11.363281 -76.273438 16.589844 -81.96875 23.449219 -86.027344 C 30.308594 -90.085938 38.636719 -92.117188 48.4375 -92.117188 C 53.199219 -92.117188 58.074219 -91.511719 63.066406 -90.296875 C 68.0625 -89.082031 72.238281 -86.75 75.597656 -83.296875 C 75.597656 -83.296875 75.691406 -83.203125 75.878906 -83.015625 C 76.0625 -82.832031 76.203125 -82.644531 76.296875 -82.457031 C 76.484375 -82.363281 76.601562 -82.269531 76.648438 -82.175781 C 76.695312 -82.082031 76.765625 -81.992188 76.855469 -81.898438 L 78.957031 -64.816406 L 76.71875 -64.816406 C 76.34375 -66.03125 75.832031 -67.222656 75.175781 -68.386719 C 74.523438 -69.554688 73.871094 -70.605469 73.21875 -71.539062 C 71.445312 -74.617188 69.296875 -77.535156 66.777344 -80.289062 C 64.257812 -83.039062 61.386719 -85.304688 58.167969 -87.078125 C 54.949219 -88.851562 51.378906 -89.738281 47.457031 -89.738281 C 43.164062 -89.738281 39.386719 -88.757812 36.117188 -86.796875 C 32.851562 -84.835938 30.027344 -82.222656 27.648438 -78.957031 C 25.269531 -75.691406 23.355469 -72.097656 21.910156 -68.175781 C 20.460938 -64.257812 19.390625 -60.316406 18.6875 -56.347656 C 17.988281 -52.382812 17.640625 -48.71875 17.640625 -45.359375 C 17.640625 -40.132812 18.175781 -34.90625 19.25 -29.679688 C 20.324219 -24.453125 22.140625 -19.691406 24.710938 -15.398438 C 27.277344 -11.105469 30.683594 -7.652344 34.929688 -5.039062 C 39.175781 -2.425781 44.425781 -1.121094 50.679688 -1.121094 C 52.824219 -1.121094 55.179688 -1.304688 57.746094 -1.679688 C 60.316406 -2.054688 62.671875 -2.613281 64.816406 -3.359375 L 65.519531 -3.640625 L 65.519531 -30.238281 C 65.519531 -33.039062 64.632812 -34.976562 62.859375 -36.046875 C 61.085938 -37.121094 59.125 -37.707031 56.976562 -37.796875 L 56.976562 -40.179688 L 87.917969 -40.179688 L 87.917969 -37.796875 C 85.769531 -37.796875 83.902344 -37.191406 82.316406 -35.980469 C 80.730469 -34.765625 79.9375 -32.804688 79.9375 -30.097656 L 79.9375 -9.101562 C 75.550781 -4.898438 70.605469 -2.007812 65.097656 -0.421875 C 59.589844 1.167969 53.804688 1.960938 47.738281 1.960938 Z M 47.738281 1.960938 "/></g></g></g><g fill="#2d3e70" fill-opacity="1"><g transform="translate(383.313101, 383.662311)"><g><path d="M 3.5 -32.058594 C 3.5 -38.125 4.597656 -43.726562 6.789062 -48.859375 C 8.984375 -53.992188 12.226562 -58.121094 16.519531 -61.246094 C 20.8125 -64.375 26.132812 -65.9375 32.480469 -65.9375 C 37.984375 -65.9375 42.675781 -64.699219 46.546875 -62.226562 C 50.421875 -59.753906 53.382812 -56.371094 55.4375 -52.078125 C 57.492188 -47.785156 58.519531 -42.976562 58.519531 -37.660156 L 58.519531 -37.238281 L 18.621094 -37.238281 L 18.621094 -35.277344 C 18.621094 -32.292969 18.992188 -29.210938 19.738281 -26.039062 C 20.484375 -22.867188 21.652344 -19.902344 23.238281 -17.148438 C 24.824219 -14.394531 26.902344 -12.15625 29.46875 -10.429688 C 32.035156 -8.703125 35.183594 -7.839844 38.917969 -7.839844 C 42.371094 -7.839844 45.753906 -8.65625 49.066406 -10.289062 C 52.382812 -11.921875 55.066406 -14.140625 57.117188 -16.9375 L 58.378906 -16.097656 C 55.578125 -10.6875 52.335938 -6.417969 48.648438 -3.289062 C 44.960938 -0.164062 39.804688 1.398438 33.179688 1.398438 C 26.738281 1.398438 21.324219 -0.09375 16.9375 -3.078125 C 12.554688 -6.066406 9.214844 -10.101562 6.929688 -15.191406 C 4.644531 -20.277344 3.5 -25.898438 3.5 -32.058594 Z M 18.898438 -40.457031 L 18.898438 -39.480469 L 43.539062 -39.480469 L 43.539062 -40.457031 C 43.445312 -42.136719 43.1875 -44.261719 42.769531 -46.828125 C 42.347656 -49.394531 41.695312 -51.984375 40.808594 -54.597656 C 39.921875 -57.210938 38.730469 -59.40625 37.238281 -61.179688 C 35.746094 -62.949219 33.925781 -63.835938 31.777344 -63.835938 C 29.539062 -63.835938 27.648438 -62.949219 26.109375 -61.179688 C 24.570312 -59.40625 23.285156 -57.234375 22.257812 -54.667969 C 21.234375 -52.101562 20.460938 -49.511719 19.949219 -46.898438 C 19.4375 -44.285156 19.085938 -42.136719 18.898438 -40.457031 Z M 18.898438 -40.457031 "/></g></g></g><g fill="#2d3e70" fill-opacity="1"><g transform="translate(445.469622, 383.662311)"><g><path d="M 1.679688 -57.539062 L 22.820312 -64.257812 L 22.820312 -54.316406 L 24.640625 -57.398438 C 26.414062 -60.292969 28.769531 -62.460938 31.707031 -63.90625 C 34.648438 -65.355469 37.84375 -66.078125 41.296875 -66.078125 C 44.003906 -66.078125 46.59375 -65.585938 49.066406 -64.609375 C 51.542969 -63.628906 53.476562 -61.925781 54.878906 -59.496094 C 55.34375 -58.75 55.71875 -57.957031 55.996094 -57.117188 C 56.277344 -56.277344 56.417969 -55.4375 56.417969 -54.597656 C 56.417969 -52.730469 55.695312 -51.238281 54.25 -50.117188 C 52.800781 -49 51.144531 -48.4375 49.277344 -48.4375 C 48.25 -48.4375 47.386719 -48.578125 46.6875 -48.859375 C 45.988281 -49.136719 45.40625 -49.464844 44.9375 -49.839844 C 44.378906 -50.304688 43.863281 -50.816406 43.398438 -51.378906 C 43.210938 -51.65625 42.976562 -51.960938 42.699219 -52.289062 C 42.417969 -52.613281 42.183594 -52.917969 42 -53.199219 C 41.066406 -54.503906 39.96875 -55.765625 38.707031 -56.976562 C 37.449219 -58.191406 35.511719 -58.796875 32.898438 -58.796875 C 29.726562 -58.796875 27.253906 -57.609375 25.480469 -55.226562 C 23.707031 -52.847656 22.820312 -50.210938 22.820312 -47.316406 L 22.820312 -9.941406 C 22.820312 -4.992188 25.011719 -2.472656 29.398438 -2.378906 L 29.398438 0 L 1.679688 0 L 1.679688 -2.378906 C 6.160156 -2.472656 8.398438 -4.992188 8.398438 -9.941406 L 8.398438 -47.316406 C 8.398438 -52.171875 6.160156 -54.738281 1.679688 -55.019531 Z M 1.679688 -57.539062 "/></g></g></g><g fill="#2d3e70" fill-opacity="1"><g transform="translate(502.166454, 383.662311)"><g><path d="M -0.421875 -90.996094 L 20.71875 -97.578125 L 20.71875 -54.738281 L 22.539062 -57.957031 C 24.125 -60.757812 26.480469 -62.789062 29.609375 -64.046875 C 32.734375 -65.308594 35.886719 -65.9375 39.058594 -65.9375 C 45.21875 -65.9375 50.046875 -64.398438 53.546875 -61.316406 C 57.046875 -58.238281 59.542969 -54.25 61.039062 -49.347656 C 62.53125 -44.449219 63.277344 -39.199219 63.277344 -33.597656 C 63.277344 -27.253906 62.34375 -21.535156 60.476562 -16.449219 C 58.609375 -11.363281 55.648438 -7.351562 51.589844 -4.410156 C 47.527344 -1.46875 42.09375 0 35.277344 0 C 31.824219 0 28.652344 -0.464844 25.757812 -1.398438 C 22.867188 -2.332031 19.925781 -3.6875 16.9375 -5.460938 L 16.378906 -5.738281 L 6.300781 0.28125 L 6.300781 -80.777344 C 6.300781 -85.628906 4.058594 -88.195312 -0.421875 -88.476562 Z M 20.71875 -51.519531 L 20.71875 -11.058594 C 20.71875 -10.59375 20.8125 -10.171875 21 -9.800781 C 22.027344 -7.746094 23.378906 -6.042969 25.058594 -4.691406 C 26.738281 -3.335938 28.792969 -2.660156 31.21875 -2.660156 C 34.671875 -2.660156 37.496094 -3.898438 39.6875 -6.371094 C 41.882812 -8.84375 43.585938 -11.898438 44.796875 -15.539062 C 46.011719 -19.179688 46.851562 -22.890625 47.316406 -26.667969 C 47.785156 -30.449219 48.019531 -33.597656 48.019531 -36.117188 C 48.019531 -38.265625 47.855469 -40.785156 47.527344 -43.679688 C 47.203125 -46.570312 46.523438 -49.394531 45.5 -52.148438 C 44.472656 -54.902344 43 -57.210938 41.089844 -59.078125 C 39.175781 -60.945312 36.632812 -61.878906 33.457031 -61.878906 C 31.03125 -61.878906 28.863281 -61.15625 26.949219 -59.707031 C 25.035156 -58.261719 23.472656 -56.605469 22.257812 -54.738281 C 22.257812 -54.738281 22.164062 -54.597656 21.980469 -54.316406 C 21.792969 -54.039062 21.605469 -53.757812 21.417969 -53.476562 C 21.324219 -53.199219 21.1875 -52.871094 21 -52.5 C 20.90625 -52.40625 20.859375 -52.335938 20.859375 -52.289062 C 20.859375 -52.242188 20.859375 -52.21875 20.859375 -52.21875 C 20.765625 -52.03125 20.71875 -51.796875 20.71875 -51.519531 Z M 20.71875 -51.519531 "/></g></g></g><g fill="#2d3e70" fill-opacity="1"><g transform="translate(568.382744, 383.662311)"><g><path d="M 24.078125 1.261719 C 20.160156 1.261719 16.566406 0.558594 13.300781 -0.839844 C 10.03125 -2.238281 7.394531 -4.363281 5.390625 -7.210938 C 3.382812 -10.054688 2.378906 -13.53125 2.378906 -17.640625 C 2.378906 -22.492188 3.5 -26.574219 5.738281 -29.890625 C 7.980469 -33.203125 11.011719 -35.722656 14.839844 -37.449219 C 18.664062 -39.175781 22.867188 -40.039062 27.4375 -40.039062 C 29.117188 -40.039062 30.777344 -39.921875 32.410156 -39.6875 C 34.042969 -39.457031 35.605469 -39.011719 37.097656 -38.359375 L 38.5 -37.796875 L 38.5 -48.019531 C 38.5 -49.417969 38.453125 -51.097656 38.359375 -53.058594 C 38.265625 -55.019531 37.984375 -56.605469 37.519531 -57.816406 C 37.050781 -59.496094 36.234375 -60.921875 35.070312 -62.085938 C 33.902344 -63.253906 32.199219 -63.835938 29.957031 -63.835938 C 27.160156 -63.835938 25.058594 -63.042969 23.660156 -61.457031 C 22.257812 -59.871094 21.347656 -57.957031 20.929688 -55.71875 C 20.507812 -53.476562 20.300781 -51.378906 20.300781 -49.417969 C 20.300781 -47.925781 19.484375 -46.804688 17.847656 -46.058594 C 16.214844 -45.3125 14.558594 -44.9375 12.878906 -44.9375 C 11.292969 -44.9375 9.730469 -45.289062 8.191406 -45.988281 C 6.648438 -46.6875 5.878906 -47.785156 5.878906 -49.277344 C 5.878906 -53.476562 7.140625 -56.792969 9.660156 -59.21875 C 12.179688 -61.644531 15.328125 -63.371094 19.109375 -64.398438 C 22.890625 -65.425781 26.597656 -65.9375 30.238281 -65.9375 C 37.050781 -65.9375 42.535156 -64.351562 46.6875 -61.179688 C 50.839844 -58.003906 52.917969 -52.917969 52.917969 -45.917969 L 52.917969 -10.5 C 52.917969 -10.21875 52.917969 -9.964844 52.917969 -9.730469 C 52.917969 -9.496094 52.917969 -9.238281 52.917969 -8.960938 C 52.917969 -8.679688 52.941406 -8.375 52.988281 -8.050781 C 53.035156 -7.722656 53.105469 -7.417969 53.199219 -7.140625 C 53.382812 -6.578125 53.6875 -6.042969 54.109375 -5.53125 C 54.527344 -5.015625 55.203125 -4.761719 56.136719 -4.761719 C 57.164062 -4.761719 58.144531 -5.085938 59.078125 -5.738281 L 60.199219 -4.339844 C 58.703125 -2.566406 56.90625 -1.285156 54.808594 -0.488281 C 52.707031 0.304688 50.445312 0.699219 48.019531 0.699219 C 46.246094 0.699219 44.636719 0.328125 43.1875 -0.421875 C 41.742188 -1.167969 40.597656 -2.285156 39.757812 -3.78125 L 39.199219 -4.898438 L 38.21875 -4.058594 C 36.351562 -2.101562 34.207031 -0.722656 31.777344 0.0703125 C 29.351562 0.863281 26.785156 1.261719 24.078125 1.261719 Z M 17.5 -17.078125 C 17.5 -14.933594 17.78125 -12.644531 18.339844 -10.21875 C 18.898438 -7.792969 19.949219 -5.738281 21.488281 -4.058594 C 23.027344 -2.378906 25.292969 -1.539062 28.277344 -1.539062 C 29.679688 -1.539062 31.171875 -1.890625 32.757812 -2.589844 C 34.34375 -3.289062 35.699219 -4.292969 36.820312 -5.601562 C 37.9375 -6.90625 38.5 -8.398438 38.5 -10.078125 L 38.5 -35.839844 L 37.796875 -36.117188 C 37.144531 -36.398438 36.421875 -36.585938 35.628906 -36.679688 C 34.835938 -36.773438 34.066406 -36.820312 33.320312 -36.820312 C 29.492188 -36.820312 26.414062 -35.863281 24.078125 -33.949219 C 21.746094 -32.035156 20.066406 -29.5625 19.039062 -26.527344 C 18.011719 -23.496094 17.5 -20.347656 17.5 -17.078125 Z M 17.5 -17.078125 "/></g></g></g><g fill="#2d3e70" fill-opacity="1"><g transform="translate(629.839322, 383.662311)"><g><path d="M 1.121094 -57.539062 L 22.257812 -64.257812 L 22.257812 -55.71875 L 23.9375 -58.238281 C 26.085938 -61.222656 28.792969 -63.253906 32.058594 -64.328125 C 35.324219 -65.402344 38.683594 -65.9375 42.136719 -65.9375 C 48.203125 -65.9375 53.152344 -64.46875 56.976562 -61.527344 C 60.804688 -58.589844 62.71875 -53.945312 62.71875 -47.597656 L 62.71875 -9.941406 C 62.71875 -7.417969 63.230469 -5.554688 64.257812 -4.339844 C 65.285156 -3.125 66.964844 -2.472656 69.296875 -2.378906 L 69.296875 0 L 41.578125 0 L 41.578125 -2.378906 C 46.058594 -2.472656 48.296875 -4.992188 48.296875 -9.941406 L 48.296875 -47.316406 C 48.296875 -49.746094 47.855469 -52.101562 46.96875 -54.386719 C 46.082031 -56.675781 44.75 -58.589844 42.976562 -60.128906 C 41.207031 -61.667969 38.871094 -62.4375 35.980469 -62.4375 C 33.550781 -62.4375 31.289062 -61.644531 29.1875 -60.058594 C 27.089844 -58.472656 25.410156 -56.511719 24.148438 -54.179688 C 22.890625 -51.84375 22.257812 -49.558594 22.257812 -47.316406 L 22.257812 -9.941406 C 22.257812 -4.992188 24.453125 -2.472656 28.839844 -2.378906 L 28.839844 0 L 1.121094 0 L 1.121094 -2.378906 C 5.601562 -2.472656 7.839844 -4.992188 7.839844 -9.941406 L 7.839844 -47.316406 C 7.839844 -52.171875 5.601562 -54.738281 1.121094 -55.019531 Z M 1.121094 -57.539062 "/></g></g></g><g fill="#2d3e70" fill-opacity="1"><g transform="translate(699.275452, 383.662311)"><g><path d="M -1.121094 21.417969 C -1.121094 18.898438 -0.398438 16.707031 1.050781 14.839844 C 2.496094 12.972656 4.363281 11.433594 6.648438 10.21875 C 8.9375 9.007812 11.246094 8.167969 13.578125 7.699219 L 17.078125 7 L 13.71875 5.738281 C 10.640625 4.621094 8.144531 3.078125 6.230469 1.121094 C 4.316406 -0.839844 3.359375 -3.5 3.359375 -6.859375 C 3.359375 -9.285156 4.175781 -11.433594 5.808594 -13.300781 C 7.441406 -15.167969 9.378906 -16.425781 11.621094 -17.078125 L 13.300781 -17.640625 L 12.039062 -18.757812 C 9.144531 -21.371094 7 -24.476562 5.601562 -28.070312 C 4.199219 -31.664062 3.5 -35.417969 3.5 -39.339844 C 3.5 -44.75 4.644531 -49.441406 6.929688 -53.40625 C 9.214844 -57.375 12.414062 -60.453125 16.519531 -62.648438 C 20.625 -64.839844 25.292969 -65.9375 30.519531 -65.9375 C 34.625 -65.9375 38.546875 -65.238281 42.277344 -63.835938 L 43.539062 -63.277344 L 43.539062 -64.675781 C 43.820312 -67.570312 44.496094 -70.417969 45.570312 -73.21875 C 46.640625 -76.015625 48.203125 -78.351562 50.257812 -80.21875 C 52.3125 -82.082031 54.832031 -83.015625 57.816406 -83.015625 C 59.964844 -83.015625 61.691406 -82.386719 62.996094 -81.128906 C 64.304688 -79.867188 64.957031 -78.164062 64.957031 -76.015625 C 64.957031 -74.058594 64.375 -72.402344 63.207031 -71.046875 C 62.042969 -69.695312 60.476562 -69.015625 58.519531 -69.015625 C 58.144531 -69.015625 57.746094 -69.039062 57.328125 -69.085938 C 56.90625 -69.132812 56.464844 -69.15625 55.996094 -69.15625 C 53.664062 -69.15625 51.703125 -68.503906 50.117188 -67.199219 C 48.53125 -65.890625 47.410156 -64.164062 46.757812 -62.019531 L 46.476562 -61.316406 L 47.039062 -60.898438 C 50.585938 -58.378906 53.152344 -55.226562 54.738281 -51.449219 C 56.324219 -47.667969 57.117188 -43.632812 57.117188 -39.339844 C 57.117188 -31.125 54.714844 -24.59375 49.910156 -19.738281 C 45.101562 -14.886719 38.636719 -12.460938 30.519531 -12.460938 C 27.8125 -12.460938 25.128906 -12.785156 22.46875 -13.441406 C 19.808594 -14.09375 17.3125 -15.121094 14.980469 -16.519531 L 14.558594 -16.800781 L 14 -16.660156 C 13.253906 -16.285156 12.53125 -15.703125 11.828125 -14.910156 C 11.128906 -14.117188 10.78125 -13.160156 10.78125 -12.039062 C 10.78125 -11.199219 11.011719 -10.476562 11.480469 -9.871094 C 11.945312 -9.261719 12.507812 -8.726562 13.160156 -8.257812 C 13.8125 -7.792969 14.558594 -7.394531 15.398438 -7.070312 C 16.238281 -6.742188 17.078125 -6.441406 17.917969 -6.160156 C 19.691406 -5.691406 21.441406 -5.34375 23.167969 -5.109375 C 24.894531 -4.875 26.179688 -4.667969 27.019531 -4.480469 C 28.324219 -4.292969 29.632812 -4.105469 30.9375 -3.917969 C 32.246094 -3.734375 33.550781 -3.546875 34.859375 -3.359375 C 37.472656 -2.988281 40.179688 -2.449219 42.976562 -1.75 C 45.777344 -1.050781 48.390625 -0.046875 50.816406 1.261719 C 53.246094 2.566406 55.226562 4.292969 56.769531 6.441406 C 58.308594 8.585938 59.078125 11.292969 59.078125 14.558594 C 59.078125 17.078125 58.449219 19.507812 57.1875 21.839844 C 55.929688 24.171875 54.363281 26.226562 52.5 28 C 50.257812 30.144531 47.527344 31.824219 44.308594 33.039062 C 41.089844 34.253906 37.753906 35.09375 34.296875 35.558594 C 30.84375 36.023438 27.53125 36.257812 24.359375 36.257812 C 21.933594 36.257812 19.25 36.023438 16.308594 35.558594 C 13.371094 35.09375 10.570312 34.296875 7.910156 33.179688 C 5.25 32.058594 3.078125 30.542969 1.398438 28.628906 C -0.28125 26.714844 -1.121094 24.3125 -1.121094 21.417969 Z M 30.238281 -64.398438 C 27.4375 -64.398438 25.269531 -63.488281 23.730469 -61.667969 C 22.1875 -59.847656 21.070312 -57.5625 20.371094 -54.808594 C 19.667969 -52.054688 19.25 -49.277344 19.109375 -46.476562 C 18.96875 -43.679688 18.898438 -41.296875 18.898438 -39.339844 C 18.898438 -37.378906 18.992188 -34.976562 19.179688 -32.128906 C 19.367188 -29.28125 19.808594 -26.480469 20.507812 -23.730469 C 21.210938 -20.976562 22.351562 -18.664062 23.9375 -16.800781 C 25.527344 -14.933594 27.71875 -14 30.519531 -14 C 33.320312 -14 35.488281 -14.933594 37.027344 -16.800781 C 38.570312 -18.664062 39.6875 -20.976562 40.386719 -23.730469 C 41.089844 -26.480469 41.507812 -29.28125 41.648438 -32.128906 C 41.789062 -34.976562 41.859375 -37.378906 41.859375 -39.339844 C 41.859375 -41.296875 41.765625 -43.703125 41.578125 -46.546875 C 41.390625 -49.394531 40.949219 -52.171875 40.25 -54.878906 C 39.546875 -57.585938 38.40625 -59.847656 36.820312 -61.667969 C 35.230469 -63.488281 33.039062 -64.398438 30.238281 -64.398438 Z M 19.460938 7.839844 C 16.566406 8.867188 14.164062 10.617188 12.25 13.089844 C 10.335938 15.5625 9.378906 18.433594 9.378906 21.699219 C 9.378906 24.871094 10.3125 27.34375 12.179688 29.117188 C 14.046875 30.890625 16.285156 32.152344 18.898438 32.898438 C 21.511719 33.644531 23.984375 34.019531 26.320312 34.019531 C 29.027344 34.019531 31.730469 33.550781 34.4375 32.617188 C 37.144531 31.683594 39.410156 30.191406 41.230469 28.140625 C 43.046875 26.085938 43.957031 23.378906 43.957031 20.019531 C 43.957031 17.964844 43.375 16.332031 42.207031 15.121094 C 41.042969 13.90625 39.59375 12.925781 37.867188 12.179688 C 36.140625 11.433594 34.4375 10.871094 32.757812 10.5 C 31.917969 10.3125 31.125 10.125 30.378906 9.941406 C 29.632812 9.753906 28.933594 9.613281 28.277344 9.519531 C 26.972656 9.238281 25.617188 8.960938 24.21875 8.679688 C 22.820312 8.398438 21.417969 8.074219 20.019531 7.699219 L 19.738281 7.699219 Z M 19.460938 7.839844 "/></g></g></g><g fill="#2d3e70" fill-opacity="1"><g transform="translate(759.752073, 383.662311)"><g/></g></g><g fill="#2d3e70" fill-opacity="1"><g transform="translate(786.910549, 383.662311)"><g><path d="M 0.980469 -90.714844 L 31.5 -90.714844 L 31.5 -88.476562 C 29.351562 -88.382812 27.484375 -87.753906 25.898438 -86.585938 C 24.3125 -85.421875 23.519531 -83.484375 23.519531 -80.777344 L 23.800781 -2.238281 L 35.839844 -2.238281 C 40.226562 -2.238281 44.589844 -2.847656 48.929688 -4.058594 C 53.269531 -5.273438 57.234375 -7.1875 60.828125 -9.800781 C 64.421875 -12.414062 67.246094 -15.867188 69.296875 -20.160156 L 71.539062 -20.019531 L 66.078125 0 L 0.980469 0 L 0.980469 -2.378906 C 3.125 -2.472656 5.015625 -3.078125 6.648438 -4.199219 C 8.28125 -5.320312 9.101562 -7.234375 9.101562 -9.941406 L 9.101562 -80.777344 C 9.101562 -83.484375 8.28125 -85.421875 6.648438 -86.585938 C 5.015625 -87.753906 3.125 -88.382812 0.980469 -88.476562 Z M 0.980469 -90.714844 "/></g></g></g><g fill="#2d3e70" fill-opacity="1"><g transform="translate(859.006493, 383.662311)"><g><path d="M 33.320312 1.398438 C 26.597656 1.398438 21.023438 -0.0703125 16.589844 -3.011719 C 12.15625 -5.949219 8.84375 -9.984375 6.648438 -15.121094 C 4.457031 -20.253906 3.359375 -26.085938 3.359375 -32.617188 C 3.359375 -39.152344 4.457031 -44.914062 6.648438 -49.910156 C 8.84375 -54.902344 12.15625 -58.820312 16.589844 -61.667969 C 21.023438 -64.515625 26.597656 -65.9375 33.320312 -65.9375 C 43.492188 -65.9375 51.050781 -62.859375 55.996094 -56.699219 C 60.945312 -50.539062 63.417969 -42.511719 63.417969 -32.617188 C 63.417969 -26.085938 62.320312 -20.253906 60.128906 -15.121094 C 57.933594 -9.984375 54.621094 -5.949219 50.1875 -3.011719 C 45.753906 -0.0703125 40.132812 1.398438 33.320312 1.398438 Z M 18.621094 -32.617188 C 18.621094 -30.191406 18.757812 -27.183594 19.039062 -23.589844 C 19.320312 -19.996094 19.925781 -16.425781 20.859375 -12.878906 C 21.792969 -9.332031 23.261719 -6.371094 25.269531 -3.988281 C 27.277344 -1.609375 29.957031 -0.421875 33.320312 -0.421875 C 36.773438 -0.421875 39.480469 -1.609375 41.4375 -3.988281 C 43.398438 -6.371094 44.867188 -9.332031 45.847656 -12.878906 C 46.828125 -16.425781 47.457031 -19.996094 47.738281 -23.589844 C 48.019531 -27.183594 48.160156 -30.191406 48.160156 -32.617188 C 48.160156 -35.140625 48.042969 -38.148438 47.808594 -41.648438 C 47.574219 -45.148438 46.96875 -48.625 45.988281 -52.078125 C 45.007812 -55.53125 43.539062 -58.402344 41.578125 -60.6875 C 39.617188 -62.972656 36.867188 -64.117188 33.320312 -64.117188 C 29.867188 -64.117188 27.160156 -62.972656 25.199219 -60.6875 C 23.238281 -58.402344 21.792969 -55.53125 20.859375 -52.078125 C 19.925781 -48.625 19.320312 -45.125 19.039062 -41.578125 C 18.757812 -38.03125 18.621094 -35.046875 18.621094 -32.617188 Z M 18.621094 -32.617188 "/></g></g></g><g fill="#2d3e70" fill-opacity="1"><g transform="translate(924.942815, 383.662311)"><g><path d="M -1.121094 21.417969 C -1.121094 18.898438 -0.398438 16.707031 1.050781 14.839844 C 2.496094 12.972656 4.363281 11.433594 6.648438 10.21875 C 8.9375 9.007812 11.246094 8.167969 13.578125 7.699219 L 17.078125 7 L 13.71875 5.738281 C 10.640625 4.621094 8.144531 3.078125 6.230469 1.121094 C 4.316406 -0.839844 3.359375 -3.5 3.359375 -6.859375 C 3.359375 -9.285156 4.175781 -11.433594 5.808594 -13.300781 C 7.441406 -15.167969 9.378906 -16.425781 11.621094 -17.078125 L 13.300781 -17.640625 L 12.039062 -18.757812 C 9.144531 -21.371094 7 -24.476562 5.601562 -28.070312 C 4.199219 -31.664062 3.5 -35.417969 3.5 -39.339844 C 3.5 -44.75 4.644531 -49.441406 6.929688 -53.40625 C 9.214844 -57.375 12.414062 -60.453125 16.519531 -62.648438 C 20.625 -64.839844 25.292969 -65.9375 30.519531 -65.9375 C 34.625 -65.9375 38.546875 -65.238281 42.277344 -63.835938 L 43.539062 -63.277344 L 43.539062 -64.675781 C 43.820312 -67.570312 44.496094 -70.417969 45.570312 -73.21875 C 46.640625 -76.015625 48.203125 -78.351562 50.257812 -80.21875 C 52.3125 -82.082031 54.832031 -83.015625 57.816406 -83.015625 C 59.964844 -83.015625 61.691406 -82.386719 62.996094 -81.128906 C 64.304688 -79.867188 64.957031 -78.164062 64.957031 -76.015625 C 64.957031 -74.058594 64.375 -72.402344 63.207031 -71.046875 C 62.042969 -69.695312 60.476562 -69.015625 58.519531 -69.015625 C 58.144531 -69.015625 57.746094 -69.039062 57.328125 -69.085938 C 56.90625 -69.132812 56.464844 -69.15625 55.996094 -69.15625 C 53.664062 -69.15625 51.703125 -68.503906 50.117188 -67.199219 C 48.53125 -65.890625 47.410156 -64.164062 46.757812 -62.019531 L 46.476562 -61.316406 L 47.039062 -60.898438 C 50.585938 -58.378906 53.152344 -55.226562 54.738281 -51.449219 C 56.324219 -47.667969 57.117188 -43.632812 57.117188 -39.339844 C 57.117188 -31.125 54.714844 -24.59375 49.910156 -19.738281 C 45.101562 -14.886719 38.636719 -12.460938 30.519531 -12.460938 C 27.8125 -12.460938 25.128906 -12.785156 22.46875 -13.441406 C 19.808594 -14.09375 17.3125 -15.121094 14.980469 -16.519531 L 14.558594 -16.800781 L 14 -16.660156 C 13.253906 -16.285156 12.53125 -15.703125 11.828125 -14.910156 C 11.128906 -14.117188 10.78125 -13.160156 10.78125 -12.039062 C 10.78125 -11.199219 11.011719 -10.476562 11.480469 -9.871094 C 11.945312 -9.261719 12.507812 -8.726562 13.160156 -8.257812 C 13.8125 -7.792969 14.558594 -7.394531 15.398438 -7.070312 C 16.238281 -6.742188 17.078125 -6.441406 17.917969 -6.160156 C 19.691406 -5.691406 21.441406 -5.34375 23.167969 -5.109375 C 24.894531 -4.875 26.179688 -4.667969 27.019531 -4.480469 C 28.324219 -4.292969 29.632812 -4.105469 30.9375 -3.917969 C 32.246094 -3.734375 33.550781 -3.546875 34.859375 -3.359375 C 37.472656 -2.988281 40.179688 -2.449219 42.976562 -1.75 C 45.777344 -1.050781 48.390625 -0.046875 50.816406 1.261719 C 53.246094 2.566406 55.226562 4.292969 56.769531 6.441406 C 58.308594 8.585938 59.078125 11.292969 59.078125 14.558594 C 59.078125 17.078125 58.449219 19.507812 57.1875 21.839844 C 55.929688 24.171875 54.363281 26.226562 52.5 28 C 50.257812 30.144531 47.527344 31.824219 44.308594 33.039062 C 41.089844 34.253906 37.753906 35.09375 34.296875 35.558594 C 30.84375 36.023438 27.53125 36.257812 24.359375 36.257812 C 21.933594 36.257812 19.25 36.023438 16.308594 35.558594 C 13.371094 35.09375 10.570312 34.296875 7.910156 33.179688 C 5.25 32.058594 3.078125 30.542969 1.398438 28.628906 C -0.28125 26.714844 -1.121094 24.3125 -1.121094 21.417969 Z M 30.238281 -64.398438 C 27.4375 -64.398438 25.269531 -63.488281 23.730469 -61.667969 C 22.1875 -59.847656 21.070312 -57.5625 20.371094 -54.808594 C 19.667969 -52.054688 19.25 -49.277344 19.109375 -46.476562 C 18.96875 -43.679688 18.898438 -41.296875 18.898438 -39.339844 C 18.898438 -37.378906 18.992188 -34.976562 19.179688 -32.128906 C 19.367188 -29.28125 19.808594 -26.480469 20.507812 -23.730469 C 21.210938 -20.976562 22.351562 -18.664062 23.9375 -16.800781 C 25.527344 -14.933594 27.71875 -14 30.519531 -14 C 33.320312 -14 35.488281 -14.933594 37.027344 -16.800781 C 38.570312 -18.664062 39.6875 -20.976562 40.386719 -23.730469 C 41.089844 -26.480469 41.507812 -29.28125 41.648438 -32.128906 C 41.789062 -34.976562 41.859375 -37.378906 41.859375 -39.339844 C 41.859375 -41.296875 41.765625 -43.703125 41.578125 -46.546875 C 41.390625 -49.394531 40.949219 -52.171875 40.25 -54.878906 C 39.546875 -57.585938 38.40625 -59.847656 36.820312 -61.667969 C 35.230469 -63.488281 33.039062 -64.398438 30.238281 -64.398438 Z M 19.460938 7.839844 C 16.566406 8.867188 14.164062 10.617188 12.25 13.089844 C 10.335938 15.5625 9.378906 18.433594 9.378906 21.699219 C 9.378906 24.871094 10.3125 27.34375 12.179688 29.117188 C 14.046875 30.890625 16.285156 32.152344 18.898438 32.898438 C 21.511719 33.644531 23.984375 34.019531 26.320312 34.019531 C 29.027344 34.019531 31.730469 33.550781 34.4375 32.617188 C 37.144531 31.683594 39.410156 30.191406 41.230469 28.140625 C 43.046875 26.085938 43.957031 23.378906 43.957031 20.019531 C 43.957031 17.964844 43.375 16.332031 42.207031 15.121094 C 41.042969 13.90625 39.59375 12.925781 37.867188 12.179688 C 36.140625 11.433594 34.4375 10.871094 32.757812 10.5 C 31.917969 10.3125 31.125 10.125 30.378906 9.941406 C 29.632812 9.753906 28.933594 9.613281 28.277344 9.519531 C 26.972656 9.238281 25.617188 8.960938 24.21875 8.679688 C 22.820312 8.398438 21.417969 8.074219 20.019531 7.699219 L 19.738281 7.699219 Z M 19.460938 7.839844 "/></g></g></g><g fill="#2d3e70" fill-opacity="1"><g transform="translate(985.419435, 383.662311)"><g><path d="M 1.539062 -57.539062 L 22.679688 -64.257812 L 22.679688 -9.941406 C 22.679688 -4.992188 24.871094 -2.472656 29.257812 -2.378906 L 29.257812 0 L 1.539062 0 L 1.539062 -2.378906 C 6.019531 -2.472656 8.257812 -4.992188 8.257812 -9.941406 L 8.257812 -47.316406 C 8.257812 -52.171875 6.019531 -54.738281 1.539062 -55.019531 Z M 3.5 -81.195312 C 3.5 -83.808594 4.433594 -86.050781 6.300781 -87.917969 C 8.167969 -89.785156 10.40625 -90.714844 13.019531 -90.714844 C 15.632812 -90.714844 17.894531 -89.785156 19.808594 -87.917969 C 21.722656 -86.050781 22.679688 -83.808594 22.679688 -81.195312 C 22.679688 -78.582031 21.699219 -76.296875 19.738281 -74.335938 C 17.78125 -72.378906 15.539062 -71.398438 13.019531 -71.398438 C 10.40625 -71.398438 8.167969 -72.378906 6.300781 -74.335938 C 4.433594 -76.296875 3.5 -78.582031 3.5 -81.195312 Z M 3.5 -81.195312 "/></g></g></g><g fill="#2d3e70" fill-opacity="1"><g transform="translate(1015.377731, 383.662311)"><g><path d="M 0.980469 -90.996094 L 22.121094 -97.578125 L 22.121094 -36.539062 L 25.480469 -36.539062 L 39.199219 -48.296875 C 39.945312 -48.953125 40.855469 -49.816406 41.929688 -50.886719 C 43 -51.960938 43.957031 -53.152344 44.796875 -54.457031 C 45.636719 -55.765625 46.058594 -57.023438 46.058594 -58.238281 C 46.058594 -59.542969 45.683594 -60.523438 44.9375 -61.179688 C 44.191406 -61.832031 43.398438 -62.296875 42.558594 -62.578125 L 42.558594 -65.097656 L 65.097656 -65.097656 L 65.097656 -62.71875 C 63.042969 -62.53125 60.734375 -61.644531 58.167969 -60.058594 C 55.601562 -58.472656 53.105469 -56.699219 50.679688 -54.738281 C 47.878906 -52.683594 45.242188 -50.5625 42.769531 -48.367188 C 40.296875 -46.175781 38.3125 -44.472656 36.820312 -43.257812 L 36.117188 -42.558594 L 59.777344 -9.378906 C 61.085938 -7.605469 62.507812 -6.042969 64.046875 -4.691406 C 65.585938 -3.335938 67.523438 -2.566406 69.859375 -2.378906 L 69.859375 0 L 39.199219 0 L 39.199219 -2.378906 C 40.039062 -2.378906 40.785156 -2.566406 41.4375 -2.941406 C 42 -3.21875 42.511719 -3.617188 42.976562 -4.128906 C 43.445312 -4.644531 43.679688 -5.320312 43.679688 -6.160156 C 43.679688 -6.625 43.585938 -7.070312 43.398438 -7.488281 C 43.210938 -7.910156 43.023438 -8.304688 42.839844 -8.679688 C 42.652344 -9.054688 42.441406 -9.378906 42.207031 -9.660156 C 41.976562 -9.941406 41.765625 -10.265625 41.578125 -10.640625 L 24.5 -34.296875 L 22.121094 -34.296875 L 22.121094 -9.941406 C 22.121094 -4.992188 24.3125 -2.472656 28.699219 -2.378906 L 28.699219 0 L 0.980469 0 L 0.980469 -2.378906 C 5.460938 -2.472656 7.699219 -4.992188 7.699219 -9.941406 L 7.699219 -80.777344 C 7.699219 -85.628906 5.460938 -88.195312 0.980469 -88.476562 Z M 0.980469 -90.996094 "/></g></g></g><g fill="#2d3e70" fill-opacity="1"><g transform="translate(1084.953869, 383.662311)"><g><path d="M 24.078125 1.261719 C 20.160156 1.261719 16.566406 0.558594 13.300781 -0.839844 C 10.03125 -2.238281 7.394531 -4.363281 5.390625 -7.210938 C 3.382812 -10.054688 2.378906 -13.53125 2.378906 -17.640625 C 2.378906 -22.492188 3.5 -26.574219 5.738281 -29.890625 C 7.980469 -33.203125 11.011719 -35.722656 14.839844 -37.449219 C 18.664062 -39.175781 22.867188 -40.039062 27.4375 -40.039062 C 29.117188 -40.039062 30.777344 -39.921875 32.410156 -39.6875 C 34.042969 -39.457031 35.605469 -39.011719 37.097656 -38.359375 L 38.5 -37.796875 L 38.5 -48.019531 C 38.5 -49.417969 38.453125 -51.097656 38.359375 -53.058594 C 38.265625 -55.019531 37.984375 -56.605469 37.519531 -57.816406 C 37.050781 -59.496094 36.234375 -60.921875 35.070312 -62.085938 C 33.902344 -63.253906 32.199219 -63.835938 29.957031 -63.835938 C 27.160156 -63.835938 25.058594 -63.042969 23.660156 -61.457031 C 22.257812 -59.871094 21.347656 -57.957031 20.929688 -55.71875 C 20.507812 -53.476562 20.300781 -51.378906 20.300781 -49.417969 C 20.300781 -47.925781 19.484375 -46.804688 17.847656 -46.058594 C 16.214844 -45.3125 14.558594 -44.9375 12.878906 -44.9375 C 11.292969 -44.9375 9.730469 -45.289062 8.191406 -45.988281 C 6.648438 -46.6875 5.878906 -47.785156 5.878906 -49.277344 C 5.878906 -53.476562 7.140625 -56.792969 9.660156 -59.21875 C 12.179688 -61.644531 15.328125 -63.371094 19.109375 -64.398438 C 22.890625 -65.425781 26.597656 -65.9375 30.238281 -65.9375 C 37.050781 -65.9375 42.535156 -64.351562 46.6875 -61.179688 C 50.839844 -58.003906 52.917969 -52.917969 52.917969 -45.917969 L 52.917969 -10.5 C 52.917969 -10.21875 52.917969 -9.964844 52.917969 -9.730469 C 52.917969 -9.496094 52.917969 -9.238281 52.917969 -8.960938 C 52.917969 -8.679688 52.941406 -8.375 52.988281 -8.050781 C 53.035156 -7.722656 53.105469 -7.417969 53.199219 -7.140625 C 53.382812 -6.578125 53.6875 -6.042969 54.109375 -5.53125 C 54.527344 -5.015625 55.203125 -4.761719 56.136719 -4.761719 C 57.164062 -4.761719 58.144531 -5.085938 59.078125 -5.738281 L 60.199219 -4.339844 C 58.703125 -2.566406 56.90625 -1.285156 54.808594 -0.488281 C 52.707031 0.304688 50.445312 0.699219 48.019531 0.699219 C 46.246094 0.699219 44.636719 0.328125 43.1875 -0.421875 C 41.742188 -1.167969 40.597656 -2.285156 39.757812 -3.78125 L 39.199219 -4.898438 L 38.21875 -4.058594 C 36.351562 -2.101562 34.207031 -0.722656 31.777344 0.0703125 C 29.351562 0.863281 26.785156 1.261719 24.078125 1.261719 Z M 17.5 -17.078125 C 17.5 -14.933594 17.78125 -12.644531 18.339844 -10.21875 C 18.898438 -7.792969 19.949219 -5.738281 21.488281 -4.058594 C 23.027344 -2.378906 25.292969 -1.539062 28.277344 -1.539062 C 29.679688 -1.539062 31.171875 -1.890625 32.757812 -2.589844 C 34.34375 -3.289062 35.699219 -4.292969 36.820312 -5.601562 C 37.9375 -6.90625 38.5 -8.398438 38.5 -10.078125 L 38.5 -35.839844 L 37.796875 -36.117188 C 37.144531 -36.398438 36.421875 -36.585938 35.628906 -36.679688 C 34.835938 -36.773438 34.066406 -36.820312 33.320312 -36.820312 C 29.492188 -36.820312 26.414062 -35.863281 24.078125 -33.949219 C 21.746094 -32.035156 20.066406 -29.5625 19.039062 -26.527344 C 18.011719 -23.496094 17.5 -20.347656 17.5 -17.078125 Z M 17.5 -17.078125 "/></g></g></g><g fill="#ffffff" fill-opacity="1"><g transform="translate(81.000002, 777.374981)"><g><path d="M 5.148438 -5.023438 L 2.898438 -5.023438 L 2.898438 0 L 1.351562 0 L 1.351562 -12.601562 L 5.632812 -12.601562 C 6.652344 -12.601562 7.492188 -12.414062 8.144531 -12.042969 C 8.800781 -11.671875 9.269531 -11.195312 9.558594 -10.621094 C 9.847656 -10.042969 9.988281 -9.4375 9.988281 -8.800781 C 9.988281 -7.925781 9.730469 -7.140625 9.207031 -6.445312 C 8.683594 -5.746094 7.871094 -5.304688 6.769531 -5.113281 L 10.097656 0 L 8.386719 0 Z M 2.898438 -6.355469 L 5.4375 -6.355469 C 6.289062 -6.355469 7.007812 -6.539062 7.597656 -6.910156 C 8.183594 -7.285156 8.476562 -7.914062 8.476562 -8.800781 C 8.476562 -9.679688 8.183594 -10.296875 7.597656 -10.65625 C 7.007812 -11.015625 6.289062 -11.195312 5.4375 -11.195312 L 2.898438 -11.195312 Z M 2.898438 -6.355469 "/></g></g></g><g fill="#ffffff" fill-opacity="1"><g transform="translate(91.88997, 777.374981)"><g><path d="M 4.714844 0.0195312 L 4.714844 -4.554688 L 0.613281 -12.601562 L 2.304688 -12.601562 L 5.4375 -6.300781 L 5.5625 -6.300781 L 8.675781 -12.601562 L 10.367188 -12.601562 L 6.28125 -4.554688 L 6.28125 0 Z M 4.714844 0.0195312 "/></g></g></g><g fill="#ffffff" fill-opacity="1"><g transform="translate(102.941941, 777.374981)"><g><path d="M 8.695312 -3.671875 L 3.5625 -3.671875 L 2.230469 0 L 0.648438 0 L 5.382812 -12.601562 L 6.859375 -12.601562 L 11.628906 0 L 10.042969 0 Z M 8.242188 -4.914062 L 6.136719 -10.621094 L 6.066406 -10.621094 L 4.015625 -4.914062 Z M 8.242188 -4.914062 "/></g></g></g><g fill="#ffffff" fill-opacity="1"><g transform="translate(115.1819, 777.374981)"><g><path d="M 1.351562 -12.601562 L 3.097656 -12.601562 L 9.847656 -2.484375 L 9.917969 -2.484375 L 9.917969 -12.601562 L 11.449219 -12.601562 L 11.449219 0 L 9.683594 0 L 2.953125 -9.972656 L 2.878906 -9.972656 L 2.878906 0 L 1.351562 0 Z M 1.351562 -12.601562 "/></g></g></g><g fill="#ffffff" fill-opacity="1"><g transform="translate(127.979862, 777.374981)"><g/></g></g><g fill="#ffffff" fill-opacity="1"><g transform="translate(132.119854, 777.374981)"><g><path d="M 1.402344 -12.601562 L 2.96875 -12.601562 L 2.96875 0 L 1.402344 0 Z M 1.402344 -12.601562 "/></g></g></g><g fill="#ffffff" fill-opacity="1"><g transform="translate(136.493843, 777.374981)"><g><path d="M 1.351562 -12.601562 L 6.390625 -12.601562 C 7.230469 -12.601562 7.917969 -12.4375 8.449219 -12.113281 C 8.984375 -11.789062 9.367188 -11.386719 9.59375 -10.898438 C 9.820312 -10.414062 9.9375 -9.910156 9.9375 -9.394531 C 9.9375 -8.855469 9.820312 -8.386719 9.59375 -7.992188 C 9.367188 -7.597656 9.089844 -7.289062 8.765625 -7.074219 C 8.441406 -6.859375 8.136719 -6.71875 7.847656 -6.660156 L 7.847656 -6.550781 C 8.160156 -6.527344 8.523438 -6.417969 8.9375 -6.21875 C 9.351562 -6.019531 9.71875 -5.703125 10.035156 -5.265625 C 10.351562 -4.828125 10.511719 -4.273438 10.511719 -3.601562 C 10.511719 -3 10.378906 -2.425781 10.105469 -1.882812 C 9.835938 -1.335938 9.414062 -0.886719 8.839844 -0.53125 C 8.261719 -0.175781 7.542969 0 6.679688 0 L 1.351562 0 Z M 5.941406 -7.074219 C 6.625 -7.074219 7.210938 -7.25 7.703125 -7.605469 C 8.195312 -7.960938 8.441406 -8.507812 8.441406 -9.253906 C 8.441406 -9.960938 8.203125 -10.476562 7.730469 -10.800781 C 7.257812 -11.125 6.660156 -11.285156 5.941406 -11.285156 L 2.863281 -11.285156 L 2.863281 -7.074219 Z M 6.28125 -1.3125 C 7.0625 -1.3125 7.710938 -1.492188 8.226562 -1.855469 C 8.742188 -2.214844 9 -2.800781 9 -3.617188 C 9 -4.421875 8.742188 -4.996094 8.226562 -5.335938 C 7.710938 -5.679688 7.0625 -5.851562 6.28125 -5.851562 L 2.863281 -5.851562 L 2.863281 -1.3125 Z M 6.28125 -1.3125 "/></g></g></g><g fill="#ffffff" fill-opacity="1"><g transform="translate(147.725806, 777.374981)"><g><path d="M 5.148438 -5.023438 L 2.898438 -5.023438 L 2.898438 0 L 1.351562 0 L 1.351562 -12.601562 L 5.632812 -12.601562 C 6.652344 -12.601562 7.492188 -12.414062 8.144531 -12.042969 C 8.800781 -11.671875 9.269531 -11.195312 9.558594 -10.621094 C 9.847656 -10.042969 9.988281 -9.4375 9.988281 -8.800781 C 9.988281 -7.925781 9.730469 -7.140625 9.207031 -6.445312 C 8.683594 -5.746094 7.871094 -5.304688 6.769531 -5.113281 L 10.097656 0 L 8.386719 0 Z M 2.898438 -6.355469 L 5.4375 -6.355469 C 6.289062 -6.355469 7.007812 -6.539062 7.597656 -6.910156 C 8.183594 -7.285156 8.476562 -7.914062 8.476562 -8.800781 C 8.476562 -9.679688 8.183594 -10.296875 7.597656 -10.65625 C 7.007812 -11.015625 6.289062 -11.195312 5.4375 -11.195312 L 2.898438 -11.195312 Z M 2.898438 -6.355469 "/></g></g></g><g fill="#ffffff" fill-opacity="1"><g transform="translate(158.615775, 777.374981)"><g><path d="M 8.695312 -3.671875 L 3.5625 -3.671875 L 2.230469 0 L 0.648438 0 L 5.382812 -12.601562 L 6.859375 -12.601562 L 11.628906 0 L 10.042969 0 Z M 8.242188 -4.914062 L 6.136719 -10.621094 L 6.066406 -10.621094 L 4.015625 -4.914062 Z M 8.242188 -4.914062 "/></g></g></g><g fill="#ffffff" fill-opacity="1"><g transform="translate(170.855734, 777.374981)"><g><path d="M 10.871094 -12.601562 L 10.871094 0 L 9.304688 0 L 9.304688 -5.707031 L 2.898438 -5.707031 L 2.898438 0 L 1.351562 0 L 1.351562 -12.601562 L 2.898438 -12.601562 L 2.898438 -6.964844 L 9.304688 -6.964844 L 9.304688 -12.601562 Z M 10.871094 -12.601562 "/></g></g></g><g fill="#ffffff" fill-opacity="1"><g transform="translate(183.077703, 777.374981)"><g><path d="M 1.402344 -12.601562 L 2.96875 -12.601562 L 2.96875 0 L 1.402344 0 Z M 1.402344 -12.601562 "/></g></g></g><g fill="#ffffff" fill-opacity="1"><g transform="translate(187.451692, 777.374981)"><g><path d="M 1.351562 -12.601562 L 3.636719 -12.601562 L 7.378906 -2.953125 L 7.433594 -2.953125 L 11.179688 -12.601562 L 13.464844 -12.601562 L 13.464844 0 L 11.933594 0 L 11.933594 -10.207031 L 11.863281 -10.207031 L 7.957031 0 L 6.839844 0 L 2.953125 -10.207031 L 2.878906 -10.207031 L 2.878906 0 L 1.351562 0 Z M 1.351562 -12.601562 "/></g></g></g><g fill="#202020" fill-opacity="1"><g transform="translate(81.000002, 698.194665)"><g><path d="M 8.257812 0.214844 C 6.800781 0.214844 5.554688 -0.0859375 4.519531 -0.6875 C 3.488281 -1.292969 2.707031 -2.070312 2.1875 -3.023438 C 1.664062 -3.976562 1.402344 -4.976562 1.402344 -6.019531 L 1.402344 -6.152344 L 3.96875 -6.152344 L 3.96875 -6.019531 C 3.96875 -5.390625 4.117188 -4.757812 4.414062 -4.128906 C 4.710938 -3.5 5.183594 -2.972656 5.832031 -2.550781 C 6.476562 -2.128906 7.304688 -1.917969 8.3125 -1.917969 C 9.5 -1.917969 10.480469 -2.222656 11.257812 -2.835938 C 12.03125 -3.445312 12.417969 -4.273438 12.417969 -5.316406 C 12.417969 -6.179688 12.132812 -6.871094 11.566406 -7.382812 C 11 -7.894531 10.273438 -8.242188 9.394531 -8.421875 L 6.640625 -8.933594 C 3.472656 -9.636719 1.890625 -11.300781 1.890625 -13.929688 C 1.890625 -15.007812 2.152344 -15.953125 2.671875 -16.761719 C 3.195312 -17.570312 3.917969 -18.199219 4.84375 -18.636719 C 5.773438 -19.078125 6.847656 -19.300781 8.070312 -19.300781 C 9.457031 -19.300781 10.644531 -19.019531 11.632812 -18.460938 C 12.625 -17.90625 13.371094 -17.179688 13.875 -16.289062 C 14.378906 -15.398438 14.628906 -14.476562 14.628906 -13.523438 L 14.628906 -13.414062 L 12.066406 -13.414062 L 12.066406 -13.496094 C 12.066406 -14.035156 11.933594 -14.589844 11.675781 -15.15625 C 11.414062 -15.722656 10.980469 -16.214844 10.378906 -16.628906 C 9.777344 -17.042969 8.980469 -17.25 7.988281 -17.25 C 6.855469 -17.25 5.953125 -16.933594 5.277344 -16.304688 C 4.601562 -15.671875 4.265625 -14.890625 4.265625 -13.957031 C 4.265625 -13.164062 4.527344 -12.515625 5.046875 -12.011719 C 5.570312 -11.507812 6.28125 -11.164062 7.179688 -10.984375 L 9.664062 -10.5 C 13.136719 -9.796875 14.871094 -8.097656 14.871094 -5.398438 C 14.871094 -4.300781 14.597656 -3.328125 14.050781 -2.484375 C 13.5 -1.636719 12.722656 -0.976562 11.714844 -0.5 C 10.707031 -0.0234375 9.554688 0.214844 8.257812 0.214844 Z M 8.257812 0.214844 "/></g></g></g><g fill="#202020" fill-opacity="1"><g transform="translate(97.165937, 698.194665)"><g><path d="M 8.042969 0.1875 C 6.605469 0.1875 5.386719 -0.15625 4.386719 -0.851562 C 3.386719 -1.542969 2.636719 -2.453125 2.132812 -3.578125 C 1.628906 -4.703125 1.375 -5.910156 1.375 -7.207031 C 1.375 -8.503906 1.628906 -9.710938 2.132812 -10.835938 C 2.636719 -11.960938 3.386719 -12.871094 4.386719 -13.5625 C 5.386719 -14.257812 6.605469 -14.601562 8.042969 -14.601562 C 9.484375 -14.601562 10.703125 -14.257812 11.703125 -13.5625 C 12.699219 -12.871094 13.445312 -11.957031 13.941406 -10.824219 C 14.4375 -9.691406 14.683594 -8.484375 14.683594 -7.207031 C 14.683594 -5.929688 14.433594 -4.722656 13.929688 -3.589844 C 13.425781 -2.457031 12.671875 -1.542969 11.675781 -0.851562 C 10.675781 -0.15625 9.464844 0.1875 8.042969 0.1875 Z M 8.042969 -1.808594 C 8.925781 -1.808594 9.695312 -2.050781 10.351562 -2.539062 C 11.007812 -3.023438 11.507812 -3.675781 11.851562 -4.496094 C 12.191406 -5.3125 12.363281 -6.226562 12.363281 -7.234375 C 12.363281 -8.78125 11.976562 -10.066406 11.203125 -11.09375 C 10.429688 -12.121094 9.375 -12.632812 8.042969 -12.632812 C 7.144531 -12.632812 6.367188 -12.390625 5.707031 -11.902344 C 5.050781 -11.417969 4.554688 -10.765625 4.210938 -9.945312 C 3.867188 -9.128906 3.699219 -8.222656 3.699219 -7.234375 C 3.699219 -5.6875 4.085938 -4.394531 4.859375 -3.359375 C 5.632812 -2.324219 6.695312 -1.808594 8.042969 -1.808594 Z M 8.042969 -1.808594 "/></g></g></g><g fill="#202020" fill-opacity="1"><g transform="translate(113.22392, 698.194665)"><g><path d="M 14.414062 0 L 12.066406 0 L 12.066406 -2.699219 L 11.902344 -2.699219 C 11.527344 -1.871094 10.945312 -1.175781 10.164062 -0.605469 C 9.378906 -0.0390625 8.421875 0.242188 7.289062 0.242188 C 6.101562 0.242188 5.109375 -0.046875 4.320312 -0.621094 C 3.527344 -1.195312 2.945312 -1.945312 2.578125 -2.859375 C 2.207031 -3.777344 2.023438 -4.777344 2.023438 -5.855469 L 2.023438 -14.226562 L 4.347656 -14.226562 L 4.347656 -6.152344 C 4.347656 -4.769531 4.695312 -3.703125 5.398438 -2.957031 C 6.101562 -2.207031 7.019531 -1.835938 8.152344 -1.835938 C 9.339844 -1.835938 10.289062 -2.234375 11 -3.035156 C 11.710938 -3.835938 12.066406 -4.875 12.066406 -6.152344 L 12.066406 -14.226562 L 14.414062 -14.226562 Z M 14.414062 0 "/></g></g></g><g fill="#202020" fill-opacity="1"><g transform="translate(129.470822, 698.194665)"><g><path d="M 1.917969 -14.226562 L 4.238281 -14.226562 L 4.238281 -11.957031 L 4.398438 -11.957031 C 4.632812 -12.585938 5.050781 -13.121094 5.65625 -13.5625 C 6.257812 -14.003906 7.019531 -14.226562 7.9375 -14.226562 C 8.222656 -14.226562 8.453125 -14.210938 8.625 -14.183594 C 8.796875 -14.15625 8.988281 -14.109375 9.203125 -14.035156 L 9.125 -11.769531 C 8.835938 -11.859375 8.589844 -11.921875 8.382812 -11.957031 C 8.175781 -11.992188 7.910156 -12.011719 7.585938 -12.011719 C 5.351562 -12.011719 4.238281 -10.6875 4.238281 -8.042969 L 4.238281 0 L 1.917969 0 Z M 1.917969 -14.226562 "/></g></g></g><g fill="#202020" fill-opacity="1"><g transform="translate(138.997662, 698.194665)"><g><path d="M 8.097656 0.1875 C 6.621094 0.1875 5.375 -0.160156 4.359375 -0.863281 C 3.34375 -1.566406 2.589844 -2.480469 2.105469 -3.601562 C 1.621094 -4.726562 1.375 -5.929688 1.375 -7.207031 C 1.375 -8.484375 1.621094 -9.6875 2.105469 -10.808594 C 2.589844 -11.933594 3.34375 -12.847656 4.359375 -13.550781 C 5.375 -14.253906 6.621094 -14.601562 8.097656 -14.601562 C 9.933594 -14.601562 11.378906 -14.070312 12.429688 -13.011719 C 13.484375 -11.949219 14.117188 -10.644531 14.332031 -9.097656 L 12.066406 -9.097656 C 11.902344 -10.140625 11.488281 -10.992188 10.824219 -11.648438 C 10.15625 -12.304688 9.257812 -12.632812 8.125 -12.632812 C 6.683594 -12.632812 5.59375 -12.113281 4.84375 -11.082031 C 4.097656 -10.046875 3.726562 -8.753906 3.726562 -7.207031 C 3.726562 -5.660156 4.097656 -4.367188 4.84375 -3.332031 C 5.59375 -2.300781 6.683594 -1.78125 8.125 -1.78125 C 9.257812 -1.78125 10.15625 -2.105469 10.824219 -2.753906 C 11.488281 -3.402344 11.902344 -4.253906 12.066406 -5.316406 L 14.332031 -5.316406 C 14.117188 -3.769531 13.484375 -2.464844 12.429688 -1.402344 C 11.378906 -0.34375 9.933594 0.1875 8.097656 0.1875 Z M 8.097656 0.1875 "/></g></g></g><g fill="#202020" fill-opacity="1"><g transform="translate(154.542869, 698.194665)"><g><path d="M 8.015625 0.1875 C 6.558594 0.1875 5.332031 -0.160156 4.332031 -0.863281 C 3.332031 -1.566406 2.589844 -2.484375 2.105469 -3.617188 C 1.621094 -4.75 1.375 -5.949219 1.375 -7.207031 C 1.375 -8.484375 1.621094 -9.6875 2.105469 -10.808594 C 2.589844 -11.933594 3.339844 -12.847656 4.347656 -13.550781 C 5.351562 -14.253906 6.585938 -14.601562 8.042969 -14.601562 C 9.953125 -14.601562 11.476562 -13.964844 12.617188 -12.6875 C 13.761719 -11.410156 14.332031 -9.574219 14.332031 -7.179688 L 14.332031 -6.53125 L 3.699219 -6.53125 L 3.699219 -6.34375 C 3.699219 -5.550781 3.878906 -4.804688 4.238281 -4.101562 C 4.597656 -3.402344 5.101562 -2.835938 5.75 -2.402344 C 6.398438 -1.96875 7.144531 -1.753906 7.988281 -1.753906 C 8.90625 -1.753906 9.699219 -1.988281 10.363281 -2.457031 C 11.03125 -2.925781 11.527344 -3.554688 11.851562 -4.347656 L 14.144531 -4.347656 C 13.765625 -3.050781 13.058594 -1.96875 12.023438 -1.105469 C 10.992188 -0.242188 9.65625 0.1875 8.015625 0.1875 Z M 12.039062 -8.179688 C 11.964844 -9.796875 11.570312 -10.96875 10.851562 -11.6875 C 10.132812 -12.40625 9.1875 -12.765625 8.015625 -12.765625 C 6.738281 -12.765625 5.722656 -12.34375 4.964844 -11.5 C 4.210938 -10.652344 3.804688 -9.546875 3.753906 -8.179688 Z M 12.039062 -8.179688 "/></g></g></g><g fill="#202020" fill-opacity="1"><g transform="translate(170.276995, 698.194665)"><g><path d="M 3.507812 0.1875 C 3.058594 0.1875 2.6875 0.03125 2.390625 -0.285156 C 2.09375 -0.597656 1.945312 -0.972656 1.945312 -1.402344 C 1.945312 -1.835938 2.09375 -2.199219 2.390625 -2.496094 C 2.6875 -2.792969 3.058594 -2.941406 3.507812 -2.941406 C 3.957031 -2.941406 4.332031 -2.792969 4.628906 -2.496094 C 4.925781 -2.199219 5.074219 -1.835938 5.074219 -1.402344 C 5.074219 -0.972656 4.921875 -0.597656 4.617188 -0.285156 C 4.308594 0.03125 3.941406 0.1875 3.507812 0.1875 Z M 3.507812 -10.957031 C 3.058594 -10.957031 2.6875 -11.117188 2.390625 -11.429688 C 2.09375 -11.746094 1.945312 -12.121094 1.945312 -12.550781 C 1.945312 -12.984375 2.09375 -13.347656 2.390625 -13.644531 C 2.6875 -13.941406 3.058594 -14.089844 3.507812 -14.089844 C 3.957031 -14.089844 4.332031 -13.941406 4.628906 -13.644531 C 4.925781 -13.347656 5.074219 -12.984375 5.074219 -12.550781 C 5.074219 -12.121094 4.921875 -11.746094 4.617188 -11.429688 C 4.308594 -11.117188 3.941406 -10.957031 3.507812 -10.957031 Z M 3.507812 -10.957031 "/></g></g></g><g fill="#202020" fill-opacity="1"><g transform="translate(178.184542, 698.194665)"><g/></g></g><g fill="#202020" fill-opacity="1"><g transform="translate(184.391828, 698.194665)"><g><path d="M 7.289062 0.1875 C 6.027344 0.1875 4.953125 -0.136719 4.0625 -0.78125 C 3.171875 -1.429688 2.492188 -2.3125 2.023438 -3.429688 C 1.554688 -4.542969 1.324219 -5.804688 1.324219 -7.207031 C 1.324219 -8.628906 1.554688 -9.898438 2.023438 -11.011719 C 2.492188 -12.128906 3.175781 -13.007812 4.074219 -13.644531 C 4.976562 -14.285156 6.0625 -14.601562 7.34375 -14.601562 C 8.601562 -14.601562 9.621094 -14.300781 10.40625 -13.699219 C 11.1875 -13.097656 11.769531 -12.390625 12.148438 -11.578125 L 12.363281 -11.578125 L 12.363281 -20.246094 L 14.683594 -20.246094 L 14.683594 0 L 12.363281 0 L 12.363281 -2.914062 L 12.148438 -2.914062 C 11.714844 -2.050781 11.105469 -1.316406 10.324219 -0.714844 C 9.542969 -0.113281 8.53125 0.1875 7.289062 0.1875 Z M 7.988281 -1.808594 C 9.394531 -1.808594 10.464844 -2.324219 11.203125 -3.359375 C 11.941406 -4.394531 12.308594 -5.675781 12.308594 -7.207031 C 12.308594 -8.738281 11.941406 -10.015625 11.203125 -11.039062 C 10.464844 -12.066406 9.394531 -12.578125 7.988281 -12.578125 C 6.566406 -12.578125 5.496094 -12.066406 4.777344 -11.039062 C 4.058594 -10.015625 3.699219 -8.738281 3.699219 -7.207031 C 3.699219 -5.660156 4.0625 -4.371094 4.792969 -3.347656 C 5.519531 -2.320312 6.585938 -1.808594 7.988281 -1.808594 Z M 7.988281 -1.808594 "/></g></g></g><g fill="#202020" fill-opacity="1"><g transform="translate(201.097523, 698.194665)"><g><path d="M 2.214844 -14.226562 L 4.535156 -14.226562 L 4.535156 0 L 2.214844 0 Z M 3.347656 -16.871094 C 2.914062 -16.871094 2.554688 -17.019531 2.265625 -17.316406 C 1.980469 -17.613281 1.835938 -17.96875 1.835938 -18.382812 C 1.835938 -18.796875 1.980469 -19.152344 2.265625 -19.449219 C 2.554688 -19.746094 2.914062 -19.894531 3.347656 -19.894531 C 3.777344 -19.894531 4.144531 -19.746094 4.441406 -19.449219 C 4.738281 -19.152344 4.886719 -18.796875 4.886719 -18.382812 C 4.886719 -17.96875 4.738281 -17.613281 4.441406 -17.316406 C 4.144531 -17.019531 3.777344 -16.871094 3.347656 -16.871094 Z M 3.347656 -16.871094 "/></g></g></g><g fill="#202020" fill-opacity="1"><g transform="translate(207.84457, 698.194665)"><g><path d="M 8.097656 0.1875 C 6.621094 0.1875 5.375 -0.160156 4.359375 -0.863281 C 3.34375 -1.566406 2.589844 -2.480469 2.105469 -3.601562 C 1.621094 -4.726562 1.375 -5.929688 1.375 -7.207031 C 1.375 -8.484375 1.621094 -9.6875 2.105469 -10.808594 C 2.589844 -11.933594 3.34375 -12.847656 4.359375 -13.550781 C 5.375 -14.253906 6.621094 -14.601562 8.097656 -14.601562 C 9.933594 -14.601562 11.378906 -14.070312 12.429688 -13.011719 C 13.484375 -11.949219 14.117188 -10.644531 14.332031 -9.097656 L 12.066406 -9.097656 C 11.902344 -10.140625 11.488281 -10.992188 10.824219 -11.648438 C 10.15625 -12.304688 9.257812 -12.632812 8.125 -12.632812 C 6.683594 -12.632812 5.59375 -12.113281 4.84375 -11.082031 C 4.097656 -10.046875 3.726562 -8.753906 3.726562 -7.207031 C 3.726562 -5.660156 4.097656 -4.367188 4.84375 -3.332031 C 5.59375 -2.300781 6.683594 -1.78125 8.125 -1.78125 C 9.257812 -1.78125 10.15625 -2.105469 10.824219 -2.753906 C 11.488281 -3.402344 11.902344 -4.253906 12.066406 -5.316406 L 14.332031 -5.316406 C 14.117188 -3.769531 13.484375 -2.464844 12.429688 -1.402344 C 11.378906 -0.34375 9.933594 0.1875 8.097656 0.1875 Z M 8.097656 0.1875 "/></g></g></g><g fill="#202020" fill-opacity="1"><g transform="translate(223.389777, 698.194665)"><g><path d="M 8.042969 0.1875 C 6.605469 0.1875 5.386719 -0.15625 4.386719 -0.851562 C 3.386719 -1.542969 2.636719 -2.453125 2.132812 -3.578125 C 1.628906 -4.703125 1.375 -5.910156 1.375 -7.207031 C 1.375 -8.503906 1.628906 -9.710938 2.132812 -10.835938 C 2.636719 -11.960938 3.386719 -12.871094 4.386719 -13.5625 C 5.386719 -14.257812 6.605469 -14.601562 8.042969 -14.601562 C 9.484375 -14.601562 10.703125 -14.257812 11.703125 -13.5625 C 12.699219 -12.871094 13.445312 -11.957031 13.941406 -10.824219 C 14.4375 -9.691406 14.683594 -8.484375 14.683594 -7.207031 C 14.683594 -5.929688 14.433594 -4.722656 13.929688 -3.589844 C 13.425781 -2.457031 12.671875 -1.542969 11.675781 -0.851562 C 10.675781 -0.15625 9.464844 0.1875 8.042969 0.1875 Z M 8.042969 -1.808594 C 8.925781 -1.808594 9.695312 -2.050781 10.351562 -2.539062 C 11.007812 -3.023438 11.507812 -3.675781 11.851562 -4.496094 C 12.191406 -5.3125 12.363281 -6.226562 12.363281 -7.234375 C 12.363281 -8.78125 11.976562 -10.066406 11.203125 -11.09375 C 10.429688 -12.121094 9.375 -12.632812 8.042969 -12.632812 C 7.144531 -12.632812 6.367188 -12.390625 5.707031 -11.902344 C 5.050781 -11.417969 4.554688 -10.765625 4.210938 -9.945312 C 3.867188 -9.128906 3.699219 -8.222656 3.699219 -7.234375 C 3.699219 -5.6875 4.085938 -4.394531 4.859375 -3.359375 C 5.632812 -2.324219 6.695312 -1.808594 8.042969 -1.808594 Z M 8.042969 -1.808594 "/></g></g></g><g fill="#202020" fill-opacity="1"><g transform="translate(239.44776, 698.194665)"><g><path d="M 7.289062 0.1875 C 6.027344 0.1875 4.953125 -0.136719 4.0625 -0.78125 C 3.171875 -1.429688 2.492188 -2.3125 2.023438 -3.429688 C 1.554688 -4.542969 1.324219 -5.804688 1.324219 -7.207031 C 1.324219 -8.628906 1.554688 -9.898438 2.023438 -11.011719 C 2.492188 -12.128906 3.175781 -13.007812 4.074219 -13.644531 C 4.976562 -14.285156 6.0625 -14.601562 7.34375 -14.601562 C 8.601562 -14.601562 9.621094 -14.300781 10.40625 -13.699219 C 11.1875 -13.097656 11.769531 -12.390625 12.148438 -11.578125 L 12.363281 -11.578125 L 12.363281 -20.246094 L 14.683594 -20.246094 L 14.683594 0 L 12.363281 0 L 12.363281 -2.914062 L 12.148438 -2.914062 C 11.714844 -2.050781 11.105469 -1.316406 10.324219 -0.714844 C 9.542969 -0.113281 8.53125 0.1875 7.289062 0.1875 Z M 7.988281 -1.808594 C 9.394531 -1.808594 10.464844 -2.324219 11.203125 -3.359375 C 11.941406 -4.394531 12.308594 -5.675781 12.308594 -7.207031 C 12.308594 -8.738281 11.941406 -10.015625 11.203125 -11.039062 C 10.464844 -12.066406 9.394531 -12.578125 7.988281 -12.578125 C 6.566406 -12.578125 5.496094 -12.066406 4.777344 -11.039062 C 4.058594 -10.015625 3.699219 -8.738281 3.699219 -7.207031 C 3.699219 -5.660156 4.0625 -4.371094 4.792969 -3.347656 C 5.519531 -2.320312 6.585938 -1.808594 7.988281 -1.808594 Z M 7.988281 -1.808594 "/></g></g></g><g fill="#202020" fill-opacity="1"><g transform="translate(256.153455, 698.194665)"><g><path d="M 2.214844 -14.226562 L 4.535156 -14.226562 L 4.535156 0 L 2.214844 0 Z M 3.347656 -16.871094 C 2.914062 -16.871094 2.554688 -17.019531 2.265625 -17.316406 C 1.980469 -17.613281 1.835938 -17.96875 1.835938 -18.382812 C 1.835938 -18.796875 1.980469 -19.152344 2.265625 -19.449219 C 2.554688 -19.746094 2.914062 -19.894531 3.347656 -19.894531 C 3.777344 -19.894531 4.144531 -19.746094 4.441406 -19.449219 C 4.738281 -19.152344 4.886719 -18.796875 4.886719 -18.382812 C 4.886719 -17.96875 4.738281 -17.613281 4.441406 -17.316406 C 4.144531 -17.019531 3.777344 -16.871094 3.347656 -16.871094 Z M 3.347656 -16.871094 "/></g></g></g><g fill="#202020" fill-opacity="1"><g transform="translate(262.900502, 698.194665)"><g><path d="M 2.023438 -14.226562 L 4.347656 -14.226562 L 4.347656 -11.660156 L 4.5625 -11.660156 C 4.921875 -12.488281 5.507812 -13.1875 6.316406 -13.753906 C 7.125 -14.320312 8.117188 -14.601562 9.285156 -14.601562 C 10.492188 -14.601562 11.5 -14.320312 12.308594 -13.753906 C 13.117188 -13.1875 13.714844 -12.4375 14.105469 -11.511719 C 14.492188 -10.585938 14.683594 -9.582031 14.683594 -8.503906 L 14.683594 0 L 12.363281 0 L 12.363281 -8.207031 C 12.363281 -9.609375 12 -10.679688 11.269531 -11.417969 C 10.539062 -12.15625 9.589844 -12.523438 8.421875 -12.523438 C 7.179688 -12.523438 6.191406 -12.125 5.453125 -11.324219 C 4.714844 -10.523438 4.347656 -9.484375 4.347656 -8.207031 L 4.347656 0 L 2.023438 0 Z M 2.023438 -14.226562 "/></g></g></g><g fill="#202020" fill-opacity="1"><g transform="translate(279.41729, 698.194665)"><g><path d="M 8.394531 5.695312 C 7.855469 5.695312 7.417969 5.660156 7.085938 5.585938 C 6.753906 5.515625 6.414062 5.417969 6.074219 5.289062 L 6.074219 3.347656 C 6.308594 3.417969 6.621094 3.488281 7.019531 3.550781 C 7.414062 3.613281 7.800781 3.644531 8.179688 3.644531 C 9.582031 3.644531 10.640625 3.25 11.351562 2.457031 C 12.0625 1.664062 12.417969 0.613281 12.417969 -0.703125 L 12.417969 -3.265625 L 12.199219 -3.265625 C 11.824219 -2.421875 11.214844 -1.703125 10.378906 -1.121094 C 9.542969 -0.535156 8.53125 -0.242188 7.34375 -0.242188 C 6.152344 -0.242188 5.109375 -0.550781 4.210938 -1.160156 C 3.3125 -1.773438 2.613281 -2.621094 2.117188 -3.710938 C 1.625 -4.800781 1.375 -6.046875 1.375 -7.449219 C 1.375 -8.855469 1.625 -10.101562 2.117188 -11.1875 C 2.613281 -12.277344 3.3125 -13.128906 4.210938 -13.738281 C 5.109375 -14.351562 6.152344 -14.65625 7.34375 -14.65625 C 8.582031 -14.65625 9.621094 -14.335938 10.460938 -13.699219 C 11.296875 -13.058594 11.886719 -12.316406 12.226562 -11.472656 L 12.417969 -11.472656 L 12.417969 -14.199219 L 14.765625 -14.199219 L 14.765625 -0.703125 C 14.765625 0.304688 14.5625 1.296875 14.15625 2.265625 C 13.753906 3.238281 13.074219 4.054688 12.121094 4.710938 C 11.164062 5.367188 9.925781 5.695312 8.394531 5.695312 Z M 8.097656 -2.242188 C 9.015625 -2.242188 9.796875 -2.488281 10.445312 -2.984375 C 11.09375 -3.476562 11.574219 -4.125 11.890625 -4.925781 C 12.207031 -5.726562 12.363281 -6.585938 12.363281 -7.503906 C 12.363281 -8.402344 12.207031 -9.242188 11.890625 -10.015625 C 11.574219 -10.789062 11.097656 -11.417969 10.460938 -11.902344 C 9.820312 -12.390625 9.035156 -12.632812 8.097656 -12.632812 C 6.710938 -12.632812 5.65625 -12.132812 4.925781 -11.132812 C 4.199219 -10.136719 3.832031 -8.925781 3.832031 -7.503906 C 3.832031 -6.566406 3.992188 -5.699219 4.304688 -4.898438 C 4.621094 -4.097656 5.097656 -3.453125 5.734375 -2.96875 C 6.375 -2.484375 7.160156 -2.242188 8.097656 -2.242188 Z M 8.097656 -2.242188 "/></g></g></g><g fill="#202020" fill-opacity="1"><g transform="translate(296.203941, 698.194665)"><g><path d="M 3.699219 0.1875 C 3.25 0.1875 2.875 0.03125 2.578125 -0.285156 C 2.28125 -0.597656 2.132812 -0.972656 2.132812 -1.402344 C 2.132812 -1.835938 2.28125 -2.199219 2.578125 -2.496094 C 2.875 -2.792969 3.25 -2.941406 3.699219 -2.941406 C 4.148438 -2.941406 4.519531 -2.792969 4.816406 -2.496094 C 5.113281 -2.199219 5.261719 -1.835938 5.261719 -1.402344 C 5.261719 -0.972656 5.109375 -0.597656 4.804688 -0.285156 C 4.5 0.03125 4.128906 0.1875 3.699219 0.1875 Z M 3.699219 0.1875 "/></g></g></g><g fill="#202020" fill-opacity="1"><g transform="translate(303.571738, 698.194665)"><g><path d="M 8.097656 0.1875 C 6.621094 0.1875 5.375 -0.160156 4.359375 -0.863281 C 3.34375 -1.566406 2.589844 -2.480469 2.105469 -3.601562 C 1.621094 -4.726562 1.375 -5.929688 1.375 -7.207031 C 1.375 -8.484375 1.621094 -9.6875 2.105469 -10.808594 C 2.589844 -11.933594 3.34375 -12.847656 4.359375 -13.550781 C 5.375 -14.253906 6.621094 -14.601562 8.097656 -14.601562 C 9.933594 -14.601562 11.378906 -14.070312 12.429688 -13.011719 C 13.484375 -11.949219 14.117188 -10.644531 14.332031 -9.097656 L 12.066406 -9.097656 C 11.902344 -10.140625 11.488281 -10.992188 10.824219 -11.648438 C 10.15625 -12.304688 9.257812 -12.632812 8.125 -12.632812 C 6.683594 -12.632812 5.59375 -12.113281 4.84375 -11.082031 C 4.097656 -10.046875 3.726562 -8.753906 3.726562 -7.207031 C 3.726562 -5.660156 4.097656 -4.367188 4.84375 -3.332031 C 5.59375 -2.300781 6.683594 -1.78125 8.125 -1.78125 C 9.257812 -1.78125 10.15625 -2.105469 10.824219 -2.753906 C 11.488281 -3.402344 11.902344 -4.253906 12.066406 -5.316406 L 14.332031 -5.316406 C 14.117188 -3.769531 13.484375 -2.464844 12.429688 -1.402344 C 11.378906 -0.34375 9.933594 0.1875 8.097656 0.1875 Z M 8.097656 0.1875 "/></g></g></g><g fill="#202020" fill-opacity="1"><g transform="translate(319.116934, 698.194665)"><g><path d="M 8.042969 0.1875 C 6.605469 0.1875 5.386719 -0.15625 4.386719 -0.851562 C 3.386719 -1.542969 2.636719 -2.453125 2.132812 -3.578125 C 1.628906 -4.703125 1.375 -5.910156 1.375 -7.207031 C 1.375 -8.503906 1.628906 -9.710938 2.132812 -10.835938 C 2.636719 -11.960938 3.386719 -12.871094 4.386719 -13.5625 C 5.386719 -14.257812 6.605469 -14.601562 8.042969 -14.601562 C 9.484375 -14.601562 10.703125 -14.257812 11.703125 -13.5625 C 12.699219 -12.871094 13.445312 -11.957031 13.941406 -10.824219 C 14.4375 -9.691406 14.683594 -8.484375 14.683594 -7.207031 C 14.683594 -5.929688 14.433594 -4.722656 13.929688 -3.589844 C 13.425781 -2.457031 12.671875 -1.542969 11.675781 -0.851562 C 10.675781 -0.15625 9.464844 0.1875 8.042969 0.1875 Z M 8.042969 -1.808594 C 8.925781 -1.808594 9.695312 -2.050781 10.351562 -2.539062 C 11.007812 -3.023438 11.507812 -3.675781 11.851562 -4.496094 C 12.191406 -5.3125 12.363281 -6.226562 12.363281 -7.234375 C 12.363281 -8.78125 11.976562 -10.066406 11.203125 -11.09375 C 10.429688 -12.121094 9.375 -12.632812 8.042969 -12.632812 C 7.144531 -12.632812 6.367188 -12.390625 5.707031 -11.902344 C 5.050781 -11.417969 4.554688 -10.765625 4.210938 -9.945312 C 3.867188 -9.128906 3.699219 -8.222656 3.699219 -7.234375 C 3.699219 -5.6875 4.085938 -4.394531 4.859375 -3.359375 C 5.632812 -2.324219 6.695312 -1.808594 8.042969 -1.808594 Z M 8.042969 -1.808594 "/></g></g></g><g fill="#202020" fill-opacity="1"><g transform="translate(335.174917, 698.194665)"><g><path d="M 2.023438 -14.226562 L 4.320312 -14.226562 L 4.320312 -11.605469 L 4.535156 -11.605469 C 4.570312 -11.785156 4.75 -12.113281 5.074219 -12.59375 C 5.398438 -13.070312 5.894531 -13.523438 6.558594 -13.957031 C 7.226562 -14.386719 8.054688 -14.601562 9.042969 -14.601562 C 10.085938 -14.601562 10.953125 -14.359375 11.648438 -13.875 C 12.339844 -13.386719 12.859375 -12.867188 13.199219 -12.308594 C 13.542969 -11.75 13.710938 -11.398438 13.710938 -11.257812 L 13.929688 -11.257812 C 14.179688 -11.886719 14.679688 -12.601562 15.425781 -13.402344 C 16.171875 -14.203125 17.320312 -14.601562 18.867188 -14.601562 C 20.019531 -14.601562 20.980469 -14.308594 21.757812 -13.726562 C 22.53125 -13.140625 23.101562 -12.390625 23.46875 -11.472656 C 23.839844 -10.554688 24.023438 -9.574219 24.023438 -8.53125 L 24.023438 0 L 21.730469 0 L 21.730469 -8.3125 C 21.730469 -9.679688 21.375 -10.714844 20.664062 -11.417969 C 19.953125 -12.121094 19.074219 -12.46875 18.03125 -12.46875 C 16.953125 -12.46875 16.039062 -12.105469 15.292969 -11.378906 C 14.542969 -10.648438 14.171875 -9.628906 14.171875 -8.3125 L 14.171875 0 L 11.875 0 L 11.875 -8.3125 C 11.875 -9.679688 11.519531 -10.714844 10.808594 -11.417969 C 10.101562 -12.121094 9.222656 -12.46875 8.179688 -12.46875 C 7.097656 -12.46875 6.1875 -12.105469 5.4375 -11.378906 C 4.691406 -10.648438 4.320312 -9.628906 4.320312 -8.3125 L 4.320312 0 L 2.023438 0 Z M 2.023438 -14.226562 "/></g></g></g></svg>