<svg xmlns="http://www.w3.org/2000/svg" xmlns:xlink="http://www.w3.org/1999/xlink" width="1920" zoomAndPan="magnify" viewBox="0 0 1440 809.999993" height="1080" preserveAspectRatio="xMidYMid meet" version="1.0"><defs><g/></defs><rect x="-144" width="1728" fill="#ffffff" y="-80.999999" height="971.999992" fill-opacity="1"/><rect x="-144" width="1728" fill="#faf4eb" y="-80.999999" height="971.999992" fill-opacity="1"/><path fill="#2d3e70" d="M 0 729 L 1439.964844 729 L 1439.964844 810 L 0 810 Z M 0 729 " fill-opacity="1" fill-rule="nonzero"/><g fill="#2d3e70" fill-opacity="1"><g transform="translate(390.02586, 450.374997)"><g><path d="M 31.5 0 L 0.984375 0 L 0.984375 -2.375 C 3.128906 -2.46875 5.015625 -3.070312 6.640625 -4.1875 C 8.273438 -5.3125 9.09375 -7.226562 9.09375 -9.9375 L 9.09375 -80.78125 C 9.09375 -83.488281 8.273438 -85.425781 6.640625 -86.59375 C 5.015625 -87.757812 3.128906 -88.390625 0.984375 -88.484375 L 0.984375 -90.71875 L 31.5 -90.71875 L 31.5 -88.484375 C 29.351562 -88.390625 27.484375 -87.757812 25.890625 -86.59375 C 24.304688 -85.425781 23.515625 -83.488281 23.515625 -80.78125 L 23.515625 -45.5 L 49.5625 -69.859375 C 50.3125 -70.515625 51.40625 -71.445312 52.84375 -72.65625 C 54.289062 -73.875 55.785156 -75.203125 57.328125 -76.640625 C 58.867188 -78.085938 60.175781 -79.507812 61.25 -80.90625 C 62.320312 -82.3125 62.859375 -83.578125 62.859375 -84.703125 C 62.859375 -86.378906 62.179688 -87.332031 60.828125 -87.5625 C 59.472656 -87.800781 57.722656 -87.96875 55.578125 -88.0625 L 55.578125 -90.71875 L 79.09375 -90.71875 L 79.09375 -88.34375 C 77.414062 -88.15625 75.410156 -87.3125 73.078125 -85.8125 C 70.742188 -84.320312 68.242188 -82.457031 65.578125 -80.21875 C 62.921875 -77.976562 60.242188 -75.644531 57.546875 -73.21875 L 36.40625 -54.3125 L 70.703125 -9.375 C 72.191406 -7.507812 73.914062 -5.921875 75.875 -4.609375 C 77.832031 -3.304688 80.070312 -2.5625 82.59375 -2.375 L 82.59375 0 L 47.59375 0 L 47.59375 -2.375 C 48.53125 -2.375 49.5625 -2.609375 50.6875 -3.078125 C 51.332031 -3.453125 51.890625 -3.914062 52.359375 -4.46875 C 52.828125 -5.03125 53.0625 -5.78125 53.0625 -6.71875 C 53.0625 -7.75 52.875 -8.492188 52.5 -8.953125 C 52.3125 -9.328125 52.125 -9.609375 51.9375 -9.796875 C 51.75 -10.171875 51.5625 -10.453125 51.375 -10.640625 L 25.765625 -44.515625 L 23.515625 -42.421875 L 23.515625 -9.9375 C 23.515625 -7.226562 24.304688 -5.3125 25.890625 -4.1875 C 27.484375 -3.070312 29.351562 -2.46875 31.5 -2.375 Z M 31.5 0 "/></g></g></g><g fill="#2d3e70" fill-opacity="1"><g transform="translate(471.5013, 450.374997)"><g><path d="M 24.078125 1.265625 C 20.160156 1.265625 16.566406 0.566406 13.296875 -0.828125 C 10.035156 -2.234375 7.398438 -4.359375 5.390625 -7.203125 C 3.378906 -10.054688 2.375 -13.535156 2.375 -17.640625 C 2.375 -22.492188 3.492188 -26.578125 5.734375 -29.890625 C 7.972656 -33.203125 11.003906 -35.722656 14.828125 -37.453125 C 18.660156 -39.179688 22.863281 -40.046875 27.4375 -40.046875 C 29.113281 -40.046875 30.769531 -39.925781 32.40625 -39.6875 C 34.039062 -39.457031 35.601562 -39.015625 37.09375 -38.359375 L 38.5 -37.796875 L 38.5 -48.015625 C 38.5 -49.421875 38.453125 -51.101562 38.359375 -53.0625 C 38.265625 -55.019531 37.984375 -56.601562 37.515625 -57.8125 C 37.046875 -59.5 36.226562 -60.925781 35.0625 -62.09375 C 33.894531 -63.257812 32.191406 -63.84375 29.953125 -63.84375 C 27.160156 -63.84375 25.0625 -63.046875 23.65625 -61.453125 C 22.257812 -59.867188 21.347656 -57.957031 20.921875 -55.71875 C 20.503906 -53.476562 20.296875 -51.378906 20.296875 -49.421875 C 20.296875 -47.929688 19.476562 -46.8125 17.84375 -46.0625 C 16.21875 -45.3125 14.5625 -44.9375 12.875 -44.9375 C 11.289062 -44.9375 9.726562 -45.285156 8.1875 -45.984375 C 6.644531 -46.691406 5.875 -47.789062 5.875 -49.28125 C 5.875 -53.476562 7.132812 -56.789062 9.65625 -59.21875 C 12.175781 -61.644531 15.328125 -63.367188 19.109375 -64.390625 C 22.890625 -65.421875 26.597656 -65.9375 30.234375 -65.9375 C 37.046875 -65.9375 42.53125 -64.347656 46.6875 -61.171875 C 50.84375 -58.003906 52.921875 -52.921875 52.921875 -45.921875 L 52.921875 -10.5 C 52.921875 -10.21875 52.921875 -9.957031 52.921875 -9.71875 C 52.921875 -9.488281 52.921875 -9.234375 52.921875 -8.953125 C 52.921875 -8.679688 52.941406 -8.378906 52.984375 -8.046875 C 53.035156 -7.722656 53.109375 -7.421875 53.203125 -7.140625 C 53.390625 -6.578125 53.691406 -6.039062 54.109375 -5.53125 C 54.523438 -5.019531 55.203125 -4.765625 56.140625 -4.765625 C 57.171875 -4.765625 58.148438 -5.085938 59.078125 -5.734375 L 60.203125 -4.34375 C 58.703125 -2.570312 56.898438 -1.285156 54.796875 -0.484375 C 52.703125 0.304688 50.441406 0.703125 48.015625 0.703125 C 46.242188 0.703125 44.632812 0.328125 43.1875 -0.421875 C 41.738281 -1.171875 40.597656 -2.289062 39.765625 -3.78125 L 39.203125 -4.90625 L 38.21875 -4.0625 C 36.351562 -2.101562 34.207031 -0.726562 31.78125 0.0625 C 29.351562 0.863281 26.785156 1.265625 24.078125 1.265625 Z M 17.5 -17.078125 C 17.5 -14.929688 17.78125 -12.644531 18.34375 -10.21875 C 18.90625 -7.789062 19.953125 -5.738281 21.484375 -4.0625 C 23.023438 -2.382812 25.289062 -1.546875 28.28125 -1.546875 C 29.675781 -1.546875 31.164062 -1.894531 32.75 -2.59375 C 34.34375 -3.289062 35.695312 -4.289062 36.8125 -5.59375 C 37.9375 -6.90625 38.5 -8.398438 38.5 -10.078125 L 38.5 -35.84375 L 37.796875 -36.125 C 37.140625 -36.40625 36.414062 -36.585938 35.625 -36.671875 C 34.832031 -36.765625 34.0625 -36.8125 33.3125 -36.8125 C 29.488281 -36.8125 26.410156 -35.851562 24.078125 -33.9375 C 21.742188 -32.03125 20.0625 -29.5625 19.03125 -26.53125 C 18.007812 -23.5 17.5 -20.347656 17.5 -17.078125 Z M 17.5 -17.078125 "/></g></g></g><g fill="#2d3e70" fill-opacity="1"><g transform="translate(532.957867, 450.374997)"><g><path d="M 1.6875 -57.546875 L 22.8125 -64.265625 L 22.8125 -54.3125 L 24.640625 -57.40625 C 26.410156 -60.289062 28.765625 -62.457031 31.703125 -63.90625 C 34.648438 -65.351562 37.847656 -66.078125 41.296875 -66.078125 C 44.003906 -66.078125 46.59375 -65.585938 49.0625 -64.609375 C 51.539062 -63.628906 53.476562 -61.925781 54.875 -59.5 C 55.34375 -58.75 55.71875 -57.953125 56 -57.109375 C 56.28125 -56.273438 56.421875 -55.4375 56.421875 -54.59375 C 56.421875 -52.726562 55.695312 -51.234375 54.25 -50.109375 C 52.800781 -48.992188 51.144531 -48.4375 49.28125 -48.4375 C 48.25 -48.4375 47.382812 -48.578125 46.6875 -48.859375 C 45.988281 -49.140625 45.40625 -49.46875 44.9375 -49.84375 C 44.375 -50.3125 43.863281 -50.820312 43.40625 -51.375 C 43.21875 -51.65625 42.984375 -51.957031 42.703125 -52.28125 C 42.421875 -52.613281 42.1875 -52.921875 42 -53.203125 C 41.0625 -54.503906 39.960938 -55.757812 38.703125 -56.96875 C 37.441406 -58.1875 35.507812 -58.796875 32.90625 -58.796875 C 29.726562 -58.796875 27.25 -57.601562 25.46875 -55.21875 C 23.695312 -52.84375 22.8125 -50.207031 22.8125 -47.3125 L 22.8125 -9.9375 C 22.8125 -4.988281 25.007812 -2.46875 29.40625 -2.375 L 29.40625 0 L 1.6875 0 L 1.6875 -2.375 C 6.164062 -2.46875 8.40625 -4.988281 8.40625 -9.9375 L 8.40625 -47.3125 C 8.40625 -52.164062 6.164062 -54.734375 1.6875 -55.015625 Z M 1.6875 -57.546875 "/></g></g></g><g fill="#2d3e70" fill-opacity="1"><g transform="translate(589.65471, 450.374997)"><g><path d="M 0.984375 -91 L 22.125 -97.578125 L 22.125 -9.9375 C 22.125 -4.988281 24.316406 -2.46875 28.703125 -2.375 L 28.703125 0 L 0.984375 0 L 0.984375 -2.375 C 5.460938 -2.46875 7.703125 -4.988281 7.703125 -9.9375 L 7.703125 -80.78125 C 7.703125 -85.632812 5.460938 -88.203125 0.984375 -88.484375 Z M 0.984375 -91 "/></g></g></g><g fill="#2d3e70" fill-opacity="1"><g transform="translate(619.333038, 450.374997)"><g/></g></g><g fill="#2d3e70" fill-opacity="1"><g transform="translate(646.491515, 450.374997)"><g><path d="M 0.984375 0 L 0.984375 -2.375 C 3.128906 -2.46875 5.015625 -3.070312 6.640625 -4.1875 C 8.273438 -5.3125 9.09375 -7.226562 9.09375 -9.9375 L 9.09375 -80.78125 C 9.09375 -83.488281 8.273438 -85.425781 6.640625 -86.59375 C 5.015625 -87.757812 3.128906 -88.390625 0.984375 -88.484375 L 0.984375 -90.71875 L 66.640625 -90.71875 L 72.234375 -64.265625 L 70 -64.125 C 69.34375 -65.519531 68.78125 -66.914062 68.3125 -68.3125 C 67.851562 -69.71875 67.296875 -71.070312 66.640625 -72.375 C 64.585938 -77.039062 61.953125 -80.890625 58.734375 -83.921875 C 55.515625 -86.960938 51.101562 -88.484375 45.5 -88.484375 L 23.515625 -88.484375 L 23.515625 -45.21875 L 39.90625 -45.5 C 43.070312 -45.5 46.007812 -45.820312 48.71875 -46.46875 C 51.425781 -47.125 53.617188 -48.410156 55.296875 -50.328125 C 56.972656 -52.242188 57.90625 -55.019531 58.09375 -58.65625 L 60.203125 -58.65625 L 60.203125 -31.921875 L 57.953125 -31.921875 C 57.773438 -35.648438 56.585938 -38.285156 54.390625 -39.828125 C 52.191406 -41.367188 49.460938 -42.234375 46.203125 -42.421875 C 45.265625 -42.609375 44.234375 -42.703125 43.109375 -42.703125 C 41.992188 -42.703125 40.925781 -42.703125 39.90625 -42.703125 L 23.515625 -42.84375 L 23.515625 -9.9375 C 23.515625 -7.226562 24.304688 -5.3125 25.890625 -4.1875 C 27.484375 -3.070312 29.351562 -2.46875 31.5 -2.375 L 31.5 0 Z M 0.984375 0 "/></g></g></g><g fill="#2d3e70" fill-opacity="1"><g transform="translate(718.587481, 450.374997)"><g><path d="M 1.546875 -57.546875 L 22.6875 -64.265625 L 22.6875 -9.9375 C 22.6875 -4.988281 24.878906 -2.46875 29.265625 -2.375 L 29.265625 0 L 1.546875 0 L 1.546875 -2.375 C 6.023438 -2.46875 8.265625 -4.988281 8.265625 -9.9375 L 8.265625 -47.3125 C 8.265625 -52.164062 6.023438 -54.734375 1.546875 -55.015625 Z M 3.5 -81.203125 C 3.5 -83.816406 4.429688 -86.054688 6.296875 -87.921875 C 8.160156 -89.785156 10.398438 -90.71875 13.015625 -90.71875 C 15.628906 -90.71875 17.894531 -89.785156 19.8125 -87.921875 C 21.726562 -86.054688 22.6875 -83.816406 22.6875 -81.203125 C 22.6875 -78.585938 21.703125 -76.300781 19.734375 -74.34375 C 17.773438 -72.382812 15.535156 -71.40625 13.015625 -71.40625 C 10.398438 -71.40625 8.160156 -72.382812 6.296875 -74.34375 C 4.429688 -76.300781 3.5 -78.585938 3.5 -81.203125 Z M 3.5 -81.203125 "/></g></g></g><g fill="#2d3e70" fill-opacity="1"><g transform="translate(748.5458, 450.374997)"><g><path d="M 2.9375 -7 C 2.84375 -7.1875 2.769531 -7.328125 2.71875 -7.421875 C 2.675781 -7.515625 2.609375 -7.609375 2.515625 -7.703125 L 4.625 -21 L 6.015625 -21 C 6.203125 -18.476562 7.019531 -16.003906 8.46875 -13.578125 C 9.914062 -11.148438 11.757812 -8.976562 14 -7.0625 C 16.238281 -5.15625 18.640625 -3.617188 21.203125 -2.453125 C 23.773438 -1.285156 26.226562 -0.703125 28.5625 -0.703125 C 30.050781 -0.703125 31.679688 -0.976562 33.453125 -1.53125 C 35.234375 -2.09375 36.773438 -3.023438 38.078125 -4.328125 C 39.390625 -5.640625 40.046875 -7.320312 40.046875 -9.375 C 40.046875 -11.519531 39.390625 -13.382812 38.078125 -14.96875 C 36.773438 -16.5625 35.1875 -17.988281 33.3125 -19.25 C 31.445312 -20.507812 29.675781 -21.609375 28 -22.546875 C 26.96875 -23.191406 25.890625 -23.816406 24.765625 -24.421875 C 23.648438 -25.035156 22.535156 -25.664062 21.421875 -26.3125 C 18.429688 -28.09375 15.582031 -29.960938 12.875 -31.921875 C 10.164062 -33.878906 7.972656 -36.140625 6.296875 -38.703125 C 4.617188 -41.273438 3.78125 -44.238281 3.78125 -47.59375 C 3.78125 -52.070312 4.96875 -55.640625 7.34375 -58.296875 C 9.726562 -60.960938 12.8125 -62.898438 16.59375 -64.109375 C 20.375 -65.328125 24.269531 -65.9375 28.28125 -65.9375 C 32.007812 -65.9375 35.644531 -65.304688 39.1875 -64.046875 C 42.738281 -62.785156 45.820312 -60.847656 48.4375 -58.234375 C 48.4375 -58.234375 48.738281 -57.90625 49.34375 -57.25 C 49.957031 -56.601562 50.3125 -56.1875 50.40625 -56 L 50.40625 -45.640625 L 48.4375 -45.640625 C 47.320312 -48.160156 45.6875 -50.84375 43.53125 -53.6875 C 41.382812 -56.53125 38.890625 -58.929688 36.046875 -60.890625 C 33.203125 -62.859375 30.238281 -63.84375 27.15625 -63.84375 C 24.539062 -63.84375 22.347656 -63.023438 20.578125 -61.390625 C 18.804688 -59.753906 17.921875 -57.582031 17.921875 -54.875 C 17.921875 -51.238281 19.15625 -48.207031 21.625 -45.78125 C 24.101562 -43.351562 26.742188 -41.300781 29.546875 -39.625 C 30.566406 -38.96875 31.632812 -38.359375 32.75 -37.796875 C 33.875 -37.234375 35 -36.628906 36.125 -35.984375 C 39.101562 -34.390625 41.898438 -32.707031 44.515625 -30.9375 C 47.128906 -29.164062 49.226562 -27.160156 50.8125 -24.921875 C 52.40625 -22.679688 53.203125 -19.972656 53.203125 -16.796875 C 53.203125 -14.179688 52.453125 -11.660156 50.953125 -9.234375 C 48.617188 -5.222656 45.210938 -2.445312 40.734375 -0.90625 C 36.253906 0.632812 31.726562 1.40625 27.15625 1.40625 C 22.863281 1.40625 18.523438 0.773438 14.140625 -0.484375 C 9.753906 -1.742188 6.019531 -3.914062 2.9375 -7 Z M 2.9375 -7 "/></g></g></g><g fill="#2d3e70" fill-opacity="1"><g transform="translate(803.142721, 450.374997)"><g><path d="M 31.640625 1.40625 C 25.109375 1.40625 19.691406 -0.0859375 15.390625 -3.078125 C 11.097656 -6.066406 7.878906 -10.101562 5.734375 -15.1875 C 3.585938 -20.269531 2.515625 -25.941406 2.515625 -32.203125 C 2.515625 -42.460938 5.101562 -50.648438 10.28125 -56.765625 C 15.46875 -62.878906 23.285156 -65.9375 33.734375 -65.9375 C 37.003906 -65.9375 40.316406 -65.351562 43.671875 -64.1875 C 47.035156 -63.019531 49.859375 -61.242188 52.140625 -58.859375 C 54.429688 -56.484375 55.578125 -53.523438 55.578125 -49.984375 C 55.578125 -48.117188 54.875 -46.601562 53.46875 -45.4375 C 52.070312 -44.269531 50.394531 -43.6875 48.4375 -43.6875 C 44.613281 -43.6875 42.1875 -45.691406 41.15625 -49.703125 C 40.96875 -50.359375 40.78125 -51.035156 40.59375 -51.734375 C 40.40625 -52.429688 40.175781 -53.15625 39.90625 -53.90625 C 39.25 -56.238281 38.21875 -58.453125 36.8125 -60.546875 C 35.414062 -62.648438 33.316406 -63.703125 30.515625 -63.703125 C 27.710938 -63.703125 25.445312 -62.648438 23.71875 -60.546875 C 22 -58.453125 20.695312 -55.863281 19.8125 -52.78125 C 18.925781 -49.695312 18.316406 -46.59375 17.984375 -43.46875 C 17.660156 -40.34375 17.5 -37.753906 17.5 -35.703125 C 17.5 -32.617188 17.894531 -29.421875 18.6875 -26.109375 C 19.476562 -22.796875 20.710938 -19.710938 22.390625 -16.859375 C 24.078125 -14.015625 26.273438 -11.707031 28.984375 -9.9375 C 31.691406 -8.164062 34.957031 -7.28125 38.78125 -7.28125 C 41.863281 -7.28125 44.875 -7.976562 47.8125 -9.375 C 50.75 -10.78125 53.101562 -12.789062 54.875 -15.40625 L 56.421875 -14.421875 C 53.804688 -9.285156 50.535156 -5.363281 46.609375 -2.65625 C 42.691406 0.0507812 37.703125 1.40625 31.640625 1.40625 Z M 31.640625 1.40625 "/></g></g></g><g fill="#2d3e70" fill-opacity="1"><g transform="translate(861.93944, 450.374997)"><g><path d="M 0.703125 -91 L 21.84375 -97.578125 L 21.84375 -57.6875 L 23.515625 -59.21875 C 25.847656 -61.550781 28.554688 -63.253906 31.640625 -64.328125 C 34.722656 -65.398438 37.847656 -65.9375 41.015625 -65.9375 C 47.179688 -65.9375 52.363281 -64.535156 56.5625 -61.734375 C 60.757812 -58.941406 62.859375 -54.226562 62.859375 -47.59375 L 62.859375 -9.9375 C 62.859375 -4.988281 65.050781 -2.46875 69.4375 -2.375 L 69.4375 0 L 41.71875 0 L 41.71875 -2.375 C 46.195312 -2.46875 48.4375 -4.988281 48.4375 -9.9375 L 48.4375 -47.59375 C 48.4375 -51.894531 47.457031 -55.488281 45.5 -58.375 C 43.539062 -61.269531 40.132812 -62.71875 35.28125 -62.71875 C 32.570312 -62.71875 30.191406 -61.96875 28.140625 -60.46875 C 26.085938 -58.976562 24.523438 -57.085938 23.453125 -54.796875 C 22.378906 -52.515625 21.84375 -50.113281 21.84375 -47.59375 L 21.84375 -9.9375 C 21.84375 -4.988281 24.035156 -2.46875 28.421875 -2.375 L 28.421875 0 L 0.703125 0 L 0.703125 -2.375 C 5.179688 -2.46875 7.421875 -4.988281 7.421875 -9.9375 L 7.421875 -80.78125 C 7.421875 -85.632812 5.179688 -88.203125 0.703125 -88.484375 Z M 0.703125 -91 "/></g></g></g><g fill="#2d3e70" fill-opacity="1"><g transform="translate(931.09558, 450.374997)"><g><path d="M 3.5 -32.0625 C 3.5 -38.125 4.59375 -43.722656 6.78125 -48.859375 C 8.976562 -53.992188 12.222656 -58.125 16.515625 -61.25 C 20.804688 -64.375 26.128906 -65.9375 32.484375 -65.9375 C 37.984375 -65.9375 42.671875 -64.695312 46.546875 -62.21875 C 50.421875 -59.75 53.382812 -56.367188 55.4375 -52.078125 C 57.488281 -47.785156 58.515625 -42.976562 58.515625 -37.65625 L 58.515625 -37.234375 L 18.625 -37.234375 L 18.625 -35.28125 C 18.625 -32.289062 18.992188 -29.207031 19.734375 -26.03125 C 20.484375 -22.863281 21.648438 -19.898438 23.234375 -17.140625 C 24.828125 -14.390625 26.90625 -12.148438 29.46875 -10.421875 C 32.03125 -8.703125 35.179688 -7.84375 38.921875 -7.84375 C 42.367188 -7.84375 45.75 -8.65625 49.0625 -10.28125 C 52.382812 -11.914062 55.070312 -14.132812 57.125 -16.9375 L 58.375 -16.09375 C 55.582031 -10.6875 52.34375 -6.414062 48.65625 -3.28125 C 44.96875 -0.15625 39.8125 1.40625 33.1875 1.40625 C 26.738281 1.40625 21.320312 -0.0859375 16.9375 -3.078125 C 12.550781 -6.066406 9.210938 -10.101562 6.921875 -15.1875 C 4.640625 -20.269531 3.5 -25.894531 3.5 -32.0625 Z M 18.90625 -40.453125 L 18.90625 -39.484375 L 43.546875 -39.484375 L 43.546875 -40.453125 C 43.453125 -42.140625 43.191406 -44.265625 42.765625 -46.828125 C 42.347656 -49.398438 41.695312 -51.988281 40.8125 -54.59375 C 39.925781 -57.207031 38.734375 -59.398438 37.234375 -61.171875 C 35.742188 -62.953125 33.925781 -63.84375 31.78125 -63.84375 C 29.539062 -63.84375 27.648438 -62.953125 26.109375 -61.171875 C 24.566406 -59.398438 23.28125 -57.226562 22.25 -54.65625 C 21.226562 -52.09375 20.460938 -49.503906 19.953125 -46.890625 C 19.441406 -44.285156 19.09375 -42.140625 18.90625 -40.453125 Z M 18.90625 -40.453125 "/></g></g></g><g fill="#2d3e70" fill-opacity="1"><g transform="translate(993.252101, 450.374997)"><g><path d="M 1.6875 -57.546875 L 22.8125 -64.265625 L 22.8125 -54.3125 L 24.640625 -57.40625 C 26.410156 -60.289062 28.765625 -62.457031 31.703125 -63.90625 C 34.648438 -65.351562 37.847656 -66.078125 41.296875 -66.078125 C 44.003906 -66.078125 46.59375 -65.585938 49.0625 -64.609375 C 51.539062 -63.628906 53.476562 -61.925781 54.875 -59.5 C 55.34375 -58.75 55.71875 -57.953125 56 -57.109375 C 56.28125 -56.273438 56.421875 -55.4375 56.421875 -54.59375 C 56.421875 -52.726562 55.695312 -51.234375 54.25 -50.109375 C 52.800781 -48.992188 51.144531 -48.4375 49.28125 -48.4375 C 48.25 -48.4375 47.382812 -48.578125 46.6875 -48.859375 C 45.988281 -49.140625 45.40625 -49.46875 44.9375 -49.84375 C 44.375 -50.3125 43.863281 -50.820312 43.40625 -51.375 C 43.21875 -51.65625 42.984375 -51.957031 42.703125 -52.28125 C 42.421875 -52.613281 42.1875 -52.921875 42 -53.203125 C 41.0625 -54.503906 39.960938 -55.757812 38.703125 -56.96875 C 37.441406 -58.1875 35.507812 -58.796875 32.90625 -58.796875 C 29.726562 -58.796875 27.25 -57.601562 25.46875 -55.21875 C 23.695312 -52.84375 22.8125 -50.207031 22.8125 -47.3125 L 22.8125 -9.9375 C 22.8125 -4.988281 25.007812 -2.46875 29.40625 -2.375 L 29.40625 0 L 1.6875 0 L 1.6875 -2.375 C 6.164062 -2.46875 8.40625 -4.988281 8.40625 -9.9375 L 8.40625 -47.3125 C 8.40625 -52.164062 6.164062 -54.734375 1.6875 -55.015625 Z M 1.6875 -57.546875 "/></g></g></g><g fill="#ffffff" fill-opacity="1"><g transform="translate(81.000002, 777.374981)"><g><path d="M 5.140625 -5.015625 L 2.890625 -5.015625 L 2.890625 0 L 1.34375 0 L 1.34375 -12.59375 L 5.640625 -12.59375 C 6.648438 -12.59375 7.484375 -12.40625 8.140625 -12.03125 C 8.796875 -11.664062 9.265625 -11.191406 9.546875 -10.609375 C 9.835938 -10.035156 9.984375 -9.429688 9.984375 -8.796875 C 9.984375 -7.921875 9.722656 -7.132812 9.203125 -6.4375 C 8.679688 -5.75 7.867188 -5.304688 6.765625 -5.109375 L 10.09375 0 L 8.390625 0 Z M 2.890625 -6.359375 L 5.4375 -6.359375 C 6.289062 -6.359375 7.007812 -6.539062 7.59375 -6.90625 C 8.1875 -7.28125 8.484375 -7.910156 8.484375 -8.796875 C 8.484375 -9.671875 8.1875 -10.289062 7.59375 -10.65625 C 7.007812 -11.019531 6.289062 -11.203125 5.4375 -11.203125 L 2.890625 -11.203125 Z M 2.890625 -6.359375 "/></g></g></g><g fill="#ffffff" fill-opacity="1"><g transform="translate(91.88997, 777.374981)"><g><path d="M 4.71875 0.015625 L 4.71875 -4.546875 L 0.609375 -12.59375 L 2.296875 -12.59375 L 5.4375 -6.296875 L 5.5625 -6.296875 L 8.671875 -12.59375 L 10.375 -12.59375 L 6.28125 -4.546875 L 6.28125 0 Z M 4.71875 0.015625 "/></g></g></g><g fill="#ffffff" fill-opacity="1"><g transform="translate(102.941941, 777.374981)"><g><path d="M 8.6875 -3.671875 L 3.5625 -3.671875 L 2.234375 0 L 0.640625 0 L 5.375 -12.59375 L 6.859375 -12.59375 L 11.625 0 L 10.046875 0 Z M 8.25 -4.90625 L 6.140625 -10.625 L 6.0625 -10.625 L 4.015625 -4.90625 Z M 8.25 -4.90625 "/></g></g></g><g fill="#ffffff" fill-opacity="1"><g transform="translate(115.1819, 777.374981)"><g><path d="M 1.34375 -12.59375 L 3.09375 -12.59375 L 9.84375 -2.484375 L 9.921875 -2.484375 L 9.921875 -12.59375 L 11.453125 -12.59375 L 11.453125 0 L 9.6875 0 L 2.953125 -9.96875 L 2.875 -9.96875 L 2.875 0 L 1.34375 0 Z M 1.34375 -12.59375 "/></g></g></g><g fill="#ffffff" fill-opacity="1"><g transform="translate(127.979862, 777.374981)"><g/></g></g><g fill="#ffffff" fill-opacity="1"><g transform="translate(132.119854, 777.374981)"><g><path d="M 1.40625 -12.59375 L 2.96875 -12.59375 L 2.96875 0 L 1.40625 0 Z M 1.40625 -12.59375 "/></g></g></g><g fill="#ffffff" fill-opacity="1"><g transform="translate(136.493843, 777.374981)"><g><path d="M 1.34375 -12.59375 L 6.390625 -12.59375 C 7.234375 -12.59375 7.921875 -12.429688 8.453125 -12.109375 C 8.984375 -11.785156 9.363281 -11.378906 9.59375 -10.890625 C 9.820312 -10.410156 9.9375 -9.910156 9.9375 -9.390625 C 9.9375 -8.859375 9.820312 -8.390625 9.59375 -7.984375 C 9.363281 -7.585938 9.085938 -7.28125 8.765625 -7.0625 C 8.441406 -6.851562 8.132812 -6.71875 7.84375 -6.65625 L 7.84375 -6.546875 C 8.15625 -6.523438 8.519531 -6.414062 8.9375 -6.21875 C 9.351562 -6.019531 9.71875 -5.703125 10.03125 -5.265625 C 10.351562 -4.828125 10.515625 -4.269531 10.515625 -3.59375 C 10.515625 -3 10.378906 -2.425781 10.109375 -1.875 C 9.835938 -1.332031 9.410156 -0.882812 8.828125 -0.53125 C 8.253906 -0.175781 7.535156 0 6.671875 0 L 1.34375 0 Z M 5.9375 -7.078125 C 6.625 -7.078125 7.210938 -7.253906 7.703125 -7.609375 C 8.191406 -7.960938 8.4375 -8.507812 8.4375 -9.25 C 8.4375 -9.957031 8.195312 -10.472656 7.71875 -10.796875 C 7.25 -11.117188 6.65625 -11.28125 5.9375 -11.28125 L 2.859375 -11.28125 L 2.859375 -7.078125 Z M 6.28125 -1.3125 C 7.0625 -1.3125 7.707031 -1.488281 8.21875 -1.84375 C 8.738281 -2.207031 9 -2.800781 9 -3.625 C 9 -4.425781 8.738281 -4.992188 8.21875 -5.328125 C 7.707031 -5.671875 7.0625 -5.84375 6.28125 -5.84375 L 2.859375 -5.84375 L 2.859375 -1.3125 Z M 6.28125 -1.3125 "/></g></g></g><g fill="#ffffff" fill-opacity="1"><g transform="translate(147.725806, 777.374981)"><g><path d="M 5.140625 -5.015625 L 2.890625 -5.015625 L 2.890625 0 L 1.34375 0 L 1.34375 -12.59375 L 5.640625 -12.59375 C 6.648438 -12.59375 7.484375 -12.40625 8.140625 -12.03125 C 8.796875 -11.664062 9.265625 -11.191406 9.546875 -10.609375 C 9.835938 -10.035156 9.984375 -9.429688 9.984375 -8.796875 C 9.984375 -7.921875 9.722656 -7.132812 9.203125 -6.4375 C 8.679688 -5.75 7.867188 -5.304688 6.765625 -5.109375 L 10.09375 0 L 8.390625 0 Z M 2.890625 -6.359375 L 5.4375 -6.359375 C 6.289062 -6.359375 7.007812 -6.539062 7.59375 -6.90625 C 8.1875 -7.28125 8.484375 -7.910156 8.484375 -8.796875 C 8.484375 -9.671875 8.1875 -10.289062 7.59375 -10.65625 C 7.007812 -11.019531 6.289062 -11.203125 5.4375 -11.203125 L 2.890625 -11.203125 Z M 2.890625 -6.359375 "/></g></g></g><g fill="#ffffff" fill-opacity="1"><g transform="translate(158.615775, 777.374981)"><g><path d="M 8.6875 -3.671875 L 3.5625 -3.671875 L 2.234375 0 L 0.640625 0 L 5.375 -12.59375 L 6.859375 -12.59375 L 11.625 0 L 10.046875 0 Z M 8.25 -4.90625 L 6.140625 -10.625 L 6.0625 -10.625 L 4.015625 -4.90625 Z M 8.25 -4.90625 "/></g></g></g><g fill="#ffffff" fill-opacity="1"><g transform="translate(170.855734, 777.374981)"><g><path d="M 10.875 -12.59375 L 10.875 0 L 9.3125 0 L 9.3125 -5.703125 L 2.890625 -5.703125 L 2.890625 0 L 1.34375 0 L 1.34375 -12.59375 L 2.890625 -12.59375 L 2.890625 -6.96875 L 9.3125 -6.96875 L 9.3125 -12.59375 Z M 10.875 -12.59375 "/></g></g></g><g fill="#ffffff" fill-opacity="1"><g transform="translate(183.077703, 777.374981)"><g><path d="M 1.40625 -12.59375 L 2.96875 -12.59375 L 2.96875 0 L 1.40625 0 Z M 1.40625 -12.59375 "/></g></g></g><g fill="#ffffff" fill-opacity="1"><g transform="translate(187.451692, 777.374981)"><g><path d="M 1.34375 -12.59375 L 3.640625 -12.59375 L 7.375 -2.953125 L 7.4375 -2.953125 L 11.171875 -12.59375 L 13.46875 -12.59375 L 13.46875 0 L 11.9375 0 L 11.9375 -10.203125 L 11.859375 -10.203125 L 7.953125 0 L 6.84375 0 L 2.953125 -10.203125 L 2.875 -10.203125 L 2.875 0 L 1.34375 0 Z M 1.34375 -12.59375 "/></g></g></g></svg>