<svg xmlns="http://www.w3.org/2000/svg" xmlns:xlink="http://www.w3.org/1999/xlink" width="1920" zoomAndPan="magnify" viewBox="0 0 1440 809.999993" height="1080" preserveAspectRatio="xMidYMid meet" version="1.0"><defs><g/></defs><rect x="-144" width="1728" fill="#ffffff" y="-80.999999" height="971.999992" fill-opacity="1"/><rect x="-144" width="1728" fill="#faf4eb" y="-80.999999" height="971.999992" fill-opacity="1"/><path fill="#2d3e70" d="M 0 729 L 1439.964844 729 L 1439.964844 810 L 0 810 Z M 0 729 " fill-opacity="1" fill-rule="nonzero"/><g fill="#2d3e70" fill-opacity="1"><g transform="translate(227.636717, 315.606009)"><g><path d="M 1.125 -2.375 C 3.269531 -2.46875 5.15625 -3.070312 6.78125 -4.1875 C 8.414062 -5.3125 9.234375 -7.226562 9.234375 -9.9375 L 9.234375 -80.78125 C 9.234375 -83.488281 8.414062 -85.425781 6.78125 -86.59375 C 5.15625 -87.757812 3.269531 -88.390625 1.125 -88.484375 L 1.125 -90.71875 C 6.53125 -90.71875 11.894531 -90.738281 17.21875 -90.78125 C 22.539062 -90.832031 27.90625 -90.859375 33.3125 -90.859375 C 36.300781 -90.859375 39.566406 -90.765625 43.109375 -90.578125 C 46.660156 -90.390625 49.789062 -89.878906 52.5 -89.046875 C 58.007812 -87.453125 62.1875 -84.296875 65.03125 -79.578125 C 67.875 -74.867188 69.296875 -69.671875 69.296875 -63.984375 C 69.296875 -58.285156 67.875 -53.078125 65.03125 -48.359375 C 62.1875 -43.648438 58.007812 -40.457031 52.5 -38.78125 C 50.632812 -38.21875 48.507812 -37.816406 46.125 -37.578125 C 43.75 -37.347656 41.300781 -37.1875 38.78125 -37.09375 C 36.257812 -37 33.785156 -36.972656 31.359375 -37.015625 C 28.929688 -37.066406 26.691406 -37.09375 24.640625 -37.09375 L 23.65625 -37.234375 L 23.65625 -9.9375 C 23.65625 -7.226562 24.445312 -5.3125 26.03125 -4.1875 C 27.625 -3.070312 29.492188 -2.46875 31.640625 -2.375 L 31.640625 0 L 1.125 0 Z M 23.65625 -39.765625 L 24.640625 -39.765625 C 25.941406 -39.765625 27.382812 -39.765625 28.96875 -39.765625 C 30.5625 -39.765625 32.242188 -39.8125 34.015625 -39.90625 C 35.703125 -40 37.359375 -40.179688 38.984375 -40.453125 C 40.617188 -40.734375 42.046875 -41.15625 43.265625 -41.71875 C 45.960938 -42.9375 48.101562 -44.800781 49.6875 -47.3125 C 51.28125 -49.832031 52.40625 -52.585938 53.0625 -55.578125 C 53.71875 -58.566406 54.046875 -61.320312 54.046875 -63.84375 C 54.046875 -66.457031 53.71875 -69.253906 53.0625 -72.234375 C 52.40625 -75.222656 51.28125 -78 49.6875 -80.5625 C 48.101562 -83.132812 45.914062 -85.023438 43.125 -86.234375 C 41.90625 -86.796875 40.476562 -87.191406 38.84375 -87.421875 C 37.21875 -87.660156 35.5625 -87.828125 33.875 -87.921875 C 32.195312 -88.109375 30.5625 -88.203125 28.96875 -88.203125 C 27.382812 -88.203125 25.941406 -88.203125 24.640625 -88.203125 L 23.65625 -88.203125 Z M 23.65625 -39.765625 "/></g></g></g><g fill="#2d3e70" fill-opacity="1"><g transform="translate(298.052783, 315.606009)"><g><path d="M 3.5 -32.0625 C 3.5 -38.125 4.59375 -43.722656 6.78125 -48.859375 C 8.976562 -53.992188 12.222656 -58.125 16.515625 -61.25 C 20.804688 -64.375 26.128906 -65.9375 32.484375 -65.9375 C 37.984375 -65.9375 42.671875 -64.695312 46.546875 -62.21875 C 50.421875 -59.75 53.382812 -56.367188 55.4375 -52.078125 C 57.488281 -47.785156 58.515625 -42.976562 58.515625 -37.65625 L 58.515625 -37.234375 L 18.625 -37.234375 L 18.625 -35.28125 C 18.625 -32.289062 18.992188 -29.207031 19.734375 -26.03125 C 20.484375 -22.863281 21.648438 -19.898438 23.234375 -17.140625 C 24.828125 -14.390625 26.90625 -12.148438 29.46875 -10.421875 C 32.03125 -8.703125 35.179688 -7.84375 38.921875 -7.84375 C 42.367188 -7.84375 45.75 -8.65625 49.0625 -10.28125 C 52.382812 -11.914062 55.070312 -14.132812 57.125 -16.9375 L 58.375 -16.09375 C 55.582031 -10.6875 52.34375 -6.414062 48.65625 -3.28125 C 44.96875 -0.15625 39.8125 1.40625 33.1875 1.40625 C 26.738281 1.40625 21.320312 -0.0859375 16.9375 -3.078125 C 12.550781 -6.066406 9.210938 -10.101562 6.921875 -15.1875 C 4.640625 -20.269531 3.5 -25.894531 3.5 -32.0625 Z M 18.90625 -40.453125 L 18.90625 -39.484375 L 43.546875 -39.484375 L 43.546875 -40.453125 C 43.453125 -42.140625 43.191406 -44.265625 42.765625 -46.828125 C 42.347656 -49.398438 41.695312 -51.988281 40.8125 -54.59375 C 39.925781 -57.207031 38.734375 -59.398438 37.234375 -61.171875 C 35.742188 -62.953125 33.925781 -63.84375 31.78125 -63.84375 C 29.539062 -63.84375 27.648438 -62.953125 26.109375 -61.171875 C 24.566406 -59.398438 23.28125 -57.226562 22.25 -54.65625 C 21.226562 -52.09375 20.460938 -49.503906 19.953125 -46.890625 C 19.441406 -44.285156 19.09375 -42.140625 18.90625 -40.453125 Z M 18.90625 -40.453125 "/></g></g></g><g fill="#2d3e70" fill-opacity="1"><g transform="translate(360.209304, 315.606009)"><g><path d="M 1.125 -57.546875 L 22.265625 -64.265625 L 22.265625 -58.234375 L 23.796875 -59.640625 C 26.222656 -61.785156 28.929688 -63.367188 31.921875 -64.390625 C 34.910156 -65.421875 37.988281 -65.9375 41.15625 -65.9375 C 44.988281 -65.9375 48.65625 -65.304688 52.15625 -64.046875 C 55.65625 -62.785156 58.242188 -60.382812 59.921875 -56.84375 L 60.625 -55.4375 L 61.59375 -56.703125 C 63.925781 -59.867188 66.863281 -62.195312 70.40625 -63.6875 C 73.957031 -65.1875 77.648438 -65.9375 81.484375 -65.9375 C 87.546875 -65.9375 92.328125 -64.46875 95.828125 -61.53125 C 99.328125 -58.59375 101.078125 -53.945312 101.078125 -47.59375 L 101.078125 -9.9375 C 101.078125 -4.988281 103.316406 -2.46875 107.796875 -2.375 L 107.796875 0 L 80.078125 0 L 80.078125 -2.375 C 84.460938 -2.46875 86.65625 -4.988281 86.65625 -9.9375 L 86.65625 -47.3125 C 86.65625 -49.644531 86.257812 -51.976562 85.46875 -54.3125 C 84.675781 -56.644531 83.414062 -58.582031 81.6875 -60.125 C 79.957031 -61.664062 77.648438 -62.4375 74.765625 -62.4375 C 72.242188 -62.4375 70 -61.664062 68.03125 -60.125 C 66.070312 -58.582031 64.507812 -56.691406 63.34375 -54.453125 C 62.175781 -52.210938 61.59375 -49.925781 61.59375 -47.59375 L 61.59375 -9.9375 C 61.59375 -4.988281 63.832031 -2.46875 68.3125 -2.375 L 68.3125 0 L 40.59375 0 L 40.59375 -2.375 C 43.019531 -2.46875 44.722656 -3.117188 45.703125 -4.328125 C 46.691406 -5.546875 47.1875 -7.414062 47.1875 -9.9375 L 47.1875 -47.3125 C 47.1875 -51.425781 46.34375 -54.972656 44.65625 -57.953125 C 42.976562 -60.941406 39.710938 -62.4375 34.859375 -62.4375 C 32.242188 -62.4375 29.976562 -61.644531 28.0625 -60.0625 C 26.15625 -58.476562 24.710938 -56.519531 23.734375 -54.1875 C 22.753906 -51.851562 22.265625 -49.5625 22.265625 -47.3125 L 22.265625 -9.9375 C 22.265625 -4.988281 24.457031 -2.46875 28.84375 -2.375 L 28.84375 0 L 1.125 0 L 1.125 -2.375 C 5.601562 -2.46875 7.84375 -4.988281 7.84375 -9.9375 L 7.84375 -47.3125 C 7.84375 -52.164062 5.601562 -54.734375 1.125 -55.015625 Z M 1.125 -57.546875 "/></g></g></g><g fill="#2d3e70" fill-opacity="1"><g transform="translate(468.983217, 315.606009)"><g><path d="M -0.421875 -91 L 20.71875 -97.578125 L 20.71875 -54.734375 L 22.546875 -57.953125 C 24.128906 -60.753906 26.484375 -62.785156 29.609375 -64.046875 C 32.734375 -65.304688 35.882812 -65.9375 39.0625 -65.9375 C 45.21875 -65.9375 50.046875 -64.394531 53.546875 -61.3125 C 57.046875 -58.238281 59.539062 -54.25 61.03125 -49.34375 C 62.53125 -44.445312 63.28125 -39.195312 63.28125 -33.59375 C 63.28125 -27.25 62.347656 -21.53125 60.484375 -16.4375 C 58.617188 -11.351562 55.65625 -7.34375 51.59375 -4.40625 C 47.53125 -1.46875 42.09375 0 35.28125 0 C 31.820312 0 28.644531 -0.460938 25.75 -1.390625 C 22.863281 -2.328125 19.925781 -3.679688 16.9375 -5.453125 L 16.375 -5.734375 L 6.296875 0.28125 L 6.296875 -80.78125 C 6.296875 -85.632812 4.054688 -88.203125 -0.421875 -88.484375 Z M 20.71875 -51.515625 L 20.71875 -11.0625 C 20.71875 -10.59375 20.8125 -10.171875 21 -9.796875 C 22.03125 -7.742188 23.382812 -6.039062 25.0625 -4.6875 C 26.738281 -3.332031 28.789062 -2.65625 31.21875 -2.65625 C 34.675781 -2.65625 37.5 -3.890625 39.6875 -6.359375 C 41.882812 -8.835938 43.585938 -11.894531 44.796875 -15.53125 C 46.015625 -19.175781 46.851562 -22.890625 47.3125 -26.671875 C 47.78125 -30.453125 48.015625 -33.601562 48.015625 -36.125 C 48.015625 -38.269531 47.851562 -40.785156 47.53125 -43.671875 C 47.207031 -46.566406 46.53125 -49.390625 45.5 -52.140625 C 44.46875 -54.898438 42.992188 -57.210938 41.078125 -59.078125 C 39.171875 -60.941406 36.628906 -61.875 33.453125 -61.875 C 31.023438 -61.875 28.851562 -61.148438 26.9375 -59.703125 C 25.03125 -58.265625 23.472656 -56.609375 22.265625 -54.734375 C 22.265625 -54.734375 22.171875 -54.59375 21.984375 -54.3125 C 21.796875 -54.039062 21.609375 -53.765625 21.421875 -53.484375 C 21.328125 -53.203125 21.1875 -52.875 21 -52.5 C 20.90625 -52.40625 20.859375 -52.332031 20.859375 -52.28125 C 20.859375 -52.238281 20.859375 -52.21875 20.859375 -52.21875 C 20.765625 -52.03125 20.71875 -51.796875 20.71875 -51.515625 Z M 20.71875 -51.515625 "/></g></g></g><g fill="#2d3e70" fill-opacity="1"><g transform="translate(535.199507, 315.606009)"><g><path d="M 24.078125 1.265625 C 20.160156 1.265625 16.566406 0.566406 13.296875 -0.828125 C 10.035156 -2.234375 7.398438 -4.359375 5.390625 -7.203125 C 3.378906 -10.054688 2.375 -13.535156 2.375 -17.640625 C 2.375 -22.492188 3.492188 -26.578125 5.734375 -29.890625 C 7.972656 -33.203125 11.003906 -35.722656 14.828125 -37.453125 C 18.660156 -39.179688 22.863281 -40.046875 27.4375 -40.046875 C 29.113281 -40.046875 30.769531 -39.925781 32.40625 -39.6875 C 34.039062 -39.457031 35.601562 -39.015625 37.09375 -38.359375 L 38.5 -37.796875 L 38.5 -48.015625 C 38.5 -49.421875 38.453125 -51.101562 38.359375 -53.0625 C 38.265625 -55.019531 37.984375 -56.601562 37.515625 -57.8125 C 37.046875 -59.5 36.226562 -60.925781 35.0625 -62.09375 C 33.894531 -63.257812 32.191406 -63.84375 29.953125 -63.84375 C 27.160156 -63.84375 25.0625 -63.046875 23.65625 -61.453125 C 22.257812 -59.867188 21.347656 -57.957031 20.921875 -55.71875 C 20.503906 -53.476562 20.296875 -51.378906 20.296875 -49.421875 C 20.296875 -47.929688 19.476562 -46.8125 17.84375 -46.0625 C 16.21875 -45.3125 14.5625 -44.9375 12.875 -44.9375 C 11.289062 -44.9375 9.726562 -45.285156 8.1875 -45.984375 C 6.644531 -46.691406 5.875 -47.789062 5.875 -49.28125 C 5.875 -53.476562 7.132812 -56.789062 9.65625 -59.21875 C 12.175781 -61.644531 15.328125 -63.367188 19.109375 -64.390625 C 22.890625 -65.421875 26.597656 -65.9375 30.234375 -65.9375 C 37.046875 -65.9375 42.53125 -64.347656 46.6875 -61.171875 C 50.84375 -58.003906 52.921875 -52.921875 52.921875 -45.921875 L 52.921875 -10.5 C 52.921875 -10.21875 52.921875 -9.957031 52.921875 -9.71875 C 52.921875 -9.488281 52.921875 -9.234375 52.921875 -8.953125 C 52.921875 -8.679688 52.941406 -8.378906 52.984375 -8.046875 C 53.035156 -7.722656 53.109375 -7.421875 53.203125 -7.140625 C 53.390625 -6.578125 53.691406 -6.039062 54.109375 -5.53125 C 54.523438 -5.019531 55.203125 -4.765625 56.140625 -4.765625 C 57.171875 -4.765625 58.148438 -5.085938 59.078125 -5.734375 L 60.203125 -4.34375 C 58.703125 -2.570312 56.898438 -1.285156 54.796875 -0.484375 C 52.703125 0.304688 50.441406 0.703125 48.015625 0.703125 C 46.242188 0.703125 44.632812 0.328125 43.1875 -0.421875 C 41.738281 -1.171875 40.597656 -2.289062 39.765625 -3.78125 L 39.203125 -4.90625 L 38.21875 -4.0625 C 36.351562 -2.101562 34.207031 -0.726562 31.78125 0.0625 C 29.351562 0.863281 26.785156 1.265625 24.078125 1.265625 Z M 17.5 -17.078125 C 17.5 -14.929688 17.78125 -12.644531 18.34375 -10.21875 C 18.90625 -7.789062 19.953125 -5.738281 21.484375 -4.0625 C 23.023438 -2.382812 25.289062 -1.546875 28.28125 -1.546875 C 29.675781 -1.546875 31.164062 -1.894531 32.75 -2.59375 C 34.34375 -3.289062 35.695312 -4.289062 36.8125 -5.59375 C 37.9375 -6.90625 38.5 -8.398438 38.5 -10.078125 L 38.5 -35.84375 L 37.796875 -36.125 C 37.140625 -36.40625 36.414062 -36.585938 35.625 -36.671875 C 34.832031 -36.765625 34.0625 -36.8125 33.3125 -36.8125 C 29.488281 -36.8125 26.410156 -35.851562 24.078125 -33.9375 C 21.742188 -32.03125 20.0625 -29.5625 19.03125 -26.53125 C 18.007812 -23.5 17.5 -20.347656 17.5 -17.078125 Z M 17.5 -17.078125 "/></g></g></g><g fill="#2d3e70" fill-opacity="1"><g transform="translate(596.656062, 315.606009)"><g><path d="M 0.703125 -91 L 21.84375 -97.578125 L 21.84375 -57.6875 L 23.515625 -59.21875 C 25.847656 -61.550781 28.554688 -63.253906 31.640625 -64.328125 C 34.722656 -65.398438 37.847656 -65.9375 41.015625 -65.9375 C 47.179688 -65.9375 52.363281 -64.535156 56.5625 -61.734375 C 60.757812 -58.941406 62.859375 -54.226562 62.859375 -47.59375 L 62.859375 -9.9375 C 62.859375 -4.988281 65.050781 -2.46875 69.4375 -2.375 L 69.4375 0 L 41.71875 0 L 41.71875 -2.375 C 46.195312 -2.46875 48.4375 -4.988281 48.4375 -9.9375 L 48.4375 -47.59375 C 48.4375 -51.894531 47.457031 -55.488281 45.5 -58.375 C 43.539062 -61.269531 40.132812 -62.71875 35.28125 -62.71875 C 32.570312 -62.71875 30.191406 -61.96875 28.140625 -60.46875 C 26.085938 -58.976562 24.523438 -57.085938 23.453125 -54.796875 C 22.378906 -52.515625 21.84375 -50.113281 21.84375 -47.59375 L 21.84375 -9.9375 C 21.84375 -4.988281 24.035156 -2.46875 28.421875 -2.375 L 28.421875 0 L 0.703125 0 L 0.703125 -2.375 C 5.179688 -2.46875 7.421875 -4.988281 7.421875 -9.9375 L 7.421875 -80.78125 C 7.421875 -85.632812 5.179688 -88.203125 0.703125 -88.484375 Z M 0.703125 -91 "/></g></g></g><g fill="#2d3e70" fill-opacity="1"><g transform="translate(665.812202, 315.606009)"><g><path d="M 24.078125 1.265625 C 20.160156 1.265625 16.566406 0.566406 13.296875 -0.828125 C 10.035156 -2.234375 7.398438 -4.359375 5.390625 -7.203125 C 3.378906 -10.054688 2.375 -13.535156 2.375 -17.640625 C 2.375 -22.492188 3.492188 -26.578125 5.734375 -29.890625 C 7.972656 -33.203125 11.003906 -35.722656 14.828125 -37.453125 C 18.660156 -39.179688 22.863281 -40.046875 27.4375 -40.046875 C 29.113281 -40.046875 30.769531 -39.925781 32.40625 -39.6875 C 34.039062 -39.457031 35.601562 -39.015625 37.09375 -38.359375 L 38.5 -37.796875 L 38.5 -48.015625 C 38.5 -49.421875 38.453125 -51.101562 38.359375 -53.0625 C 38.265625 -55.019531 37.984375 -56.601562 37.515625 -57.8125 C 37.046875 -59.5 36.226562 -60.925781 35.0625 -62.09375 C 33.894531 -63.257812 32.191406 -63.84375 29.953125 -63.84375 C 27.160156 -63.84375 25.0625 -63.046875 23.65625 -61.453125 C 22.257812 -59.867188 21.347656 -57.957031 20.921875 -55.71875 C 20.503906 -53.476562 20.296875 -51.378906 20.296875 -49.421875 C 20.296875 -47.929688 19.476562 -46.8125 17.84375 -46.0625 C 16.21875 -45.3125 14.5625 -44.9375 12.875 -44.9375 C 11.289062 -44.9375 9.726562 -45.285156 8.1875 -45.984375 C 6.644531 -46.691406 5.875 -47.789062 5.875 -49.28125 C 5.875 -53.476562 7.132812 -56.789062 9.65625 -59.21875 C 12.175781 -61.644531 15.328125 -63.367188 19.109375 -64.390625 C 22.890625 -65.421875 26.597656 -65.9375 30.234375 -65.9375 C 37.046875 -65.9375 42.53125 -64.347656 46.6875 -61.171875 C 50.84375 -58.003906 52.921875 -52.921875 52.921875 -45.921875 L 52.921875 -10.5 C 52.921875 -10.21875 52.921875 -9.957031 52.921875 -9.71875 C 52.921875 -9.488281 52.921875 -9.234375 52.921875 -8.953125 C 52.921875 -8.679688 52.941406 -8.378906 52.984375 -8.046875 C 53.035156 -7.722656 53.109375 -7.421875 53.203125 -7.140625 C 53.390625 -6.578125 53.691406 -6.039062 54.109375 -5.53125 C 54.523438 -5.019531 55.203125 -4.765625 56.140625 -4.765625 C 57.171875 -4.765625 58.148438 -5.085938 59.078125 -5.734375 L 60.203125 -4.34375 C 58.703125 -2.570312 56.898438 -1.285156 54.796875 -0.484375 C 52.703125 0.304688 50.441406 0.703125 48.015625 0.703125 C 46.242188 0.703125 44.632812 0.328125 43.1875 -0.421875 C 41.738281 -1.171875 40.597656 -2.289062 39.765625 -3.78125 L 39.203125 -4.90625 L 38.21875 -4.0625 C 36.351562 -2.101562 34.207031 -0.726562 31.78125 0.0625 C 29.351562 0.863281 26.785156 1.265625 24.078125 1.265625 Z M 17.5 -17.078125 C 17.5 -14.929688 17.78125 -12.644531 18.34375 -10.21875 C 18.90625 -7.789062 19.953125 -5.738281 21.484375 -4.0625 C 23.023438 -2.382812 25.289062 -1.546875 28.28125 -1.546875 C 29.675781 -1.546875 31.164062 -1.894531 32.75 -2.59375 C 34.34375 -3.289062 35.695312 -4.289062 36.8125 -5.59375 C 37.9375 -6.90625 38.5 -8.398438 38.5 -10.078125 L 38.5 -35.84375 L 37.796875 -36.125 C 37.140625 -36.40625 36.414062 -36.585938 35.625 -36.671875 C 34.832031 -36.765625 34.0625 -36.8125 33.3125 -36.8125 C 29.488281 -36.8125 26.410156 -35.851562 24.078125 -33.9375 C 21.742188 -32.03125 20.0625 -29.5625 19.03125 -26.53125 C 18.007812 -23.5 17.5 -20.347656 17.5 -17.078125 Z M 17.5 -17.078125 "/></g></g></g><g fill="#2d3e70" fill-opacity="1"><g transform="translate(727.268757, 315.606009)"><g><path d="M 2.9375 -7 C 2.84375 -7.1875 2.769531 -7.328125 2.71875 -7.421875 C 2.675781 -7.515625 2.609375 -7.609375 2.515625 -7.703125 L 4.625 -21 L 6.015625 -21 C 6.203125 -18.476562 7.019531 -16.003906 8.46875 -13.578125 C 9.914062 -11.148438 11.757812 -8.976562 14 -7.0625 C 16.238281 -5.15625 18.640625 -3.617188 21.203125 -2.453125 C 23.773438 -1.285156 26.226562 -0.703125 28.5625 -0.703125 C 30.050781 -0.703125 31.679688 -0.976562 33.453125 -1.53125 C 35.234375 -2.09375 36.773438 -3.023438 38.078125 -4.328125 C 39.390625 -5.640625 40.046875 -7.320312 40.046875 -9.375 C 40.046875 -11.519531 39.390625 -13.382812 38.078125 -14.96875 C 36.773438 -16.5625 35.1875 -17.988281 33.3125 -19.25 C 31.445312 -20.507812 29.675781 -21.609375 28 -22.546875 C 26.96875 -23.191406 25.890625 -23.816406 24.765625 -24.421875 C 23.648438 -25.035156 22.535156 -25.664062 21.421875 -26.3125 C 18.429688 -28.09375 15.582031 -29.960938 12.875 -31.921875 C 10.164062 -33.878906 7.972656 -36.140625 6.296875 -38.703125 C 4.617188 -41.273438 3.78125 -44.238281 3.78125 -47.59375 C 3.78125 -52.070312 4.96875 -55.640625 7.34375 -58.296875 C 9.726562 -60.960938 12.8125 -62.898438 16.59375 -64.109375 C 20.375 -65.328125 24.269531 -65.9375 28.28125 -65.9375 C 32.007812 -65.9375 35.644531 -65.304688 39.1875 -64.046875 C 42.738281 -62.785156 45.820312 -60.847656 48.4375 -58.234375 C 48.4375 -58.234375 48.738281 -57.90625 49.34375 -57.25 C 49.957031 -56.601562 50.3125 -56.1875 50.40625 -56 L 50.40625 -45.640625 L 48.4375 -45.640625 C 47.320312 -48.160156 45.6875 -50.84375 43.53125 -53.6875 C 41.382812 -56.53125 38.890625 -58.929688 36.046875 -60.890625 C 33.203125 -62.859375 30.238281 -63.84375 27.15625 -63.84375 C 24.539062 -63.84375 22.347656 -63.023438 20.578125 -61.390625 C 18.804688 -59.753906 17.921875 -57.582031 17.921875 -54.875 C 17.921875 -51.238281 19.15625 -48.207031 21.625 -45.78125 C 24.101562 -43.351562 26.742188 -41.300781 29.546875 -39.625 C 30.566406 -38.96875 31.632812 -38.359375 32.75 -37.796875 C 33.875 -37.234375 35 -36.628906 36.125 -35.984375 C 39.101562 -34.390625 41.898438 -32.707031 44.515625 -30.9375 C 47.128906 -29.164062 49.226562 -27.160156 50.8125 -24.921875 C 52.40625 -22.679688 53.203125 -19.972656 53.203125 -16.796875 C 53.203125 -14.179688 52.453125 -11.660156 50.953125 -9.234375 C 48.617188 -5.222656 45.210938 -2.445312 40.734375 -0.90625 C 36.253906 0.632812 31.726562 1.40625 27.15625 1.40625 C 22.863281 1.40625 18.523438 0.773438 14.140625 -0.484375 C 9.753906 -1.742188 6.019531 -3.914062 2.9375 -7 Z M 2.9375 -7 "/></g></g></g><g fill="#2d3e70" fill-opacity="1"><g transform="translate(781.865724, 315.606009)"><g><path d="M 24.078125 1.265625 C 20.160156 1.265625 16.566406 0.566406 13.296875 -0.828125 C 10.035156 -2.234375 7.398438 -4.359375 5.390625 -7.203125 C 3.378906 -10.054688 2.375 -13.535156 2.375 -17.640625 C 2.375 -22.492188 3.492188 -26.578125 5.734375 -29.890625 C 7.972656 -33.203125 11.003906 -35.722656 14.828125 -37.453125 C 18.660156 -39.179688 22.863281 -40.046875 27.4375 -40.046875 C 29.113281 -40.046875 30.769531 -39.925781 32.40625 -39.6875 C 34.039062 -39.457031 35.601562 -39.015625 37.09375 -38.359375 L 38.5 -37.796875 L 38.5 -48.015625 C 38.5 -49.421875 38.453125 -51.101562 38.359375 -53.0625 C 38.265625 -55.019531 37.984375 -56.601562 37.515625 -57.8125 C 37.046875 -59.5 36.226562 -60.925781 35.0625 -62.09375 C 33.894531 -63.257812 32.191406 -63.84375 29.953125 -63.84375 C 27.160156 -63.84375 25.0625 -63.046875 23.65625 -61.453125 C 22.257812 -59.867188 21.347656 -57.957031 20.921875 -55.71875 C 20.503906 -53.476562 20.296875 -51.378906 20.296875 -49.421875 C 20.296875 -47.929688 19.476562 -46.8125 17.84375 -46.0625 C 16.21875 -45.3125 14.5625 -44.9375 12.875 -44.9375 C 11.289062 -44.9375 9.726562 -45.285156 8.1875 -45.984375 C 6.644531 -46.691406 5.875 -47.789062 5.875 -49.28125 C 5.875 -53.476562 7.132812 -56.789062 9.65625 -59.21875 C 12.175781 -61.644531 15.328125 -63.367188 19.109375 -64.390625 C 22.890625 -65.421875 26.597656 -65.9375 30.234375 -65.9375 C 37.046875 -65.9375 42.53125 -64.347656 46.6875 -61.171875 C 50.84375 -58.003906 52.921875 -52.921875 52.921875 -45.921875 L 52.921875 -10.5 C 52.921875 -10.21875 52.921875 -9.957031 52.921875 -9.71875 C 52.921875 -9.488281 52.921875 -9.234375 52.921875 -8.953125 C 52.921875 -8.679688 52.941406 -8.378906 52.984375 -8.046875 C 53.035156 -7.722656 53.109375 -7.421875 53.203125 -7.140625 C 53.390625 -6.578125 53.691406 -6.039062 54.109375 -5.53125 C 54.523438 -5.019531 55.203125 -4.765625 56.140625 -4.765625 C 57.171875 -4.765625 58.148438 -5.085938 59.078125 -5.734375 L 60.203125 -4.34375 C 58.703125 -2.570312 56.898438 -1.285156 54.796875 -0.484375 C 52.703125 0.304688 50.441406 0.703125 48.015625 0.703125 C 46.242188 0.703125 44.632812 0.328125 43.1875 -0.421875 C 41.738281 -1.171875 40.597656 -2.289062 39.765625 -3.78125 L 39.203125 -4.90625 L 38.21875 -4.0625 C 36.351562 -2.101562 34.207031 -0.726562 31.78125 0.0625 C 29.351562 0.863281 26.785156 1.265625 24.078125 1.265625 Z M 17.5 -17.078125 C 17.5 -14.929688 17.78125 -12.644531 18.34375 -10.21875 C 18.90625 -7.789062 19.953125 -5.738281 21.484375 -4.0625 C 23.023438 -2.382812 25.289062 -1.546875 28.28125 -1.546875 C 29.675781 -1.546875 31.164062 -1.894531 32.75 -2.59375 C 34.34375 -3.289062 35.695312 -4.289062 36.8125 -5.59375 C 37.9375 -6.90625 38.5 -8.398438 38.5 -10.078125 L 38.5 -35.84375 L 37.796875 -36.125 C 37.140625 -36.40625 36.414062 -36.585938 35.625 -36.671875 C 34.832031 -36.765625 34.0625 -36.8125 33.3125 -36.8125 C 29.488281 -36.8125 26.410156 -35.851562 24.078125 -33.9375 C 21.742188 -32.03125 20.0625 -29.5625 19.03125 -26.53125 C 18.007812 -23.5 17.5 -20.347656 17.5 -17.078125 Z M 17.5 -17.078125 "/></g></g></g><g fill="#2d3e70" fill-opacity="1"><g transform="translate(843.322279, 315.606009)"><g><path d="M 1.125 -57.546875 L 22.265625 -64.265625 L 22.265625 -55.71875 L 23.9375 -58.234375 C 26.082031 -61.222656 28.785156 -63.253906 32.046875 -64.328125 C 35.316406 -65.398438 38.679688 -65.9375 42.140625 -65.9375 C 48.203125 -65.9375 53.144531 -64.46875 56.96875 -61.53125 C 60.800781 -58.59375 62.71875 -53.945312 62.71875 -47.59375 L 62.71875 -9.9375 C 62.71875 -7.414062 63.226562 -5.546875 64.25 -4.328125 C 65.28125 -3.117188 66.960938 -2.46875 69.296875 -2.375 L 69.296875 0 L 41.578125 0 L 41.578125 -2.375 C 46.054688 -2.46875 48.296875 -4.988281 48.296875 -9.9375 L 48.296875 -47.3125 C 48.296875 -49.738281 47.851562 -52.09375 46.96875 -54.375 C 46.082031 -56.664062 44.75 -58.582031 42.96875 -60.125 C 41.195312 -61.664062 38.867188 -62.4375 35.984375 -62.4375 C 33.554688 -62.4375 31.289062 -61.644531 29.1875 -60.0625 C 27.09375 -58.476562 25.414062 -56.519531 24.15625 -54.1875 C 22.894531 -51.851562 22.265625 -49.5625 22.265625 -47.3125 L 22.265625 -9.9375 C 22.265625 -4.988281 24.457031 -2.46875 28.84375 -2.375 L 28.84375 0 L 1.125 0 L 1.125 -2.375 C 5.601562 -2.46875 7.84375 -4.988281 7.84375 -9.9375 L 7.84375 -47.3125 C 7.84375 -52.164062 5.601562 -54.734375 1.125 -55.015625 Z M 1.125 -57.546875 "/></g></g></g><g fill="#2d3e70" fill-opacity="1"><g transform="translate(912.758387, 315.606009)"><g/></g></g><g fill="#2d3e70" fill-opacity="1"><g transform="translate(939.916864, 315.606009)"><g><path d="M 0.984375 -90.71875 L 31.5 -90.71875 L 31.5 -88.484375 C 29.351562 -88.390625 27.484375 -87.757812 25.890625 -86.59375 C 24.304688 -85.425781 23.515625 -83.488281 23.515625 -80.78125 L 23.796875 -2.234375 L 35.84375 -2.234375 C 40.226562 -2.234375 44.585938 -2.835938 48.921875 -4.046875 C 53.265625 -5.265625 57.234375 -7.179688 60.828125 -9.796875 C 64.421875 -12.410156 67.242188 -15.863281 69.296875 -20.15625 L 71.546875 -20.015625 L 66.078125 0 L 0.984375 0 L 0.984375 -2.375 C 3.128906 -2.46875 5.015625 -3.070312 6.640625 -4.1875 C 8.273438 -5.3125 9.09375 -7.226562 9.09375 -9.9375 L 9.09375 -80.78125 C 9.09375 -83.488281 8.273438 -85.425781 6.640625 -86.59375 C 5.015625 -87.757812 3.128906 -88.390625 0.984375 -88.484375 Z M 0.984375 -90.71875 "/></g></g></g><g fill="#2d3e70" fill-opacity="1"><g transform="translate(1012.012808, 315.606009)"><g><path d="M 33.3125 1.40625 C 26.59375 1.40625 21.015625 -0.0625 16.578125 -3 C 12.148438 -5.945312 8.835938 -9.984375 6.640625 -15.109375 C 4.453125 -20.242188 3.359375 -26.082031 3.359375 -32.625 C 3.359375 -39.15625 4.453125 -44.914062 6.640625 -49.90625 C 8.835938 -54.90625 12.148438 -58.828125 16.578125 -61.671875 C 21.015625 -64.515625 26.59375 -65.9375 33.3125 -65.9375 C 43.488281 -65.9375 51.050781 -62.851562 56 -56.6875 C 60.945312 -50.53125 63.421875 -42.507812 63.421875 -32.625 C 63.421875 -26.082031 62.320312 -20.242188 60.125 -15.109375 C 57.9375 -9.984375 54.625 -5.945312 50.1875 -3 C 45.757812 -0.0625 40.132812 1.40625 33.3125 1.40625 Z M 18.625 -32.625 C 18.625 -30.195312 18.757812 -27.1875 19.03125 -23.59375 C 19.3125 -20 19.921875 -16.425781 20.859375 -12.875 C 21.796875 -9.332031 23.265625 -6.367188 25.265625 -3.984375 C 27.273438 -1.609375 29.957031 -0.421875 33.3125 -0.421875 C 36.769531 -0.421875 39.476562 -1.609375 41.4375 -3.984375 C 43.394531 -6.367188 44.863281 -9.332031 45.84375 -12.875 C 46.820312 -16.425781 47.453125 -20 47.734375 -23.59375 C 48.015625 -27.1875 48.15625 -30.195312 48.15625 -32.625 C 48.15625 -35.144531 48.035156 -38.15625 47.796875 -41.65625 C 47.566406 -45.15625 46.960938 -48.628906 45.984375 -52.078125 C 45.003906 -55.535156 43.535156 -58.40625 41.578125 -60.6875 C 39.617188 -62.976562 36.863281 -64.125 33.3125 -64.125 C 29.863281 -64.125 27.160156 -62.976562 25.203125 -60.6875 C 23.242188 -58.40625 21.796875 -55.535156 20.859375 -52.078125 C 19.921875 -48.628906 19.3125 -45.128906 19.03125 -41.578125 C 18.757812 -38.035156 18.625 -35.050781 18.625 -32.625 Z M 18.625 -32.625 "/></g></g></g><g fill="#2d3e70" fill-opacity="1"><g transform="translate(1077.949084, 315.606009)"><g><path d="M 33.3125 1.40625 C 26.59375 1.40625 21.015625 -0.0625 16.578125 -3 C 12.148438 -5.945312 8.835938 -9.984375 6.640625 -15.109375 C 4.453125 -20.242188 3.359375 -26.082031 3.359375 -32.625 C 3.359375 -39.15625 4.453125 -44.914062 6.640625 -49.90625 C 8.835938 -54.90625 12.148438 -58.828125 16.578125 -61.671875 C 21.015625 -64.515625 26.59375 -65.9375 33.3125 -65.9375 C 43.488281 -65.9375 51.050781 -62.851562 56 -56.6875 C 60.945312 -50.53125 63.421875 -42.507812 63.421875 -32.625 C 63.421875 -26.082031 62.320312 -20.242188 60.125 -15.109375 C 57.9375 -9.984375 54.625 -5.945312 50.1875 -3 C 45.757812 -0.0625 40.132812 1.40625 33.3125 1.40625 Z M 18.625 -32.625 C 18.625 -30.195312 18.757812 -27.1875 19.03125 -23.59375 C 19.3125 -20 19.921875 -16.425781 20.859375 -12.875 C 21.796875 -9.332031 23.265625 -6.367188 25.265625 -3.984375 C 27.273438 -1.609375 29.957031 -0.421875 33.3125 -0.421875 C 36.769531 -0.421875 39.476562 -1.609375 41.4375 -3.984375 C 43.394531 -6.367188 44.863281 -9.332031 45.84375 -12.875 C 46.820312 -16.425781 47.453125 -20 47.734375 -23.59375 C 48.015625 -27.1875 48.15625 -30.195312 48.15625 -32.625 C 48.15625 -35.144531 48.035156 -38.15625 47.796875 -41.65625 C 47.566406 -45.15625 46.960938 -48.628906 45.984375 -52.078125 C 45.003906 -55.535156 43.535156 -58.40625 41.578125 -60.6875 C 39.617188 -62.976562 36.863281 -64.125 33.3125 -64.125 C 29.863281 -64.125 27.160156 -62.976562 25.203125 -60.6875 C 23.242188 -58.40625 21.796875 -55.535156 20.859375 -52.078125 C 19.921875 -48.628906 19.3125 -45.128906 19.03125 -41.578125 C 18.757812 -38.035156 18.625 -35.050781 18.625 -32.625 Z M 18.625 -32.625 "/></g></g></g><g fill="#2d3e70" fill-opacity="1"><g transform="translate(1143.88536, 315.606009)"><g><path d="M 0.984375 -58.9375 L 22.125 -65.65625 L 22.125 -54.734375 L 23.9375 -57.953125 C 25.519531 -60.753906 27.875 -62.785156 31 -64.046875 C 34.132812 -65.304688 37.285156 -65.9375 40.453125 -65.9375 C 46.617188 -65.9375 51.453125 -64.394531 54.953125 -61.3125 C 58.453125 -58.238281 60.945312 -54.25 62.4375 -49.34375 C 63.9375 -44.445312 64.6875 -39.195312 64.6875 -33.59375 C 64.6875 -27.25 63.75 -21.53125 61.875 -16.4375 C 60.007812 -11.351562 57.046875 -7.34375 52.984375 -4.40625 C 48.929688 -1.46875 43.5 0 36.6875 0 C 34.4375 0 32.097656 -0.234375 29.671875 -0.703125 C 27.253906 -1.171875 25.296875 -2.148438 23.796875 -3.640625 L 22.125 -5.453125 L 22.125 21.984375 C 22.125 27.023438 24.316406 29.59375 28.703125 29.6875 L 28.703125 32.0625 L 0.984375 32.0625 L 0.984375 29.6875 C 5.460938 29.59375 7.703125 27.023438 7.703125 21.984375 L 7.703125 -48.71875 C 7.703125 -53.570312 5.460938 -56.140625 0.984375 -56.421875 Z M 22.125 -51.515625 L 22.125 -11.0625 C 22.125 -10.59375 22.21875 -10.171875 22.40625 -9.796875 C 22.59375 -9.421875 22.6875 -9.1875 22.6875 -9.09375 C 23.613281 -7.226562 24.941406 -5.640625 26.671875 -4.328125 C 28.398438 -3.023438 30.335938 -2.375 32.484375 -2.375 C 35.835938 -2.375 38.632812 -3.632812 40.875 -6.15625 C 43.113281 -8.675781 44.835938 -11.78125 46.046875 -15.46875 C 47.265625 -19.15625 48.128906 -22.890625 48.640625 -26.671875 C 49.160156 -30.453125 49.421875 -33.601562 49.421875 -36.125 C 49.421875 -38.269531 49.253906 -40.785156 48.921875 -43.671875 C 48.597656 -46.566406 47.921875 -49.390625 46.890625 -52.140625 C 45.867188 -54.898438 44.398438 -57.210938 42.484375 -59.078125 C 40.578125 -60.941406 38.035156 -61.875 34.859375 -61.875 C 32.429688 -61.875 30.257812 -61.148438 28.34375 -59.703125 C 26.4375 -58.265625 24.875 -56.609375 23.65625 -54.734375 C 23.65625 -54.734375 23.5625 -54.59375 23.375 -54.3125 C 23.1875 -54.039062 23 -53.765625 22.8125 -53.484375 C 22.726562 -53.203125 22.59375 -52.875 22.40625 -52.5 C 22.3125 -52.40625 22.265625 -52.332031 22.265625 -52.28125 C 22.265625 -52.238281 22.265625 -52.21875 22.265625 -52.21875 C 22.171875 -52.03125 22.125 -51.796875 22.125 -51.515625 Z M 22.125 -51.515625 "/></g></g></g><g fill="#2d3e70" fill-opacity="1"><g transform="translate(353.777336, 511.355999)"><g><path d="M 0.984375 -90.71875 L 31.5 -90.71875 L 31.5 -88.484375 C 29.351562 -88.390625 27.484375 -87.757812 25.890625 -86.59375 C 24.304688 -85.425781 23.515625 -83.488281 23.515625 -80.78125 L 23.796875 -2.234375 L 35.84375 -2.234375 C 40.226562 -2.234375 44.585938 -2.835938 48.921875 -4.046875 C 53.265625 -5.265625 57.234375 -7.179688 60.828125 -9.796875 C 64.421875 -12.410156 67.242188 -15.863281 69.296875 -20.15625 L 71.546875 -20.015625 L 66.078125 0 L 0.984375 0 L 0.984375 -2.375 C 3.128906 -2.46875 5.015625 -3.070312 6.640625 -4.1875 C 8.273438 -5.3125 9.09375 -7.226562 9.09375 -9.9375 L 9.09375 -80.78125 C 9.09375 -83.488281 8.273438 -85.425781 6.640625 -86.59375 C 5.015625 -87.757812 3.128906 -88.390625 0.984375 -88.484375 Z M 0.984375 -90.71875 "/></g></g></g><g fill="#2d3e70" fill-opacity="1"><g transform="translate(425.873302, 511.355999)"><g><path d="M 3.5 -32.0625 C 3.5 -38.125 4.59375 -43.722656 6.78125 -48.859375 C 8.976562 -53.992188 12.222656 -58.125 16.515625 -61.25 C 20.804688 -64.375 26.128906 -65.9375 32.484375 -65.9375 C 37.984375 -65.9375 42.671875 -64.695312 46.546875 -62.21875 C 50.421875 -59.75 53.382812 -56.367188 55.4375 -52.078125 C 57.488281 -47.785156 58.515625 -42.976562 58.515625 -37.65625 L 58.515625 -37.234375 L 18.625 -37.234375 L 18.625 -35.28125 C 18.625 -32.289062 18.992188 -29.207031 19.734375 -26.03125 C 20.484375 -22.863281 21.648438 -19.898438 23.234375 -17.140625 C 24.828125 -14.390625 26.90625 -12.148438 29.46875 -10.421875 C 32.03125 -8.703125 35.179688 -7.84375 38.921875 -7.84375 C 42.367188 -7.84375 45.75 -8.65625 49.0625 -10.28125 C 52.382812 -11.914062 55.070312 -14.132812 57.125 -16.9375 L 58.375 -16.09375 C 55.582031 -10.6875 52.34375 -6.414062 48.65625 -3.28125 C 44.96875 -0.15625 39.8125 1.40625 33.1875 1.40625 C 26.738281 1.40625 21.320312 -0.0859375 16.9375 -3.078125 C 12.550781 -6.066406 9.210938 -10.101562 6.921875 -15.1875 C 4.640625 -20.269531 3.5 -25.894531 3.5 -32.0625 Z M 18.90625 -40.453125 L 18.90625 -39.484375 L 43.546875 -39.484375 L 43.546875 -40.453125 C 43.453125 -42.140625 43.191406 -44.265625 42.765625 -46.828125 C 42.347656 -49.398438 41.695312 -51.988281 40.8125 -54.59375 C 39.925781 -57.207031 38.734375 -59.398438 37.234375 -61.171875 C 35.742188 -62.953125 33.925781 -63.84375 31.78125 -63.84375 C 29.539062 -63.84375 27.648438 -62.953125 26.109375 -61.171875 C 24.566406 -59.398438 23.28125 -57.226562 22.25 -54.65625 C 21.226562 -52.09375 20.460938 -49.503906 19.953125 -46.890625 C 19.441406 -44.285156 19.09375 -42.140625 18.90625 -40.453125 Z M 18.90625 -40.453125 "/></g></g></g><g fill="#2d3e70" fill-opacity="1"><g transform="translate(488.029824, 511.355999)"><g><path d="M -1.125 -62.859375 L -1.125 -65.09375 L 27.015625 -65.09375 L 27.015625 -62.859375 C 26.085938 -62.671875 25.269531 -62.25 24.5625 -61.59375 C 23.863281 -60.945312 23.515625 -59.96875 23.515625 -58.65625 C 23.515625 -57.914062 23.628906 -57.21875 23.859375 -56.5625 C 24.097656 -55.90625 24.359375 -55.296875 24.640625 -54.734375 L 43.8125 -15.125 L 61.1875 -50.8125 C 61.644531 -52.03125 61.875 -53.195312 61.875 -54.3125 C 61.875 -56.375 61.3125 -58.007812 60.1875 -59.21875 C 59.070312 -60.4375 57.695312 -61.320312 56.0625 -61.875 C 54.4375 -62.4375 52.828125 -62.765625 51.234375 -62.859375 L 51.234375 -65.09375 L 76.015625 -65.09375 L 76.015625 -62.71875 C 74.335938 -62.4375 72.75 -61.640625 71.25 -60.328125 C 69.757812 -59.023438 68.476562 -57.554688 67.40625 -55.921875 C 66.332031 -54.296875 65.515625 -52.921875 64.953125 -51.796875 L 38.21875 0 L 35.28125 0 L 8.546875 -54.59375 C 7.609375 -56.46875 6.367188 -58.242188 4.828125 -59.921875 C 3.285156 -61.597656 1.300781 -62.578125 -1.125 -62.859375 Z M -1.125 -62.859375 "/></g></g></g><g fill="#2d3e70" fill-opacity="1"><g transform="translate(562.365673, 511.355999)"><g><path d="M 3.5 -32.0625 C 3.5 -38.125 4.59375 -43.722656 6.78125 -48.859375 C 8.976562 -53.992188 12.222656 -58.125 16.515625 -61.25 C 20.804688 -64.375 26.128906 -65.9375 32.484375 -65.9375 C 37.984375 -65.9375 42.671875 -64.695312 46.546875 -62.21875 C 50.421875 -59.75 53.382812 -56.367188 55.4375 -52.078125 C 57.488281 -47.785156 58.515625 -42.976562 58.515625 -37.65625 L 58.515625 -37.234375 L 18.625 -37.234375 L 18.625 -35.28125 C 18.625 -32.289062 18.992188 -29.207031 19.734375 -26.03125 C 20.484375 -22.863281 21.648438 -19.898438 23.234375 -17.140625 C 24.828125 -14.390625 26.90625 -12.148438 29.46875 -10.421875 C 32.03125 -8.703125 35.179688 -7.84375 38.921875 -7.84375 C 42.367188 -7.84375 45.75 -8.65625 49.0625 -10.28125 C 52.382812 -11.914062 55.070312 -14.132812 57.125 -16.9375 L 58.375 -16.09375 C 55.582031 -10.6875 52.34375 -6.414062 48.65625 -3.28125 C 44.96875 -0.15625 39.8125 1.40625 33.1875 1.40625 C 26.738281 1.40625 21.320312 -0.0859375 16.9375 -3.078125 C 12.550781 -6.066406 9.210938 -10.101562 6.921875 -15.1875 C 4.640625 -20.269531 3.5 -25.894531 3.5 -32.0625 Z M 18.90625 -40.453125 L 18.90625 -39.484375 L 43.546875 -39.484375 L 43.546875 -40.453125 C 43.453125 -42.140625 43.191406 -44.265625 42.765625 -46.828125 C 42.347656 -49.398438 41.695312 -51.988281 40.8125 -54.59375 C 39.925781 -57.207031 38.734375 -59.398438 37.234375 -61.171875 C 35.742188 -62.953125 33.925781 -63.84375 31.78125 -63.84375 C 29.539062 -63.84375 27.648438 -62.953125 26.109375 -61.171875 C 24.566406 -59.398438 23.28125 -57.226562 22.25 -54.65625 C 21.226562 -52.09375 20.460938 -49.503906 19.953125 -46.890625 C 19.441406 -44.285156 19.09375 -42.140625 18.90625 -40.453125 Z M 18.90625 -40.453125 "/></g></g></g><g fill="#2d3e70" fill-opacity="1"><g transform="translate(624.522195, 511.355999)"><g><path d="M 0.984375 -91 L 22.125 -97.578125 L 22.125 -9.9375 C 22.125 -4.988281 24.316406 -2.46875 28.703125 -2.375 L 28.703125 0 L 0.984375 0 L 0.984375 -2.375 C 5.460938 -2.46875 7.703125 -4.988281 7.703125 -9.9375 L 7.703125 -80.78125 C 7.703125 -85.632812 5.460938 -88.203125 0.984375 -88.484375 Z M 0.984375 -91 "/></g></g></g><g fill="#2d3e70" fill-opacity="1"><g transform="translate(654.200523, 511.355999)"><g/></g></g><g fill="#2d3e70" fill-opacity="1"><g transform="translate(681.358999, 511.355999)"><g><path d="M 2.375 -45.078125 C 2.375 -54.316406 4.125 -62.484375 7.625 -69.578125 C 11.125 -76.671875 16.164062 -82.222656 22.75 -86.234375 C 29.332031 -90.253906 37.242188 -92.265625 46.484375 -92.265625 C 51.523438 -92.265625 56.515625 -91.5625 61.453125 -90.15625 C 66.398438 -88.757812 70.789062 -86.425781 74.625 -83.15625 C 74.71875 -83.0625 74.925781 -82.851562 75.25 -82.53125 C 75.570312 -82.207031 75.921875 -81.859375 76.296875 -81.484375 C 76.484375 -81.296875 76.691406 -81.109375 76.921875 -80.921875 C 77.160156 -80.734375 77.328125 -80.546875 77.421875 -80.359375 C 77.515625 -80.265625 77.5625 -80.191406 77.5625 -80.140625 C 77.5625 -80.097656 77.609375 -80.03125 77.703125 -79.9375 C 78.171875 -77.320312 78.539062 -74.726562 78.8125 -72.15625 C 79.09375 -69.59375 79.421875 -66.960938 79.796875 -64.265625 L 77.28125 -64.265625 C 75.132812 -68.460938 72.632812 -72.519531 69.78125 -76.4375 C 66.9375 -80.351562 63.554688 -83.570312 59.640625 -86.09375 C 55.722656 -88.613281 51.054688 -89.875 45.640625 -89.875 C 41.441406 -89.875 37.773438 -88.800781 34.640625 -86.65625 C 31.515625 -84.507812 28.878906 -81.707031 26.734375 -78.25 C 24.585938 -74.800781 22.859375 -71.046875 21.546875 -66.984375 C 20.242188 -62.929688 19.289062 -58.894531 18.6875 -54.875 C 18.082031 -50.863281 17.78125 -47.316406 17.78125 -44.234375 C 17.78125 -41.066406 18.082031 -37.566406 18.6875 -33.734375 C 19.289062 -29.910156 20.242188 -26.109375 21.546875 -22.328125 C 22.859375 -18.546875 24.585938 -15.066406 26.734375 -11.890625 C 28.878906 -8.722656 31.492188 -6.179688 34.578125 -4.265625 C 37.660156 -2.359375 41.253906 -1.40625 45.359375 -1.40625 C 49.835938 -1.40625 53.800781 -2.3125 57.25 -4.125 C 60.707031 -5.945312 63.742188 -8.347656 66.359375 -11.328125 C 68.972656 -14.316406 71.257812 -17.609375 73.21875 -21.203125 C 75.175781 -24.796875 76.859375 -28.367188 78.265625 -31.921875 L 80.78125 -31.921875 C 80.40625 -28.742188 80.097656 -25.59375 79.859375 -22.46875 C 79.628906 -19.34375 79.28125 -16.238281 78.8125 -13.15625 C 78.632812 -12.78125 78.546875 -12.59375 78.546875 -12.59375 C 78.453125 -12.40625 78.332031 -12.195312 78.1875 -11.96875 C 78.050781 -11.738281 77.890625 -11.53125 77.703125 -11.34375 C 73.867188 -6.769531 68.96875 -3.453125 63 -1.390625 C 57.03125 0.660156 51.148438 1.6875 45.359375 1.6875 C 35.742188 1.6875 27.765625 -0.269531 21.421875 -4.1875 C 15.078125 -8.113281 10.316406 -13.578125 7.140625 -20.578125 C 3.960938 -27.578125 2.375 -35.742188 2.375 -45.078125 Z M 2.375 -45.078125 "/></g></g></g><g fill="#2d3e70" fill-opacity="1"><g transform="translate(762.55446, 511.355999)"><g><path d="M 33.3125 1.40625 C 26.59375 1.40625 21.015625 -0.0625 16.578125 -3 C 12.148438 -5.945312 8.835938 -9.984375 6.640625 -15.109375 C 4.453125 -20.242188 3.359375 -26.082031 3.359375 -32.625 C 3.359375 -39.15625 4.453125 -44.914062 6.640625 -49.90625 C 8.835938 -54.90625 12.148438 -58.828125 16.578125 -61.671875 C 21.015625 -64.515625 26.59375 -65.9375 33.3125 -65.9375 C 43.488281 -65.9375 51.050781 -62.851562 56 -56.6875 C 60.945312 -50.53125 63.421875 -42.507812 63.421875 -32.625 C 63.421875 -26.082031 62.320312 -20.242188 60.125 -15.109375 C 57.9375 -9.984375 54.625 -5.945312 50.1875 -3 C 45.757812 -0.0625 40.132812 1.40625 33.3125 1.40625 Z M 18.625 -32.625 C 18.625 -30.195312 18.757812 -27.1875 19.03125 -23.59375 C 19.3125 -20 19.921875 -16.425781 20.859375 -12.875 C 21.796875 -9.332031 23.265625 -6.367188 25.265625 -3.984375 C 27.273438 -1.609375 29.957031 -0.421875 33.3125 -0.421875 C 36.769531 -0.421875 39.476562 -1.609375 41.4375 -3.984375 C 43.394531 -6.367188 44.863281 -9.332031 45.84375 -12.875 C 46.820312 -16.425781 47.453125 -20 47.734375 -23.59375 C 48.015625 -27.1875 48.15625 -30.195312 48.15625 -32.625 C 48.15625 -35.144531 48.035156 -38.15625 47.796875 -41.65625 C 47.566406 -45.15625 46.960938 -48.628906 45.984375 -52.078125 C 45.003906 -55.535156 43.535156 -58.40625 41.578125 -60.6875 C 39.617188 -62.976562 36.863281 -64.125 33.3125 -64.125 C 29.863281 -64.125 27.160156 -62.976562 25.203125 -60.6875 C 23.242188 -58.40625 21.796875 -55.535156 20.859375 -52.078125 C 19.921875 -48.628906 19.3125 -45.128906 19.03125 -41.578125 C 18.757812 -38.035156 18.625 -35.050781 18.625 -32.625 Z M 18.625 -32.625 "/></g></g></g><g fill="#2d3e70" fill-opacity="1"><g transform="translate(828.490782, 511.355999)"><g><path d="M 1.125 -57.546875 L 22.265625 -64.265625 L 22.265625 -55.71875 L 23.9375 -58.234375 C 26.082031 -61.222656 28.785156 -63.253906 32.046875 -64.328125 C 35.316406 -65.398438 38.679688 -65.9375 42.140625 -65.9375 C 48.203125 -65.9375 53.144531 -64.46875 56.96875 -61.53125 C 60.800781 -58.59375 62.71875 -53.945312 62.71875 -47.59375 L 62.71875 -9.9375 C 62.71875 -7.414062 63.226562 -5.546875 64.25 -4.328125 C 65.28125 -3.117188 66.960938 -2.46875 69.296875 -2.375 L 69.296875 0 L 41.578125 0 L 41.578125 -2.375 C 46.054688 -2.46875 48.296875 -4.988281 48.296875 -9.9375 L 48.296875 -47.3125 C 48.296875 -49.738281 47.851562 -52.09375 46.96875 -54.375 C 46.082031 -56.664062 44.75 -58.582031 42.96875 -60.125 C 41.195312 -61.664062 38.867188 -62.4375 35.984375 -62.4375 C 33.554688 -62.4375 31.289062 -61.644531 29.1875 -60.0625 C 27.09375 -58.476562 25.414062 -56.519531 24.15625 -54.1875 C 22.894531 -51.851562 22.265625 -49.5625 22.265625 -47.3125 L 22.265625 -9.9375 C 22.265625 -4.988281 24.457031 -2.46875 28.84375 -2.375 L 28.84375 0 L 1.125 0 L 1.125 -2.375 C 5.601562 -2.46875 7.84375 -4.988281 7.84375 -9.9375 L 7.84375 -47.3125 C 7.84375 -52.164062 5.601562 -54.734375 1.125 -55.015625 Z M 1.125 -57.546875 "/></g></g></g><g fill="#2d3e70" fill-opacity="1"><g transform="translate(897.92689, 511.355999)"><g><path d="M -0.84375 -65.234375 C 2.050781 -65.703125 4.898438 -66.914062 7.703125 -68.875 C 10.503906 -70.832031 13.046875 -73.140625 15.328125 -75.796875 C 17.617188 -78.460938 19.507812 -81.148438 21 -83.859375 L 21 -65.09375 L 34.015625 -65.09375 L 34.015625 -62.859375 L 21 -62.859375 L 21 -13.015625 C 21 -11.242188 21.441406 -9.515625 22.328125 -7.828125 C 23.210938 -6.148438 24.820312 -5.3125 27.15625 -5.3125 C 28.375 -5.3125 29.519531 -5.566406 30.59375 -6.078125 C 31.664062 -6.597656 32.617188 -7.1875 33.453125 -7.84375 L 34.71875 -6.296875 C 32.757812 -3.867188 30.566406 -2 28.140625 -0.6875 C 25.710938 0.613281 22.910156 1.265625 19.734375 1.265625 C 15.441406 1.265625 12.175781 0.0976562 9.9375 -2.234375 C 7.695312 -4.566406 6.578125 -7.882812 6.578125 -12.1875 L 6.578125 -62.859375 L -0.84375 -62.859375 Z M -0.84375 -65.234375 "/></g></g></g><g fill="#2d3e70" fill-opacity="1"><g transform="translate(933.904869, 511.355999)"><g><path d="M 1.6875 -57.546875 L 22.8125 -64.265625 L 22.8125 -54.3125 L 24.640625 -57.40625 C 26.410156 -60.289062 28.765625 -62.457031 31.703125 -63.90625 C 34.648438 -65.351562 37.847656 -66.078125 41.296875 -66.078125 C 44.003906 -66.078125 46.59375 -65.585938 49.0625 -64.609375 C 51.539062 -63.628906 53.476562 -61.925781 54.875 -59.5 C 55.34375 -58.75 55.71875 -57.953125 56 -57.109375 C 56.28125 -56.273438 56.421875 -55.4375 56.421875 -54.59375 C 56.421875 -52.726562 55.695312 -51.234375 54.25 -50.109375 C 52.800781 -48.992188 51.144531 -48.4375 49.28125 -48.4375 C 48.25 -48.4375 47.382812 -48.578125 46.6875 -48.859375 C 45.988281 -49.140625 45.40625 -49.46875 44.9375 -49.84375 C 44.375 -50.3125 43.863281 -50.820312 43.40625 -51.375 C 43.21875 -51.65625 42.984375 -51.957031 42.703125 -52.28125 C 42.421875 -52.613281 42.1875 -52.921875 42 -53.203125 C 41.0625 -54.503906 39.960938 -55.757812 38.703125 -56.96875 C 37.441406 -58.1875 35.507812 -58.796875 32.90625 -58.796875 C 29.726562 -58.796875 27.25 -57.601562 25.46875 -55.21875 C 23.695312 -52.84375 22.8125 -50.207031 22.8125 -47.3125 L 22.8125 -9.9375 C 22.8125 -4.988281 25.007812 -2.46875 29.40625 -2.375 L 29.40625 0 L 1.6875 0 L 1.6875 -2.375 C 6.164062 -2.46875 8.40625 -4.988281 8.40625 -9.9375 L 8.40625 -47.3125 C 8.40625 -52.164062 6.164062 -54.734375 1.6875 -55.015625 Z M 1.6875 -57.546875 "/></g></g></g><g fill="#2d3e70" fill-opacity="1"><g transform="translate(990.60169, 511.355999)"><g><path d="M 33.3125 1.40625 C 26.59375 1.40625 21.015625 -0.0625 16.578125 -3 C 12.148438 -5.945312 8.835938 -9.984375 6.640625 -15.109375 C 4.453125 -20.242188 3.359375 -26.082031 3.359375 -32.625 C 3.359375 -39.15625 4.453125 -44.914062 6.640625 -49.90625 C 8.835938 -54.90625 12.148438 -58.828125 16.578125 -61.671875 C 21.015625 -64.515625 26.59375 -65.9375 33.3125 -65.9375 C 43.488281 -65.9375 51.050781 -62.851562 56 -56.6875 C 60.945312 -50.53125 63.421875 -42.507812 63.421875 -32.625 C 63.421875 -26.082031 62.320312 -20.242188 60.125 -15.109375 C 57.9375 -9.984375 54.625 -5.945312 50.1875 -3 C 45.757812 -0.0625 40.132812 1.40625 33.3125 1.40625 Z M 18.625 -32.625 C 18.625 -30.195312 18.757812 -27.1875 19.03125 -23.59375 C 19.3125 -20 19.921875 -16.425781 20.859375 -12.875 C 21.796875 -9.332031 23.265625 -6.367188 25.265625 -3.984375 C 27.273438 -1.609375 29.957031 -0.421875 33.3125 -0.421875 C 36.769531 -0.421875 39.476562 -1.609375 41.4375 -3.984375 C 43.394531 -6.367188 44.863281 -9.332031 45.84375 -12.875 C 46.820312 -16.425781 47.453125 -20 47.734375 -23.59375 C 48.015625 -27.1875 48.15625 -30.195312 48.15625 -32.625 C 48.15625 -35.144531 48.035156 -38.15625 47.796875 -41.65625 C 47.566406 -45.15625 46.960938 -48.628906 45.984375 -52.078125 C 45.003906 -55.535156 43.535156 -58.40625 41.578125 -60.6875 C 39.617188 -62.976562 36.863281 -64.125 33.3125 -64.125 C 29.863281 -64.125 27.160156 -62.976562 25.203125 -60.6875 C 23.242188 -58.40625 21.796875 -55.535156 20.859375 -52.078125 C 19.921875 -48.628906 19.3125 -45.128906 19.03125 -41.578125 C 18.757812 -38.035156 18.625 -35.050781 18.625 -32.625 Z M 18.625 -32.625 "/></g></g></g><g fill="#2d3e70" fill-opacity="1"><g transform="translate(1056.538011, 511.355999)"><g><path d="M 0.984375 -91 L 22.125 -97.578125 L 22.125 -9.9375 C 22.125 -4.988281 24.316406 -2.46875 28.703125 -2.375 L 28.703125 0 L 0.984375 0 L 0.984375 -2.375 C 5.460938 -2.46875 7.703125 -4.988281 7.703125 -9.9375 L 7.703125 -80.78125 C 7.703125 -85.632812 5.460938 -88.203125 0.984375 -88.484375 Z M 0.984375 -91 "/></g></g></g><g fill="#ffffff" fill-opacity="1"><g transform="translate(81.000002, 777.374981)"><g><path d="M 5.140625 -5.015625 L 2.890625 -5.015625 L 2.890625 0 L 1.34375 0 L 1.34375 -12.59375 L 5.640625 -12.59375 C 6.648438 -12.59375 7.484375 -12.40625 8.140625 -12.03125 C 8.796875 -11.664062 9.265625 -11.191406 9.546875 -10.609375 C 9.835938 -10.035156 9.984375 -9.429688 9.984375 -8.796875 C 9.984375 -7.921875 9.722656 -7.132812 9.203125 -6.4375 C 8.679688 -5.75 7.867188 -5.304688 6.765625 -5.109375 L 10.09375 0 L 8.390625 0 Z M 2.890625 -6.359375 L 5.4375 -6.359375 C 6.289062 -6.359375 7.007812 -6.539062 7.59375 -6.90625 C 8.1875 -7.28125 8.484375 -7.910156 8.484375 -8.796875 C 8.484375 -9.671875 8.1875 -10.289062 7.59375 -10.65625 C 7.007812 -11.019531 6.289062 -11.203125 5.4375 -11.203125 L 2.890625 -11.203125 Z M 2.890625 -6.359375 "/></g></g></g><g fill="#ffffff" fill-opacity="1"><g transform="translate(91.88997, 777.374981)"><g><path d="M 4.71875 0.015625 L 4.71875 -4.546875 L 0.609375 -12.59375 L 2.296875 -12.59375 L 5.4375 -6.296875 L 5.5625 -6.296875 L 8.671875 -12.59375 L 10.375 -12.59375 L 6.28125 -4.546875 L 6.28125 0 Z M 4.71875 0.015625 "/></g></g></g><g fill="#ffffff" fill-opacity="1"><g transform="translate(102.941941, 777.374981)"><g><path d="M 8.6875 -3.671875 L 3.5625 -3.671875 L 2.234375 0 L 0.640625 0 L 5.375 -12.59375 L 6.859375 -12.59375 L 11.625 0 L 10.046875 0 Z M 8.25 -4.90625 L 6.140625 -10.625 L 6.0625 -10.625 L 4.015625 -4.90625 Z M 8.25 -4.90625 "/></g></g></g><g fill="#ffffff" fill-opacity="1"><g transform="translate(115.1819, 777.374981)"><g><path d="M 1.34375 -12.59375 L 3.09375 -12.59375 L 9.84375 -2.484375 L 9.921875 -2.484375 L 9.921875 -12.59375 L 11.453125 -12.59375 L 11.453125 0 L 9.6875 0 L 2.953125 -9.96875 L 2.875 -9.96875 L 2.875 0 L 1.34375 0 Z M 1.34375 -12.59375 "/></g></g></g><g fill="#ffffff" fill-opacity="1"><g transform="translate(127.979862, 777.374981)"><g/></g></g><g fill="#ffffff" fill-opacity="1"><g transform="translate(132.119854, 777.374981)"><g><path d="M 1.40625 -12.59375 L 2.96875 -12.59375 L 2.96875 0 L 1.40625 0 Z M 1.40625 -12.59375 "/></g></g></g><g fill="#ffffff" fill-opacity="1"><g transform="translate(136.493843, 777.374981)"><g><path d="M 1.34375 -12.59375 L 6.390625 -12.59375 C 7.234375 -12.59375 7.921875 -12.429688 8.453125 -12.109375 C 8.984375 -11.785156 9.363281 -11.378906 9.59375 -10.890625 C 9.820312 -10.410156 9.9375 -9.910156 9.9375 -9.390625 C 9.9375 -8.859375 9.820312 -8.390625 9.59375 -7.984375 C 9.363281 -7.585938 9.085938 -7.28125 8.765625 -7.0625 C 8.441406 -6.851562 8.132812 -6.71875 7.84375 -6.65625 L 7.84375 -6.546875 C 8.15625 -6.523438 8.519531 -6.414062 8.9375 -6.21875 C 9.351562 -6.019531 9.71875 -5.703125 10.03125 -5.265625 C 10.351562 -4.828125 10.515625 -4.269531 10.515625 -3.59375 C 10.515625 -3 10.378906 -2.425781 10.109375 -1.875 C 9.835938 -1.332031 9.410156 -0.882812 8.828125 -0.53125 C 8.253906 -0.175781 7.535156 0 6.671875 0 L 1.34375 0 Z M 5.9375 -7.078125 C 6.625 -7.078125 7.210938 -7.253906 7.703125 -7.609375 C 8.191406 -7.960938 8.4375 -8.507812 8.4375 -9.25 C 8.4375 -9.957031 8.195312 -10.472656 7.71875 -10.796875 C 7.25 -11.117188 6.65625 -11.28125 5.9375 -11.28125 L 2.859375 -11.28125 L 2.859375 -7.078125 Z M 6.28125 -1.3125 C 7.0625 -1.3125 7.707031 -1.488281 8.21875 -1.84375 C 8.738281 -2.207031 9 -2.800781 9 -3.625 C 9 -4.425781 8.738281 -4.992188 8.21875 -5.328125 C 7.707031 -5.671875 7.0625 -5.84375 6.28125 -5.84375 L 2.859375 -5.84375 L 2.859375 -1.3125 Z M 6.28125 -1.3125 "/></g></g></g><g fill="#ffffff" fill-opacity="1"><g transform="translate(147.725806, 777.374981)"><g><path d="M 5.140625 -5.015625 L 2.890625 -5.015625 L 2.890625 0 L 1.34375 0 L 1.34375 -12.59375 L 5.640625 -12.59375 C 6.648438 -12.59375 7.484375 -12.40625 8.140625 -12.03125 C 8.796875 -11.664062 9.265625 -11.191406 9.546875 -10.609375 C 9.835938 -10.035156 9.984375 -9.429688 9.984375 -8.796875 C 9.984375 -7.921875 9.722656 -7.132812 9.203125 -6.4375 C 8.679688 -5.75 7.867188 -5.304688 6.765625 -5.109375 L 10.09375 0 L 8.390625 0 Z M 2.890625 -6.359375 L 5.4375 -6.359375 C 6.289062 -6.359375 7.007812 -6.539062 7.59375 -6.90625 C 8.1875 -7.28125 8.484375 -7.910156 8.484375 -8.796875 C 8.484375 -9.671875 8.1875 -10.289062 7.59375 -10.65625 C 7.007812 -11.019531 6.289062 -11.203125 5.4375 -11.203125 L 2.890625 -11.203125 Z M 2.890625 -6.359375 "/></g></g></g><g fill="#ffffff" fill-opacity="1"><g transform="translate(158.615775, 777.374981)"><g><path d="M 8.6875 -3.671875 L 3.5625 -3.671875 L 2.234375 0 L 0.640625 0 L 5.375 -12.59375 L 6.859375 -12.59375 L 11.625 0 L 10.046875 0 Z M 8.25 -4.90625 L 6.140625 -10.625 L 6.0625 -10.625 L 4.015625 -4.90625 Z M 8.25 -4.90625 "/></g></g></g><g fill="#ffffff" fill-opacity="1"><g transform="translate(170.855734, 777.374981)"><g><path d="M 10.875 -12.59375 L 10.875 0 L 9.3125 0 L 9.3125 -5.703125 L 2.890625 -5.703125 L 2.890625 0 L 1.34375 0 L 1.34375 -12.59375 L 2.890625 -12.59375 L 2.890625 -6.96875 L 9.3125 -6.96875 L 9.3125 -12.59375 Z M 10.875 -12.59375 "/></g></g></g><g fill="#ffffff" fill-opacity="1"><g transform="translate(183.077703, 777.374981)"><g><path d="M 1.40625 -12.59375 L 2.96875 -12.59375 L 2.96875 0 L 1.40625 0 Z M 1.40625 -12.59375 "/></g></g></g><g fill="#ffffff" fill-opacity="1"><g transform="translate(187.451692, 777.374981)"><g><path d="M 1.34375 -12.59375 L 3.640625 -12.59375 L 7.375 -2.953125 L 7.4375 -2.953125 L 11.171875 -12.59375 L 13.46875 -12.59375 L 13.46875 0 L 11.9375 0 L 11.9375 -10.203125 L 11.859375 -10.203125 L 7.953125 0 L 6.84375 0 L 2.953125 -10.203125 L 2.875 -10.203125 L 2.875 0 L 1.34375 0 Z M 1.34375 -12.59375 "/></g></g></g></svg>