<svg xmlns="http://www.w3.org/2000/svg" xmlns:xlink="http://www.w3.org/1999/xlink" width="1920" zoomAndPan="magnify" viewBox="0 0 1440 809.999993" height="1080" preserveAspectRatio="xMidYMid meet" version="1.0"><defs><g/></defs><rect x="-144" width="1728" fill="#ffffff" y="-80.999999" height="971.999992" fill-opacity="1"/><rect x="-144" width="1728" fill="#faf4eb" y="-80.999999" height="971.999992" fill-opacity="1"/><path fill="#2d3e70" d="M 0 729 L 1439.964844 729 L 1439.964844 810 L 0 810 Z M 0 729 " fill-opacity="1" fill-rule="nonzero"/><g fill="#2d3e70" fill-opacity="1"><g transform="translate(439.514135, 293.590918)"><g><path d="M 1.40625 -5.1875 L 3.21875 -6.71875 C 5.363281 -4.570312 8.070312 -3.5 11.34375 -3.5 C 14.882812 -3.5 17.425781 -4.757812 18.96875 -7.28125 C 20.507812 -9.800781 21.28125 -12.507812 21.28125 -15.40625 L 21.28125 -80.78125 C 21.28125 -83.488281 20.460938 -85.425781 18.828125 -86.59375 C 17.191406 -87.757812 15.300781 -88.390625 13.15625 -88.484375 L 13.15625 -90.71875 L 43.6875 -90.71875 L 43.6875 -88.484375 C 41.53125 -88.390625 39.660156 -87.757812 38.078125 -86.59375 C 36.492188 -85.425781 35.703125 -83.488281 35.703125 -80.78125 L 35.703125 -19.1875 C 35.703125 -5.925781 29.257812 0.703125 16.375 0.703125 C 13.394531 0.703125 10.691406 0.238281 8.265625 -0.6875 C 5.835938 -1.625 3.550781 -3.125 1.40625 -5.1875 Z M 1.40625 -5.1875 "/></g></g></g><g fill="#2d3e70" fill-opacity="1"><g transform="translate(484.731605, 293.590918)"><g><path d="M 3.5 -32.0625 C 3.5 -38.125 4.59375 -43.722656 6.78125 -48.859375 C 8.976562 -53.992188 12.222656 -58.125 16.515625 -61.25 C 20.804688 -64.375 26.128906 -65.9375 32.484375 -65.9375 C 37.984375 -65.9375 42.671875 -64.695312 46.546875 -62.21875 C 50.421875 -59.75 53.382812 -56.367188 55.4375 -52.078125 C 57.488281 -47.785156 58.515625 -42.976562 58.515625 -37.65625 L 58.515625 -37.234375 L 18.625 -37.234375 L 18.625 -35.28125 C 18.625 -32.289062 18.992188 -29.207031 19.734375 -26.03125 C 20.484375 -22.863281 21.648438 -19.898438 23.234375 -17.140625 C 24.828125 -14.390625 26.90625 -12.148438 29.46875 -10.421875 C 32.03125 -8.703125 35.179688 -7.84375 38.921875 -7.84375 C 42.367188 -7.84375 45.75 -8.65625 49.0625 -10.28125 C 52.382812 -11.914062 55.070312 -14.132812 57.125 -16.9375 L 58.375 -16.09375 C 55.582031 -10.6875 52.34375 -6.414062 48.65625 -3.28125 C 44.96875 -0.15625 39.8125 1.40625 33.1875 1.40625 C 26.738281 1.40625 21.320312 -0.0859375 16.9375 -3.078125 C 12.550781 -6.066406 9.210938 -10.101562 6.921875 -15.1875 C 4.640625 -20.269531 3.5 -25.894531 3.5 -32.0625 Z M 18.90625 -40.453125 L 18.90625 -39.484375 L 43.546875 -39.484375 L 43.546875 -40.453125 C 43.453125 -42.140625 43.191406 -44.265625 42.765625 -46.828125 C 42.347656 -49.398438 41.695312 -51.988281 40.8125 -54.59375 C 39.925781 -57.207031 38.734375 -59.398438 37.234375 -61.171875 C 35.742188 -62.953125 33.925781 -63.84375 31.78125 -63.84375 C 29.539062 -63.84375 27.648438 -62.953125 26.109375 -61.171875 C 24.566406 -59.398438 23.28125 -57.226562 22.25 -54.65625 C 21.226562 -52.09375 20.460938 -49.503906 19.953125 -46.890625 C 19.441406 -44.285156 19.09375 -42.140625 18.90625 -40.453125 Z M 18.90625 -40.453125 "/></g></g></g><g fill="#2d3e70" fill-opacity="1"><g transform="translate(546.888126, 293.590918)"><g><path d="M 1.125 -57.546875 L 22.265625 -64.265625 L 22.265625 -55.71875 L 23.9375 -58.234375 C 26.082031 -61.222656 28.785156 -63.253906 32.046875 -64.328125 C 35.316406 -65.398438 38.679688 -65.9375 42.140625 -65.9375 C 48.203125 -65.9375 53.144531 -64.46875 56.96875 -61.53125 C 60.800781 -58.59375 62.71875 -53.945312 62.71875 -47.59375 L 62.71875 -9.9375 C 62.71875 -7.414062 63.226562 -5.546875 64.25 -4.328125 C 65.28125 -3.117188 66.960938 -2.46875 69.296875 -2.375 L 69.296875 0 L 41.578125 0 L 41.578125 -2.375 C 46.054688 -2.46875 48.296875 -4.988281 48.296875 -9.9375 L 48.296875 -47.3125 C 48.296875 -49.738281 47.851562 -52.09375 46.96875 -54.375 C 46.082031 -56.664062 44.75 -58.582031 42.96875 -60.125 C 41.195312 -61.664062 38.867188 -62.4375 35.984375 -62.4375 C 33.554688 -62.4375 31.289062 -61.644531 29.1875 -60.0625 C 27.09375 -58.476562 25.414062 -56.519531 24.15625 -54.1875 C 22.894531 -51.851562 22.265625 -49.5625 22.265625 -47.3125 L 22.265625 -9.9375 C 22.265625 -4.988281 24.457031 -2.46875 28.84375 -2.375 L 28.84375 0 L 1.125 0 L 1.125 -2.375 C 5.601562 -2.46875 7.84375 -4.988281 7.84375 -9.9375 L 7.84375 -47.3125 C 7.84375 -52.164062 5.601562 -54.734375 1.125 -55.015625 Z M 1.125 -57.546875 "/></g></g></g><g fill="#2d3e70" fill-opacity="1"><g transform="translate(616.324245, 293.590918)"><g><path d="M 1.546875 -57.546875 L 22.6875 -64.265625 L 22.6875 -9.9375 C 22.6875 -4.988281 24.878906 -2.46875 29.265625 -2.375 L 29.265625 0 L 1.546875 0 L 1.546875 -2.375 C 6.023438 -2.46875 8.265625 -4.988281 8.265625 -9.9375 L 8.265625 -47.3125 C 8.265625 -52.164062 6.023438 -54.734375 1.546875 -55.015625 Z M 3.5 -81.203125 C 3.5 -83.816406 4.429688 -86.054688 6.296875 -87.921875 C 8.160156 -89.785156 10.398438 -90.71875 13.015625 -90.71875 C 15.628906 -90.71875 17.894531 -89.785156 19.8125 -87.921875 C 21.726562 -86.054688 22.6875 -83.816406 22.6875 -81.203125 C 22.6875 -78.585938 21.703125 -76.300781 19.734375 -74.34375 C 17.773438 -72.382812 15.535156 -71.40625 13.015625 -71.40625 C 10.398438 -71.40625 8.160156 -72.382812 6.296875 -74.34375 C 4.429688 -76.300781 3.5 -78.585938 3.5 -81.203125 Z M 3.5 -81.203125 "/></g></g></g><g fill="#2d3e70" fill-opacity="1"><g transform="translate(646.282564, 293.590918)"><g><path d="M 2.9375 -7 C 2.84375 -7.1875 2.769531 -7.328125 2.71875 -7.421875 C 2.675781 -7.515625 2.609375 -7.609375 2.515625 -7.703125 L 4.625 -21 L 6.015625 -21 C 6.203125 -18.476562 7.019531 -16.003906 8.46875 -13.578125 C 9.914062 -11.148438 11.757812 -8.976562 14 -7.0625 C 16.238281 -5.15625 18.640625 -3.617188 21.203125 -2.453125 C 23.773438 -1.285156 26.226562 -0.703125 28.5625 -0.703125 C 30.050781 -0.703125 31.679688 -0.976562 33.453125 -1.53125 C 35.234375 -2.09375 36.773438 -3.023438 38.078125 -4.328125 C 39.390625 -5.640625 40.046875 -7.320312 40.046875 -9.375 C 40.046875 -11.519531 39.390625 -13.382812 38.078125 -14.96875 C 36.773438 -16.5625 35.1875 -17.988281 33.3125 -19.25 C 31.445312 -20.507812 29.675781 -21.609375 28 -22.546875 C 26.96875 -23.191406 25.890625 -23.816406 24.765625 -24.421875 C 23.648438 -25.035156 22.535156 -25.664062 21.421875 -26.3125 C 18.429688 -28.09375 15.582031 -29.960938 12.875 -31.921875 C 10.164062 -33.878906 7.972656 -36.140625 6.296875 -38.703125 C 4.617188 -41.273438 3.78125 -44.238281 3.78125 -47.59375 C 3.78125 -52.070312 4.96875 -55.640625 7.34375 -58.296875 C 9.726562 -60.960938 12.8125 -62.898438 16.59375 -64.109375 C 20.375 -65.328125 24.269531 -65.9375 28.28125 -65.9375 C 32.007812 -65.9375 35.644531 -65.304688 39.1875 -64.046875 C 42.738281 -62.785156 45.820312 -60.847656 48.4375 -58.234375 C 48.4375 -58.234375 48.738281 -57.90625 49.34375 -57.25 C 49.957031 -56.601562 50.3125 -56.1875 50.40625 -56 L 50.40625 -45.640625 L 48.4375 -45.640625 C 47.320312 -48.160156 45.6875 -50.84375 43.53125 -53.6875 C 41.382812 -56.53125 38.890625 -58.929688 36.046875 -60.890625 C 33.203125 -62.859375 30.238281 -63.84375 27.15625 -63.84375 C 24.539062 -63.84375 22.347656 -63.023438 20.578125 -61.390625 C 18.804688 -59.753906 17.921875 -57.582031 17.921875 -54.875 C 17.921875 -51.238281 19.15625 -48.207031 21.625 -45.78125 C 24.101562 -43.351562 26.742188 -41.300781 29.546875 -39.625 C 30.566406 -38.96875 31.632812 -38.359375 32.75 -37.796875 C 33.875 -37.234375 35 -36.628906 36.125 -35.984375 C 39.101562 -34.390625 41.898438 -32.707031 44.515625 -30.9375 C 47.128906 -29.164062 49.226562 -27.160156 50.8125 -24.921875 C 52.40625 -22.679688 53.203125 -19.972656 53.203125 -16.796875 C 53.203125 -14.179688 52.453125 -11.660156 50.953125 -9.234375 C 48.617188 -5.222656 45.210938 -2.445312 40.734375 -0.90625 C 36.253906 0.632812 31.726562 1.40625 27.15625 1.40625 C 22.863281 1.40625 18.523438 0.773438 14.140625 -0.484375 C 9.753906 -1.742188 6.019531 -3.914062 2.9375 -7 Z M 2.9375 -7 "/></g></g></g><g fill="#2d3e70" fill-opacity="1"><g transform="translate(700.879508, 293.590918)"><g/></g></g><g fill="#2d3e70" fill-opacity="1"><g transform="translate(728.037985, 293.590918)"><g><path d="M 0.984375 -90.71875 L 31.5 -90.71875 L 31.5 -88.484375 C 29.351562 -88.390625 27.484375 -87.757812 25.890625 -86.59375 C 24.304688 -85.425781 23.515625 -83.488281 23.515625 -80.78125 L 23.796875 -2.234375 L 35.84375 -2.234375 C 40.226562 -2.234375 44.585938 -2.835938 48.921875 -4.046875 C 53.265625 -5.265625 57.234375 -7.179688 60.828125 -9.796875 C 64.421875 -12.410156 67.242188 -15.863281 69.296875 -20.15625 L 71.546875 -20.015625 L 66.078125 0 L 0.984375 0 L 0.984375 -2.375 C 3.128906 -2.46875 5.015625 -3.070312 6.640625 -4.1875 C 8.273438 -5.3125 9.09375 -7.226562 9.09375 -9.9375 L 9.09375 -80.78125 C 9.09375 -83.488281 8.273438 -85.425781 6.640625 -86.59375 C 5.015625 -87.757812 3.128906 -88.390625 0.984375 -88.484375 Z M 0.984375 -90.71875 "/></g></g></g><g fill="#2d3e70" fill-opacity="1"><g transform="translate(800.133951, 293.590918)"><g><path d="M 33.3125 1.40625 C 26.59375 1.40625 21.015625 -0.0625 16.578125 -3 C 12.148438 -5.945312 8.835938 -9.984375 6.640625 -15.109375 C 4.453125 -20.242188 3.359375 -26.082031 3.359375 -32.625 C 3.359375 -39.15625 4.453125 -44.914062 6.640625 -49.90625 C 8.835938 -54.90625 12.148438 -58.828125 16.578125 -61.671875 C 21.015625 -64.515625 26.59375 -65.9375 33.3125 -65.9375 C 43.488281 -65.9375 51.050781 -62.851562 56 -56.6875 C 60.945312 -50.53125 63.421875 -42.507812 63.421875 -32.625 C 63.421875 -26.082031 62.320312 -20.242188 60.125 -15.109375 C 57.9375 -9.984375 54.625 -5.945312 50.1875 -3 C 45.757812 -0.0625 40.132812 1.40625 33.3125 1.40625 Z M 18.625 -32.625 C 18.625 -30.195312 18.757812 -27.1875 19.03125 -23.59375 C 19.3125 -20 19.921875 -16.425781 20.859375 -12.875 C 21.796875 -9.332031 23.265625 -6.367188 25.265625 -3.984375 C 27.273438 -1.609375 29.957031 -0.421875 33.3125 -0.421875 C 36.769531 -0.421875 39.476562 -1.609375 41.4375 -3.984375 C 43.394531 -6.367188 44.863281 -9.332031 45.84375 -12.875 C 46.820312 -16.425781 47.453125 -20 47.734375 -23.59375 C 48.015625 -27.1875 48.15625 -30.195312 48.15625 -32.625 C 48.15625 -35.144531 48.035156 -38.15625 47.796875 -41.65625 C 47.566406 -45.15625 46.960938 -48.628906 45.984375 -52.078125 C 45.003906 -55.535156 43.535156 -58.40625 41.578125 -60.6875 C 39.617188 -62.976562 36.863281 -64.125 33.3125 -64.125 C 29.863281 -64.125 27.160156 -62.976562 25.203125 -60.6875 C 23.242188 -58.40625 21.796875 -55.535156 20.859375 -52.078125 C 19.921875 -48.628906 19.3125 -45.128906 19.03125 -41.578125 C 18.757812 -38.035156 18.625 -35.050781 18.625 -32.625 Z M 18.625 -32.625 "/></g></g></g><g fill="#2d3e70" fill-opacity="1"><g transform="translate(866.07025, 293.590918)"><g><path d="M 33.3125 1.40625 C 26.59375 1.40625 21.015625 -0.0625 16.578125 -3 C 12.148438 -5.945312 8.835938 -9.984375 6.640625 -15.109375 C 4.453125 -20.242188 3.359375 -26.082031 3.359375 -32.625 C 3.359375 -39.15625 4.453125 -44.914062 6.640625 -49.90625 C 8.835938 -54.90625 12.148438 -58.828125 16.578125 -61.671875 C 21.015625 -64.515625 26.59375 -65.9375 33.3125 -65.9375 C 43.488281 -65.9375 51.050781 -62.851562 56 -56.6875 C 60.945312 -50.53125 63.421875 -42.507812 63.421875 -32.625 C 63.421875 -26.082031 62.320312 -20.242188 60.125 -15.109375 C 57.9375 -9.984375 54.625 -5.945312 50.1875 -3 C 45.757812 -0.0625 40.132812 1.40625 33.3125 1.40625 Z M 18.625 -32.625 C 18.625 -30.195312 18.757812 -27.1875 19.03125 -23.59375 C 19.3125 -20 19.921875 -16.425781 20.859375 -12.875 C 21.796875 -9.332031 23.265625 -6.367188 25.265625 -3.984375 C 27.273438 -1.609375 29.957031 -0.421875 33.3125 -0.421875 C 36.769531 -0.421875 39.476562 -1.609375 41.4375 -3.984375 C 43.394531 -6.367188 44.863281 -9.332031 45.84375 -12.875 C 46.820312 -16.425781 47.453125 -20 47.734375 -23.59375 C 48.015625 -27.1875 48.15625 -30.195312 48.15625 -32.625 C 48.15625 -35.144531 48.035156 -38.15625 47.796875 -41.65625 C 47.566406 -45.15625 46.960938 -48.628906 45.984375 -52.078125 C 45.003906 -55.535156 43.535156 -58.40625 41.578125 -60.6875 C 39.617188 -62.976562 36.863281 -64.125 33.3125 -64.125 C 29.863281 -64.125 27.160156 -62.976562 25.203125 -60.6875 C 23.242188 -58.40625 21.796875 -55.535156 20.859375 -52.078125 C 19.921875 -48.628906 19.3125 -45.128906 19.03125 -41.578125 C 18.757812 -38.035156 18.625 -35.050781 18.625 -32.625 Z M 18.625 -32.625 "/></g></g></g><g fill="#2d3e70" fill-opacity="1"><g transform="translate(932.006572, 293.590918)"><g><path d="M 0.984375 -58.9375 L 22.125 -65.65625 L 22.125 -54.734375 L 23.9375 -57.953125 C 25.519531 -60.753906 27.875 -62.785156 31 -64.046875 C 34.132812 -65.304688 37.285156 -65.9375 40.453125 -65.9375 C 46.617188 -65.9375 51.453125 -64.394531 54.953125 -61.3125 C 58.453125 -58.238281 60.945312 -54.25 62.4375 -49.34375 C 63.9375 -44.445312 64.6875 -39.195312 64.6875 -33.59375 C 64.6875 -27.25 63.75 -21.53125 61.875 -16.4375 C 60.007812 -11.351562 57.046875 -7.34375 52.984375 -4.40625 C 48.929688 -1.46875 43.5 0 36.6875 0 C 34.4375 0 32.097656 -0.234375 29.671875 -0.703125 C 27.253906 -1.171875 25.296875 -2.148438 23.796875 -3.640625 L 22.125 -5.453125 L 22.125 21.984375 C 22.125 27.023438 24.316406 29.59375 28.703125 29.6875 L 28.703125 32.0625 L 0.984375 32.0625 L 0.984375 29.6875 C 5.460938 29.59375 7.703125 27.023438 7.703125 21.984375 L 7.703125 -48.71875 C 7.703125 -53.570312 5.460938 -56.140625 0.984375 -56.421875 Z M 22.125 -51.515625 L 22.125 -11.0625 C 22.125 -10.59375 22.21875 -10.171875 22.40625 -9.796875 C 22.59375 -9.421875 22.6875 -9.1875 22.6875 -9.09375 C 23.613281 -7.226562 24.941406 -5.640625 26.671875 -4.328125 C 28.398438 -3.023438 30.335938 -2.375 32.484375 -2.375 C 35.835938 -2.375 38.632812 -3.632812 40.875 -6.15625 C 43.113281 -8.675781 44.835938 -11.78125 46.046875 -15.46875 C 47.265625 -19.15625 48.128906 -22.890625 48.640625 -26.671875 C 49.160156 -30.453125 49.421875 -33.601562 49.421875 -36.125 C 49.421875 -38.269531 49.253906 -40.785156 48.921875 -43.671875 C 48.597656 -46.566406 47.921875 -49.390625 46.890625 -52.140625 C 45.867188 -54.898438 44.398438 -57.210938 42.484375 -59.078125 C 40.578125 -60.941406 38.035156 -61.875 34.859375 -61.875 C 32.429688 -61.875 30.257812 -61.148438 28.34375 -59.703125 C 26.4375 -58.265625 24.875 -56.609375 23.65625 -54.734375 C 23.65625 -54.734375 23.5625 -54.59375 23.375 -54.3125 C 23.1875 -54.039062 23 -53.765625 22.8125 -53.484375 C 22.726562 -53.203125 22.59375 -52.875 22.40625 -52.5 C 22.3125 -52.40625 22.265625 -52.332031 22.265625 -52.28125 C 22.265625 -52.238281 22.265625 -52.21875 22.265625 -52.21875 C 22.171875 -52.03125 22.125 -51.796875 22.125 -51.515625 Z M 22.125 -51.515625 "/></g></g></g><g fill="#2d3e70" fill-opacity="1"><g transform="translate(363.705549, 489.340908)"><g><path d="M 1.125 -2.375 C 3.269531 -2.46875 5.15625 -3.070312 6.78125 -4.1875 C 8.414062 -5.3125 9.234375 -7.226562 9.234375 -9.9375 L 9.234375 -80.78125 C 9.234375 -83.488281 8.414062 -85.425781 6.78125 -86.59375 C 5.15625 -87.757812 3.269531 -88.390625 1.125 -88.484375 L 1.125 -90.71875 C 6.53125 -90.71875 11.894531 -90.738281 17.21875 -90.78125 C 22.539062 -90.832031 27.90625 -90.859375 33.3125 -90.859375 C 36.300781 -90.859375 39.566406 -90.765625 43.109375 -90.578125 C 46.660156 -90.390625 49.789062 -89.878906 52.5 -89.046875 C 58.007812 -87.453125 62.1875 -84.296875 65.03125 -79.578125 C 67.875 -74.867188 69.296875 -69.671875 69.296875 -63.984375 C 69.296875 -58.285156 67.875 -53.078125 65.03125 -48.359375 C 62.1875 -43.648438 58.007812 -40.457031 52.5 -38.78125 C 50.632812 -38.21875 48.507812 -37.816406 46.125 -37.578125 C 43.75 -37.347656 41.300781 -37.1875 38.78125 -37.09375 C 36.257812 -37 33.785156 -36.972656 31.359375 -37.015625 C 28.929688 -37.066406 26.691406 -37.09375 24.640625 -37.09375 L 23.65625 -37.234375 L 23.65625 -9.9375 C 23.65625 -7.226562 24.445312 -5.3125 26.03125 -4.1875 C 27.625 -3.070312 29.492188 -2.46875 31.640625 -2.375 L 31.640625 0 L 1.125 0 Z M 23.65625 -39.765625 L 24.640625 -39.765625 C 25.941406 -39.765625 27.382812 -39.765625 28.96875 -39.765625 C 30.5625 -39.765625 32.242188 -39.8125 34.015625 -39.90625 C 35.703125 -40 37.359375 -40.179688 38.984375 -40.453125 C 40.617188 -40.734375 42.046875 -41.15625 43.265625 -41.71875 C 45.960938 -42.9375 48.101562 -44.800781 49.6875 -47.3125 C 51.28125 -49.832031 52.40625 -52.585938 53.0625 -55.578125 C 53.71875 -58.566406 54.046875 -61.320312 54.046875 -63.84375 C 54.046875 -66.457031 53.71875 -69.253906 53.0625 -72.234375 C 52.40625 -75.222656 51.28125 -78 49.6875 -80.5625 C 48.101562 -83.132812 45.914062 -85.023438 43.125 -86.234375 C 41.90625 -86.796875 40.476562 -87.191406 38.84375 -87.421875 C 37.21875 -87.660156 35.5625 -87.828125 33.875 -87.921875 C 32.195312 -88.109375 30.5625 -88.203125 28.96875 -88.203125 C 27.382812 -88.203125 25.941406 -88.203125 24.640625 -88.203125 L 23.65625 -88.203125 Z M 23.65625 -39.765625 "/></g></g></g><g fill="#2d3e70" fill-opacity="1"><g transform="translate(434.121614, 489.340908)"><g><path d="M 3.5 -32.0625 C 3.5 -38.125 4.59375 -43.722656 6.78125 -48.859375 C 8.976562 -53.992188 12.222656 -58.125 16.515625 -61.25 C 20.804688 -64.375 26.128906 -65.9375 32.484375 -65.9375 C 37.984375 -65.9375 42.671875 -64.695312 46.546875 -62.21875 C 50.421875 -59.75 53.382812 -56.367188 55.4375 -52.078125 C 57.488281 -47.785156 58.515625 -42.976562 58.515625 -37.65625 L 58.515625 -37.234375 L 18.625 -37.234375 L 18.625 -35.28125 C 18.625 -32.289062 18.992188 -29.207031 19.734375 -26.03125 C 20.484375 -22.863281 21.648438 -19.898438 23.234375 -17.140625 C 24.828125 -14.390625 26.90625 -12.148438 29.46875 -10.421875 C 32.03125 -8.703125 35.179688 -7.84375 38.921875 -7.84375 C 42.367188 -7.84375 45.75 -8.65625 49.0625 -10.28125 C 52.382812 -11.914062 55.070312 -14.132812 57.125 -16.9375 L 58.375 -16.09375 C 55.582031 -10.6875 52.34375 -6.414062 48.65625 -3.28125 C 44.96875 -0.15625 39.8125 1.40625 33.1875 1.40625 C 26.738281 1.40625 21.320312 -0.0859375 16.9375 -3.078125 C 12.550781 -6.066406 9.210938 -10.101562 6.921875 -15.1875 C 4.640625 -20.269531 3.5 -25.894531 3.5 -32.0625 Z M 18.90625 -40.453125 L 18.90625 -39.484375 L 43.546875 -39.484375 L 43.546875 -40.453125 C 43.453125 -42.140625 43.191406 -44.265625 42.765625 -46.828125 C 42.347656 -49.398438 41.695312 -51.988281 40.8125 -54.59375 C 39.925781 -57.207031 38.734375 -59.398438 37.234375 -61.171875 C 35.742188 -62.953125 33.925781 -63.84375 31.78125 -63.84375 C 29.539062 -63.84375 27.648438 -62.953125 26.109375 -61.171875 C 24.566406 -59.398438 23.28125 -57.226562 22.25 -54.65625 C 21.226562 -52.09375 20.460938 -49.503906 19.953125 -46.890625 C 19.441406 -44.285156 19.09375 -42.140625 18.90625 -40.453125 Z M 18.90625 -40.453125 "/></g></g></g><g fill="#2d3e70" fill-opacity="1"><g transform="translate(496.278135, 489.340908)"><g><path d="M 1.125 -57.546875 L 22.265625 -64.265625 L 22.265625 -55.71875 L 23.9375 -58.234375 C 26.082031 -61.222656 28.785156 -63.253906 32.046875 -64.328125 C 35.316406 -65.398438 38.679688 -65.9375 42.140625 -65.9375 C 48.203125 -65.9375 53.144531 -64.46875 56.96875 -61.53125 C 60.800781 -58.59375 62.71875 -53.945312 62.71875 -47.59375 L 62.71875 -9.9375 C 62.71875 -7.414062 63.226562 -5.546875 64.25 -4.328125 C 65.28125 -3.117188 66.960938 -2.46875 69.296875 -2.375 L 69.296875 0 L 41.578125 0 L 41.578125 -2.375 C 46.054688 -2.46875 48.296875 -4.988281 48.296875 -9.9375 L 48.296875 -47.3125 C 48.296875 -49.738281 47.851562 -52.09375 46.96875 -54.375 C 46.082031 -56.664062 44.75 -58.582031 42.96875 -60.125 C 41.195312 -61.664062 38.867188 -62.4375 35.984375 -62.4375 C 33.554688 -62.4375 31.289062 -61.644531 29.1875 -60.0625 C 27.09375 -58.476562 25.414062 -56.519531 24.15625 -54.1875 C 22.894531 -51.851562 22.265625 -49.5625 22.265625 -47.3125 L 22.265625 -9.9375 C 22.265625 -4.988281 24.457031 -2.46875 28.84375 -2.375 L 28.84375 0 L 1.125 0 L 1.125 -2.375 C 5.601562 -2.46875 7.84375 -4.988281 7.84375 -9.9375 L 7.84375 -47.3125 C 7.84375 -52.164062 5.601562 -54.734375 1.125 -55.015625 Z M 1.125 -57.546875 "/></g></g></g><g fill="#2d3e70" fill-opacity="1"><g transform="translate(565.714266, 489.340908)"><g><path d="M -1.125 21.421875 C -1.125 18.898438 -0.398438 16.707031 1.046875 14.84375 C 2.492188 12.976562 4.359375 11.4375 6.640625 10.21875 C 8.929688 9.007812 11.242188 8.171875 13.578125 7.703125 L 17.078125 7 L 13.71875 5.734375 C 10.632812 4.617188 8.132812 3.082031 6.21875 1.125 C 4.3125 -0.832031 3.359375 -3.492188 3.359375 -6.859375 C 3.359375 -9.285156 4.175781 -11.429688 5.8125 -13.296875 C 7.445312 -15.160156 9.382812 -16.421875 11.625 -17.078125 L 13.296875 -17.640625 L 12.046875 -18.765625 C 9.148438 -21.378906 7 -24.476562 5.59375 -28.0625 C 4.195312 -31.65625 3.5 -35.414062 3.5 -39.34375 C 3.5 -44.75 4.640625 -49.4375 6.921875 -53.40625 C 9.210938 -57.375 12.410156 -60.453125 16.515625 -62.640625 C 20.628906 -64.835938 25.296875 -65.9375 30.515625 -65.9375 C 34.628906 -65.9375 38.550781 -65.238281 42.28125 -63.84375 L 43.546875 -63.28125 L 43.546875 -64.6875 C 43.816406 -67.570312 44.488281 -70.414062 45.5625 -73.21875 C 46.644531 -76.019531 48.210938 -78.351562 50.265625 -80.21875 C 52.316406 -82.082031 54.832031 -83.015625 57.8125 -83.015625 C 59.96875 -83.015625 61.695312 -82.382812 63 -81.125 C 64.300781 -79.863281 64.953125 -78.160156 64.953125 -76.015625 C 64.953125 -74.054688 64.367188 -72.398438 63.203125 -71.046875 C 62.035156 -69.691406 60.472656 -69.015625 58.515625 -69.015625 C 58.140625 -69.015625 57.742188 -69.035156 57.328125 -69.078125 C 56.910156 -69.128906 56.46875 -69.15625 56 -69.15625 C 53.664062 -69.15625 51.703125 -68.5 50.109375 -67.1875 C 48.523438 -65.882812 47.410156 -64.160156 46.765625 -62.015625 L 46.484375 -61.3125 L 47.046875 -60.90625 C 50.585938 -58.382812 53.148438 -55.234375 54.734375 -51.453125 C 56.328125 -47.671875 57.125 -43.632812 57.125 -39.34375 C 57.125 -31.125 54.71875 -24.585938 49.90625 -19.734375 C 45.101562 -14.878906 38.640625 -12.453125 30.515625 -12.453125 C 27.804688 -12.453125 25.125 -12.78125 22.46875 -13.4375 C 19.8125 -14.09375 17.316406 -15.117188 14.984375 -16.515625 L 14.5625 -16.796875 L 14 -16.65625 C 13.25 -16.28125 12.523438 -15.695312 11.828125 -14.90625 C 11.128906 -14.113281 10.78125 -13.160156 10.78125 -12.046875 C 10.78125 -11.203125 11.015625 -10.472656 11.484375 -9.859375 C 11.953125 -9.253906 12.507812 -8.722656 13.15625 -8.265625 C 13.8125 -7.796875 14.554688 -7.394531 15.390625 -7.0625 C 16.234375 -6.738281 17.078125 -6.4375 17.921875 -6.15625 C 19.691406 -5.6875 21.441406 -5.335938 23.171875 -5.109375 C 24.898438 -4.878906 26.179688 -4.671875 27.015625 -4.484375 C 28.328125 -4.296875 29.632812 -4.109375 30.9375 -3.921875 C 32.25 -3.734375 33.554688 -3.546875 34.859375 -3.359375 C 37.472656 -2.984375 40.179688 -2.445312 42.984375 -1.75 C 45.785156 -1.050781 48.394531 -0.0507812 50.8125 1.25 C 53.238281 2.5625 55.222656 4.289062 56.765625 6.4375 C 58.304688 8.582031 59.078125 11.289062 59.078125 14.5625 C 59.078125 17.082031 58.445312 19.507812 57.1875 21.84375 C 55.925781 24.175781 54.363281 26.226562 52.5 28 C 50.257812 30.144531 47.53125 31.820312 44.3125 33.03125 C 41.09375 34.25 37.753906 35.09375 34.296875 35.5625 C 30.847656 36.03125 27.535156 36.265625 24.359375 36.265625 C 21.929688 36.265625 19.25 36.03125 16.3125 35.5625 C 13.375 35.09375 10.570312 34.296875 7.90625 33.171875 C 5.25 32.054688 3.078125 30.539062 1.390625 28.625 C -0.285156 26.71875 -1.125 24.316406 -1.125 21.421875 Z M 30.234375 -64.40625 C 27.441406 -64.40625 25.273438 -63.492188 23.734375 -61.671875 C 22.191406 -59.847656 21.066406 -57.5625 20.359375 -54.8125 C 19.660156 -52.0625 19.242188 -49.285156 19.109375 -46.484375 C 18.972656 -43.679688 18.90625 -41.300781 18.90625 -39.34375 C 18.90625 -37.382812 18.992188 -34.976562 19.171875 -32.125 C 19.359375 -29.28125 19.800781 -26.476562 20.5 -23.71875 C 21.207031 -20.96875 22.351562 -18.660156 23.9375 -16.796875 C 25.519531 -14.929688 27.710938 -14 30.515625 -14 C 33.316406 -14 35.488281 -14.929688 37.03125 -16.796875 C 38.570312 -18.660156 39.691406 -20.96875 40.390625 -23.71875 C 41.085938 -26.476562 41.503906 -29.28125 41.640625 -32.125 C 41.785156 -34.976562 41.859375 -37.382812 41.859375 -39.34375 C 41.859375 -41.300781 41.765625 -43.703125 41.578125 -46.546875 C 41.390625 -49.390625 40.945312 -52.164062 40.25 -54.875 C 39.550781 -57.582031 38.40625 -59.847656 36.8125 -61.671875 C 35.226562 -63.492188 33.035156 -64.40625 30.234375 -64.40625 Z M 19.453125 7.84375 C 16.566406 8.863281 14.164062 10.609375 12.25 13.078125 C 10.332031 15.554688 9.375 18.429688 9.375 21.703125 C 9.375 24.867188 10.304688 27.335938 12.171875 29.109375 C 14.046875 30.890625 16.285156 32.148438 18.890625 32.890625 C 21.503906 33.640625 23.976562 34.015625 26.3125 34.015625 C 29.019531 34.015625 31.726562 33.546875 34.4375 32.609375 C 37.144531 31.679688 39.40625 30.191406 41.21875 28.140625 C 43.039062 26.085938 43.953125 23.378906 43.953125 20.015625 C 43.953125 17.960938 43.367188 16.328125 42.203125 15.109375 C 41.035156 13.898438 39.585938 12.921875 37.859375 12.171875 C 36.140625 11.429688 34.441406 10.875 32.765625 10.5 C 31.921875 10.3125 31.125 10.125 30.375 9.9375 C 29.632812 9.75 28.9375 9.609375 28.28125 9.515625 C 26.96875 9.234375 25.613281 8.953125 24.21875 8.671875 C 22.820312 8.398438 21.421875 8.078125 20.015625 7.703125 L 19.734375 7.703125 Z M 19.453125 7.84375 "/></g></g></g><g fill="#2d3e70" fill-opacity="1"><g transform="translate(626.190886, 489.340908)"><g><path d="M 3.5 -32.0625 C 3.5 -38.125 4.59375 -43.722656 6.78125 -48.859375 C 8.976562 -53.992188 12.222656 -58.125 16.515625 -61.25 C 20.804688 -64.375 26.128906 -65.9375 32.484375 -65.9375 C 37.984375 -65.9375 42.671875 -64.695312 46.546875 -62.21875 C 50.421875 -59.75 53.382812 -56.367188 55.4375 -52.078125 C 57.488281 -47.785156 58.515625 -42.976562 58.515625 -37.65625 L 58.515625 -37.234375 L 18.625 -37.234375 L 18.625 -35.28125 C 18.625 -32.289062 18.992188 -29.207031 19.734375 -26.03125 C 20.484375 -22.863281 21.648438 -19.898438 23.234375 -17.140625 C 24.828125 -14.390625 26.90625 -12.148438 29.46875 -10.421875 C 32.03125 -8.703125 35.179688 -7.84375 38.921875 -7.84375 C 42.367188 -7.84375 45.75 -8.65625 49.0625 -10.28125 C 52.382812 -11.914062 55.070312 -14.132812 57.125 -16.9375 L 58.375 -16.09375 C 55.582031 -10.6875 52.34375 -6.414062 48.65625 -3.28125 C 44.96875 -0.15625 39.8125 1.40625 33.1875 1.40625 C 26.738281 1.40625 21.320312 -0.0859375 16.9375 -3.078125 C 12.550781 -6.066406 9.210938 -10.101562 6.921875 -15.1875 C 4.640625 -20.269531 3.5 -25.894531 3.5 -32.0625 Z M 18.90625 -40.453125 L 18.90625 -39.484375 L 43.546875 -39.484375 L 43.546875 -40.453125 C 43.453125 -42.140625 43.191406 -44.265625 42.765625 -46.828125 C 42.347656 -49.398438 41.695312 -51.988281 40.8125 -54.59375 C 39.925781 -57.207031 38.734375 -59.398438 37.234375 -61.171875 C 35.742188 -62.953125 33.925781 -63.84375 31.78125 -63.84375 C 29.539062 -63.84375 27.648438 -62.953125 26.109375 -61.171875 C 24.566406 -59.398438 23.28125 -57.226562 22.25 -54.65625 C 21.226562 -52.09375 20.460938 -49.503906 19.953125 -46.890625 C 19.441406 -44.285156 19.09375 -42.140625 18.90625 -40.453125 Z M 18.90625 -40.453125 "/></g></g></g><g fill="#2d3e70" fill-opacity="1"><g transform="translate(688.347408, 489.340908)"><g><path d="M 1.125 -57.546875 L 22.265625 -64.265625 L 22.265625 -55.71875 L 23.9375 -58.234375 C 26.082031 -61.222656 28.785156 -63.253906 32.046875 -64.328125 C 35.316406 -65.398438 38.679688 -65.9375 42.140625 -65.9375 C 48.203125 -65.9375 53.144531 -64.46875 56.96875 -61.53125 C 60.800781 -58.59375 62.71875 -53.945312 62.71875 -47.59375 L 62.71875 -9.9375 C 62.71875 -7.414062 63.226562 -5.546875 64.25 -4.328125 C 65.28125 -3.117188 66.960938 -2.46875 69.296875 -2.375 L 69.296875 0 L 41.578125 0 L 41.578125 -2.375 C 46.054688 -2.46875 48.296875 -4.988281 48.296875 -9.9375 L 48.296875 -47.3125 C 48.296875 -49.738281 47.851562 -52.09375 46.96875 -54.375 C 46.082031 -56.664062 44.75 -58.582031 42.96875 -60.125 C 41.195312 -61.664062 38.867188 -62.4375 35.984375 -62.4375 C 33.554688 -62.4375 31.289062 -61.644531 29.1875 -60.0625 C 27.09375 -58.476562 25.414062 -56.519531 24.15625 -54.1875 C 22.894531 -51.851562 22.265625 -49.5625 22.265625 -47.3125 L 22.265625 -9.9375 C 22.265625 -4.988281 24.457031 -2.46875 28.84375 -2.375 L 28.84375 0 L 1.125 0 L 1.125 -2.375 C 5.601562 -2.46875 7.84375 -4.988281 7.84375 -9.9375 L 7.84375 -47.3125 C 7.84375 -52.164062 5.601562 -54.734375 1.125 -55.015625 Z M 1.125 -57.546875 "/></g></g></g><g fill="#2d3e70" fill-opacity="1"><g transform="translate(757.783516, 489.340908)"><g><path d="M 27.4375 -0.140625 C 21.375 -0.140625 16.59375 -1.675781 13.09375 -4.75 C 9.59375 -7.832031 7.09375 -11.867188 5.59375 -16.859375 C 4.101562 -21.859375 3.359375 -27.113281 3.359375 -32.625 C 3.359375 -39.0625 4.289062 -44.800781 6.15625 -49.84375 C 8.019531 -54.882812 11.003906 -58.847656 15.109375 -61.734375 C 19.222656 -64.628906 24.640625 -66.078125 31.359375 -66.078125 C 33.503906 -66.078125 35.71875 -65.890625 38 -65.515625 C 40.289062 -65.140625 42.1875 -64.300781 43.6875 -63 L 45.21875 -61.59375 L 45.21875 -80.78125 C 45.21875 -85.632812 43.023438 -88.203125 38.640625 -88.484375 L 38.640625 -91 L 59.640625 -97.578125 L 59.640625 -17.359375 C 59.640625 -12.316406 61.878906 -9.75 66.359375 -9.65625 L 66.359375 -7 L 45.21875 -0.421875 L 45.21875 -9.65625 L 43.40625 -7.140625 C 41.625 -4.710938 39.265625 -2.9375 36.328125 -1.8125 C 33.390625 -0.695312 30.425781 -0.140625 27.4375 -0.140625 Z M 35.421875 -63.703125 C 32.054688 -63.703125 29.273438 -62.441406 27.078125 -59.921875 C 24.890625 -57.398438 23.1875 -54.296875 21.96875 -50.609375 C 20.757812 -46.921875 19.898438 -43.1875 19.390625 -39.40625 C 18.878906 -35.625 18.625 -32.472656 18.625 -29.953125 C 18.625 -27.898438 18.785156 -25.425781 19.109375 -22.53125 C 19.429688 -19.644531 20.109375 -16.820312 21.140625 -14.0625 C 22.171875 -11.3125 23.640625 -9.003906 25.546875 -7.140625 C 27.460938 -5.273438 30.007812 -4.34375 33.1875 -4.34375 C 35.601562 -4.34375 37.769531 -5.066406 39.6875 -6.515625 C 41.601562 -7.960938 43.164062 -9.570312 44.375 -11.34375 C 44.46875 -11.53125 44.609375 -11.71875 44.796875 -11.90625 C 44.890625 -12.09375 44.984375 -12.273438 45.078125 -12.453125 C 45.171875 -12.640625 45.21875 -12.875 45.21875 -13.15625 L 45.21875 -56.84375 C 45.21875 -57.40625 45.078125 -57.867188 44.796875 -58.234375 C 44.515625 -58.234375 44.375 -58.421875 44.375 -58.796875 C 43.351562 -60.296875 42.070312 -61.488281 40.53125 -62.375 C 38.988281 -63.257812 37.285156 -63.703125 35.421875 -63.703125 Z M 35.421875 -63.703125 "/></g></g></g><g fill="#2d3e70" fill-opacity="1"><g transform="translate(824.279774, 489.340908)"><g><path d="M 24.078125 1.265625 C 20.160156 1.265625 16.566406 0.566406 13.296875 -0.828125 C 10.035156 -2.234375 7.398438 -4.359375 5.390625 -7.203125 C 3.378906 -10.054688 2.375 -13.535156 2.375 -17.640625 C 2.375 -22.492188 3.492188 -26.578125 5.734375 -29.890625 C 7.972656 -33.203125 11.003906 -35.722656 14.828125 -37.453125 C 18.660156 -39.179688 22.863281 -40.046875 27.4375 -40.046875 C 29.113281 -40.046875 30.769531 -39.925781 32.40625 -39.6875 C 34.039062 -39.457031 35.601562 -39.015625 37.09375 -38.359375 L 38.5 -37.796875 L 38.5 -48.015625 C 38.5 -49.421875 38.453125 -51.101562 38.359375 -53.0625 C 38.265625 -55.019531 37.984375 -56.601562 37.515625 -57.8125 C 37.046875 -59.5 36.226562 -60.925781 35.0625 -62.09375 C 33.894531 -63.257812 32.191406 -63.84375 29.953125 -63.84375 C 27.160156 -63.84375 25.0625 -63.046875 23.65625 -61.453125 C 22.257812 -59.867188 21.347656 -57.957031 20.921875 -55.71875 C 20.503906 -53.476562 20.296875 -51.378906 20.296875 -49.421875 C 20.296875 -47.929688 19.476562 -46.8125 17.84375 -46.0625 C 16.21875 -45.3125 14.5625 -44.9375 12.875 -44.9375 C 11.289062 -44.9375 9.726562 -45.285156 8.1875 -45.984375 C 6.644531 -46.691406 5.875 -47.789062 5.875 -49.28125 C 5.875 -53.476562 7.132812 -56.789062 9.65625 -59.21875 C 12.175781 -61.644531 15.328125 -63.367188 19.109375 -64.390625 C 22.890625 -65.421875 26.597656 -65.9375 30.234375 -65.9375 C 37.046875 -65.9375 42.53125 -64.347656 46.6875 -61.171875 C 50.84375 -58.003906 52.921875 -52.921875 52.921875 -45.921875 L 52.921875 -10.5 C 52.921875 -10.21875 52.921875 -9.957031 52.921875 -9.71875 C 52.921875 -9.488281 52.921875 -9.234375 52.921875 -8.953125 C 52.921875 -8.679688 52.941406 -8.378906 52.984375 -8.046875 C 53.035156 -7.722656 53.109375 -7.421875 53.203125 -7.140625 C 53.390625 -6.578125 53.691406 -6.039062 54.109375 -5.53125 C 54.523438 -5.019531 55.203125 -4.765625 56.140625 -4.765625 C 57.171875 -4.765625 58.148438 -5.085938 59.078125 -5.734375 L 60.203125 -4.34375 C 58.703125 -2.570312 56.898438 -1.285156 54.796875 -0.484375 C 52.703125 0.304688 50.441406 0.703125 48.015625 0.703125 C 46.242188 0.703125 44.632812 0.328125 43.1875 -0.421875 C 41.738281 -1.171875 40.597656 -2.289062 39.765625 -3.78125 L 39.203125 -4.90625 L 38.21875 -4.0625 C 36.351562 -2.101562 34.207031 -0.726562 31.78125 0.0625 C 29.351562 0.863281 26.785156 1.265625 24.078125 1.265625 Z M 17.5 -17.078125 C 17.5 -14.929688 17.78125 -12.644531 18.34375 -10.21875 C 18.90625 -7.789062 19.953125 -5.738281 21.484375 -4.0625 C 23.023438 -2.382812 25.289062 -1.546875 28.28125 -1.546875 C 29.675781 -1.546875 31.164062 -1.894531 32.75 -2.59375 C 34.34375 -3.289062 35.695312 -4.289062 36.8125 -5.59375 C 37.9375 -6.90625 38.5 -8.398438 38.5 -10.078125 L 38.5 -35.84375 L 37.796875 -36.125 C 37.140625 -36.40625 36.414062 -36.585938 35.625 -36.671875 C 34.832031 -36.765625 34.0625 -36.8125 33.3125 -36.8125 C 29.488281 -36.8125 26.410156 -35.851562 24.078125 -33.9375 C 21.742188 -32.03125 20.0625 -29.5625 19.03125 -26.53125 C 18.007812 -23.5 17.5 -20.347656 17.5 -17.078125 Z M 17.5 -17.078125 "/></g></g></g><g fill="#2d3e70" fill-opacity="1"><g transform="translate(885.736329, 489.340908)"><g><path d="M 0.984375 -91 L 22.125 -97.578125 L 22.125 -9.9375 C 22.125 -4.988281 24.316406 -2.46875 28.703125 -2.375 L 28.703125 0 L 0.984375 0 L 0.984375 -2.375 C 5.460938 -2.46875 7.703125 -4.988281 7.703125 -9.9375 L 7.703125 -80.78125 C 7.703125 -85.632812 5.460938 -88.203125 0.984375 -88.484375 Z M 0.984375 -91 "/></g></g></g><g fill="#2d3e70" fill-opacity="1"><g transform="translate(915.414657, 489.340908)"><g><path d="M 1.546875 -57.546875 L 22.6875 -64.265625 L 22.6875 -9.9375 C 22.6875 -4.988281 24.878906 -2.46875 29.265625 -2.375 L 29.265625 0 L 1.546875 0 L 1.546875 -2.375 C 6.023438 -2.46875 8.265625 -4.988281 8.265625 -9.9375 L 8.265625 -47.3125 C 8.265625 -52.164062 6.023438 -54.734375 1.546875 -55.015625 Z M 3.5 -81.203125 C 3.5 -83.816406 4.429688 -86.054688 6.296875 -87.921875 C 8.160156 -89.785156 10.398438 -90.71875 13.015625 -90.71875 C 15.628906 -90.71875 17.894531 -89.785156 19.8125 -87.921875 C 21.726562 -86.054688 22.6875 -83.816406 22.6875 -81.203125 C 22.6875 -78.585938 21.703125 -76.300781 19.734375 -74.34375 C 17.773438 -72.382812 15.535156 -71.40625 13.015625 -71.40625 C 10.398438 -71.40625 8.160156 -72.382812 6.296875 -74.34375 C 4.429688 -76.300781 3.5 -78.585938 3.5 -81.203125 Z M 3.5 -81.203125 "/></g></g></g><g fill="#2d3e70" fill-opacity="1"><g transform="translate(945.372999, 489.340908)"><g><path d="M 24.078125 1.265625 C 20.160156 1.265625 16.566406 0.566406 13.296875 -0.828125 C 10.035156 -2.234375 7.398438 -4.359375 5.390625 -7.203125 C 3.378906 -10.054688 2.375 -13.535156 2.375 -17.640625 C 2.375 -22.492188 3.492188 -26.578125 5.734375 -29.890625 C 7.972656 -33.203125 11.003906 -35.722656 14.828125 -37.453125 C 18.660156 -39.179688 22.863281 -40.046875 27.4375 -40.046875 C 29.113281 -40.046875 30.769531 -39.925781 32.40625 -39.6875 C 34.039062 -39.457031 35.601562 -39.015625 37.09375 -38.359375 L 38.5 -37.796875 L 38.5 -48.015625 C 38.5 -49.421875 38.453125 -51.101562 38.359375 -53.0625 C 38.265625 -55.019531 37.984375 -56.601562 37.515625 -57.8125 C 37.046875 -59.5 36.226562 -60.925781 35.0625 -62.09375 C 33.894531 -63.257812 32.191406 -63.84375 29.953125 -63.84375 C 27.160156 -63.84375 25.0625 -63.046875 23.65625 -61.453125 C 22.257812 -59.867188 21.347656 -57.957031 20.921875 -55.71875 C 20.503906 -53.476562 20.296875 -51.378906 20.296875 -49.421875 C 20.296875 -47.929688 19.476562 -46.8125 17.84375 -46.0625 C 16.21875 -45.3125 14.5625 -44.9375 12.875 -44.9375 C 11.289062 -44.9375 9.726562 -45.285156 8.1875 -45.984375 C 6.644531 -46.691406 5.875 -47.789062 5.875 -49.28125 C 5.875 -53.476562 7.132812 -56.789062 9.65625 -59.21875 C 12.175781 -61.644531 15.328125 -63.367188 19.109375 -64.390625 C 22.890625 -65.421875 26.597656 -65.9375 30.234375 -65.9375 C 37.046875 -65.9375 42.53125 -64.347656 46.6875 -61.171875 C 50.84375 -58.003906 52.921875 -52.921875 52.921875 -45.921875 L 52.921875 -10.5 C 52.921875 -10.21875 52.921875 -9.957031 52.921875 -9.71875 C 52.921875 -9.488281 52.921875 -9.234375 52.921875 -8.953125 C 52.921875 -8.679688 52.941406 -8.378906 52.984375 -8.046875 C 53.035156 -7.722656 53.109375 -7.421875 53.203125 -7.140625 C 53.390625 -6.578125 53.691406 -6.039062 54.109375 -5.53125 C 54.523438 -5.019531 55.203125 -4.765625 56.140625 -4.765625 C 57.171875 -4.765625 58.148438 -5.085938 59.078125 -5.734375 L 60.203125 -4.34375 C 58.703125 -2.570312 56.898438 -1.285156 54.796875 -0.484375 C 52.703125 0.304688 50.441406 0.703125 48.015625 0.703125 C 46.242188 0.703125 44.632812 0.328125 43.1875 -0.421875 C 41.738281 -1.171875 40.597656 -2.289062 39.765625 -3.78125 L 39.203125 -4.90625 L 38.21875 -4.0625 C 36.351562 -2.101562 34.207031 -0.726562 31.78125 0.0625 C 29.351562 0.863281 26.785156 1.265625 24.078125 1.265625 Z M 17.5 -17.078125 C 17.5 -14.929688 17.78125 -12.644531 18.34375 -10.21875 C 18.90625 -7.789062 19.953125 -5.738281 21.484375 -4.0625 C 23.023438 -2.382812 25.289062 -1.546875 28.28125 -1.546875 C 29.675781 -1.546875 31.164062 -1.894531 32.75 -2.59375 C 34.34375 -3.289062 35.695312 -4.289062 36.8125 -5.59375 C 37.9375 -6.90625 38.5 -8.398438 38.5 -10.078125 L 38.5 -35.84375 L 37.796875 -36.125 C 37.140625 -36.40625 36.414062 -36.585938 35.625 -36.671875 C 34.832031 -36.765625 34.0625 -36.8125 33.3125 -36.8125 C 29.488281 -36.8125 26.410156 -35.851562 24.078125 -33.9375 C 21.742188 -32.03125 20.0625 -29.5625 19.03125 -26.53125 C 18.007812 -23.5 17.5 -20.347656 17.5 -17.078125 Z M 17.5 -17.078125 "/></g></g></g><g fill="#2d3e70" fill-opacity="1"><g transform="translate(1006.829555, 489.340908)"><g><path d="M 1.125 -57.546875 L 22.265625 -64.265625 L 22.265625 -55.71875 L 23.9375 -58.234375 C 26.082031 -61.222656 28.785156 -63.253906 32.046875 -64.328125 C 35.316406 -65.398438 38.679688 -65.9375 42.140625 -65.9375 C 48.203125 -65.9375 53.144531 -64.46875 56.96875 -61.53125 C 60.800781 -58.59375 62.71875 -53.945312 62.71875 -47.59375 L 62.71875 -9.9375 C 62.71875 -7.414062 63.226562 -5.546875 64.25 -4.328125 C 65.28125 -3.117188 66.960938 -2.46875 69.296875 -2.375 L 69.296875 0 L 41.578125 0 L 41.578125 -2.375 C 46.054688 -2.46875 48.296875 -4.988281 48.296875 -9.9375 L 48.296875 -47.3125 C 48.296875 -49.738281 47.851562 -52.09375 46.96875 -54.375 C 46.082031 -56.664062 44.75 -58.582031 42.96875 -60.125 C 41.195312 -61.664062 38.867188 -62.4375 35.984375 -62.4375 C 33.554688 -62.4375 31.289062 -61.644531 29.1875 -60.0625 C 27.09375 -58.476562 25.414062 -56.519531 24.15625 -54.1875 C 22.894531 -51.851562 22.265625 -49.5625 22.265625 -47.3125 L 22.265625 -9.9375 C 22.265625 -4.988281 24.457031 -2.46875 28.84375 -2.375 L 28.84375 0 L 1.125 0 L 1.125 -2.375 C 5.601562 -2.46875 7.84375 -4.988281 7.84375 -9.9375 L 7.84375 -47.3125 C 7.84375 -52.164062 5.601562 -54.734375 1.125 -55.015625 Z M 1.125 -57.546875 "/></g></g></g><g fill="#ffffff" fill-opacity="1"><g transform="translate(81.000002, 777.374981)"><g><path d="M 5.140625 -5.015625 L 2.890625 -5.015625 L 2.890625 0 L 1.34375 0 L 1.34375 -12.59375 L 5.640625 -12.59375 C 6.648438 -12.59375 7.484375 -12.40625 8.140625 -12.03125 C 8.796875 -11.664062 9.265625 -11.191406 9.546875 -10.609375 C 9.835938 -10.035156 9.984375 -9.429688 9.984375 -8.796875 C 9.984375 -7.921875 9.722656 -7.132812 9.203125 -6.4375 C 8.679688 -5.75 7.867188 -5.304688 6.765625 -5.109375 L 10.09375 0 L 8.390625 0 Z M 2.890625 -6.359375 L 5.4375 -6.359375 C 6.289062 -6.359375 7.007812 -6.539062 7.59375 -6.90625 C 8.1875 -7.28125 8.484375 -7.910156 8.484375 -8.796875 C 8.484375 -9.671875 8.1875 -10.289062 7.59375 -10.65625 C 7.007812 -11.019531 6.289062 -11.203125 5.4375 -11.203125 L 2.890625 -11.203125 Z M 2.890625 -6.359375 "/></g></g></g><g fill="#ffffff" fill-opacity="1"><g transform="translate(91.88997, 777.374981)"><g><path d="M 4.71875 0.015625 L 4.71875 -4.546875 L 0.609375 -12.59375 L 2.296875 -12.59375 L 5.4375 -6.296875 L 5.5625 -6.296875 L 8.671875 -12.59375 L 10.375 -12.59375 L 6.28125 -4.546875 L 6.28125 0 Z M 4.71875 0.015625 "/></g></g></g><g fill="#ffffff" fill-opacity="1"><g transform="translate(102.941941, 777.374981)"><g><path d="M 8.6875 -3.671875 L 3.5625 -3.671875 L 2.234375 0 L 0.640625 0 L 5.375 -12.59375 L 6.859375 -12.59375 L 11.625 0 L 10.046875 0 Z M 8.25 -4.90625 L 6.140625 -10.625 L 6.0625 -10.625 L 4.015625 -4.90625 Z M 8.25 -4.90625 "/></g></g></g><g fill="#ffffff" fill-opacity="1"><g transform="translate(115.1819, 777.374981)"><g><path d="M 1.34375 -12.59375 L 3.09375 -12.59375 L 9.84375 -2.484375 L 9.921875 -2.484375 L 9.921875 -12.59375 L 11.453125 -12.59375 L 11.453125 0 L 9.6875 0 L 2.953125 -9.96875 L 2.875 -9.96875 L 2.875 0 L 1.34375 0 Z M 1.34375 -12.59375 "/></g></g></g><g fill="#ffffff" fill-opacity="1"><g transform="translate(127.979862, 777.374981)"><g/></g></g><g fill="#ffffff" fill-opacity="1"><g transform="translate(132.119854, 777.374981)"><g><path d="M 1.40625 -12.59375 L 2.96875 -12.59375 L 2.96875 0 L 1.40625 0 Z M 1.40625 -12.59375 "/></g></g></g><g fill="#ffffff" fill-opacity="1"><g transform="translate(136.493843, 777.374981)"><g><path d="M 1.34375 -12.59375 L 6.390625 -12.59375 C 7.234375 -12.59375 7.921875 -12.429688 8.453125 -12.109375 C 8.984375 -11.785156 9.363281 -11.378906 9.59375 -10.890625 C 9.820312 -10.410156 9.9375 -9.910156 9.9375 -9.390625 C 9.9375 -8.859375 9.820312 -8.390625 9.59375 -7.984375 C 9.363281 -7.585938 9.085938 -7.28125 8.765625 -7.0625 C 8.441406 -6.851562 8.132812 -6.71875 7.84375 -6.65625 L 7.84375 -6.546875 C 8.15625 -6.523438 8.519531 -6.414062 8.9375 -6.21875 C 9.351562 -6.019531 9.71875 -5.703125 10.03125 -5.265625 C 10.351562 -4.828125 10.515625 -4.269531 10.515625 -3.59375 C 10.515625 -3 10.378906 -2.425781 10.109375 -1.875 C 9.835938 -1.332031 9.410156 -0.882812 8.828125 -0.53125 C 8.253906 -0.175781 7.535156 0 6.671875 0 L 1.34375 0 Z M 5.9375 -7.078125 C 6.625 -7.078125 7.210938 -7.253906 7.703125 -7.609375 C 8.191406 -7.960938 8.4375 -8.507812 8.4375 -9.25 C 8.4375 -9.957031 8.195312 -10.472656 7.71875 -10.796875 C 7.25 -11.117188 6.65625 -11.28125 5.9375 -11.28125 L 2.859375 -11.28125 L 2.859375 -7.078125 Z M 6.28125 -1.3125 C 7.0625 -1.3125 7.707031 -1.488281 8.21875 -1.84375 C 8.738281 -2.207031 9 -2.800781 9 -3.625 C 9 -4.425781 8.738281 -4.992188 8.21875 -5.328125 C 7.707031 -5.671875 7.0625 -5.84375 6.28125 -5.84375 L 2.859375 -5.84375 L 2.859375 -1.3125 Z M 6.28125 -1.3125 "/></g></g></g><g fill="#ffffff" fill-opacity="1"><g transform="translate(147.725806, 777.374981)"><g><path d="M 5.140625 -5.015625 L 2.890625 -5.015625 L 2.890625 0 L 1.34375 0 L 1.34375 -12.59375 L 5.640625 -12.59375 C 6.648438 -12.59375 7.484375 -12.40625 8.140625 -12.03125 C 8.796875 -11.664062 9.265625 -11.191406 9.546875 -10.609375 C 9.835938 -10.035156 9.984375 -9.429688 9.984375 -8.796875 C 9.984375 -7.921875 9.722656 -7.132812 9.203125 -6.4375 C 8.679688 -5.75 7.867188 -5.304688 6.765625 -5.109375 L 10.09375 0 L 8.390625 0 Z M 2.890625 -6.359375 L 5.4375 -6.359375 C 6.289062 -6.359375 7.007812 -6.539062 7.59375 -6.90625 C 8.1875 -7.28125 8.484375 -7.910156 8.484375 -8.796875 C 8.484375 -9.671875 8.1875 -10.289062 7.59375 -10.65625 C 7.007812 -11.019531 6.289062 -11.203125 5.4375 -11.203125 L 2.890625 -11.203125 Z M 2.890625 -6.359375 "/></g></g></g><g fill="#ffffff" fill-opacity="1"><g transform="translate(158.615775, 777.374981)"><g><path d="M 8.6875 -3.671875 L 3.5625 -3.671875 L 2.234375 0 L 0.640625 0 L 5.375 -12.59375 L 6.859375 -12.59375 L 11.625 0 L 10.046875 0 Z M 8.25 -4.90625 L 6.140625 -10.625 L 6.0625 -10.625 L 4.015625 -4.90625 Z M 8.25 -4.90625 "/></g></g></g><g fill="#ffffff" fill-opacity="1"><g transform="translate(170.855734, 777.374981)"><g><path d="M 10.875 -12.59375 L 10.875 0 L 9.3125 0 L 9.3125 -5.703125 L 2.890625 -5.703125 L 2.890625 0 L 1.34375 0 L 1.34375 -12.59375 L 2.890625 -12.59375 L 2.890625 -6.96875 L 9.3125 -6.96875 L 9.3125 -12.59375 Z M 10.875 -12.59375 "/></g></g></g><g fill="#ffffff" fill-opacity="1"><g transform="translate(183.077703, 777.374981)"><g><path d="M 1.40625 -12.59375 L 2.96875 -12.59375 L 2.96875 0 L 1.40625 0 Z M 1.40625 -12.59375 "/></g></g></g><g fill="#ffffff" fill-opacity="1"><g transform="translate(187.451692, 777.374981)"><g><path d="M 1.34375 -12.59375 L 3.640625 -12.59375 L 7.375 -2.953125 L 7.4375 -2.953125 L 11.171875 -12.59375 L 13.46875 -12.59375 L 13.46875 0 L 11.9375 0 L 11.9375 -10.203125 L 11.859375 -10.203125 L 7.953125 0 L 6.84375 0 L 2.953125 -10.203125 L 2.875 -10.203125 L 2.875 0 L 1.34375 0 Z M 1.34375 -12.59375 "/></g></g></g></svg>