<svg xmlns="http://www.w3.org/2000/svg" xmlns:xlink="http://www.w3.org/1999/xlink" width="1920" zoomAndPan="magnify" viewBox="0 0 1440 809.999993" height="1080" preserveAspectRatio="xMidYMid meet" version="1.0"><defs><g/></defs><rect x="-144" width="1728" fill="#ffffff" y="-80.999999" height="971.999992" fill-opacity="1"/><rect x="-144" width="1728" fill="#faf4eb" y="-80.999999" height="971.999992" fill-opacity="1"/><path fill="#2d3e70" d="M 0 729 L 1439.964844 729 L 1439.964844 810 L 0 810 Z M 0 729 " fill-opacity="1" fill-rule="nonzero"/><g fill="#2d3e70" fill-opacity="1"><g transform="translate(362.589835, 390.937822)"><g><path d="M 2.519531 -2.238281 C 5.878906 -2.425781 8.679688 -3.265625 10.917969 -4.761719 C 13.160156 -6.253906 14.28125 -9.101562 14.28125 -13.300781 L 14.28125 -83.855469 L 14 -84.136719 C 12.597656 -85.628906 11.082031 -86.703125 9.449219 -87.355469 C 7.816406 -88.011719 6.066406 -88.382812 4.199219 -88.476562 L 4.199219 -90.714844 L 27.859375 -90.714844 L 62.019531 -18.757812 L 90.15625 -90.714844 L 112.835938 -90.714844 L 112.835938 -88.476562 C 110.6875 -88.382812 108.800781 -87.753906 107.167969 -86.585938 C 105.53125 -85.421875 104.714844 -83.484375 104.714844 -80.777344 L 104.714844 -9.941406 C 104.714844 -7.234375 105.53125 -5.320312 107.167969 -4.199219 C 108.800781 -3.078125 110.6875 -2.472656 112.835938 -2.378906 L 112.835938 0 L 82.316406 0 L 82.316406 -2.378906 C 84.464844 -2.472656 86.332031 -3.078125 87.917969 -4.199219 C 89.503906 -5.320312 90.296875 -7.234375 90.296875 -9.941406 L 90.296875 -85.398438 L 57.539062 -1.398438 L 54.597656 -1.398438 L 16.519531 -80.496094 L 16.519531 -13.300781 C 16.519531 -9.941406 17.265625 -7.488281 18.757812 -5.949219 C 20.253906 -4.410156 22.121094 -3.429688 24.359375 -3.011719 C 26.597656 -2.589844 28.886719 -2.332031 31.21875 -2.238281 L 31.21875 0 L 2.519531 0 Z M 2.519531 -2.238281 "/></g></g></g><g fill="#2d3e70" fill-opacity="1"><g transform="translate(476.823449, 390.937822)"><g><path d="M 33.320312 1.398438 C 26.597656 1.398438 21.023438 -0.0703125 16.589844 -3.011719 C 12.15625 -5.949219 8.84375 -9.984375 6.648438 -15.121094 C 4.457031 -20.253906 3.359375 -26.085938 3.359375 -32.617188 C 3.359375 -39.152344 4.457031 -44.914062 6.648438 -49.910156 C 8.84375 -54.902344 12.15625 -58.820312 16.589844 -61.667969 C 21.023438 -64.515625 26.597656 -65.9375 33.320312 -65.9375 C 43.492188 -65.9375 51.050781 -62.859375 55.996094 -56.699219 C 60.945312 -50.539062 63.417969 -42.511719 63.417969 -32.617188 C 63.417969 -26.085938 62.320312 -20.253906 60.128906 -15.121094 C 57.933594 -9.984375 54.621094 -5.949219 50.1875 -3.011719 C 45.753906 -0.0703125 40.132812 1.398438 33.320312 1.398438 Z M 18.621094 -32.617188 C 18.621094 -30.191406 18.757812 -27.183594 19.039062 -23.589844 C 19.320312 -19.996094 19.925781 -16.425781 20.859375 -12.878906 C 21.792969 -9.332031 23.261719 -6.371094 25.269531 -3.988281 C 27.277344 -1.609375 29.957031 -0.421875 33.320312 -0.421875 C 36.773438 -0.421875 39.480469 -1.609375 41.4375 -3.988281 C 43.398438 -6.371094 44.867188 -9.332031 45.847656 -12.878906 C 46.828125 -16.425781 47.457031 -19.996094 47.738281 -23.589844 C 48.019531 -27.183594 48.160156 -30.191406 48.160156 -32.617188 C 48.160156 -35.140625 48.042969 -38.148438 47.808594 -41.648438 C 47.574219 -45.148438 46.96875 -48.625 45.988281 -52.078125 C 45.007812 -55.53125 43.539062 -58.402344 41.578125 -60.6875 C 39.617188 -62.972656 36.867188 -64.117188 33.320312 -64.117188 C 29.867188 -64.117188 27.160156 -62.972656 25.199219 -60.6875 C 23.238281 -58.402344 21.792969 -55.53125 20.859375 -52.078125 C 19.925781 -48.625 19.320312 -45.125 19.039062 -41.578125 C 18.757812 -38.03125 18.621094 -35.046875 18.621094 -32.617188 Z M 18.621094 -32.617188 "/></g></g></g><g fill="#2d3e70" fill-opacity="1"><g transform="translate(542.75976, 390.937822)"><g><path d="M -0.839844 -65.238281 C 2.054688 -65.703125 4.898438 -66.917969 7.699219 -68.878906 C 10.5 -70.835938 13.042969 -73.148438 15.328125 -75.808594 C 17.617188 -78.46875 19.507812 -81.152344 21 -83.855469 L 21 -65.097656 L 34.019531 -65.097656 L 34.019531 -62.859375 L 21 -62.859375 L 21 -13.019531 C 21 -11.246094 21.441406 -9.519531 22.328125 -7.839844 C 23.214844 -6.160156 24.824219 -5.320312 27.160156 -5.320312 C 28.371094 -5.320312 29.515625 -5.578125 30.589844 -6.089844 C 31.664062 -6.601562 32.617188 -7.1875 33.457031 -7.839844 L 34.71875 -6.300781 C 32.757812 -3.875 30.566406 -2.007812 28.140625 -0.699219 C 25.710938 0.605469 22.914062 1.261719 19.738281 1.261719 C 15.445312 1.261719 12.179688 0.09375 9.941406 -2.238281 C 7.699219 -4.574219 6.578125 -7.886719 6.578125 -12.179688 L 6.578125 -62.859375 L -0.839844 -62.859375 Z M -0.839844 -65.238281 "/></g></g></g><g fill="#2d3e70" fill-opacity="1"><g transform="translate(578.737751, 390.937822)"><g><path d="M 33.320312 1.398438 C 26.597656 1.398438 21.023438 -0.0703125 16.589844 -3.011719 C 12.15625 -5.949219 8.84375 -9.984375 6.648438 -15.121094 C 4.457031 -20.253906 3.359375 -26.085938 3.359375 -32.617188 C 3.359375 -39.152344 4.457031 -44.914062 6.648438 -49.910156 C 8.84375 -54.902344 12.15625 -58.820312 16.589844 -61.667969 C 21.023438 -64.515625 26.597656 -65.9375 33.320312 -65.9375 C 43.492188 -65.9375 51.050781 -62.859375 55.996094 -56.699219 C 60.945312 -50.539062 63.417969 -42.511719 63.417969 -32.617188 C 63.417969 -26.085938 62.320312 -20.253906 60.128906 -15.121094 C 57.933594 -9.984375 54.621094 -5.949219 50.1875 -3.011719 C 45.753906 -0.0703125 40.132812 1.398438 33.320312 1.398438 Z M 18.621094 -32.617188 C 18.621094 -30.191406 18.757812 -27.183594 19.039062 -23.589844 C 19.320312 -19.996094 19.925781 -16.425781 20.859375 -12.878906 C 21.792969 -9.332031 23.261719 -6.371094 25.269531 -3.988281 C 27.277344 -1.609375 29.957031 -0.421875 33.320312 -0.421875 C 36.773438 -0.421875 39.480469 -1.609375 41.4375 -3.988281 C 43.398438 -6.371094 44.867188 -9.332031 45.847656 -12.878906 C 46.828125 -16.425781 47.457031 -19.996094 47.738281 -23.589844 C 48.019531 -27.183594 48.160156 -30.191406 48.160156 -32.617188 C 48.160156 -35.140625 48.042969 -38.148438 47.808594 -41.648438 C 47.574219 -45.148438 46.96875 -48.625 45.988281 -52.078125 C 45.007812 -55.53125 43.539062 -58.402344 41.578125 -60.6875 C 39.617188 -62.972656 36.867188 -64.117188 33.320312 -64.117188 C 29.867188 -64.117188 27.160156 -62.972656 25.199219 -60.6875 C 23.238281 -58.402344 21.792969 -55.53125 20.859375 -52.078125 C 19.925781 -48.625 19.320312 -45.125 19.039062 -41.578125 C 18.757812 -38.03125 18.621094 -35.046875 18.621094 -32.617188 Z M 18.621094 -32.617188 "/></g></g></g><g fill="#2d3e70" fill-opacity="1"><g transform="translate(644.67405, 390.937822)"><g><path d="M 1.679688 -57.539062 L 22.820312 -64.257812 L 22.820312 -54.316406 L 24.640625 -57.398438 C 26.414062 -60.292969 28.769531 -62.460938 31.707031 -63.90625 C 34.648438 -65.355469 37.84375 -66.078125 41.296875 -66.078125 C 44.003906 -66.078125 46.59375 -65.585938 49.066406 -64.609375 C 51.542969 -63.628906 53.476562 -61.925781 54.878906 -59.496094 C 55.34375 -58.75 55.71875 -57.957031 55.996094 -57.117188 C 56.277344 -56.277344 56.417969 -55.4375 56.417969 -54.597656 C 56.417969 -52.730469 55.695312 -51.238281 54.25 -50.117188 C 52.800781 -49 51.144531 -48.4375 49.277344 -48.4375 C 48.25 -48.4375 47.386719 -48.578125 46.6875 -48.859375 C 45.988281 -49.136719 45.40625 -49.464844 44.9375 -49.839844 C 44.378906 -50.304688 43.863281 -50.816406 43.398438 -51.378906 C 43.210938 -51.65625 42.976562 -51.960938 42.699219 -52.289062 C 42.417969 -52.613281 42.183594 -52.917969 42 -53.199219 C 41.066406 -54.503906 39.96875 -55.765625 38.707031 -56.976562 C 37.449219 -58.191406 35.511719 -58.796875 32.898438 -58.796875 C 29.726562 -58.796875 27.253906 -57.609375 25.480469 -55.226562 C 23.707031 -52.847656 22.820312 -50.210938 22.820312 -47.316406 L 22.820312 -9.941406 C 22.820312 -4.992188 25.011719 -2.472656 29.398438 -2.378906 L 29.398438 0 L 1.679688 0 L 1.679688 -2.378906 C 6.160156 -2.472656 8.398438 -4.992188 8.398438 -9.941406 L 8.398438 -47.316406 C 8.398438 -52.171875 6.160156 -54.738281 1.679688 -55.019531 Z M 1.679688 -57.539062 "/></g></g></g><g fill="#2d3e70" fill-opacity="1"><g transform="translate(701.370893, 390.937822)"><g/></g></g><g fill="#2d3e70" fill-opacity="1"><g transform="translate(728.52937, 390.937822)"><g><path d="M 0.980469 -90.714844 L 31.5 -90.714844 L 31.5 -88.476562 C 29.351562 -88.382812 27.484375 -87.753906 25.898438 -86.585938 C 24.3125 -85.421875 23.519531 -83.484375 23.519531 -80.777344 L 23.800781 -2.238281 L 35.839844 -2.238281 C 40.226562 -2.238281 44.589844 -2.847656 48.929688 -4.058594 C 53.269531 -5.273438 57.234375 -7.1875 60.828125 -9.800781 C 64.421875 -12.414062 67.246094 -15.867188 69.296875 -20.160156 L 71.539062 -20.019531 L 66.078125 0 L 0.980469 0 L 0.980469 -2.378906 C 3.125 -2.472656 5.015625 -3.078125 6.648438 -4.199219 C 8.28125 -5.320312 9.101562 -7.234375 9.101562 -9.941406 L 9.101562 -80.777344 C 9.101562 -83.484375 8.28125 -85.421875 6.648438 -86.585938 C 5.015625 -87.753906 3.125 -88.382812 0.980469 -88.476562 Z M 0.980469 -90.714844 "/></g></g></g><g fill="#2d3e70" fill-opacity="1"><g transform="translate(800.625336, 390.937822)"><g><path d="M 1.539062 -57.539062 L 22.679688 -64.257812 L 22.679688 -9.941406 C 22.679688 -4.992188 24.871094 -2.472656 29.257812 -2.378906 L 29.257812 0 L 1.539062 0 L 1.539062 -2.378906 C 6.019531 -2.472656 8.257812 -4.992188 8.257812 -9.941406 L 8.257812 -47.316406 C 8.257812 -52.171875 6.019531 -54.738281 1.539062 -55.019531 Z M 3.5 -81.195312 C 3.5 -83.808594 4.433594 -86.050781 6.300781 -87.917969 C 8.167969 -89.785156 10.40625 -90.714844 13.019531 -90.714844 C 15.632812 -90.714844 17.894531 -89.785156 19.808594 -87.917969 C 21.722656 -86.050781 22.679688 -83.808594 22.679688 -81.195312 C 22.679688 -78.582031 21.699219 -76.296875 19.738281 -74.335938 C 17.78125 -72.378906 15.539062 -71.398438 13.019531 -71.398438 C 10.40625 -71.398438 8.167969 -72.378906 6.300781 -74.335938 C 4.433594 -76.296875 3.5 -78.582031 3.5 -81.195312 Z M 3.5 -81.195312 "/></g></g></g><g fill="#2d3e70" fill-opacity="1"><g transform="translate(830.583678, 390.937822)"><g><path d="M 2.941406 -7 C 2.847656 -7.1875 2.777344 -7.328125 2.730469 -7.417969 C 2.683594 -7.511719 2.613281 -7.605469 2.519531 -7.699219 L 4.621094 -21 L 6.019531 -21 C 6.207031 -18.480469 7.023438 -16.007812 8.46875 -13.578125 C 9.917969 -11.152344 11.757812 -8.984375 14 -7.070312 C 16.238281 -5.15625 18.644531 -3.617188 21.210938 -2.449219 C 23.777344 -1.285156 26.226562 -0.699219 28.558594 -0.699219 C 30.050781 -0.699219 31.683594 -0.980469 33.457031 -1.539062 C 35.230469 -2.101562 36.773438 -3.035156 38.078125 -4.339844 C 39.386719 -5.644531 40.039062 -7.328125 40.039062 -9.378906 C 40.039062 -11.527344 39.386719 -13.394531 38.078125 -14.980469 C 36.773438 -16.566406 35.183594 -17.988281 33.320312 -19.25 C 31.453125 -20.507812 29.679688 -21.605469 28 -22.539062 C 26.972656 -23.191406 25.898438 -23.824219 24.777344 -24.429688 C 23.660156 -25.035156 22.539062 -25.664062 21.417969 -26.320312 C 18.433594 -28.09375 15.585938 -29.957031 12.878906 -31.917969 C 10.171875 -33.878906 7.980469 -36.140625 6.300781 -38.707031 C 4.621094 -41.273438 3.78125 -44.238281 3.78125 -47.597656 C 3.78125 -52.078125 4.96875 -55.648438 7.351562 -58.308594 C 9.730469 -60.96875 12.808594 -62.90625 16.589844 -64.117188 C 20.371094 -65.332031 24.265625 -65.9375 28.277344 -65.9375 C 32.011719 -65.9375 35.652344 -65.308594 39.199219 -64.046875 C 42.746094 -62.789062 45.824219 -60.851562 48.4375 -58.238281 C 48.4375 -58.238281 48.742188 -57.910156 49.347656 -57.257812 C 49.953125 -56.605469 50.304688 -56.183594 50.398438 -55.996094 L 50.398438 -45.636719 L 48.4375 -45.636719 C 47.316406 -48.160156 45.683594 -50.839844 43.539062 -53.6875 C 41.390625 -56.535156 38.894531 -58.9375 36.046875 -60.898438 C 33.203125 -62.859375 30.238281 -63.835938 27.160156 -63.835938 C 24.546875 -63.835938 22.351562 -63.019531 20.578125 -61.386719 C 18.804688 -59.753906 17.917969 -57.585938 17.917969 -54.878906 C 17.917969 -51.238281 19.15625 -48.203125 21.628906 -45.777344 C 24.101562 -43.351562 26.738281 -41.296875 29.539062 -39.617188 C 30.566406 -38.964844 31.640625 -38.359375 32.757812 -37.796875 C 33.878906 -37.238281 35 -36.632812 36.117188 -35.980469 C 39.105469 -34.390625 41.90625 -32.710938 44.519531 -30.9375 C 47.132812 -29.164062 49.230469 -27.160156 50.816406 -24.917969 C 52.40625 -22.679688 53.199219 -19.972656 53.199219 -16.800781 C 53.199219 -14.1875 52.453125 -11.667969 50.957031 -9.238281 C 48.625 -5.226562 45.21875 -2.449219 40.738281 -0.910156 C 36.257812 0.628906 31.730469 1.398438 27.160156 1.398438 C 22.867188 1.398438 18.527344 0.769531 14.140625 -0.488281 C 9.753906 -1.75 6.019531 -3.917969 2.941406 -7 Z M 2.941406 -7 "/></g></g></g><g fill="#2d3e70" fill-opacity="1"><g transform="translate(885.180599, 390.937822)"><g><path d="M -0.839844 -65.238281 C 2.054688 -65.703125 4.898438 -66.917969 7.699219 -68.878906 C 10.5 -70.835938 13.042969 -73.148438 15.328125 -75.808594 C 17.617188 -78.46875 19.507812 -81.152344 21 -83.855469 L 21 -65.097656 L 34.019531 -65.097656 L 34.019531 -62.859375 L 21 -62.859375 L 21 -13.019531 C 21 -11.246094 21.441406 -9.519531 22.328125 -7.839844 C 23.214844 -6.160156 24.824219 -5.320312 27.160156 -5.320312 C 28.371094 -5.320312 29.515625 -5.578125 30.589844 -6.089844 C 31.664062 -6.601562 32.617188 -7.1875 33.457031 -7.839844 L 34.71875 -6.300781 C 32.757812 -3.875 30.566406 -2.007812 28.140625 -0.699219 C 25.710938 0.605469 22.914062 1.261719 19.738281 1.261719 C 15.445312 1.261719 12.179688 0.09375 9.941406 -2.238281 C 7.699219 -4.574219 6.578125 -7.886719 6.578125 -12.179688 L 6.578125 -62.859375 L -0.839844 -62.859375 Z M -0.839844 -65.238281 "/></g></g></g><g fill="#2d3e70" fill-opacity="1"><g transform="translate(921.158579, 390.937822)"><g><path d="M 1.679688 -57.539062 L 22.820312 -64.257812 L 22.820312 -54.316406 L 24.640625 -57.398438 C 26.414062 -60.292969 28.769531 -62.460938 31.707031 -63.90625 C 34.648438 -65.355469 37.84375 -66.078125 41.296875 -66.078125 C 44.003906 -66.078125 46.59375 -65.585938 49.066406 -64.609375 C 51.542969 -63.628906 53.476562 -61.925781 54.878906 -59.496094 C 55.34375 -58.75 55.71875 -57.957031 55.996094 -57.117188 C 56.277344 -56.277344 56.417969 -55.4375 56.417969 -54.597656 C 56.417969 -52.730469 55.695312 -51.238281 54.25 -50.117188 C 52.800781 -49 51.144531 -48.4375 49.277344 -48.4375 C 48.25 -48.4375 47.386719 -48.578125 46.6875 -48.859375 C 45.988281 -49.136719 45.40625 -49.464844 44.9375 -49.839844 C 44.378906 -50.304688 43.863281 -50.816406 43.398438 -51.378906 C 43.210938 -51.65625 42.976562 -51.960938 42.699219 -52.289062 C 42.417969 -52.613281 42.183594 -52.917969 42 -53.199219 C 41.066406 -54.503906 39.96875 -55.765625 38.707031 -56.976562 C 37.449219 -58.191406 35.511719 -58.796875 32.898438 -58.796875 C 29.726562 -58.796875 27.253906 -57.609375 25.480469 -55.226562 C 23.707031 -52.847656 22.820312 -50.210938 22.820312 -47.316406 L 22.820312 -9.941406 C 22.820312 -4.992188 25.011719 -2.472656 29.398438 -2.378906 L 29.398438 0 L 1.679688 0 L 1.679688 -2.378906 C 6.160156 -2.472656 8.398438 -4.992188 8.398438 -9.941406 L 8.398438 -47.316406 C 8.398438 -52.171875 6.160156 -54.738281 1.679688 -55.019531 Z M 1.679688 -57.539062 "/></g></g></g><g fill="#2d3e70" fill-opacity="1"><g transform="translate(977.855399, 390.937822)"><g><path d="M 1.539062 -57.539062 L 22.679688 -64.257812 L 22.679688 -9.941406 C 22.679688 -4.992188 24.871094 -2.472656 29.257812 -2.378906 L 29.257812 0 L 1.539062 0 L 1.539062 -2.378906 C 6.019531 -2.472656 8.257812 -4.992188 8.257812 -9.941406 L 8.257812 -47.316406 C 8.257812 -52.171875 6.019531 -54.738281 1.539062 -55.019531 Z M 3.5 -81.195312 C 3.5 -83.808594 4.433594 -86.050781 6.300781 -87.917969 C 8.167969 -89.785156 10.40625 -90.714844 13.019531 -90.714844 C 15.632812 -90.714844 17.894531 -89.785156 19.808594 -87.917969 C 21.722656 -86.050781 22.679688 -83.808594 22.679688 -81.195312 C 22.679688 -78.582031 21.699219 -76.296875 19.738281 -74.335938 C 17.78125 -72.378906 15.539062 -71.398438 13.019531 -71.398438 C 10.40625 -71.398438 8.167969 -72.378906 6.300781 -74.335938 C 4.433594 -76.296875 3.5 -78.582031 3.5 -81.195312 Z M 3.5 -81.195312 "/></g></g></g><g fill="#2d3e70" fill-opacity="1"><g transform="translate(1007.813741, 390.937822)"><g><path d="M 0.980469 -90.996094 L 22.121094 -97.578125 L 22.121094 -36.539062 L 25.480469 -36.539062 L 39.199219 -48.296875 C 39.945312 -48.953125 40.855469 -49.816406 41.929688 -50.886719 C 43 -51.960938 43.957031 -53.152344 44.796875 -54.457031 C 45.636719 -55.765625 46.058594 -57.023438 46.058594 -58.238281 C 46.058594 -59.542969 45.683594 -60.523438 44.9375 -61.179688 C 44.191406 -61.832031 43.398438 -62.296875 42.558594 -62.578125 L 42.558594 -65.097656 L 65.097656 -65.097656 L 65.097656 -62.71875 C 63.042969 -62.53125 60.734375 -61.644531 58.167969 -60.058594 C 55.601562 -58.472656 53.105469 -56.699219 50.679688 -54.738281 C 47.878906 -52.683594 45.242188 -50.5625 42.769531 -48.367188 C 40.296875 -46.175781 38.3125 -44.472656 36.820312 -43.257812 L 36.117188 -42.558594 L 59.777344 -9.378906 C 61.085938 -7.605469 62.507812 -6.042969 64.046875 -4.691406 C 65.585938 -3.335938 67.523438 -2.566406 69.859375 -2.378906 L 69.859375 0 L 39.199219 0 L 39.199219 -2.378906 C 40.039062 -2.378906 40.785156 -2.566406 41.4375 -2.941406 C 42 -3.21875 42.511719 -3.617188 42.976562 -4.128906 C 43.445312 -4.644531 43.679688 -5.320312 43.679688 -6.160156 C 43.679688 -6.625 43.585938 -7.070312 43.398438 -7.488281 C 43.210938 -7.910156 43.023438 -8.304688 42.839844 -8.679688 C 42.652344 -9.054688 42.441406 -9.378906 42.207031 -9.660156 C 41.976562 -9.941406 41.765625 -10.265625 41.578125 -10.640625 L 24.5 -34.296875 L 22.121094 -34.296875 L 22.121094 -9.941406 C 22.121094 -4.992188 24.3125 -2.472656 28.699219 -2.378906 L 28.699219 0 L 0.980469 0 L 0.980469 -2.378906 C 5.460938 -2.472656 7.699219 -4.992188 7.699219 -9.941406 L 7.699219 -80.777344 C 7.699219 -85.628906 5.460938 -88.195312 0.980469 -88.476562 Z M 0.980469 -90.996094 "/></g></g></g><g fill="#ffffff" fill-opacity="1"><g transform="translate(81.000002, 777.374981)"><g><path d="M 5.148438 -5.023438 L 2.898438 -5.023438 L 2.898438 0 L 1.351562 0 L 1.351562 -12.601562 L 5.632812 -12.601562 C 6.652344 -12.601562 7.492188 -12.414062 8.144531 -12.042969 C 8.800781 -11.671875 9.269531 -11.195312 9.558594 -10.621094 C 9.847656 -10.042969 9.988281 -9.4375 9.988281 -8.800781 C 9.988281 -7.925781 9.730469 -7.140625 9.207031 -6.445312 C 8.683594 -5.746094 7.871094 -5.304688 6.769531 -5.113281 L 10.097656 0 L 8.386719 0 Z M 2.898438 -6.355469 L 5.4375 -6.355469 C 6.289062 -6.355469 7.007812 -6.539062 7.597656 -6.910156 C 8.183594 -7.285156 8.476562 -7.914062 8.476562 -8.800781 C 8.476562 -9.679688 8.183594 -10.296875 7.597656 -10.65625 C 7.007812 -11.015625 6.289062 -11.195312 5.4375 -11.195312 L 2.898438 -11.195312 Z M 2.898438 -6.355469 "/></g></g></g><g fill="#ffffff" fill-opacity="1"><g transform="translate(91.88997, 777.374981)"><g><path d="M 4.714844 0.0195312 L 4.714844 -4.554688 L 0.613281 -12.601562 L 2.304688 -12.601562 L 5.4375 -6.300781 L 5.5625 -6.300781 L 8.675781 -12.601562 L 10.367188 -12.601562 L 6.28125 -4.554688 L 6.28125 0 Z M 4.714844 0.0195312 "/></g></g></g><g fill="#ffffff" fill-opacity="1"><g transform="translate(102.941941, 777.374981)"><g><path d="M 8.695312 -3.671875 L 3.5625 -3.671875 L 2.230469 0 L 0.648438 0 L 5.382812 -12.601562 L 6.859375 -12.601562 L 11.628906 0 L 10.042969 0 Z M 8.242188 -4.914062 L 6.136719 -10.621094 L 6.066406 -10.621094 L 4.015625 -4.914062 Z M 8.242188 -4.914062 "/></g></g></g><g fill="#ffffff" fill-opacity="1"><g transform="translate(115.1819, 777.374981)"><g><path d="M 1.351562 -12.601562 L 3.097656 -12.601562 L 9.847656 -2.484375 L 9.917969 -2.484375 L 9.917969 -12.601562 L 11.449219 -12.601562 L 11.449219 0 L 9.683594 0 L 2.953125 -9.972656 L 2.878906 -9.972656 L 2.878906 0 L 1.351562 0 Z M 1.351562 -12.601562 "/></g></g></g><g fill="#ffffff" fill-opacity="1"><g transform="translate(127.979862, 777.374981)"><g/></g></g><g fill="#ffffff" fill-opacity="1"><g transform="translate(132.119854, 777.374981)"><g><path d="M 1.402344 -12.601562 L 2.96875 -12.601562 L 2.96875 0 L 1.402344 0 Z M 1.402344 -12.601562 "/></g></g></g><g fill="#ffffff" fill-opacity="1"><g transform="translate(136.493843, 777.374981)"><g><path d="M 1.351562 -12.601562 L 6.390625 -12.601562 C 7.230469 -12.601562 7.917969 -12.4375 8.449219 -12.113281 C 8.984375 -11.789062 9.367188 -11.386719 9.59375 -10.898438 C 9.820312 -10.414062 9.9375 -9.910156 9.9375 -9.394531 C 9.9375 -8.855469 9.820312 -8.386719 9.59375 -7.992188 C 9.367188 -7.597656 9.089844 -7.289062 8.765625 -7.074219 C 8.441406 -6.859375 8.136719 -6.71875 7.847656 -6.660156 L 7.847656 -6.550781 C 8.160156 -6.527344 8.523438 -6.417969 8.9375 -6.21875 C 9.351562 -6.019531 9.71875 -5.703125 10.035156 -5.265625 C 10.351562 -4.828125 10.511719 -4.273438 10.511719 -3.601562 C 10.511719 -3 10.378906 -2.425781 10.105469 -1.882812 C 9.835938 -1.335938 9.414062 -0.886719 8.839844 -0.53125 C 8.261719 -0.175781 7.542969 0 6.679688 0 L 1.351562 0 Z M 5.941406 -7.074219 C 6.625 -7.074219 7.210938 -7.25 7.703125 -7.605469 C 8.195312 -7.960938 8.441406 -8.507812 8.441406 -9.253906 C 8.441406 -9.960938 8.203125 -10.476562 7.730469 -10.800781 C 7.257812 -11.125 6.660156 -11.285156 5.941406 -11.285156 L 2.863281 -11.285156 L 2.863281 -7.074219 Z M 6.28125 -1.3125 C 7.0625 -1.3125 7.710938 -1.492188 8.226562 -1.855469 C 8.742188 -2.214844 9 -2.800781 9 -3.617188 C 9 -4.421875 8.742188 -4.996094 8.226562 -5.335938 C 7.710938 -5.679688 7.0625 -5.851562 6.28125 -5.851562 L 2.863281 -5.851562 L 2.863281 -1.3125 Z M 6.28125 -1.3125 "/></g></g></g><g fill="#ffffff" fill-opacity="1"><g transform="translate(147.725806, 777.374981)"><g><path d="M 5.148438 -5.023438 L 2.898438 -5.023438 L 2.898438 0 L 1.351562 0 L 1.351562 -12.601562 L 5.632812 -12.601562 C 6.652344 -12.601562 7.492188 -12.414062 8.144531 -12.042969 C 8.800781 -11.671875 9.269531 -11.195312 9.558594 -10.621094 C 9.847656 -10.042969 9.988281 -9.4375 9.988281 -8.800781 C 9.988281 -7.925781 9.730469 -7.140625 9.207031 -6.445312 C 8.683594 -5.746094 7.871094 -5.304688 6.769531 -5.113281 L 10.097656 0 L 8.386719 0 Z M 2.898438 -6.355469 L 5.4375 -6.355469 C 6.289062 -6.355469 7.007812 -6.539062 7.597656 -6.910156 C 8.183594 -7.285156 8.476562 -7.914062 8.476562 -8.800781 C 8.476562 -9.679688 8.183594 -10.296875 7.597656 -10.65625 C 7.007812 -11.015625 6.289062 -11.195312 5.4375 -11.195312 L 2.898438 -11.195312 Z M 2.898438 -6.355469 "/></g></g></g><g fill="#ffffff" fill-opacity="1"><g transform="translate(158.615775, 777.374981)"><g><path d="M 8.695312 -3.671875 L 3.5625 -3.671875 L 2.230469 0 L 0.648438 0 L 5.382812 -12.601562 L 6.859375 -12.601562 L 11.628906 0 L 10.042969 0 Z M 8.242188 -4.914062 L 6.136719 -10.621094 L 6.066406 -10.621094 L 4.015625 -4.914062 Z M 8.242188 -4.914062 "/></g></g></g><g fill="#ffffff" fill-opacity="1"><g transform="translate(170.855734, 777.374981)"><g><path d="M 10.871094 -12.601562 L 10.871094 0 L 9.304688 0 L 9.304688 -5.707031 L 2.898438 -5.707031 L 2.898438 0 L 1.351562 0 L 1.351562 -12.601562 L 2.898438 -12.601562 L 2.898438 -6.964844 L 9.304688 -6.964844 L 9.304688 -12.601562 Z M 10.871094 -12.601562 "/></g></g></g><g fill="#ffffff" fill-opacity="1"><g transform="translate(183.077703, 777.374981)"><g><path d="M 1.402344 -12.601562 L 2.96875 -12.601562 L 2.96875 0 L 1.402344 0 Z M 1.402344 -12.601562 "/></g></g></g><g fill="#ffffff" fill-opacity="1"><g transform="translate(187.451692, 777.374981)"><g><path d="M 1.351562 -12.601562 L 3.636719 -12.601562 L 7.378906 -2.953125 L 7.433594 -2.953125 L 11.179688 -12.601562 L 13.464844 -12.601562 L 13.464844 0 L 11.933594 0 L 11.933594 -10.207031 L 11.863281 -10.207031 L 7.957031 0 L 6.839844 0 L 2.953125 -10.207031 L 2.878906 -10.207031 L 2.878906 0 L 1.351562 0 Z M 1.351562 -12.601562 "/></g></g></g><g fill="#202020" fill-opacity="1"><g transform="translate(81.000002, 694.482705)"><g><path d="M 8.257812 0.214844 C 6.800781 0.214844 5.554688 -0.0859375 4.519531 -0.6875 C 3.488281 -1.292969 2.707031 -2.070312 2.1875 -3.023438 C 1.664062 -3.976562 1.402344 -4.976562 1.402344 -6.019531 L 1.402344 -6.152344 L 3.96875 -6.152344 L 3.96875 -6.019531 C 3.96875 -5.390625 4.117188 -4.757812 4.414062 -4.128906 C 4.710938 -3.5 5.183594 -2.972656 5.832031 -2.550781 C 6.476562 -2.128906 7.304688 -1.917969 8.3125 -1.917969 C 9.5 -1.917969 10.480469 -2.222656 11.257812 -2.835938 C 12.03125 -3.445312 12.417969 -4.273438 12.417969 -5.316406 C 12.417969 -6.179688 12.132812 -6.871094 11.566406 -7.382812 C 11 -7.894531 10.273438 -8.242188 9.394531 -8.421875 L 6.640625 -8.933594 C 3.472656 -9.636719 1.890625 -11.300781 1.890625 -13.929688 C 1.890625 -15.007812 2.152344 -15.953125 2.671875 -16.761719 C 3.195312 -17.570312 3.917969 -18.199219 4.84375 -18.636719 C 5.773438 -19.078125 6.847656 -19.300781 8.070312 -19.300781 C 9.457031 -19.300781 10.644531 -19.019531 11.632812 -18.460938 C 12.625 -17.90625 13.371094 -17.179688 13.875 -16.289062 C 14.378906 -15.398438 14.628906 -14.476562 14.628906 -13.523438 L 14.628906 -13.414062 L 12.066406 -13.414062 L 12.066406 -13.496094 C 12.066406 -14.035156 11.933594 -14.589844 11.675781 -15.15625 C 11.414062 -15.722656 10.980469 -16.214844 10.378906 -16.628906 C 9.777344 -17.042969 8.980469 -17.25 7.988281 -17.25 C 6.855469 -17.25 5.953125 -16.933594 5.277344 -16.304688 C 4.601562 -15.671875 4.265625 -14.890625 4.265625 -13.957031 C 4.265625 -13.164062 4.527344 -12.515625 5.046875 -12.011719 C 5.570312 -11.507812 6.28125 -11.164062 7.179688 -10.984375 L 9.664062 -10.5 C 13.136719 -9.796875 14.871094 -8.097656 14.871094 -5.398438 C 14.871094 -4.300781 14.597656 -3.328125 14.050781 -2.484375 C 13.5 -1.636719 12.722656 -0.976562 11.714844 -0.5 C 10.707031 -0.0234375 9.554688 0.214844 8.257812 0.214844 Z M 8.257812 0.214844 "/></g></g></g><g fill="#202020" fill-opacity="1"><g transform="translate(97.165937, 694.482705)"><g><path d="M 8.042969 0.1875 C 6.605469 0.1875 5.386719 -0.15625 4.386719 -0.851562 C 3.386719 -1.542969 2.636719 -2.453125 2.132812 -3.578125 C 1.628906 -4.703125 1.375 -5.910156 1.375 -7.207031 C 1.375 -8.503906 1.628906 -9.710938 2.132812 -10.835938 C 2.636719 -11.960938 3.386719 -12.871094 4.386719 -13.5625 C 5.386719 -14.257812 6.605469 -14.601562 8.042969 -14.601562 C 9.484375 -14.601562 10.703125 -14.257812 11.703125 -13.5625 C 12.699219 -12.871094 13.445312 -11.957031 13.941406 -10.824219 C 14.4375 -9.691406 14.683594 -8.484375 14.683594 -7.207031 C 14.683594 -5.929688 14.433594 -4.722656 13.929688 -3.589844 C 13.425781 -2.457031 12.671875 -1.542969 11.675781 -0.851562 C 10.675781 -0.15625 9.464844 0.1875 8.042969 0.1875 Z M 8.042969 -1.808594 C 8.925781 -1.808594 9.695312 -2.050781 10.351562 -2.539062 C 11.007812 -3.023438 11.507812 -3.675781 11.851562 -4.496094 C 12.191406 -5.3125 12.363281 -6.226562 12.363281 -7.234375 C 12.363281 -8.78125 11.976562 -10.066406 11.203125 -11.09375 C 10.429688 -12.121094 9.375 -12.632812 8.042969 -12.632812 C 7.144531 -12.632812 6.367188 -12.390625 5.707031 -11.902344 C 5.050781 -11.417969 4.554688 -10.765625 4.210938 -9.945312 C 3.867188 -9.128906 3.699219 -8.222656 3.699219 -7.234375 C 3.699219 -5.6875 4.085938 -4.394531 4.859375 -3.359375 C 5.632812 -2.324219 6.695312 -1.808594 8.042969 -1.808594 Z M 8.042969 -1.808594 "/></g></g></g><g fill="#202020" fill-opacity="1"><g transform="translate(113.22392, 694.482705)"><g><path d="M 14.414062 0 L 12.066406 0 L 12.066406 -2.699219 L 11.902344 -2.699219 C 11.527344 -1.871094 10.945312 -1.175781 10.164062 -0.605469 C 9.378906 -0.0390625 8.421875 0.242188 7.289062 0.242188 C 6.101562 0.242188 5.109375 -0.046875 4.320312 -0.621094 C 3.527344 -1.195312 2.945312 -1.945312 2.578125 -2.859375 C 2.207031 -3.777344 2.023438 -4.777344 2.023438 -5.855469 L 2.023438 -14.226562 L 4.347656 -14.226562 L 4.347656 -6.152344 C 4.347656 -4.769531 4.695312 -3.703125 5.398438 -2.957031 C 6.101562 -2.207031 7.019531 -1.835938 8.152344 -1.835938 C 9.339844 -1.835938 10.289062 -2.234375 11 -3.035156 C 11.710938 -3.835938 12.066406 -4.875 12.066406 -6.152344 L 12.066406 -14.226562 L 14.414062 -14.226562 Z M 14.414062 0 "/></g></g></g><g fill="#202020" fill-opacity="1"><g transform="translate(129.470822, 694.482705)"><g><path d="M 1.917969 -14.226562 L 4.238281 -14.226562 L 4.238281 -11.957031 L 4.398438 -11.957031 C 4.632812 -12.585938 5.050781 -13.121094 5.65625 -13.5625 C 6.257812 -14.003906 7.019531 -14.226562 7.9375 -14.226562 C 8.222656 -14.226562 8.453125 -14.210938 8.625 -14.183594 C 8.796875 -14.15625 8.988281 -14.109375 9.203125 -14.035156 L 9.125 -11.769531 C 8.835938 -11.859375 8.589844 -11.921875 8.382812 -11.957031 C 8.175781 -11.992188 7.910156 -12.011719 7.585938 -12.011719 C 5.351562 -12.011719 4.238281 -10.6875 4.238281 -8.042969 L 4.238281 0 L 1.917969 0 Z M 1.917969 -14.226562 "/></g></g></g><g fill="#202020" fill-opacity="1"><g transform="translate(138.997662, 694.482705)"><g><path d="M 8.097656 0.1875 C 6.621094 0.1875 5.375 -0.160156 4.359375 -0.863281 C 3.34375 -1.566406 2.589844 -2.480469 2.105469 -3.601562 C 1.621094 -4.726562 1.375 -5.929688 1.375 -7.207031 C 1.375 -8.484375 1.621094 -9.6875 2.105469 -10.808594 C 2.589844 -11.933594 3.34375 -12.847656 4.359375 -13.550781 C 5.375 -14.253906 6.621094 -14.601562 8.097656 -14.601562 C 9.933594 -14.601562 11.378906 -14.070312 12.429688 -13.011719 C 13.484375 -11.949219 14.117188 -10.644531 14.332031 -9.097656 L 12.066406 -9.097656 C 11.902344 -10.140625 11.488281 -10.992188 10.824219 -11.648438 C 10.15625 -12.304688 9.257812 -12.632812 8.125 -12.632812 C 6.683594 -12.632812 5.59375 -12.113281 4.84375 -11.082031 C 4.097656 -10.046875 3.726562 -8.753906 3.726562 -7.207031 C 3.726562 -5.660156 4.097656 -4.367188 4.84375 -3.332031 C 5.59375 -2.300781 6.683594 -1.78125 8.125 -1.78125 C 9.257812 -1.78125 10.15625 -2.105469 10.824219 -2.753906 C 11.488281 -3.402344 11.902344 -4.253906 12.066406 -5.316406 L 14.332031 -5.316406 C 14.117188 -3.769531 13.484375 -2.464844 12.429688 -1.402344 C 11.378906 -0.34375 9.933594 0.1875 8.097656 0.1875 Z M 8.097656 0.1875 "/></g></g></g><g fill="#202020" fill-opacity="1"><g transform="translate(154.542869, 694.482705)"><g><path d="M 8.015625 0.1875 C 6.558594 0.1875 5.332031 -0.160156 4.332031 -0.863281 C 3.332031 -1.566406 2.589844 -2.484375 2.105469 -3.617188 C 1.621094 -4.75 1.375 -5.949219 1.375 -7.207031 C 1.375 -8.484375 1.621094 -9.6875 2.105469 -10.808594 C 2.589844 -11.933594 3.339844 -12.847656 4.347656 -13.550781 C 5.351562 -14.253906 6.585938 -14.601562 8.042969 -14.601562 C 9.953125 -14.601562 11.476562 -13.964844 12.617188 -12.6875 C 13.761719 -11.410156 14.332031 -9.574219 14.332031 -7.179688 L 14.332031 -6.53125 L 3.699219 -6.53125 L 3.699219 -6.34375 C 3.699219 -5.550781 3.878906 -4.804688 4.238281 -4.101562 C 4.597656 -3.402344 5.101562 -2.835938 5.75 -2.402344 C 6.398438 -1.96875 7.144531 -1.753906 7.988281 -1.753906 C 8.90625 -1.753906 9.699219 -1.988281 10.363281 -2.457031 C 11.03125 -2.925781 11.527344 -3.554688 11.851562 -4.347656 L 14.144531 -4.347656 C 13.765625 -3.050781 13.058594 -1.96875 12.023438 -1.105469 C 10.992188 -0.242188 9.65625 0.1875 8.015625 0.1875 Z M 12.039062 -8.179688 C 11.964844 -9.796875 11.570312 -10.96875 10.851562 -11.6875 C 10.132812 -12.40625 9.1875 -12.765625 8.015625 -12.765625 C 6.738281 -12.765625 5.722656 -12.34375 4.964844 -11.5 C 4.210938 -10.652344 3.804688 -9.546875 3.753906 -8.179688 Z M 12.039062 -8.179688 "/></g></g></g><g fill="#202020" fill-opacity="1"><g transform="translate(170.276995, 694.482705)"><g><path d="M 3.507812 0.1875 C 3.058594 0.1875 2.6875 0.03125 2.390625 -0.285156 C 2.09375 -0.597656 1.945312 -0.972656 1.945312 -1.402344 C 1.945312 -1.835938 2.09375 -2.199219 2.390625 -2.496094 C 2.6875 -2.792969 3.058594 -2.941406 3.507812 -2.941406 C 3.957031 -2.941406 4.332031 -2.792969 4.628906 -2.496094 C 4.925781 -2.199219 5.074219 -1.835938 5.074219 -1.402344 C 5.074219 -0.972656 4.921875 -0.597656 4.617188 -0.285156 C 4.308594 0.03125 3.941406 0.1875 3.507812 0.1875 Z M 3.507812 -10.957031 C 3.058594 -10.957031 2.6875 -11.117188 2.390625 -11.429688 C 2.09375 -11.746094 1.945312 -12.121094 1.945312 -12.550781 C 1.945312 -12.984375 2.09375 -13.347656 2.390625 -13.644531 C 2.6875 -13.941406 3.058594 -14.089844 3.507812 -14.089844 C 3.957031 -14.089844 4.332031 -13.941406 4.628906 -13.644531 C 4.925781 -13.347656 5.074219 -12.984375 5.074219 -12.550781 C 5.074219 -12.121094 4.921875 -11.746094 4.617188 -11.429688 C 4.308594 -11.117188 3.941406 -10.957031 3.507812 -10.957031 Z M 3.507812 -10.957031 "/></g></g></g><g fill="#202020" fill-opacity="1"><g transform="translate(178.184542, 694.482705)"><g/></g></g><g fill="#202020" fill-opacity="1"><g transform="translate(184.391828, 694.482705)"><g><path d="M 2.023438 -18.894531 L 5.453125 -18.894531 L 11.066406 -4.425781 L 11.148438 -4.425781 L 16.761719 -18.894531 L 20.191406 -18.894531 L 20.191406 0 L 17.894531 0 L 17.894531 -15.304688 L 17.789062 -15.304688 L 11.929688 0 L 10.257812 0 L 4.425781 -15.304688 L 4.320312 -15.304688 L 4.320312 0 L 2.023438 0 Z M 2.023438 -18.894531 "/></g></g></g><g fill="#202020" fill-opacity="1"><g transform="translate(206.603127, 694.482705)"><g><path d="M 8.042969 0.1875 C 6.605469 0.1875 5.386719 -0.15625 4.386719 -0.851562 C 3.386719 -1.542969 2.636719 -2.453125 2.132812 -3.578125 C 1.628906 -4.703125 1.375 -5.910156 1.375 -7.207031 C 1.375 -8.503906 1.628906 -9.710938 2.132812 -10.835938 C 2.636719 -11.960938 3.386719 -12.871094 4.386719 -13.5625 C 5.386719 -14.257812 6.605469 -14.601562 8.042969 -14.601562 C 9.484375 -14.601562 10.703125 -14.257812 11.703125 -13.5625 C 12.699219 -12.871094 13.445312 -11.957031 13.941406 -10.824219 C 14.4375 -9.691406 14.683594 -8.484375 14.683594 -7.207031 C 14.683594 -5.929688 14.433594 -4.722656 13.929688 -3.589844 C 13.425781 -2.457031 12.671875 -1.542969 11.675781 -0.851562 C 10.675781 -0.15625 9.464844 0.1875 8.042969 0.1875 Z M 8.042969 -1.808594 C 8.925781 -1.808594 9.695312 -2.050781 10.351562 -2.539062 C 11.007812 -3.023438 11.507812 -3.675781 11.851562 -4.496094 C 12.191406 -5.3125 12.363281 -6.226562 12.363281 -7.234375 C 12.363281 -8.78125 11.976562 -10.066406 11.203125 -11.09375 C 10.429688 -12.121094 9.375 -12.632812 8.042969 -12.632812 C 7.144531 -12.632812 6.367188 -12.390625 5.707031 -11.902344 C 5.050781 -11.417969 4.554688 -10.765625 4.210938 -9.945312 C 3.867188 -9.128906 3.699219 -8.222656 3.699219 -7.234375 C 3.699219 -5.6875 4.085938 -4.394531 4.859375 -3.359375 C 5.632812 -2.324219 6.695312 -1.808594 8.042969 -1.808594 Z M 8.042969 -1.808594 "/></g></g></g><g fill="#202020" fill-opacity="1"><g transform="translate(222.66111, 694.482705)"><g><path d="M 5.832031 -12.363281 L 5.832031 -4.101562 C 5.832031 -3.4375 5.863281 -2.945312 5.925781 -2.632812 C 5.988281 -2.316406 6.160156 -2.070312 6.4375 -1.890625 C 6.714844 -1.710938 7.171875 -1.621094 7.800781 -1.621094 C 8.234375 -1.621094 8.699219 -1.683594 9.203125 -1.808594 L 9.203125 -0.136719 C 9.078125 -0.0820312 8.804688 -0.0273438 8.382812 0.0273438 C 7.957031 0.0820312 7.523438 0.109375 7.070312 0.109375 C 6.027344 0.109375 5.25 -0.0390625 4.738281 -0.335938 C 4.222656 -0.632812 3.890625 -1.039062 3.738281 -1.550781 C 3.585938 -2.066406 3.507812 -2.746094 3.507812 -3.589844 L 3.507812 -12.363281 L 0.863281 -12.363281 L 0.863281 -14.226562 L 3.507812 -14.226562 L 3.507812 -18.894531 L 5.832031 -18.894531 L 5.832031 -14.226562 L 9.203125 -14.226562 L 9.203125 -12.363281 Z M 5.832031 -12.363281 "/></g></g></g><g fill="#202020" fill-opacity="1"><g transform="translate(233.267471, 694.482705)"><g><path d="M 8.042969 0.1875 C 6.605469 0.1875 5.386719 -0.15625 4.386719 -0.851562 C 3.386719 -1.542969 2.636719 -2.453125 2.132812 -3.578125 C 1.628906 -4.703125 1.375 -5.910156 1.375 -7.207031 C 1.375 -8.503906 1.628906 -9.710938 2.132812 -10.835938 C 2.636719 -11.960938 3.386719 -12.871094 4.386719 -13.5625 C 5.386719 -14.257812 6.605469 -14.601562 8.042969 -14.601562 C 9.484375 -14.601562 10.703125 -14.257812 11.703125 -13.5625 C 12.699219 -12.871094 13.445312 -11.957031 13.941406 -10.824219 C 14.4375 -9.691406 14.683594 -8.484375 14.683594 -7.207031 C 14.683594 -5.929688 14.433594 -4.722656 13.929688 -3.589844 C 13.425781 -2.457031 12.671875 -1.542969 11.675781 -0.851562 C 10.675781 -0.15625 9.464844 0.1875 8.042969 0.1875 Z M 8.042969 -1.808594 C 8.925781 -1.808594 9.695312 -2.050781 10.351562 -2.539062 C 11.007812 -3.023438 11.507812 -3.675781 11.851562 -4.496094 C 12.191406 -5.3125 12.363281 -6.226562 12.363281 -7.234375 C 12.363281 -8.78125 11.976562 -10.066406 11.203125 -11.09375 C 10.429688 -12.121094 9.375 -12.632812 8.042969 -12.632812 C 7.144531 -12.632812 6.367188 -12.390625 5.707031 -11.902344 C 5.050781 -11.417969 4.554688 -10.765625 4.210938 -9.945312 C 3.867188 -9.128906 3.699219 -8.222656 3.699219 -7.234375 C 3.699219 -5.6875 4.085938 -4.394531 4.859375 -3.359375 C 5.632812 -2.324219 6.695312 -1.808594 8.042969 -1.808594 Z M 8.042969 -1.808594 "/></g></g></g><g fill="#202020" fill-opacity="1"><g transform="translate(249.325454, 694.482705)"><g><path d="M 1.917969 -14.226562 L 4.238281 -14.226562 L 4.238281 -11.957031 L 4.398438 -11.957031 C 4.632812 -12.585938 5.050781 -13.121094 5.65625 -13.5625 C 6.257812 -14.003906 7.019531 -14.226562 7.9375 -14.226562 C 8.222656 -14.226562 8.453125 -14.210938 8.625 -14.183594 C 8.796875 -14.15625 8.988281 -14.109375 9.203125 -14.035156 L 9.125 -11.769531 C 8.835938 -11.859375 8.589844 -11.921875 8.382812 -11.957031 C 8.175781 -11.992188 7.910156 -12.011719 7.585938 -12.011719 C 5.351562 -12.011719 4.238281 -10.6875 4.238281 -8.042969 L 4.238281 0 L 1.917969 0 Z M 1.917969 -14.226562 "/></g></g></g><g fill="#202020" fill-opacity="1"><g transform="translate(258.852294, 694.482705)"><g/></g></g><g fill="#202020" fill-opacity="1"><g transform="translate(265.05958, 694.482705)"><g><path d="M 13.171875 -2.105469 L 13.171875 0 L 2.023438 0 L 2.023438 -18.894531 L 4.371094 -18.894531 L 4.347656 -2.105469 Z M 13.171875 -2.105469 "/></g></g></g><g fill="#202020" fill-opacity="1"><g transform="translate(279.336359, 694.482705)"><g><path d="M 2.214844 -14.226562 L 4.535156 -14.226562 L 4.535156 0 L 2.214844 0 Z M 3.347656 -16.871094 C 2.914062 -16.871094 2.554688 -17.019531 2.265625 -17.316406 C 1.980469 -17.613281 1.835938 -17.96875 1.835938 -18.382812 C 1.835938 -18.796875 1.980469 -19.152344 2.265625 -19.449219 C 2.554688 -19.746094 2.914062 -19.894531 3.347656 -19.894531 C 3.777344 -19.894531 4.144531 -19.746094 4.441406 -19.449219 C 4.738281 -19.152344 4.886719 -18.796875 4.886719 -18.382812 C 4.886719 -17.96875 4.738281 -17.613281 4.441406 -17.316406 C 4.144531 -17.019531 3.777344 -16.871094 3.347656 -16.871094 Z M 3.347656 -16.871094 "/></g></g></g><g fill="#202020" fill-opacity="1"><g transform="translate(286.083383, 694.482705)"><g><path d="M 6.882812 0.1875 C 5.730469 0.1875 4.734375 -0.0390625 3.886719 -0.5 C 3.042969 -0.957031 2.398438 -1.546875 1.957031 -2.265625 C 1.515625 -2.988281 1.296875 -3.742188 1.296875 -4.535156 L 1.296875 -4.667969 L 3.617188 -4.667969 L 3.617188 -4.5625 C 3.617188 -4.113281 3.742188 -3.667969 3.996094 -3.226562 C 4.246094 -2.785156 4.625 -2.425781 5.128906 -2.144531 C 5.632812 -1.867188 6.246094 -1.726562 6.964844 -1.726562 C 7.828125 -1.726562 8.542969 -1.9375 9.109375 -2.363281 C 9.675781 -2.785156 9.960938 -3.363281 9.960938 -4.101562 C 9.960938 -4.714844 9.738281 -5.199219 9.300781 -5.558594 C 8.859375 -5.921875 8.304688 -6.152344 7.640625 -6.261719 L 5.777344 -6.53125 C 4.605469 -6.710938 3.625 -7.113281 2.835938 -7.734375 C 2.042969 -8.355469 1.648438 -9.257812 1.648438 -10.445312 C 1.648438 -11.757812 2.117188 -12.78125 3.0625 -13.507812 C 4.007812 -14.238281 5.21875 -14.601562 6.695312 -14.601562 C 7.792969 -14.601562 8.730469 -14.402344 9.515625 -13.996094 C 10.296875 -13.589844 10.894531 -13.058594 11.308594 -12.402344 C 11.722656 -11.746094 11.929688 -11.03125 11.929688 -10.257812 L 11.929688 -10.148438 L 9.609375 -10.148438 L 9.609375 -10.203125 C 9.609375 -10.5625 9.515625 -10.941406 9.324219 -11.335938 C 9.136719 -11.734375 8.816406 -12.074219 8.367188 -12.363281 C 7.917969 -12.652344 7.34375 -12.792969 6.640625 -12.792969 C 5.777344 -12.792969 5.082031 -12.582031 4.5625 -12.160156 C 4.039062 -11.738281 3.777344 -11.183594 3.777344 -10.5 C 3.777344 -9.941406 3.984375 -9.484375 4.398438 -9.125 C 4.8125 -8.761719 5.335938 -8.53125 5.964844 -8.421875 L 7.988281 -8.097656 C 9.175781 -7.898438 10.175781 -7.492188 10.984375 -6.871094 C 11.796875 -6.25 12.199219 -5.335938 12.199219 -4.128906 C 12.199219 -3.265625 11.972656 -2.511719 11.511719 -1.863281 C 11.054688 -1.214844 10.417969 -0.710938 9.609375 -0.351562 C 8.800781 0.0078125 7.890625 0.1875 6.882812 0.1875 Z M 6.882812 0.1875 "/></g></g></g><g fill="#202020" fill-opacity="1"><g transform="translate(299.469537, 694.482705)"><g><path d="M 5.832031 -12.363281 L 5.832031 -4.101562 C 5.832031 -3.4375 5.863281 -2.945312 5.925781 -2.632812 C 5.988281 -2.316406 6.160156 -2.070312 6.4375 -1.890625 C 6.714844 -1.710938 7.171875 -1.621094 7.800781 -1.621094 C 8.234375 -1.621094 8.699219 -1.683594 9.203125 -1.808594 L 9.203125 -0.136719 C 9.078125 -0.0820312 8.804688 -0.0273438 8.382812 0.0273438 C 7.957031 0.0820312 7.523438 0.109375 7.070312 0.109375 C 6.027344 0.109375 5.25 -0.0390625 4.738281 -0.335938 C 4.222656 -0.632812 3.890625 -1.039062 3.738281 -1.550781 C 3.585938 -2.066406 3.507812 -2.746094 3.507812 -3.589844 L 3.507812 -12.363281 L 0.863281 -12.363281 L 0.863281 -14.226562 L 3.507812 -14.226562 L 3.507812 -18.894531 L 5.832031 -18.894531 L 5.832031 -14.226562 L 9.203125 -14.226562 L 9.203125 -12.363281 Z M 5.832031 -12.363281 "/></g></g></g><g fill="#202020" fill-opacity="1"><g transform="translate(310.075921, 694.482705)"><g><path d="M 1.917969 -14.226562 L 4.238281 -14.226562 L 4.238281 -11.957031 L 4.398438 -11.957031 C 4.632812 -12.585938 5.050781 -13.121094 5.65625 -13.5625 C 6.257812 -14.003906 7.019531 -14.226562 7.9375 -14.226562 C 8.222656 -14.226562 8.453125 -14.210938 8.625 -14.183594 C 8.796875 -14.15625 8.988281 -14.109375 9.203125 -14.035156 L 9.125 -11.769531 C 8.835938 -11.859375 8.589844 -11.921875 8.382812 -11.957031 C 8.175781 -11.992188 7.910156 -12.011719 7.585938 -12.011719 C 5.351562 -12.011719 4.238281 -10.6875 4.238281 -8.042969 L 4.238281 0 L 1.917969 0 Z M 1.917969 -14.226562 "/></g></g></g><g fill="#202020" fill-opacity="1"><g transform="translate(319.602761, 694.482705)"><g><path d="M 2.214844 -14.226562 L 4.535156 -14.226562 L 4.535156 0 L 2.214844 0 Z M 3.347656 -16.871094 C 2.914062 -16.871094 2.554688 -17.019531 2.265625 -17.316406 C 1.980469 -17.613281 1.835938 -17.96875 1.835938 -18.382812 C 1.835938 -18.796875 1.980469 -19.152344 2.265625 -19.449219 C 2.554688 -19.746094 2.914062 -19.894531 3.347656 -19.894531 C 3.777344 -19.894531 4.144531 -19.746094 4.441406 -19.449219 C 4.738281 -19.152344 4.886719 -18.796875 4.886719 -18.382812 C 4.886719 -17.96875 4.738281 -17.613281 4.441406 -17.316406 C 4.144531 -17.019531 3.777344 -16.871094 3.347656 -16.871094 Z M 3.347656 -16.871094 "/></g></g></g><g fill="#202020" fill-opacity="1"><g transform="translate(326.349785, 694.482705)"><g><path d="M 2.105469 -20.164062 L 4.453125 -20.164062 L 4.453125 -8.828125 L 4.5625 -8.828125 L 9.960938 -14.226562 L 12.605469 -14.226562 L 6.316406 -7.828125 L 12.875 0 L 10.203125 0 L 4.5625 -6.9375 L 4.453125 -6.9375 L 4.453125 0 L 2.105469 0 Z M 2.105469 -20.164062 "/></g></g></g><g fill="#202020" fill-opacity="1"><g transform="translate(340.275711, 694.482705)"><g/></g></g><g fill="#202020" fill-opacity="1"><g transform="translate(346.483008, 694.482705)"><g><path d="M 9.609375 5.75 C 8.476562 5.03125 7.410156 4.050781 6.410156 2.808594 C 5.410156 1.566406 4.59375 0.0390625 3.953125 -1.769531 C 3.316406 -3.578125 2.996094 -5.585938 2.996094 -7.800781 C 2.996094 -10.105469 3.328125 -12.179688 3.996094 -14.023438 C 4.660156 -15.867188 5.492188 -17.398438 6.492188 -18.613281 C 7.492188 -19.824219 8.519531 -20.75 9.582031 -21.378906 L 10.285156 -20.675781 C 9.546875 -19.992188 8.804688 -19.046875 8.058594 -17.84375 C 7.308594 -16.636719 6.679688 -15.167969 6.167969 -13.441406 C 5.65625 -11.714844 5.398438 -9.835938 5.398438 -7.800781 C 5.398438 -5.765625 5.660156 -3.886719 6.179688 -2.160156 C 6.703125 -0.433594 7.332031 1.035156 8.070312 2.242188 C 8.808594 3.445312 9.546875 4.382812 10.285156 5.046875 Z M 9.609375 5.75 "/></g></g></g><g fill="#202020" fill-opacity="1"><g transform="translate(358.897559, 694.482705)"><g><path d="M 8.449219 -18.894531 C 9.976562 -18.894531 11.234375 -18.589844 12.214844 -17.976562 C 13.195312 -17.363281 13.902344 -16.589844 14.332031 -15.65625 C 14.765625 -14.71875 14.980469 -13.730469 14.980469 -12.6875 C 14.980469 -11.644531 14.765625 -10.65625 14.332031 -9.730469 C 13.902344 -8.804688 13.199219 -8.039062 12.226562 -7.4375 C 11.257812 -6.832031 9.996094 -6.53125 8.449219 -6.53125 L 4.292969 -6.53125 L 4.292969 0 L 2.023438 0 L 2.023438 -18.894531 Z M 8.152344 -8.554688 C 9.449219 -8.554688 10.53125 -8.867188 11.40625 -9.488281 C 12.277344 -10.109375 12.714844 -11.175781 12.714844 -12.6875 C 12.714844 -14.179688 12.277344 -15.238281 11.40625 -15.859375 C 10.53125 -16.480469 9.449219 -16.789062 8.152344 -16.789062 L 4.292969 -16.789062 L 4.292969 -8.554688 Z M 8.152344 -8.554688 "/></g></g></g><g fill="#202020" fill-opacity="1"><g transform="translate(374.685667, 694.482705)"><g><path d="M 14.414062 0 L 12.066406 0 L 12.066406 -2.699219 L 11.902344 -2.699219 C 11.527344 -1.871094 10.945312 -1.175781 10.164062 -0.605469 C 9.378906 -0.0390625 8.421875 0.242188 7.289062 0.242188 C 6.101562 0.242188 5.109375 -0.046875 4.320312 -0.621094 C 3.527344 -1.195312 2.945312 -1.945312 2.578125 -2.859375 C 2.207031 -3.777344 2.023438 -4.777344 2.023438 -5.855469 L 2.023438 -14.226562 L 4.347656 -14.226562 L 4.347656 -6.152344 C 4.347656 -4.769531 4.695312 -3.703125 5.398438 -2.957031 C 6.101562 -2.207031 7.019531 -1.835938 8.152344 -1.835938 C 9.339844 -1.835938 10.289062 -2.234375 11 -3.035156 C 11.710938 -3.835938 12.066406 -4.875 12.066406 -6.152344 L 12.066406 -14.226562 L 14.414062 -14.226562 Z M 14.414062 0 "/></g></g></g><g fill="#202020" fill-opacity="1"><g transform="translate(390.932569, 694.482705)"><g><path d="M 5.832031 -12.363281 L 5.832031 -4.101562 C 5.832031 -3.4375 5.863281 -2.945312 5.925781 -2.632812 C 5.988281 -2.316406 6.160156 -2.070312 6.4375 -1.890625 C 6.714844 -1.710938 7.171875 -1.621094 7.800781 -1.621094 C 8.234375 -1.621094 8.699219 -1.683594 9.203125 -1.808594 L 9.203125 -0.136719 C 9.078125 -0.0820312 8.804688 -0.0273438 8.382812 0.0273438 C 7.957031 0.0820312 7.523438 0.109375 7.070312 0.109375 C 6.027344 0.109375 5.25 -0.0390625 4.738281 -0.335938 C 4.222656 -0.632812 3.890625 -1.039062 3.738281 -1.550781 C 3.585938 -2.066406 3.507812 -2.746094 3.507812 -3.589844 L 3.507812 -12.363281 L 0.863281 -12.363281 L 0.863281 -14.226562 L 3.507812 -14.226562 L 3.507812 -18.894531 L 5.832031 -18.894531 L 5.832031 -14.226562 L 9.203125 -14.226562 L 9.203125 -12.363281 Z M 5.832031 -12.363281 "/></g></g></g><g fill="#202020" fill-opacity="1"><g transform="translate(401.53893, 694.482705)"><g><path d="M 14.414062 0 L 12.066406 0 L 12.066406 -2.699219 L 11.902344 -2.699219 C 11.527344 -1.871094 10.945312 -1.175781 10.164062 -0.605469 C 9.378906 -0.0390625 8.421875 0.242188 7.289062 0.242188 C 6.101562 0.242188 5.109375 -0.046875 4.320312 -0.621094 C 3.527344 -1.195312 2.945312 -1.945312 2.578125 -2.859375 C 2.207031 -3.777344 2.023438 -4.777344 2.023438 -5.855469 L 2.023438 -14.226562 L 4.347656 -14.226562 L 4.347656 -6.152344 C 4.347656 -4.769531 4.695312 -3.703125 5.398438 -2.957031 C 6.101562 -2.207031 7.019531 -1.835938 8.152344 -1.835938 C 9.339844 -1.835938 10.289062 -2.234375 11 -3.035156 C 11.710938 -3.835938 12.066406 -4.875 12.066406 -6.152344 L 12.066406 -14.226562 L 14.414062 -14.226562 Z M 14.414062 0 "/></g></g></g><g fill="#202020" fill-opacity="1"><g transform="translate(417.785832, 694.482705)"><g/></g></g><g fill="#202020" fill-opacity="1"><g transform="translate(423.993107, 694.482705)"><g><path d="M 7.71875 -7.53125 L 4.347656 -7.53125 L 4.347656 0 L 2.023438 0 L 2.023438 -18.894531 L 8.449219 -18.894531 C 9.976562 -18.894531 11.234375 -18.617188 12.214844 -18.058594 C 13.195312 -17.5 13.902344 -16.789062 14.332031 -15.925781 C 14.765625 -15.0625 14.980469 -14.152344 14.980469 -13.199219 C 14.980469 -11.886719 14.589844 -10.707031 13.808594 -9.664062 C 13.023438 -8.621094 11.804688 -7.953125 10.148438 -7.664062 L 15.144531 0 L 12.578125 0 Z M 4.347656 -9.527344 L 8.152344 -9.527344 C 9.429688 -9.527344 10.507812 -9.808594 11.390625 -10.363281 C 12.273438 -10.921875 12.714844 -11.867188 12.714844 -13.199219 C 12.714844 -14.511719 12.273438 -15.441406 11.390625 -15.980469 C 10.507812 -16.519531 9.429688 -16.789062 8.152344 -16.789062 L 4.347656 -16.789062 Z M 4.347656 -9.527344 "/></g></g></g><g fill="#202020" fill-opacity="1"><g transform="translate(440.320987, 694.482705)"><g><path d="M 14.414062 0 L 12.066406 0 L 12.066406 -2.699219 L 11.902344 -2.699219 C 11.527344 -1.871094 10.945312 -1.175781 10.164062 -0.605469 C 9.378906 -0.0390625 8.421875 0.242188 7.289062 0.242188 C 6.101562 0.242188 5.109375 -0.046875 4.320312 -0.621094 C 3.527344 -1.195312 2.945312 -1.945312 2.578125 -2.859375 C 2.207031 -3.777344 2.023438 -4.777344 2.023438 -5.855469 L 2.023438 -14.226562 L 4.347656 -14.226562 L 4.347656 -6.152344 C 4.347656 -4.769531 4.695312 -3.703125 5.398438 -2.957031 C 6.101562 -2.207031 7.019531 -1.835938 8.152344 -1.835938 C 9.339844 -1.835938 10.289062 -2.234375 11 -3.035156 C 11.710938 -3.835938 12.066406 -4.875 12.066406 -6.152344 L 12.066406 -14.226562 L 14.414062 -14.226562 Z M 14.414062 0 "/></g></g></g><g fill="#202020" fill-opacity="1"><g transform="translate(456.567889, 694.482705)"><g><path d="M 6.882812 0.1875 C 5.730469 0.1875 4.734375 -0.0390625 3.886719 -0.5 C 3.042969 -0.957031 2.398438 -1.546875 1.957031 -2.265625 C 1.515625 -2.988281 1.296875 -3.742188 1.296875 -4.535156 L 1.296875 -4.667969 L 3.617188 -4.667969 L 3.617188 -4.5625 C 3.617188 -4.113281 3.742188 -3.667969 3.996094 -3.226562 C 4.246094 -2.785156 4.625 -2.425781 5.128906 -2.144531 C 5.632812 -1.867188 6.246094 -1.726562 6.964844 -1.726562 C 7.828125 -1.726562 8.542969 -1.9375 9.109375 -2.363281 C 9.675781 -2.785156 9.960938 -3.363281 9.960938 -4.101562 C 9.960938 -4.714844 9.738281 -5.199219 9.300781 -5.558594 C 8.859375 -5.921875 8.304688 -6.152344 7.640625 -6.261719 L 5.777344 -6.53125 C 4.605469 -6.710938 3.625 -7.113281 2.835938 -7.734375 C 2.042969 -8.355469 1.648438 -9.257812 1.648438 -10.445312 C 1.648438 -11.757812 2.117188 -12.78125 3.0625 -13.507812 C 4.007812 -14.238281 5.21875 -14.601562 6.695312 -14.601562 C 7.792969 -14.601562 8.730469 -14.402344 9.515625 -13.996094 C 10.296875 -13.589844 10.894531 -13.058594 11.308594 -12.402344 C 11.722656 -11.746094 11.929688 -11.03125 11.929688 -10.257812 L 11.929688 -10.148438 L 9.609375 -10.148438 L 9.609375 -10.203125 C 9.609375 -10.5625 9.515625 -10.941406 9.324219 -11.335938 C 9.136719 -11.734375 8.816406 -12.074219 8.367188 -12.363281 C 7.917969 -12.652344 7.34375 -12.792969 6.640625 -12.792969 C 5.777344 -12.792969 5.082031 -12.582031 4.5625 -12.160156 C 4.039062 -11.738281 3.777344 -11.183594 3.777344 -10.5 C 3.777344 -9.941406 3.984375 -9.484375 4.398438 -9.125 C 4.8125 -8.761719 5.335938 -8.53125 5.964844 -8.421875 L 7.988281 -8.097656 C 9.175781 -7.898438 10.175781 -7.492188 10.984375 -6.871094 C 11.796875 -6.25 12.199219 -5.335938 12.199219 -4.128906 C 12.199219 -3.265625 11.972656 -2.511719 11.511719 -1.863281 C 11.054688 -1.214844 10.417969 -0.710938 9.609375 -0.351562 C 8.800781 0.0078125 7.890625 0.1875 6.882812 0.1875 Z M 6.882812 0.1875 "/></g></g></g><g fill="#202020" fill-opacity="1"><g transform="translate(469.954043, 694.482705)"><g><path d="M 7.289062 0.1875 C 6.027344 0.1875 4.953125 -0.136719 4.0625 -0.78125 C 3.171875 -1.429688 2.492188 -2.3125 2.023438 -3.429688 C 1.554688 -4.542969 1.324219 -5.804688 1.324219 -7.207031 C 1.324219 -8.628906 1.554688 -9.898438 2.023438 -11.011719 C 2.492188 -12.128906 3.175781 -13.007812 4.074219 -13.644531 C 4.976562 -14.285156 6.0625 -14.601562 7.34375 -14.601562 C 8.601562 -14.601562 9.621094 -14.300781 10.40625 -13.699219 C 11.1875 -13.097656 11.769531 -12.390625 12.148438 -11.578125 L 12.363281 -11.578125 L 12.363281 -20.246094 L 14.683594 -20.246094 L 14.683594 0 L 12.363281 0 L 12.363281 -2.914062 L 12.148438 -2.914062 C 11.714844 -2.050781 11.105469 -1.316406 10.324219 -0.714844 C 9.542969 -0.113281 8.53125 0.1875 7.289062 0.1875 Z M 7.988281 -1.808594 C 9.394531 -1.808594 10.464844 -2.324219 11.203125 -3.359375 C 11.941406 -4.394531 12.308594 -5.675781 12.308594 -7.207031 C 12.308594 -8.738281 11.941406 -10.015625 11.203125 -11.039062 C 10.464844 -12.066406 9.394531 -12.578125 7.988281 -12.578125 C 6.566406 -12.578125 5.496094 -12.066406 4.777344 -11.039062 C 4.058594 -10.015625 3.699219 -8.738281 3.699219 -7.207031 C 3.699219 -5.660156 4.0625 -4.371094 4.792969 -3.347656 C 5.519531 -2.320312 6.585938 -1.808594 7.988281 -1.808594 Z M 7.988281 -1.808594 "/></g></g></g><g fill="#202020" fill-opacity="1"><g transform="translate(486.659715, 694.482705)"><g><path d="M 2.214844 -14.226562 L 4.535156 -14.226562 L 4.535156 0 L 2.214844 0 Z M 3.347656 -16.871094 C 2.914062 -16.871094 2.554688 -17.019531 2.265625 -17.316406 C 1.980469 -17.613281 1.835938 -17.96875 1.835938 -18.382812 C 1.835938 -18.796875 1.980469 -19.152344 2.265625 -19.449219 C 2.554688 -19.746094 2.914062 -19.894531 3.347656 -19.894531 C 3.777344 -19.894531 4.144531 -19.746094 4.441406 -19.449219 C 4.738281 -19.152344 4.886719 -18.796875 4.886719 -18.382812 C 4.886719 -17.96875 4.738281 -17.613281 4.441406 -17.316406 C 4.144531 -17.019531 3.777344 -16.871094 3.347656 -16.871094 Z M 3.347656 -16.871094 "/></g></g></g><g fill="#202020" fill-opacity="1"><g transform="translate(493.406785, 694.482705)"><g/></g></g><g fill="#202020" fill-opacity="1"><g transform="translate(499.61406, 694.482705)"><g><path d="M 13.039062 -5.507812 L 5.34375 -5.507812 L 3.347656 0 L 0.972656 0 L 8.070312 -18.894531 L 10.285156 -18.894531 L 17.4375 0 L 15.0625 0 Z M 12.363281 -7.367188 L 9.203125 -15.925781 L 9.097656 -15.925781 L 6.019531 -7.367188 Z M 12.363281 -7.367188 "/></g></g></g><g fill="#202020" fill-opacity="1"><g transform="translate(517.966079, 694.482705)"><g><path d="M 1.917969 -14.226562 L 4.238281 -14.226562 L 4.238281 -11.957031 L 4.398438 -11.957031 C 4.632812 -12.585938 5.050781 -13.121094 5.65625 -13.5625 C 6.257812 -14.003906 7.019531 -14.226562 7.9375 -14.226562 C 8.222656 -14.226562 8.453125 -14.210938 8.625 -14.183594 C 8.796875 -14.15625 8.988281 -14.109375 9.203125 -14.035156 L 9.125 -11.769531 C 8.835938 -11.859375 8.589844 -11.921875 8.382812 -11.957031 C 8.175781 -11.992188 7.910156 -12.011719 7.585938 -12.011719 C 5.351562 -12.011719 4.238281 -10.6875 4.238281 -8.042969 L 4.238281 0 L 1.917969 0 Z M 1.917969 -14.226562 "/></g></g></g><g fill="#202020" fill-opacity="1"><g transform="translate(527.492873, 694.482705)"><g><path d="M 2.214844 -14.226562 L 4.535156 -14.226562 L 4.535156 0 L 2.214844 0 Z M 3.347656 -16.871094 C 2.914062 -16.871094 2.554688 -17.019531 2.265625 -17.316406 C 1.980469 -17.613281 1.835938 -17.96875 1.835938 -18.382812 C 1.835938 -18.796875 1.980469 -19.152344 2.265625 -19.449219 C 2.554688 -19.746094 2.914062 -19.894531 3.347656 -19.894531 C 3.777344 -19.894531 4.144531 -19.746094 4.441406 -19.449219 C 4.738281 -19.152344 4.886719 -18.796875 4.886719 -18.382812 C 4.886719 -17.96875 4.738281 -17.613281 4.441406 -17.316406 C 4.144531 -17.019531 3.777344 -16.871094 3.347656 -16.871094 Z M 3.347656 -16.871094 "/></g></g></g><g fill="#202020" fill-opacity="1"><g transform="translate(534.239943, 694.482705)"><g><path d="M 7.234375 0.1875 C 5.972656 0.1875 4.898438 -0.136719 4.007812 -0.78125 C 3.117188 -1.429688 2.4375 -2.3125 1.96875 -3.429688 C 1.503906 -4.542969 1.269531 -5.804688 1.269531 -7.207031 C 1.269531 -8.609375 1.507812 -9.875 1.984375 -11 C 2.460938 -12.125 3.152344 -13.007812 4.0625 -13.644531 C 4.972656 -14.285156 6.054688 -14.601562 7.316406 -14.601562 C 8.574219 -14.601562 9.589844 -14.304688 10.363281 -13.710938 C 11.140625 -13.117188 11.722656 -12.40625 12.121094 -11.578125 L 12.308594 -11.578125 L 12.308594 -14.226562 L 14.65625 -14.226562 L 14.65625 0 L 12.308594 0 L 12.308594 -2.914062 L 12.121094 -2.914062 C 11.6875 -2.070312 11.074219 -1.339844 10.285156 -0.730469 C 9.492188 -0.117188 8.476562 0.1875 7.234375 0.1875 Z M 7.960938 -1.808594 C 9.347656 -1.808594 10.410156 -2.324219 11.148438 -3.359375 C 11.886719 -4.394531 12.253906 -5.675781 12.253906 -7.207031 C 12.253906 -8.738281 11.886719 -10.019531 11.148438 -11.054688 C 10.410156 -12.089844 9.347656 -12.605469 7.960938 -12.605469 C 6.542969 -12.605469 5.464844 -12.09375 4.738281 -11.066406 C 4.007812 -10.042969 3.644531 -8.761719 3.644531 -7.234375 C 3.644531 -5.6875 4.007812 -4.394531 4.738281 -3.359375 C 5.464844 -2.324219 6.542969 -1.808594 7.960938 -1.808594 Z M 7.960938 -1.808594 "/></g></g></g><g fill="#202020" fill-opacity="1"><g transform="translate(550.972624, 694.482705)"><g><path d="M 0.890625 -14.226562 L 3.105469 -14.226562 L 6.261719 -2.539062 L 6.398438 -2.539062 L 9.988281 -14.226562 L 12.09375 -14.226562 L 15.738281 -2.539062 L 15.871094 -2.539062 L 18.976562 -14.226562 L 21.1875 -14.226562 L 17.273438 0 L 14.304688 0 L 11.148438 -10.390625 L 10.957031 -10.390625 L 7.800781 0 L 4.832031 0 Z M 0.890625 -14.226562 "/></g></g></g><g fill="#202020" fill-opacity="1"><g transform="translate(573.022, 694.482705)"><g><path d="M 7.234375 0.1875 C 5.972656 0.1875 4.898438 -0.136719 4.007812 -0.78125 C 3.117188 -1.429688 2.4375 -2.3125 1.96875 -3.429688 C 1.503906 -4.542969 1.269531 -5.804688 1.269531 -7.207031 C 1.269531 -8.609375 1.507812 -9.875 1.984375 -11 C 2.460938 -12.125 3.152344 -13.007812 4.0625 -13.644531 C 4.972656 -14.285156 6.054688 -14.601562 7.316406 -14.601562 C 8.574219 -14.601562 9.589844 -14.304688 10.363281 -13.710938 C 11.140625 -13.117188 11.722656 -12.40625 12.121094 -11.578125 L 12.308594 -11.578125 L 12.308594 -14.226562 L 14.65625 -14.226562 L 14.65625 0 L 12.308594 0 L 12.308594 -2.914062 L 12.121094 -2.914062 C 11.6875 -2.070312 11.074219 -1.339844 10.285156 -0.730469 C 9.492188 -0.117188 8.476562 0.1875 7.234375 0.1875 Z M 7.960938 -1.808594 C 9.347656 -1.808594 10.410156 -2.324219 11.148438 -3.359375 C 11.886719 -4.394531 12.253906 -5.675781 12.253906 -7.207031 C 12.253906 -8.738281 11.886719 -10.019531 11.148438 -11.054688 C 10.410156 -12.089844 9.347656 -12.605469 7.960938 -12.605469 C 6.542969 -12.605469 5.464844 -12.09375 4.738281 -11.066406 C 4.007812 -10.042969 3.644531 -8.761719 3.644531 -7.234375 C 3.644531 -5.6875 4.007812 -4.394531 4.738281 -3.359375 C 5.464844 -2.324219 6.542969 -1.808594 7.960938 -1.808594 Z M 7.960938 -1.808594 "/></g></g></g><g fill="#202020" fill-opacity="1"><g transform="translate(589.754681, 694.482705)"><g><path d="M 2.023438 -14.226562 L 4.347656 -14.226562 L 4.347656 -11.660156 L 4.5625 -11.660156 C 4.921875 -12.488281 5.507812 -13.1875 6.316406 -13.753906 C 7.125 -14.320312 8.117188 -14.601562 9.285156 -14.601562 C 10.492188 -14.601562 11.5 -14.320312 12.308594 -13.753906 C 13.117188 -13.1875 13.714844 -12.4375 14.105469 -11.511719 C 14.492188 -10.585938 14.683594 -9.582031 14.683594 -8.503906 L 14.683594 0 L 12.363281 0 L 12.363281 -8.207031 C 12.363281 -9.609375 12 -10.679688 11.269531 -11.417969 C 10.539062 -12.15625 9.589844 -12.523438 8.421875 -12.523438 C 7.179688 -12.523438 6.191406 -12.125 5.453125 -11.324219 C 4.714844 -10.523438 4.347656 -9.484375 4.347656 -8.207031 L 4.347656 0 L 2.023438 0 Z M 2.023438 -14.226562 "/></g></g></g><g fill="#202020" fill-opacity="1"><g transform="translate(606.27148, 694.482705)"><g><path d="M 2.914062 5.046875 C 3.652344 4.382812 4.394531 3.445312 5.140625 2.242188 C 5.890625 1.035156 6.523438 -0.433594 7.046875 -2.160156 C 7.566406 -3.886719 7.828125 -5.765625 7.828125 -7.800781 C 7.828125 -9.835938 7.566406 -11.714844 7.046875 -13.441406 C 6.523438 -15.167969 5.890625 -16.636719 5.140625 -17.84375 C 4.394531 -19.046875 3.652344 -19.992188 2.914062 -20.675781 L 3.617188 -21.378906 C 4.679688 -20.75 5.714844 -19.820312 6.722656 -18.597656 C 7.730469 -17.375 8.566406 -15.84375 9.230469 -14.007812 C 9.898438 -12.171875 10.230469 -10.105469 10.230469 -7.800781 C 10.230469 -5.585938 9.910156 -3.578125 9.273438 -1.769531 C 8.632812 0.0390625 7.8125 1.566406 6.816406 2.808594 C 5.816406 4.050781 4.75 5.03125 3.617188 5.75 Z M 2.914062 5.046875 "/></g></g></g></svg>