<svg xmlns="http://www.w3.org/2000/svg" xmlns:xlink="http://www.w3.org/1999/xlink" width="1920" zoomAndPan="magnify" viewBox="0 0 1440 809.999993" height="1080" preserveAspectRatio="xMidYMid meet" version="1.0"><defs><g/></defs><rect x="-144" width="1728" fill="#ffffff" y="-80.999999" height="971.999992" fill-opacity="1"/><rect x="-144" width="1728" fill="#faf4eb" y="-80.999999" height="971.999992" fill-opacity="1"/><path fill="#2d3e70" d="M 0 729 L 1439.964844 729 L 1439.964844 810 L 0 810 Z M 0 729 " fill-opacity="1" fill-rule="nonzero"/><g fill="#2d3e70" fill-opacity="1"><g transform="translate(247.523431, 412.613114)"><g><path d="M 2.234375 -10.640625 C 2.140625 -10.734375 2.09375 -10.828125 2.09375 -10.921875 L 4.625 -29.8125 L 6.71875 -29.546875 C 7.1875 -26.085938 8.328125 -22.628906 10.140625 -19.171875 C 11.960938 -15.722656 14.226562 -12.617188 16.9375 -9.859375 C 19.644531 -7.109375 22.703125 -4.894531 26.109375 -3.21875 C 29.515625 -1.539062 33.039062 -0.703125 36.6875 -0.703125 C 41.070312 -0.703125 44.921875 -2.078125 48.234375 -4.828125 C 51.546875 -7.578125 53.203125 -11.332031 53.203125 -16.09375 C 53.203125 -19.269531 52.382812 -22.046875 50.75 -24.421875 C 49.113281 -26.804688 47.054688 -28.882812 44.578125 -30.65625 C 42.109375 -32.425781 39.613281 -33.96875 37.09375 -35.28125 C 35.601562 -36.125 34.109375 -36.941406 32.609375 -37.734375 C 31.117188 -38.523438 29.582031 -39.34375 28 -40.1875 C 23.894531 -42.332031 20 -44.640625 16.3125 -47.109375 C 12.625 -49.578125 9.632812 -52.445312 7.34375 -55.71875 C 5.0625 -58.988281 3.921875 -62.910156 3.921875 -67.484375 C 3.921875 -73.171875 5.4375 -77.832031 8.46875 -81.46875 C 11.5 -85.113281 15.394531 -87.820312 20.15625 -89.59375 C 24.914062 -91.375 29.863281 -92.265625 35 -92.265625 C 37.519531 -92.265625 40.390625 -92.03125 43.609375 -91.5625 C 46.828125 -91.09375 49.929688 -90.367188 52.921875 -89.390625 C 55.910156 -88.410156 58.335938 -87.082031 60.203125 -85.40625 C 60.296875 -85.3125 60.4375 -85.171875 60.625 -84.984375 C 60.8125 -84.796875 61 -84.609375 61.1875 -84.421875 C 61.363281 -84.234375 61.5 -84 61.59375 -83.71875 L 63.984375 -64.265625 L 61.453125 -64.265625 C 60.429688 -66.960938 58.984375 -69.828125 57.109375 -72.859375 C 55.242188 -75.898438 53.097656 -78.75 50.671875 -81.40625 C 48.253906 -84.070312 45.550781 -86.21875 42.5625 -87.84375 C 39.570312 -89.476562 36.445312 -90.296875 33.1875 -90.296875 C 28.882812 -90.296875 25.21875 -89.035156 22.1875 -86.515625 C 19.15625 -83.992188 17.640625 -80.398438 17.640625 -75.734375 C 17.640625 -72.285156 18.429688 -69.300781 20.015625 -66.78125 C 21.609375 -64.257812 23.660156 -62.039062 26.171875 -60.125 C 28.691406 -58.21875 31.257812 -56.515625 33.875 -55.015625 C 35.375 -54.085938 36.890625 -53.222656 38.421875 -52.421875 C 39.960938 -51.628906 41.484375 -50.816406 42.984375 -49.984375 C 47.179688 -47.742188 51.125 -45.382812 54.8125 -42.90625 C 58.5 -40.4375 61.507812 -37.566406 63.84375 -34.296875 C 66.175781 -31.035156 67.34375 -27.117188 67.34375 -22.546875 C 67.34375 -19.460938 66.6875 -16.519531 65.375 -13.71875 C 63.601562 -9.707031 61.015625 -6.601562 57.609375 -4.40625 C 54.203125 -2.21875 50.421875 -0.703125 46.265625 0.140625 C 42.117188 0.984375 37.988281 1.40625 33.875 1.40625 C 30.707031 1.40625 27.234375 1.03125 23.453125 0.28125 C 19.671875 -0.46875 16.003906 -1.585938 12.453125 -3.078125 C 8.910156 -4.566406 5.972656 -6.4375 3.640625 -8.6875 C 3.546875 -8.863281 3.40625 -9.046875 3.21875 -9.234375 C 3.03125 -9.421875 2.84375 -9.65625 2.65625 -9.9375 C 2.375 -10.21875 2.234375 -10.453125 2.234375 -10.640625 Z M 2.234375 -10.640625 "/></g></g></g><g fill="#2d3e70" fill-opacity="1"><g transform="translate(315.979604, 412.613114)"><g><path d="M 3.5 -32.0625 C 3.5 -38.125 4.59375 -43.722656 6.78125 -48.859375 C 8.976562 -53.992188 12.222656 -58.125 16.515625 -61.25 C 20.804688 -64.375 26.128906 -65.9375 32.484375 -65.9375 C 37.984375 -65.9375 42.671875 -64.695312 46.546875 -62.21875 C 50.421875 -59.75 53.382812 -56.367188 55.4375 -52.078125 C 57.488281 -47.785156 58.515625 -42.976562 58.515625 -37.65625 L 58.515625 -37.234375 L 18.625 -37.234375 L 18.625 -35.28125 C 18.625 -32.289062 18.992188 -29.207031 19.734375 -26.03125 C 20.484375 -22.863281 21.648438 -19.898438 23.234375 -17.140625 C 24.828125 -14.390625 26.90625 -12.148438 29.46875 -10.421875 C 32.03125 -8.703125 35.179688 -7.84375 38.921875 -7.84375 C 42.367188 -7.84375 45.75 -8.65625 49.0625 -10.28125 C 52.382812 -11.914062 55.070312 -14.132812 57.125 -16.9375 L 58.375 -16.09375 C 55.582031 -10.6875 52.34375 -6.414062 48.65625 -3.28125 C 44.96875 -0.15625 39.8125 1.40625 33.1875 1.40625 C 26.738281 1.40625 21.320312 -0.0859375 16.9375 -3.078125 C 12.550781 -6.066406 9.210938 -10.101562 6.921875 -15.1875 C 4.640625 -20.269531 3.5 -25.894531 3.5 -32.0625 Z M 18.90625 -40.453125 L 18.90625 -39.484375 L 43.546875 -39.484375 L 43.546875 -40.453125 C 43.453125 -42.140625 43.191406 -44.265625 42.765625 -46.828125 C 42.347656 -49.398438 41.695312 -51.988281 40.8125 -54.59375 C 39.925781 -57.207031 38.734375 -59.398438 37.234375 -61.171875 C 35.742188 -62.953125 33.925781 -63.84375 31.78125 -63.84375 C 29.539062 -63.84375 27.648438 -62.953125 26.109375 -61.171875 C 24.566406 -59.398438 23.28125 -57.226562 22.25 -54.65625 C 21.226562 -52.09375 20.460938 -49.503906 19.953125 -46.890625 C 19.441406 -44.285156 19.09375 -42.140625 18.90625 -40.453125 Z M 18.90625 -40.453125 "/></g></g></g><g fill="#2d3e70" fill-opacity="1"><g transform="translate(378.136126, 412.613114)"><g><path d="M 1.125 -57.546875 L 22.265625 -64.265625 L 22.265625 -55.71875 L 23.9375 -58.234375 C 26.082031 -61.222656 28.785156 -63.253906 32.046875 -64.328125 C 35.316406 -65.398438 38.679688 -65.9375 42.140625 -65.9375 C 48.203125 -65.9375 53.144531 -64.46875 56.96875 -61.53125 C 60.800781 -58.59375 62.71875 -53.945312 62.71875 -47.59375 L 62.71875 -9.9375 C 62.71875 -7.414062 63.226562 -5.546875 64.25 -4.328125 C 65.28125 -3.117188 66.960938 -2.46875 69.296875 -2.375 L 69.296875 0 L 41.578125 0 L 41.578125 -2.375 C 46.054688 -2.46875 48.296875 -4.988281 48.296875 -9.9375 L 48.296875 -47.3125 C 48.296875 -49.738281 47.851562 -52.09375 46.96875 -54.375 C 46.082031 -56.664062 44.75 -58.582031 42.96875 -60.125 C 41.195312 -61.664062 38.867188 -62.4375 35.984375 -62.4375 C 33.554688 -62.4375 31.289062 -61.644531 29.1875 -60.0625 C 27.09375 -58.476562 25.414062 -56.519531 24.15625 -54.1875 C 22.894531 -51.851562 22.265625 -49.5625 22.265625 -47.3125 L 22.265625 -9.9375 C 22.265625 -4.988281 24.457031 -2.46875 28.84375 -2.375 L 28.84375 0 L 1.125 0 L 1.125 -2.375 C 5.601562 -2.46875 7.84375 -4.988281 7.84375 -9.9375 L 7.84375 -47.3125 C 7.84375 -52.164062 5.601562 -54.734375 1.125 -55.015625 Z M 1.125 -57.546875 "/></g></g></g><g fill="#2d3e70" fill-opacity="1"><g transform="translate(447.572234, 412.613114)"><g><path d="M 2.9375 -7 C 2.84375 -7.1875 2.769531 -7.328125 2.71875 -7.421875 C 2.675781 -7.515625 2.609375 -7.609375 2.515625 -7.703125 L 4.625 -21 L 6.015625 -21 C 6.203125 -18.476562 7.019531 -16.003906 8.46875 -13.578125 C 9.914062 -11.148438 11.757812 -8.976562 14 -7.0625 C 16.238281 -5.15625 18.640625 -3.617188 21.203125 -2.453125 C 23.773438 -1.285156 26.226562 -0.703125 28.5625 -0.703125 C 30.050781 -0.703125 31.679688 -0.976562 33.453125 -1.53125 C 35.234375 -2.09375 36.773438 -3.023438 38.078125 -4.328125 C 39.390625 -5.640625 40.046875 -7.320312 40.046875 -9.375 C 40.046875 -11.519531 39.390625 -13.382812 38.078125 -14.96875 C 36.773438 -16.5625 35.1875 -17.988281 33.3125 -19.25 C 31.445312 -20.507812 29.675781 -21.609375 28 -22.546875 C 26.96875 -23.191406 25.890625 -23.816406 24.765625 -24.421875 C 23.648438 -25.035156 22.535156 -25.664062 21.421875 -26.3125 C 18.429688 -28.09375 15.582031 -29.960938 12.875 -31.921875 C 10.164062 -33.878906 7.972656 -36.140625 6.296875 -38.703125 C 4.617188 -41.273438 3.78125 -44.238281 3.78125 -47.59375 C 3.78125 -52.070312 4.96875 -55.640625 7.34375 -58.296875 C 9.726562 -60.960938 12.8125 -62.898438 16.59375 -64.109375 C 20.375 -65.328125 24.269531 -65.9375 28.28125 -65.9375 C 32.007812 -65.9375 35.644531 -65.304688 39.1875 -64.046875 C 42.738281 -62.785156 45.820312 -60.847656 48.4375 -58.234375 C 48.4375 -58.234375 48.738281 -57.90625 49.34375 -57.25 C 49.957031 -56.601562 50.3125 -56.1875 50.40625 -56 L 50.40625 -45.640625 L 48.4375 -45.640625 C 47.320312 -48.160156 45.6875 -50.84375 43.53125 -53.6875 C 41.382812 -56.53125 38.890625 -58.929688 36.046875 -60.890625 C 33.203125 -62.859375 30.238281 -63.84375 27.15625 -63.84375 C 24.539062 -63.84375 22.347656 -63.023438 20.578125 -61.390625 C 18.804688 -59.753906 17.921875 -57.582031 17.921875 -54.875 C 17.921875 -51.238281 19.15625 -48.207031 21.625 -45.78125 C 24.101562 -43.351562 26.742188 -41.300781 29.546875 -39.625 C 30.566406 -38.96875 31.632812 -38.359375 32.75 -37.796875 C 33.875 -37.234375 35 -36.628906 36.125 -35.984375 C 39.101562 -34.390625 41.898438 -32.707031 44.515625 -30.9375 C 47.128906 -29.164062 49.226562 -27.160156 50.8125 -24.921875 C 52.40625 -22.679688 53.203125 -19.972656 53.203125 -16.796875 C 53.203125 -14.179688 52.453125 -11.660156 50.953125 -9.234375 C 48.617188 -5.222656 45.210938 -2.445312 40.734375 -0.90625 C 36.253906 0.632812 31.726562 1.40625 27.15625 1.40625 C 22.863281 1.40625 18.523438 0.773438 14.140625 -0.484375 C 9.753906 -1.742188 6.019531 -3.914062 2.9375 -7 Z M 2.9375 -7 "/></g></g></g><g fill="#2d3e70" fill-opacity="1"><g transform="translate(502.169178, 412.613114)"><g><path d="M 33.3125 1.40625 C 26.59375 1.40625 21.015625 -0.0625 16.578125 -3 C 12.148438 -5.945312 8.835938 -9.984375 6.640625 -15.109375 C 4.453125 -20.242188 3.359375 -26.082031 3.359375 -32.625 C 3.359375 -39.15625 4.453125 -44.914062 6.640625 -49.90625 C 8.835938 -54.90625 12.148438 -58.828125 16.578125 -61.671875 C 21.015625 -64.515625 26.59375 -65.9375 33.3125 -65.9375 C 43.488281 -65.9375 51.050781 -62.851562 56 -56.6875 C 60.945312 -50.53125 63.421875 -42.507812 63.421875 -32.625 C 63.421875 -26.082031 62.320312 -20.242188 60.125 -15.109375 C 57.9375 -9.984375 54.625 -5.945312 50.1875 -3 C 45.757812 -0.0625 40.132812 1.40625 33.3125 1.40625 Z M 18.625 -32.625 C 18.625 -30.195312 18.757812 -27.1875 19.03125 -23.59375 C 19.3125 -20 19.921875 -16.425781 20.859375 -12.875 C 21.796875 -9.332031 23.265625 -6.367188 25.265625 -3.984375 C 27.273438 -1.609375 29.957031 -0.421875 33.3125 -0.421875 C 36.769531 -0.421875 39.476562 -1.609375 41.4375 -3.984375 C 43.394531 -6.367188 44.863281 -9.332031 45.84375 -12.875 C 46.820312 -16.425781 47.453125 -20 47.734375 -23.59375 C 48.015625 -27.1875 48.15625 -30.195312 48.15625 -32.625 C 48.15625 -35.144531 48.035156 -38.15625 47.796875 -41.65625 C 47.566406 -45.15625 46.960938 -48.628906 45.984375 -52.078125 C 45.003906 -55.535156 43.535156 -58.40625 41.578125 -60.6875 C 39.617188 -62.976562 36.863281 -64.125 33.3125 -64.125 C 29.863281 -64.125 27.160156 -62.976562 25.203125 -60.6875 C 23.242188 -58.40625 21.796875 -55.535156 20.859375 -52.078125 C 19.921875 -48.628906 19.3125 -45.128906 19.03125 -41.578125 C 18.757812 -38.035156 18.625 -35.050781 18.625 -32.625 Z M 18.625 -32.625 "/></g></g></g><g fill="#2d3e70" fill-opacity="1"><g transform="translate(568.105477, 412.613114)"><g><path d="M 1.6875 -57.546875 L 22.8125 -64.265625 L 22.8125 -54.3125 L 24.640625 -57.40625 C 26.410156 -60.289062 28.765625 -62.457031 31.703125 -63.90625 C 34.648438 -65.351562 37.847656 -66.078125 41.296875 -66.078125 C 44.003906 -66.078125 46.59375 -65.585938 49.0625 -64.609375 C 51.539062 -63.628906 53.476562 -61.925781 54.875 -59.5 C 55.34375 -58.75 55.71875 -57.953125 56 -57.109375 C 56.28125 -56.273438 56.421875 -55.4375 56.421875 -54.59375 C 56.421875 -52.726562 55.695312 -51.234375 54.25 -50.109375 C 52.800781 -48.992188 51.144531 -48.4375 49.28125 -48.4375 C 48.25 -48.4375 47.382812 -48.578125 46.6875 -48.859375 C 45.988281 -49.140625 45.40625 -49.46875 44.9375 -49.84375 C 44.375 -50.3125 43.863281 -50.820312 43.40625 -51.375 C 43.21875 -51.65625 42.984375 -51.957031 42.703125 -52.28125 C 42.421875 -52.613281 42.1875 -52.921875 42 -53.203125 C 41.0625 -54.503906 39.960938 -55.757812 38.703125 -56.96875 C 37.441406 -58.1875 35.507812 -58.796875 32.90625 -58.796875 C 29.726562 -58.796875 27.25 -57.601562 25.46875 -55.21875 C 23.695312 -52.84375 22.8125 -50.207031 22.8125 -47.3125 L 22.8125 -9.9375 C 22.8125 -4.988281 25.007812 -2.46875 29.40625 -2.375 L 29.40625 0 L 1.6875 0 L 1.6875 -2.375 C 6.164062 -2.46875 8.40625 -4.988281 8.40625 -9.9375 L 8.40625 -47.3125 C 8.40625 -52.164062 6.164062 -54.734375 1.6875 -55.015625 Z M 1.6875 -57.546875 "/></g></g></g><g fill="#2d3e70" fill-opacity="1"><g transform="translate(624.802297, 412.613114)"><g/></g></g><g fill="#2d3e70" fill-opacity="1"><g transform="translate(651.960774, 412.613114)"><g><path d="M 1.125 -2.375 C 3.269531 -2.46875 5.15625 -3.070312 6.78125 -4.1875 C 8.414062 -5.3125 9.234375 -7.226562 9.234375 -9.9375 L 9.234375 -80.78125 C 9.234375 -83.488281 8.414062 -85.425781 6.78125 -86.59375 C 5.15625 -87.757812 3.269531 -88.390625 1.125 -88.484375 L 1.125 -90.71875 C 6.53125 -90.71875 11.894531 -90.738281 17.21875 -90.78125 C 22.539062 -90.832031 27.90625 -90.859375 33.3125 -90.859375 C 36.300781 -90.859375 39.566406 -90.765625 43.109375 -90.578125 C 46.660156 -90.390625 49.789062 -89.878906 52.5 -89.046875 C 58.007812 -87.453125 62.1875 -84.296875 65.03125 -79.578125 C 67.875 -74.867188 69.296875 -69.671875 69.296875 -63.984375 C 69.296875 -58.285156 67.875 -53.078125 65.03125 -48.359375 C 62.1875 -43.648438 58.007812 -40.457031 52.5 -38.78125 C 50.632812 -38.21875 48.507812 -37.816406 46.125 -37.578125 C 43.75 -37.347656 41.300781 -37.1875 38.78125 -37.09375 C 36.257812 -37 33.785156 -36.972656 31.359375 -37.015625 C 28.929688 -37.066406 26.691406 -37.09375 24.640625 -37.09375 L 23.65625 -37.234375 L 23.65625 -9.9375 C 23.65625 -7.226562 24.445312 -5.3125 26.03125 -4.1875 C 27.625 -3.070312 29.492188 -2.46875 31.640625 -2.375 L 31.640625 0 L 1.125 0 Z M 23.65625 -39.765625 L 24.640625 -39.765625 C 25.941406 -39.765625 27.382812 -39.765625 28.96875 -39.765625 C 30.5625 -39.765625 32.242188 -39.8125 34.015625 -39.90625 C 35.703125 -40 37.359375 -40.179688 38.984375 -40.453125 C 40.617188 -40.734375 42.046875 -41.15625 43.265625 -41.71875 C 45.960938 -42.9375 48.101562 -44.800781 49.6875 -47.3125 C 51.28125 -49.832031 52.40625 -52.585938 53.0625 -55.578125 C 53.71875 -58.566406 54.046875 -61.320312 54.046875 -63.84375 C 54.046875 -66.457031 53.71875 -69.253906 53.0625 -72.234375 C 52.40625 -75.222656 51.28125 -78 49.6875 -80.5625 C 48.101562 -83.132812 45.914062 -85.023438 43.125 -86.234375 C 41.90625 -86.796875 40.476562 -87.191406 38.84375 -87.421875 C 37.21875 -87.660156 35.5625 -87.828125 33.875 -87.921875 C 32.195312 -88.109375 30.5625 -88.203125 28.96875 -88.203125 C 27.382812 -88.203125 25.941406 -88.203125 24.640625 -88.203125 L 23.65625 -88.203125 Z M 23.65625 -39.765625 "/></g></g></g><g fill="#2d3e70" fill-opacity="1"><g transform="translate(722.376862, 412.613114)"><g><path d="M 1.6875 -57.546875 L 22.8125 -64.265625 L 22.8125 -54.3125 L 24.640625 -57.40625 C 26.410156 -60.289062 28.765625 -62.457031 31.703125 -63.90625 C 34.648438 -65.351562 37.847656 -66.078125 41.296875 -66.078125 C 44.003906 -66.078125 46.59375 -65.585938 49.0625 -64.609375 C 51.539062 -63.628906 53.476562 -61.925781 54.875 -59.5 C 55.34375 -58.75 55.71875 -57.953125 56 -57.109375 C 56.28125 -56.273438 56.421875 -55.4375 56.421875 -54.59375 C 56.421875 -52.726562 55.695312 -51.234375 54.25 -50.109375 C 52.800781 -48.992188 51.144531 -48.4375 49.28125 -48.4375 C 48.25 -48.4375 47.382812 -48.578125 46.6875 -48.859375 C 45.988281 -49.140625 45.40625 -49.46875 44.9375 -49.84375 C 44.375 -50.3125 43.863281 -50.820312 43.40625 -51.375 C 43.21875 -51.65625 42.984375 -51.957031 42.703125 -52.28125 C 42.421875 -52.613281 42.1875 -52.921875 42 -53.203125 C 41.0625 -54.503906 39.960938 -55.757812 38.703125 -56.96875 C 37.441406 -58.1875 35.507812 -58.796875 32.90625 -58.796875 C 29.726562 -58.796875 27.25 -57.601562 25.46875 -55.21875 C 23.695312 -52.84375 22.8125 -50.207031 22.8125 -47.3125 L 22.8125 -9.9375 C 22.8125 -4.988281 25.007812 -2.46875 29.40625 -2.375 L 29.40625 0 L 1.6875 0 L 1.6875 -2.375 C 6.164062 -2.46875 8.40625 -4.988281 8.40625 -9.9375 L 8.40625 -47.3125 C 8.40625 -52.164062 6.164062 -54.734375 1.6875 -55.015625 Z M 1.6875 -57.546875 "/></g></g></g><g fill="#2d3e70" fill-opacity="1"><g transform="translate(779.073683, 412.613114)"><g><path d="M 33.3125 1.40625 C 26.59375 1.40625 21.015625 -0.0625 16.578125 -3 C 12.148438 -5.945312 8.835938 -9.984375 6.640625 -15.109375 C 4.453125 -20.242188 3.359375 -26.082031 3.359375 -32.625 C 3.359375 -39.15625 4.453125 -44.914062 6.640625 -49.90625 C 8.835938 -54.90625 12.148438 -58.828125 16.578125 -61.671875 C 21.015625 -64.515625 26.59375 -65.9375 33.3125 -65.9375 C 43.488281 -65.9375 51.050781 -62.851562 56 -56.6875 C 60.945312 -50.53125 63.421875 -42.507812 63.421875 -32.625 C 63.421875 -26.082031 62.320312 -20.242188 60.125 -15.109375 C 57.9375 -9.984375 54.625 -5.945312 50.1875 -3 C 45.757812 -0.0625 40.132812 1.40625 33.3125 1.40625 Z M 18.625 -32.625 C 18.625 -30.195312 18.757812 -27.1875 19.03125 -23.59375 C 19.3125 -20 19.921875 -16.425781 20.859375 -12.875 C 21.796875 -9.332031 23.265625 -6.367188 25.265625 -3.984375 C 27.273438 -1.609375 29.957031 -0.421875 33.3125 -0.421875 C 36.769531 -0.421875 39.476562 -1.609375 41.4375 -3.984375 C 43.394531 -6.367188 44.863281 -9.332031 45.84375 -12.875 C 46.820312 -16.425781 47.453125 -20 47.734375 -23.59375 C 48.015625 -27.1875 48.15625 -30.195312 48.15625 -32.625 C 48.15625 -35.144531 48.035156 -38.15625 47.796875 -41.65625 C 47.566406 -45.15625 46.960938 -48.628906 45.984375 -52.078125 C 45.003906 -55.535156 43.535156 -58.40625 41.578125 -60.6875 C 39.617188 -62.976562 36.863281 -64.125 33.3125 -64.125 C 29.863281 -64.125 27.160156 -62.976562 25.203125 -60.6875 C 23.242188 -58.40625 21.796875 -55.535156 20.859375 -52.078125 C 19.921875 -48.628906 19.3125 -45.128906 19.03125 -41.578125 C 18.757812 -38.035156 18.625 -35.050781 18.625 -32.625 Z M 18.625 -32.625 "/></g></g></g><g fill="#2d3e70" fill-opacity="1"><g transform="translate(845.010004, 412.613114)"><g><path d="M 1.40625 -62.859375 L 1.40625 -65.09375 L 31.5 -65.09375 L 31.5 -62.859375 C 30.65625 -62.765625 29.90625 -62.414062 29.25 -61.8125 C 28.601562 -61.207031 28.28125 -60.296875 28.28125 -59.078125 C 28.28125 -58.234375 28.441406 -57.414062 28.765625 -56.625 C 29.097656 -55.832031 29.445312 -55.15625 29.8125 -54.59375 L 40.046875 -39.765625 L 49.984375 -53.0625 C 50.816406 -54.175781 51.234375 -55.484375 51.234375 -56.984375 C 51.234375 -59.222656 50.414062 -60.738281 48.78125 -61.53125 C 47.15625 -62.320312 45.546875 -62.765625 43.953125 -62.859375 L 43.953125 -65.09375 L 68.875 -65.09375 L 68.875 -62.859375 C 66.820312 -62.671875 64.742188 -61.96875 62.640625 -60.75 C 60.546875 -59.539062 58.632812 -58.144531 56.90625 -56.5625 C 55.175781 -54.976562 53.753906 -53.4375 52.640625 -51.9375 L 41.4375 -37.65625 L 60.0625 -10.5 C 61.269531 -8.726562 62.738281 -6.976562 64.46875 -5.25 C 66.195312 -3.519531 68.320312 -2.5625 70.84375 -2.375 L 70.84375 0 L 40.734375 0 L 40.734375 -2.375 C 41.578125 -2.5625 42.320312 -2.9375 42.96875 -3.5 C 43.625 -4.0625 43.953125 -4.898438 43.953125 -6.015625 C 43.953125 -6.859375 43.8125 -7.675781 43.53125 -8.46875 C 43.257812 -9.257812 42.890625 -9.984375 42.421875 -10.640625 L 31.5 -26.59375 L 20.578125 -12.046875 C 19.734375 -10.921875 19.3125 -9.660156 19.3125 -8.265625 C 19.3125 -6.023438 20.148438 -4.503906 21.828125 -3.703125 C 23.515625 -2.910156 25.101562 -2.46875 26.59375 -2.375 L 26.59375 0 L 1.6875 0 L 1.6875 -2.375 C 3.832031 -2.5625 5.90625 -3.257812 7.90625 -4.46875 C 9.914062 -5.6875 11.804688 -7.113281 13.578125 -8.75 C 15.347656 -10.382812 16.796875 -11.898438 17.921875 -13.296875 L 30.09375 -28.703125 L 12.3125 -54.734375 C 11.101562 -56.609375 9.613281 -58.359375 7.84375 -59.984375 C 6.070312 -61.617188 3.925781 -62.578125 1.40625 -62.859375 Z M 1.40625 -62.859375 "/></g></g></g><g fill="#2d3e70" fill-opacity="1"><g transform="translate(916.406027, 412.613114)"><g><path d="M 1.546875 -57.546875 L 22.6875 -64.265625 L 22.6875 -9.9375 C 22.6875 -4.988281 24.878906 -2.46875 29.265625 -2.375 L 29.265625 0 L 1.546875 0 L 1.546875 -2.375 C 6.023438 -2.46875 8.265625 -4.988281 8.265625 -9.9375 L 8.265625 -47.3125 C 8.265625 -52.164062 6.023438 -54.734375 1.546875 -55.015625 Z M 3.5 -81.203125 C 3.5 -83.816406 4.429688 -86.054688 6.296875 -87.921875 C 8.160156 -89.785156 10.398438 -90.71875 13.015625 -90.71875 C 15.628906 -90.71875 17.894531 -89.785156 19.8125 -87.921875 C 21.726562 -86.054688 22.6875 -83.816406 22.6875 -81.203125 C 22.6875 -78.585938 21.703125 -76.300781 19.734375 -74.34375 C 17.773438 -72.382812 15.535156 -71.40625 13.015625 -71.40625 C 10.398438 -71.40625 8.160156 -72.382812 6.296875 -74.34375 C 4.429688 -76.300781 3.5 -78.585938 3.5 -81.203125 Z M 3.5 -81.203125 "/></g></g></g><g fill="#2d3e70" fill-opacity="1"><g transform="translate(946.364369, 412.613114)"><g><path d="M 1.125 -57.546875 L 22.265625 -64.265625 L 22.265625 -58.234375 L 23.796875 -59.640625 C 26.222656 -61.785156 28.929688 -63.367188 31.921875 -64.390625 C 34.910156 -65.421875 37.988281 -65.9375 41.15625 -65.9375 C 44.988281 -65.9375 48.65625 -65.304688 52.15625 -64.046875 C 55.65625 -62.785156 58.242188 -60.382812 59.921875 -56.84375 L 60.625 -55.4375 L 61.59375 -56.703125 C 63.925781 -59.867188 66.863281 -62.195312 70.40625 -63.6875 C 73.957031 -65.1875 77.648438 -65.9375 81.484375 -65.9375 C 87.546875 -65.9375 92.328125 -64.46875 95.828125 -61.53125 C 99.328125 -58.59375 101.078125 -53.945312 101.078125 -47.59375 L 101.078125 -9.9375 C 101.078125 -4.988281 103.316406 -2.46875 107.796875 -2.375 L 107.796875 0 L 80.078125 0 L 80.078125 -2.375 C 84.460938 -2.46875 86.65625 -4.988281 86.65625 -9.9375 L 86.65625 -47.3125 C 86.65625 -49.644531 86.257812 -51.976562 85.46875 -54.3125 C 84.675781 -56.644531 83.414062 -58.582031 81.6875 -60.125 C 79.957031 -61.664062 77.648438 -62.4375 74.765625 -62.4375 C 72.242188 -62.4375 70 -61.664062 68.03125 -60.125 C 66.070312 -58.582031 64.507812 -56.691406 63.34375 -54.453125 C 62.175781 -52.210938 61.59375 -49.925781 61.59375 -47.59375 L 61.59375 -9.9375 C 61.59375 -4.988281 63.832031 -2.46875 68.3125 -2.375 L 68.3125 0 L 40.59375 0 L 40.59375 -2.375 C 43.019531 -2.46875 44.722656 -3.117188 45.703125 -4.328125 C 46.691406 -5.546875 47.1875 -7.414062 47.1875 -9.9375 L 47.1875 -47.3125 C 47.1875 -51.425781 46.34375 -54.972656 44.65625 -57.953125 C 42.976562 -60.941406 39.710938 -62.4375 34.859375 -62.4375 C 32.242188 -62.4375 29.976562 -61.644531 28.0625 -60.0625 C 26.15625 -58.476562 24.710938 -56.519531 23.734375 -54.1875 C 22.753906 -51.851562 22.265625 -49.5625 22.265625 -47.3125 L 22.265625 -9.9375 C 22.265625 -4.988281 24.457031 -2.46875 28.84375 -2.375 L 28.84375 0 L 1.125 0 L 1.125 -2.375 C 5.601562 -2.46875 7.84375 -4.988281 7.84375 -9.9375 L 7.84375 -47.3125 C 7.84375 -52.164062 5.601562 -54.734375 1.125 -55.015625 Z M 1.125 -57.546875 "/></g></g></g><g fill="#2d3e70" fill-opacity="1"><g transform="translate(1055.138259, 412.613114)"><g><path d="M 1.546875 -57.546875 L 22.6875 -64.265625 L 22.6875 -9.9375 C 22.6875 -4.988281 24.878906 -2.46875 29.265625 -2.375 L 29.265625 0 L 1.546875 0 L 1.546875 -2.375 C 6.023438 -2.46875 8.265625 -4.988281 8.265625 -9.9375 L 8.265625 -47.3125 C 8.265625 -52.164062 6.023438 -54.734375 1.546875 -55.015625 Z M 3.5 -81.203125 C 3.5 -83.816406 4.429688 -86.054688 6.296875 -87.921875 C 8.160156 -89.785156 10.398438 -90.71875 13.015625 -90.71875 C 15.628906 -90.71875 17.894531 -89.785156 19.8125 -87.921875 C 21.726562 -86.054688 22.6875 -83.816406 22.6875 -81.203125 C 22.6875 -78.585938 21.703125 -76.300781 19.734375 -74.34375 C 17.773438 -72.382812 15.535156 -71.40625 13.015625 -71.40625 C 10.398438 -71.40625 8.160156 -72.382812 6.296875 -74.34375 C 4.429688 -76.300781 3.5 -78.585938 3.5 -81.203125 Z M 3.5 -81.203125 "/></g></g></g><g fill="#2d3e70" fill-opacity="1"><g transform="translate(1085.096601, 412.613114)"><g><path d="M -0.84375 -65.234375 C 2.050781 -65.703125 4.898438 -66.914062 7.703125 -68.875 C 10.503906 -70.832031 13.046875 -73.140625 15.328125 -75.796875 C 17.617188 -78.460938 19.507812 -81.148438 21 -83.859375 L 21 -65.09375 L 34.015625 -65.09375 L 34.015625 -62.859375 L 21 -62.859375 L 21 -13.015625 C 21 -11.242188 21.441406 -9.515625 22.328125 -7.828125 C 23.210938 -6.148438 24.820312 -5.3125 27.15625 -5.3125 C 28.375 -5.3125 29.519531 -5.566406 30.59375 -6.078125 C 31.664062 -6.597656 32.617188 -7.1875 33.453125 -7.84375 L 34.71875 -6.296875 C 32.757812 -3.867188 30.566406 -2 28.140625 -0.6875 C 25.710938 0.613281 22.910156 1.265625 19.734375 1.265625 C 15.441406 1.265625 12.175781 0.0976562 9.9375 -2.234375 C 7.695312 -4.566406 6.578125 -7.882812 6.578125 -12.1875 L 6.578125 -62.859375 L -0.84375 -62.859375 Z M -0.84375 -65.234375 "/></g></g></g><g fill="#2d3e70" fill-opacity="1"><g transform="translate(1121.074626, 412.613114)"><g><path d="M 11.765625 32.0625 C 8.304688 32.0625 5.242188 30.960938 2.578125 28.765625 C -0.078125 26.578125 -1.40625 23.660156 -1.40625 20.015625 C -1.40625 17.960938 -0.679688 16.28125 0.765625 14.96875 C 2.210938 13.664062 3.914062 13.015625 5.875 13.015625 C 8.019531 13.015625 9.628906 13.664062 10.703125 14.96875 C 11.773438 16.28125 12.5 18.007812 12.875 20.15625 C 12.96875 20.71875 13.082031 21.320312 13.21875 21.96875 C 13.363281 22.625 13.625 23.234375 14 23.796875 C 14.28125 24.453125 14.695312 25.015625 15.25 25.484375 C 15.8125 25.953125 16.5625 26.1875 17.5 26.1875 C 19.363281 26.1875 21.132812 25.179688 22.8125 23.171875 C 24.5 21.160156 25.945312 19.035156 27.15625 16.796875 C 28.5625 14.367188 29.800781 11.960938 30.875 9.578125 C 31.945312 7.203125 32.757812 5.457031 33.3125 4.34375 L 33.453125 3.921875 L 11.0625 -52.359375 C 10.21875 -54.316406 8.742188 -56.460938 6.640625 -58.796875 C 4.546875 -61.128906 2.238281 -62.484375 -0.28125 -62.859375 L -0.28125 -65.09375 L 28.421875 -65.09375 L 28.421875 -62.859375 C 27.484375 -62.671875 26.664062 -62.25 25.96875 -61.59375 C 25.269531 -60.945312 24.921875 -59.96875 24.921875 -58.65625 C 24.921875 -57.914062 25.0625 -57.171875 25.34375 -56.421875 C 25.4375 -56.234375 25.550781 -56 25.6875 -55.71875 C 25.832031 -55.4375 25.953125 -55.109375 26.046875 -54.734375 L 42.140625 -13.859375 L 58.796875 -50.6875 C 59.359375 -51.988281 59.640625 -53.335938 59.640625 -54.734375 C 59.640625 -56.972656 59.007812 -58.648438 57.75 -59.765625 C 56.488281 -60.890625 54.992188 -61.6875 53.265625 -62.15625 C 51.546875 -62.625 49.9375 -62.859375 48.4375 -62.859375 L 48.4375 -65.09375 L 73.21875 -65.09375 L 73.21875 -62.71875 C 71.632812 -62.4375 70.070312 -61.617188 68.53125 -60.265625 C 66.988281 -58.910156 65.65625 -57.441406 64.53125 -55.859375 C 63.414062 -54.273438 62.578125 -52.875 62.015625 -51.65625 L 37.515625 0.5625 C 36.492188 2.707031 35.46875 4.898438 34.4375 7.140625 C 33.414062 9.378906 32.390625 11.617188 31.359375 13.859375 C 30.054688 16.378906 28.515625 19.0625 26.734375 21.90625 C 24.960938 24.757812 22.835938 27.164062 20.359375 29.125 C 17.890625 31.082031 15.023438 32.0625 11.765625 32.0625 Z M 11.765625 32.0625 "/></g></g></g><g fill="#ffffff" fill-opacity="1"><g transform="translate(81.000002, 777.374981)"><g><path d="M 5.140625 -5.015625 L 2.890625 -5.015625 L 2.890625 0 L 1.34375 0 L 1.34375 -12.59375 L 5.640625 -12.59375 C 6.648438 -12.59375 7.484375 -12.40625 8.140625 -12.03125 C 8.796875 -11.664062 9.265625 -11.191406 9.546875 -10.609375 C 9.835938 -10.035156 9.984375 -9.429688 9.984375 -8.796875 C 9.984375 -7.921875 9.722656 -7.132812 9.203125 -6.4375 C 8.679688 -5.75 7.867188 -5.304688 6.765625 -5.109375 L 10.09375 0 L 8.390625 0 Z M 2.890625 -6.359375 L 5.4375 -6.359375 C 6.289062 -6.359375 7.007812 -6.539062 7.59375 -6.90625 C 8.1875 -7.28125 8.484375 -7.910156 8.484375 -8.796875 C 8.484375 -9.671875 8.1875 -10.289062 7.59375 -10.65625 C 7.007812 -11.019531 6.289062 -11.203125 5.4375 -11.203125 L 2.890625 -11.203125 Z M 2.890625 -6.359375 "/></g></g></g><g fill="#ffffff" fill-opacity="1"><g transform="translate(91.88997, 777.374981)"><g><path d="M 4.71875 0.015625 L 4.71875 -4.546875 L 0.609375 -12.59375 L 2.296875 -12.59375 L 5.4375 -6.296875 L 5.5625 -6.296875 L 8.671875 -12.59375 L 10.375 -12.59375 L 6.28125 -4.546875 L 6.28125 0 Z M 4.71875 0.015625 "/></g></g></g><g fill="#ffffff" fill-opacity="1"><g transform="translate(102.941941, 777.374981)"><g><path d="M 8.6875 -3.671875 L 3.5625 -3.671875 L 2.234375 0 L 0.640625 0 L 5.375 -12.59375 L 6.859375 -12.59375 L 11.625 0 L 10.046875 0 Z M 8.25 -4.90625 L 6.140625 -10.625 L 6.0625 -10.625 L 4.015625 -4.90625 Z M 8.25 -4.90625 "/></g></g></g><g fill="#ffffff" fill-opacity="1"><g transform="translate(115.1819, 777.374981)"><g><path d="M 1.34375 -12.59375 L 3.09375 -12.59375 L 9.84375 -2.484375 L 9.921875 -2.484375 L 9.921875 -12.59375 L 11.453125 -12.59375 L 11.453125 0 L 9.6875 0 L 2.953125 -9.96875 L 2.875 -9.96875 L 2.875 0 L 1.34375 0 Z M 1.34375 -12.59375 "/></g></g></g><g fill="#ffffff" fill-opacity="1"><g transform="translate(127.979862, 777.374981)"><g/></g></g><g fill="#ffffff" fill-opacity="1"><g transform="translate(132.119854, 777.374981)"><g><path d="M 1.40625 -12.59375 L 2.96875 -12.59375 L 2.96875 0 L 1.40625 0 Z M 1.40625 -12.59375 "/></g></g></g><g fill="#ffffff" fill-opacity="1"><g transform="translate(136.493843, 777.374981)"><g><path d="M 1.34375 -12.59375 L 6.390625 -12.59375 C 7.234375 -12.59375 7.921875 -12.429688 8.453125 -12.109375 C 8.984375 -11.785156 9.363281 -11.378906 9.59375 -10.890625 C 9.820312 -10.410156 9.9375 -9.910156 9.9375 -9.390625 C 9.9375 -8.859375 9.820312 -8.390625 9.59375 -7.984375 C 9.363281 -7.585938 9.085938 -7.28125 8.765625 -7.0625 C 8.441406 -6.851562 8.132812 -6.71875 7.84375 -6.65625 L 7.84375 -6.546875 C 8.15625 -6.523438 8.519531 -6.414062 8.9375 -6.21875 C 9.351562 -6.019531 9.71875 -5.703125 10.03125 -5.265625 C 10.351562 -4.828125 10.515625 -4.269531 10.515625 -3.59375 C 10.515625 -3 10.378906 -2.425781 10.109375 -1.875 C 9.835938 -1.332031 9.410156 -0.882812 8.828125 -0.53125 C 8.253906 -0.175781 7.535156 0 6.671875 0 L 1.34375 0 Z M 5.9375 -7.078125 C 6.625 -7.078125 7.210938 -7.253906 7.703125 -7.609375 C 8.191406 -7.960938 8.4375 -8.507812 8.4375 -9.25 C 8.4375 -9.957031 8.195312 -10.472656 7.71875 -10.796875 C 7.25 -11.117188 6.65625 -11.28125 5.9375 -11.28125 L 2.859375 -11.28125 L 2.859375 -7.078125 Z M 6.28125 -1.3125 C 7.0625 -1.3125 7.707031 -1.488281 8.21875 -1.84375 C 8.738281 -2.207031 9 -2.800781 9 -3.625 C 9 -4.425781 8.738281 -4.992188 8.21875 -5.328125 C 7.707031 -5.671875 7.0625 -5.84375 6.28125 -5.84375 L 2.859375 -5.84375 L 2.859375 -1.3125 Z M 6.28125 -1.3125 "/></g></g></g><g fill="#ffffff" fill-opacity="1"><g transform="translate(147.725806, 777.374981)"><g><path d="M 5.140625 -5.015625 L 2.890625 -5.015625 L 2.890625 0 L 1.34375 0 L 1.34375 -12.59375 L 5.640625 -12.59375 C 6.648438 -12.59375 7.484375 -12.40625 8.140625 -12.03125 C 8.796875 -11.664062 9.265625 -11.191406 9.546875 -10.609375 C 9.835938 -10.035156 9.984375 -9.429688 9.984375 -8.796875 C 9.984375 -7.921875 9.722656 -7.132812 9.203125 -6.4375 C 8.679688 -5.75 7.867188 -5.304688 6.765625 -5.109375 L 10.09375 0 L 8.390625 0 Z M 2.890625 -6.359375 L 5.4375 -6.359375 C 6.289062 -6.359375 7.007812 -6.539062 7.59375 -6.90625 C 8.1875 -7.28125 8.484375 -7.910156 8.484375 -8.796875 C 8.484375 -9.671875 8.1875 -10.289062 7.59375 -10.65625 C 7.007812 -11.019531 6.289062 -11.203125 5.4375 -11.203125 L 2.890625 -11.203125 Z M 2.890625 -6.359375 "/></g></g></g><g fill="#ffffff" fill-opacity="1"><g transform="translate(158.615775, 777.374981)"><g><path d="M 8.6875 -3.671875 L 3.5625 -3.671875 L 2.234375 0 L 0.640625 0 L 5.375 -12.59375 L 6.859375 -12.59375 L 11.625 0 L 10.046875 0 Z M 8.25 -4.90625 L 6.140625 -10.625 L 6.0625 -10.625 L 4.015625 -4.90625 Z M 8.25 -4.90625 "/></g></g></g><g fill="#ffffff" fill-opacity="1"><g transform="translate(170.855734, 777.374981)"><g><path d="M 10.875 -12.59375 L 10.875 0 L 9.3125 0 L 9.3125 -5.703125 L 2.890625 -5.703125 L 2.890625 0 L 1.34375 0 L 1.34375 -12.59375 L 2.890625 -12.59375 L 2.890625 -6.96875 L 9.3125 -6.96875 L 9.3125 -12.59375 Z M 10.875 -12.59375 "/></g></g></g><g fill="#ffffff" fill-opacity="1"><g transform="translate(183.077703, 777.374981)"><g><path d="M 1.40625 -12.59375 L 2.96875 -12.59375 L 2.96875 0 L 1.40625 0 Z M 1.40625 -12.59375 "/></g></g></g><g fill="#ffffff" fill-opacity="1"><g transform="translate(187.451692, 777.374981)"><g><path d="M 1.34375 -12.59375 L 3.640625 -12.59375 L 7.375 -2.953125 L 7.4375 -2.953125 L 11.171875 -12.59375 L 13.46875 -12.59375 L 13.46875 0 L 11.9375 0 L 11.9375 -10.203125 L 11.859375 -10.203125 L 7.953125 0 L 6.84375 0 L 2.953125 -10.203125 L 2.875 -10.203125 L 2.875 0 L 1.34375 0 Z M 1.34375 -12.59375 "/></g></g></g></svg>