<svg xmlns="http://www.w3.org/2000/svg" xmlns:xlink="http://www.w3.org/1999/xlink" width="1920" zoomAndPan="magnify" viewBox="0 0 1440 809.999993" height="1080" preserveAspectRatio="xMidYMid meet" version="1.0"><defs><g/></defs><rect x="-144" width="1728" fill="#ffffff" y="-80.999999" height="971.999992" fill-opacity="1"/><rect x="-144" width="1728" fill="#faf4eb" y="-80.999999" height="971.999992" fill-opacity="1"/><path fill="#2d3e70" d="M 0 729 L 1439.964844 729 L 1439.964844 810 L 0 810 Z M 0 729 " fill-opacity="1" fill-rule="nonzero"/><g fill="#2d3e70" fill-opacity="1"><g transform="translate(400.535146, 407.762783)"><g><path d="M 1.125 -2.375 C 3.269531 -2.46875 5.15625 -3.070312 6.78125 -4.1875 C 8.414062 -5.3125 9.234375 -7.226562 9.234375 -9.9375 L 9.234375 -80.78125 C 9.234375 -83.488281 8.414062 -85.425781 6.78125 -86.59375 C 5.15625 -87.757812 3.269531 -88.390625 1.125 -88.484375 L 1.125 -90.71875 C 6.53125 -90.71875 11.894531 -90.738281 17.21875 -90.78125 C 22.539062 -90.832031 27.90625 -90.859375 33.3125 -90.859375 C 36.300781 -90.859375 39.566406 -90.765625 43.109375 -90.578125 C 46.660156 -90.390625 49.789062 -89.878906 52.5 -89.046875 C 58.007812 -87.453125 62.1875 -84.296875 65.03125 -79.578125 C 67.875 -74.867188 69.296875 -69.671875 69.296875 -63.984375 C 69.296875 -58.285156 67.875 -53.078125 65.03125 -48.359375 C 62.1875 -43.648438 58.007812 -40.457031 52.5 -38.78125 C 50.632812 -38.21875 48.507812 -37.816406 46.125 -37.578125 C 43.75 -37.347656 41.300781 -37.1875 38.78125 -37.09375 C 36.257812 -37 33.785156 -36.972656 31.359375 -37.015625 C 28.929688 -37.066406 26.691406 -37.09375 24.640625 -37.09375 L 23.65625 -37.234375 L 23.65625 -9.9375 C 23.65625 -7.226562 24.445312 -5.3125 26.03125 -4.1875 C 27.625 -3.070312 29.492188 -2.46875 31.640625 -2.375 L 31.640625 0 L 1.125 0 Z M 23.65625 -39.765625 L 24.640625 -39.765625 C 25.941406 -39.765625 27.382812 -39.765625 28.96875 -39.765625 C 30.5625 -39.765625 32.242188 -39.8125 34.015625 -39.90625 C 35.703125 -40 37.359375 -40.179688 38.984375 -40.453125 C 40.617188 -40.734375 42.046875 -41.15625 43.265625 -41.71875 C 45.960938 -42.9375 48.101562 -44.800781 49.6875 -47.3125 C 51.28125 -49.832031 52.40625 -52.585938 53.0625 -55.578125 C 53.71875 -58.566406 54.046875 -61.320312 54.046875 -63.84375 C 54.046875 -66.457031 53.71875 -69.253906 53.0625 -72.234375 C 52.40625 -75.222656 51.28125 -78 49.6875 -80.5625 C 48.101562 -83.132812 45.914062 -85.023438 43.125 -86.234375 C 41.90625 -86.796875 40.476562 -87.191406 38.84375 -87.421875 C 37.21875 -87.660156 35.5625 -87.828125 33.875 -87.921875 C 32.195312 -88.109375 30.5625 -88.203125 28.96875 -88.203125 C 27.382812 -88.203125 25.941406 -88.203125 24.640625 -88.203125 L 23.65625 -88.203125 Z M 23.65625 -39.765625 "/></g></g></g><g fill="#2d3e70" fill-opacity="1"><g transform="translate(470.951212, 407.762783)"><g><path d="M 7.5625 -55.15625 C 7.5625 -60.007812 5.320312 -62.578125 0.84375 -62.859375 L 0.84375 -65.09375 L 21.984375 -65.09375 L 21.984375 -18.765625 C 21.984375 -14.835938 22.867188 -11.613281 24.640625 -9.09375 C 26.410156 -6.570312 29.441406 -5.3125 33.734375 -5.3125 C 37.472656 -5.3125 40.53125 -6.664062 42.90625 -9.375 C 45.289062 -12.082031 46.484375 -15.210938 46.484375 -18.765625 L 46.484375 -55.15625 C 46.484375 -57.675781 45.992188 -59.566406 45.015625 -60.828125 C 44.035156 -62.085938 42.332031 -62.765625 39.90625 -62.859375 L 39.90625 -65.09375 L 60.90625 -65.09375 L 60.90625 -18.765625 C 60.90625 -16.523438 61.367188 -14.492188 62.296875 -12.671875 C 63.234375 -10.847656 65.007812 -9.84375 67.625 -9.65625 L 67.625 -7 L 46.484375 -0.421875 L 46.484375 -9.9375 L 44.796875 -7.84375 C 42.648438 -5.132812 39.941406 -3.148438 36.671875 -1.890625 C 33.410156 -0.628906 30.050781 0 26.59375 0 C 20.53125 0 15.84375 -1.515625 12.53125 -4.546875 C 9.21875 -7.578125 7.5625 -12.222656 7.5625 -18.484375 Z M 7.5625 -55.15625 "/></g></g></g><g fill="#2d3e70" fill-opacity="1"><g transform="translate(538.707419, 407.762783)"><g><path d="M 2.9375 -7 C 2.84375 -7.1875 2.769531 -7.328125 2.71875 -7.421875 C 2.675781 -7.515625 2.609375 -7.609375 2.515625 -7.703125 L 4.625 -21 L 6.015625 -21 C 6.203125 -18.476562 7.019531 -16.003906 8.46875 -13.578125 C 9.914062 -11.148438 11.757812 -8.976562 14 -7.0625 C 16.238281 -5.15625 18.640625 -3.617188 21.203125 -2.453125 C 23.773438 -1.285156 26.226562 -0.703125 28.5625 -0.703125 C 30.050781 -0.703125 31.679688 -0.976562 33.453125 -1.53125 C 35.234375 -2.09375 36.773438 -3.023438 38.078125 -4.328125 C 39.390625 -5.640625 40.046875 -7.320312 40.046875 -9.375 C 40.046875 -11.519531 39.390625 -13.382812 38.078125 -14.96875 C 36.773438 -16.5625 35.1875 -17.988281 33.3125 -19.25 C 31.445312 -20.507812 29.675781 -21.609375 28 -22.546875 C 26.96875 -23.191406 25.890625 -23.816406 24.765625 -24.421875 C 23.648438 -25.035156 22.535156 -25.664062 21.421875 -26.3125 C 18.429688 -28.09375 15.582031 -29.960938 12.875 -31.921875 C 10.164062 -33.878906 7.972656 -36.140625 6.296875 -38.703125 C 4.617188 -41.273438 3.78125 -44.238281 3.78125 -47.59375 C 3.78125 -52.070312 4.96875 -55.640625 7.34375 -58.296875 C 9.726562 -60.960938 12.8125 -62.898438 16.59375 -64.109375 C 20.375 -65.328125 24.269531 -65.9375 28.28125 -65.9375 C 32.007812 -65.9375 35.644531 -65.304688 39.1875 -64.046875 C 42.738281 -62.785156 45.820312 -60.847656 48.4375 -58.234375 C 48.4375 -58.234375 48.738281 -57.90625 49.34375 -57.25 C 49.957031 -56.601562 50.3125 -56.1875 50.40625 -56 L 50.40625 -45.640625 L 48.4375 -45.640625 C 47.320312 -48.160156 45.6875 -50.84375 43.53125 -53.6875 C 41.382812 -56.53125 38.890625 -58.929688 36.046875 -60.890625 C 33.203125 -62.859375 30.238281 -63.84375 27.15625 -63.84375 C 24.539062 -63.84375 22.347656 -63.023438 20.578125 -61.390625 C 18.804688 -59.753906 17.921875 -57.582031 17.921875 -54.875 C 17.921875 -51.238281 19.15625 -48.207031 21.625 -45.78125 C 24.101562 -43.351562 26.742188 -41.300781 29.546875 -39.625 C 30.566406 -38.96875 31.632812 -38.359375 32.75 -37.796875 C 33.875 -37.234375 35 -36.628906 36.125 -35.984375 C 39.101562 -34.390625 41.898438 -32.707031 44.515625 -30.9375 C 47.128906 -29.164062 49.226562 -27.160156 50.8125 -24.921875 C 52.40625 -22.679688 53.203125 -19.972656 53.203125 -16.796875 C 53.203125 -14.179688 52.453125 -11.660156 50.953125 -9.234375 C 48.617188 -5.222656 45.210938 -2.445312 40.734375 -0.90625 C 36.253906 0.632812 31.726562 1.40625 27.15625 1.40625 C 22.863281 1.40625 18.523438 0.773438 14.140625 -0.484375 C 9.753906 -1.742188 6.019531 -3.914062 2.9375 -7 Z M 2.9375 -7 "/></g></g></g><g fill="#2d3e70" fill-opacity="1"><g transform="translate(593.304363, 407.762783)"><g><path d="M 0.703125 -91 L 21.84375 -97.578125 L 21.84375 -57.6875 L 23.515625 -59.21875 C 25.847656 -61.550781 28.554688 -63.253906 31.640625 -64.328125 C 34.722656 -65.398438 37.847656 -65.9375 41.015625 -65.9375 C 47.179688 -65.9375 52.363281 -64.535156 56.5625 -61.734375 C 60.757812 -58.941406 62.859375 -54.226562 62.859375 -47.59375 L 62.859375 -9.9375 C 62.859375 -4.988281 65.050781 -2.46875 69.4375 -2.375 L 69.4375 0 L 41.71875 0 L 41.71875 -2.375 C 46.195312 -2.46875 48.4375 -4.988281 48.4375 -9.9375 L 48.4375 -47.59375 C 48.4375 -51.894531 47.457031 -55.488281 45.5 -58.375 C 43.539062 -61.269531 40.132812 -62.71875 35.28125 -62.71875 C 32.570312 -62.71875 30.191406 -61.96875 28.140625 -60.46875 C 26.085938 -58.976562 24.523438 -57.085938 23.453125 -54.796875 C 22.378906 -52.515625 21.84375 -50.113281 21.84375 -47.59375 L 21.84375 -9.9375 C 21.84375 -4.988281 24.035156 -2.46875 28.421875 -2.375 L 28.421875 0 L 0.703125 0 L 0.703125 -2.375 C 5.179688 -2.46875 7.421875 -4.988281 7.421875 -9.9375 L 7.421875 -80.78125 C 7.421875 -85.632812 5.179688 -88.203125 0.703125 -88.484375 Z M 0.703125 -91 "/></g></g></g><g fill="#2d3e70" fill-opacity="1"><g transform="translate(662.460502, 407.762783)"><g/></g></g><g fill="#2d3e70" fill-opacity="1"><g transform="translate(689.618979, 407.762783)"><g><path d="M 1.125 -90.71875 L 24.640625 -90.71875 C 26.316406 -90.71875 27.972656 -90.738281 29.609375 -90.78125 C 31.242188 -90.832031 32.898438 -90.859375 34.578125 -90.859375 C 37.191406 -90.859375 39.78125 -90.785156 42.34375 -90.640625 C 44.914062 -90.503906 47.414062 -90.15625 49.84375 -89.59375 C 54.695312 -88.382812 58.566406 -86.097656 61.453125 -82.734375 C 64.347656 -79.378906 65.796875 -75.179688 65.796875 -70.140625 C 65.796875 -65.660156 64.554688 -61.691406 62.078125 -58.234375 C 59.609375 -54.785156 56.226562 -52.40625 51.9375 -51.09375 L 47.59375 -49.84375 L 52.078125 -49.140625 C 58.234375 -48.203125 63.203125 -45.515625 66.984375 -41.078125 C 70.765625 -36.648438 72.65625 -31.265625 72.65625 -24.921875 C 72.65625 -18.484375 70.765625 -13.046875 66.984375 -8.609375 C 63.203125 -4.171875 58.1875 -1.441406 51.9375 -0.421875 C 49.882812 -0.046875 47.878906 0.1875 45.921875 0.28125 C 43.960938 0.375 41.957031 0.421875 39.90625 0.421875 C 37.382812 0.421875 34.835938 0.347656 32.265625 0.203125 C 29.703125 0.0664062 27.160156 0 24.640625 0 L 1.125 0 L 1.125 -2.375 C 3.269531 -2.46875 5.15625 -3.070312 6.78125 -4.1875 C 8.414062 -5.3125 9.234375 -7.226562 9.234375 -9.9375 L 9.234375 -80.78125 C 9.234375 -83.488281 8.414062 -85.425781 6.78125 -86.59375 C 5.15625 -87.757812 3.269531 -88.390625 1.125 -88.484375 Z M 23.65625 -47.59375 L 23.65625 -2.234375 L 24.640625 -2.234375 C 25.941406 -2.328125 27.269531 -2.347656 28.625 -2.296875 C 29.976562 -2.253906 31.359375 -2.234375 32.765625 -2.234375 C 40.222656 -2.234375 46.097656 -4.097656 50.390625 -7.828125 C 54.691406 -11.566406 56.84375 -17.40625 56.84375 -25.34375 C 56.84375 -29.820312 55.742188 -34.066406 53.546875 -38.078125 C 51.359375 -42.085938 47.929688 -44.84375 43.265625 -46.34375 C 41.484375 -46.988281 39.632812 -47.378906 37.71875 -47.515625 C 35.8125 -47.660156 33.925781 -47.734375 32.0625 -47.734375 C 30.84375 -47.734375 29.601562 -47.707031 28.34375 -47.65625 C 27.082031 -47.613281 25.847656 -47.59375 24.640625 -47.59375 Z M 23.65625 -88.625 L 23.65625 -49.984375 L 24.640625 -49.984375 C 25.296875 -49.984375 25.945312 -49.984375 26.59375 -49.984375 C 27.25 -49.984375 27.90625 -49.984375 28.5625 -49.984375 C 30.425781 -49.984375 32.5 -50.03125 34.78125 -50.125 C 37.070312 -50.21875 39.148438 -50.585938 41.015625 -51.234375 C 43.535156 -51.984375 45.519531 -53.289062 46.96875 -55.15625 C 48.414062 -57.019531 49.460938 -59.117188 50.109375 -61.453125 C 50.765625 -63.785156 51.09375 -66.070312 51.09375 -68.3125 C 51.09375 -70.644531 50.765625 -73.046875 50.109375 -75.515625 C 49.460938 -77.992188 48.414062 -80.257812 46.96875 -82.3125 C 45.519531 -84.375 43.582031 -85.914062 41.15625 -86.9375 C 39.289062 -87.78125 37.164062 -88.269531 34.78125 -88.40625 C 32.40625 -88.550781 30.285156 -88.625 28.421875 -88.625 Z M 23.65625 -88.625 "/></g></g></g><g fill="#2d3e70" fill-opacity="1"><g transform="translate(764.374804, 407.762783)"><g><path d="M 7.5625 -55.15625 C 7.5625 -60.007812 5.320312 -62.578125 0.84375 -62.859375 L 0.84375 -65.09375 L 21.984375 -65.09375 L 21.984375 -18.765625 C 21.984375 -14.835938 22.867188 -11.613281 24.640625 -9.09375 C 26.410156 -6.570312 29.441406 -5.3125 33.734375 -5.3125 C 37.472656 -5.3125 40.53125 -6.664062 42.90625 -9.375 C 45.289062 -12.082031 46.484375 -15.210938 46.484375 -18.765625 L 46.484375 -55.15625 C 46.484375 -57.675781 45.992188 -59.566406 45.015625 -60.828125 C 44.035156 -62.085938 42.332031 -62.765625 39.90625 -62.859375 L 39.90625 -65.09375 L 60.90625 -65.09375 L 60.90625 -18.765625 C 60.90625 -16.523438 61.367188 -14.492188 62.296875 -12.671875 C 63.234375 -10.847656 65.007812 -9.84375 67.625 -9.65625 L 67.625 -7 L 46.484375 -0.421875 L 46.484375 -9.9375 L 44.796875 -7.84375 C 42.648438 -5.132812 39.941406 -3.148438 36.671875 -1.890625 C 33.410156 -0.628906 30.050781 0 26.59375 0 C 20.53125 0 15.84375 -1.515625 12.53125 -4.546875 C 9.21875 -7.578125 7.5625 -12.222656 7.5625 -18.484375 Z M 7.5625 -55.15625 "/></g></g></g><g fill="#2d3e70" fill-opacity="1"><g transform="translate(832.131011, 407.762783)"><g><path d="M -0.84375 -65.234375 C 2.050781 -65.703125 4.898438 -66.914062 7.703125 -68.875 C 10.503906 -70.832031 13.046875 -73.140625 15.328125 -75.796875 C 17.617188 -78.460938 19.507812 -81.148438 21 -83.859375 L 21 -65.09375 L 34.015625 -65.09375 L 34.015625 -62.859375 L 21 -62.859375 L 21 -13.015625 C 21 -11.242188 21.441406 -9.515625 22.328125 -7.828125 C 23.210938 -6.148438 24.820312 -5.3125 27.15625 -5.3125 C 28.375 -5.3125 29.519531 -5.566406 30.59375 -6.078125 C 31.664062 -6.597656 32.617188 -7.1875 33.453125 -7.84375 L 34.71875 -6.296875 C 32.757812 -3.867188 30.566406 -2 28.140625 -0.6875 C 25.710938 0.613281 22.910156 1.265625 19.734375 1.265625 C 15.441406 1.265625 12.175781 0.0976562 9.9375 -2.234375 C 7.695312 -4.566406 6.578125 -7.882812 6.578125 -12.1875 L 6.578125 -62.859375 L -0.84375 -62.859375 Z M -0.84375 -65.234375 "/></g></g></g><g fill="#2d3e70" fill-opacity="1"><g transform="translate(868.108991, 407.762783)"><g><path d="M -0.84375 -65.234375 C 2.050781 -65.703125 4.898438 -66.914062 7.703125 -68.875 C 10.503906 -70.832031 13.046875 -73.140625 15.328125 -75.796875 C 17.617188 -78.460938 19.507812 -81.148438 21 -83.859375 L 21 -65.09375 L 34.015625 -65.09375 L 34.015625 -62.859375 L 21 -62.859375 L 21 -13.015625 C 21 -11.242188 21.441406 -9.515625 22.328125 -7.828125 C 23.210938 -6.148438 24.820312 -5.3125 27.15625 -5.3125 C 28.375 -5.3125 29.519531 -5.566406 30.59375 -6.078125 C 31.664062 -6.597656 32.617188 -7.1875 33.453125 -7.84375 L 34.71875 -6.296875 C 32.757812 -3.867188 30.566406 -2 28.140625 -0.6875 C 25.710938 0.613281 22.910156 1.265625 19.734375 1.265625 C 15.441406 1.265625 12.175781 0.0976562 9.9375 -2.234375 C 7.695312 -4.566406 6.578125 -7.882812 6.578125 -12.1875 L 6.578125 -62.859375 L -0.84375 -62.859375 Z M -0.84375 -65.234375 "/></g></g></g><g fill="#2d3e70" fill-opacity="1"><g transform="translate(904.08697, 407.762783)"><g><path d="M 33.3125 1.40625 C 26.59375 1.40625 21.015625 -0.0625 16.578125 -3 C 12.148438 -5.945312 8.835938 -9.984375 6.640625 -15.109375 C 4.453125 -20.242188 3.359375 -26.082031 3.359375 -32.625 C 3.359375 -39.15625 4.453125 -44.914062 6.640625 -49.90625 C 8.835938 -54.90625 12.148438 -58.828125 16.578125 -61.671875 C 21.015625 -64.515625 26.59375 -65.9375 33.3125 -65.9375 C 43.488281 -65.9375 51.050781 -62.851562 56 -56.6875 C 60.945312 -50.53125 63.421875 -42.507812 63.421875 -32.625 C 63.421875 -26.082031 62.320312 -20.242188 60.125 -15.109375 C 57.9375 -9.984375 54.625 -5.945312 50.1875 -3 C 45.757812 -0.0625 40.132812 1.40625 33.3125 1.40625 Z M 18.625 -32.625 C 18.625 -30.195312 18.757812 -27.1875 19.03125 -23.59375 C 19.3125 -20 19.921875 -16.425781 20.859375 -12.875 C 21.796875 -9.332031 23.265625 -6.367188 25.265625 -3.984375 C 27.273438 -1.609375 29.957031 -0.421875 33.3125 -0.421875 C 36.769531 -0.421875 39.476562 -1.609375 41.4375 -3.984375 C 43.394531 -6.367188 44.863281 -9.332031 45.84375 -12.875 C 46.820312 -16.425781 47.453125 -20 47.734375 -23.59375 C 48.015625 -27.1875 48.15625 -30.195312 48.15625 -32.625 C 48.15625 -35.144531 48.035156 -38.15625 47.796875 -41.65625 C 47.566406 -45.15625 46.960938 -48.628906 45.984375 -52.078125 C 45.003906 -55.535156 43.535156 -58.40625 41.578125 -60.6875 C 39.617188 -62.976562 36.863281 -64.125 33.3125 -64.125 C 29.863281 -64.125 27.160156 -62.976562 25.203125 -60.6875 C 23.242188 -58.40625 21.796875 -55.535156 20.859375 -52.078125 C 19.921875 -48.628906 19.3125 -45.128906 19.03125 -41.578125 C 18.757812 -38.035156 18.625 -35.050781 18.625 -32.625 Z M 18.625 -32.625 "/></g></g></g><g fill="#2d3e70" fill-opacity="1"><g transform="translate(970.023292, 407.762783)"><g><path d="M 1.125 -57.546875 L 22.265625 -64.265625 L 22.265625 -55.71875 L 23.9375 -58.234375 C 26.082031 -61.222656 28.785156 -63.253906 32.046875 -64.328125 C 35.316406 -65.398438 38.679688 -65.9375 42.140625 -65.9375 C 48.203125 -65.9375 53.144531 -64.46875 56.96875 -61.53125 C 60.800781 -58.59375 62.71875 -53.945312 62.71875 -47.59375 L 62.71875 -9.9375 C 62.71875 -7.414062 63.226562 -5.546875 64.25 -4.328125 C 65.28125 -3.117188 66.960938 -2.46875 69.296875 -2.375 L 69.296875 0 L 41.578125 0 L 41.578125 -2.375 C 46.054688 -2.46875 48.296875 -4.988281 48.296875 -9.9375 L 48.296875 -47.3125 C 48.296875 -49.738281 47.851562 -52.09375 46.96875 -54.375 C 46.082031 -56.664062 44.75 -58.582031 42.96875 -60.125 C 41.195312 -61.664062 38.867188 -62.4375 35.984375 -62.4375 C 33.554688 -62.4375 31.289062 -61.644531 29.1875 -60.0625 C 27.09375 -58.476562 25.414062 -56.519531 24.15625 -54.1875 C 22.894531 -51.851562 22.265625 -49.5625 22.265625 -47.3125 L 22.265625 -9.9375 C 22.265625 -4.988281 24.457031 -2.46875 28.84375 -2.375 L 28.84375 0 L 1.125 0 L 1.125 -2.375 C 5.601562 -2.46875 7.84375 -4.988281 7.84375 -9.9375 L 7.84375 -47.3125 C 7.84375 -52.164062 5.601562 -54.734375 1.125 -55.015625 Z M 1.125 -57.546875 "/></g></g></g><g fill="#ffffff" fill-opacity="1"><g transform="translate(81.000002, 777.374981)"><g><path d="M 5.140625 -5.015625 L 2.890625 -5.015625 L 2.890625 0 L 1.34375 0 L 1.34375 -12.59375 L 5.640625 -12.59375 C 6.648438 -12.59375 7.484375 -12.40625 8.140625 -12.03125 C 8.796875 -11.664062 9.265625 -11.191406 9.546875 -10.609375 C 9.835938 -10.035156 9.984375 -9.429688 9.984375 -8.796875 C 9.984375 -7.921875 9.722656 -7.132812 9.203125 -6.4375 C 8.679688 -5.75 7.867188 -5.304688 6.765625 -5.109375 L 10.09375 0 L 8.390625 0 Z M 2.890625 -6.359375 L 5.4375 -6.359375 C 6.289062 -6.359375 7.007812 -6.539062 7.59375 -6.90625 C 8.1875 -7.28125 8.484375 -7.910156 8.484375 -8.796875 C 8.484375 -9.671875 8.1875 -10.289062 7.59375 -10.65625 C 7.007812 -11.019531 6.289062 -11.203125 5.4375 -11.203125 L 2.890625 -11.203125 Z M 2.890625 -6.359375 "/></g></g></g><g fill="#ffffff" fill-opacity="1"><g transform="translate(91.88997, 777.374981)"><g><path d="M 4.71875 0.015625 L 4.71875 -4.546875 L 0.609375 -12.59375 L 2.296875 -12.59375 L 5.4375 -6.296875 L 5.5625 -6.296875 L 8.671875 -12.59375 L 10.375 -12.59375 L 6.28125 -4.546875 L 6.28125 0 Z M 4.71875 0.015625 "/></g></g></g><g fill="#ffffff" fill-opacity="1"><g transform="translate(102.941941, 777.374981)"><g><path d="M 8.6875 -3.671875 L 3.5625 -3.671875 L 2.234375 0 L 0.640625 0 L 5.375 -12.59375 L 6.859375 -12.59375 L 11.625 0 L 10.046875 0 Z M 8.25 -4.90625 L 6.140625 -10.625 L 6.0625 -10.625 L 4.015625 -4.90625 Z M 8.25 -4.90625 "/></g></g></g><g fill="#ffffff" fill-opacity="1"><g transform="translate(115.1819, 777.374981)"><g><path d="M 1.34375 -12.59375 L 3.09375 -12.59375 L 9.84375 -2.484375 L 9.921875 -2.484375 L 9.921875 -12.59375 L 11.453125 -12.59375 L 11.453125 0 L 9.6875 0 L 2.953125 -9.96875 L 2.875 -9.96875 L 2.875 0 L 1.34375 0 Z M 1.34375 -12.59375 "/></g></g></g><g fill="#ffffff" fill-opacity="1"><g transform="translate(127.979862, 777.374981)"><g/></g></g><g fill="#ffffff" fill-opacity="1"><g transform="translate(132.119854, 777.374981)"><g><path d="M 1.40625 -12.59375 L 2.96875 -12.59375 L 2.96875 0 L 1.40625 0 Z M 1.40625 -12.59375 "/></g></g></g><g fill="#ffffff" fill-opacity="1"><g transform="translate(136.493843, 777.374981)"><g><path d="M 1.34375 -12.59375 L 6.390625 -12.59375 C 7.234375 -12.59375 7.921875 -12.429688 8.453125 -12.109375 C 8.984375 -11.785156 9.363281 -11.378906 9.59375 -10.890625 C 9.820312 -10.410156 9.9375 -9.910156 9.9375 -9.390625 C 9.9375 -8.859375 9.820312 -8.390625 9.59375 -7.984375 C 9.363281 -7.585938 9.085938 -7.28125 8.765625 -7.0625 C 8.441406 -6.851562 8.132812 -6.71875 7.84375 -6.65625 L 7.84375 -6.546875 C 8.15625 -6.523438 8.519531 -6.414062 8.9375 -6.21875 C 9.351562 -6.019531 9.71875 -5.703125 10.03125 -5.265625 C 10.351562 -4.828125 10.515625 -4.269531 10.515625 -3.59375 C 10.515625 -3 10.378906 -2.425781 10.109375 -1.875 C 9.835938 -1.332031 9.410156 -0.882812 8.828125 -0.53125 C 8.253906 -0.175781 7.535156 0 6.671875 0 L 1.34375 0 Z M 5.9375 -7.078125 C 6.625 -7.078125 7.210938 -7.253906 7.703125 -7.609375 C 8.191406 -7.960938 8.4375 -8.507812 8.4375 -9.25 C 8.4375 -9.957031 8.195312 -10.472656 7.71875 -10.796875 C 7.25 -11.117188 6.65625 -11.28125 5.9375 -11.28125 L 2.859375 -11.28125 L 2.859375 -7.078125 Z M 6.28125 -1.3125 C 7.0625 -1.3125 7.707031 -1.488281 8.21875 -1.84375 C 8.738281 -2.207031 9 -2.800781 9 -3.625 C 9 -4.425781 8.738281 -4.992188 8.21875 -5.328125 C 7.707031 -5.671875 7.0625 -5.84375 6.28125 -5.84375 L 2.859375 -5.84375 L 2.859375 -1.3125 Z M 6.28125 -1.3125 "/></g></g></g><g fill="#ffffff" fill-opacity="1"><g transform="translate(147.725806, 777.374981)"><g><path d="M 5.140625 -5.015625 L 2.890625 -5.015625 L 2.890625 0 L 1.34375 0 L 1.34375 -12.59375 L 5.640625 -12.59375 C 6.648438 -12.59375 7.484375 -12.40625 8.140625 -12.03125 C 8.796875 -11.664062 9.265625 -11.191406 9.546875 -10.609375 C 9.835938 -10.035156 9.984375 -9.429688 9.984375 -8.796875 C 9.984375 -7.921875 9.722656 -7.132812 9.203125 -6.4375 C 8.679688 -5.75 7.867188 -5.304688 6.765625 -5.109375 L 10.09375 0 L 8.390625 0 Z M 2.890625 -6.359375 L 5.4375 -6.359375 C 6.289062 -6.359375 7.007812 -6.539062 7.59375 -6.90625 C 8.1875 -7.28125 8.484375 -7.910156 8.484375 -8.796875 C 8.484375 -9.671875 8.1875 -10.289062 7.59375 -10.65625 C 7.007812 -11.019531 6.289062 -11.203125 5.4375 -11.203125 L 2.890625 -11.203125 Z M 2.890625 -6.359375 "/></g></g></g><g fill="#ffffff" fill-opacity="1"><g transform="translate(158.615775, 777.374981)"><g><path d="M 8.6875 -3.671875 L 3.5625 -3.671875 L 2.234375 0 L 0.640625 0 L 5.375 -12.59375 L 6.859375 -12.59375 L 11.625 0 L 10.046875 0 Z M 8.25 -4.90625 L 6.140625 -10.625 L 6.0625 -10.625 L 4.015625 -4.90625 Z M 8.25 -4.90625 "/></g></g></g><g fill="#ffffff" fill-opacity="1"><g transform="translate(170.855734, 777.374981)"><g><path d="M 10.875 -12.59375 L 10.875 0 L 9.3125 0 L 9.3125 -5.703125 L 2.890625 -5.703125 L 2.890625 0 L 1.34375 0 L 1.34375 -12.59375 L 2.890625 -12.59375 L 2.890625 -6.96875 L 9.3125 -6.96875 L 9.3125 -12.59375 Z M 10.875 -12.59375 "/></g></g></g><g fill="#ffffff" fill-opacity="1"><g transform="translate(183.077703, 777.374981)"><g><path d="M 1.40625 -12.59375 L 2.96875 -12.59375 L 2.96875 0 L 1.40625 0 Z M 1.40625 -12.59375 "/></g></g></g><g fill="#ffffff" fill-opacity="1"><g transform="translate(187.451692, 777.374981)"><g><path d="M 1.34375 -12.59375 L 3.640625 -12.59375 L 7.375 -2.953125 L 7.4375 -2.953125 L 11.171875 -12.59375 L 13.46875 -12.59375 L 13.46875 0 L 11.9375 0 L 11.9375 -10.203125 L 11.859375 -10.203125 L 7.953125 0 L 6.84375 0 L 2.953125 -10.203125 L 2.875 -10.203125 L 2.875 0 L 1.34375 0 Z M 1.34375 -12.59375 "/></g></g></g><g fill="#202020" fill-opacity="1"><g transform="translate(81.000002, 703.145793)"><g><path d="M 8.265625 0.21875 C 6.804688 0.21875 5.554688 -0.0820312 4.515625 -0.6875 C 3.484375 -1.289062 2.707031 -2.066406 2.1875 -3.015625 C 1.664062 -3.972656 1.40625 -4.972656 1.40625 -6.015625 L 1.40625 -6.15625 L 3.96875 -6.15625 L 3.96875 -6.015625 C 3.96875 -5.390625 4.113281 -4.757812 4.40625 -4.125 C 4.707031 -3.5 5.179688 -2.972656 5.828125 -2.546875 C 6.472656 -2.128906 7.300781 -1.921875 8.3125 -1.921875 C 9.5 -1.921875 10.476562 -2.222656 11.25 -2.828125 C 12.03125 -3.441406 12.421875 -4.269531 12.421875 -5.3125 C 12.421875 -6.175781 12.132812 -6.863281 11.5625 -7.375 C 11 -7.894531 10.273438 -8.242188 9.390625 -8.421875 L 6.640625 -8.9375 C 3.472656 -9.632812 1.890625 -11.300781 1.890625 -13.9375 C 1.890625 -15.007812 2.148438 -15.953125 2.671875 -16.765625 C 3.191406 -17.578125 3.914062 -18.203125 4.84375 -18.640625 C 5.769531 -19.085938 6.847656 -19.3125 8.078125 -19.3125 C 9.460938 -19.3125 10.648438 -19.03125 11.640625 -18.46875 C 12.628906 -17.90625 13.375 -17.175781 13.875 -16.28125 C 14.382812 -15.394531 14.640625 -14.476562 14.640625 -13.53125 L 14.640625 -13.421875 L 12.0625 -13.421875 L 12.0625 -13.5 C 12.0625 -14.039062 11.929688 -14.59375 11.671875 -15.15625 C 11.410156 -15.726562 10.976562 -16.21875 10.375 -16.625 C 9.78125 -17.039062 8.984375 -17.25 7.984375 -17.25 C 6.859375 -17.25 5.957031 -16.929688 5.28125 -16.296875 C 4.601562 -15.671875 4.265625 -14.890625 4.265625 -13.953125 C 4.265625 -13.160156 4.523438 -12.515625 5.046875 -12.015625 C 5.566406 -11.515625 6.28125 -11.171875 7.1875 -10.984375 L 9.671875 -10.5 C 13.140625 -9.800781 14.875 -8.101562 14.875 -5.40625 C 14.875 -4.300781 14.597656 -3.328125 14.046875 -2.484375 C 13.503906 -1.640625 12.726562 -0.976562 11.71875 -0.5 C 10.707031 -0.0195312 9.554688 0.21875 8.265625 0.21875 Z M 8.265625 0.21875 "/></g></g></g><g fill="#202020" fill-opacity="1"><g transform="translate(97.165937, 703.145793)"><g><path d="M 8.046875 0.1875 C 6.609375 0.1875 5.390625 -0.15625 4.390625 -0.84375 C 3.390625 -1.539062 2.632812 -2.453125 2.125 -3.578125 C 1.625 -4.703125 1.375 -5.910156 1.375 -7.203125 C 1.375 -8.503906 1.625 -9.71875 2.125 -10.84375 C 2.632812 -11.96875 3.390625 -12.875 4.390625 -13.5625 C 5.390625 -14.257812 6.609375 -14.609375 8.046875 -14.609375 C 9.484375 -14.609375 10.703125 -14.257812 11.703125 -13.5625 C 12.703125 -12.875 13.445312 -11.960938 13.9375 -10.828125 C 14.4375 -9.691406 14.6875 -8.484375 14.6875 -7.203125 C 14.6875 -5.929688 14.429688 -4.726562 13.921875 -3.59375 C 13.421875 -2.457031 12.671875 -1.539062 11.671875 -0.84375 C 10.671875 -0.15625 9.460938 0.1875 8.046875 0.1875 Z M 8.046875 -1.8125 C 8.929688 -1.8125 9.703125 -2.050781 10.359375 -2.53125 C 11.015625 -3.019531 11.507812 -3.671875 11.84375 -4.484375 C 12.1875 -5.304688 12.359375 -6.222656 12.359375 -7.234375 C 12.359375 -8.785156 11.972656 -10.070312 11.203125 -11.09375 C 10.429688 -12.125 9.378906 -12.640625 8.046875 -12.640625 C 7.148438 -12.640625 6.367188 -12.394531 5.703125 -11.90625 C 5.046875 -11.414062 4.546875 -10.757812 4.203125 -9.9375 C 3.867188 -9.125 3.703125 -8.222656 3.703125 -7.234375 C 3.703125 -5.679688 4.085938 -4.390625 4.859375 -3.359375 C 5.628906 -2.328125 6.691406 -1.8125 8.046875 -1.8125 Z M 8.046875 -1.8125 "/></g></g></g><g fill="#202020" fill-opacity="1"><g transform="translate(113.22392, 703.145793)"><g><path d="M 14.421875 0 L 12.0625 0 L 12.0625 -2.703125 L 11.90625 -2.703125 C 11.53125 -1.867188 10.945312 -1.164062 10.15625 -0.59375 C 9.375 -0.03125 8.421875 0.25 7.296875 0.25 C 6.109375 0.25 5.113281 -0.0351562 4.3125 -0.609375 C 3.519531 -1.191406 2.941406 -1.941406 2.578125 -2.859375 C 2.210938 -3.773438 2.03125 -4.773438 2.03125 -5.859375 L 2.03125 -14.234375 L 4.34375 -14.234375 L 4.34375 -6.15625 C 4.34375 -4.769531 4.691406 -3.703125 5.390625 -2.953125 C 6.097656 -2.210938 7.019531 -1.84375 8.15625 -1.84375 C 9.34375 -1.84375 10.289062 -2.238281 11 -3.03125 C 11.707031 -3.832031 12.0625 -4.875 12.0625 -6.15625 L 12.0625 -14.234375 L 14.421875 -14.234375 Z M 14.421875 0 "/></g></g></g><g fill="#202020" fill-opacity="1"><g transform="translate(129.470822, 703.145793)"><g><path d="M 1.921875 -14.234375 L 4.234375 -14.234375 L 4.234375 -11.96875 L 4.40625 -11.96875 C 4.632812 -12.59375 5.050781 -13.125 5.65625 -13.5625 C 6.257812 -14.007812 7.019531 -14.234375 7.9375 -14.234375 C 8.226562 -14.234375 8.457031 -14.21875 8.625 -14.1875 C 8.800781 -14.15625 8.992188 -14.109375 9.203125 -14.046875 L 9.125 -11.765625 C 8.832031 -11.859375 8.582031 -11.921875 8.375 -11.953125 C 8.175781 -11.992188 7.914062 -12.015625 7.59375 -12.015625 C 5.351562 -12.015625 4.234375 -10.691406 4.234375 -8.046875 L 4.234375 0 L 1.921875 0 Z M 1.921875 -14.234375 "/></g></g></g><g fill="#202020" fill-opacity="1"><g transform="translate(138.997662, 703.145793)"><g><path d="M 8.09375 0.1875 C 6.625 0.1875 5.378906 -0.160156 4.359375 -0.859375 C 3.335938 -1.566406 2.582031 -2.484375 2.09375 -3.609375 C 1.613281 -4.734375 1.375 -5.929688 1.375 -7.203125 C 1.375 -8.484375 1.613281 -9.6875 2.09375 -10.8125 C 2.582031 -11.9375 3.335938 -12.847656 4.359375 -13.546875 C 5.378906 -14.253906 6.625 -14.609375 8.09375 -14.609375 C 9.9375 -14.609375 11.382812 -14.078125 12.4375 -13.015625 C 13.488281 -11.953125 14.125 -10.644531 14.34375 -9.09375 L 12.0625 -9.09375 C 11.90625 -10.144531 11.492188 -11 10.828125 -11.65625 C 10.160156 -12.3125 9.257812 -12.640625 8.125 -12.640625 C 6.6875 -12.640625 5.59375 -12.117188 4.84375 -11.078125 C 4.09375 -10.046875 3.71875 -8.753906 3.71875 -7.203125 C 3.71875 -5.660156 4.09375 -4.367188 4.84375 -3.328125 C 5.59375 -2.296875 6.6875 -1.78125 8.125 -1.78125 C 9.257812 -1.78125 10.160156 -2.101562 10.828125 -2.75 C 11.492188 -3.394531 11.90625 -4.25 12.0625 -5.3125 L 14.34375 -5.3125 C 14.125 -3.769531 13.488281 -2.46875 12.4375 -1.40625 C 11.382812 -0.34375 9.9375 0.1875 8.09375 0.1875 Z M 8.09375 0.1875 "/></g></g></g><g fill="#202020" fill-opacity="1"><g transform="translate(154.542869, 703.145793)"><g><path d="M 8.015625 0.1875 C 6.554688 0.1875 5.328125 -0.160156 4.328125 -0.859375 C 3.328125 -1.566406 2.582031 -2.484375 2.09375 -3.609375 C 1.613281 -4.742188 1.375 -5.941406 1.375 -7.203125 C 1.375 -8.484375 1.613281 -9.6875 2.09375 -10.8125 C 2.582031 -11.9375 3.332031 -12.847656 4.34375 -13.546875 C 5.351562 -14.253906 6.585938 -14.609375 8.046875 -14.609375 C 9.953125 -14.609375 11.476562 -13.96875 12.625 -12.6875 C 13.769531 -11.40625 14.34375 -9.570312 14.34375 -7.1875 L 14.34375 -6.53125 L 3.703125 -6.53125 L 3.703125 -6.34375 C 3.703125 -5.550781 3.878906 -4.800781 4.234375 -4.09375 C 4.597656 -3.394531 5.101562 -2.828125 5.75 -2.390625 C 6.394531 -1.960938 7.140625 -1.75 7.984375 -1.75 C 8.910156 -1.75 9.703125 -1.984375 10.359375 -2.453125 C 11.023438 -2.921875 11.523438 -3.550781 11.859375 -4.34375 L 14.140625 -4.34375 C 13.765625 -3.050781 13.054688 -1.972656 12.015625 -1.109375 C 10.984375 -0.242188 9.648438 0.1875 8.015625 0.1875 Z M 12.046875 -8.1875 C 11.972656 -9.800781 11.578125 -10.96875 10.859375 -11.6875 C 10.140625 -12.40625 9.191406 -12.765625 8.015625 -12.765625 C 6.742188 -12.765625 5.726562 -12.34375 4.96875 -11.5 C 4.207031 -10.65625 3.800781 -9.550781 3.75 -8.1875 Z M 12.046875 -8.1875 "/></g></g></g><g fill="#202020" fill-opacity="1"><g transform="translate(170.276995, 703.145793)"><g/></g></g><g fill="#202020" fill-opacity="1"><g transform="translate(176.484282, 703.145793)"><g><path d="M 3.515625 0.1875 C 3.066406 0.1875 2.691406 0.03125 2.390625 -0.28125 C 2.097656 -0.59375 1.953125 -0.96875 1.953125 -1.40625 C 1.953125 -1.832031 2.097656 -2.191406 2.390625 -2.484375 C 2.691406 -2.785156 3.066406 -2.9375 3.515625 -2.9375 C 3.960938 -2.9375 4.332031 -2.785156 4.625 -2.484375 C 4.925781 -2.191406 5.078125 -1.832031 5.078125 -1.40625 C 5.078125 -0.96875 4.921875 -0.59375 4.609375 -0.28125 C 4.304688 0.03125 3.941406 0.1875 3.515625 0.1875 Z M 3.515625 -10.96875 C 3.066406 -10.96875 2.691406 -11.125 2.390625 -11.4375 C 2.097656 -11.75 1.953125 -12.125 1.953125 -12.5625 C 1.953125 -12.988281 2.097656 -13.347656 2.390625 -13.640625 C 2.691406 -13.941406 3.066406 -14.09375 3.515625 -14.09375 C 3.960938 -14.09375 4.332031 -13.941406 4.625 -13.640625 C 4.925781 -13.347656 5.078125 -12.988281 5.078125 -12.5625 C 5.078125 -12.125 4.921875 -11.75 4.609375 -11.4375 C 4.304688 -11.125 3.941406 -10.96875 3.515625 -10.96875 Z M 3.515625 -10.96875 "/></g></g></g><g fill="#202020" fill-opacity="1"><g transform="translate(184.391828, 703.145793)"><g/></g></g><g fill="#202020" fill-opacity="1"><g transform="translate(190.599115, 703.145793)"><g><path d="M 2.03125 -18.90625 L 8.9375 -18.90625 C 10.625 -18.90625 12.101562 -18.519531 13.375 -17.75 C 14.644531 -16.988281 15.625 -15.898438 16.3125 -14.484375 C 17.007812 -13.066406 17.359375 -11.398438 17.359375 -9.484375 C 17.359375 -7.554688 17.007812 -5.875 16.3125 -4.4375 C 15.625 -3.007812 14.640625 -1.910156 13.359375 -1.140625 C 12.085938 -0.378906 10.601562 0 8.90625 0 L 2.03125 0 Z M 8.59375 -2.15625 C 10.5 -2.15625 12.023438 -2.78125 13.171875 -4.03125 C 14.328125 -5.28125 14.90625 -7.097656 14.90625 -9.484375 C 14.90625 -11.859375 14.332031 -13.671875 13.1875 -14.921875 C 12.039062 -16.171875 10.507812 -16.796875 8.59375 -16.796875 L 4.296875 -16.796875 L 4.296875 -2.15625 Z M 8.59375 -2.15625 "/></g></g></g><g fill="#202020" fill-opacity="1"><g transform="translate(209.140007, 703.145793)"><g><path d="M 8.015625 0.1875 C 6.554688 0.1875 5.328125 -0.160156 4.328125 -0.859375 C 3.328125 -1.566406 2.582031 -2.484375 2.09375 -3.609375 C 1.613281 -4.742188 1.375 -5.941406 1.375 -7.203125 C 1.375 -8.484375 1.613281 -9.6875 2.09375 -10.8125 C 2.582031 -11.9375 3.332031 -12.847656 4.34375 -13.546875 C 5.351562 -14.253906 6.585938 -14.609375 8.046875 -14.609375 C 9.953125 -14.609375 11.476562 -13.96875 12.625 -12.6875 C 13.769531 -11.40625 14.34375 -9.570312 14.34375 -7.1875 L 14.34375 -6.53125 L 3.703125 -6.53125 L 3.703125 -6.34375 C 3.703125 -5.550781 3.878906 -4.800781 4.234375 -4.09375 C 4.597656 -3.394531 5.101562 -2.828125 5.75 -2.390625 C 6.394531 -1.960938 7.140625 -1.75 7.984375 -1.75 C 8.910156 -1.75 9.703125 -1.984375 10.359375 -2.453125 C 11.023438 -2.921875 11.523438 -3.550781 11.859375 -4.34375 L 14.140625 -4.34375 C 13.765625 -3.050781 13.054688 -1.972656 12.015625 -1.109375 C 10.984375 -0.242188 9.648438 0.1875 8.015625 0.1875 Z M 12.046875 -8.1875 C 11.972656 -9.800781 11.578125 -10.96875 10.859375 -11.6875 C 10.140625 -12.40625 9.191406 -12.765625 8.015625 -12.765625 C 6.742188 -12.765625 5.726562 -12.34375 4.96875 -11.5 C 4.207031 -10.65625 3.800781 -9.550781 3.75 -8.1875 Z M 12.046875 -8.1875 "/></g></g></g><g fill="#202020" fill-opacity="1"><g transform="translate(224.874133, 703.145793)"><g><path d="M 6.890625 0.1875 C 5.734375 0.1875 4.734375 -0.0390625 3.890625 -0.5 C 3.046875 -0.957031 2.398438 -1.546875 1.953125 -2.265625 C 1.515625 -2.984375 1.296875 -3.738281 1.296875 -4.53125 L 1.296875 -4.671875 L 3.625 -4.671875 L 3.625 -4.5625 C 3.625 -4.113281 3.75 -3.664062 4 -3.21875 C 4.25 -2.78125 4.625 -2.421875 5.125 -2.140625 C 5.632812 -1.867188 6.25 -1.734375 6.96875 -1.734375 C 7.832031 -1.734375 8.546875 -1.941406 9.109375 -2.359375 C 9.679688 -2.785156 9.96875 -3.367188 9.96875 -4.109375 C 9.96875 -4.710938 9.742188 -5.195312 9.296875 -5.5625 C 8.859375 -5.925781 8.304688 -6.160156 7.640625 -6.265625 L 5.78125 -6.53125 C 4.601562 -6.707031 3.617188 -7.109375 2.828125 -7.734375 C 2.035156 -8.359375 1.640625 -9.265625 1.640625 -10.453125 C 1.640625 -11.765625 2.113281 -12.785156 3.0625 -13.515625 C 4.007812 -14.242188 5.222656 -14.609375 6.703125 -14.609375 C 7.796875 -14.609375 8.734375 -14.40625 9.515625 -14 C 10.296875 -13.59375 10.894531 -13.0625 11.3125 -12.40625 C 11.726562 -11.75 11.9375 -11.035156 11.9375 -10.265625 L 11.9375 -10.15625 L 9.609375 -10.15625 L 9.609375 -10.203125 C 9.609375 -10.566406 9.515625 -10.945312 9.328125 -11.34375 C 9.140625 -11.738281 8.816406 -12.078125 8.359375 -12.359375 C 7.910156 -12.648438 7.335938 -12.796875 6.640625 -12.796875 C 5.773438 -12.796875 5.082031 -12.582031 4.5625 -12.15625 C 4.039062 -11.738281 3.78125 -11.1875 3.78125 -10.5 C 3.78125 -9.945312 3.984375 -9.488281 4.390625 -9.125 C 4.804688 -8.769531 5.332031 -8.535156 5.96875 -8.421875 L 7.984375 -8.09375 C 9.179688 -7.894531 10.179688 -7.484375 10.984375 -6.859375 C 11.796875 -6.242188 12.203125 -5.332031 12.203125 -4.125 C 12.203125 -3.257812 11.972656 -2.503906 11.515625 -1.859375 C 11.054688 -1.210938 10.421875 -0.707031 9.609375 -0.34375 C 8.796875 0.0078125 7.890625 0.1875 6.890625 0.1875 Z M 6.890625 0.1875 "/></g></g></g><g fill="#202020" fill-opacity="1"><g transform="translate(238.260287, 703.145793)"><g><path d="M 7.234375 0.1875 C 5.972656 0.1875 4.894531 -0.132812 4 -0.78125 C 3.113281 -1.425781 2.4375 -2.304688 1.96875 -3.421875 C 1.5 -4.546875 1.265625 -5.804688 1.265625 -7.203125 C 1.265625 -8.609375 1.503906 -9.875 1.984375 -11 C 2.460938 -12.125 3.15625 -13.003906 4.0625 -13.640625 C 4.96875 -14.285156 6.050781 -14.609375 7.3125 -14.609375 C 8.570312 -14.609375 9.585938 -14.3125 10.359375 -13.71875 C 11.140625 -13.125 11.726562 -12.410156 12.125 -11.578125 L 12.3125 -11.578125 L 12.3125 -14.234375 L 14.65625 -14.234375 L 14.65625 0 L 12.3125 0 L 12.3125 -2.921875 L 12.125 -2.921875 C 11.6875 -2.066406 11.070312 -1.332031 10.28125 -0.71875 C 9.488281 -0.113281 8.472656 0.1875 7.234375 0.1875 Z M 7.96875 -1.8125 C 9.351562 -1.8125 10.414062 -2.328125 11.15625 -3.359375 C 11.894531 -4.390625 12.265625 -5.671875 12.265625 -7.203125 C 12.265625 -8.734375 11.894531 -10.015625 11.15625 -11.046875 C 10.414062 -12.085938 9.351562 -12.609375 7.96875 -12.609375 C 6.539062 -12.609375 5.460938 -12.09375 4.734375 -11.0625 C 4.003906 -10.039062 3.640625 -8.765625 3.640625 -7.234375 C 3.640625 -5.679688 4.003906 -4.390625 4.734375 -3.359375 C 5.460938 -2.328125 6.539062 -1.8125 7.96875 -1.8125 Z M 7.96875 -1.8125 "/></g></g></g><g fill="#202020" fill-opacity="1"><g transform="translate(254.992979, 703.145793)"><g><path d="M 2.21875 -14.234375 L 4.53125 -14.234375 L 4.53125 0 L 2.21875 0 Z M 3.34375 -16.875 C 2.914062 -16.875 2.554688 -17.019531 2.265625 -17.3125 C 1.972656 -17.613281 1.828125 -17.972656 1.828125 -18.390625 C 1.828125 -18.804688 1.972656 -19.160156 2.265625 -19.453125 C 2.554688 -19.753906 2.914062 -19.90625 3.34375 -19.90625 C 3.769531 -19.90625 4.128906 -19.753906 4.421875 -19.453125 C 4.722656 -19.160156 4.875 -18.804688 4.875 -18.390625 C 4.875 -17.972656 4.722656 -17.613281 4.421875 -17.3125 C 4.128906 -17.019531 3.769531 -16.875 3.34375 -16.875 Z M 3.34375 -16.875 "/></g></g></g><g fill="#202020" fill-opacity="1"><g transform="translate(261.740026, 703.145793)"><g><path d="M 2.03125 -14.234375 L 4.34375 -14.234375 L 4.34375 -11.65625 L 4.5625 -11.65625 C 4.925781 -12.488281 5.507812 -13.1875 6.3125 -13.75 C 7.125 -14.320312 8.113281 -14.609375 9.28125 -14.609375 C 10.488281 -14.609375 11.5 -14.320312 12.3125 -13.75 C 13.125 -13.1875 13.722656 -12.441406 14.109375 -11.515625 C 14.492188 -10.585938 14.6875 -9.582031 14.6875 -8.5 L 14.6875 0 L 12.359375 0 L 12.359375 -8.203125 C 12.359375 -9.609375 11.992188 -10.679688 11.265625 -11.421875 C 10.535156 -12.160156 9.585938 -12.53125 8.421875 -12.53125 C 7.179688 -12.53125 6.191406 -12.128906 5.453125 -11.328125 C 4.710938 -10.523438 4.34375 -9.484375 4.34375 -8.203125 L 4.34375 0 L 2.03125 0 Z M 2.03125 -14.234375 "/></g></g></g><g fill="#202020" fill-opacity="1"><g transform="translate(278.256814, 703.145793)"><g/></g></g><g fill="#202020" fill-opacity="1"><g transform="translate(284.464089, 703.145793)"><g><path d="M 8.265625 0.21875 C 6.804688 0.21875 5.554688 -0.0820312 4.515625 -0.6875 C 3.484375 -1.289062 2.707031 -2.066406 2.1875 -3.015625 C 1.664062 -3.972656 1.40625 -4.972656 1.40625 -6.015625 L 1.40625 -6.15625 L 3.96875 -6.15625 L 3.96875 -6.015625 C 3.96875 -5.390625 4.113281 -4.757812 4.40625 -4.125 C 4.707031 -3.5 5.179688 -2.972656 5.828125 -2.546875 C 6.472656 -2.128906 7.300781 -1.921875 8.3125 -1.921875 C 9.5 -1.921875 10.476562 -2.222656 11.25 -2.828125 C 12.03125 -3.441406 12.421875 -4.269531 12.421875 -5.3125 C 12.421875 -6.175781 12.132812 -6.863281 11.5625 -7.375 C 11 -7.894531 10.273438 -8.242188 9.390625 -8.421875 L 6.640625 -8.9375 C 3.472656 -9.632812 1.890625 -11.300781 1.890625 -13.9375 C 1.890625 -15.007812 2.148438 -15.953125 2.671875 -16.765625 C 3.191406 -17.578125 3.914062 -18.203125 4.84375 -18.640625 C 5.769531 -19.085938 6.847656 -19.3125 8.078125 -19.3125 C 9.460938 -19.3125 10.648438 -19.03125 11.640625 -18.46875 C 12.628906 -17.90625 13.375 -17.175781 13.875 -16.28125 C 14.382812 -15.394531 14.640625 -14.476562 14.640625 -13.53125 L 14.640625 -13.421875 L 12.0625 -13.421875 L 12.0625 -13.5 C 12.0625 -14.039062 11.929688 -14.59375 11.671875 -15.15625 C 11.410156 -15.726562 10.976562 -16.21875 10.375 -16.625 C 9.78125 -17.039062 8.984375 -17.25 7.984375 -17.25 C 6.859375 -17.25 5.957031 -16.929688 5.28125 -16.296875 C 4.601562 -15.671875 4.265625 -14.890625 4.265625 -13.953125 C 4.265625 -13.160156 4.523438 -12.515625 5.046875 -12.015625 C 5.566406 -11.515625 6.28125 -11.171875 7.1875 -10.984375 L 9.671875 -10.5 C 13.140625 -9.800781 14.875 -8.101562 14.875 -5.40625 C 14.875 -4.300781 14.597656 -3.328125 14.046875 -2.484375 C 13.503906 -1.640625 12.726562 -0.976562 11.71875 -0.5 C 10.707031 -0.0195312 9.554688 0.21875 8.265625 0.21875 Z M 8.265625 0.21875 "/></g></g></g><g fill="#202020" fill-opacity="1"><g transform="translate(300.630012, 703.145793)"><g><path d="M 2.21875 -14.234375 L 4.53125 -14.234375 L 4.53125 0 L 2.21875 0 Z M 3.34375 -16.875 C 2.914062 -16.875 2.554688 -17.019531 2.265625 -17.3125 C 1.972656 -17.613281 1.828125 -17.972656 1.828125 -18.390625 C 1.828125 -18.804688 1.972656 -19.160156 2.265625 -19.453125 C 2.554688 -19.753906 2.914062 -19.90625 3.34375 -19.90625 C 3.769531 -19.90625 4.128906 -19.753906 4.421875 -19.453125 C 4.722656 -19.160156 4.875 -18.804688 4.875 -18.390625 C 4.875 -17.972656 4.722656 -17.613281 4.421875 -17.3125 C 4.128906 -17.019531 3.769531 -16.875 3.34375 -16.875 Z M 3.34375 -16.875 "/></g></g></g><g fill="#202020" fill-opacity="1"><g transform="translate(307.377059, 703.145793)"><g><path d="M 6.890625 0.1875 C 5.734375 0.1875 4.734375 -0.0390625 3.890625 -0.5 C 3.046875 -0.957031 2.398438 -1.546875 1.953125 -2.265625 C 1.515625 -2.984375 1.296875 -3.738281 1.296875 -4.53125 L 1.296875 -4.671875 L 3.625 -4.671875 L 3.625 -4.5625 C 3.625 -4.113281 3.75 -3.664062 4 -3.21875 C 4.25 -2.78125 4.625 -2.421875 5.125 -2.140625 C 5.632812 -1.867188 6.25 -1.734375 6.96875 -1.734375 C 7.832031 -1.734375 8.546875 -1.941406 9.109375 -2.359375 C 9.679688 -2.785156 9.96875 -3.367188 9.96875 -4.109375 C 9.96875 -4.710938 9.742188 -5.195312 9.296875 -5.5625 C 8.859375 -5.925781 8.304688 -6.160156 7.640625 -6.265625 L 5.78125 -6.53125 C 4.601562 -6.707031 3.617188 -7.109375 2.828125 -7.734375 C 2.035156 -8.359375 1.640625 -9.265625 1.640625 -10.453125 C 1.640625 -11.765625 2.113281 -12.785156 3.0625 -13.515625 C 4.007812 -14.242188 5.222656 -14.609375 6.703125 -14.609375 C 7.796875 -14.609375 8.734375 -14.40625 9.515625 -14 C 10.296875 -13.59375 10.894531 -13.0625 11.3125 -12.40625 C 11.726562 -11.75 11.9375 -11.035156 11.9375 -10.265625 L 11.9375 -10.15625 L 9.609375 -10.15625 L 9.609375 -10.203125 C 9.609375 -10.566406 9.515625 -10.945312 9.328125 -11.34375 C 9.140625 -11.738281 8.816406 -12.078125 8.359375 -12.359375 C 7.910156 -12.648438 7.335938 -12.796875 6.640625 -12.796875 C 5.773438 -12.796875 5.082031 -12.582031 4.5625 -12.15625 C 4.039062 -11.738281 3.78125 -11.1875 3.78125 -10.5 C 3.78125 -9.945312 3.984375 -9.488281 4.390625 -9.125 C 4.804688 -8.769531 5.332031 -8.535156 5.96875 -8.421875 L 7.984375 -8.09375 C 9.179688 -7.894531 10.179688 -7.484375 10.984375 -6.859375 C 11.796875 -6.242188 12.203125 -5.332031 12.203125 -4.125 C 12.203125 -3.257812 11.972656 -2.503906 11.515625 -1.859375 C 11.054688 -1.210938 10.421875 -0.707031 9.609375 -0.34375 C 8.796875 0.0078125 7.890625 0.1875 6.890625 0.1875 Z M 6.890625 0.1875 "/></g></g></g><g fill="#202020" fill-opacity="1"><g transform="translate(320.763213, 703.145793)"><g><path d="M 5.828125 -12.359375 L 5.828125 -4.109375 C 5.828125 -3.441406 5.859375 -2.945312 5.921875 -2.625 C 5.984375 -2.3125 6.15625 -2.066406 6.4375 -1.890625 C 6.71875 -1.710938 7.171875 -1.625 7.796875 -1.625 C 8.234375 -1.625 8.703125 -1.6875 9.203125 -1.8125 L 9.203125 -0.140625 C 9.078125 -0.078125 8.800781 -0.0195312 8.375 0.03125 C 7.957031 0.0820312 7.523438 0.109375 7.078125 0.109375 C 6.035156 0.109375 5.253906 -0.0351562 4.734375 -0.328125 C 4.222656 -0.628906 3.890625 -1.035156 3.734375 -1.546875 C 3.585938 -2.066406 3.515625 -2.75 3.515625 -3.59375 L 3.515625 -12.359375 L 0.859375 -12.359375 L 0.859375 -14.234375 L 3.515625 -14.234375 L 3.515625 -18.90625 L 5.828125 -18.90625 L 5.828125 -14.234375 L 9.203125 -14.234375 L 9.203125 -12.359375 Z M 5.828125 -12.359375 "/></g></g></g><g fill="#202020" fill-opacity="1"><g transform="translate(331.369574, 703.145793)"><g><path d="M 8.015625 0.1875 C 6.554688 0.1875 5.328125 -0.160156 4.328125 -0.859375 C 3.328125 -1.566406 2.582031 -2.484375 2.09375 -3.609375 C 1.613281 -4.742188 1.375 -5.941406 1.375 -7.203125 C 1.375 -8.484375 1.613281 -9.6875 2.09375 -10.8125 C 2.582031 -11.9375 3.332031 -12.847656 4.34375 -13.546875 C 5.351562 -14.253906 6.585938 -14.609375 8.046875 -14.609375 C 9.953125 -14.609375 11.476562 -13.96875 12.625 -12.6875 C 13.769531 -11.40625 14.34375 -9.570312 14.34375 -7.1875 L 14.34375 -6.53125 L 3.703125 -6.53125 L 3.703125 -6.34375 C 3.703125 -5.550781 3.878906 -4.800781 4.234375 -4.09375 C 4.597656 -3.394531 5.101562 -2.828125 5.75 -2.390625 C 6.394531 -1.960938 7.140625 -1.75 7.984375 -1.75 C 8.910156 -1.75 9.703125 -1.984375 10.359375 -2.453125 C 11.023438 -2.921875 11.523438 -3.550781 11.859375 -4.34375 L 14.140625 -4.34375 C 13.765625 -3.050781 13.054688 -1.972656 12.015625 -1.109375 C 10.984375 -0.242188 9.648438 0.1875 8.015625 0.1875 Z M 12.046875 -8.1875 C 11.972656 -9.800781 11.578125 -10.96875 10.859375 -11.6875 C 10.140625 -12.40625 9.191406 -12.765625 8.015625 -12.765625 C 6.742188 -12.765625 5.726562 -12.34375 4.96875 -11.5 C 4.207031 -10.65625 3.800781 -9.550781 3.75 -8.1875 Z M 12.046875 -8.1875 "/></g></g></g><g fill="#202020" fill-opacity="1"><g transform="translate(347.103689, 703.145793)"><g><path d="M 2.03125 -14.234375 L 4.3125 -14.234375 L 4.3125 -11.609375 L 4.53125 -11.609375 C 4.570312 -11.785156 4.753906 -12.113281 5.078125 -12.59375 C 5.398438 -13.070312 5.894531 -13.523438 6.5625 -13.953125 C 7.226562 -14.390625 8.054688 -14.609375 9.046875 -14.609375 C 10.085938 -14.609375 10.953125 -14.363281 11.640625 -13.875 C 12.335938 -13.394531 12.859375 -12.875 13.203125 -12.3125 C 13.546875 -11.75 13.71875 -11.398438 13.71875 -11.265625 L 13.9375 -11.265625 C 14.1875 -11.890625 14.679688 -12.601562 15.421875 -13.40625 C 16.171875 -14.207031 17.320312 -14.609375 18.875 -14.609375 C 20.019531 -14.609375 20.976562 -14.316406 21.75 -13.734375 C 22.53125 -13.148438 23.101562 -12.394531 23.46875 -11.46875 C 23.84375 -10.550781 24.03125 -9.570312 24.03125 -8.53125 L 24.03125 0 L 21.734375 0 L 21.734375 -8.3125 C 21.734375 -9.6875 21.378906 -10.722656 20.671875 -11.421875 C 19.960938 -12.117188 19.082031 -12.46875 18.03125 -12.46875 C 16.957031 -12.46875 16.046875 -12.101562 15.296875 -11.375 C 14.546875 -10.644531 14.171875 -9.625 14.171875 -8.3125 L 14.171875 0 L 11.875 0 L 11.875 -8.3125 C 11.875 -9.6875 11.519531 -10.722656 10.8125 -11.421875 C 10.101562 -12.117188 9.226562 -12.46875 8.1875 -12.46875 C 7.101562 -12.46875 6.1875 -12.101562 5.4375 -11.375 C 4.6875 -10.644531 4.3125 -9.625 4.3125 -8.3125 L 4.3125 0 L 2.03125 0 Z M 2.03125 -14.234375 "/></g></g></g><g fill="#202020" fill-opacity="1"><g transform="translate(372.958386, 703.145793)"><g/></g></g><g fill="#202020" fill-opacity="1"><g transform="translate(379.165684, 703.145793)"><g><path d="M 1.96875 -18.90625 L 4.296875 -18.90625 L 4.296875 -10.53125 L 4.421875 -10.53125 L 11.9375 -18.90625 L 14.765625 -18.90625 L 7.3125 -10.765625 L 15.34375 0 L 12.609375 0 L 5.890625 -9.078125 L 4.296875 -7.375 L 4.296875 0 L 1.96875 0 Z M 1.96875 -18.90625 "/></g></g></g><g fill="#202020" fill-opacity="1"><g transform="translate(396.006327, 703.145793)"><g><path d="M 8.046875 0.1875 C 6.609375 0.1875 5.390625 -0.15625 4.390625 -0.84375 C 3.390625 -1.539062 2.632812 -2.453125 2.125 -3.578125 C 1.625 -4.703125 1.375 -5.910156 1.375 -7.203125 C 1.375 -8.503906 1.625 -9.71875 2.125 -10.84375 C 2.632812 -11.96875 3.390625 -12.875 4.390625 -13.5625 C 5.390625 -14.257812 6.609375 -14.609375 8.046875 -14.609375 C 9.484375 -14.609375 10.703125 -14.257812 11.703125 -13.5625 C 12.703125 -12.875 13.445312 -11.960938 13.9375 -10.828125 C 14.4375 -9.691406 14.6875 -8.484375 14.6875 -7.203125 C 14.6875 -5.929688 14.429688 -4.726562 13.921875 -3.59375 C 13.421875 -2.457031 12.671875 -1.539062 11.671875 -0.84375 C 10.671875 -0.15625 9.460938 0.1875 8.046875 0.1875 Z M 8.046875 -1.8125 C 8.929688 -1.8125 9.703125 -2.050781 10.359375 -2.53125 C 11.015625 -3.019531 11.507812 -3.671875 11.84375 -4.484375 C 12.1875 -5.304688 12.359375 -6.222656 12.359375 -7.234375 C 12.359375 -8.785156 11.972656 -10.070312 11.203125 -11.09375 C 10.429688 -12.125 9.378906 -12.640625 8.046875 -12.640625 C 7.148438 -12.640625 6.367188 -12.394531 5.703125 -11.90625 C 5.046875 -11.414062 4.546875 -10.757812 4.203125 -9.9375 C 3.867188 -9.125 3.703125 -8.222656 3.703125 -7.234375 C 3.703125 -5.679688 4.085938 -4.390625 4.859375 -3.359375 C 5.628906 -2.328125 6.691406 -1.8125 8.046875 -1.8125 Z M 8.046875 -1.8125 "/></g></g></g><g fill="#202020" fill-opacity="1"><g transform="translate(412.06431, 703.145793)"><g><path d="M 2.03125 -14.234375 L 4.34375 -14.234375 L 4.34375 -11.65625 L 4.5625 -11.65625 C 4.925781 -12.488281 5.507812 -13.1875 6.3125 -13.75 C 7.125 -14.320312 8.113281 -14.609375 9.28125 -14.609375 C 10.488281 -14.609375 11.5 -14.320312 12.3125 -13.75 C 13.125 -13.1875 13.722656 -12.441406 14.109375 -11.515625 C 14.492188 -10.585938 14.6875 -9.582031 14.6875 -8.5 L 14.6875 0 L 12.359375 0 L 12.359375 -8.203125 C 12.359375 -9.609375 11.992188 -10.679688 11.265625 -11.421875 C 10.535156 -12.160156 9.585938 -12.53125 8.421875 -12.53125 C 7.179688 -12.53125 6.191406 -12.128906 5.453125 -11.328125 C 4.710938 -10.523438 4.34375 -9.484375 4.34375 -8.203125 L 4.34375 0 L 2.03125 0 Z M 2.03125 -14.234375 "/></g></g></g><g fill="#202020" fill-opacity="1"><g transform="translate(428.581086, 703.145793)"><g><path d="M 5.828125 -12.359375 L 5.828125 -4.109375 C 5.828125 -3.441406 5.859375 -2.945312 5.921875 -2.625 C 5.984375 -2.3125 6.15625 -2.066406 6.4375 -1.890625 C 6.71875 -1.710938 7.171875 -1.625 7.796875 -1.625 C 8.234375 -1.625 8.703125 -1.6875 9.203125 -1.8125 L 9.203125 -0.140625 C 9.078125 -0.078125 8.800781 -0.0195312 8.375 0.03125 C 7.957031 0.0820312 7.523438 0.109375 7.078125 0.109375 C 6.035156 0.109375 5.253906 -0.0351562 4.734375 -0.328125 C 4.222656 -0.628906 3.890625 -1.035156 3.734375 -1.546875 C 3.585938 -2.066406 3.515625 -2.75 3.515625 -3.59375 L 3.515625 -12.359375 L 0.859375 -12.359375 L 0.859375 -14.234375 L 3.515625 -14.234375 L 3.515625 -18.90625 L 5.828125 -18.90625 L 5.828125 -14.234375 L 9.203125 -14.234375 L 9.203125 -12.359375 Z M 5.828125 -12.359375 "/></g></g></g><g fill="#202020" fill-opacity="1"><g transform="translate(439.187447, 703.145793)"><g><path d="M 1.921875 -14.234375 L 4.234375 -14.234375 L 4.234375 -11.96875 L 4.40625 -11.96875 C 4.632812 -12.59375 5.050781 -13.125 5.65625 -13.5625 C 6.257812 -14.007812 7.019531 -14.234375 7.9375 -14.234375 C 8.226562 -14.234375 8.457031 -14.21875 8.625 -14.1875 C 8.800781 -14.15625 8.992188 -14.109375 9.203125 -14.046875 L 9.125 -11.765625 C 8.832031 -11.859375 8.582031 -11.921875 8.375 -11.953125 C 8.175781 -11.992188 7.914062 -12.015625 7.59375 -12.015625 C 5.351562 -12.015625 4.234375 -10.691406 4.234375 -8.046875 L 4.234375 0 L 1.921875 0 Z M 1.921875 -14.234375 "/></g></g></g><g fill="#202020" fill-opacity="1"><g transform="translate(448.714287, 703.145793)"><g><path d="M 8.046875 0.1875 C 6.609375 0.1875 5.390625 -0.15625 4.390625 -0.84375 C 3.390625 -1.539062 2.632812 -2.453125 2.125 -3.578125 C 1.625 -4.703125 1.375 -5.910156 1.375 -7.203125 C 1.375 -8.503906 1.625 -9.71875 2.125 -10.84375 C 2.632812 -11.96875 3.390625 -12.875 4.390625 -13.5625 C 5.390625 -14.257812 6.609375 -14.609375 8.046875 -14.609375 C 9.484375 -14.609375 10.703125 -14.257812 11.703125 -13.5625 C 12.703125 -12.875 13.445312 -11.960938 13.9375 -10.828125 C 14.4375 -9.691406 14.6875 -8.484375 14.6875 -7.203125 C 14.6875 -5.929688 14.429688 -4.726562 13.921875 -3.59375 C 13.421875 -2.457031 12.671875 -1.539062 11.671875 -0.84375 C 10.671875 -0.15625 9.460938 0.1875 8.046875 0.1875 Z M 8.046875 -1.8125 C 8.929688 -1.8125 9.703125 -2.050781 10.359375 -2.53125 C 11.015625 -3.019531 11.507812 -3.671875 11.84375 -4.484375 C 12.1875 -5.304688 12.359375 -6.222656 12.359375 -7.234375 C 12.359375 -8.785156 11.972656 -10.070312 11.203125 -11.09375 C 10.429688 -12.125 9.378906 -12.640625 8.046875 -12.640625 C 7.148438 -12.640625 6.367188 -12.394531 5.703125 -11.90625 C 5.046875 -11.414062 4.546875 -10.757812 4.203125 -9.9375 C 3.867188 -9.125 3.703125 -8.222656 3.703125 -7.234375 C 3.703125 -5.679688 4.085938 -4.390625 4.859375 -3.359375 C 5.628906 -2.328125 6.691406 -1.8125 8.046875 -1.8125 Z M 8.046875 -1.8125 "/></g></g></g><g fill="#202020" fill-opacity="1"><g transform="translate(464.77227, 703.145793)"><g><path d="M 5.671875 0.109375 C 4.609375 0.109375 3.816406 -0.0625 3.296875 -0.40625 C 2.773438 -0.75 2.445312 -1.191406 2.3125 -1.734375 C 2.175781 -2.285156 2.109375 -3.003906 2.109375 -3.890625 L 2.140625 -20.25 L 4.453125 -20.25 L 4.453125 -4.234375 C 4.453125 -3.554688 4.484375 -3.050781 4.546875 -2.71875 C 4.609375 -2.382812 4.78125 -2.117188 5.0625 -1.921875 C 5.34375 -1.722656 5.789062 -1.625 6.40625 -1.625 C 6.78125 -1.625 7.109375 -1.648438 7.390625 -1.703125 L 7.390625 -0.03125 C 6.910156 0.0625 6.335938 0.109375 5.671875 0.109375 Z M 5.671875 0.109375 "/></g></g></g><g fill="#202020" fill-opacity="1"><g transform="translate(473.246551, 703.145793)"><g/></g></g><g fill="#202020" fill-opacity="1"><g transform="translate(479.453826, 703.145793)"><g><path d="M 9.609375 5.75 C 8.472656 5.03125 7.40625 4.046875 6.40625 2.796875 C 5.40625 1.554688 4.585938 0.0351562 3.953125 -1.765625 C 3.316406 -3.578125 3 -5.585938 3 -7.796875 C 3 -10.109375 3.332031 -12.1875 4 -14.03125 C 4.664062 -15.875 5.492188 -17.398438 6.484375 -18.609375 C 7.484375 -19.828125 8.515625 -20.753906 9.578125 -21.390625 L 10.28125 -20.6875 C 9.550781 -20 8.8125 -19.050781 8.0625 -17.84375 C 7.3125 -16.632812 6.679688 -15.164062 6.171875 -13.4375 C 5.660156 -11.71875 5.40625 -9.835938 5.40625 -7.796875 C 5.40625 -5.765625 5.664062 -3.882812 6.1875 -2.15625 C 6.707031 -0.425781 7.335938 1.035156 8.078125 2.234375 C 8.816406 3.441406 9.550781 4.378906 10.28125 5.046875 Z M 9.609375 5.75 "/></g></g></g><g fill="#202020" fill-opacity="1"><g transform="translate(491.868422, 703.145793)"><g><path d="M 14.65625 -16.796875 L 9.09375 -16.796875 L 9.09375 0 L 6.78125 0 L 6.78125 -16.796875 L 1.21875 -16.796875 L 1.21875 -18.90625 L 14.65625 -18.90625 Z M 14.65625 -16.796875 "/></g></g></g><g fill="#202020" fill-opacity="1"><g transform="translate(507.764447, 703.145793)"><g><path d="M 1.921875 -14.234375 L 4.234375 -14.234375 L 4.234375 -11.96875 L 4.40625 -11.96875 C 4.632812 -12.59375 5.050781 -13.125 5.65625 -13.5625 C 6.257812 -14.007812 7.019531 -14.234375 7.9375 -14.234375 C 8.226562 -14.234375 8.457031 -14.21875 8.625 -14.1875 C 8.800781 -14.15625 8.992188 -14.109375 9.203125 -14.046875 L 9.125 -11.765625 C 8.832031 -11.859375 8.582031 -11.921875 8.375 -11.953125 C 8.175781 -11.992188 7.914062 -12.015625 7.59375 -12.015625 C 5.351562 -12.015625 4.234375 -10.691406 4.234375 -8.046875 L 4.234375 0 L 1.921875 0 Z M 1.921875 -14.234375 "/></g></g></g><g fill="#202020" fill-opacity="1"><g transform="translate(517.291287, 703.145793)"><g><path d="M 2.21875 -14.234375 L 4.53125 -14.234375 L 4.53125 0 L 2.21875 0 Z M 3.34375 -16.875 C 2.914062 -16.875 2.554688 -17.019531 2.265625 -17.3125 C 1.972656 -17.613281 1.828125 -17.972656 1.828125 -18.390625 C 1.828125 -18.804688 1.972656 -19.160156 2.265625 -19.453125 C 2.554688 -19.753906 2.914062 -19.90625 3.34375 -19.90625 C 3.769531 -19.90625 4.128906 -19.753906 4.421875 -19.453125 C 4.722656 -19.160156 4.875 -18.804688 4.875 -18.390625 C 4.875 -17.972656 4.722656 -17.613281 4.421875 -17.3125 C 4.128906 -17.019531 3.769531 -16.875 3.34375 -16.875 Z M 3.34375 -16.875 "/></g></g></g><g fill="#202020" fill-opacity="1"><g transform="translate(524.038311, 703.145793)"><g><path d="M 2.109375 -20.171875 L 4.453125 -20.171875 L 4.453125 -8.828125 L 4.5625 -8.828125 L 9.96875 -14.234375 L 12.609375 -14.234375 L 6.3125 -7.828125 L 12.875 0 L 10.203125 0 L 4.5625 -6.9375 L 4.453125 -6.9375 L 4.453125 0 L 2.109375 0 Z M 2.109375 -20.171875 "/></g></g></g><g fill="#202020" fill-opacity="1"><g transform="translate(537.964214, 703.145793)"><g><path d="M 14.421875 0 L 12.0625 0 L 12.0625 -2.703125 L 11.90625 -2.703125 C 11.53125 -1.867188 10.945312 -1.164062 10.15625 -0.59375 C 9.375 -0.03125 8.421875 0.25 7.296875 0.25 C 6.109375 0.25 5.113281 -0.0351562 4.3125 -0.609375 C 3.519531 -1.191406 2.941406 -1.941406 2.578125 -2.859375 C 2.210938 -3.773438 2.03125 -4.773438 2.03125 -5.859375 L 2.03125 -14.234375 L 4.34375 -14.234375 L 4.34375 -6.15625 C 4.34375 -4.769531 4.691406 -3.703125 5.390625 -2.953125 C 6.097656 -2.210938 7.019531 -1.84375 8.15625 -1.84375 C 9.34375 -1.84375 10.289062 -2.238281 11 -3.03125 C 11.707031 -3.832031 12.0625 -4.875 12.0625 -6.15625 L 12.0625 -14.234375 L 14.421875 -14.234375 Z M 14.421875 0 "/></g></g></g><g fill="#202020" fill-opacity="1"><g transform="translate(554.211116, 703.145793)"><g><path d="M 8.015625 0.1875 C 6.554688 0.1875 5.328125 -0.160156 4.328125 -0.859375 C 3.328125 -1.566406 2.582031 -2.484375 2.09375 -3.609375 C 1.613281 -4.742188 1.375 -5.941406 1.375 -7.203125 C 1.375 -8.484375 1.613281 -9.6875 2.09375 -10.8125 C 2.582031 -11.9375 3.332031 -12.847656 4.34375 -13.546875 C 5.351562 -14.253906 6.585938 -14.609375 8.046875 -14.609375 C 9.953125 -14.609375 11.476562 -13.96875 12.625 -12.6875 C 13.769531 -11.40625 14.34375 -9.570312 14.34375 -7.1875 L 14.34375 -6.53125 L 3.703125 -6.53125 L 3.703125 -6.34375 C 3.703125 -5.550781 3.878906 -4.800781 4.234375 -4.09375 C 4.597656 -3.394531 5.101562 -2.828125 5.75 -2.390625 C 6.394531 -1.960938 7.140625 -1.75 7.984375 -1.75 C 8.910156 -1.75 9.703125 -1.984375 10.359375 -2.453125 C 11.023438 -2.921875 11.523438 -3.550781 11.859375 -4.34375 L 14.140625 -4.34375 C 13.765625 -3.050781 13.054688 -1.972656 12.015625 -1.109375 C 10.984375 -0.242188 9.648438 0.1875 8.015625 0.1875 Z M 12.046875 -8.1875 C 11.972656 -9.800781 11.578125 -10.96875 10.859375 -11.6875 C 10.140625 -12.40625 9.191406 -12.765625 8.015625 -12.765625 C 6.742188 -12.765625 5.726562 -12.34375 4.96875 -11.5 C 4.207031 -10.65625 3.800781 -9.550781 3.75 -8.1875 Z M 12.046875 -8.1875 "/></g></g></g><g fill="#202020" fill-opacity="1"><g transform="translate(569.945231, 703.145793)"><g><path d="M 2.03125 -14.234375 L 4.34375 -14.234375 L 4.34375 -11.65625 L 4.5625 -11.65625 C 4.925781 -12.488281 5.507812 -13.1875 6.3125 -13.75 C 7.125 -14.320312 8.113281 -14.609375 9.28125 -14.609375 C 10.488281 -14.609375 11.5 -14.320312 12.3125 -13.75 C 13.125 -13.1875 13.722656 -12.441406 14.109375 -11.515625 C 14.492188 -10.585938 14.6875 -9.582031 14.6875 -8.5 L 14.6875 0 L 12.359375 0 L 12.359375 -8.203125 C 12.359375 -9.609375 11.992188 -10.679688 11.265625 -11.421875 C 10.535156 -12.160156 9.585938 -12.53125 8.421875 -12.53125 C 7.179688 -12.53125 6.191406 -12.128906 5.453125 -11.328125 C 4.710938 -10.523438 4.34375 -9.484375 4.34375 -8.203125 L 4.34375 0 L 2.03125 0 Z M 2.03125 -14.234375 "/></g></g></g><g fill="#202020" fill-opacity="1"><g transform="translate(586.46203, 703.145793)"><g><path d="M 2.21875 -14.234375 L 4.53125 -14.234375 L 4.53125 0 L 2.21875 0 Z M 3.34375 -16.875 C 2.914062 -16.875 2.554688 -17.019531 2.265625 -17.3125 C 1.972656 -17.613281 1.828125 -17.972656 1.828125 -18.390625 C 1.828125 -18.804688 1.972656 -19.160156 2.265625 -19.453125 C 2.554688 -19.753906 2.914062 -19.90625 3.34375 -19.90625 C 3.769531 -19.90625 4.128906 -19.753906 4.421875 -19.453125 C 4.722656 -19.160156 4.875 -18.804688 4.875 -18.390625 C 4.875 -17.972656 4.722656 -17.613281 4.421875 -17.3125 C 4.128906 -17.019531 3.769531 -16.875 3.34375 -16.875 Z M 3.34375 -16.875 "/></g></g></g><g fill="#202020" fill-opacity="1"><g transform="translate(593.209054, 703.145793)"><g/></g></g><g fill="#202020" fill-opacity="1"><g transform="translate(599.416329, 703.145793)"><g><path d="M 2.03125 -18.90625 L 8.9375 -18.90625 C 10.625 -18.90625 12.101562 -18.519531 13.375 -17.75 C 14.644531 -16.988281 15.625 -15.898438 16.3125 -14.484375 C 17.007812 -13.066406 17.359375 -11.398438 17.359375 -9.484375 C 17.359375 -7.554688 17.007812 -5.875 16.3125 -4.4375 C 15.625 -3.007812 14.640625 -1.910156 13.359375 -1.140625 C 12.085938 -0.378906 10.601562 0 8.90625 0 L 2.03125 0 Z M 8.59375 -2.15625 C 10.5 -2.15625 12.023438 -2.78125 13.171875 -4.03125 C 14.328125 -5.28125 14.90625 -7.097656 14.90625 -9.484375 C 14.90625 -11.859375 14.332031 -13.671875 13.1875 -14.921875 C 12.039062 -16.171875 10.507812 -16.796875 8.59375 -16.796875 L 4.296875 -16.796875 L 4.296875 -2.15625 Z M 8.59375 -2.15625 "/></g></g></g><g fill="#202020" fill-opacity="1"><g transform="translate(617.957222, 703.145793)"><g><path d="M 7.234375 0.1875 C 5.972656 0.1875 4.894531 -0.132812 4 -0.78125 C 3.113281 -1.425781 2.4375 -2.304688 1.96875 -3.421875 C 1.5 -4.546875 1.265625 -5.804688 1.265625 -7.203125 C 1.265625 -8.609375 1.503906 -9.875 1.984375 -11 C 2.460938 -12.125 3.15625 -13.003906 4.0625 -13.640625 C 4.96875 -14.285156 6.050781 -14.609375 7.3125 -14.609375 C 8.570312 -14.609375 9.585938 -14.3125 10.359375 -13.71875 C 11.140625 -13.125 11.726562 -12.410156 12.125 -11.578125 L 12.3125 -11.578125 L 12.3125 -14.234375 L 14.65625 -14.234375 L 14.65625 0 L 12.3125 0 L 12.3125 -2.921875 L 12.125 -2.921875 C 11.6875 -2.066406 11.070312 -1.332031 10.28125 -0.71875 C 9.488281 -0.113281 8.472656 0.1875 7.234375 0.1875 Z M 7.96875 -1.8125 C 9.351562 -1.8125 10.414062 -2.328125 11.15625 -3.359375 C 11.894531 -4.390625 12.265625 -5.671875 12.265625 -7.203125 C 12.265625 -8.734375 11.894531 -10.015625 11.15625 -11.046875 C 10.414062 -12.085938 9.351562 -12.609375 7.96875 -12.609375 C 6.539062 -12.609375 5.460938 -12.09375 4.734375 -11.0625 C 4.003906 -10.039062 3.640625 -8.765625 3.640625 -7.234375 C 3.640625 -5.679688 4.003906 -4.390625 4.734375 -3.359375 C 5.460938 -2.328125 6.539062 -1.8125 7.96875 -1.8125 Z M 7.96875 -1.8125 "/></g></g></g><g fill="#202020" fill-opacity="1"><g transform="translate(634.689902, 703.145793)"><g><path d="M 1.921875 -14.234375 L 4.234375 -14.234375 L 4.234375 -11.96875 L 4.40625 -11.96875 C 4.632812 -12.59375 5.050781 -13.125 5.65625 -13.5625 C 6.257812 -14.007812 7.019531 -14.234375 7.9375 -14.234375 C 8.226562 -14.234375 8.457031 -14.21875 8.625 -14.1875 C 8.800781 -14.15625 8.992188 -14.109375 9.203125 -14.046875 L 9.125 -11.765625 C 8.832031 -11.859375 8.582031 -11.921875 8.375 -11.953125 C 8.175781 -11.992188 7.914062 -12.015625 7.59375 -12.015625 C 5.351562 -12.015625 4.234375 -10.691406 4.234375 -8.046875 L 4.234375 0 L 1.921875 0 Z M 1.921875 -14.234375 "/></g></g></g><g fill="#202020" fill-opacity="1"><g transform="translate(644.216742, 703.145793)"><g><path d="M 2.03125 -14.234375 L 4.3125 -14.234375 L 4.3125 -11.609375 L 4.53125 -11.609375 C 4.570312 -11.785156 4.753906 -12.113281 5.078125 -12.59375 C 5.398438 -13.070312 5.894531 -13.523438 6.5625 -13.953125 C 7.226562 -14.390625 8.054688 -14.609375 9.046875 -14.609375 C 10.085938 -14.609375 10.953125 -14.363281 11.640625 -13.875 C 12.335938 -13.394531 12.859375 -12.875 13.203125 -12.3125 C 13.546875 -11.75 13.71875 -11.398438 13.71875 -11.265625 L 13.9375 -11.265625 C 14.1875 -11.890625 14.679688 -12.601562 15.421875 -13.40625 C 16.171875 -14.207031 17.320312 -14.609375 18.875 -14.609375 C 20.019531 -14.609375 20.976562 -14.316406 21.75 -13.734375 C 22.53125 -13.148438 23.101562 -12.394531 23.46875 -11.46875 C 23.84375 -10.550781 24.03125 -9.570312 24.03125 -8.53125 L 24.03125 0 L 21.734375 0 L 21.734375 -8.3125 C 21.734375 -9.6875 21.378906 -10.722656 20.671875 -11.421875 C 19.960938 -12.117188 19.082031 -12.46875 18.03125 -12.46875 C 16.957031 -12.46875 16.046875 -12.101562 15.296875 -11.375 C 14.546875 -10.644531 14.171875 -9.625 14.171875 -8.3125 L 14.171875 0 L 11.875 0 L 11.875 -8.3125 C 11.875 -9.6875 11.519531 -10.722656 10.8125 -11.421875 C 10.101562 -12.117188 9.226562 -12.46875 8.1875 -12.46875 C 7.101562 -12.46875 6.1875 -12.101562 5.4375 -11.375 C 4.6875 -10.644531 4.3125 -9.625 4.3125 -8.3125 L 4.3125 0 L 2.03125 0 Z M 2.03125 -14.234375 "/></g></g></g><g fill="#202020" fill-opacity="1"><g transform="translate(670.071416, 703.145793)"><g><path d="M 7.234375 0.1875 C 5.972656 0.1875 4.894531 -0.132812 4 -0.78125 C 3.113281 -1.425781 2.4375 -2.304688 1.96875 -3.421875 C 1.5 -4.546875 1.265625 -5.804688 1.265625 -7.203125 C 1.265625 -8.609375 1.503906 -9.875 1.984375 -11 C 2.460938 -12.125 3.15625 -13.003906 4.0625 -13.640625 C 4.96875 -14.285156 6.050781 -14.609375 7.3125 -14.609375 C 8.570312 -14.609375 9.585938 -14.3125 10.359375 -13.71875 C 11.140625 -13.125 11.726562 -12.410156 12.125 -11.578125 L 12.3125 -11.578125 L 12.3125 -14.234375 L 14.65625 -14.234375 L 14.65625 0 L 12.3125 0 L 12.3125 -2.921875 L 12.125 -2.921875 C 11.6875 -2.066406 11.070312 -1.332031 10.28125 -0.71875 C 9.488281 -0.113281 8.472656 0.1875 7.234375 0.1875 Z M 7.96875 -1.8125 C 9.351562 -1.8125 10.414062 -2.328125 11.15625 -3.359375 C 11.894531 -4.390625 12.265625 -5.671875 12.265625 -7.203125 C 12.265625 -8.734375 11.894531 -10.015625 11.15625 -11.046875 C 10.414062 -12.085938 9.351562 -12.609375 7.96875 -12.609375 C 6.539062 -12.609375 5.460938 -12.09375 4.734375 -11.0625 C 4.003906 -10.039062 3.640625 -8.765625 3.640625 -7.234375 C 3.640625 -5.679688 4.003906 -4.390625 4.734375 -3.359375 C 5.460938 -2.328125 6.539062 -1.8125 7.96875 -1.8125 Z M 7.96875 -1.8125 "/></g></g></g><g fill="#202020" fill-opacity="1"><g transform="translate(686.804096, 703.145793)"><g><path d="M 2.03125 -14.234375 L 4.34375 -14.234375 L 4.34375 -11.65625 L 4.5625 -11.65625 C 4.925781 -12.488281 5.507812 -13.1875 6.3125 -13.75 C 7.125 -14.320312 8.113281 -14.609375 9.28125 -14.609375 C 10.488281 -14.609375 11.5 -14.320312 12.3125 -13.75 C 13.125 -13.1875 13.722656 -12.441406 14.109375 -11.515625 C 14.492188 -10.585938 14.6875 -9.582031 14.6875 -8.5 L 14.6875 0 L 12.359375 0 L 12.359375 -8.203125 C 12.359375 -9.609375 11.992188 -10.679688 11.265625 -11.421875 C 10.535156 -12.160156 9.585938 -12.53125 8.421875 -12.53125 C 7.179688 -12.53125 6.191406 -12.128906 5.453125 -11.328125 C 4.710938 -10.523438 4.34375 -9.484375 4.34375 -8.203125 L 4.34375 0 L 2.03125 0 Z M 2.03125 -14.234375 "/></g></g></g><g fill="#202020" fill-opacity="1"><g transform="translate(703.320895, 703.145793)"><g><path d="M 5.828125 -12.359375 L 5.828125 -4.109375 C 5.828125 -3.441406 5.859375 -2.945312 5.921875 -2.625 C 5.984375 -2.3125 6.15625 -2.066406 6.4375 -1.890625 C 6.71875 -1.710938 7.171875 -1.625 7.796875 -1.625 C 8.234375 -1.625 8.703125 -1.6875 9.203125 -1.8125 L 9.203125 -0.140625 C 9.078125 -0.078125 8.800781 -0.0195312 8.375 0.03125 C 7.957031 0.0820312 7.523438 0.109375 7.078125 0.109375 C 6.035156 0.109375 5.253906 -0.0351562 4.734375 -0.328125 C 4.222656 -0.628906 3.890625 -1.035156 3.734375 -1.546875 C 3.585938 -2.066406 3.515625 -2.75 3.515625 -3.59375 L 3.515625 -12.359375 L 0.859375 -12.359375 L 0.859375 -14.234375 L 3.515625 -14.234375 L 3.515625 -18.90625 L 5.828125 -18.90625 L 5.828125 -14.234375 L 9.203125 -14.234375 L 9.203125 -12.359375 Z M 5.828125 -12.359375 "/></g></g></g><g fill="#202020" fill-opacity="1"><g transform="translate(713.927279, 703.145793)"><g><path d="M 8.046875 0.1875 C 6.609375 0.1875 5.390625 -0.15625 4.390625 -0.84375 C 3.390625 -1.539062 2.632812 -2.453125 2.125 -3.578125 C 1.625 -4.703125 1.375 -5.910156 1.375 -7.203125 C 1.375 -8.503906 1.625 -9.71875 2.125 -10.84375 C 2.632812 -11.96875 3.390625 -12.875 4.390625 -13.5625 C 5.390625 -14.257812 6.609375 -14.609375 8.046875 -14.609375 C 9.484375 -14.609375 10.703125 -14.257812 11.703125 -13.5625 C 12.703125 -12.875 13.445312 -11.960938 13.9375 -10.828125 C 14.4375 -9.691406 14.6875 -8.484375 14.6875 -7.203125 C 14.6875 -5.929688 14.429688 -4.726562 13.921875 -3.59375 C 13.421875 -2.457031 12.671875 -1.539062 11.671875 -0.84375 C 10.671875 -0.15625 9.460938 0.1875 8.046875 0.1875 Z M 8.046875 -1.8125 C 8.929688 -1.8125 9.703125 -2.050781 10.359375 -2.53125 C 11.015625 -3.019531 11.507812 -3.671875 11.84375 -4.484375 C 12.1875 -5.304688 12.359375 -6.222656 12.359375 -7.234375 C 12.359375 -8.785156 11.972656 -10.070312 11.203125 -11.09375 C 10.429688 -12.125 9.378906 -12.640625 8.046875 -12.640625 C 7.148438 -12.640625 6.367188 -12.394531 5.703125 -11.90625 C 5.046875 -11.414062 4.546875 -10.757812 4.203125 -9.9375 C 3.867188 -9.125 3.703125 -8.222656 3.703125 -7.234375 C 3.703125 -5.679688 4.085938 -4.390625 4.859375 -3.359375 C 5.628906 -2.328125 6.691406 -1.8125 8.046875 -1.8125 Z M 8.046875 -1.8125 "/></g></g></g><g fill="#202020" fill-opacity="1"><g transform="translate(729.985262, 703.145793)"><g><path d="M 2.921875 5.046875 C 3.648438 4.378906 4.390625 3.441406 5.140625 2.234375 C 5.890625 1.035156 6.523438 -0.425781 7.046875 -2.15625 C 7.566406 -3.882812 7.828125 -5.765625 7.828125 -7.796875 C 7.828125 -9.835938 7.566406 -11.71875 7.046875 -13.4375 C 6.523438 -15.164062 5.890625 -16.632812 5.140625 -17.84375 C 4.390625 -19.050781 3.648438 -20 2.921875 -20.6875 L 3.625 -21.390625 C 4.6875 -20.753906 5.71875 -19.820312 6.71875 -18.59375 C 7.726562 -17.375 8.566406 -15.847656 9.234375 -14.015625 C 9.898438 -12.179688 10.234375 -10.109375 10.234375 -7.796875 C 10.234375 -5.585938 9.910156 -3.578125 9.265625 -1.765625 C 8.628906 0.0351562 7.8125 1.554688 6.8125 2.796875 C 5.8125 4.046875 4.75 5.03125 3.625 5.75 Z M 2.921875 5.046875 "/></g></g></g></svg>