<svg xmlns="http://www.w3.org/2000/svg" xmlns:xlink="http://www.w3.org/1999/xlink" width="1920" zoomAndPan="magnify" viewBox="0 0 1440 809.999993" height="1080" preserveAspectRatio="xMidYMid meet" version="1.0"><defs><g/></defs><rect x="-144" width="1728" fill="#ffffff" y="-80.999999" height="971.999992" fill-opacity="1"/><rect x="-144" width="1728" fill="#faf4eb" y="-80.999999" height="971.999992" fill-opacity="1"/><path fill="#2d3e70" d="M 0 729 L 1439.964844 729 L 1439.964844 810 L 0 810 Z M 0 729 " fill-opacity="1" fill-rule="nonzero"/><g fill="#2d3e70" fill-opacity="1"><g transform="translate(569.707013, 407.762783)"><g><path d="M 1.953125 -88.484375 L 1.953125 -90.71875 C 7.460938 -90.71875 12.898438 -90.738281 18.265625 -90.78125 C 23.628906 -90.832031 29.019531 -90.859375 34.4375 -90.859375 C 37.707031 -90.859375 40.953125 -90.785156 44.171875 -90.640625 C 47.390625 -90.503906 50.492188 -90.019531 53.484375 -89.1875 C 58.703125 -87.78125 62.757812 -85.113281 65.65625 -81.1875 C 68.550781 -77.269531 70 -72.609375 70 -67.203125 C 70 -61.785156 68.710938 -57.347656 66.140625 -53.890625 C 63.578125 -50.441406 60.171875 -47.921875 55.921875 -46.328125 C 51.679688 -44.742188 47.039062 -43.953125 42 -43.953125 C 46.195312 -43.773438 49.625 -42.5625 52.28125 -40.3125 C 54.945312 -38.070312 57.097656 -35.34375 58.734375 -32.125 C 60.367188 -28.90625 61.789062 -25.710938 63 -22.546875 C 63.46875 -21.328125 63.910156 -20.132812 64.328125 -18.96875 C 64.742188 -17.800781 65.140625 -16.660156 65.515625 -15.546875 C 65.984375 -14.421875 66.453125 -13.320312 66.921875 -12.25 C 67.390625 -11.175781 67.851562 -10.171875 68.3125 -9.234375 C 69.34375 -7.460938 70.507812 -5.96875 71.8125 -4.75 C 73.125 -3.539062 74.757812 -2.75 76.71875 -2.375 L 76.71875 0 L 61.734375 0 C 58.378906 0 55.789062 -1.488281 53.96875 -4.46875 C 52.144531 -7.457031 50.535156 -11.195312 49.140625 -15.6875 C 48.484375 -17.832031 47.804688 -20.070312 47.109375 -22.40625 C 46.410156 -24.738281 45.640625 -26.976562 44.796875 -29.125 C 43.023438 -33.695312 40.832031 -37.195312 38.21875 -39.625 C 35.601562 -42.050781 31.679688 -43.265625 26.453125 -43.265625 L 24.5 -43.265625 L 24.5 -9.9375 C 24.5 -5.082031 26.691406 -2.515625 31.078125 -2.234375 L 31.078125 0 L 1.953125 0 L 1.953125 -2.375 C 4.109375 -2.46875 6 -3.070312 7.625 -4.1875 C 9.257812 -5.3125 10.078125 -7.226562 10.078125 -9.9375 L 10.078125 -80.78125 C 10.078125 -83.488281 9.257812 -85.425781 7.625 -86.59375 C 6 -87.757812 4.109375 -88.390625 1.953125 -88.484375 Z M 25.484375 -88.765625 L 24.5 -88.765625 L 24.5 -45.640625 L 25.484375 -45.640625 C 26.785156 -45.640625 28.226562 -45.640625 29.8125 -45.640625 C 31.40625 -45.640625 33.039062 -45.6875 34.71875 -45.78125 C 36.394531 -45.96875 38.050781 -46.175781 39.6875 -46.40625 C 41.320312 -46.644531 42.742188 -46.992188 43.953125 -47.453125 C 47.878906 -49.046875 50.679688 -51.773438 52.359375 -55.640625 C 54.035156 -59.515625 54.875 -63.367188 54.875 -67.203125 C 54.875 -71.023438 54.035156 -74.847656 52.359375 -78.671875 C 50.679688 -82.503906 47.878906 -85.210938 43.953125 -86.796875 C 42.742188 -87.265625 41.320312 -87.640625 39.6875 -87.921875 C 38.050781 -88.203125 36.394531 -88.390625 34.71875 -88.484375 C 33.039062 -88.671875 31.40625 -88.765625 29.8125 -88.765625 C 28.226562 -88.765625 26.785156 -88.765625 25.484375 -88.765625 Z M 25.484375 -88.765625 "/></g></g></g><g fill="#2d3e70" fill-opacity="1"><g transform="translate(645.582768, 407.762783)"><g><path d="M 3.5 -32.0625 C 3.5 -38.125 4.59375 -43.722656 6.78125 -48.859375 C 8.976562 -53.992188 12.222656 -58.125 16.515625 -61.25 C 20.804688 -64.375 26.128906 -65.9375 32.484375 -65.9375 C 37.984375 -65.9375 42.671875 -64.695312 46.546875 -62.21875 C 50.421875 -59.75 53.382812 -56.367188 55.4375 -52.078125 C 57.488281 -47.785156 58.515625 -42.976562 58.515625 -37.65625 L 58.515625 -37.234375 L 18.625 -37.234375 L 18.625 -35.28125 C 18.625 -32.289062 18.992188 -29.207031 19.734375 -26.03125 C 20.484375 -22.863281 21.648438 -19.898438 23.234375 -17.140625 C 24.828125 -14.390625 26.90625 -12.148438 29.46875 -10.421875 C 32.03125 -8.703125 35.179688 -7.84375 38.921875 -7.84375 C 42.367188 -7.84375 45.75 -8.65625 49.0625 -10.28125 C 52.382812 -11.914062 55.070312 -14.132812 57.125 -16.9375 L 58.375 -16.09375 C 55.582031 -10.6875 52.34375 -6.414062 48.65625 -3.28125 C 44.96875 -0.15625 39.8125 1.40625 33.1875 1.40625 C 26.738281 1.40625 21.320312 -0.0859375 16.9375 -3.078125 C 12.550781 -6.066406 9.210938 -10.101562 6.921875 -15.1875 C 4.640625 -20.269531 3.5 -25.894531 3.5 -32.0625 Z M 18.90625 -40.453125 L 18.90625 -39.484375 L 43.546875 -39.484375 L 43.546875 -40.453125 C 43.453125 -42.140625 43.191406 -44.265625 42.765625 -46.828125 C 42.347656 -49.398438 41.695312 -51.988281 40.8125 -54.59375 C 39.925781 -57.207031 38.734375 -59.398438 37.234375 -61.171875 C 35.742188 -62.953125 33.925781 -63.84375 31.78125 -63.84375 C 29.539062 -63.84375 27.648438 -62.953125 26.109375 -61.171875 C 24.566406 -59.398438 23.28125 -57.226562 22.25 -54.65625 C 21.226562 -52.09375 20.460938 -49.503906 19.953125 -46.890625 C 19.441406 -44.285156 19.09375 -42.140625 18.90625 -40.453125 Z M 18.90625 -40.453125 "/></g></g></g><g fill="#2d3e70" fill-opacity="1"><g transform="translate(707.739289, 407.762783)"><g><path d="M 0.984375 -91 L 22.125 -97.578125 L 22.125 -9.9375 C 22.125 -4.988281 24.316406 -2.46875 28.703125 -2.375 L 28.703125 0 L 0.984375 0 L 0.984375 -2.375 C 5.460938 -2.46875 7.703125 -4.988281 7.703125 -9.9375 L 7.703125 -80.78125 C 7.703125 -85.632812 5.460938 -88.203125 0.984375 -88.484375 Z M 0.984375 -91 "/></g></g></g><g fill="#2d3e70" fill-opacity="1"><g transform="translate(737.417629, 407.762783)"><g><path d="M 24.078125 1.265625 C 20.160156 1.265625 16.566406 0.566406 13.296875 -0.828125 C 10.035156 -2.234375 7.398438 -4.359375 5.390625 -7.203125 C 3.378906 -10.054688 2.375 -13.535156 2.375 -17.640625 C 2.375 -22.492188 3.492188 -26.578125 5.734375 -29.890625 C 7.972656 -33.203125 11.003906 -35.722656 14.828125 -37.453125 C 18.660156 -39.179688 22.863281 -40.046875 27.4375 -40.046875 C 29.113281 -40.046875 30.769531 -39.925781 32.40625 -39.6875 C 34.039062 -39.457031 35.601562 -39.015625 37.09375 -38.359375 L 38.5 -37.796875 L 38.5 -48.015625 C 38.5 -49.421875 38.453125 -51.101562 38.359375 -53.0625 C 38.265625 -55.019531 37.984375 -56.601562 37.515625 -57.8125 C 37.046875 -59.5 36.226562 -60.925781 35.0625 -62.09375 C 33.894531 -63.257812 32.191406 -63.84375 29.953125 -63.84375 C 27.160156 -63.84375 25.0625 -63.046875 23.65625 -61.453125 C 22.257812 -59.867188 21.347656 -57.957031 20.921875 -55.71875 C 20.503906 -53.476562 20.296875 -51.378906 20.296875 -49.421875 C 20.296875 -47.929688 19.476562 -46.8125 17.84375 -46.0625 C 16.21875 -45.3125 14.5625 -44.9375 12.875 -44.9375 C 11.289062 -44.9375 9.726562 -45.285156 8.1875 -45.984375 C 6.644531 -46.691406 5.875 -47.789062 5.875 -49.28125 C 5.875 -53.476562 7.132812 -56.789062 9.65625 -59.21875 C 12.175781 -61.644531 15.328125 -63.367188 19.109375 -64.390625 C 22.890625 -65.421875 26.597656 -65.9375 30.234375 -65.9375 C 37.046875 -65.9375 42.53125 -64.347656 46.6875 -61.171875 C 50.84375 -58.003906 52.921875 -52.921875 52.921875 -45.921875 L 52.921875 -10.5 C 52.921875 -10.21875 52.921875 -9.957031 52.921875 -9.71875 C 52.921875 -9.488281 52.921875 -9.234375 52.921875 -8.953125 C 52.921875 -8.679688 52.941406 -8.378906 52.984375 -8.046875 C 53.035156 -7.722656 53.109375 -7.421875 53.203125 -7.140625 C 53.390625 -6.578125 53.691406 -6.039062 54.109375 -5.53125 C 54.523438 -5.019531 55.203125 -4.765625 56.140625 -4.765625 C 57.171875 -4.765625 58.148438 -5.085938 59.078125 -5.734375 L 60.203125 -4.34375 C 58.703125 -2.570312 56.898438 -1.285156 54.796875 -0.484375 C 52.703125 0.304688 50.441406 0.703125 48.015625 0.703125 C 46.242188 0.703125 44.632812 0.328125 43.1875 -0.421875 C 41.738281 -1.171875 40.597656 -2.289062 39.765625 -3.78125 L 39.203125 -4.90625 L 38.21875 -4.0625 C 36.351562 -2.101562 34.207031 -0.726562 31.78125 0.0625 C 29.351562 0.863281 26.785156 1.265625 24.078125 1.265625 Z M 17.5 -17.078125 C 17.5 -14.929688 17.78125 -12.644531 18.34375 -10.21875 C 18.90625 -7.789062 19.953125 -5.738281 21.484375 -4.0625 C 23.023438 -2.382812 25.289062 -1.546875 28.28125 -1.546875 C 29.675781 -1.546875 31.164062 -1.894531 32.75 -2.59375 C 34.34375 -3.289062 35.695312 -4.289062 36.8125 -5.59375 C 37.9375 -6.90625 38.5 -8.398438 38.5 -10.078125 L 38.5 -35.84375 L 37.796875 -36.125 C 37.140625 -36.40625 36.414062 -36.585938 35.625 -36.671875 C 34.832031 -36.765625 34.0625 -36.8125 33.3125 -36.8125 C 29.488281 -36.8125 26.410156 -35.851562 24.078125 -33.9375 C 21.742188 -32.03125 20.0625 -29.5625 19.03125 -26.53125 C 18.007812 -23.5 17.5 -20.347656 17.5 -17.078125 Z M 17.5 -17.078125 "/></g></g></g><g fill="#2d3e70" fill-opacity="1"><g transform="translate(798.874207, 407.762783)"><g><path d="M 11.765625 32.0625 C 8.304688 32.0625 5.242188 30.960938 2.578125 28.765625 C -0.078125 26.578125 -1.40625 23.660156 -1.40625 20.015625 C -1.40625 17.960938 -0.679688 16.28125 0.765625 14.96875 C 2.210938 13.664062 3.914062 13.015625 5.875 13.015625 C 8.019531 13.015625 9.628906 13.664062 10.703125 14.96875 C 11.773438 16.28125 12.5 18.007812 12.875 20.15625 C 12.96875 20.71875 13.082031 21.320312 13.21875 21.96875 C 13.363281 22.625 13.625 23.234375 14 23.796875 C 14.28125 24.453125 14.695312 25.015625 15.25 25.484375 C 15.8125 25.953125 16.5625 26.1875 17.5 26.1875 C 19.363281 26.1875 21.132812 25.179688 22.8125 23.171875 C 24.5 21.160156 25.945312 19.035156 27.15625 16.796875 C 28.5625 14.367188 29.800781 11.960938 30.875 9.578125 C 31.945312 7.203125 32.757812 5.457031 33.3125 4.34375 L 33.453125 3.921875 L 11.0625 -52.359375 C 10.21875 -54.316406 8.742188 -56.460938 6.640625 -58.796875 C 4.546875 -61.128906 2.238281 -62.484375 -0.28125 -62.859375 L -0.28125 -65.09375 L 28.421875 -65.09375 L 28.421875 -62.859375 C 27.484375 -62.671875 26.664062 -62.25 25.96875 -61.59375 C 25.269531 -60.945312 24.921875 -59.96875 24.921875 -58.65625 C 24.921875 -57.914062 25.0625 -57.171875 25.34375 -56.421875 C 25.4375 -56.234375 25.550781 -56 25.6875 -55.71875 C 25.832031 -55.4375 25.953125 -55.109375 26.046875 -54.734375 L 42.140625 -13.859375 L 58.796875 -50.6875 C 59.359375 -51.988281 59.640625 -53.335938 59.640625 -54.734375 C 59.640625 -56.972656 59.007812 -58.648438 57.75 -59.765625 C 56.488281 -60.890625 54.992188 -61.6875 53.265625 -62.15625 C 51.546875 -62.625 49.9375 -62.859375 48.4375 -62.859375 L 48.4375 -65.09375 L 73.21875 -65.09375 L 73.21875 -62.71875 C 71.632812 -62.4375 70.070312 -61.617188 68.53125 -60.265625 C 66.988281 -58.910156 65.65625 -57.441406 64.53125 -55.859375 C 63.414062 -54.273438 62.578125 -52.875 62.015625 -51.65625 L 37.515625 0.5625 C 36.492188 2.707031 35.46875 4.898438 34.4375 7.140625 C 33.414062 9.378906 32.390625 11.617188 31.359375 13.859375 C 30.054688 16.378906 28.515625 19.0625 26.734375 21.90625 C 24.960938 24.757812 22.835938 27.164062 20.359375 29.125 C 17.890625 31.082031 15.023438 32.0625 11.765625 32.0625 Z M 11.765625 32.0625 "/></g></g></g><g fill="#ffffff" fill-opacity="1"><g transform="translate(81.000002, 777.374981)"><g><path d="M 5.140625 -5.015625 L 2.890625 -5.015625 L 2.890625 0 L 1.34375 0 L 1.34375 -12.59375 L 5.640625 -12.59375 C 6.648438 -12.59375 7.484375 -12.40625 8.140625 -12.03125 C 8.796875 -11.664062 9.265625 -11.191406 9.546875 -10.609375 C 9.835938 -10.035156 9.984375 -9.429688 9.984375 -8.796875 C 9.984375 -7.921875 9.722656 -7.132812 9.203125 -6.4375 C 8.679688 -5.75 7.867188 -5.304688 6.765625 -5.109375 L 10.09375 0 L 8.390625 0 Z M 2.890625 -6.359375 L 5.4375 -6.359375 C 6.289062 -6.359375 7.007812 -6.539062 7.59375 -6.90625 C 8.1875 -7.28125 8.484375 -7.910156 8.484375 -8.796875 C 8.484375 -9.671875 8.1875 -10.289062 7.59375 -10.65625 C 7.007812 -11.019531 6.289062 -11.203125 5.4375 -11.203125 L 2.890625 -11.203125 Z M 2.890625 -6.359375 "/></g></g></g><g fill="#ffffff" fill-opacity="1"><g transform="translate(91.88997, 777.374981)"><g><path d="M 4.71875 0.015625 L 4.71875 -4.546875 L 0.609375 -12.59375 L 2.296875 -12.59375 L 5.4375 -6.296875 L 5.5625 -6.296875 L 8.671875 -12.59375 L 10.375 -12.59375 L 6.28125 -4.546875 L 6.28125 0 Z M 4.71875 0.015625 "/></g></g></g><g fill="#ffffff" fill-opacity="1"><g transform="translate(102.941941, 777.374981)"><g><path d="M 8.6875 -3.671875 L 3.5625 -3.671875 L 2.234375 0 L 0.640625 0 L 5.375 -12.59375 L 6.859375 -12.59375 L 11.625 0 L 10.046875 0 Z M 8.25 -4.90625 L 6.140625 -10.625 L 6.0625 -10.625 L 4.015625 -4.90625 Z M 8.25 -4.90625 "/></g></g></g><g fill="#ffffff" fill-opacity="1"><g transform="translate(115.1819, 777.374981)"><g><path d="M 1.34375 -12.59375 L 3.09375 -12.59375 L 9.84375 -2.484375 L 9.921875 -2.484375 L 9.921875 -12.59375 L 11.453125 -12.59375 L 11.453125 0 L 9.6875 0 L 2.953125 -9.96875 L 2.875 -9.96875 L 2.875 0 L 1.34375 0 Z M 1.34375 -12.59375 "/></g></g></g><g fill="#ffffff" fill-opacity="1"><g transform="translate(127.979862, 777.374981)"><g/></g></g><g fill="#ffffff" fill-opacity="1"><g transform="translate(132.119854, 777.374981)"><g><path d="M 1.40625 -12.59375 L 2.96875 -12.59375 L 2.96875 0 L 1.40625 0 Z M 1.40625 -12.59375 "/></g></g></g><g fill="#ffffff" fill-opacity="1"><g transform="translate(136.493843, 777.374981)"><g><path d="M 1.34375 -12.59375 L 6.390625 -12.59375 C 7.234375 -12.59375 7.921875 -12.429688 8.453125 -12.109375 C 8.984375 -11.785156 9.363281 -11.378906 9.59375 -10.890625 C 9.820312 -10.410156 9.9375 -9.910156 9.9375 -9.390625 C 9.9375 -8.859375 9.820312 -8.390625 9.59375 -7.984375 C 9.363281 -7.585938 9.085938 -7.28125 8.765625 -7.0625 C 8.441406 -6.851562 8.132812 -6.71875 7.84375 -6.65625 L 7.84375 -6.546875 C 8.15625 -6.523438 8.519531 -6.414062 8.9375 -6.21875 C 9.351562 -6.019531 9.71875 -5.703125 10.03125 -5.265625 C 10.351562 -4.828125 10.515625 -4.269531 10.515625 -3.59375 C 10.515625 -3 10.378906 -2.425781 10.109375 -1.875 C 9.835938 -1.332031 9.410156 -0.882812 8.828125 -0.53125 C 8.253906 -0.175781 7.535156 0 6.671875 0 L 1.34375 0 Z M 5.9375 -7.078125 C 6.625 -7.078125 7.210938 -7.253906 7.703125 -7.609375 C 8.191406 -7.960938 8.4375 -8.507812 8.4375 -9.25 C 8.4375 -9.957031 8.195312 -10.472656 7.71875 -10.796875 C 7.25 -11.117188 6.65625 -11.28125 5.9375 -11.28125 L 2.859375 -11.28125 L 2.859375 -7.078125 Z M 6.28125 -1.3125 C 7.0625 -1.3125 7.707031 -1.488281 8.21875 -1.84375 C 8.738281 -2.207031 9 -2.800781 9 -3.625 C 9 -4.425781 8.738281 -4.992188 8.21875 -5.328125 C 7.707031 -5.671875 7.0625 -5.84375 6.28125 -5.84375 L 2.859375 -5.84375 L 2.859375 -1.3125 Z M 6.28125 -1.3125 "/></g></g></g><g fill="#ffffff" fill-opacity="1"><g transform="translate(147.725806, 777.374981)"><g><path d="M 5.140625 -5.015625 L 2.890625 -5.015625 L 2.890625 0 L 1.34375 0 L 1.34375 -12.59375 L 5.640625 -12.59375 C 6.648438 -12.59375 7.484375 -12.40625 8.140625 -12.03125 C 8.796875 -11.664062 9.265625 -11.191406 9.546875 -10.609375 C 9.835938 -10.035156 9.984375 -9.429688 9.984375 -8.796875 C 9.984375 -7.921875 9.722656 -7.132812 9.203125 -6.4375 C 8.679688 -5.75 7.867188 -5.304688 6.765625 -5.109375 L 10.09375 0 L 8.390625 0 Z M 2.890625 -6.359375 L 5.4375 -6.359375 C 6.289062 -6.359375 7.007812 -6.539062 7.59375 -6.90625 C 8.1875 -7.28125 8.484375 -7.910156 8.484375 -8.796875 C 8.484375 -9.671875 8.1875 -10.289062 7.59375 -10.65625 C 7.007812 -11.019531 6.289062 -11.203125 5.4375 -11.203125 L 2.890625 -11.203125 Z M 2.890625 -6.359375 "/></g></g></g><g fill="#ffffff" fill-opacity="1"><g transform="translate(158.615775, 777.374981)"><g><path d="M 8.6875 -3.671875 L 3.5625 -3.671875 L 2.234375 0 L 0.640625 0 L 5.375 -12.59375 L 6.859375 -12.59375 L 11.625 0 L 10.046875 0 Z M 8.25 -4.90625 L 6.140625 -10.625 L 6.0625 -10.625 L 4.015625 -4.90625 Z M 8.25 -4.90625 "/></g></g></g><g fill="#ffffff" fill-opacity="1"><g transform="translate(170.855734, 777.374981)"><g><path d="M 10.875 -12.59375 L 10.875 0 L 9.3125 0 L 9.3125 -5.703125 L 2.890625 -5.703125 L 2.890625 0 L 1.34375 0 L 1.34375 -12.59375 L 2.890625 -12.59375 L 2.890625 -6.96875 L 9.3125 -6.96875 L 9.3125 -12.59375 Z M 10.875 -12.59375 "/></g></g></g><g fill="#ffffff" fill-opacity="1"><g transform="translate(183.077703, 777.374981)"><g><path d="M 1.40625 -12.59375 L 2.96875 -12.59375 L 2.96875 0 L 1.40625 0 Z M 1.40625 -12.59375 "/></g></g></g><g fill="#ffffff" fill-opacity="1"><g transform="translate(187.451692, 777.374981)"><g><path d="M 1.34375 -12.59375 L 3.640625 -12.59375 L 7.375 -2.953125 L 7.4375 -2.953125 L 11.171875 -12.59375 L 13.46875 -12.59375 L 13.46875 0 L 11.9375 0 L 11.9375 -10.203125 L 11.859375 -10.203125 L 7.953125 0 L 6.84375 0 L 2.953125 -10.203125 L 2.875 -10.203125 L 2.875 0 L 1.34375 0 Z M 1.34375 -12.59375 "/></g></g></g><g fill="#202020" fill-opacity="1"><g transform="translate(81.000002, 703.145793)"><g><path d="M 8.265625 0.21875 C 6.804688 0.21875 5.554688 -0.0820312 4.515625 -0.6875 C 3.484375 -1.289062 2.707031 -2.066406 2.1875 -3.015625 C 1.664062 -3.972656 1.40625 -4.972656 1.40625 -6.015625 L 1.40625 -6.15625 L 3.96875 -6.15625 L 3.96875 -6.015625 C 3.96875 -5.390625 4.113281 -4.757812 4.40625 -4.125 C 4.707031 -3.5 5.179688 -2.972656 5.828125 -2.546875 C 6.472656 -2.128906 7.300781 -1.921875 8.3125 -1.921875 C 9.5 -1.921875 10.476562 -2.222656 11.25 -2.828125 C 12.03125 -3.441406 12.421875 -4.269531 12.421875 -5.3125 C 12.421875 -6.175781 12.132812 -6.863281 11.5625 -7.375 C 11 -7.894531 10.273438 -8.242188 9.390625 -8.421875 L 6.640625 -8.9375 C 3.472656 -9.632812 1.890625 -11.300781 1.890625 -13.9375 C 1.890625 -15.007812 2.148438 -15.953125 2.671875 -16.765625 C 3.191406 -17.578125 3.914062 -18.203125 4.84375 -18.640625 C 5.769531 -19.085938 6.847656 -19.3125 8.078125 -19.3125 C 9.460938 -19.3125 10.648438 -19.03125 11.640625 -18.46875 C 12.628906 -17.90625 13.375 -17.175781 13.875 -16.28125 C 14.382812 -15.394531 14.640625 -14.476562 14.640625 -13.53125 L 14.640625 -13.421875 L 12.0625 -13.421875 L 12.0625 -13.5 C 12.0625 -14.039062 11.929688 -14.59375 11.671875 -15.15625 C 11.410156 -15.726562 10.976562 -16.21875 10.375 -16.625 C 9.78125 -17.039062 8.984375 -17.25 7.984375 -17.25 C 6.859375 -17.25 5.957031 -16.929688 5.28125 -16.296875 C 4.601562 -15.671875 4.265625 -14.890625 4.265625 -13.953125 C 4.265625 -13.160156 4.523438 -12.515625 5.046875 -12.015625 C 5.566406 -11.515625 6.28125 -11.171875 7.1875 -10.984375 L 9.671875 -10.5 C 13.140625 -9.800781 14.875 -8.101562 14.875 -5.40625 C 14.875 -4.300781 14.597656 -3.328125 14.046875 -2.484375 C 13.503906 -1.640625 12.726562 -0.976562 11.71875 -0.5 C 10.707031 -0.0195312 9.554688 0.21875 8.265625 0.21875 Z M 8.265625 0.21875 "/></g></g></g><g fill="#202020" fill-opacity="1"><g transform="translate(97.165937, 703.145793)"><g><path d="M 8.046875 0.1875 C 6.609375 0.1875 5.390625 -0.15625 4.390625 -0.84375 C 3.390625 -1.539062 2.632812 -2.453125 2.125 -3.578125 C 1.625 -4.703125 1.375 -5.910156 1.375 -7.203125 C 1.375 -8.503906 1.625 -9.71875 2.125 -10.84375 C 2.632812 -11.96875 3.390625 -12.875 4.390625 -13.5625 C 5.390625 -14.257812 6.609375 -14.609375 8.046875 -14.609375 C 9.484375 -14.609375 10.703125 -14.257812 11.703125 -13.5625 C 12.703125 -12.875 13.445312 -11.960938 13.9375 -10.828125 C 14.4375 -9.691406 14.6875 -8.484375 14.6875 -7.203125 C 14.6875 -5.929688 14.429688 -4.726562 13.921875 -3.59375 C 13.421875 -2.457031 12.671875 -1.539062 11.671875 -0.84375 C 10.671875 -0.15625 9.460938 0.1875 8.046875 0.1875 Z M 8.046875 -1.8125 C 8.929688 -1.8125 9.703125 -2.050781 10.359375 -2.53125 C 11.015625 -3.019531 11.507812 -3.671875 11.84375 -4.484375 C 12.1875 -5.304688 12.359375 -6.222656 12.359375 -7.234375 C 12.359375 -8.785156 11.972656 -10.070312 11.203125 -11.09375 C 10.429688 -12.125 9.378906 -12.640625 8.046875 -12.640625 C 7.148438 -12.640625 6.367188 -12.394531 5.703125 -11.90625 C 5.046875 -11.414062 4.546875 -10.757812 4.203125 -9.9375 C 3.867188 -9.125 3.703125 -8.222656 3.703125 -7.234375 C 3.703125 -5.679688 4.085938 -4.390625 4.859375 -3.359375 C 5.628906 -2.328125 6.691406 -1.8125 8.046875 -1.8125 Z M 8.046875 -1.8125 "/></g></g></g><g fill="#202020" fill-opacity="1"><g transform="translate(113.22392, 703.145793)"><g><path d="M 14.421875 0 L 12.0625 0 L 12.0625 -2.703125 L 11.90625 -2.703125 C 11.53125 -1.867188 10.945312 -1.164062 10.15625 -0.59375 C 9.375 -0.03125 8.421875 0.25 7.296875 0.25 C 6.109375 0.25 5.113281 -0.0351562 4.3125 -0.609375 C 3.519531 -1.191406 2.941406 -1.941406 2.578125 -2.859375 C 2.210938 -3.773438 2.03125 -4.773438 2.03125 -5.859375 L 2.03125 -14.234375 L 4.34375 -14.234375 L 4.34375 -6.15625 C 4.34375 -4.769531 4.691406 -3.703125 5.390625 -2.953125 C 6.097656 -2.210938 7.019531 -1.84375 8.15625 -1.84375 C 9.34375 -1.84375 10.289062 -2.238281 11 -3.03125 C 11.707031 -3.832031 12.0625 -4.875 12.0625 -6.15625 L 12.0625 -14.234375 L 14.421875 -14.234375 Z M 14.421875 0 "/></g></g></g><g fill="#202020" fill-opacity="1"><g transform="translate(129.470822, 703.145793)"><g><path d="M 1.921875 -14.234375 L 4.234375 -14.234375 L 4.234375 -11.96875 L 4.40625 -11.96875 C 4.632812 -12.59375 5.050781 -13.125 5.65625 -13.5625 C 6.257812 -14.007812 7.019531 -14.234375 7.9375 -14.234375 C 8.226562 -14.234375 8.457031 -14.21875 8.625 -14.1875 C 8.800781 -14.15625 8.992188 -14.109375 9.203125 -14.046875 L 9.125 -11.765625 C 8.832031 -11.859375 8.582031 -11.921875 8.375 -11.953125 C 8.175781 -11.992188 7.914062 -12.015625 7.59375 -12.015625 C 5.351562 -12.015625 4.234375 -10.691406 4.234375 -8.046875 L 4.234375 0 L 1.921875 0 Z M 1.921875 -14.234375 "/></g></g></g><g fill="#202020" fill-opacity="1"><g transform="translate(138.997662, 703.145793)"><g><path d="M 8.09375 0.1875 C 6.625 0.1875 5.378906 -0.160156 4.359375 -0.859375 C 3.335938 -1.566406 2.582031 -2.484375 2.09375 -3.609375 C 1.613281 -4.734375 1.375 -5.929688 1.375 -7.203125 C 1.375 -8.484375 1.613281 -9.6875 2.09375 -10.8125 C 2.582031 -11.9375 3.335938 -12.847656 4.359375 -13.546875 C 5.378906 -14.253906 6.625 -14.609375 8.09375 -14.609375 C 9.9375 -14.609375 11.382812 -14.078125 12.4375 -13.015625 C 13.488281 -11.953125 14.125 -10.644531 14.34375 -9.09375 L 12.0625 -9.09375 C 11.90625 -10.144531 11.492188 -11 10.828125 -11.65625 C 10.160156 -12.3125 9.257812 -12.640625 8.125 -12.640625 C 6.6875 -12.640625 5.59375 -12.117188 4.84375 -11.078125 C 4.09375 -10.046875 3.71875 -8.753906 3.71875 -7.203125 C 3.71875 -5.660156 4.09375 -4.367188 4.84375 -3.328125 C 5.59375 -2.296875 6.6875 -1.78125 8.125 -1.78125 C 9.257812 -1.78125 10.160156 -2.101562 10.828125 -2.75 C 11.492188 -3.394531 11.90625 -4.25 12.0625 -5.3125 L 14.34375 -5.3125 C 14.125 -3.769531 13.488281 -2.46875 12.4375 -1.40625 C 11.382812 -0.34375 9.9375 0.1875 8.09375 0.1875 Z M 8.09375 0.1875 "/></g></g></g><g fill="#202020" fill-opacity="1"><g transform="translate(154.542869, 703.145793)"><g><path d="M 8.015625 0.1875 C 6.554688 0.1875 5.328125 -0.160156 4.328125 -0.859375 C 3.328125 -1.566406 2.582031 -2.484375 2.09375 -3.609375 C 1.613281 -4.742188 1.375 -5.941406 1.375 -7.203125 C 1.375 -8.484375 1.613281 -9.6875 2.09375 -10.8125 C 2.582031 -11.9375 3.332031 -12.847656 4.34375 -13.546875 C 5.351562 -14.253906 6.585938 -14.609375 8.046875 -14.609375 C 9.953125 -14.609375 11.476562 -13.96875 12.625 -12.6875 C 13.769531 -11.40625 14.34375 -9.570312 14.34375 -7.1875 L 14.34375 -6.53125 L 3.703125 -6.53125 L 3.703125 -6.34375 C 3.703125 -5.550781 3.878906 -4.800781 4.234375 -4.09375 C 4.597656 -3.394531 5.101562 -2.828125 5.75 -2.390625 C 6.394531 -1.960938 7.140625 -1.75 7.984375 -1.75 C 8.910156 -1.75 9.703125 -1.984375 10.359375 -2.453125 C 11.023438 -2.921875 11.523438 -3.550781 11.859375 -4.34375 L 14.140625 -4.34375 C 13.765625 -3.050781 13.054688 -1.972656 12.015625 -1.109375 C 10.984375 -0.242188 9.648438 0.1875 8.015625 0.1875 Z M 12.046875 -8.1875 C 11.972656 -9.800781 11.578125 -10.96875 10.859375 -11.6875 C 10.140625 -12.40625 9.191406 -12.765625 8.015625 -12.765625 C 6.742188 -12.765625 5.726562 -12.34375 4.96875 -11.5 C 4.207031 -10.65625 3.800781 -9.550781 3.75 -8.1875 Z M 12.046875 -8.1875 "/></g></g></g><g fill="#202020" fill-opacity="1"><g transform="translate(170.276995, 703.145793)"><g/></g></g><g fill="#202020" fill-opacity="1"><g transform="translate(176.484282, 703.145793)"><g><path d="M 3.515625 0.1875 C 3.066406 0.1875 2.691406 0.03125 2.390625 -0.28125 C 2.097656 -0.59375 1.953125 -0.96875 1.953125 -1.40625 C 1.953125 -1.832031 2.097656 -2.191406 2.390625 -2.484375 C 2.691406 -2.785156 3.066406 -2.9375 3.515625 -2.9375 C 3.960938 -2.9375 4.332031 -2.785156 4.625 -2.484375 C 4.925781 -2.191406 5.078125 -1.832031 5.078125 -1.40625 C 5.078125 -0.96875 4.921875 -0.59375 4.609375 -0.28125 C 4.304688 0.03125 3.941406 0.1875 3.515625 0.1875 Z M 3.515625 -10.96875 C 3.066406 -10.96875 2.691406 -11.125 2.390625 -11.4375 C 2.097656 -11.75 1.953125 -12.125 1.953125 -12.5625 C 1.953125 -12.988281 2.097656 -13.347656 2.390625 -13.640625 C 2.691406 -13.941406 3.066406 -14.09375 3.515625 -14.09375 C 3.960938 -14.09375 4.332031 -13.941406 4.625 -13.640625 C 4.925781 -13.347656 5.078125 -12.988281 5.078125 -12.5625 C 5.078125 -12.125 4.921875 -11.75 4.609375 -11.4375 C 4.304688 -11.125 3.941406 -10.96875 3.515625 -10.96875 Z M 3.515625 -10.96875 "/></g></g></g><g fill="#202020" fill-opacity="1"><g transform="translate(184.391828, 703.145793)"><g/></g></g><g fill="#202020" fill-opacity="1"><g transform="translate(190.599115, 703.145793)"><g><path d="M 7.71875 -7.53125 L 4.34375 -7.53125 L 4.34375 0 L 2.03125 0 L 2.03125 -18.90625 L 8.453125 -18.90625 C 9.984375 -18.90625 11.238281 -18.625 12.21875 -18.0625 C 13.195312 -17.5 13.898438 -16.785156 14.328125 -15.921875 C 14.765625 -15.066406 14.984375 -14.160156 14.984375 -13.203125 C 14.984375 -11.890625 14.59375 -10.707031 13.8125 -9.65625 C 13.03125 -8.613281 11.8125 -7.953125 10.15625 -7.671875 L 15.140625 0 L 12.578125 0 Z M 4.34375 -9.53125 L 8.15625 -9.53125 C 9.4375 -9.53125 10.515625 -9.804688 11.390625 -10.359375 C 12.273438 -10.921875 12.71875 -11.867188 12.71875 -13.203125 C 12.71875 -14.515625 12.273438 -15.441406 11.390625 -15.984375 C 10.515625 -16.523438 9.4375 -16.796875 8.15625 -16.796875 L 4.34375 -16.796875 Z M 4.34375 -9.53125 "/></g></g></g><g fill="#202020" fill-opacity="1"><g transform="translate(206.926984, 703.145793)"><g><path d="M 8.015625 0.1875 C 6.554688 0.1875 5.328125 -0.160156 4.328125 -0.859375 C 3.328125 -1.566406 2.582031 -2.484375 2.09375 -3.609375 C 1.613281 -4.742188 1.375 -5.941406 1.375 -7.203125 C 1.375 -8.484375 1.613281 -9.6875 2.09375 -10.8125 C 2.582031 -11.9375 3.332031 -12.847656 4.34375 -13.546875 C 5.351562 -14.253906 6.585938 -14.609375 8.046875 -14.609375 C 9.953125 -14.609375 11.476562 -13.96875 12.625 -12.6875 C 13.769531 -11.40625 14.34375 -9.570312 14.34375 -7.1875 L 14.34375 -6.53125 L 3.703125 -6.53125 L 3.703125 -6.34375 C 3.703125 -5.550781 3.878906 -4.800781 4.234375 -4.09375 C 4.597656 -3.394531 5.101562 -2.828125 5.75 -2.390625 C 6.394531 -1.960938 7.140625 -1.75 7.984375 -1.75 C 8.910156 -1.75 9.703125 -1.984375 10.359375 -2.453125 C 11.023438 -2.921875 11.523438 -3.550781 11.859375 -4.34375 L 14.140625 -4.34375 C 13.765625 -3.050781 13.054688 -1.972656 12.015625 -1.109375 C 10.984375 -0.242188 9.648438 0.1875 8.015625 0.1875 Z M 12.046875 -8.1875 C 11.972656 -9.800781 11.578125 -10.96875 10.859375 -11.6875 C 10.140625 -12.40625 9.191406 -12.765625 8.015625 -12.765625 C 6.742188 -12.765625 5.726562 -12.34375 4.96875 -11.5 C 4.207031 -10.65625 3.800781 -9.550781 3.75 -8.1875 Z M 12.046875 -8.1875 "/></g></g></g><g fill="#202020" fill-opacity="1"><g transform="translate(222.66111, 703.145793)"><g><path d="M 5.671875 0.109375 C 4.609375 0.109375 3.816406 -0.0625 3.296875 -0.40625 C 2.773438 -0.75 2.445312 -1.191406 2.3125 -1.734375 C 2.175781 -2.285156 2.109375 -3.003906 2.109375 -3.890625 L 2.140625 -20.25 L 4.453125 -20.25 L 4.453125 -4.234375 C 4.453125 -3.554688 4.484375 -3.050781 4.546875 -2.71875 C 4.609375 -2.382812 4.78125 -2.117188 5.0625 -1.921875 C 5.34375 -1.722656 5.789062 -1.625 6.40625 -1.625 C 6.78125 -1.625 7.109375 -1.648438 7.390625 -1.703125 L 7.390625 -0.03125 C 6.910156 0.0625 6.335938 0.109375 5.671875 0.109375 Z M 5.671875 0.109375 "/></g></g></g><g fill="#202020" fill-opacity="1"><g transform="translate(231.135402, 703.145793)"><g><path d="M 7.234375 0.1875 C 5.972656 0.1875 4.894531 -0.132812 4 -0.78125 C 3.113281 -1.425781 2.4375 -2.304688 1.96875 -3.421875 C 1.5 -4.546875 1.265625 -5.804688 1.265625 -7.203125 C 1.265625 -8.609375 1.503906 -9.875 1.984375 -11 C 2.460938 -12.125 3.15625 -13.003906 4.0625 -13.640625 C 4.96875 -14.285156 6.050781 -14.609375 7.3125 -14.609375 C 8.570312 -14.609375 9.585938 -14.3125 10.359375 -13.71875 C 11.140625 -13.125 11.726562 -12.410156 12.125 -11.578125 L 12.3125 -11.578125 L 12.3125 -14.234375 L 14.65625 -14.234375 L 14.65625 0 L 12.3125 0 L 12.3125 -2.921875 L 12.125 -2.921875 C 11.6875 -2.066406 11.070312 -1.332031 10.28125 -0.71875 C 9.488281 -0.113281 8.472656 0.1875 7.234375 0.1875 Z M 7.96875 -1.8125 C 9.351562 -1.8125 10.414062 -2.328125 11.15625 -3.359375 C 11.894531 -4.390625 12.265625 -5.671875 12.265625 -7.203125 C 12.265625 -8.734375 11.894531 -10.015625 11.15625 -11.046875 C 10.414062 -12.085938 9.351562 -12.609375 7.96875 -12.609375 C 6.539062 -12.609375 5.460938 -12.09375 4.734375 -11.0625 C 4.003906 -10.039062 3.640625 -8.765625 3.640625 -7.234375 C 3.640625 -5.679688 4.003906 -4.390625 4.734375 -3.359375 C 5.460938 -2.328125 6.539062 -1.8125 7.96875 -1.8125 Z M 7.96875 -1.8125 "/></g></g></g><g fill="#202020" fill-opacity="1"><g transform="translate(247.868094, 703.145793)"><g><path d="M 7.296875 1.96875 C 7.003906 2.65625 6.726562 3.21875 6.46875 3.65625 C 6.207031 4.09375 5.78125 4.507812 5.1875 4.90625 C 4.59375 5.3125 3.816406 5.515625 2.859375 5.515625 C 2.359375 5.515625 1.816406 5.441406 1.234375 5.296875 L 1.234375 3.5625 C 1.671875 3.632812 2.050781 3.671875 2.375 3.671875 C 2.96875 3.671875 3.441406 3.554688 3.796875 3.328125 C 4.160156 3.109375 4.445312 2.816406 4.65625 2.453125 C 4.863281 2.097656 5.113281 1.578125 5.40625 0.890625 L 6.046875 -0.703125 L 0.78125 -14.234375 L 3.21875 -14.234375 L 7.1875 -3.265625 L 7.34375 -3.265625 L 11.5 -14.234375 L 13.9375 -14.234375 Z M 7.296875 1.96875 "/></g></g></g><g fill="#202020" fill-opacity="1"><g transform="translate(262.360766, 703.145793)"><g/></g></g><g fill="#202020" fill-opacity="1"><g transform="translate(268.568052, 703.145793)"><g><path d="M 9.609375 5.75 C 8.472656 5.03125 7.40625 4.046875 6.40625 2.796875 C 5.40625 1.554688 4.585938 0.0351562 3.953125 -1.765625 C 3.316406 -3.578125 3 -5.585938 3 -7.796875 C 3 -10.109375 3.332031 -12.1875 4 -14.03125 C 4.664062 -15.875 5.492188 -17.398438 6.484375 -18.609375 C 7.484375 -19.828125 8.515625 -20.753906 9.578125 -21.390625 L 10.28125 -20.6875 C 9.550781 -20 8.8125 -19.050781 8.0625 -17.84375 C 7.3125 -16.632812 6.679688 -15.164062 6.171875 -13.4375 C 5.660156 -11.71875 5.40625 -9.835938 5.40625 -7.796875 C 5.40625 -5.765625 5.664062 -3.882812 6.1875 -2.15625 C 6.707031 -0.425781 7.335938 1.035156 8.078125 2.234375 C 8.816406 3.441406 9.550781 4.378906 10.28125 5.046875 Z M 9.609375 5.75 "/></g></g></g><g fill="#202020" fill-opacity="1"><g transform="translate(280.982614, 703.145793)"><g><path d="M 13.046875 -5.515625 L 5.34375 -5.515625 L 3.34375 0 L 0.96875 0 L 8.078125 -18.90625 L 10.28125 -18.90625 L 17.4375 0 L 15.0625 0 Z M 12.359375 -7.375 L 9.203125 -15.9375 L 9.09375 -15.9375 L 6.015625 -7.375 Z M 12.359375 -7.375 "/></g></g></g><g fill="#202020" fill-opacity="1"><g transform="translate(299.334587, 703.145793)"><g><path d="M 6.890625 0.1875 C 5.734375 0.1875 4.734375 -0.0390625 3.890625 -0.5 C 3.046875 -0.957031 2.398438 -1.546875 1.953125 -2.265625 C 1.515625 -2.984375 1.296875 -3.738281 1.296875 -4.53125 L 1.296875 -4.671875 L 3.625 -4.671875 L 3.625 -4.5625 C 3.625 -4.113281 3.75 -3.664062 4 -3.21875 C 4.25 -2.78125 4.625 -2.421875 5.125 -2.140625 C 5.632812 -1.867188 6.25 -1.734375 6.96875 -1.734375 C 7.832031 -1.734375 8.546875 -1.941406 9.109375 -2.359375 C 9.679688 -2.785156 9.96875 -3.367188 9.96875 -4.109375 C 9.96875 -4.710938 9.742188 -5.195312 9.296875 -5.5625 C 8.859375 -5.925781 8.304688 -6.160156 7.640625 -6.265625 L 5.78125 -6.53125 C 4.601562 -6.707031 3.617188 -7.109375 2.828125 -7.734375 C 2.035156 -8.359375 1.640625 -9.265625 1.640625 -10.453125 C 1.640625 -11.765625 2.113281 -12.785156 3.0625 -13.515625 C 4.007812 -14.242188 5.222656 -14.609375 6.703125 -14.609375 C 7.796875 -14.609375 8.734375 -14.40625 9.515625 -14 C 10.296875 -13.59375 10.894531 -13.0625 11.3125 -12.40625 C 11.726562 -11.75 11.9375 -11.035156 11.9375 -10.265625 L 11.9375 -10.15625 L 9.609375 -10.15625 L 9.609375 -10.203125 C 9.609375 -10.566406 9.515625 -10.945312 9.328125 -11.34375 C 9.140625 -11.738281 8.816406 -12.078125 8.359375 -12.359375 C 7.910156 -12.648438 7.335938 -12.796875 6.640625 -12.796875 C 5.773438 -12.796875 5.082031 -12.582031 4.5625 -12.15625 C 4.039062 -11.738281 3.78125 -11.1875 3.78125 -10.5 C 3.78125 -9.945312 3.984375 -9.488281 4.390625 -9.125 C 4.804688 -8.769531 5.332031 -8.535156 5.96875 -8.421875 L 7.984375 -8.09375 C 9.179688 -7.894531 10.179688 -7.484375 10.984375 -6.859375 C 11.796875 -6.242188 12.203125 -5.332031 12.203125 -4.125 C 12.203125 -3.257812 11.972656 -2.503906 11.515625 -1.859375 C 11.054688 -1.210938 10.421875 -0.707031 9.609375 -0.34375 C 8.796875 0.0078125 7.890625 0.1875 6.890625 0.1875 Z M 6.890625 0.1875 "/></g></g></g><g fill="#202020" fill-opacity="1"><g transform="translate(312.720741, 703.145793)"><g><path d="M 8.015625 0.1875 C 6.554688 0.1875 5.328125 -0.160156 4.328125 -0.859375 C 3.328125 -1.566406 2.582031 -2.484375 2.09375 -3.609375 C 1.613281 -4.742188 1.375 -5.941406 1.375 -7.203125 C 1.375 -8.484375 1.613281 -9.6875 2.09375 -10.8125 C 2.582031 -11.9375 3.332031 -12.847656 4.34375 -13.546875 C 5.351562 -14.253906 6.585938 -14.609375 8.046875 -14.609375 C 9.953125 -14.609375 11.476562 -13.96875 12.625 -12.6875 C 13.769531 -11.40625 14.34375 -9.570312 14.34375 -7.1875 L 14.34375 -6.53125 L 3.703125 -6.53125 L 3.703125 -6.34375 C 3.703125 -5.550781 3.878906 -4.800781 4.234375 -4.09375 C 4.597656 -3.394531 5.101562 -2.828125 5.75 -2.390625 C 6.394531 -1.960938 7.140625 -1.75 7.984375 -1.75 C 8.910156 -1.75 9.703125 -1.984375 10.359375 -2.453125 C 11.023438 -2.921875 11.523438 -3.550781 11.859375 -4.34375 L 14.140625 -4.34375 C 13.765625 -3.050781 13.054688 -1.972656 12.015625 -1.109375 C 10.984375 -0.242188 9.648438 0.1875 8.015625 0.1875 Z M 12.046875 -8.1875 C 11.972656 -9.800781 11.578125 -10.96875 10.859375 -11.6875 C 10.140625 -12.40625 9.191406 -12.765625 8.015625 -12.765625 C 6.742188 -12.765625 5.726562 -12.34375 4.96875 -11.5 C 4.207031 -10.65625 3.800781 -9.550781 3.75 -8.1875 Z M 12.046875 -8.1875 "/></g></g></g><g fill="#202020" fill-opacity="1"><g transform="translate(328.454856, 703.145793)"><g><path d="M 9.421875 0.1875 C 8.179688 0.1875 7.164062 -0.113281 6.375 -0.71875 C 5.582031 -1.332031 4.96875 -2.066406 4.53125 -2.921875 L 4.34375 -2.921875 L 4.34375 5.484375 L 2 5.484375 L 2 -14.234375 L 4.34375 -14.234375 L 4.34375 -11.578125 L 4.53125 -11.578125 C 4.925781 -12.410156 5.507812 -13.125 6.28125 -13.71875 C 7.0625 -14.3125 8.082031 -14.609375 9.34375 -14.609375 C 10.625 -14.609375 11.71875 -14.285156 12.625 -13.640625 C 13.53125 -13.003906 14.21875 -12.125 14.6875 -11 C 15.15625 -9.875 15.390625 -8.609375 15.390625 -7.203125 C 15.390625 -5.804688 15.15625 -4.546875 14.6875 -3.421875 C 14.21875 -2.304688 13.53125 -1.425781 12.625 -0.78125 C 11.726562 -0.132812 10.660156 0.1875 9.421875 0.1875 Z M 8.6875 -1.8125 C 10.09375 -1.8125 11.160156 -2.320312 11.890625 -3.34375 C 12.617188 -4.375 12.984375 -5.660156 12.984375 -7.203125 C 12.984375 -8.734375 12.625 -10.007812 11.90625 -11.03125 C 11.1875 -12.0625 10.113281 -12.578125 8.6875 -12.578125 C 7.289062 -12.578125 6.226562 -12.0625 5.5 -11.03125 C 4.769531 -10.007812 4.40625 -8.734375 4.40625 -7.203125 C 4.40625 -5.671875 4.769531 -4.390625 5.5 -3.359375 C 6.238281 -2.328125 7.300781 -1.8125 8.6875 -1.8125 Z M 8.6875 -1.8125 "/></g></g></g><g fill="#202020" fill-opacity="1"><g transform="translate(345.241506, 703.145793)"><g/></g></g><g fill="#202020" fill-opacity="1"><g transform="translate(351.448781, 703.145793)"><g><path d="M 2.03125 -18.90625 L 5.453125 -18.90625 L 11.0625 -4.421875 L 11.15625 -4.421875 L 16.765625 -18.90625 L 20.203125 -18.90625 L 20.203125 0 L 17.90625 0 L 17.90625 -15.3125 L 17.796875 -15.3125 L 11.9375 0 L 10.265625 0 L 4.421875 -15.3125 L 4.3125 -15.3125 L 4.3125 0 L 2.03125 0 Z M 2.03125 -18.90625 "/></g></g></g><g fill="#202020" fill-opacity="1"><g transform="translate(373.660069, 703.145793)"><g><path d="M 14.421875 0 L 12.0625 0 L 12.0625 -2.703125 L 11.90625 -2.703125 C 11.53125 -1.867188 10.945312 -1.164062 10.15625 -0.59375 C 9.375 -0.03125 8.421875 0.25 7.296875 0.25 C 6.109375 0.25 5.113281 -0.0351562 4.3125 -0.609375 C 3.519531 -1.191406 2.941406 -1.941406 2.578125 -2.859375 C 2.210938 -3.773438 2.03125 -4.773438 2.03125 -5.859375 L 2.03125 -14.234375 L 4.34375 -14.234375 L 4.34375 -6.15625 C 4.34375 -4.769531 4.691406 -3.703125 5.390625 -2.953125 C 6.097656 -2.210938 7.019531 -1.84375 8.15625 -1.84375 C 9.34375 -1.84375 10.289062 -2.238281 11 -3.03125 C 11.707031 -3.832031 12.0625 -4.875 12.0625 -6.15625 L 12.0625 -14.234375 L 14.421875 -14.234375 Z M 14.421875 0 "/></g></g></g><g fill="#202020" fill-opacity="1"><g transform="translate(389.906971, 703.145793)"><g><path d="M 5.671875 0.109375 C 4.609375 0.109375 3.816406 -0.0625 3.296875 -0.40625 C 2.773438 -0.75 2.445312 -1.191406 2.3125 -1.734375 C 2.175781 -2.285156 2.109375 -3.003906 2.109375 -3.890625 L 2.140625 -20.25 L 4.453125 -20.25 L 4.453125 -4.234375 C 4.453125 -3.554688 4.484375 -3.050781 4.546875 -2.71875 C 4.609375 -2.382812 4.78125 -2.117188 5.0625 -1.921875 C 5.34375 -1.722656 5.789062 -1.625 6.40625 -1.625 C 6.78125 -1.625 7.109375 -1.648438 7.390625 -1.703125 L 7.390625 -0.03125 C 6.910156 0.0625 6.335938 0.109375 5.671875 0.109375 Z M 5.671875 0.109375 "/></g></g></g><g fill="#202020" fill-opacity="1"><g transform="translate(398.381274, 703.145793)"><g><path d="M 7.234375 0.1875 C 5.972656 0.1875 4.894531 -0.132812 4 -0.78125 C 3.113281 -1.425781 2.4375 -2.304688 1.96875 -3.421875 C 1.5 -4.546875 1.265625 -5.804688 1.265625 -7.203125 C 1.265625 -8.609375 1.503906 -9.875 1.984375 -11 C 2.460938 -12.125 3.15625 -13.003906 4.0625 -13.640625 C 4.96875 -14.285156 6.050781 -14.609375 7.3125 -14.609375 C 8.570312 -14.609375 9.585938 -14.3125 10.359375 -13.71875 C 11.140625 -13.125 11.726562 -12.410156 12.125 -11.578125 L 12.3125 -11.578125 L 12.3125 -14.234375 L 14.65625 -14.234375 L 14.65625 0 L 12.3125 0 L 12.3125 -2.921875 L 12.125 -2.921875 C 11.6875 -2.066406 11.070312 -1.332031 10.28125 -0.71875 C 9.488281 -0.113281 8.472656 0.1875 7.234375 0.1875 Z M 7.96875 -1.8125 C 9.351562 -1.8125 10.414062 -2.328125 11.15625 -3.359375 C 11.894531 -4.390625 12.265625 -5.671875 12.265625 -7.203125 C 12.265625 -8.734375 11.894531 -10.015625 11.15625 -11.046875 C 10.414062 -12.085938 9.351562 -12.609375 7.96875 -12.609375 C 6.539062 -12.609375 5.460938 -12.09375 4.734375 -11.0625 C 4.003906 -10.039062 3.640625 -8.765625 3.640625 -7.234375 C 3.640625 -5.679688 4.003906 -4.390625 4.734375 -3.359375 C 5.460938 -2.328125 6.539062 -1.8125 7.96875 -1.8125 Z M 7.96875 -1.8125 "/></g></g></g><g fill="#202020" fill-opacity="1"><g transform="translate(415.113955, 703.145793)"><g/></g></g><g fill="#202020" fill-opacity="1"><g transform="translate(421.32123, 703.145793)"><g><path d="M 1.96875 -18.90625 L 4.296875 -18.90625 L 4.296875 -10.53125 L 4.421875 -10.53125 L 11.9375 -18.90625 L 14.765625 -18.90625 L 7.3125 -10.765625 L 15.34375 0 L 12.609375 0 L 5.890625 -9.078125 L 4.296875 -7.375 L 4.296875 0 L 1.96875 0 Z M 1.96875 -18.90625 "/></g></g></g><g fill="#202020" fill-opacity="1"><g transform="translate(438.161874, 703.145793)"><g><path d="M 14.421875 0 L 12.0625 0 L 12.0625 -2.703125 L 11.90625 -2.703125 C 11.53125 -1.867188 10.945312 -1.164062 10.15625 -0.59375 C 9.375 -0.03125 8.421875 0.25 7.296875 0.25 C 6.109375 0.25 5.113281 -0.0351562 4.3125 -0.609375 C 3.519531 -1.191406 2.941406 -1.941406 2.578125 -2.859375 C 2.210938 -3.773438 2.03125 -4.773438 2.03125 -5.859375 L 2.03125 -14.234375 L 4.34375 -14.234375 L 4.34375 -6.15625 C 4.34375 -4.769531 4.691406 -3.703125 5.390625 -2.953125 C 6.097656 -2.210938 7.019531 -1.84375 8.15625 -1.84375 C 9.34375 -1.84375 10.289062 -2.238281 11 -3.03125 C 11.707031 -3.832031 12.0625 -4.875 12.0625 -6.15625 L 12.0625 -14.234375 L 14.421875 -14.234375 Z M 14.421875 0 "/></g></g></g><g fill="#202020" fill-opacity="1"><g transform="translate(454.408776, 703.145793)"><g><path d="M 1.921875 -14.234375 L 4.234375 -14.234375 L 4.234375 -11.96875 L 4.40625 -11.96875 C 4.632812 -12.59375 5.050781 -13.125 5.65625 -13.5625 C 6.257812 -14.007812 7.019531 -14.234375 7.9375 -14.234375 C 8.226562 -14.234375 8.457031 -14.21875 8.625 -14.1875 C 8.800781 -14.15625 8.992188 -14.109375 9.203125 -14.046875 L 9.125 -11.765625 C 8.832031 -11.859375 8.582031 -11.921875 8.375 -11.953125 C 8.175781 -11.992188 7.914062 -12.015625 7.59375 -12.015625 C 5.351562 -12.015625 4.234375 -10.691406 4.234375 -8.046875 L 4.234375 0 L 1.921875 0 Z M 1.921875 -14.234375 "/></g></g></g><g fill="#202020" fill-opacity="1"><g transform="translate(463.935616, 703.145793)"><g><path d="M 2.03125 -14.234375 L 4.34375 -14.234375 L 4.34375 -11.65625 L 4.5625 -11.65625 C 4.925781 -12.488281 5.507812 -13.1875 6.3125 -13.75 C 7.125 -14.320312 8.113281 -14.609375 9.28125 -14.609375 C 10.488281 -14.609375 11.5 -14.320312 12.3125 -13.75 C 13.125 -13.1875 13.722656 -12.441406 14.109375 -11.515625 C 14.492188 -10.585938 14.6875 -9.582031 14.6875 -8.5 L 14.6875 0 L 12.359375 0 L 12.359375 -8.203125 C 12.359375 -9.609375 11.992188 -10.679688 11.265625 -11.421875 C 10.535156 -12.160156 9.585938 -12.53125 8.421875 -12.53125 C 7.179688 -12.53125 6.191406 -12.128906 5.453125 -11.328125 C 4.710938 -10.523438 4.34375 -9.484375 4.34375 -8.203125 L 4.34375 0 L 2.03125 0 Z M 2.03125 -14.234375 "/></g></g></g><g fill="#202020" fill-opacity="1"><g transform="translate(480.452392, 703.145793)"><g><path d="M 2.21875 -14.234375 L 4.53125 -14.234375 L 4.53125 0 L 2.21875 0 Z M 3.34375 -16.875 C 2.914062 -16.875 2.554688 -17.019531 2.265625 -17.3125 C 1.972656 -17.613281 1.828125 -17.972656 1.828125 -18.390625 C 1.828125 -18.804688 1.972656 -19.160156 2.265625 -19.453125 C 2.554688 -19.753906 2.914062 -19.90625 3.34375 -19.90625 C 3.769531 -19.90625 4.128906 -19.753906 4.421875 -19.453125 C 4.722656 -19.160156 4.875 -18.804688 4.875 -18.390625 C 4.875 -17.972656 4.722656 -17.613281 4.421875 -17.3125 C 4.128906 -17.019531 3.769531 -16.875 3.34375 -16.875 Z M 3.34375 -16.875 "/></g></g></g><g fill="#202020" fill-opacity="1"><g transform="translate(487.199416, 703.145793)"><g><path d="M 7.234375 0.1875 C 5.972656 0.1875 4.894531 -0.132812 4 -0.78125 C 3.113281 -1.425781 2.4375 -2.304688 1.96875 -3.421875 C 1.5 -4.546875 1.265625 -5.804688 1.265625 -7.203125 C 1.265625 -8.609375 1.503906 -9.875 1.984375 -11 C 2.460938 -12.125 3.15625 -13.003906 4.0625 -13.640625 C 4.96875 -14.285156 6.050781 -14.609375 7.3125 -14.609375 C 8.570312 -14.609375 9.585938 -14.3125 10.359375 -13.71875 C 11.140625 -13.125 11.726562 -12.410156 12.125 -11.578125 L 12.3125 -11.578125 L 12.3125 -14.234375 L 14.65625 -14.234375 L 14.65625 0 L 12.3125 0 L 12.3125 -2.921875 L 12.125 -2.921875 C 11.6875 -2.066406 11.070312 -1.332031 10.28125 -0.71875 C 9.488281 -0.113281 8.472656 0.1875 7.234375 0.1875 Z M 7.96875 -1.8125 C 9.351562 -1.8125 10.414062 -2.328125 11.15625 -3.359375 C 11.894531 -4.390625 12.265625 -5.671875 12.265625 -7.203125 C 12.265625 -8.734375 11.894531 -10.015625 11.15625 -11.046875 C 10.414062 -12.085938 9.351562 -12.609375 7.96875 -12.609375 C 6.539062 -12.609375 5.460938 -12.09375 4.734375 -11.0625 C 4.003906 -10.039062 3.640625 -8.765625 3.640625 -7.234375 C 3.640625 -5.679688 4.003906 -4.390625 4.734375 -3.359375 C 5.460938 -2.328125 6.539062 -1.8125 7.96875 -1.8125 Z M 7.96875 -1.8125 "/></g></g></g><g fill="#202020" fill-opacity="1"><g transform="translate(503.932096, 703.145793)"><g><path d="M 2.640625 3.34375 C 3.742188 2.863281 4.296875 2.144531 4.296875 1.1875 C 4.296875 0.738281 4.21875 0.453125 4.0625 0.328125 C 3.90625 0.210938 3.675781 0.15625 3.375 0.15625 C 2.476562 0.15625 2.03125 -0.28125 2.03125 -1.15625 C 2.03125 -1.644531 2.175781 -2.03125 2.46875 -2.3125 C 2.769531 -2.601562 3.1875 -2.75 3.71875 -2.75 C 5 -2.75 5.640625 -2.054688 5.640625 -0.671875 L 5.640625 0.296875 C 5.640625 1.410156 5.363281 2.296875 4.8125 2.953125 C 4.269531 3.609375 3.546875 4.070312 2.640625 4.34375 Z M 2.640625 3.34375 "/></g></g></g><g fill="#202020" fill-opacity="1"><g transform="translate(511.650724, 703.145793)"><g/></g></g><g fill="#202020" fill-opacity="1"><g transform="translate(517.857999, 703.145793)"><g><path d="M 8.265625 0.21875 C 6.804688 0.21875 5.554688 -0.0820312 4.515625 -0.6875 C 3.484375 -1.289062 2.707031 -2.066406 2.1875 -3.015625 C 1.664062 -3.972656 1.40625 -4.972656 1.40625 -6.015625 L 1.40625 -6.15625 L 3.96875 -6.15625 L 3.96875 -6.015625 C 3.96875 -5.390625 4.113281 -4.757812 4.40625 -4.125 C 4.707031 -3.5 5.179688 -2.972656 5.828125 -2.546875 C 6.472656 -2.128906 7.300781 -1.921875 8.3125 -1.921875 C 9.5 -1.921875 10.476562 -2.222656 11.25 -2.828125 C 12.03125 -3.441406 12.421875 -4.269531 12.421875 -5.3125 C 12.421875 -6.175781 12.132812 -6.863281 11.5625 -7.375 C 11 -7.894531 10.273438 -8.242188 9.390625 -8.421875 L 6.640625 -8.9375 C 3.472656 -9.632812 1.890625 -11.300781 1.890625 -13.9375 C 1.890625 -15.007812 2.148438 -15.953125 2.671875 -16.765625 C 3.191406 -17.578125 3.914062 -18.203125 4.84375 -18.640625 C 5.769531 -19.085938 6.847656 -19.3125 8.078125 -19.3125 C 9.460938 -19.3125 10.648438 -19.03125 11.640625 -18.46875 C 12.628906 -17.90625 13.375 -17.175781 13.875 -16.28125 C 14.382812 -15.394531 14.640625 -14.476562 14.640625 -13.53125 L 14.640625 -13.421875 L 12.0625 -13.421875 L 12.0625 -13.5 C 12.0625 -14.039062 11.929688 -14.59375 11.671875 -15.15625 C 11.410156 -15.726562 10.976562 -16.21875 10.375 -16.625 C 9.78125 -17.039062 8.984375 -17.25 7.984375 -17.25 C 6.859375 -17.25 5.957031 -16.929688 5.28125 -16.296875 C 4.601562 -15.671875 4.265625 -14.890625 4.265625 -13.953125 C 4.265625 -13.160156 4.523438 -12.515625 5.046875 -12.015625 C 5.566406 -11.515625 6.28125 -11.171875 7.1875 -10.984375 L 9.671875 -10.5 C 13.140625 -9.800781 14.875 -8.101562 14.875 -5.40625 C 14.875 -4.300781 14.597656 -3.328125 14.046875 -2.484375 C 13.503906 -1.640625 12.726562 -0.976562 11.71875 -0.5 C 10.707031 -0.0195312 9.554688 0.21875 8.265625 0.21875 Z M 8.265625 0.21875 "/></g></g></g><g fill="#202020" fill-opacity="1"><g transform="translate(534.023922, 703.145793)"><g><path d="M 3.703125 0.1875 C 3.253906 0.1875 2.878906 0.03125 2.578125 -0.28125 C 2.285156 -0.59375 2.140625 -0.96875 2.140625 -1.40625 C 2.140625 -1.832031 2.285156 -2.191406 2.578125 -2.484375 C 2.878906 -2.785156 3.253906 -2.9375 3.703125 -2.9375 C 4.148438 -2.9375 4.519531 -2.785156 4.8125 -2.484375 C 5.113281 -2.191406 5.265625 -1.832031 5.265625 -1.40625 C 5.265625 -0.96875 5.109375 -0.59375 4.796875 -0.28125 C 4.492188 0.03125 4.128906 0.1875 3.703125 0.1875 Z M 3.703125 0.1875 "/></g></g></g><g fill="#202020" fill-opacity="1"><g transform="translate(541.391719, 703.145793)"><g><path d="M 14.65625 -16.796875 L 9.09375 -16.796875 L 9.09375 0 L 6.78125 0 L 6.78125 -16.796875 L 1.21875 -16.796875 L 1.21875 -18.90625 L 14.65625 -18.90625 Z M 14.65625 -16.796875 "/></g></g></g><g fill="#202020" fill-opacity="1"><g transform="translate(557.287791, 703.145793)"><g><path d="M 2.921875 5.046875 C 3.648438 4.378906 4.390625 3.441406 5.140625 2.234375 C 5.890625 1.035156 6.523438 -0.425781 7.046875 -2.15625 C 7.566406 -3.882812 7.828125 -5.765625 7.828125 -7.796875 C 7.828125 -9.835938 7.566406 -11.71875 7.046875 -13.4375 C 6.523438 -15.164062 5.890625 -16.632812 5.140625 -17.84375 C 4.390625 -19.050781 3.648438 -20 2.921875 -20.6875 L 3.625 -21.390625 C 4.6875 -20.753906 5.71875 -19.820312 6.71875 -18.59375 C 7.726562 -17.375 8.566406 -15.847656 9.234375 -14.015625 C 9.898438 -12.179688 10.234375 -10.109375 10.234375 -7.796875 C 10.234375 -5.585938 9.910156 -3.578125 9.265625 -1.765625 C 8.628906 0.0351562 7.8125 1.554688 6.8125 2.796875 C 5.8125 4.046875 4.75 5.03125 3.625 5.75 Z M 2.921875 5.046875 "/></g></g></g></svg>