<svg xmlns="http://www.w3.org/2000/svg" xmlns:xlink="http://www.w3.org/1999/xlink" width="1920" zoomAndPan="magnify" viewBox="0 0 1440 809.999993" height="1080" preserveAspectRatio="xMidYMid meet" version="1.0"><defs><g/></defs><rect x="-144" width="1728" fill="#ffffff" y="-80.999999" height="971.999992" fill-opacity="1"/><rect x="-144" width="1728" fill="#faf4eb" y="-80.999999" height="971.999992" fill-opacity="1"/><path fill="#2d3e70" d="M 0 729 L 1439.964844 729 L 1439.964844 810 L 0 810 Z M 0 729 " fill-opacity="1" fill-rule="nonzero"/><g fill="#2d3e70" fill-opacity="1"><g transform="translate(301.488276, 407.762783)"><g><path d="M 2.234375 -10.640625 C 2.140625 -10.734375 2.09375 -10.828125 2.09375 -10.921875 L 4.625 -29.8125 L 6.71875 -29.546875 C 7.1875 -26.085938 8.328125 -22.628906 10.140625 -19.171875 C 11.960938 -15.722656 14.226562 -12.617188 16.9375 -9.859375 C 19.644531 -7.109375 22.703125 -4.894531 26.109375 -3.21875 C 29.515625 -1.539062 33.039062 -0.703125 36.6875 -0.703125 C 41.070312 -0.703125 44.921875 -2.078125 48.234375 -4.828125 C 51.546875 -7.578125 53.203125 -11.332031 53.203125 -16.09375 C 53.203125 -19.269531 52.382812 -22.046875 50.75 -24.421875 C 49.113281 -26.804688 47.054688 -28.882812 44.578125 -30.65625 C 42.109375 -32.425781 39.613281 -33.96875 37.09375 -35.28125 C 35.601562 -36.125 34.109375 -36.941406 32.609375 -37.734375 C 31.117188 -38.523438 29.582031 -39.34375 28 -40.1875 C 23.894531 -42.332031 20 -44.640625 16.3125 -47.109375 C 12.625 -49.578125 9.632812 -52.445312 7.34375 -55.71875 C 5.0625 -58.988281 3.921875 -62.910156 3.921875 -67.484375 C 3.921875 -73.171875 5.4375 -77.832031 8.46875 -81.46875 C 11.5 -85.113281 15.394531 -87.820312 20.15625 -89.59375 C 24.914062 -91.375 29.863281 -92.265625 35 -92.265625 C 37.519531 -92.265625 40.390625 -92.03125 43.609375 -91.5625 C 46.828125 -91.09375 49.929688 -90.367188 52.921875 -89.390625 C 55.910156 -88.410156 58.335938 -87.082031 60.203125 -85.40625 C 60.296875 -85.3125 60.4375 -85.171875 60.625 -84.984375 C 60.8125 -84.796875 61 -84.609375 61.1875 -84.421875 C 61.363281 -84.234375 61.5 -84 61.59375 -83.71875 L 63.984375 -64.265625 L 61.453125 -64.265625 C 60.429688 -66.960938 58.984375 -69.828125 57.109375 -72.859375 C 55.242188 -75.898438 53.097656 -78.75 50.671875 -81.40625 C 48.253906 -84.070312 45.550781 -86.21875 42.5625 -87.84375 C 39.570312 -89.476562 36.445312 -90.296875 33.1875 -90.296875 C 28.882812 -90.296875 25.21875 -89.035156 22.1875 -86.515625 C 19.15625 -83.992188 17.640625 -80.398438 17.640625 -75.734375 C 17.640625 -72.285156 18.429688 -69.300781 20.015625 -66.78125 C 21.609375 -64.257812 23.660156 -62.039062 26.171875 -60.125 C 28.691406 -58.21875 31.257812 -56.515625 33.875 -55.015625 C 35.375 -54.085938 36.890625 -53.222656 38.421875 -52.421875 C 39.960938 -51.628906 41.484375 -50.816406 42.984375 -49.984375 C 47.179688 -47.742188 51.125 -45.382812 54.8125 -42.90625 C 58.5 -40.4375 61.507812 -37.566406 63.84375 -34.296875 C 66.175781 -31.035156 67.34375 -27.117188 67.34375 -22.546875 C 67.34375 -19.460938 66.6875 -16.519531 65.375 -13.71875 C 63.601562 -9.707031 61.015625 -6.601562 57.609375 -4.40625 C 54.203125 -2.21875 50.421875 -0.703125 46.265625 0.140625 C 42.117188 0.984375 37.988281 1.40625 33.875 1.40625 C 30.707031 1.40625 27.234375 1.03125 23.453125 0.28125 C 19.671875 -0.46875 16.003906 -1.585938 12.453125 -3.078125 C 8.910156 -4.566406 5.972656 -6.4375 3.640625 -8.6875 C 3.546875 -8.863281 3.40625 -9.046875 3.21875 -9.234375 C 3.03125 -9.421875 2.84375 -9.65625 2.65625 -9.9375 C 2.375 -10.21875 2.234375 -10.453125 2.234375 -10.640625 Z M 2.234375 -10.640625 "/></g></g></g><g fill="#2d3e70" fill-opacity="1"><g transform="translate(369.944449, 407.762783)"><g><path d="M 3.5 -32.0625 C 3.5 -38.125 4.59375 -43.722656 6.78125 -48.859375 C 8.976562 -53.992188 12.222656 -58.125 16.515625 -61.25 C 20.804688 -64.375 26.128906 -65.9375 32.484375 -65.9375 C 37.984375 -65.9375 42.671875 -64.695312 46.546875 -62.21875 C 50.421875 -59.75 53.382812 -56.367188 55.4375 -52.078125 C 57.488281 -47.785156 58.515625 -42.976562 58.515625 -37.65625 L 58.515625 -37.234375 L 18.625 -37.234375 L 18.625 -35.28125 C 18.625 -32.289062 18.992188 -29.207031 19.734375 -26.03125 C 20.484375 -22.863281 21.648438 -19.898438 23.234375 -17.140625 C 24.828125 -14.390625 26.90625 -12.148438 29.46875 -10.421875 C 32.03125 -8.703125 35.179688 -7.84375 38.921875 -7.84375 C 42.367188 -7.84375 45.75 -8.65625 49.0625 -10.28125 C 52.382812 -11.914062 55.070312 -14.132812 57.125 -16.9375 L 58.375 -16.09375 C 55.582031 -10.6875 52.34375 -6.414062 48.65625 -3.28125 C 44.96875 -0.15625 39.8125 1.40625 33.1875 1.40625 C 26.738281 1.40625 21.320312 -0.0859375 16.9375 -3.078125 C 12.550781 -6.066406 9.210938 -10.101562 6.921875 -15.1875 C 4.640625 -20.269531 3.5 -25.894531 3.5 -32.0625 Z M 18.90625 -40.453125 L 18.90625 -39.484375 L 43.546875 -39.484375 L 43.546875 -40.453125 C 43.453125 -42.140625 43.191406 -44.265625 42.765625 -46.828125 C 42.347656 -49.398438 41.695312 -51.988281 40.8125 -54.59375 C 39.925781 -57.207031 38.734375 -59.398438 37.234375 -61.171875 C 35.742188 -62.953125 33.925781 -63.84375 31.78125 -63.84375 C 29.539062 -63.84375 27.648438 -62.953125 26.109375 -61.171875 C 24.566406 -59.398438 23.28125 -57.226562 22.25 -54.65625 C 21.226562 -52.09375 20.460938 -49.503906 19.953125 -46.890625 C 19.441406 -44.285156 19.09375 -42.140625 18.90625 -40.453125 Z M 18.90625 -40.453125 "/></g></g></g><g fill="#2d3e70" fill-opacity="1"><g transform="translate(432.10097, 407.762783)"><g><path d="M 0.984375 -91 L 22.125 -97.578125 L 22.125 -9.9375 C 22.125 -4.988281 24.316406 -2.46875 28.703125 -2.375 L 28.703125 0 L 0.984375 0 L 0.984375 -2.375 C 5.460938 -2.46875 7.703125 -4.988281 7.703125 -9.9375 L 7.703125 -80.78125 C 7.703125 -85.632812 5.460938 -88.203125 0.984375 -88.484375 Z M 0.984375 -91 "/></g></g></g><g fill="#2d3e70" fill-opacity="1"><g transform="translate(461.77931, 407.762783)"><g><path d="M 3.5 -32.0625 C 3.5 -38.125 4.59375 -43.722656 6.78125 -48.859375 C 8.976562 -53.992188 12.222656 -58.125 16.515625 -61.25 C 20.804688 -64.375 26.128906 -65.9375 32.484375 -65.9375 C 37.984375 -65.9375 42.671875 -64.695312 46.546875 -62.21875 C 50.421875 -59.75 53.382812 -56.367188 55.4375 -52.078125 C 57.488281 -47.785156 58.515625 -42.976562 58.515625 -37.65625 L 58.515625 -37.234375 L 18.625 -37.234375 L 18.625 -35.28125 C 18.625 -32.289062 18.992188 -29.207031 19.734375 -26.03125 C 20.484375 -22.863281 21.648438 -19.898438 23.234375 -17.140625 C 24.828125 -14.390625 26.90625 -12.148438 29.46875 -10.421875 C 32.03125 -8.703125 35.179688 -7.84375 38.921875 -7.84375 C 42.367188 -7.84375 45.75 -8.65625 49.0625 -10.28125 C 52.382812 -11.914062 55.070312 -14.132812 57.125 -16.9375 L 58.375 -16.09375 C 55.582031 -10.6875 52.34375 -6.414062 48.65625 -3.28125 C 44.96875 -0.15625 39.8125 1.40625 33.1875 1.40625 C 26.738281 1.40625 21.320312 -0.0859375 16.9375 -3.078125 C 12.550781 -6.066406 9.210938 -10.101562 6.921875 -15.1875 C 4.640625 -20.269531 3.5 -25.894531 3.5 -32.0625 Z M 18.90625 -40.453125 L 18.90625 -39.484375 L 43.546875 -39.484375 L 43.546875 -40.453125 C 43.453125 -42.140625 43.191406 -44.265625 42.765625 -46.828125 C 42.347656 -49.398438 41.695312 -51.988281 40.8125 -54.59375 C 39.925781 -57.207031 38.734375 -59.398438 37.234375 -61.171875 C 35.742188 -62.953125 33.925781 -63.84375 31.78125 -63.84375 C 29.539062 -63.84375 27.648438 -62.953125 26.109375 -61.171875 C 24.566406 -59.398438 23.28125 -57.226562 22.25 -54.65625 C 21.226562 -52.09375 20.460938 -49.503906 19.953125 -46.890625 C 19.441406 -44.285156 19.09375 -42.140625 18.90625 -40.453125 Z M 18.90625 -40.453125 "/></g></g></g><g fill="#2d3e70" fill-opacity="1"><g transform="translate(523.93582, 407.762783)"><g><path d="M 31.640625 1.40625 C 25.109375 1.40625 19.691406 -0.0859375 15.390625 -3.078125 C 11.097656 -6.066406 7.878906 -10.101562 5.734375 -15.1875 C 3.585938 -20.269531 2.515625 -25.941406 2.515625 -32.203125 C 2.515625 -42.460938 5.101562 -50.648438 10.28125 -56.765625 C 15.46875 -62.878906 23.285156 -65.9375 33.734375 -65.9375 C 37.003906 -65.9375 40.316406 -65.351562 43.671875 -64.1875 C 47.035156 -63.019531 49.859375 -61.242188 52.140625 -58.859375 C 54.429688 -56.484375 55.578125 -53.523438 55.578125 -49.984375 C 55.578125 -48.117188 54.875 -46.601562 53.46875 -45.4375 C 52.070312 -44.269531 50.394531 -43.6875 48.4375 -43.6875 C 44.613281 -43.6875 42.1875 -45.691406 41.15625 -49.703125 C 40.96875 -50.359375 40.78125 -51.035156 40.59375 -51.734375 C 40.40625 -52.429688 40.175781 -53.15625 39.90625 -53.90625 C 39.25 -56.238281 38.21875 -58.453125 36.8125 -60.546875 C 35.414062 -62.648438 33.316406 -63.703125 30.515625 -63.703125 C 27.710938 -63.703125 25.445312 -62.648438 23.71875 -60.546875 C 22 -58.453125 20.695312 -55.863281 19.8125 -52.78125 C 18.925781 -49.695312 18.316406 -46.59375 17.984375 -43.46875 C 17.660156 -40.34375 17.5 -37.753906 17.5 -35.703125 C 17.5 -32.617188 17.894531 -29.421875 18.6875 -26.109375 C 19.476562 -22.796875 20.710938 -19.710938 22.390625 -16.859375 C 24.078125 -14.015625 26.273438 -11.707031 28.984375 -9.9375 C 31.691406 -8.164062 34.957031 -7.28125 38.78125 -7.28125 C 41.863281 -7.28125 44.875 -7.976562 47.8125 -9.375 C 50.75 -10.78125 53.101562 -12.789062 54.875 -15.40625 L 56.421875 -14.421875 C 53.804688 -9.285156 50.535156 -5.363281 46.609375 -2.65625 C 42.691406 0.0507812 37.703125 1.40625 31.640625 1.40625 Z M 31.640625 1.40625 "/></g></g></g><g fill="#2d3e70" fill-opacity="1"><g transform="translate(582.732539, 407.762783)"><g><path d="M -0.84375 -65.234375 C 2.050781 -65.703125 4.898438 -66.914062 7.703125 -68.875 C 10.503906 -70.832031 13.046875 -73.140625 15.328125 -75.796875 C 17.617188 -78.460938 19.507812 -81.148438 21 -83.859375 L 21 -65.09375 L 34.015625 -65.09375 L 34.015625 -62.859375 L 21 -62.859375 L 21 -13.015625 C 21 -11.242188 21.441406 -9.515625 22.328125 -7.828125 C 23.210938 -6.148438 24.820312 -5.3125 27.15625 -5.3125 C 28.375 -5.3125 29.519531 -5.566406 30.59375 -6.078125 C 31.664062 -6.597656 32.617188 -7.1875 33.453125 -7.84375 L 34.71875 -6.296875 C 32.757812 -3.867188 30.566406 -2 28.140625 -0.6875 C 25.710938 0.613281 22.910156 1.265625 19.734375 1.265625 C 15.441406 1.265625 12.175781 0.0976562 9.9375 -2.234375 C 7.695312 -4.566406 6.578125 -7.882812 6.578125 -12.1875 L 6.578125 -62.859375 L -0.84375 -62.859375 Z M -0.84375 -65.234375 "/></g></g></g><g fill="#2d3e70" fill-opacity="1"><g transform="translate(618.710519, 407.762783)"><g><path d="M 33.3125 1.40625 C 26.59375 1.40625 21.015625 -0.0625 16.578125 -3 C 12.148438 -5.945312 8.835938 -9.984375 6.640625 -15.109375 C 4.453125 -20.242188 3.359375 -26.082031 3.359375 -32.625 C 3.359375 -39.15625 4.453125 -44.914062 6.640625 -49.90625 C 8.835938 -54.90625 12.148438 -58.828125 16.578125 -61.671875 C 21.015625 -64.515625 26.59375 -65.9375 33.3125 -65.9375 C 43.488281 -65.9375 51.050781 -62.851562 56 -56.6875 C 60.945312 -50.53125 63.421875 -42.507812 63.421875 -32.625 C 63.421875 -26.082031 62.320312 -20.242188 60.125 -15.109375 C 57.9375 -9.984375 54.625 -5.945312 50.1875 -3 C 45.757812 -0.0625 40.132812 1.40625 33.3125 1.40625 Z M 18.625 -32.625 C 18.625 -30.195312 18.757812 -27.1875 19.03125 -23.59375 C 19.3125 -20 19.921875 -16.425781 20.859375 -12.875 C 21.796875 -9.332031 23.265625 -6.367188 25.265625 -3.984375 C 27.273438 -1.609375 29.957031 -0.421875 33.3125 -0.421875 C 36.769531 -0.421875 39.476562 -1.609375 41.4375 -3.984375 C 43.394531 -6.367188 44.863281 -9.332031 45.84375 -12.875 C 46.820312 -16.425781 47.453125 -20 47.734375 -23.59375 C 48.015625 -27.1875 48.15625 -30.195312 48.15625 -32.625 C 48.15625 -35.144531 48.035156 -38.15625 47.796875 -41.65625 C 47.566406 -45.15625 46.960938 -48.628906 45.984375 -52.078125 C 45.003906 -55.535156 43.535156 -58.40625 41.578125 -60.6875 C 39.617188 -62.976562 36.863281 -64.125 33.3125 -64.125 C 29.863281 -64.125 27.160156 -62.976562 25.203125 -60.6875 C 23.242188 -58.40625 21.796875 -55.535156 20.859375 -52.078125 C 19.921875 -48.628906 19.3125 -45.128906 19.03125 -41.578125 C 18.757812 -38.035156 18.625 -35.050781 18.625 -32.625 Z M 18.625 -32.625 "/></g></g></g><g fill="#2d3e70" fill-opacity="1"><g transform="translate(684.646841, 407.762783)"><g><path d="M 1.6875 -57.546875 L 22.8125 -64.265625 L 22.8125 -54.3125 L 24.640625 -57.40625 C 26.410156 -60.289062 28.765625 -62.457031 31.703125 -63.90625 C 34.648438 -65.351562 37.847656 -66.078125 41.296875 -66.078125 C 44.003906 -66.078125 46.59375 -65.585938 49.0625 -64.609375 C 51.539062 -63.628906 53.476562 -61.925781 54.875 -59.5 C 55.34375 -58.75 55.71875 -57.953125 56 -57.109375 C 56.28125 -56.273438 56.421875 -55.4375 56.421875 -54.59375 C 56.421875 -52.726562 55.695312 -51.234375 54.25 -50.109375 C 52.800781 -48.992188 51.144531 -48.4375 49.28125 -48.4375 C 48.25 -48.4375 47.382812 -48.578125 46.6875 -48.859375 C 45.988281 -49.140625 45.40625 -49.46875 44.9375 -49.84375 C 44.375 -50.3125 43.863281 -50.820312 43.40625 -51.375 C 43.21875 -51.65625 42.984375 -51.957031 42.703125 -52.28125 C 42.421875 -52.613281 42.1875 -52.921875 42 -53.203125 C 41.0625 -54.503906 39.960938 -55.757812 38.703125 -56.96875 C 37.441406 -58.1875 35.507812 -58.796875 32.90625 -58.796875 C 29.726562 -58.796875 27.25 -57.601562 25.46875 -55.21875 C 23.695312 -52.84375 22.8125 -50.207031 22.8125 -47.3125 L 22.8125 -9.9375 C 22.8125 -4.988281 25.007812 -2.46875 29.40625 -2.375 L 29.40625 0 L 1.6875 0 L 1.6875 -2.375 C 6.164062 -2.46875 8.40625 -4.988281 8.40625 -9.9375 L 8.40625 -47.3125 C 8.40625 -52.164062 6.164062 -54.734375 1.6875 -55.015625 Z M 1.6875 -57.546875 "/></g></g></g><g fill="#2d3e70" fill-opacity="1"><g transform="translate(741.343661, 407.762783)"><g/></g></g><g fill="#2d3e70" fill-opacity="1"><g transform="translate(768.502138, 407.762783)"><g><path d="M 2.234375 -10.640625 C 2.140625 -10.734375 2.09375 -10.828125 2.09375 -10.921875 L 4.625 -29.8125 L 6.71875 -29.546875 C 7.1875 -26.085938 8.328125 -22.628906 10.140625 -19.171875 C 11.960938 -15.722656 14.226562 -12.617188 16.9375 -9.859375 C 19.644531 -7.109375 22.703125 -4.894531 26.109375 -3.21875 C 29.515625 -1.539062 33.039062 -0.703125 36.6875 -0.703125 C 41.070312 -0.703125 44.921875 -2.078125 48.234375 -4.828125 C 51.546875 -7.578125 53.203125 -11.332031 53.203125 -16.09375 C 53.203125 -19.269531 52.382812 -22.046875 50.75 -24.421875 C 49.113281 -26.804688 47.054688 -28.882812 44.578125 -30.65625 C 42.109375 -32.425781 39.613281 -33.96875 37.09375 -35.28125 C 35.601562 -36.125 34.109375 -36.941406 32.609375 -37.734375 C 31.117188 -38.523438 29.582031 -39.34375 28 -40.1875 C 23.894531 -42.332031 20 -44.640625 16.3125 -47.109375 C 12.625 -49.578125 9.632812 -52.445312 7.34375 -55.71875 C 5.0625 -58.988281 3.921875 -62.910156 3.921875 -67.484375 C 3.921875 -73.171875 5.4375 -77.832031 8.46875 -81.46875 C 11.5 -85.113281 15.394531 -87.820312 20.15625 -89.59375 C 24.914062 -91.375 29.863281 -92.265625 35 -92.265625 C 37.519531 -92.265625 40.390625 -92.03125 43.609375 -91.5625 C 46.828125 -91.09375 49.929688 -90.367188 52.921875 -89.390625 C 55.910156 -88.410156 58.335938 -87.082031 60.203125 -85.40625 C 60.296875 -85.3125 60.4375 -85.171875 60.625 -84.984375 C 60.8125 -84.796875 61 -84.609375 61.1875 -84.421875 C 61.363281 -84.234375 61.5 -84 61.59375 -83.71875 L 63.984375 -64.265625 L 61.453125 -64.265625 C 60.429688 -66.960938 58.984375 -69.828125 57.109375 -72.859375 C 55.242188 -75.898438 53.097656 -78.75 50.671875 -81.40625 C 48.253906 -84.070312 45.550781 -86.21875 42.5625 -87.84375 C 39.570312 -89.476562 36.445312 -90.296875 33.1875 -90.296875 C 28.882812 -90.296875 25.21875 -89.035156 22.1875 -86.515625 C 19.15625 -83.992188 17.640625 -80.398438 17.640625 -75.734375 C 17.640625 -72.285156 18.429688 -69.300781 20.015625 -66.78125 C 21.609375 -64.257812 23.660156 -62.039062 26.171875 -60.125 C 28.691406 -58.21875 31.257812 -56.515625 33.875 -55.015625 C 35.375 -54.085938 36.890625 -53.222656 38.421875 -52.421875 C 39.960938 -51.628906 41.484375 -50.816406 42.984375 -49.984375 C 47.179688 -47.742188 51.125 -45.382812 54.8125 -42.90625 C 58.5 -40.4375 61.507812 -37.566406 63.84375 -34.296875 C 66.175781 -31.035156 67.34375 -27.117188 67.34375 -22.546875 C 67.34375 -19.460938 66.6875 -16.519531 65.375 -13.71875 C 63.601562 -9.707031 61.015625 -6.601562 57.609375 -4.40625 C 54.203125 -2.21875 50.421875 -0.703125 46.265625 0.140625 C 42.117188 0.984375 37.988281 1.40625 33.875 1.40625 C 30.707031 1.40625 27.234375 1.03125 23.453125 0.28125 C 19.671875 -0.46875 16.003906 -1.585938 12.453125 -3.078125 C 8.910156 -4.566406 5.972656 -6.4375 3.640625 -8.6875 C 3.546875 -8.863281 3.40625 -9.046875 3.21875 -9.234375 C 3.03125 -9.421875 2.84375 -9.65625 2.65625 -9.9375 C 2.375 -10.21875 2.234375 -10.453125 2.234375 -10.640625 Z M 2.234375 -10.640625 "/></g></g></g><g fill="#2d3e70" fill-opacity="1"><g transform="translate(836.958311, 407.762783)"><g><path d="M -1.6875 -62.859375 L -1.6875 -65.09375 L 26.453125 -65.09375 L 26.453125 -62.859375 C 25.523438 -62.671875 24.707031 -62.25 24 -61.59375 C 23.300781 -60.945312 22.953125 -59.96875 22.953125 -58.65625 C 22.953125 -57.914062 23.066406 -57.21875 23.296875 -56.5625 C 23.535156 -55.90625 23.796875 -55.296875 24.078125 -54.734375 L 42.84375 -16.234375 L 54.046875 -41.296875 L 47.59375 -54.59375 C 46.664062 -56.46875 45.429688 -58.242188 43.890625 -59.921875 C 42.347656 -61.597656 40.363281 -62.578125 37.9375 -62.859375 L 37.9375 -65.09375 L 66.078125 -65.09375 L 66.078125 -62.859375 C 65.148438 -62.671875 64.332031 -62.25 63.625 -61.59375 C 62.925781 -60.945312 62.578125 -59.96875 62.578125 -58.65625 C 62.578125 -57.914062 62.691406 -57.21875 62.921875 -56.5625 C 63.160156 -55.90625 63.421875 -55.296875 63.703125 -54.734375 L 82.1875 -16.65625 L 95.0625 -50.953125 C 95.25 -51.609375 95.4375 -52.265625 95.625 -52.921875 C 95.8125 -53.578125 95.90625 -54.273438 95.90625 -55.015625 C 95.90625 -57.160156 95.296875 -58.789062 94.078125 -59.90625 C 92.867188 -61.03125 91.421875 -61.800781 89.734375 -62.21875 C 88.054688 -62.644531 86.472656 -62.859375 84.984375 -62.859375 L 84.984375 -65.09375 L 109.765625 -65.09375 L 109.765625 -62.71875 C 108.078125 -62.53125 106.488281 -61.78125 105 -60.46875 C 103.507812 -59.164062 102.226562 -57.695312 101.15625 -56.0625 C 100.082031 -54.4375 99.265625 -52.96875 98.703125 -51.65625 L 77.984375 -1.40625 L 77.984375 -1.546875 L 77.140625 0 L 74.34375 0 L 55.15625 -39.0625 L 37.515625 0 L 34.71875 0 L 7.984375 -54.59375 C 7.046875 -56.46875 5.804688 -58.242188 4.265625 -59.921875 C 2.722656 -61.597656 0.738281 -62.578125 -1.6875 -62.859375 Z M -1.6875 -62.859375 "/></g></g></g><g fill="#2d3e70" fill-opacity="1"><g transform="translate(944.612281, 407.762783)"><g><path d="M 1.546875 -57.546875 L 22.6875 -64.265625 L 22.6875 -9.9375 C 22.6875 -4.988281 24.878906 -2.46875 29.265625 -2.375 L 29.265625 0 L 1.546875 0 L 1.546875 -2.375 C 6.023438 -2.46875 8.265625 -4.988281 8.265625 -9.9375 L 8.265625 -47.3125 C 8.265625 -52.164062 6.023438 -54.734375 1.546875 -55.015625 Z M 3.5 -81.203125 C 3.5 -83.816406 4.429688 -86.054688 6.296875 -87.921875 C 8.160156 -89.785156 10.398438 -90.71875 13.015625 -90.71875 C 15.628906 -90.71875 17.894531 -89.785156 19.8125 -87.921875 C 21.726562 -86.054688 22.6875 -83.816406 22.6875 -81.203125 C 22.6875 -78.585938 21.703125 -76.300781 19.734375 -74.34375 C 17.773438 -72.382812 15.535156 -71.40625 13.015625 -71.40625 C 10.398438 -71.40625 8.160156 -72.382812 6.296875 -74.34375 C 4.429688 -76.300781 3.5 -78.585938 3.5 -81.203125 Z M 3.5 -81.203125 "/></g></g></g><g fill="#2d3e70" fill-opacity="1"><g transform="translate(974.570578, 407.762783)"><g><path d="M -0.84375 -65.234375 C 2.050781 -65.703125 4.898438 -66.914062 7.703125 -68.875 C 10.503906 -70.832031 13.046875 -73.140625 15.328125 -75.796875 C 17.617188 -78.460938 19.507812 -81.148438 21 -83.859375 L 21 -65.09375 L 34.015625 -65.09375 L 34.015625 -62.859375 L 21 -62.859375 L 21 -13.015625 C 21 -11.242188 21.441406 -9.515625 22.328125 -7.828125 C 23.210938 -6.148438 24.820312 -5.3125 27.15625 -5.3125 C 28.375 -5.3125 29.519531 -5.566406 30.59375 -6.078125 C 31.664062 -6.597656 32.617188 -7.1875 33.453125 -7.84375 L 34.71875 -6.296875 C 32.757812 -3.867188 30.566406 -2 28.140625 -0.6875 C 25.710938 0.613281 22.910156 1.265625 19.734375 1.265625 C 15.441406 1.265625 12.175781 0.0976562 9.9375 -2.234375 C 7.695312 -4.566406 6.578125 -7.882812 6.578125 -12.1875 L 6.578125 -62.859375 L -0.84375 -62.859375 Z M -0.84375 -65.234375 "/></g></g></g><g fill="#2d3e70" fill-opacity="1"><g transform="translate(1010.548557, 407.762783)"><g><path d="M 31.640625 1.40625 C 25.109375 1.40625 19.691406 -0.0859375 15.390625 -3.078125 C 11.097656 -6.066406 7.878906 -10.101562 5.734375 -15.1875 C 3.585938 -20.269531 2.515625 -25.941406 2.515625 -32.203125 C 2.515625 -42.460938 5.101562 -50.648438 10.28125 -56.765625 C 15.46875 -62.878906 23.285156 -65.9375 33.734375 -65.9375 C 37.003906 -65.9375 40.316406 -65.351562 43.671875 -64.1875 C 47.035156 -63.019531 49.859375 -61.242188 52.140625 -58.859375 C 54.429688 -56.484375 55.578125 -53.523438 55.578125 -49.984375 C 55.578125 -48.117188 54.875 -46.601562 53.46875 -45.4375 C 52.070312 -44.269531 50.394531 -43.6875 48.4375 -43.6875 C 44.613281 -43.6875 42.1875 -45.691406 41.15625 -49.703125 C 40.96875 -50.359375 40.78125 -51.035156 40.59375 -51.734375 C 40.40625 -52.429688 40.175781 -53.15625 39.90625 -53.90625 C 39.25 -56.238281 38.21875 -58.453125 36.8125 -60.546875 C 35.414062 -62.648438 33.316406 -63.703125 30.515625 -63.703125 C 27.710938 -63.703125 25.445312 -62.648438 23.71875 -60.546875 C 22 -58.453125 20.695312 -55.863281 19.8125 -52.78125 C 18.925781 -49.695312 18.316406 -46.59375 17.984375 -43.46875 C 17.660156 -40.34375 17.5 -37.753906 17.5 -35.703125 C 17.5 -32.617188 17.894531 -29.421875 18.6875 -26.109375 C 19.476562 -22.796875 20.710938 -19.710938 22.390625 -16.859375 C 24.078125 -14.015625 26.273438 -11.707031 28.984375 -9.9375 C 31.691406 -8.164062 34.957031 -7.28125 38.78125 -7.28125 C 41.863281 -7.28125 44.875 -7.976562 47.8125 -9.375 C 50.75 -10.78125 53.101562 -12.789062 54.875 -15.40625 L 56.421875 -14.421875 C 53.804688 -9.285156 50.535156 -5.363281 46.609375 -2.65625 C 42.691406 0.0507812 37.703125 1.40625 31.640625 1.40625 Z M 31.640625 1.40625 "/></g></g></g><g fill="#2d3e70" fill-opacity="1"><g transform="translate(1069.345277, 407.762783)"><g><path d="M 0.703125 -91 L 21.84375 -97.578125 L 21.84375 -57.6875 L 23.515625 -59.21875 C 25.847656 -61.550781 28.554688 -63.253906 31.640625 -64.328125 C 34.722656 -65.398438 37.847656 -65.9375 41.015625 -65.9375 C 47.179688 -65.9375 52.363281 -64.535156 56.5625 -61.734375 C 60.757812 -58.941406 62.859375 -54.226562 62.859375 -47.59375 L 62.859375 -9.9375 C 62.859375 -4.988281 65.050781 -2.46875 69.4375 -2.375 L 69.4375 0 L 41.71875 0 L 41.71875 -2.375 C 46.195312 -2.46875 48.4375 -4.988281 48.4375 -9.9375 L 48.4375 -47.59375 C 48.4375 -51.894531 47.457031 -55.488281 45.5 -58.375 C 43.539062 -61.269531 40.132812 -62.71875 35.28125 -62.71875 C 32.570312 -62.71875 30.191406 -61.96875 28.140625 -60.46875 C 26.085938 -58.976562 24.523438 -57.085938 23.453125 -54.796875 C 22.378906 -52.515625 21.84375 -50.113281 21.84375 -47.59375 L 21.84375 -9.9375 C 21.84375 -4.988281 24.035156 -2.46875 28.421875 -2.375 L 28.421875 0 L 0.703125 0 L 0.703125 -2.375 C 5.179688 -2.46875 7.421875 -4.988281 7.421875 -9.9375 L 7.421875 -80.78125 C 7.421875 -85.632812 5.179688 -88.203125 0.703125 -88.484375 Z M 0.703125 -91 "/></g></g></g><g fill="#ffffff" fill-opacity="1"><g transform="translate(81.000002, 777.374981)"><g><path d="M 5.140625 -5.015625 L 2.890625 -5.015625 L 2.890625 0 L 1.34375 0 L 1.34375 -12.59375 L 5.640625 -12.59375 C 6.648438 -12.59375 7.484375 -12.40625 8.140625 -12.03125 C 8.796875 -11.664062 9.265625 -11.191406 9.546875 -10.609375 C 9.835938 -10.035156 9.984375 -9.429688 9.984375 -8.796875 C 9.984375 -7.921875 9.722656 -7.132812 9.203125 -6.4375 C 8.679688 -5.75 7.867188 -5.304688 6.765625 -5.109375 L 10.09375 0 L 8.390625 0 Z M 2.890625 -6.359375 L 5.4375 -6.359375 C 6.289062 -6.359375 7.007812 -6.539062 7.59375 -6.90625 C 8.1875 -7.28125 8.484375 -7.910156 8.484375 -8.796875 C 8.484375 -9.671875 8.1875 -10.289062 7.59375 -10.65625 C 7.007812 -11.019531 6.289062 -11.203125 5.4375 -11.203125 L 2.890625 -11.203125 Z M 2.890625 -6.359375 "/></g></g></g><g fill="#ffffff" fill-opacity="1"><g transform="translate(91.88997, 777.374981)"><g><path d="M 4.71875 0.015625 L 4.71875 -4.546875 L 0.609375 -12.59375 L 2.296875 -12.59375 L 5.4375 -6.296875 L 5.5625 -6.296875 L 8.671875 -12.59375 L 10.375 -12.59375 L 6.28125 -4.546875 L 6.28125 0 Z M 4.71875 0.015625 "/></g></g></g><g fill="#ffffff" fill-opacity="1"><g transform="translate(102.941941, 777.374981)"><g><path d="M 8.6875 -3.671875 L 3.5625 -3.671875 L 2.234375 0 L 0.640625 0 L 5.375 -12.59375 L 6.859375 -12.59375 L 11.625 0 L 10.046875 0 Z M 8.25 -4.90625 L 6.140625 -10.625 L 6.0625 -10.625 L 4.015625 -4.90625 Z M 8.25 -4.90625 "/></g></g></g><g fill="#ffffff" fill-opacity="1"><g transform="translate(115.1819, 777.374981)"><g><path d="M 1.34375 -12.59375 L 3.09375 -12.59375 L 9.84375 -2.484375 L 9.921875 -2.484375 L 9.921875 -12.59375 L 11.453125 -12.59375 L 11.453125 0 L 9.6875 0 L 2.953125 -9.96875 L 2.875 -9.96875 L 2.875 0 L 1.34375 0 Z M 1.34375 -12.59375 "/></g></g></g><g fill="#ffffff" fill-opacity="1"><g transform="translate(127.979862, 777.374981)"><g/></g></g><g fill="#ffffff" fill-opacity="1"><g transform="translate(132.119854, 777.374981)"><g><path d="M 1.40625 -12.59375 L 2.96875 -12.59375 L 2.96875 0 L 1.40625 0 Z M 1.40625 -12.59375 "/></g></g></g><g fill="#ffffff" fill-opacity="1"><g transform="translate(136.493843, 777.374981)"><g><path d="M 1.34375 -12.59375 L 6.390625 -12.59375 C 7.234375 -12.59375 7.921875 -12.429688 8.453125 -12.109375 C 8.984375 -11.785156 9.363281 -11.378906 9.59375 -10.890625 C 9.820312 -10.410156 9.9375 -9.910156 9.9375 -9.390625 C 9.9375 -8.859375 9.820312 -8.390625 9.59375 -7.984375 C 9.363281 -7.585938 9.085938 -7.28125 8.765625 -7.0625 C 8.441406 -6.851562 8.132812 -6.71875 7.84375 -6.65625 L 7.84375 -6.546875 C 8.15625 -6.523438 8.519531 -6.414062 8.9375 -6.21875 C 9.351562 -6.019531 9.71875 -5.703125 10.03125 -5.265625 C 10.351562 -4.828125 10.515625 -4.269531 10.515625 -3.59375 C 10.515625 -3 10.378906 -2.425781 10.109375 -1.875 C 9.835938 -1.332031 9.410156 -0.882812 8.828125 -0.53125 C 8.253906 -0.175781 7.535156 0 6.671875 0 L 1.34375 0 Z M 5.9375 -7.078125 C 6.625 -7.078125 7.210938 -7.253906 7.703125 -7.609375 C 8.191406 -7.960938 8.4375 -8.507812 8.4375 -9.25 C 8.4375 -9.957031 8.195312 -10.472656 7.71875 -10.796875 C 7.25 -11.117188 6.65625 -11.28125 5.9375 -11.28125 L 2.859375 -11.28125 L 2.859375 -7.078125 Z M 6.28125 -1.3125 C 7.0625 -1.3125 7.707031 -1.488281 8.21875 -1.84375 C 8.738281 -2.207031 9 -2.800781 9 -3.625 C 9 -4.425781 8.738281 -4.992188 8.21875 -5.328125 C 7.707031 -5.671875 7.0625 -5.84375 6.28125 -5.84375 L 2.859375 -5.84375 L 2.859375 -1.3125 Z M 6.28125 -1.3125 "/></g></g></g><g fill="#ffffff" fill-opacity="1"><g transform="translate(147.725806, 777.374981)"><g><path d="M 5.140625 -5.015625 L 2.890625 -5.015625 L 2.890625 0 L 1.34375 0 L 1.34375 -12.59375 L 5.640625 -12.59375 C 6.648438 -12.59375 7.484375 -12.40625 8.140625 -12.03125 C 8.796875 -11.664062 9.265625 -11.191406 9.546875 -10.609375 C 9.835938 -10.035156 9.984375 -9.429688 9.984375 -8.796875 C 9.984375 -7.921875 9.722656 -7.132812 9.203125 -6.4375 C 8.679688 -5.75 7.867188 -5.304688 6.765625 -5.109375 L 10.09375 0 L 8.390625 0 Z M 2.890625 -6.359375 L 5.4375 -6.359375 C 6.289062 -6.359375 7.007812 -6.539062 7.59375 -6.90625 C 8.1875 -7.28125 8.484375 -7.910156 8.484375 -8.796875 C 8.484375 -9.671875 8.1875 -10.289062 7.59375 -10.65625 C 7.007812 -11.019531 6.289062 -11.203125 5.4375 -11.203125 L 2.890625 -11.203125 Z M 2.890625 -6.359375 "/></g></g></g><g fill="#ffffff" fill-opacity="1"><g transform="translate(158.615775, 777.374981)"><g><path d="M 8.6875 -3.671875 L 3.5625 -3.671875 L 2.234375 0 L 0.640625 0 L 5.375 -12.59375 L 6.859375 -12.59375 L 11.625 0 L 10.046875 0 Z M 8.25 -4.90625 L 6.140625 -10.625 L 6.0625 -10.625 L 4.015625 -4.90625 Z M 8.25 -4.90625 "/></g></g></g><g fill="#ffffff" fill-opacity="1"><g transform="translate(170.855734, 777.374981)"><g><path d="M 10.875 -12.59375 L 10.875 0 L 9.3125 0 L 9.3125 -5.703125 L 2.890625 -5.703125 L 2.890625 0 L 1.34375 0 L 1.34375 -12.59375 L 2.890625 -12.59375 L 2.890625 -6.96875 L 9.3125 -6.96875 L 9.3125 -12.59375 Z M 10.875 -12.59375 "/></g></g></g><g fill="#ffffff" fill-opacity="1"><g transform="translate(183.077703, 777.374981)"><g><path d="M 1.40625 -12.59375 L 2.96875 -12.59375 L 2.96875 0 L 1.40625 0 Z M 1.40625 -12.59375 "/></g></g></g><g fill="#ffffff" fill-opacity="1"><g transform="translate(187.451692, 777.374981)"><g><path d="M 1.34375 -12.59375 L 3.640625 -12.59375 L 7.375 -2.953125 L 7.4375 -2.953125 L 11.171875 -12.59375 L 13.46875 -12.59375 L 13.46875 0 L 11.9375 0 L 11.9375 -10.203125 L 11.859375 -10.203125 L 7.953125 0 L 6.84375 0 L 2.953125 -10.203125 L 2.875 -10.203125 L 2.875 0 L 1.34375 0 Z M 1.34375 -12.59375 "/></g></g></g><g fill="#202020" fill-opacity="1"><g transform="translate(81.000002, 703.145793)"><g><path d="M 8.265625 0.21875 C 6.804688 0.21875 5.554688 -0.0820312 4.515625 -0.6875 C 3.484375 -1.289062 2.707031 -2.066406 2.1875 -3.015625 C 1.664062 -3.972656 1.40625 -4.972656 1.40625 -6.015625 L 1.40625 -6.15625 L 3.96875 -6.15625 L 3.96875 -6.015625 C 3.96875 -5.390625 4.113281 -4.757812 4.40625 -4.125 C 4.707031 -3.5 5.179688 -2.972656 5.828125 -2.546875 C 6.472656 -2.128906 7.300781 -1.921875 8.3125 -1.921875 C 9.5 -1.921875 10.476562 -2.222656 11.25 -2.828125 C 12.03125 -3.441406 12.421875 -4.269531 12.421875 -5.3125 C 12.421875 -6.175781 12.132812 -6.863281 11.5625 -7.375 C 11 -7.894531 10.273438 -8.242188 9.390625 -8.421875 L 6.640625 -8.9375 C 3.472656 -9.632812 1.890625 -11.300781 1.890625 -13.9375 C 1.890625 -15.007812 2.148438 -15.953125 2.671875 -16.765625 C 3.191406 -17.578125 3.914062 -18.203125 4.84375 -18.640625 C 5.769531 -19.085938 6.847656 -19.3125 8.078125 -19.3125 C 9.460938 -19.3125 10.648438 -19.03125 11.640625 -18.46875 C 12.628906 -17.90625 13.375 -17.175781 13.875 -16.28125 C 14.382812 -15.394531 14.640625 -14.476562 14.640625 -13.53125 L 14.640625 -13.421875 L 12.0625 -13.421875 L 12.0625 -13.5 C 12.0625 -14.039062 11.929688 -14.59375 11.671875 -15.15625 C 11.410156 -15.726562 10.976562 -16.21875 10.375 -16.625 C 9.78125 -17.039062 8.984375 -17.25 7.984375 -17.25 C 6.859375 -17.25 5.957031 -16.929688 5.28125 -16.296875 C 4.601562 -15.671875 4.265625 -14.890625 4.265625 -13.953125 C 4.265625 -13.160156 4.523438 -12.515625 5.046875 -12.015625 C 5.566406 -11.515625 6.28125 -11.171875 7.1875 -10.984375 L 9.671875 -10.5 C 13.140625 -9.800781 14.875 -8.101562 14.875 -5.40625 C 14.875 -4.300781 14.597656 -3.328125 14.046875 -2.484375 C 13.503906 -1.640625 12.726562 -0.976562 11.71875 -0.5 C 10.707031 -0.0195312 9.554688 0.21875 8.265625 0.21875 Z M 8.265625 0.21875 "/></g></g></g><g fill="#202020" fill-opacity="1"><g transform="translate(97.165937, 703.145793)"><g><path d="M 8.046875 0.1875 C 6.609375 0.1875 5.390625 -0.15625 4.390625 -0.84375 C 3.390625 -1.539062 2.632812 -2.453125 2.125 -3.578125 C 1.625 -4.703125 1.375 -5.910156 1.375 -7.203125 C 1.375 -8.503906 1.625 -9.71875 2.125 -10.84375 C 2.632812 -11.96875 3.390625 -12.875 4.390625 -13.5625 C 5.390625 -14.257812 6.609375 -14.609375 8.046875 -14.609375 C 9.484375 -14.609375 10.703125 -14.257812 11.703125 -13.5625 C 12.703125 -12.875 13.445312 -11.960938 13.9375 -10.828125 C 14.4375 -9.691406 14.6875 -8.484375 14.6875 -7.203125 C 14.6875 -5.929688 14.429688 -4.726562 13.921875 -3.59375 C 13.421875 -2.457031 12.671875 -1.539062 11.671875 -0.84375 C 10.671875 -0.15625 9.460938 0.1875 8.046875 0.1875 Z M 8.046875 -1.8125 C 8.929688 -1.8125 9.703125 -2.050781 10.359375 -2.53125 C 11.015625 -3.019531 11.507812 -3.671875 11.84375 -4.484375 C 12.1875 -5.304688 12.359375 -6.222656 12.359375 -7.234375 C 12.359375 -8.785156 11.972656 -10.070312 11.203125 -11.09375 C 10.429688 -12.125 9.378906 -12.640625 8.046875 -12.640625 C 7.148438 -12.640625 6.367188 -12.394531 5.703125 -11.90625 C 5.046875 -11.414062 4.546875 -10.757812 4.203125 -9.9375 C 3.867188 -9.125 3.703125 -8.222656 3.703125 -7.234375 C 3.703125 -5.679688 4.085938 -4.390625 4.859375 -3.359375 C 5.628906 -2.328125 6.691406 -1.8125 8.046875 -1.8125 Z M 8.046875 -1.8125 "/></g></g></g><g fill="#202020" fill-opacity="1"><g transform="translate(113.22392, 703.145793)"><g><path d="M 14.421875 0 L 12.0625 0 L 12.0625 -2.703125 L 11.90625 -2.703125 C 11.53125 -1.867188 10.945312 -1.164062 10.15625 -0.59375 C 9.375 -0.03125 8.421875 0.25 7.296875 0.25 C 6.109375 0.25 5.113281 -0.0351562 4.3125 -0.609375 C 3.519531 -1.191406 2.941406 -1.941406 2.578125 -2.859375 C 2.210938 -3.773438 2.03125 -4.773438 2.03125 -5.859375 L 2.03125 -14.234375 L 4.34375 -14.234375 L 4.34375 -6.15625 C 4.34375 -4.769531 4.691406 -3.703125 5.390625 -2.953125 C 6.097656 -2.210938 7.019531 -1.84375 8.15625 -1.84375 C 9.34375 -1.84375 10.289062 -2.238281 11 -3.03125 C 11.707031 -3.832031 12.0625 -4.875 12.0625 -6.15625 L 12.0625 -14.234375 L 14.421875 -14.234375 Z M 14.421875 0 "/></g></g></g><g fill="#202020" fill-opacity="1"><g transform="translate(129.470822, 703.145793)"><g><path d="M 1.921875 -14.234375 L 4.234375 -14.234375 L 4.234375 -11.96875 L 4.40625 -11.96875 C 4.632812 -12.59375 5.050781 -13.125 5.65625 -13.5625 C 6.257812 -14.007812 7.019531 -14.234375 7.9375 -14.234375 C 8.226562 -14.234375 8.457031 -14.21875 8.625 -14.1875 C 8.800781 -14.15625 8.992188 -14.109375 9.203125 -14.046875 L 9.125 -11.765625 C 8.832031 -11.859375 8.582031 -11.921875 8.375 -11.953125 C 8.175781 -11.992188 7.914062 -12.015625 7.59375 -12.015625 C 5.351562 -12.015625 4.234375 -10.691406 4.234375 -8.046875 L 4.234375 0 L 1.921875 0 Z M 1.921875 -14.234375 "/></g></g></g><g fill="#202020" fill-opacity="1"><g transform="translate(138.997662, 703.145793)"><g><path d="M 8.09375 0.1875 C 6.625 0.1875 5.378906 -0.160156 4.359375 -0.859375 C 3.335938 -1.566406 2.582031 -2.484375 2.09375 -3.609375 C 1.613281 -4.734375 1.375 -5.929688 1.375 -7.203125 C 1.375 -8.484375 1.613281 -9.6875 2.09375 -10.8125 C 2.582031 -11.9375 3.335938 -12.847656 4.359375 -13.546875 C 5.378906 -14.253906 6.625 -14.609375 8.09375 -14.609375 C 9.9375 -14.609375 11.382812 -14.078125 12.4375 -13.015625 C 13.488281 -11.953125 14.125 -10.644531 14.34375 -9.09375 L 12.0625 -9.09375 C 11.90625 -10.144531 11.492188 -11 10.828125 -11.65625 C 10.160156 -12.3125 9.257812 -12.640625 8.125 -12.640625 C 6.6875 -12.640625 5.59375 -12.117188 4.84375 -11.078125 C 4.09375 -10.046875 3.71875 -8.753906 3.71875 -7.203125 C 3.71875 -5.660156 4.09375 -4.367188 4.84375 -3.328125 C 5.59375 -2.296875 6.6875 -1.78125 8.125 -1.78125 C 9.257812 -1.78125 10.160156 -2.101562 10.828125 -2.75 C 11.492188 -3.394531 11.90625 -4.25 12.0625 -5.3125 L 14.34375 -5.3125 C 14.125 -3.769531 13.488281 -2.46875 12.4375 -1.40625 C 11.382812 -0.34375 9.9375 0.1875 8.09375 0.1875 Z M 8.09375 0.1875 "/></g></g></g><g fill="#202020" fill-opacity="1"><g transform="translate(154.542869, 703.145793)"><g><path d="M 8.015625 0.1875 C 6.554688 0.1875 5.328125 -0.160156 4.328125 -0.859375 C 3.328125 -1.566406 2.582031 -2.484375 2.09375 -3.609375 C 1.613281 -4.742188 1.375 -5.941406 1.375 -7.203125 C 1.375 -8.484375 1.613281 -9.6875 2.09375 -10.8125 C 2.582031 -11.9375 3.332031 -12.847656 4.34375 -13.546875 C 5.351562 -14.253906 6.585938 -14.609375 8.046875 -14.609375 C 9.953125 -14.609375 11.476562 -13.96875 12.625 -12.6875 C 13.769531 -11.40625 14.34375 -9.570312 14.34375 -7.1875 L 14.34375 -6.53125 L 3.703125 -6.53125 L 3.703125 -6.34375 C 3.703125 -5.550781 3.878906 -4.800781 4.234375 -4.09375 C 4.597656 -3.394531 5.101562 -2.828125 5.75 -2.390625 C 6.394531 -1.960938 7.140625 -1.75 7.984375 -1.75 C 8.910156 -1.75 9.703125 -1.984375 10.359375 -2.453125 C 11.023438 -2.921875 11.523438 -3.550781 11.859375 -4.34375 L 14.140625 -4.34375 C 13.765625 -3.050781 13.054688 -1.972656 12.015625 -1.109375 C 10.984375 -0.242188 9.648438 0.1875 8.015625 0.1875 Z M 12.046875 -8.1875 C 11.972656 -9.800781 11.578125 -10.96875 10.859375 -11.6875 C 10.140625 -12.40625 9.191406 -12.765625 8.015625 -12.765625 C 6.742188 -12.765625 5.726562 -12.34375 4.96875 -11.5 C 4.207031 -10.65625 3.800781 -9.550781 3.75 -8.1875 Z M 12.046875 -8.1875 "/></g></g></g><g fill="#202020" fill-opacity="1"><g transform="translate(170.276995, 703.145793)"><g/></g></g><g fill="#202020" fill-opacity="1"><g transform="translate(176.484282, 703.145793)"><g><path d="M 3.515625 0.1875 C 3.066406 0.1875 2.691406 0.03125 2.390625 -0.28125 C 2.097656 -0.59375 1.953125 -0.96875 1.953125 -1.40625 C 1.953125 -1.832031 2.097656 -2.191406 2.390625 -2.484375 C 2.691406 -2.785156 3.066406 -2.9375 3.515625 -2.9375 C 3.960938 -2.9375 4.332031 -2.785156 4.625 -2.484375 C 4.925781 -2.191406 5.078125 -1.832031 5.078125 -1.40625 C 5.078125 -0.96875 4.921875 -0.59375 4.609375 -0.28125 C 4.304688 0.03125 3.941406 0.1875 3.515625 0.1875 Z M 3.515625 -10.96875 C 3.066406 -10.96875 2.691406 -11.125 2.390625 -11.4375 C 2.097656 -11.75 1.953125 -12.125 1.953125 -12.5625 C 1.953125 -12.988281 2.097656 -13.347656 2.390625 -13.640625 C 2.691406 -13.941406 3.066406 -14.09375 3.515625 -14.09375 C 3.960938 -14.09375 4.332031 -13.941406 4.625 -13.640625 C 4.925781 -13.347656 5.078125 -12.988281 5.078125 -12.5625 C 5.078125 -12.125 4.921875 -11.75 4.609375 -11.4375 C 4.304688 -11.125 3.941406 -10.96875 3.515625 -10.96875 Z M 3.515625 -10.96875 "/></g></g></g><g fill="#202020" fill-opacity="1"><g transform="translate(184.391828, 703.145793)"><g/></g></g><g fill="#202020" fill-opacity="1"><g transform="translate(190.599115, 703.145793)"><g><path d="M 8.265625 0.21875 C 6.804688 0.21875 5.554688 -0.0820312 4.515625 -0.6875 C 3.484375 -1.289062 2.707031 -2.066406 2.1875 -3.015625 C 1.664062 -3.972656 1.40625 -4.972656 1.40625 -6.015625 L 1.40625 -6.15625 L 3.96875 -6.15625 L 3.96875 -6.015625 C 3.96875 -5.390625 4.113281 -4.757812 4.40625 -4.125 C 4.707031 -3.5 5.179688 -2.972656 5.828125 -2.546875 C 6.472656 -2.128906 7.300781 -1.921875 8.3125 -1.921875 C 9.5 -1.921875 10.476562 -2.222656 11.25 -2.828125 C 12.03125 -3.441406 12.421875 -4.269531 12.421875 -5.3125 C 12.421875 -6.175781 12.132812 -6.863281 11.5625 -7.375 C 11 -7.894531 10.273438 -8.242188 9.390625 -8.421875 L 6.640625 -8.9375 C 3.472656 -9.632812 1.890625 -11.300781 1.890625 -13.9375 C 1.890625 -15.007812 2.148438 -15.953125 2.671875 -16.765625 C 3.191406 -17.578125 3.914062 -18.203125 4.84375 -18.640625 C 5.769531 -19.085938 6.847656 -19.3125 8.078125 -19.3125 C 9.460938 -19.3125 10.648438 -19.03125 11.640625 -18.46875 C 12.628906 -17.90625 13.375 -17.175781 13.875 -16.28125 C 14.382812 -15.394531 14.640625 -14.476562 14.640625 -13.53125 L 14.640625 -13.421875 L 12.0625 -13.421875 L 12.0625 -13.5 C 12.0625 -14.039062 11.929688 -14.59375 11.671875 -15.15625 C 11.410156 -15.726562 10.976562 -16.21875 10.375 -16.625 C 9.78125 -17.039062 8.984375 -17.25 7.984375 -17.25 C 6.859375 -17.25 5.957031 -16.929688 5.28125 -16.296875 C 4.601562 -15.671875 4.265625 -14.890625 4.265625 -13.953125 C 4.265625 -13.160156 4.523438 -12.515625 5.046875 -12.015625 C 5.566406 -11.515625 6.28125 -11.171875 7.1875 -10.984375 L 9.671875 -10.5 C 13.140625 -9.800781 14.875 -8.101562 14.875 -5.40625 C 14.875 -4.300781 14.597656 -3.328125 14.046875 -2.484375 C 13.503906 -1.640625 12.726562 -0.976562 11.71875 -0.5 C 10.707031 -0.0195312 9.554688 0.21875 8.265625 0.21875 Z M 8.265625 0.21875 "/></g></g></g><g fill="#202020" fill-opacity="1"><g transform="translate(206.76505, 703.145793)"><g><path d="M 8.015625 0.1875 C 6.554688 0.1875 5.328125 -0.160156 4.328125 -0.859375 C 3.328125 -1.566406 2.582031 -2.484375 2.09375 -3.609375 C 1.613281 -4.742188 1.375 -5.941406 1.375 -7.203125 C 1.375 -8.484375 1.613281 -9.6875 2.09375 -10.8125 C 2.582031 -11.9375 3.332031 -12.847656 4.34375 -13.546875 C 5.351562 -14.253906 6.585938 -14.609375 8.046875 -14.609375 C 9.953125 -14.609375 11.476562 -13.96875 12.625 -12.6875 C 13.769531 -11.40625 14.34375 -9.570312 14.34375 -7.1875 L 14.34375 -6.53125 L 3.703125 -6.53125 L 3.703125 -6.34375 C 3.703125 -5.550781 3.878906 -4.800781 4.234375 -4.09375 C 4.597656 -3.394531 5.101562 -2.828125 5.75 -2.390625 C 6.394531 -1.960938 7.140625 -1.75 7.984375 -1.75 C 8.910156 -1.75 9.703125 -1.984375 10.359375 -2.453125 C 11.023438 -2.921875 11.523438 -3.550781 11.859375 -4.34375 L 14.140625 -4.34375 C 13.765625 -3.050781 13.054688 -1.972656 12.015625 -1.109375 C 10.984375 -0.242188 9.648438 0.1875 8.015625 0.1875 Z M 12.046875 -8.1875 C 11.972656 -9.800781 11.578125 -10.96875 10.859375 -11.6875 C 10.140625 -12.40625 9.191406 -12.765625 8.015625 -12.765625 C 6.742188 -12.765625 5.726562 -12.34375 4.96875 -11.5 C 4.207031 -10.65625 3.800781 -9.550781 3.75 -8.1875 Z M 12.046875 -8.1875 "/></g></g></g><g fill="#202020" fill-opacity="1"><g transform="translate(222.499176, 703.145793)"><g><path d="M 5.671875 0.109375 C 4.609375 0.109375 3.816406 -0.0625 3.296875 -0.40625 C 2.773438 -0.75 2.445312 -1.191406 2.3125 -1.734375 C 2.175781 -2.285156 2.109375 -3.003906 2.109375 -3.890625 L 2.140625 -20.25 L 4.453125 -20.25 L 4.453125 -4.234375 C 4.453125 -3.554688 4.484375 -3.050781 4.546875 -2.71875 C 4.609375 -2.382812 4.78125 -2.117188 5.0625 -1.921875 C 5.34375 -1.722656 5.789062 -1.625 6.40625 -1.625 C 6.78125 -1.625 7.109375 -1.648438 7.390625 -1.703125 L 7.390625 -0.03125 C 6.910156 0.0625 6.335938 0.109375 5.671875 0.109375 Z M 5.671875 0.109375 "/></g></g></g><g fill="#202020" fill-opacity="1"><g transform="translate(230.973468, 703.145793)"><g><path d="M 8.015625 0.1875 C 6.554688 0.1875 5.328125 -0.160156 4.328125 -0.859375 C 3.328125 -1.566406 2.582031 -2.484375 2.09375 -3.609375 C 1.613281 -4.742188 1.375 -5.941406 1.375 -7.203125 C 1.375 -8.484375 1.613281 -9.6875 2.09375 -10.8125 C 2.582031 -11.9375 3.332031 -12.847656 4.34375 -13.546875 C 5.351562 -14.253906 6.585938 -14.609375 8.046875 -14.609375 C 9.953125 -14.609375 11.476562 -13.96875 12.625 -12.6875 C 13.769531 -11.40625 14.34375 -9.570312 14.34375 -7.1875 L 14.34375 -6.53125 L 3.703125 -6.53125 L 3.703125 -6.34375 C 3.703125 -5.550781 3.878906 -4.800781 4.234375 -4.09375 C 4.597656 -3.394531 5.101562 -2.828125 5.75 -2.390625 C 6.394531 -1.960938 7.140625 -1.75 7.984375 -1.75 C 8.910156 -1.75 9.703125 -1.984375 10.359375 -2.453125 C 11.023438 -2.921875 11.523438 -3.550781 11.859375 -4.34375 L 14.140625 -4.34375 C 13.765625 -3.050781 13.054688 -1.972656 12.015625 -1.109375 C 10.984375 -0.242188 9.648438 0.1875 8.015625 0.1875 Z M 12.046875 -8.1875 C 11.972656 -9.800781 11.578125 -10.96875 10.859375 -11.6875 C 10.140625 -12.40625 9.191406 -12.765625 8.015625 -12.765625 C 6.742188 -12.765625 5.726562 -12.34375 4.96875 -11.5 C 4.207031 -10.65625 3.800781 -9.550781 3.75 -8.1875 Z M 12.046875 -8.1875 "/></g></g></g><g fill="#202020" fill-opacity="1"><g transform="translate(246.707594, 703.145793)"><g><path d="M 8.09375 0.1875 C 6.625 0.1875 5.378906 -0.160156 4.359375 -0.859375 C 3.335938 -1.566406 2.582031 -2.484375 2.09375 -3.609375 C 1.613281 -4.734375 1.375 -5.929688 1.375 -7.203125 C 1.375 -8.484375 1.613281 -9.6875 2.09375 -10.8125 C 2.582031 -11.9375 3.335938 -12.847656 4.359375 -13.546875 C 5.378906 -14.253906 6.625 -14.609375 8.09375 -14.609375 C 9.9375 -14.609375 11.382812 -14.078125 12.4375 -13.015625 C 13.488281 -11.953125 14.125 -10.644531 14.34375 -9.09375 L 12.0625 -9.09375 C 11.90625 -10.144531 11.492188 -11 10.828125 -11.65625 C 10.160156 -12.3125 9.257812 -12.640625 8.125 -12.640625 C 6.6875 -12.640625 5.59375 -12.117188 4.84375 -11.078125 C 4.09375 -10.046875 3.71875 -8.753906 3.71875 -7.203125 C 3.71875 -5.660156 4.09375 -4.367188 4.84375 -3.328125 C 5.59375 -2.296875 6.6875 -1.78125 8.125 -1.78125 C 9.257812 -1.78125 10.160156 -2.101562 10.828125 -2.75 C 11.492188 -3.394531 11.90625 -4.25 12.0625 -5.3125 L 14.34375 -5.3125 C 14.125 -3.769531 13.488281 -2.46875 12.4375 -1.40625 C 11.382812 -0.34375 9.9375 0.1875 8.09375 0.1875 Z M 8.09375 0.1875 "/></g></g></g><g fill="#202020" fill-opacity="1"><g transform="translate(262.252802, 703.145793)"><g><path d="M 5.828125 -12.359375 L 5.828125 -4.109375 C 5.828125 -3.441406 5.859375 -2.945312 5.921875 -2.625 C 5.984375 -2.3125 6.15625 -2.066406 6.4375 -1.890625 C 6.71875 -1.710938 7.171875 -1.625 7.796875 -1.625 C 8.234375 -1.625 8.703125 -1.6875 9.203125 -1.8125 L 9.203125 -0.140625 C 9.078125 -0.078125 8.800781 -0.0195312 8.375 0.03125 C 7.957031 0.0820312 7.523438 0.109375 7.078125 0.109375 C 6.035156 0.109375 5.253906 -0.0351562 4.734375 -0.328125 C 4.222656 -0.628906 3.890625 -1.035156 3.734375 -1.546875 C 3.585938 -2.066406 3.515625 -2.75 3.515625 -3.59375 L 3.515625 -12.359375 L 0.859375 -12.359375 L 0.859375 -14.234375 L 3.515625 -14.234375 L 3.515625 -18.90625 L 5.828125 -18.90625 L 5.828125 -14.234375 L 9.203125 -14.234375 L 9.203125 -12.359375 Z M 5.828125 -12.359375 "/></g></g></g><g fill="#202020" fill-opacity="1"><g transform="translate(272.859162, 703.145793)"><g><path d="M 8.046875 0.1875 C 6.609375 0.1875 5.390625 -0.15625 4.390625 -0.84375 C 3.390625 -1.539062 2.632812 -2.453125 2.125 -3.578125 C 1.625 -4.703125 1.375 -5.910156 1.375 -7.203125 C 1.375 -8.503906 1.625 -9.71875 2.125 -10.84375 C 2.632812 -11.96875 3.390625 -12.875 4.390625 -13.5625 C 5.390625 -14.257812 6.609375 -14.609375 8.046875 -14.609375 C 9.484375 -14.609375 10.703125 -14.257812 11.703125 -13.5625 C 12.703125 -12.875 13.445312 -11.960938 13.9375 -10.828125 C 14.4375 -9.691406 14.6875 -8.484375 14.6875 -7.203125 C 14.6875 -5.929688 14.429688 -4.726562 13.921875 -3.59375 C 13.421875 -2.457031 12.671875 -1.539062 11.671875 -0.84375 C 10.671875 -0.15625 9.460938 0.1875 8.046875 0.1875 Z M 8.046875 -1.8125 C 8.929688 -1.8125 9.703125 -2.050781 10.359375 -2.53125 C 11.015625 -3.019531 11.507812 -3.671875 11.84375 -4.484375 C 12.1875 -5.304688 12.359375 -6.222656 12.359375 -7.234375 C 12.359375 -8.785156 11.972656 -10.070312 11.203125 -11.09375 C 10.429688 -12.125 9.378906 -12.640625 8.046875 -12.640625 C 7.148438 -12.640625 6.367188 -12.394531 5.703125 -11.90625 C 5.046875 -11.414062 4.546875 -10.757812 4.203125 -9.9375 C 3.867188 -9.125 3.703125 -8.222656 3.703125 -7.234375 C 3.703125 -5.679688 4.085938 -4.390625 4.859375 -3.359375 C 5.628906 -2.328125 6.691406 -1.8125 8.046875 -1.8125 Z M 8.046875 -1.8125 "/></g></g></g><g fill="#202020" fill-opacity="1"><g transform="translate(288.917145, 703.145793)"><g><path d="M 1.921875 -14.234375 L 4.234375 -14.234375 L 4.234375 -11.96875 L 4.40625 -11.96875 C 4.632812 -12.59375 5.050781 -13.125 5.65625 -13.5625 C 6.257812 -14.007812 7.019531 -14.234375 7.9375 -14.234375 C 8.226562 -14.234375 8.457031 -14.21875 8.625 -14.1875 C 8.800781 -14.15625 8.992188 -14.109375 9.203125 -14.046875 L 9.125 -11.765625 C 8.832031 -11.859375 8.582031 -11.921875 8.375 -11.953125 C 8.175781 -11.992188 7.914062 -12.015625 7.59375 -12.015625 C 5.351562 -12.015625 4.234375 -10.691406 4.234375 -8.046875 L 4.234375 0 L 1.921875 0 Z M 1.921875 -14.234375 "/></g></g></g><g fill="#202020" fill-opacity="1"><g transform="translate(298.443985, 703.145793)"><g/></g></g><g fill="#202020" fill-opacity="1"><g transform="translate(304.651283, 703.145793)"><g><path d="M 8.265625 0.21875 C 6.804688 0.21875 5.554688 -0.0820312 4.515625 -0.6875 C 3.484375 -1.289062 2.707031 -2.066406 2.1875 -3.015625 C 1.664062 -3.972656 1.40625 -4.972656 1.40625 -6.015625 L 1.40625 -6.15625 L 3.96875 -6.15625 L 3.96875 -6.015625 C 3.96875 -5.390625 4.113281 -4.757812 4.40625 -4.125 C 4.707031 -3.5 5.179688 -2.972656 5.828125 -2.546875 C 6.472656 -2.128906 7.300781 -1.921875 8.3125 -1.921875 C 9.5 -1.921875 10.476562 -2.222656 11.25 -2.828125 C 12.03125 -3.441406 12.421875 -4.269531 12.421875 -5.3125 C 12.421875 -6.175781 12.132812 -6.863281 11.5625 -7.375 C 11 -7.894531 10.273438 -8.242188 9.390625 -8.421875 L 6.640625 -8.9375 C 3.472656 -9.632812 1.890625 -11.300781 1.890625 -13.9375 C 1.890625 -15.007812 2.148438 -15.953125 2.671875 -16.765625 C 3.191406 -17.578125 3.914062 -18.203125 4.84375 -18.640625 C 5.769531 -19.085938 6.847656 -19.3125 8.078125 -19.3125 C 9.460938 -19.3125 10.648438 -19.03125 11.640625 -18.46875 C 12.628906 -17.90625 13.375 -17.175781 13.875 -16.28125 C 14.382812 -15.394531 14.640625 -14.476562 14.640625 -13.53125 L 14.640625 -13.421875 L 12.0625 -13.421875 L 12.0625 -13.5 C 12.0625 -14.039062 11.929688 -14.59375 11.671875 -15.15625 C 11.410156 -15.726562 10.976562 -16.21875 10.375 -16.625 C 9.78125 -17.039062 8.984375 -17.25 7.984375 -17.25 C 6.859375 -17.25 5.957031 -16.929688 5.28125 -16.296875 C 4.601562 -15.671875 4.265625 -14.890625 4.265625 -13.953125 C 4.265625 -13.160156 4.523438 -12.515625 5.046875 -12.015625 C 5.566406 -11.515625 6.28125 -11.171875 7.1875 -10.984375 L 9.671875 -10.5 C 13.140625 -9.800781 14.875 -8.101562 14.875 -5.40625 C 14.875 -4.300781 14.597656 -3.328125 14.046875 -2.484375 C 13.503906 -1.640625 12.726562 -0.976562 11.71875 -0.5 C 10.707031 -0.0195312 9.554688 0.21875 8.265625 0.21875 Z M 8.265625 0.21875 "/></g></g></g><g fill="#202020" fill-opacity="1"><g transform="translate(320.817206, 703.145793)"><g><path d="M 0.890625 -14.234375 L 3.109375 -14.234375 L 6.265625 -2.53125 L 6.40625 -2.53125 L 9.984375 -14.234375 L 12.09375 -14.234375 L 15.734375 -2.53125 L 15.875 -2.53125 L 18.984375 -14.234375 L 21.1875 -14.234375 L 17.28125 0 L 14.3125 0 L 11.15625 -10.390625 L 10.96875 -10.390625 L 7.796875 0 L 4.828125 0 Z M 0.890625 -14.234375 "/></g></g></g><g fill="#202020" fill-opacity="1"><g transform="translate(342.866582, 703.145793)"><g><path d="M 2.21875 -14.234375 L 4.53125 -14.234375 L 4.53125 0 L 2.21875 0 Z M 3.34375 -16.875 C 2.914062 -16.875 2.554688 -17.019531 2.265625 -17.3125 C 1.972656 -17.613281 1.828125 -17.972656 1.828125 -18.390625 C 1.828125 -18.804688 1.972656 -19.160156 2.265625 -19.453125 C 2.554688 -19.753906 2.914062 -19.90625 3.34375 -19.90625 C 3.769531 -19.90625 4.128906 -19.753906 4.421875 -19.453125 C 4.722656 -19.160156 4.875 -18.804688 4.875 -18.390625 C 4.875 -17.972656 4.722656 -17.613281 4.421875 -17.3125 C 4.128906 -17.019531 3.769531 -16.875 3.34375 -16.875 Z M 3.34375 -16.875 "/></g></g></g><g fill="#202020" fill-opacity="1"><g transform="translate(349.613629, 703.145793)"><g><path d="M 5.828125 -12.359375 L 5.828125 -4.109375 C 5.828125 -3.441406 5.859375 -2.945312 5.921875 -2.625 C 5.984375 -2.3125 6.15625 -2.066406 6.4375 -1.890625 C 6.71875 -1.710938 7.171875 -1.625 7.796875 -1.625 C 8.234375 -1.625 8.703125 -1.6875 9.203125 -1.8125 L 9.203125 -0.140625 C 9.078125 -0.078125 8.800781 -0.0195312 8.375 0.03125 C 7.957031 0.0820312 7.523438 0.109375 7.078125 0.109375 C 6.035156 0.109375 5.253906 -0.0351562 4.734375 -0.328125 C 4.222656 -0.628906 3.890625 -1.035156 3.734375 -1.546875 C 3.585938 -2.066406 3.515625 -2.75 3.515625 -3.59375 L 3.515625 -12.359375 L 0.859375 -12.359375 L 0.859375 -14.234375 L 3.515625 -14.234375 L 3.515625 -18.90625 L 5.828125 -18.90625 L 5.828125 -14.234375 L 9.203125 -14.234375 L 9.203125 -12.359375 Z M 5.828125 -12.359375 "/></g></g></g><g fill="#202020" fill-opacity="1"><g transform="translate(360.21999, 703.145793)"><g><path d="M 8.09375 0.1875 C 6.625 0.1875 5.378906 -0.160156 4.359375 -0.859375 C 3.335938 -1.566406 2.582031 -2.484375 2.09375 -3.609375 C 1.613281 -4.734375 1.375 -5.929688 1.375 -7.203125 C 1.375 -8.484375 1.613281 -9.6875 2.09375 -10.8125 C 2.582031 -11.9375 3.335938 -12.847656 4.359375 -13.546875 C 5.378906 -14.253906 6.625 -14.609375 8.09375 -14.609375 C 9.9375 -14.609375 11.382812 -14.078125 12.4375 -13.015625 C 13.488281 -11.953125 14.125 -10.644531 14.34375 -9.09375 L 12.0625 -9.09375 C 11.90625 -10.144531 11.492188 -11 10.828125 -11.65625 C 10.160156 -12.3125 9.257812 -12.640625 8.125 -12.640625 C 6.6875 -12.640625 5.59375 -12.117188 4.84375 -11.078125 C 4.09375 -10.046875 3.71875 -8.753906 3.71875 -7.203125 C 3.71875 -5.660156 4.09375 -4.367188 4.84375 -3.328125 C 5.59375 -2.296875 6.6875 -1.78125 8.125 -1.78125 C 9.257812 -1.78125 10.160156 -2.101562 10.828125 -2.75 C 11.492188 -3.394531 11.90625 -4.25 12.0625 -5.3125 L 14.34375 -5.3125 C 14.125 -3.769531 13.488281 -2.46875 12.4375 -1.40625 C 11.382812 -0.34375 9.9375 0.1875 8.09375 0.1875 Z M 8.09375 0.1875 "/></g></g></g><g fill="#202020" fill-opacity="1"><g transform="translate(375.765186, 703.145793)"><g><path d="M 2.03125 -20.171875 L 4.34375 -20.171875 L 4.34375 -11.65625 L 4.5625 -11.65625 C 4.925781 -12.488281 5.507812 -13.1875 6.3125 -13.75 C 7.125 -14.320312 8.113281 -14.609375 9.28125 -14.609375 C 10.488281 -14.609375 11.5 -14.320312 12.3125 -13.75 C 13.125 -13.1875 13.722656 -12.441406 14.109375 -11.515625 C 14.492188 -10.585938 14.6875 -9.582031 14.6875 -8.5 L 14.6875 0 L 12.359375 0 L 12.359375 -8.203125 C 12.359375 -9.609375 11.992188 -10.679688 11.265625 -11.421875 C 10.535156 -12.160156 9.570312 -12.53125 8.375 -12.53125 C 7.21875 -12.53125 6.253906 -12.140625 5.484375 -11.359375 C 4.722656 -10.585938 4.34375 -9.535156 4.34375 -8.203125 L 4.34375 0 L 2.03125 0 Z M 2.03125 -20.171875 "/></g></g></g><g fill="#202020" fill-opacity="1"><g transform="translate(392.281985, 703.145793)"><g/></g></g><g fill="#202020" fill-opacity="1"><g transform="translate(398.489261, 703.145793)"><g><path d="M 9.609375 5.75 C 8.472656 5.03125 7.40625 4.046875 6.40625 2.796875 C 5.40625 1.554688 4.585938 0.0351562 3.953125 -1.765625 C 3.316406 -3.578125 3 -5.585938 3 -7.796875 C 3 -10.109375 3.332031 -12.1875 4 -14.03125 C 4.664062 -15.875 5.492188 -17.398438 6.484375 -18.609375 C 7.484375 -19.828125 8.515625 -20.753906 9.578125 -21.390625 L 10.28125 -20.6875 C 9.550781 -20 8.8125 -19.050781 8.0625 -17.84375 C 7.3125 -16.632812 6.679688 -15.164062 6.171875 -13.4375 C 5.660156 -11.71875 5.40625 -9.835938 5.40625 -7.796875 C 5.40625 -5.765625 5.664062 -3.882812 6.1875 -2.15625 C 6.707031 -0.425781 7.335938 1.035156 8.078125 2.234375 C 8.816406 3.441406 9.550781 4.378906 10.28125 5.046875 Z M 9.609375 5.75 "/></g></g></g><g fill="#202020" fill-opacity="1"><g transform="translate(410.903834, 703.145793)"><g><path d="M 16.3125 -18.90625 L 16.3125 0 L 13.953125 0 L 13.953125 -8.5625 L 4.34375 -8.5625 L 4.34375 0 L 2.03125 0 L 2.03125 -18.90625 L 4.34375 -18.90625 L 4.34375 -10.453125 L 13.953125 -10.453125 L 13.953125 -18.90625 Z M 16.3125 -18.90625 "/></g></g></g><g fill="#202020" fill-opacity="1"><g transform="translate(429.228822, 703.145793)"><g><path d="M 7.234375 0.1875 C 5.972656 0.1875 4.894531 -0.132812 4 -0.78125 C 3.113281 -1.425781 2.4375 -2.304688 1.96875 -3.421875 C 1.5 -4.546875 1.265625 -5.804688 1.265625 -7.203125 C 1.265625 -8.609375 1.503906 -9.875 1.984375 -11 C 2.460938 -12.125 3.15625 -13.003906 4.0625 -13.640625 C 4.96875 -14.285156 6.050781 -14.609375 7.3125 -14.609375 C 8.570312 -14.609375 9.585938 -14.3125 10.359375 -13.71875 C 11.140625 -13.125 11.726562 -12.410156 12.125 -11.578125 L 12.3125 -11.578125 L 12.3125 -14.234375 L 14.65625 -14.234375 L 14.65625 0 L 12.3125 0 L 12.3125 -2.921875 L 12.125 -2.921875 C 11.6875 -2.066406 11.070312 -1.332031 10.28125 -0.71875 C 9.488281 -0.113281 8.472656 0.1875 7.234375 0.1875 Z M 7.96875 -1.8125 C 9.351562 -1.8125 10.414062 -2.328125 11.15625 -3.359375 C 11.894531 -4.390625 12.265625 -5.671875 12.265625 -7.203125 C 12.265625 -8.734375 11.894531 -10.015625 11.15625 -11.046875 C 10.414062 -12.085938 9.351562 -12.609375 7.96875 -12.609375 C 6.539062 -12.609375 5.460938 -12.09375 4.734375 -11.0625 C 4.003906 -10.039062 3.640625 -8.765625 3.640625 -7.234375 C 3.640625 -5.679688 4.003906 -4.390625 4.734375 -3.359375 C 5.460938 -2.328125 6.539062 -1.8125 7.96875 -1.8125 Z M 7.96875 -1.8125 "/></g></g></g><g fill="#202020" fill-opacity="1"><g transform="translate(445.961503, 703.145793)"><g><path d="M 1.921875 -14.234375 L 4.234375 -14.234375 L 4.234375 -11.96875 L 4.40625 -11.96875 C 4.632812 -12.59375 5.050781 -13.125 5.65625 -13.5625 C 6.257812 -14.007812 7.019531 -14.234375 7.9375 -14.234375 C 8.226562 -14.234375 8.457031 -14.21875 8.625 -14.1875 C 8.800781 -14.15625 8.992188 -14.109375 9.203125 -14.046875 L 9.125 -11.765625 C 8.832031 -11.859375 8.582031 -11.921875 8.375 -11.953125 C 8.175781 -11.992188 7.914062 -12.015625 7.59375 -12.015625 C 5.351562 -12.015625 4.234375 -10.691406 4.234375 -8.046875 L 4.234375 0 L 1.921875 0 Z M 1.921875 -14.234375 "/></g></g></g><g fill="#202020" fill-opacity="1"><g transform="translate(455.488342, 703.145793)"><g><path d="M 1.921875 -14.234375 L 4.234375 -14.234375 L 4.234375 -11.96875 L 4.40625 -11.96875 C 4.632812 -12.59375 5.050781 -13.125 5.65625 -13.5625 C 6.257812 -14.007812 7.019531 -14.234375 7.9375 -14.234375 C 8.226562 -14.234375 8.457031 -14.21875 8.625 -14.1875 C 8.800781 -14.15625 8.992188 -14.109375 9.203125 -14.046875 L 9.125 -11.765625 C 8.832031 -11.859375 8.582031 -11.921875 8.375 -11.953125 C 8.175781 -11.992188 7.914062 -12.015625 7.59375 -12.015625 C 5.351562 -12.015625 4.234375 -10.691406 4.234375 -8.046875 L 4.234375 0 L 1.921875 0 Z M 1.921875 -14.234375 "/></g></g></g><g fill="#202020" fill-opacity="1"><g transform="translate(465.015182, 703.145793)"><g><path d="M 7.296875 1.96875 C 7.003906 2.65625 6.726562 3.21875 6.46875 3.65625 C 6.207031 4.09375 5.78125 4.507812 5.1875 4.90625 C 4.59375 5.3125 3.816406 5.515625 2.859375 5.515625 C 2.359375 5.515625 1.816406 5.441406 1.234375 5.296875 L 1.234375 3.5625 C 1.671875 3.632812 2.050781 3.671875 2.375 3.671875 C 2.96875 3.671875 3.441406 3.554688 3.796875 3.328125 C 4.160156 3.109375 4.445312 2.816406 4.65625 2.453125 C 4.863281 2.097656 5.113281 1.578125 5.40625 0.890625 L 6.046875 -0.703125 L 0.78125 -14.234375 L 3.21875 -14.234375 L 7.1875 -3.265625 L 7.34375 -3.265625 L 11.5 -14.234375 L 13.9375 -14.234375 Z M 7.296875 1.96875 "/></g></g></g><g fill="#202020" fill-opacity="1"><g transform="translate(479.507842, 703.145793)"><g/></g></g><g fill="#202020" fill-opacity="1"><g transform="translate(485.715117, 703.145793)"><g><path d="M 16.3125 -18.90625 L 16.3125 0 L 13.953125 0 L 13.953125 -8.5625 L 4.34375 -8.5625 L 4.34375 0 L 2.03125 0 L 2.03125 -18.90625 L 4.34375 -18.90625 L 4.34375 -10.453125 L 13.953125 -10.453125 L 13.953125 -18.90625 Z M 16.3125 -18.90625 "/></g></g></g><g fill="#202020" fill-opacity="1"><g transform="translate(504.040082, 703.145793)"><g><path d="M 8.015625 0.1875 C 6.554688 0.1875 5.328125 -0.160156 4.328125 -0.859375 C 3.328125 -1.566406 2.582031 -2.484375 2.09375 -3.609375 C 1.613281 -4.742188 1.375 -5.941406 1.375 -7.203125 C 1.375 -8.484375 1.613281 -9.6875 2.09375 -10.8125 C 2.582031 -11.9375 3.332031 -12.847656 4.34375 -13.546875 C 5.351562 -14.253906 6.585938 -14.609375 8.046875 -14.609375 C 9.953125 -14.609375 11.476562 -13.96875 12.625 -12.6875 C 13.769531 -11.40625 14.34375 -9.570312 14.34375 -7.1875 L 14.34375 -6.53125 L 3.703125 -6.53125 L 3.703125 -6.34375 C 3.703125 -5.550781 3.878906 -4.800781 4.234375 -4.09375 C 4.597656 -3.394531 5.101562 -2.828125 5.75 -2.390625 C 6.394531 -1.960938 7.140625 -1.75 7.984375 -1.75 C 8.910156 -1.75 9.703125 -1.984375 10.359375 -2.453125 C 11.023438 -2.921875 11.523438 -3.550781 11.859375 -4.34375 L 14.140625 -4.34375 C 13.765625 -3.050781 13.054688 -1.972656 12.015625 -1.109375 C 10.984375 -0.242188 9.648438 0.1875 8.015625 0.1875 Z M 12.046875 -8.1875 C 11.972656 -9.800781 11.578125 -10.96875 10.859375 -11.6875 C 10.140625 -12.40625 9.191406 -12.765625 8.015625 -12.765625 C 6.742188 -12.765625 5.726562 -12.34375 4.96875 -11.5 C 4.207031 -10.65625 3.800781 -9.550781 3.75 -8.1875 Z M 12.046875 -8.1875 "/></g></g></g><g fill="#202020" fill-opacity="1"><g transform="translate(519.774197, 703.145793)"><g><path d="M 1.921875 -14.234375 L 4.234375 -14.234375 L 4.234375 -11.96875 L 4.40625 -11.96875 C 4.632812 -12.59375 5.050781 -13.125 5.65625 -13.5625 C 6.257812 -14.007812 7.019531 -14.234375 7.9375 -14.234375 C 8.226562 -14.234375 8.457031 -14.21875 8.625 -14.1875 C 8.800781 -14.15625 8.992188 -14.109375 9.203125 -14.046875 L 9.125 -11.765625 C 8.832031 -11.859375 8.582031 -11.921875 8.375 -11.953125 C 8.175781 -11.992188 7.914062 -12.015625 7.59375 -12.015625 C 5.351562 -12.015625 4.234375 -10.691406 4.234375 -8.046875 L 4.234375 0 L 1.921875 0 Z M 1.921875 -14.234375 "/></g></g></g><g fill="#202020" fill-opacity="1"><g transform="translate(529.301037, 703.145793)"><g><path d="M 6.890625 0.1875 C 5.734375 0.1875 4.734375 -0.0390625 3.890625 -0.5 C 3.046875 -0.957031 2.398438 -1.546875 1.953125 -2.265625 C 1.515625 -2.984375 1.296875 -3.738281 1.296875 -4.53125 L 1.296875 -4.671875 L 3.625 -4.671875 L 3.625 -4.5625 C 3.625 -4.113281 3.75 -3.664062 4 -3.21875 C 4.25 -2.78125 4.625 -2.421875 5.125 -2.140625 C 5.632812 -1.867188 6.25 -1.734375 6.96875 -1.734375 C 7.832031 -1.734375 8.546875 -1.941406 9.109375 -2.359375 C 9.679688 -2.785156 9.96875 -3.367188 9.96875 -4.109375 C 9.96875 -4.710938 9.742188 -5.195312 9.296875 -5.5625 C 8.859375 -5.925781 8.304688 -6.160156 7.640625 -6.265625 L 5.78125 -6.53125 C 4.601562 -6.707031 3.617188 -7.109375 2.828125 -7.734375 C 2.035156 -8.359375 1.640625 -9.265625 1.640625 -10.453125 C 1.640625 -11.765625 2.113281 -12.785156 3.0625 -13.515625 C 4.007812 -14.242188 5.222656 -14.609375 6.703125 -14.609375 C 7.796875 -14.609375 8.734375 -14.40625 9.515625 -14 C 10.296875 -13.59375 10.894531 -13.0625 11.3125 -12.40625 C 11.726562 -11.75 11.9375 -11.035156 11.9375 -10.265625 L 11.9375 -10.15625 L 9.609375 -10.15625 L 9.609375 -10.203125 C 9.609375 -10.566406 9.515625 -10.945312 9.328125 -11.34375 C 9.140625 -11.738281 8.816406 -12.078125 8.359375 -12.359375 C 7.910156 -12.648438 7.335938 -12.796875 6.640625 -12.796875 C 5.773438 -12.796875 5.082031 -12.582031 4.5625 -12.15625 C 4.039062 -11.738281 3.78125 -11.1875 3.78125 -10.5 C 3.78125 -9.945312 3.984375 -9.488281 4.390625 -9.125 C 4.804688 -8.769531 5.332031 -8.535156 5.96875 -8.421875 L 7.984375 -8.09375 C 9.179688 -7.894531 10.179688 -7.484375 10.984375 -6.859375 C 11.796875 -6.242188 12.203125 -5.332031 12.203125 -4.125 C 12.203125 -3.257812 11.972656 -2.503906 11.515625 -1.859375 C 11.054688 -1.210938 10.421875 -0.707031 9.609375 -0.34375 C 8.796875 0.0078125 7.890625 0.1875 6.890625 0.1875 Z M 6.890625 0.1875 "/></g></g></g><g fill="#202020" fill-opacity="1"><g transform="translate(542.687191, 703.145793)"><g><path d="M 7.234375 0.1875 C 5.972656 0.1875 4.894531 -0.132812 4 -0.78125 C 3.113281 -1.425781 2.4375 -2.304688 1.96875 -3.421875 C 1.5 -4.546875 1.265625 -5.804688 1.265625 -7.203125 C 1.265625 -8.609375 1.503906 -9.875 1.984375 -11 C 2.460938 -12.125 3.15625 -13.003906 4.0625 -13.640625 C 4.96875 -14.285156 6.050781 -14.609375 7.3125 -14.609375 C 8.570312 -14.609375 9.585938 -14.3125 10.359375 -13.71875 C 11.140625 -13.125 11.726562 -12.410156 12.125 -11.578125 L 12.3125 -11.578125 L 12.3125 -14.234375 L 14.65625 -14.234375 L 14.65625 0 L 12.3125 0 L 12.3125 -2.921875 L 12.125 -2.921875 C 11.6875 -2.066406 11.070312 -1.332031 10.28125 -0.71875 C 9.488281 -0.113281 8.472656 0.1875 7.234375 0.1875 Z M 7.96875 -1.8125 C 9.351562 -1.8125 10.414062 -2.328125 11.15625 -3.359375 C 11.894531 -4.390625 12.265625 -5.671875 12.265625 -7.203125 C 12.265625 -8.734375 11.894531 -10.015625 11.15625 -11.046875 C 10.414062 -12.085938 9.351562 -12.609375 7.96875 -12.609375 C 6.539062 -12.609375 5.460938 -12.09375 4.734375 -11.0625 C 4.003906 -10.039062 3.640625 -8.765625 3.640625 -7.234375 C 3.640625 -5.679688 4.003906 -4.390625 4.734375 -3.359375 C 5.460938 -2.328125 6.539062 -1.8125 7.96875 -1.8125 Z M 7.96875 -1.8125 "/></g></g></g><g fill="#202020" fill-opacity="1"><g transform="translate(559.419872, 703.145793)"><g><path d="M 2.03125 -14.234375 L 4.34375 -14.234375 L 4.34375 -11.65625 L 4.5625 -11.65625 C 4.925781 -12.488281 5.507812 -13.1875 6.3125 -13.75 C 7.125 -14.320312 8.113281 -14.609375 9.28125 -14.609375 C 10.488281 -14.609375 11.5 -14.320312 12.3125 -13.75 C 13.125 -13.1875 13.722656 -12.441406 14.109375 -11.515625 C 14.492188 -10.585938 14.6875 -9.582031 14.6875 -8.5 L 14.6875 0 L 12.359375 0 L 12.359375 -8.203125 C 12.359375 -9.609375 11.992188 -10.679688 11.265625 -11.421875 C 10.535156 -12.160156 9.585938 -12.53125 8.421875 -12.53125 C 7.179688 -12.53125 6.191406 -12.128906 5.453125 -11.328125 C 4.710938 -10.523438 4.34375 -9.484375 4.34375 -8.203125 L 4.34375 0 L 2.03125 0 Z M 2.03125 -14.234375 "/></g></g></g><g fill="#202020" fill-opacity="1"><g transform="translate(575.936671, 703.145793)"><g><path d="M 5.828125 -12.359375 L 5.828125 -4.109375 C 5.828125 -3.441406 5.859375 -2.945312 5.921875 -2.625 C 5.984375 -2.3125 6.15625 -2.066406 6.4375 -1.890625 C 6.71875 -1.710938 7.171875 -1.625 7.796875 -1.625 C 8.234375 -1.625 8.703125 -1.6875 9.203125 -1.8125 L 9.203125 -0.140625 C 9.078125 -0.078125 8.800781 -0.0195312 8.375 0.03125 C 7.957031 0.0820312 7.523438 0.109375 7.078125 0.109375 C 6.035156 0.109375 5.253906 -0.0351562 4.734375 -0.328125 C 4.222656 -0.628906 3.890625 -1.035156 3.734375 -1.546875 C 3.585938 -2.066406 3.515625 -2.75 3.515625 -3.59375 L 3.515625 -12.359375 L 0.859375 -12.359375 L 0.859375 -14.234375 L 3.515625 -14.234375 L 3.515625 -18.90625 L 5.828125 -18.90625 L 5.828125 -14.234375 L 9.203125 -14.234375 L 9.203125 -12.359375 Z M 5.828125 -12.359375 "/></g></g></g><g fill="#202020" fill-opacity="1"><g transform="translate(586.543009, 703.145793)"><g><path d="M 8.046875 0.1875 C 6.609375 0.1875 5.390625 -0.15625 4.390625 -0.84375 C 3.390625 -1.539062 2.632812 -2.453125 2.125 -3.578125 C 1.625 -4.703125 1.375 -5.910156 1.375 -7.203125 C 1.375 -8.503906 1.625 -9.71875 2.125 -10.84375 C 2.632812 -11.96875 3.390625 -12.875 4.390625 -13.5625 C 5.390625 -14.257812 6.609375 -14.609375 8.046875 -14.609375 C 9.484375 -14.609375 10.703125 -14.257812 11.703125 -13.5625 C 12.703125 -12.875 13.445312 -11.960938 13.9375 -10.828125 C 14.4375 -9.691406 14.6875 -8.484375 14.6875 -7.203125 C 14.6875 -5.929688 14.429688 -4.726562 13.921875 -3.59375 C 13.421875 -2.457031 12.671875 -1.539062 11.671875 -0.84375 C 10.671875 -0.15625 9.460938 0.1875 8.046875 0.1875 Z M 8.046875 -1.8125 C 8.929688 -1.8125 9.703125 -2.050781 10.359375 -2.53125 C 11.015625 -3.019531 11.507812 -3.671875 11.84375 -4.484375 C 12.1875 -5.304688 12.359375 -6.222656 12.359375 -7.234375 C 12.359375 -8.785156 11.972656 -10.070312 11.203125 -11.09375 C 10.429688 -12.125 9.378906 -12.640625 8.046875 -12.640625 C 7.148438 -12.640625 6.367188 -12.394531 5.703125 -11.90625 C 5.046875 -11.414062 4.546875 -10.757812 4.203125 -9.9375 C 3.867188 -9.125 3.703125 -8.222656 3.703125 -7.234375 C 3.703125 -5.679688 4.085938 -4.390625 4.859375 -3.359375 C 5.628906 -2.328125 6.691406 -1.8125 8.046875 -1.8125 Z M 8.046875 -1.8125 "/></g></g></g><g fill="#202020" fill-opacity="1"><g transform="translate(602.600992, 703.145793)"><g><path d="M 2.921875 5.046875 C 3.648438 4.378906 4.390625 3.441406 5.140625 2.234375 C 5.890625 1.035156 6.523438 -0.425781 7.046875 -2.15625 C 7.566406 -3.882812 7.828125 -5.765625 7.828125 -7.796875 C 7.828125 -9.835938 7.566406 -11.71875 7.046875 -13.4375 C 6.523438 -15.164062 5.890625 -16.632812 5.140625 -17.84375 C 4.390625 -19.050781 3.648438 -20 2.921875 -20.6875 L 3.625 -21.390625 C 4.6875 -20.753906 5.71875 -19.820312 6.71875 -18.59375 C 7.726562 -17.375 8.566406 -15.847656 9.234375 -14.015625 C 9.898438 -12.179688 10.234375 -10.109375 10.234375 -7.796875 C 10.234375 -5.585938 9.910156 -3.578125 9.265625 -1.765625 C 8.628906 0.0351562 7.8125 1.554688 6.8125 2.796875 C 5.8125 4.046875 4.75 5.03125 3.625 5.75 Z M 2.921875 5.046875 "/></g></g></g></svg>