<svg xmlns="http://www.w3.org/2000/svg" xmlns:xlink="http://www.w3.org/1999/xlink" width="1920" zoomAndPan="magnify" viewBox="0 0 1440 809.999993" height="1080" preserveAspectRatio="xMidYMid meet" version="1.0"><defs><g/></defs><rect x="-144" width="1728" fill="#ffffff" y="-80.999999" height="971.999992" fill-opacity="1"/><rect x="-144" width="1728" fill="#faf4eb" y="-80.999999" height="971.999992" fill-opacity="1"/><path fill="#2d3e70" d="M 0 729 L 1439.964844 729 L 1439.964844 810 L 0 810 Z M 0 729 " fill-opacity="1" fill-rule="nonzero"/><g fill="#2d3e70" fill-opacity="1"><g transform="translate(450.093734, 284.230011)"><g><path d="M 2.238281 -10.640625 C 2.148438 -10.734375 2.101562 -10.828125 2.101562 -10.917969 L 4.621094 -29.820312 L 6.71875 -29.539062 C 7.1875 -26.085938 8.328125 -22.632812 10.148438 -19.179688 C 11.96875 -15.726562 14.234375 -12.621094 16.9375 -9.871094 C 19.644531 -7.117188 22.703125 -4.898438 26.109375 -3.21875 C 29.515625 -1.539062 33.039062 -0.699219 36.679688 -0.699219 C 41.066406 -0.699219 44.914062 -2.078125 48.226562 -4.828125 C 51.542969 -7.582031 53.199219 -11.339844 53.199219 -16.097656 C 53.199219 -19.273438 52.382812 -22.050781 50.75 -24.429688 C 49.113281 -26.808594 47.0625 -28.886719 44.589844 -30.660156 C 42.113281 -32.433594 39.617188 -33.972656 37.097656 -35.277344 C 35.605469 -36.117188 34.113281 -36.933594 32.617188 -37.730469 C 31.125 -38.523438 29.585938 -39.339844 28 -40.179688 C 23.890625 -42.324219 19.996094 -44.636719 16.308594 -47.109375 C 12.621094 -49.582031 9.636719 -52.453125 7.351562 -55.71875 C 5.0625 -58.984375 3.917969 -62.90625 3.917969 -67.476562 C 3.917969 -73.171875 5.4375 -77.835938 8.46875 -81.476562 C 11.503906 -85.117188 15.398438 -87.824219 20.160156 -89.597656 C 24.917969 -91.371094 29.867188 -92.257812 35 -92.257812 C 37.519531 -92.257812 40.386719 -92.023438 43.609375 -91.558594 C 46.828125 -91.089844 49.929688 -90.367188 52.917969 -89.386719 C 55.90625 -88.40625 58.332031 -87.078125 60.199219 -85.398438 C 60.292969 -85.304688 60.429688 -85.164062 60.617188 -84.976562 C 60.804688 -84.789062 60.992188 -84.605469 61.179688 -84.417969 C 61.363281 -84.230469 61.503906 -83.996094 61.597656 -83.71875 L 63.976562 -64.257812 L 61.457031 -64.257812 C 60.429688 -66.964844 58.984375 -69.835938 57.117188 -72.867188 C 55.25 -75.902344 53.105469 -78.746094 50.679688 -81.40625 C 48.25 -84.066406 45.546875 -86.214844 42.558594 -87.847656 C 39.570312 -89.480469 36.445312 -90.296875 33.179688 -90.296875 C 28.886719 -90.296875 25.222656 -89.035156 22.1875 -86.515625 C 19.15625 -83.996094 17.640625 -80.402344 17.640625 -75.738281 C 17.640625 -72.285156 18.433594 -69.296875 20.019531 -66.777344 C 21.605469 -64.257812 23.660156 -62.042969 26.179688 -60.128906 C 28.699219 -58.214844 31.265625 -56.511719 33.878906 -55.019531 C 35.371094 -54.085938 36.890625 -53.222656 38.429688 -52.429688 C 39.96875 -51.636719 41.484375 -50.816406 42.976562 -49.976562 C 47.179688 -47.738281 51.121094 -45.382812 54.808594 -42.910156 C 58.496094 -40.433594 61.503906 -37.566406 63.835938 -34.296875 C 66.171875 -31.03125 67.335938 -27.113281 67.335938 -22.539062 C 67.335938 -19.460938 66.683594 -16.519531 65.378906 -13.71875 C 63.605469 -9.707031 61.015625 -6.601562 57.609375 -4.410156 C 54.203125 -2.214844 50.421875 -0.699219 46.269531 0.140625 C 42.113281 0.980469 37.984375 1.398438 33.878906 1.398438 C 30.707031 1.398438 27.230469 1.027344 23.449219 0.28125 C 19.667969 -0.464844 16.007812 -1.585938 12.460938 -3.078125 C 8.914062 -4.574219 5.972656 -6.441406 3.640625 -8.679688 C 3.546875 -8.867188 3.40625 -9.054688 3.21875 -9.238281 C 3.035156 -9.425781 2.847656 -9.660156 2.660156 -9.941406 C 2.378906 -10.21875 2.238281 -10.453125 2.238281 -10.640625 Z M 2.238281 -10.640625 "/></g></g></g><g fill="#2d3e70" fill-opacity="1"><g transform="translate(518.549907, 284.230011)"><g><path d="M 3.640625 -90.714844 L 34.160156 -90.714844 L 34.160156 -88.476562 C 32.011719 -88.382812 30.144531 -87.753906 28.558594 -86.585938 C 26.972656 -85.421875 26.179688 -83.484375 26.179688 -80.777344 L 26.179688 -9.941406 C 26.179688 -7.234375 26.972656 -5.320312 28.558594 -4.199219 C 30.144531 -3.078125 32.011719 -2.472656 34.160156 -2.378906 L 34.160156 0 L 3.640625 0 L 3.640625 -2.378906 C 5.785156 -2.472656 7.675781 -3.078125 9.308594 -4.199219 C 10.941406 -5.320312 11.757812 -7.234375 11.757812 -9.941406 L 11.757812 -80.777344 C 11.757812 -83.484375 10.941406 -85.421875 9.308594 -86.585938 C 7.675781 -87.753906 5.785156 -88.382812 3.640625 -88.476562 Z M 3.640625 -90.714844 "/></g></g></g><g fill="#2d3e70" fill-opacity="1"><g transform="translate(555.087869, 284.230011)"><g><path d="M 0.980469 -90.714844 L 31.5 -90.714844 L 31.5 -88.476562 C 29.351562 -88.382812 27.484375 -87.753906 25.898438 -86.585938 C 24.3125 -85.421875 23.519531 -83.484375 23.519531 -80.777344 L 23.800781 -2.238281 L 35.839844 -2.238281 C 40.226562 -2.238281 44.589844 -2.847656 48.929688 -4.058594 C 53.269531 -5.273438 57.234375 -7.1875 60.828125 -9.800781 C 64.421875 -12.414062 67.246094 -15.867188 69.296875 -20.160156 L 71.539062 -20.019531 L 66.078125 0 L 0.980469 0 L 0.980469 -2.378906 C 3.125 -2.472656 5.015625 -3.078125 6.648438 -4.199219 C 8.28125 -5.320312 9.101562 -7.234375 9.101562 -9.941406 L 9.101562 -80.777344 C 9.101562 -83.484375 8.28125 -85.421875 6.648438 -86.585938 C 5.015625 -87.753906 3.125 -88.382812 0.980469 -88.476562 Z M 0.980469 -90.714844 "/></g></g></g><g fill="#2d3e70" fill-opacity="1"><g transform="translate(627.183835, 284.230011)"><g><path d="M 3.640625 -90.714844 L 34.160156 -90.714844 L 34.160156 -88.476562 C 32.011719 -88.382812 30.144531 -87.753906 28.558594 -86.585938 C 26.972656 -85.421875 26.179688 -83.484375 26.179688 -80.777344 L 26.179688 -9.941406 C 26.179688 -7.234375 26.972656 -5.320312 28.558594 -4.199219 C 30.144531 -3.078125 32.011719 -2.472656 34.160156 -2.378906 L 34.160156 0 L 3.640625 0 L 3.640625 -2.378906 C 5.785156 -2.472656 7.675781 -3.078125 9.308594 -4.199219 C 10.941406 -5.320312 11.757812 -7.234375 11.757812 -9.941406 L 11.757812 -80.777344 C 11.757812 -83.484375 10.941406 -85.421875 9.308594 -86.585938 C 7.675781 -87.753906 5.785156 -88.382812 3.640625 -88.476562 Z M 3.640625 -90.714844 "/></g></g></g><g fill="#2d3e70" fill-opacity="1"><g transform="translate(663.721797, 284.230011)"><g><path d="M 1.679688 0 L 1.679688 -2.238281 C 5.132812 -2.425781 7.910156 -3.289062 10.007812 -4.828125 C 12.109375 -6.371094 13.160156 -9.191406 13.160156 -13.300781 L 13.160156 -83.015625 L 12.878906 -83.296875 C 11.574219 -84.605469 10.054688 -85.746094 8.328125 -86.726562 C 6.601562 -87.707031 4.761719 -88.242188 2.800781 -88.335938 L 2.800781 -90.714844 L 25.757812 -90.714844 L 73.21875 -24.21875 L 73.21875 -77.417969 C 73.21875 -80.402344 72.492188 -82.667969 71.046875 -84.207031 C 69.601562 -85.746094 67.78125 -86.820312 65.585938 -87.425781 C 63.394531 -88.035156 61.222656 -88.382812 59.078125 -88.476562 L 59.078125 -90.714844 L 87.355469 -90.714844 L 87.355469 -88.476562 C 83.996094 -88.382812 81.171875 -87.566406 78.886719 -86.027344 C 76.601562 -84.488281 75.457031 -81.617188 75.457031 -77.417969 L 75.457031 0 L 72.796875 0 L 15.398438 -80.21875 L 15.398438 -13.300781 C 15.398438 -10.40625 16.121094 -8.167969 17.570312 -6.578125 C 19.015625 -4.992188 20.835938 -3.898438 23.027344 -3.289062 C 25.222656 -2.683594 27.390625 -2.332031 29.539062 -2.238281 L 29.539062 0 Z M 1.679688 0 "/></g></g></g><g fill="#2d3e70" fill-opacity="1"><g transform="translate(751.496901, 284.230011)"><g><path d="M 1.261719 -90.714844 L 24.777344 -90.714844 C 27.207031 -90.714844 29.65625 -90.738281 32.128906 -90.785156 C 34.601562 -90.832031 37.144531 -90.808594 39.757812 -90.714844 C 42.183594 -90.625 44.660156 -90.484375 47.179688 -90.296875 C 49.699219 -90.109375 52.125 -89.785156 54.457031 -89.316406 C 61.738281 -87.824219 67.5 -84.882812 71.746094 -80.496094 C 75.992188 -76.109375 79.027344 -70.789062 80.847656 -64.539062 C 82.667969 -58.285156 83.578125 -51.613281 83.578125 -44.519531 C 83.578125 -37.519531 82.597656 -30.9375 80.636719 -24.777344 C 78.675781 -18.621094 75.503906 -13.417969 71.117188 -9.167969 C 66.730469 -4.921875 60.851562 -2.238281 53.476562 -1.121094 C 48.90625 -0.464844 44.121094 -0.117188 39.128906 -0.0703125 C 34.136719 -0.0234375 29.351562 0 24.777344 0 L 1.261719 0 L 1.261719 -2.238281 C 3.40625 -2.425781 5.296875 -3.078125 6.929688 -4.199219 C 8.5625 -5.320312 9.378906 -7.234375 9.378906 -9.941406 L 9.378906 -80.777344 C 9.378906 -83.484375 8.5625 -85.421875 6.929688 -86.585938 C 5.296875 -87.753906 3.40625 -88.382812 1.261719 -88.476562 Z M 23.800781 -2.238281 L 24.777344 -2.238281 C 28.980469 -2.238281 33.320312 -2.496094 37.796875 -3.011719 C 42.277344 -3.523438 46.476562 -4.804688 50.398438 -6.859375 C 55.15625 -9.378906 58.820312 -12.808594 61.386719 -17.148438 C 63.953125 -21.488281 65.75 -26.226562 66.777344 -31.359375 C 67.804688 -36.492188 68.316406 -41.4375 68.316406 -46.199219 C 68.316406 -49.464844 68.015625 -53.128906 67.40625 -57.1875 C 66.800781 -61.246094 65.773438 -65.285156 64.328125 -69.296875 C 62.882812 -73.3125 60.921875 -76.855469 58.449219 -79.9375 C 55.976562 -83.015625 52.871094 -85.164062 49.136719 -86.375 C 47.085938 -87.125 44.566406 -87.636719 41.578125 -87.917969 C 38.59375 -88.195312 35.605469 -88.382812 32.617188 -88.476562 C 29.632812 -88.570312 27.019531 -88.617188 24.777344 -88.617188 L 23.800781 -88.617188 Z M 23.800781 -2.238281 "/></g></g></g><g fill="#2d3e70" fill-opacity="1"><g transform="translate(837.592081, 284.230011)"><g><path d="M 1.261719 0 L 1.261719 -2.378906 C 3.40625 -2.472656 5.296875 -3.078125 6.929688 -4.199219 C 8.5625 -5.320312 9.378906 -7.234375 9.378906 -9.941406 L 9.378906 -80.777344 C 9.378906 -83.484375 8.5625 -85.421875 6.929688 -86.585938 C 5.296875 -87.753906 3.40625 -88.382812 1.261719 -88.476562 L 1.261719 -90.714844 L 66.636719 -90.714844 L 72.238281 -64.257812 L 69.996094 -64.117188 C 69.34375 -65.609375 68.761719 -67.082031 68.246094 -68.527344 C 67.734375 -69.972656 67.152344 -71.398438 66.496094 -72.796875 C 64.070312 -77.929688 60.945312 -81.828125 57.117188 -84.488281 C 53.292969 -87.148438 48.484375 -88.476562 42.699219 -88.476562 L 23.800781 -88.476562 L 23.800781 -45.21875 L 24.777344 -45.359375 C 27.390625 -45.359375 29.957031 -45.359375 32.480469 -45.359375 C 35 -45.359375 37.566406 -45.40625 40.179688 -45.5 C 43.351562 -45.5 46.292969 -45.824219 49 -46.476562 C 51.703125 -47.132812 53.898438 -48.414062 55.578125 -50.328125 C 57.257812 -52.242188 58.191406 -55.019531 58.378906 -58.65625 L 60.476562 -58.65625 L 60.476562 -31.917969 L 58.238281 -31.917969 C 58.050781 -35.652344 56.859375 -38.289062 54.667969 -39.828125 C 52.476562 -41.367188 49.746094 -42.230469 46.476562 -42.417969 C 45.546875 -42.605469 44.519531 -42.699219 43.398438 -42.699219 C 42.277344 -42.699219 41.207031 -42.699219 40.179688 -42.699219 L 23.800781 -42.839844 L 23.800781 -2.238281 L 49.417969 -2.238281 C 54.738281 -2.238281 59.007812 -3.664062 62.226562 -6.511719 C 65.449219 -9.355469 68.085938 -13.019531 70.136719 -17.5 C 70.882812 -19.085938 71.515625 -20.625 72.027344 -22.121094 C 72.539062 -23.613281 73.125 -25.105469 73.777344 -26.597656 L 76.015625 -26.460938 L 70.417969 0 Z M 1.261719 0 "/></g></g></g><g fill="#2d3e70" fill-opacity="1"><g transform="translate(914.027807, 284.230011)"><g><path d="M 1.960938 -88.476562 L 1.960938 -90.714844 C 7.464844 -90.714844 12.902344 -90.738281 18.269531 -90.785156 C 23.636719 -90.832031 29.027344 -90.855469 34.4375 -90.855469 C 37.707031 -90.855469 40.949219 -90.785156 44.167969 -90.648438 C 47.386719 -90.507812 50.492188 -90.015625 53.476562 -89.175781 C 58.703125 -87.777344 62.765625 -85.117188 65.65625 -81.195312 C 68.550781 -77.277344 69.996094 -72.609375 69.996094 -67.199219 C 69.996094 -61.785156 68.714844 -57.351562 66.148438 -53.898438 C 63.582031 -50.445312 60.175781 -47.925781 55.929688 -46.339844 C 51.679688 -44.75 47.039062 -43.957031 42 -43.957031 C 46.199219 -43.773438 49.628906 -42.558594 52.289062 -40.320312 C 54.949219 -38.078125 57.09375 -35.347656 58.726562 -32.128906 C 60.359375 -28.910156 61.785156 -25.710938 62.996094 -22.539062 C 63.464844 -21.324219 63.90625 -20.136719 64.328125 -18.96875 C 64.746094 -17.800781 65.144531 -16.660156 65.519531 -15.539062 C 65.984375 -14.417969 66.449219 -13.324219 66.917969 -12.25 C 67.382812 -11.175781 67.851562 -10.171875 68.316406 -9.238281 C 69.34375 -7.464844 70.511719 -5.972656 71.816406 -4.761719 C 73.125 -3.546875 74.757812 -2.753906 76.71875 -2.378906 L 76.71875 0 L 61.738281 0 C 58.378906 0 55.789062 -1.492188 53.96875 -4.480469 C 52.148438 -7.464844 50.539062 -11.199219 49.136719 -15.679688 C 48.484375 -17.824219 47.808594 -20.066406 47.109375 -22.398438 C 46.410156 -24.734375 45.636719 -26.972656 44.796875 -29.117188 C 43.023438 -33.691406 40.832031 -37.191406 38.21875 -39.617188 C 35.605469 -42.046875 31.683594 -43.257812 26.460938 -43.257812 L 24.5 -43.257812 L 24.5 -9.941406 C 24.5 -5.085938 26.691406 -2.519531 31.078125 -2.238281 L 31.078125 0 L 1.960938 0 L 1.960938 -2.378906 C 4.105469 -2.472656 5.996094 -3.078125 7.628906 -4.199219 C 9.261719 -5.320312 10.078125 -7.234375 10.078125 -9.941406 L 10.078125 -80.777344 C 10.078125 -83.484375 9.261719 -85.421875 7.628906 -86.585938 C 5.996094 -87.753906 4.105469 -88.382812 1.960938 -88.476562 Z M 25.480469 -88.757812 L 24.5 -88.757812 L 24.5 -45.636719 L 25.480469 -45.636719 C 26.785156 -45.636719 28.230469 -45.636719 29.820312 -45.636719 C 31.40625 -45.636719 33.039062 -45.683594 34.71875 -45.777344 C 36.398438 -45.964844 38.054688 -46.175781 39.6875 -46.410156 C 41.320312 -46.640625 42.746094 -46.992188 43.957031 -47.457031 C 47.878906 -49.042969 50.679688 -51.773438 52.359375 -55.648438 C 54.039062 -59.519531 54.878906 -63.371094 54.878906 -67.199219 C 54.878906 -71.023438 54.039062 -74.851562 52.359375 -78.675781 C 50.679688 -82.503906 47.878906 -85.210938 43.957031 -86.796875 C 42.746094 -87.261719 41.320312 -87.636719 39.6875 -87.917969 C 38.054688 -88.195312 36.398438 -88.382812 34.71875 -88.476562 C 33.039062 -88.664062 31.40625 -88.757812 29.820312 -88.757812 C 28.230469 -88.757812 26.785156 -88.757812 25.480469 -88.757812 Z M 25.480469 -88.757812 "/></g></g></g><g fill="#2d3e70" fill-opacity="1"><g transform="translate(355.593738, 479.980001)"><g><path d="M 1.121094 -2.378906 C 3.265625 -2.472656 5.15625 -3.078125 6.789062 -4.199219 C 8.421875 -5.320312 9.238281 -7.234375 9.238281 -9.941406 L 9.238281 -80.777344 C 9.238281 -83.484375 8.421875 -85.421875 6.789062 -86.585938 C 5.15625 -87.753906 3.265625 -88.382812 1.121094 -88.476562 L 1.121094 -90.714844 C 6.53125 -90.714844 11.898438 -90.738281 17.21875 -90.785156 C 22.539062 -90.832031 27.90625 -90.855469 33.320312 -90.855469 C 36.304688 -90.855469 39.570312 -90.761719 43.117188 -90.578125 C 46.664062 -90.390625 49.792969 -89.875 52.5 -89.035156 C 58.003906 -87.449219 62.179688 -84.300781 65.027344 -79.585938 C 67.875 -74.875 69.296875 -69.671875 69.296875 -63.976562 C 69.296875 -58.285156 67.875 -53.082031 65.027344 -48.367188 C 62.179688 -43.65625 58.003906 -40.457031 52.5 -38.777344 C 50.632812 -38.21875 48.507812 -37.820312 46.128906 -37.589844 C 43.75 -37.355469 41.296875 -37.191406 38.777344 -37.097656 C 36.257812 -37.003906 33.785156 -36.980469 31.359375 -37.027344 C 28.933594 -37.074219 26.691406 -37.097656 24.640625 -37.097656 L 23.660156 -37.238281 L 23.660156 -9.941406 C 23.660156 -7.234375 24.453125 -5.320312 26.039062 -4.199219 C 27.625 -3.078125 29.492188 -2.472656 31.640625 -2.378906 L 31.640625 0 L 1.121094 0 Z M 23.660156 -39.757812 L 24.640625 -39.757812 C 25.945312 -39.757812 27.390625 -39.757812 28.980469 -39.757812 C 30.566406 -39.757812 32.246094 -39.804688 34.019531 -39.898438 C 35.699219 -39.992188 37.355469 -40.179688 38.988281 -40.457031 C 40.621094 -40.738281 42.046875 -41.160156 43.257812 -41.71875 C 45.964844 -42.933594 48.113281 -44.796875 49.699219 -47.316406 C 51.285156 -49.839844 52.40625 -52.589844 53.058594 -55.578125 C 53.710938 -58.566406 54.039062 -61.316406 54.039062 -63.835938 C 54.039062 -66.449219 53.710938 -69.25 53.058594 -72.238281 C 52.40625 -75.222656 51.285156 -78 49.699219 -80.566406 C 48.113281 -83.132812 45.917969 -85.023438 43.117188 -86.238281 C 41.90625 -86.796875 40.480469 -87.195312 38.847656 -87.425781 C 37.214844 -87.660156 35.558594 -87.824219 33.878906 -87.917969 C 32.199219 -88.105469 30.566406 -88.195312 28.980469 -88.195312 C 27.390625 -88.195312 25.945312 -88.195312 24.640625 -88.195312 L 23.660156 -88.195312 Z M 23.660156 -39.757812 "/></g></g></g><g fill="#2d3e70" fill-opacity="1"><g transform="translate(426.009804, 479.980001)"><g><path d="M 1.679688 0 L 1.679688 -2.238281 C 5.132812 -2.425781 7.910156 -3.289062 10.007812 -4.828125 C 12.109375 -6.371094 13.160156 -9.191406 13.160156 -13.300781 L 13.160156 -83.015625 L 12.878906 -83.296875 C 11.574219 -84.605469 10.054688 -85.746094 8.328125 -86.726562 C 6.601562 -87.707031 4.761719 -88.242188 2.800781 -88.335938 L 2.800781 -90.714844 L 25.757812 -90.714844 L 73.21875 -24.21875 L 73.21875 -77.417969 C 73.21875 -80.402344 72.492188 -82.667969 71.046875 -84.207031 C 69.601562 -85.746094 67.78125 -86.820312 65.585938 -87.425781 C 63.394531 -88.035156 61.222656 -88.382812 59.078125 -88.476562 L 59.078125 -90.714844 L 87.355469 -90.714844 L 87.355469 -88.476562 C 83.996094 -88.382812 81.171875 -87.566406 78.886719 -86.027344 C 76.601562 -84.488281 75.457031 -81.617188 75.457031 -77.417969 L 75.457031 0 L 72.796875 0 L 15.398438 -80.21875 L 15.398438 -13.300781 C 15.398438 -10.40625 16.121094 -8.167969 17.570312 -6.578125 C 19.015625 -4.992188 20.835938 -3.898438 23.027344 -3.289062 C 25.222656 -2.683594 27.390625 -2.332031 29.539062 -2.238281 L 29.539062 0 Z M 1.679688 0 "/></g></g></g><g fill="#2d3e70" fill-opacity="1"><g transform="translate(513.784897, 479.980001)"><g><path d="M 1.261719 0 L 1.261719 -2.378906 C 3.40625 -2.472656 5.296875 -3.078125 6.929688 -4.199219 C 8.5625 -5.320312 9.378906 -7.234375 9.378906 -9.941406 L 9.378906 -80.777344 C 9.378906 -83.484375 8.5625 -85.421875 6.929688 -86.585938 C 5.296875 -87.753906 3.40625 -88.382812 1.261719 -88.476562 L 1.261719 -90.714844 L 66.636719 -90.714844 L 72.238281 -64.257812 L 69.996094 -64.117188 C 69.34375 -65.609375 68.761719 -67.082031 68.246094 -68.527344 C 67.734375 -69.972656 67.152344 -71.398438 66.496094 -72.796875 C 64.070312 -77.929688 60.945312 -81.828125 57.117188 -84.488281 C 53.292969 -87.148438 48.484375 -88.476562 42.699219 -88.476562 L 23.800781 -88.476562 L 23.800781 -45.21875 L 24.777344 -45.359375 C 27.390625 -45.359375 29.957031 -45.359375 32.480469 -45.359375 C 35 -45.359375 37.566406 -45.40625 40.179688 -45.5 C 43.351562 -45.5 46.292969 -45.824219 49 -46.476562 C 51.703125 -47.132812 53.898438 -48.414062 55.578125 -50.328125 C 57.257812 -52.242188 58.191406 -55.019531 58.378906 -58.65625 L 60.476562 -58.65625 L 60.476562 -31.917969 L 58.238281 -31.917969 C 58.050781 -35.652344 56.859375 -38.289062 54.667969 -39.828125 C 52.476562 -41.367188 49.746094 -42.230469 46.476562 -42.417969 C 45.546875 -42.605469 44.519531 -42.699219 43.398438 -42.699219 C 42.277344 -42.699219 41.207031 -42.699219 40.179688 -42.699219 L 23.800781 -42.839844 L 23.800781 -2.238281 L 49.417969 -2.238281 C 54.738281 -2.238281 59.007812 -3.664062 62.226562 -6.511719 C 65.449219 -9.355469 68.085938 -13.019531 70.136719 -17.5 C 70.882812 -19.085938 71.515625 -20.625 72.027344 -22.121094 C 72.539062 -23.613281 73.125 -25.105469 73.777344 -26.597656 L 76.015625 -26.460938 L 70.417969 0 Z M 1.261719 0 "/></g></g></g><g fill="#2d3e70" fill-opacity="1"><g transform="translate(590.220634, 479.980001)"><g><path d="M 1.261719 -88.476562 L 1.261719 -90.714844 L 31.777344 -90.714844 L 31.777344 -88.476562 C 29.632812 -88.382812 27.765625 -87.753906 26.179688 -86.585938 C 24.59375 -85.421875 23.800781 -83.484375 23.800781 -80.777344 L 23.800781 -27.71875 C 23.800781 -25.945312 23.847656 -24.125 23.9375 -22.257812 C 24.03125 -20.394531 24.265625 -18.527344 24.640625 -16.660156 C 25.757812 -11.714844 28.09375 -7.933594 31.640625 -5.320312 C 35.183594 -2.707031 39.386719 -1.398438 44.238281 -1.398438 C 49.089844 -1.398438 53.316406 -2.542969 56.90625 -4.828125 C 60.5 -7.117188 63.300781 -10.195312 65.308594 -14.070312 C 67.3125 -17.941406 68.316406 -22.210938 68.316406 -26.878906 L 68.316406 -77.417969 C 68.316406 -80.402344 67.59375 -82.667969 66.148438 -84.207031 C 64.699219 -85.746094 62.882812 -86.820312 60.6875 -87.425781 C 58.496094 -88.035156 56.324219 -88.382812 54.179688 -88.476562 L 54.179688 -90.714844 L 81.058594 -90.714844 L 81.058594 -88.476562 C 77.605469 -88.382812 74.992188 -87.519531 73.21875 -85.886719 C 71.445312 -84.253906 70.558594 -81.429688 70.558594 -77.417969 L 70.558594 -28.699219 C 70.558594 -18.992188 68.039062 -11.550781 62.996094 -6.371094 C 57.957031 -1.191406 50.585938 1.398438 40.878906 1.398438 C 35.183594 1.398438 29.9375 0.421875 25.128906 -1.539062 C 20.324219 -3.5 16.496094 -6.488281 13.648438 -10.5 C 10.804688 -14.511719 9.378906 -19.644531 9.378906 -25.898438 L 9.378906 -80.777344 C 9.378906 -83.484375 8.5625 -85.421875 6.929688 -86.585938 C 5.296875 -87.753906 3.40625 -88.382812 1.261719 -88.476562 Z M 1.261719 -88.476562 "/></g></g></g><g fill="#2d3e70" fill-opacity="1"><g transform="translate(671.696063, 479.980001)"><g><path d="M 2.519531 -2.238281 C 5.878906 -2.425781 8.679688 -3.265625 10.917969 -4.761719 C 13.160156 -6.253906 14.28125 -9.101562 14.28125 -13.300781 L 14.28125 -83.855469 L 14 -84.136719 C 12.597656 -85.628906 11.082031 -86.703125 9.449219 -87.355469 C 7.816406 -88.011719 6.066406 -88.382812 4.199219 -88.476562 L 4.199219 -90.714844 L 27.859375 -90.714844 L 62.019531 -18.757812 L 90.15625 -90.714844 L 112.835938 -90.714844 L 112.835938 -88.476562 C 110.6875 -88.382812 108.800781 -87.753906 107.167969 -86.585938 C 105.53125 -85.421875 104.714844 -83.484375 104.714844 -80.777344 L 104.714844 -9.941406 C 104.714844 -7.234375 105.53125 -5.320312 107.167969 -4.199219 C 108.800781 -3.078125 110.6875 -2.472656 112.835938 -2.378906 L 112.835938 0 L 82.316406 0 L 82.316406 -2.378906 C 84.464844 -2.472656 86.332031 -3.078125 87.917969 -4.199219 C 89.503906 -5.320312 90.296875 -7.234375 90.296875 -9.941406 L 90.296875 -85.398438 L 57.539062 -1.398438 L 54.597656 -1.398438 L 16.519531 -80.496094 L 16.519531 -13.300781 C 16.519531 -9.941406 17.265625 -7.488281 18.757812 -5.949219 C 20.253906 -4.410156 22.121094 -3.429688 24.359375 -3.011719 C 26.597656 -2.589844 28.886719 -2.332031 31.21875 -2.238281 L 31.21875 0 L 2.519531 0 Z M 2.519531 -2.238281 "/></g></g></g><g fill="#2d3e70" fill-opacity="1"><g transform="translate(785.929654, 479.980001)"><g><path d="M 32.617188 0 L 0.699219 0 L 0.699219 -2.378906 C 4.339844 -2.660156 7.394531 -3.875 9.871094 -6.019531 C 12.34375 -8.167969 14.28125 -10.871094 15.679688 -14.140625 L 48.019531 -90.714844 L 51.9375 -90.714844 L 85.535156 -10.078125 C 86.5625 -7.464844 87.917969 -5.554688 89.597656 -4.339844 C 91.277344 -3.125 93.421875 -2.472656 96.035156 -2.378906 L 96.035156 0 L 62.15625 0 L 62.15625 -2.238281 C 63.835938 -2.425781 65.585938 -2.824219 67.40625 -3.429688 C 69.226562 -4.035156 70.136719 -5.460938 70.136719 -7.699219 C 70.136719 -8.257812 70.089844 -8.820312 69.996094 -9.378906 C 69.902344 -9.941406 69.765625 -10.40625 69.578125 -10.78125 L 59.21875 -35.699219 L 27.859375 -35.699219 L 19.460938 -14.980469 C 19.179688 -14.324219 18.96875 -13.554688 18.828125 -12.667969 C 18.6875 -11.78125 18.621094 -11.011719 18.621094 -10.359375 C 18.621094 -7.839844 19.390625 -6.019531 20.929688 -4.898438 C 22.46875 -3.78125 24.335938 -3.054688 26.527344 -2.730469 C 28.722656 -2.402344 30.753906 -2.238281 32.617188 -2.238281 Z M 43.398438 -73.636719 L 28.839844 -37.9375 L 58.238281 -37.9375 Z M 43.398438 -73.636719 "/></g></g></g><g fill="#2d3e70" fill-opacity="1"><g transform="translate(880.984367, 479.980001)"><g><path d="M 3.640625 -64.117188 L 1.398438 -64.257812 L 6.859375 -90.714844 L 79.65625 -90.714844 L 85.535156 -64.257812 L 83.15625 -64.117188 C 81.105469 -68.597656 78.816406 -72.679688 76.296875 -76.367188 C 73.777344 -80.054688 70.699219 -82.992188 67.058594 -85.1875 C 63.417969 -87.378906 58.9375 -88.476562 53.617188 -88.476562 L 49.839844 -88.476562 L 49.839844 -9.941406 C 49.839844 -7.234375 50.632812 -5.320312 52.21875 -4.199219 C 53.804688 -3.078125 55.671875 -2.425781 57.816406 -2.238281 L 57.816406 0 L 27.300781 0 L 27.300781 -2.238281 C 29.445312 -2.425781 31.335938 -3.078125 32.96875 -4.199219 C 34.601562 -5.320312 35.417969 -7.234375 35.417969 -9.941406 L 35.417969 -88.476562 L 31.5 -88.476562 C 26.367188 -88.476562 22.097656 -87.332031 18.6875 -85.046875 C 15.28125 -82.761719 12.414062 -79.75 10.078125 -76.015625 C 7.746094 -72.285156 5.601562 -68.316406 3.640625 -64.117188 Z M 3.640625 -64.117188 "/></g></g></g><g fill="#2d3e70" fill-opacity="1"><g transform="translate(966.379581, 479.980001)"><g><path d="M 3.640625 -90.714844 L 34.160156 -90.714844 L 34.160156 -88.476562 C 32.011719 -88.382812 30.144531 -87.753906 28.558594 -86.585938 C 26.972656 -85.421875 26.179688 -83.484375 26.179688 -80.777344 L 26.179688 -9.941406 C 26.179688 -7.234375 26.972656 -5.320312 28.558594 -4.199219 C 30.144531 -3.078125 32.011719 -2.472656 34.160156 -2.378906 L 34.160156 0 L 3.640625 0 L 3.640625 -2.378906 C 5.785156 -2.472656 7.675781 -3.078125 9.308594 -4.199219 C 10.941406 -5.320312 11.757812 -7.234375 11.757812 -9.941406 L 11.757812 -80.777344 C 11.757812 -83.484375 10.941406 -85.421875 9.308594 -86.585938 C 7.675781 -87.753906 5.785156 -88.382812 3.640625 -88.476562 Z M 3.640625 -90.714844 "/></g></g></g><g fill="#2d3e70" fill-opacity="1"><g transform="translate(1002.917543, 479.980001)"><g><path d="M 31.5 0 L 0.980469 0 L 0.980469 -2.378906 C 3.125 -2.472656 5.015625 -3.078125 6.648438 -4.199219 C 8.28125 -5.320312 9.101562 -7.234375 9.101562 -9.941406 L 9.101562 -80.777344 C 9.101562 -83.484375 8.28125 -85.421875 6.648438 -86.585938 C 5.015625 -87.753906 3.125 -88.382812 0.980469 -88.476562 L 0.980469 -90.714844 L 31.5 -90.714844 L 31.5 -88.476562 C 29.351562 -88.382812 27.484375 -87.753906 25.898438 -86.585938 C 24.3125 -85.421875 23.519531 -83.484375 23.519531 -80.777344 L 23.519531 -45.5 L 49.558594 -69.859375 C 50.304688 -70.511719 51.402344 -71.445312 52.847656 -72.65625 C 54.292969 -73.871094 55.789062 -75.199219 57.328125 -76.648438 C 58.867188 -78.09375 60.175781 -79.515625 61.246094 -80.917969 C 62.320312 -82.316406 62.859375 -83.578125 62.859375 -84.695312 C 62.859375 -86.375 62.179688 -87.332031 60.828125 -87.566406 C 59.472656 -87.800781 57.722656 -87.964844 55.578125 -88.058594 L 55.578125 -90.714844 L 79.097656 -90.714844 L 79.097656 -88.335938 C 77.417969 -88.148438 75.410156 -87.308594 73.078125 -85.816406 C 70.746094 -84.324219 68.246094 -82.457031 65.585938 -80.21875 C 62.929688 -77.976562 60.246094 -75.644531 57.539062 -73.21875 L 36.398438 -54.316406 L 70.699219 -9.378906 C 72.191406 -7.511719 73.917969 -5.925781 75.878906 -4.621094 C 77.835938 -3.3125 80.078125 -2.566406 82.597656 -2.378906 L 82.597656 0 L 47.597656 0 L 47.597656 -2.378906 C 48.53125 -2.378906 49.558594 -2.613281 50.679688 -3.078125 C 51.332031 -3.453125 51.890625 -3.917969 52.359375 -4.480469 C 52.824219 -5.039062 53.058594 -5.785156 53.058594 -6.71875 C 53.058594 -7.746094 52.871094 -8.492188 52.5 -8.960938 C 52.3125 -9.332031 52.125 -9.613281 51.9375 -9.800781 C 51.75 -10.171875 51.566406 -10.453125 51.378906 -10.640625 L 25.757812 -44.519531 L 23.519531 -42.417969 L 23.519531 -9.941406 C 23.519531 -7.234375 24.3125 -5.320312 25.898438 -4.199219 C 27.484375 -3.078125 29.351562 -2.472656 31.5 -2.378906 Z M 31.5 0 "/></g></g></g><g fill="#ffffff" fill-opacity="1"><g transform="translate(81.000002, 777.374981)"><g><path d="M 5.148438 -5.023438 L 2.898438 -5.023438 L 2.898438 0 L 1.351562 0 L 1.351562 -12.601562 L 5.632812 -12.601562 C 6.652344 -12.601562 7.492188 -12.414062 8.144531 -12.042969 C 8.800781 -11.671875 9.269531 -11.195312 9.558594 -10.621094 C 9.847656 -10.042969 9.988281 -9.4375 9.988281 -8.800781 C 9.988281 -7.925781 9.730469 -7.140625 9.207031 -6.445312 C 8.683594 -5.746094 7.871094 -5.304688 6.769531 -5.113281 L 10.097656 0 L 8.386719 0 Z M 2.898438 -6.355469 L 5.4375 -6.355469 C 6.289062 -6.355469 7.007812 -6.539062 7.597656 -6.910156 C 8.183594 -7.285156 8.476562 -7.914062 8.476562 -8.800781 C 8.476562 -9.679688 8.183594 -10.296875 7.597656 -10.65625 C 7.007812 -11.015625 6.289062 -11.195312 5.4375 -11.195312 L 2.898438 -11.195312 Z M 2.898438 -6.355469 "/></g></g></g><g fill="#ffffff" fill-opacity="1"><g transform="translate(91.88997, 777.374981)"><g><path d="M 4.714844 0.0195312 L 4.714844 -4.554688 L 0.613281 -12.601562 L 2.304688 -12.601562 L 5.4375 -6.300781 L 5.5625 -6.300781 L 8.675781 -12.601562 L 10.367188 -12.601562 L 6.28125 -4.554688 L 6.28125 0 Z M 4.714844 0.0195312 "/></g></g></g><g fill="#ffffff" fill-opacity="1"><g transform="translate(102.941941, 777.374981)"><g><path d="M 8.695312 -3.671875 L 3.5625 -3.671875 L 2.230469 0 L 0.648438 0 L 5.382812 -12.601562 L 6.859375 -12.601562 L 11.628906 0 L 10.042969 0 Z M 8.242188 -4.914062 L 6.136719 -10.621094 L 6.066406 -10.621094 L 4.015625 -4.914062 Z M 8.242188 -4.914062 "/></g></g></g><g fill="#ffffff" fill-opacity="1"><g transform="translate(115.1819, 777.374981)"><g><path d="M 1.351562 -12.601562 L 3.097656 -12.601562 L 9.847656 -2.484375 L 9.917969 -2.484375 L 9.917969 -12.601562 L 11.449219 -12.601562 L 11.449219 0 L 9.683594 0 L 2.953125 -9.972656 L 2.878906 -9.972656 L 2.878906 0 L 1.351562 0 Z M 1.351562 -12.601562 "/></g></g></g><g fill="#ffffff" fill-opacity="1"><g transform="translate(127.979862, 777.374981)"><g/></g></g><g fill="#ffffff" fill-opacity="1"><g transform="translate(132.119854, 777.374981)"><g><path d="M 1.402344 -12.601562 L 2.96875 -12.601562 L 2.96875 0 L 1.402344 0 Z M 1.402344 -12.601562 "/></g></g></g><g fill="#ffffff" fill-opacity="1"><g transform="translate(136.493843, 777.374981)"><g><path d="M 1.351562 -12.601562 L 6.390625 -12.601562 C 7.230469 -12.601562 7.917969 -12.4375 8.449219 -12.113281 C 8.984375 -11.789062 9.367188 -11.386719 9.59375 -10.898438 C 9.820312 -10.414062 9.9375 -9.910156 9.9375 -9.394531 C 9.9375 -8.855469 9.820312 -8.386719 9.59375 -7.992188 C 9.367188 -7.597656 9.089844 -7.289062 8.765625 -7.074219 C 8.441406 -6.859375 8.136719 -6.71875 7.847656 -6.660156 L 7.847656 -6.550781 C 8.160156 -6.527344 8.523438 -6.417969 8.9375 -6.21875 C 9.351562 -6.019531 9.71875 -5.703125 10.035156 -5.265625 C 10.351562 -4.828125 10.511719 -4.273438 10.511719 -3.601562 C 10.511719 -3 10.378906 -2.425781 10.105469 -1.882812 C 9.835938 -1.335938 9.414062 -0.886719 8.839844 -0.53125 C 8.261719 -0.175781 7.542969 0 6.679688 0 L 1.351562 0 Z M 5.941406 -7.074219 C 6.625 -7.074219 7.210938 -7.25 7.703125 -7.605469 C 8.195312 -7.960938 8.441406 -8.507812 8.441406 -9.253906 C 8.441406 -9.960938 8.203125 -10.476562 7.730469 -10.800781 C 7.257812 -11.125 6.660156 -11.285156 5.941406 -11.285156 L 2.863281 -11.285156 L 2.863281 -7.074219 Z M 6.28125 -1.3125 C 7.0625 -1.3125 7.710938 -1.492188 8.226562 -1.855469 C 8.742188 -2.214844 9 -2.800781 9 -3.617188 C 9 -4.421875 8.742188 -4.996094 8.226562 -5.335938 C 7.710938 -5.679688 7.0625 -5.851562 6.28125 -5.851562 L 2.863281 -5.851562 L 2.863281 -1.3125 Z M 6.28125 -1.3125 "/></g></g></g><g fill="#ffffff" fill-opacity="1"><g transform="translate(147.725806, 777.374981)"><g><path d="M 5.148438 -5.023438 L 2.898438 -5.023438 L 2.898438 0 L 1.351562 0 L 1.351562 -12.601562 L 5.632812 -12.601562 C 6.652344 -12.601562 7.492188 -12.414062 8.144531 -12.042969 C 8.800781 -11.671875 9.269531 -11.195312 9.558594 -10.621094 C 9.847656 -10.042969 9.988281 -9.4375 9.988281 -8.800781 C 9.988281 -7.925781 9.730469 -7.140625 9.207031 -6.445312 C 8.683594 -5.746094 7.871094 -5.304688 6.769531 -5.113281 L 10.097656 0 L 8.386719 0 Z M 2.898438 -6.355469 L 5.4375 -6.355469 C 6.289062 -6.355469 7.007812 -6.539062 7.597656 -6.910156 C 8.183594 -7.285156 8.476562 -7.914062 8.476562 -8.800781 C 8.476562 -9.679688 8.183594 -10.296875 7.597656 -10.65625 C 7.007812 -11.015625 6.289062 -11.195312 5.4375 -11.195312 L 2.898438 -11.195312 Z M 2.898438 -6.355469 "/></g></g></g><g fill="#ffffff" fill-opacity="1"><g transform="translate(158.615775, 777.374981)"><g><path d="M 8.695312 -3.671875 L 3.5625 -3.671875 L 2.230469 0 L 0.648438 0 L 5.382812 -12.601562 L 6.859375 -12.601562 L 11.628906 0 L 10.042969 0 Z M 8.242188 -4.914062 L 6.136719 -10.621094 L 6.066406 -10.621094 L 4.015625 -4.914062 Z M 8.242188 -4.914062 "/></g></g></g><g fill="#ffffff" fill-opacity="1"><g transform="translate(170.855734, 777.374981)"><g><path d="M 10.871094 -12.601562 L 10.871094 0 L 9.304688 0 L 9.304688 -5.707031 L 2.898438 -5.707031 L 2.898438 0 L 1.351562 0 L 1.351562 -12.601562 L 2.898438 -12.601562 L 2.898438 -6.964844 L 9.304688 -6.964844 L 9.304688 -12.601562 Z M 10.871094 -12.601562 "/></g></g></g><g fill="#ffffff" fill-opacity="1"><g transform="translate(183.077703, 777.374981)"><g><path d="M 1.402344 -12.601562 L 2.96875 -12.601562 L 2.96875 0 L 1.402344 0 Z M 1.402344 -12.601562 "/></g></g></g><g fill="#ffffff" fill-opacity="1"><g transform="translate(187.451692, 777.374981)"><g><path d="M 1.351562 -12.601562 L 3.636719 -12.601562 L 7.378906 -2.953125 L 7.433594 -2.953125 L 11.179688 -12.601562 L 13.464844 -12.601562 L 13.464844 0 L 11.933594 0 L 11.933594 -10.207031 L 11.863281 -10.207031 L 7.957031 0 L 6.839844 0 L 2.953125 -10.207031 L 2.878906 -10.207031 L 2.878906 0 L 1.351562 0 Z M 1.351562 -12.601562 "/></g></g></g></svg>