<svg xmlns="http://www.w3.org/2000/svg" xmlns:xlink="http://www.w3.org/1999/xlink" width="1920" zoomAndPan="magnify" viewBox="0 0 1440 809.999993" height="1080" preserveAspectRatio="xMidYMid meet" version="1.0"><defs><g/></defs><rect x="-144" width="1728" fill="#ffffff" y="-80.999999" height="971.999992" fill-opacity="1"/><rect x="-144" width="1728" fill="#faf4eb" y="-80.999999" height="971.999992" fill-opacity="1"/><path fill="#2d3e70" d="M 0 729 L 1439.964844 729 L 1439.964844 810 L 0 810 Z M 0 729 " fill-opacity="1" fill-rule="nonzero"/><g fill="#2d3e70" fill-opacity="1"><g transform="translate(457.441393, 383.662311)"><g><path d="M 2.238281 -10.640625 C 2.148438 -10.734375 2.101562 -10.828125 2.101562 -10.917969 L 4.621094 -29.820312 L 6.71875 -29.539062 C 7.1875 -26.085938 8.328125 -22.632812 10.148438 -19.179688 C 11.96875 -15.726562 14.234375 -12.621094 16.9375 -9.871094 C 19.644531 -7.117188 22.703125 -4.898438 26.109375 -3.21875 C 29.515625 -1.539062 33.039062 -0.699219 36.679688 -0.699219 C 41.066406 -0.699219 44.914062 -2.078125 48.226562 -4.828125 C 51.542969 -7.582031 53.199219 -11.339844 53.199219 -16.097656 C 53.199219 -19.273438 52.382812 -22.050781 50.75 -24.429688 C 49.113281 -26.808594 47.0625 -28.886719 44.589844 -30.660156 C 42.113281 -32.433594 39.617188 -33.972656 37.097656 -35.277344 C 35.605469 -36.117188 34.113281 -36.933594 32.617188 -37.730469 C 31.125 -38.523438 29.585938 -39.339844 28 -40.179688 C 23.890625 -42.324219 19.996094 -44.636719 16.308594 -47.109375 C 12.621094 -49.582031 9.636719 -52.453125 7.351562 -55.71875 C 5.0625 -58.984375 3.917969 -62.90625 3.917969 -67.476562 C 3.917969 -73.171875 5.4375 -77.835938 8.46875 -81.476562 C 11.503906 -85.117188 15.398438 -87.824219 20.160156 -89.597656 C 24.917969 -91.371094 29.867188 -92.257812 35 -92.257812 C 37.519531 -92.257812 40.386719 -92.023438 43.609375 -91.558594 C 46.828125 -91.089844 49.929688 -90.367188 52.917969 -89.386719 C 55.90625 -88.40625 58.332031 -87.078125 60.199219 -85.398438 C 60.292969 -85.304688 60.429688 -85.164062 60.617188 -84.976562 C 60.804688 -84.789062 60.992188 -84.605469 61.179688 -84.417969 C 61.363281 -84.230469 61.503906 -83.996094 61.597656 -83.71875 L 63.976562 -64.257812 L 61.457031 -64.257812 C 60.429688 -66.964844 58.984375 -69.835938 57.117188 -72.867188 C 55.25 -75.902344 53.105469 -78.746094 50.679688 -81.40625 C 48.25 -84.066406 45.546875 -86.214844 42.558594 -87.847656 C 39.570312 -89.480469 36.445312 -90.296875 33.179688 -90.296875 C 28.886719 -90.296875 25.222656 -89.035156 22.1875 -86.515625 C 19.15625 -83.996094 17.640625 -80.402344 17.640625 -75.738281 C 17.640625 -72.285156 18.433594 -69.296875 20.019531 -66.777344 C 21.605469 -64.257812 23.660156 -62.042969 26.179688 -60.128906 C 28.699219 -58.214844 31.265625 -56.511719 33.878906 -55.019531 C 35.371094 -54.085938 36.890625 -53.222656 38.429688 -52.429688 C 39.96875 -51.636719 41.484375 -50.816406 42.976562 -49.976562 C 47.179688 -47.738281 51.121094 -45.382812 54.808594 -42.910156 C 58.496094 -40.433594 61.503906 -37.566406 63.835938 -34.296875 C 66.171875 -31.03125 67.335938 -27.113281 67.335938 -22.539062 C 67.335938 -19.460938 66.683594 -16.519531 65.378906 -13.71875 C 63.605469 -9.707031 61.015625 -6.601562 57.609375 -4.410156 C 54.203125 -2.214844 50.421875 -0.699219 46.269531 0.140625 C 42.113281 0.980469 37.984375 1.398438 33.878906 1.398438 C 30.707031 1.398438 27.230469 1.027344 23.449219 0.28125 C 19.667969 -0.464844 16.007812 -1.585938 12.460938 -3.078125 C 8.914062 -4.574219 5.972656 -6.441406 3.640625 -8.679688 C 3.546875 -8.867188 3.40625 -9.054688 3.21875 -9.238281 C 3.035156 -9.425781 2.847656 -9.660156 2.660156 -9.941406 C 2.378906 -10.21875 2.238281 -10.453125 2.238281 -10.640625 Z M 2.238281 -10.640625 "/></g></g></g><g fill="#2d3e70" fill-opacity="1"><g transform="translate(525.897566, 383.662311)"><g><path d="M -0.839844 -65.238281 C 2.054688 -65.703125 4.898438 -66.917969 7.699219 -68.878906 C 10.5 -70.835938 13.042969 -73.148438 15.328125 -75.808594 C 17.617188 -78.46875 19.507812 -81.152344 21 -83.855469 L 21 -65.097656 L 34.019531 -65.097656 L 34.019531 -62.859375 L 21 -62.859375 L 21 -13.019531 C 21 -11.246094 21.441406 -9.519531 22.328125 -7.839844 C 23.214844 -6.160156 24.824219 -5.320312 27.160156 -5.320312 C 28.371094 -5.320312 29.515625 -5.578125 30.589844 -6.089844 C 31.664062 -6.601562 32.617188 -7.1875 33.457031 -7.839844 L 34.71875 -6.300781 C 32.757812 -3.875 30.566406 -2.007812 28.140625 -0.699219 C 25.710938 0.605469 22.914062 1.261719 19.738281 1.261719 C 15.445312 1.261719 12.179688 0.09375 9.941406 -2.238281 C 7.699219 -4.574219 6.578125 -7.886719 6.578125 -12.179688 L 6.578125 -62.859375 L -0.839844 -62.859375 Z M -0.839844 -65.238281 "/></g></g></g><g fill="#2d3e70" fill-opacity="1"><g transform="translate(561.875557, 383.662311)"><g><path d="M 24.078125 1.261719 C 20.160156 1.261719 16.566406 0.558594 13.300781 -0.839844 C 10.03125 -2.238281 7.394531 -4.363281 5.390625 -7.210938 C 3.382812 -10.054688 2.378906 -13.53125 2.378906 -17.640625 C 2.378906 -22.492188 3.5 -26.574219 5.738281 -29.890625 C 7.980469 -33.203125 11.011719 -35.722656 14.839844 -37.449219 C 18.664062 -39.175781 22.867188 -40.039062 27.4375 -40.039062 C 29.117188 -40.039062 30.777344 -39.921875 32.410156 -39.6875 C 34.042969 -39.457031 35.605469 -39.011719 37.097656 -38.359375 L 38.5 -37.796875 L 38.5 -48.019531 C 38.5 -49.417969 38.453125 -51.097656 38.359375 -53.058594 C 38.265625 -55.019531 37.984375 -56.605469 37.519531 -57.816406 C 37.050781 -59.496094 36.234375 -60.921875 35.070312 -62.085938 C 33.902344 -63.253906 32.199219 -63.835938 29.957031 -63.835938 C 27.160156 -63.835938 25.058594 -63.042969 23.660156 -61.457031 C 22.257812 -59.871094 21.347656 -57.957031 20.929688 -55.71875 C 20.507812 -53.476562 20.300781 -51.378906 20.300781 -49.417969 C 20.300781 -47.925781 19.484375 -46.804688 17.847656 -46.058594 C 16.214844 -45.3125 14.558594 -44.9375 12.878906 -44.9375 C 11.292969 -44.9375 9.730469 -45.289062 8.191406 -45.988281 C 6.648438 -46.6875 5.878906 -47.785156 5.878906 -49.277344 C 5.878906 -53.476562 7.140625 -56.792969 9.660156 -59.21875 C 12.179688 -61.644531 15.328125 -63.371094 19.109375 -64.398438 C 22.890625 -65.425781 26.597656 -65.9375 30.238281 -65.9375 C 37.050781 -65.9375 42.535156 -64.351562 46.6875 -61.179688 C 50.839844 -58.003906 52.917969 -52.917969 52.917969 -45.917969 L 52.917969 -10.5 C 52.917969 -10.21875 52.917969 -9.964844 52.917969 -9.730469 C 52.917969 -9.496094 52.917969 -9.238281 52.917969 -8.960938 C 52.917969 -8.679688 52.941406 -8.375 52.988281 -8.050781 C 53.035156 -7.722656 53.105469 -7.417969 53.199219 -7.140625 C 53.382812 -6.578125 53.6875 -6.042969 54.109375 -5.53125 C 54.527344 -5.015625 55.203125 -4.761719 56.136719 -4.761719 C 57.164062 -4.761719 58.144531 -5.085938 59.078125 -5.738281 L 60.199219 -4.339844 C 58.703125 -2.566406 56.90625 -1.285156 54.808594 -0.488281 C 52.707031 0.304688 50.445312 0.699219 48.019531 0.699219 C 46.246094 0.699219 44.636719 0.328125 43.1875 -0.421875 C 41.742188 -1.167969 40.597656 -2.285156 39.757812 -3.78125 L 39.199219 -4.898438 L 38.21875 -4.058594 C 36.351562 -2.101562 34.207031 -0.722656 31.777344 0.0703125 C 29.351562 0.863281 26.785156 1.261719 24.078125 1.261719 Z M 17.5 -17.078125 C 17.5 -14.933594 17.78125 -12.644531 18.339844 -10.21875 C 18.898438 -7.792969 19.949219 -5.738281 21.488281 -4.058594 C 23.027344 -2.378906 25.292969 -1.539062 28.277344 -1.539062 C 29.679688 -1.539062 31.171875 -1.890625 32.757812 -2.589844 C 34.34375 -3.289062 35.699219 -4.292969 36.820312 -5.601562 C 37.9375 -6.90625 38.5 -8.398438 38.5 -10.078125 L 38.5 -35.839844 L 37.796875 -36.117188 C 37.144531 -36.398438 36.421875 -36.585938 35.628906 -36.679688 C 34.835938 -36.773438 34.066406 -36.820312 33.320312 -36.820312 C 29.492188 -36.820312 26.414062 -35.863281 24.078125 -33.949219 C 21.746094 -32.035156 20.066406 -29.5625 19.039062 -26.527344 C 18.011719 -23.496094 17.5 -20.347656 17.5 -17.078125 Z M 17.5 -17.078125 "/></g></g></g><g fill="#2d3e70" fill-opacity="1"><g transform="translate(623.332124, 383.662311)"><g><path d="M 1.679688 -57.539062 L 22.820312 -64.257812 L 22.820312 -54.316406 L 24.640625 -57.398438 C 26.414062 -60.292969 28.769531 -62.460938 31.707031 -63.90625 C 34.648438 -65.355469 37.84375 -66.078125 41.296875 -66.078125 C 44.003906 -66.078125 46.59375 -65.585938 49.066406 -64.609375 C 51.542969 -63.628906 53.476562 -61.925781 54.878906 -59.496094 C 55.34375 -58.75 55.71875 -57.957031 55.996094 -57.117188 C 56.277344 -56.277344 56.417969 -55.4375 56.417969 -54.597656 C 56.417969 -52.730469 55.695312 -51.238281 54.25 -50.117188 C 52.800781 -49 51.144531 -48.4375 49.277344 -48.4375 C 48.25 -48.4375 47.386719 -48.578125 46.6875 -48.859375 C 45.988281 -49.136719 45.40625 -49.464844 44.9375 -49.839844 C 44.378906 -50.304688 43.863281 -50.816406 43.398438 -51.378906 C 43.210938 -51.65625 42.976562 -51.960938 42.699219 -52.289062 C 42.417969 -52.613281 42.183594 -52.917969 42 -53.199219 C 41.066406 -54.503906 39.96875 -55.765625 38.707031 -56.976562 C 37.449219 -58.191406 35.511719 -58.796875 32.898438 -58.796875 C 29.726562 -58.796875 27.253906 -57.609375 25.480469 -55.226562 C 23.707031 -52.847656 22.820312 -50.210938 22.820312 -47.316406 L 22.820312 -9.941406 C 22.820312 -4.992188 25.011719 -2.472656 29.398438 -2.378906 L 29.398438 0 L 1.679688 0 L 1.679688 -2.378906 C 6.160156 -2.472656 8.398438 -4.992188 8.398438 -9.941406 L 8.398438 -47.316406 C 8.398438 -52.171875 6.160156 -54.738281 1.679688 -55.019531 Z M 1.679688 -57.539062 "/></g></g></g><g fill="#2d3e70" fill-opacity="1"><g transform="translate(680.028967, 383.662311)"><g/></g></g><g fill="#2d3e70" fill-opacity="1"><g transform="translate(707.187444, 383.662311)"><g><path d="M 1.261719 -90.714844 L 24.777344 -90.714844 C 27.207031 -90.714844 29.65625 -90.738281 32.128906 -90.785156 C 34.601562 -90.832031 37.144531 -90.808594 39.757812 -90.714844 C 42.183594 -90.625 44.660156 -90.484375 47.179688 -90.296875 C 49.699219 -90.109375 52.125 -89.785156 54.457031 -89.316406 C 61.738281 -87.824219 67.5 -84.882812 71.746094 -80.496094 C 75.992188 -76.109375 79.027344 -70.789062 80.847656 -64.539062 C 82.667969 -58.285156 83.578125 -51.613281 83.578125 -44.519531 C 83.578125 -37.519531 82.597656 -30.9375 80.636719 -24.777344 C 78.675781 -18.621094 75.503906 -13.417969 71.117188 -9.167969 C 66.730469 -4.921875 60.851562 -2.238281 53.476562 -1.121094 C 48.90625 -0.464844 44.121094 -0.117188 39.128906 -0.0703125 C 34.136719 -0.0234375 29.351562 0 24.777344 0 L 1.261719 0 L 1.261719 -2.238281 C 3.40625 -2.425781 5.296875 -3.078125 6.929688 -4.199219 C 8.5625 -5.320312 9.378906 -7.234375 9.378906 -9.941406 L 9.378906 -80.777344 C 9.378906 -83.484375 8.5625 -85.421875 6.929688 -86.585938 C 5.296875 -87.753906 3.40625 -88.382812 1.261719 -88.476562 Z M 23.800781 -2.238281 L 24.777344 -2.238281 C 28.980469 -2.238281 33.320312 -2.496094 37.796875 -3.011719 C 42.277344 -3.523438 46.476562 -4.804688 50.398438 -6.859375 C 55.15625 -9.378906 58.820312 -12.808594 61.386719 -17.148438 C 63.953125 -21.488281 65.75 -26.226562 66.777344 -31.359375 C 67.804688 -36.492188 68.316406 -41.4375 68.316406 -46.199219 C 68.316406 -49.464844 68.015625 -53.128906 67.40625 -57.1875 C 66.800781 -61.246094 65.773438 -65.285156 64.328125 -69.296875 C 62.882812 -73.3125 60.921875 -76.855469 58.449219 -79.9375 C 55.976562 -83.015625 52.871094 -85.164062 49.136719 -86.375 C 47.085938 -87.125 44.566406 -87.636719 41.578125 -87.917969 C 38.59375 -88.195312 35.605469 -88.382812 32.617188 -88.476562 C 29.632812 -88.570312 27.019531 -88.617188 24.777344 -88.617188 L 23.800781 -88.617188 Z M 23.800781 -2.238281 "/></g></g></g><g fill="#2d3e70" fill-opacity="1"><g transform="translate(793.282624, 383.662311)"><g><path d="M 3.5 -32.058594 C 3.5 -38.125 4.597656 -43.726562 6.789062 -48.859375 C 8.984375 -53.992188 12.226562 -58.121094 16.519531 -61.246094 C 20.8125 -64.375 26.132812 -65.9375 32.480469 -65.9375 C 37.984375 -65.9375 42.675781 -64.699219 46.546875 -62.226562 C 50.421875 -59.753906 53.382812 -56.371094 55.4375 -52.078125 C 57.492188 -47.785156 58.519531 -42.976562 58.519531 -37.660156 L 58.519531 -37.238281 L 18.621094 -37.238281 L 18.621094 -35.277344 C 18.621094 -32.292969 18.992188 -29.210938 19.738281 -26.039062 C 20.484375 -22.867188 21.652344 -19.902344 23.238281 -17.148438 C 24.824219 -14.394531 26.902344 -12.15625 29.46875 -10.429688 C 32.035156 -8.703125 35.183594 -7.839844 38.917969 -7.839844 C 42.371094 -7.839844 45.753906 -8.65625 49.066406 -10.289062 C 52.382812 -11.921875 55.066406 -14.140625 57.117188 -16.9375 L 58.378906 -16.097656 C 55.578125 -10.6875 52.335938 -6.417969 48.648438 -3.289062 C 44.960938 -0.164062 39.804688 1.398438 33.179688 1.398438 C 26.738281 1.398438 21.324219 -0.09375 16.9375 -3.078125 C 12.554688 -6.066406 9.214844 -10.101562 6.929688 -15.191406 C 4.644531 -20.277344 3.5 -25.898438 3.5 -32.058594 Z M 18.898438 -40.457031 L 18.898438 -39.480469 L 43.539062 -39.480469 L 43.539062 -40.457031 C 43.445312 -42.136719 43.1875 -44.261719 42.769531 -46.828125 C 42.347656 -49.394531 41.695312 -51.984375 40.808594 -54.597656 C 39.921875 -57.210938 38.730469 -59.40625 37.238281 -61.179688 C 35.746094 -62.949219 33.925781 -63.835938 31.777344 -63.835938 C 29.539062 -63.835938 27.648438 -62.949219 26.109375 -61.179688 C 24.570312 -59.40625 23.285156 -57.234375 22.257812 -54.667969 C 21.234375 -52.101562 20.460938 -49.511719 19.949219 -46.898438 C 19.4375 -44.285156 19.085938 -42.136719 18.898438 -40.457031 Z M 18.898438 -40.457031 "/></g></g></g><g fill="#2d3e70" fill-opacity="1"><g transform="translate(855.439145, 383.662311)"><g><path d="M 0.980469 -90.996094 L 22.121094 -97.578125 L 22.121094 -9.941406 C 22.121094 -4.992188 24.3125 -2.472656 28.699219 -2.378906 L 28.699219 0 L 0.980469 0 L 0.980469 -2.378906 C 5.460938 -2.472656 7.699219 -4.992188 7.699219 -9.941406 L 7.699219 -80.777344 C 7.699219 -85.628906 5.460938 -88.195312 0.980469 -88.476562 Z M 0.980469 -90.996094 "/></g></g></g><g fill="#2d3e70" fill-opacity="1"><g transform="translate(885.117473, 383.662311)"><g><path d="M -0.839844 -65.238281 C 2.054688 -65.703125 4.898438 -66.917969 7.699219 -68.878906 C 10.5 -70.835938 13.042969 -73.148438 15.328125 -75.808594 C 17.617188 -78.46875 19.507812 -81.152344 21 -83.855469 L 21 -65.097656 L 34.019531 -65.097656 L 34.019531 -62.859375 L 21 -62.859375 L 21 -13.019531 C 21 -11.246094 21.441406 -9.519531 22.328125 -7.839844 C 23.214844 -6.160156 24.824219 -5.320312 27.160156 -5.320312 C 28.371094 -5.320312 29.515625 -5.578125 30.589844 -6.089844 C 31.664062 -6.601562 32.617188 -7.1875 33.457031 -7.839844 L 34.71875 -6.300781 C 32.757812 -3.875 30.566406 -2.007812 28.140625 -0.699219 C 25.710938 0.605469 22.914062 1.261719 19.738281 1.261719 C 15.445312 1.261719 12.179688 0.09375 9.941406 -2.238281 C 7.699219 -4.574219 6.578125 -7.886719 6.578125 -12.179688 L 6.578125 -62.859375 L -0.839844 -62.859375 Z M -0.839844 -65.238281 "/></g></g></g><g fill="#2d3e70" fill-opacity="1"><g transform="translate(921.095453, 383.662311)"><g><path d="M 24.078125 1.261719 C 20.160156 1.261719 16.566406 0.558594 13.300781 -0.839844 C 10.03125 -2.238281 7.394531 -4.363281 5.390625 -7.210938 C 3.382812 -10.054688 2.378906 -13.53125 2.378906 -17.640625 C 2.378906 -22.492188 3.5 -26.574219 5.738281 -29.890625 C 7.980469 -33.203125 11.011719 -35.722656 14.839844 -37.449219 C 18.664062 -39.175781 22.867188 -40.039062 27.4375 -40.039062 C 29.117188 -40.039062 30.777344 -39.921875 32.410156 -39.6875 C 34.042969 -39.457031 35.605469 -39.011719 37.097656 -38.359375 L 38.5 -37.796875 L 38.5 -48.019531 C 38.5 -49.417969 38.453125 -51.097656 38.359375 -53.058594 C 38.265625 -55.019531 37.984375 -56.605469 37.519531 -57.816406 C 37.050781 -59.496094 36.234375 -60.921875 35.070312 -62.085938 C 33.902344 -63.253906 32.199219 -63.835938 29.957031 -63.835938 C 27.160156 -63.835938 25.058594 -63.042969 23.660156 -61.457031 C 22.257812 -59.871094 21.347656 -57.957031 20.929688 -55.71875 C 20.507812 -53.476562 20.300781 -51.378906 20.300781 -49.417969 C 20.300781 -47.925781 19.484375 -46.804688 17.847656 -46.058594 C 16.214844 -45.3125 14.558594 -44.9375 12.878906 -44.9375 C 11.292969 -44.9375 9.730469 -45.289062 8.191406 -45.988281 C 6.648438 -46.6875 5.878906 -47.785156 5.878906 -49.277344 C 5.878906 -53.476562 7.140625 -56.792969 9.660156 -59.21875 C 12.179688 -61.644531 15.328125 -63.371094 19.109375 -64.398438 C 22.890625 -65.425781 26.597656 -65.9375 30.238281 -65.9375 C 37.050781 -65.9375 42.535156 -64.351562 46.6875 -61.179688 C 50.839844 -58.003906 52.917969 -52.917969 52.917969 -45.917969 L 52.917969 -10.5 C 52.917969 -10.21875 52.917969 -9.964844 52.917969 -9.730469 C 52.917969 -9.496094 52.917969 -9.238281 52.917969 -8.960938 C 52.917969 -8.679688 52.941406 -8.375 52.988281 -8.050781 C 53.035156 -7.722656 53.105469 -7.417969 53.199219 -7.140625 C 53.382812 -6.578125 53.6875 -6.042969 54.109375 -5.53125 C 54.527344 -5.015625 55.203125 -4.761719 56.136719 -4.761719 C 57.164062 -4.761719 58.144531 -5.085938 59.078125 -5.738281 L 60.199219 -4.339844 C 58.703125 -2.566406 56.90625 -1.285156 54.808594 -0.488281 C 52.707031 0.304688 50.445312 0.699219 48.019531 0.699219 C 46.246094 0.699219 44.636719 0.328125 43.1875 -0.421875 C 41.742188 -1.167969 40.597656 -2.285156 39.757812 -3.78125 L 39.199219 -4.898438 L 38.21875 -4.058594 C 36.351562 -2.101562 34.207031 -0.722656 31.777344 0.0703125 C 29.351562 0.863281 26.785156 1.261719 24.078125 1.261719 Z M 17.5 -17.078125 C 17.5 -14.933594 17.78125 -12.644531 18.339844 -10.21875 C 18.898438 -7.792969 19.949219 -5.738281 21.488281 -4.058594 C 23.027344 -2.378906 25.292969 -1.539062 28.277344 -1.539062 C 29.679688 -1.539062 31.171875 -1.890625 32.757812 -2.589844 C 34.34375 -3.289062 35.699219 -4.292969 36.820312 -5.601562 C 37.9375 -6.90625 38.5 -8.398438 38.5 -10.078125 L 38.5 -35.839844 L 37.796875 -36.117188 C 37.144531 -36.398438 36.421875 -36.585938 35.628906 -36.679688 C 34.835938 -36.773438 34.066406 -36.820312 33.320312 -36.820312 C 29.492188 -36.820312 26.414062 -35.863281 24.078125 -33.949219 C 21.746094 -32.035156 20.066406 -29.5625 19.039062 -26.527344 C 18.011719 -23.496094 17.5 -20.347656 17.5 -17.078125 Z M 17.5 -17.078125 "/></g></g></g><g fill="#ffffff" fill-opacity="1"><g transform="translate(81.000002, 777.374981)"><g><path d="M 5.148438 -5.023438 L 2.898438 -5.023438 L 2.898438 0 L 1.351562 0 L 1.351562 -12.601562 L 5.632812 -12.601562 C 6.652344 -12.601562 7.492188 -12.414062 8.144531 -12.042969 C 8.800781 -11.671875 9.269531 -11.195312 9.558594 -10.621094 C 9.847656 -10.042969 9.988281 -9.4375 9.988281 -8.800781 C 9.988281 -7.925781 9.730469 -7.140625 9.207031 -6.445312 C 8.683594 -5.746094 7.871094 -5.304688 6.769531 -5.113281 L 10.097656 0 L 8.386719 0 Z M 2.898438 -6.355469 L 5.4375 -6.355469 C 6.289062 -6.355469 7.007812 -6.539062 7.597656 -6.910156 C 8.183594 -7.285156 8.476562 -7.914062 8.476562 -8.800781 C 8.476562 -9.679688 8.183594 -10.296875 7.597656 -10.65625 C 7.007812 -11.015625 6.289062 -11.195312 5.4375 -11.195312 L 2.898438 -11.195312 Z M 2.898438 -6.355469 "/></g></g></g><g fill="#ffffff" fill-opacity="1"><g transform="translate(91.88997, 777.374981)"><g><path d="M 4.714844 0.0195312 L 4.714844 -4.554688 L 0.613281 -12.601562 L 2.304688 -12.601562 L 5.4375 -6.300781 L 5.5625 -6.300781 L 8.675781 -12.601562 L 10.367188 -12.601562 L 6.28125 -4.554688 L 6.28125 0 Z M 4.714844 0.0195312 "/></g></g></g><g fill="#ffffff" fill-opacity="1"><g transform="translate(102.941941, 777.374981)"><g><path d="M 8.695312 -3.671875 L 3.5625 -3.671875 L 2.230469 0 L 0.648438 0 L 5.382812 -12.601562 L 6.859375 -12.601562 L 11.628906 0 L 10.042969 0 Z M 8.242188 -4.914062 L 6.136719 -10.621094 L 6.066406 -10.621094 L 4.015625 -4.914062 Z M 8.242188 -4.914062 "/></g></g></g><g fill="#ffffff" fill-opacity="1"><g transform="translate(115.1819, 777.374981)"><g><path d="M 1.351562 -12.601562 L 3.097656 -12.601562 L 9.847656 -2.484375 L 9.917969 -2.484375 L 9.917969 -12.601562 L 11.449219 -12.601562 L 11.449219 0 L 9.683594 0 L 2.953125 -9.972656 L 2.878906 -9.972656 L 2.878906 0 L 1.351562 0 Z M 1.351562 -12.601562 "/></g></g></g><g fill="#ffffff" fill-opacity="1"><g transform="translate(127.979862, 777.374981)"><g/></g></g><g fill="#ffffff" fill-opacity="1"><g transform="translate(132.119854, 777.374981)"><g><path d="M 1.402344 -12.601562 L 2.96875 -12.601562 L 2.96875 0 L 1.402344 0 Z M 1.402344 -12.601562 "/></g></g></g><g fill="#ffffff" fill-opacity="1"><g transform="translate(136.493843, 777.374981)"><g><path d="M 1.351562 -12.601562 L 6.390625 -12.601562 C 7.230469 -12.601562 7.917969 -12.4375 8.449219 -12.113281 C 8.984375 -11.789062 9.367188 -11.386719 9.59375 -10.898438 C 9.820312 -10.414062 9.9375 -9.910156 9.9375 -9.394531 C 9.9375 -8.855469 9.820312 -8.386719 9.59375 -7.992188 C 9.367188 -7.597656 9.089844 -7.289062 8.765625 -7.074219 C 8.441406 -6.859375 8.136719 -6.71875 7.847656 -6.660156 L 7.847656 -6.550781 C 8.160156 -6.527344 8.523438 -6.417969 8.9375 -6.21875 C 9.351562 -6.019531 9.71875 -5.703125 10.035156 -5.265625 C 10.351562 -4.828125 10.511719 -4.273438 10.511719 -3.601562 C 10.511719 -3 10.378906 -2.425781 10.105469 -1.882812 C 9.835938 -1.335938 9.414062 -0.886719 8.839844 -0.53125 C 8.261719 -0.175781 7.542969 0 6.679688 0 L 1.351562 0 Z M 5.941406 -7.074219 C 6.625 -7.074219 7.210938 -7.25 7.703125 -7.605469 C 8.195312 -7.960938 8.441406 -8.507812 8.441406 -9.253906 C 8.441406 -9.960938 8.203125 -10.476562 7.730469 -10.800781 C 7.257812 -11.125 6.660156 -11.285156 5.941406 -11.285156 L 2.863281 -11.285156 L 2.863281 -7.074219 Z M 6.28125 -1.3125 C 7.0625 -1.3125 7.710938 -1.492188 8.226562 -1.855469 C 8.742188 -2.214844 9 -2.800781 9 -3.617188 C 9 -4.421875 8.742188 -4.996094 8.226562 -5.335938 C 7.710938 -5.679688 7.0625 -5.851562 6.28125 -5.851562 L 2.863281 -5.851562 L 2.863281 -1.3125 Z M 6.28125 -1.3125 "/></g></g></g><g fill="#ffffff" fill-opacity="1"><g transform="translate(147.725806, 777.374981)"><g><path d="M 5.148438 -5.023438 L 2.898438 -5.023438 L 2.898438 0 L 1.351562 0 L 1.351562 -12.601562 L 5.632812 -12.601562 C 6.652344 -12.601562 7.492188 -12.414062 8.144531 -12.042969 C 8.800781 -11.671875 9.269531 -11.195312 9.558594 -10.621094 C 9.847656 -10.042969 9.988281 -9.4375 9.988281 -8.800781 C 9.988281 -7.925781 9.730469 -7.140625 9.207031 -6.445312 C 8.683594 -5.746094 7.871094 -5.304688 6.769531 -5.113281 L 10.097656 0 L 8.386719 0 Z M 2.898438 -6.355469 L 5.4375 -6.355469 C 6.289062 -6.355469 7.007812 -6.539062 7.597656 -6.910156 C 8.183594 -7.285156 8.476562 -7.914062 8.476562 -8.800781 C 8.476562 -9.679688 8.183594 -10.296875 7.597656 -10.65625 C 7.007812 -11.015625 6.289062 -11.195312 5.4375 -11.195312 L 2.898438 -11.195312 Z M 2.898438 -6.355469 "/></g></g></g><g fill="#ffffff" fill-opacity="1"><g transform="translate(158.615775, 777.374981)"><g><path d="M 8.695312 -3.671875 L 3.5625 -3.671875 L 2.230469 0 L 0.648438 0 L 5.382812 -12.601562 L 6.859375 -12.601562 L 11.628906 0 L 10.042969 0 Z M 8.242188 -4.914062 L 6.136719 -10.621094 L 6.066406 -10.621094 L 4.015625 -4.914062 Z M 8.242188 -4.914062 "/></g></g></g><g fill="#ffffff" fill-opacity="1"><g transform="translate(170.855734, 777.374981)"><g><path d="M 10.871094 -12.601562 L 10.871094 0 L 9.304688 0 L 9.304688 -5.707031 L 2.898438 -5.707031 L 2.898438 0 L 1.351562 0 L 1.351562 -12.601562 L 2.898438 -12.601562 L 2.898438 -6.964844 L 9.304688 -6.964844 L 9.304688 -12.601562 Z M 10.871094 -12.601562 "/></g></g></g><g fill="#ffffff" fill-opacity="1"><g transform="translate(183.077703, 777.374981)"><g><path d="M 1.402344 -12.601562 L 2.96875 -12.601562 L 2.96875 0 L 1.402344 0 Z M 1.402344 -12.601562 "/></g></g></g><g fill="#ffffff" fill-opacity="1"><g transform="translate(187.451692, 777.374981)"><g><path d="M 1.351562 -12.601562 L 3.636719 -12.601562 L 7.378906 -2.953125 L 7.433594 -2.953125 L 11.179688 -12.601562 L 13.464844 -12.601562 L 13.464844 0 L 11.933594 0 L 11.933594 -10.207031 L 11.863281 -10.207031 L 7.957031 0 L 6.839844 0 L 2.953125 -10.207031 L 2.878906 -10.207031 L 2.878906 0 L 1.351562 0 Z M 1.351562 -12.601562 "/></g></g></g><g fill="#202020" fill-opacity="1"><g transform="translate(81.000002, 690.919209)"><g><path d="M 8.257812 0.214844 C 6.800781 0.214844 5.554688 -0.0859375 4.519531 -0.6875 C 3.488281 -1.292969 2.707031 -2.070312 2.1875 -3.023438 C 1.664062 -3.976562 1.402344 -4.976562 1.402344 -6.019531 L 1.402344 -6.152344 L 3.96875 -6.152344 L 3.96875 -6.019531 C 3.96875 -5.390625 4.117188 -4.757812 4.414062 -4.128906 C 4.710938 -3.5 5.183594 -2.972656 5.832031 -2.550781 C 6.476562 -2.128906 7.304688 -1.917969 8.3125 -1.917969 C 9.5 -1.917969 10.480469 -2.222656 11.257812 -2.835938 C 12.03125 -3.445312 12.417969 -4.273438 12.417969 -5.316406 C 12.417969 -6.179688 12.132812 -6.871094 11.566406 -7.382812 C 11 -7.894531 10.273438 -8.242188 9.394531 -8.421875 L 6.640625 -8.933594 C 3.472656 -9.636719 1.890625 -11.300781 1.890625 -13.929688 C 1.890625 -15.007812 2.152344 -15.953125 2.671875 -16.761719 C 3.195312 -17.570312 3.917969 -18.199219 4.84375 -18.636719 C 5.773438 -19.078125 6.847656 -19.300781 8.070312 -19.300781 C 9.457031 -19.300781 10.644531 -19.019531 11.632812 -18.460938 C 12.625 -17.90625 13.371094 -17.179688 13.875 -16.289062 C 14.378906 -15.398438 14.628906 -14.476562 14.628906 -13.523438 L 14.628906 -13.414062 L 12.066406 -13.414062 L 12.066406 -13.496094 C 12.066406 -14.035156 11.933594 -14.589844 11.675781 -15.15625 C 11.414062 -15.722656 10.980469 -16.214844 10.378906 -16.628906 C 9.777344 -17.042969 8.980469 -17.25 7.988281 -17.25 C 6.855469 -17.25 5.953125 -16.933594 5.277344 -16.304688 C 4.601562 -15.671875 4.265625 -14.890625 4.265625 -13.957031 C 4.265625 -13.164062 4.527344 -12.515625 5.046875 -12.011719 C 5.570312 -11.507812 6.28125 -11.164062 7.179688 -10.984375 L 9.664062 -10.5 C 13.136719 -9.796875 14.871094 -8.097656 14.871094 -5.398438 C 14.871094 -4.300781 14.597656 -3.328125 14.050781 -2.484375 C 13.5 -1.636719 12.722656 -0.976562 11.714844 -0.5 C 10.707031 -0.0234375 9.554688 0.214844 8.257812 0.214844 Z M 8.257812 0.214844 "/></g></g></g><g fill="#202020" fill-opacity="1"><g transform="translate(97.165937, 690.919209)"><g><path d="M 8.042969 0.1875 C 6.605469 0.1875 5.386719 -0.15625 4.386719 -0.851562 C 3.386719 -1.542969 2.636719 -2.453125 2.132812 -3.578125 C 1.628906 -4.703125 1.375 -5.910156 1.375 -7.207031 C 1.375 -8.503906 1.628906 -9.710938 2.132812 -10.835938 C 2.636719 -11.960938 3.386719 -12.871094 4.386719 -13.5625 C 5.386719 -14.257812 6.605469 -14.601562 8.042969 -14.601562 C 9.484375 -14.601562 10.703125 -14.257812 11.703125 -13.5625 C 12.699219 -12.871094 13.445312 -11.957031 13.941406 -10.824219 C 14.4375 -9.691406 14.683594 -8.484375 14.683594 -7.207031 C 14.683594 -5.929688 14.433594 -4.722656 13.929688 -3.589844 C 13.425781 -2.457031 12.671875 -1.542969 11.675781 -0.851562 C 10.675781 -0.15625 9.464844 0.1875 8.042969 0.1875 Z M 8.042969 -1.808594 C 8.925781 -1.808594 9.695312 -2.050781 10.351562 -2.539062 C 11.007812 -3.023438 11.507812 -3.675781 11.851562 -4.496094 C 12.191406 -5.3125 12.363281 -6.226562 12.363281 -7.234375 C 12.363281 -8.78125 11.976562 -10.066406 11.203125 -11.09375 C 10.429688 -12.121094 9.375 -12.632812 8.042969 -12.632812 C 7.144531 -12.632812 6.367188 -12.390625 5.707031 -11.902344 C 5.050781 -11.417969 4.554688 -10.765625 4.210938 -9.945312 C 3.867188 -9.128906 3.699219 -8.222656 3.699219 -7.234375 C 3.699219 -5.6875 4.085938 -4.394531 4.859375 -3.359375 C 5.632812 -2.324219 6.695312 -1.808594 8.042969 -1.808594 Z M 8.042969 -1.808594 "/></g></g></g><g fill="#202020" fill-opacity="1"><g transform="translate(113.22392, 690.919209)"><g><path d="M 14.414062 0 L 12.066406 0 L 12.066406 -2.699219 L 11.902344 -2.699219 C 11.527344 -1.871094 10.945312 -1.175781 10.164062 -0.605469 C 9.378906 -0.0390625 8.421875 0.242188 7.289062 0.242188 C 6.101562 0.242188 5.109375 -0.046875 4.320312 -0.621094 C 3.527344 -1.195312 2.945312 -1.945312 2.578125 -2.859375 C 2.207031 -3.777344 2.023438 -4.777344 2.023438 -5.855469 L 2.023438 -14.226562 L 4.347656 -14.226562 L 4.347656 -6.152344 C 4.347656 -4.769531 4.695312 -3.703125 5.398438 -2.957031 C 6.101562 -2.207031 7.019531 -1.835938 8.152344 -1.835938 C 9.339844 -1.835938 10.289062 -2.234375 11 -3.035156 C 11.710938 -3.835938 12.066406 -4.875 12.066406 -6.152344 L 12.066406 -14.226562 L 14.414062 -14.226562 Z M 14.414062 0 "/></g></g></g><g fill="#202020" fill-opacity="1"><g transform="translate(129.470822, 690.919209)"><g><path d="M 1.917969 -14.226562 L 4.238281 -14.226562 L 4.238281 -11.957031 L 4.398438 -11.957031 C 4.632812 -12.585938 5.050781 -13.121094 5.65625 -13.5625 C 6.257812 -14.003906 7.019531 -14.226562 7.9375 -14.226562 C 8.222656 -14.226562 8.453125 -14.210938 8.625 -14.183594 C 8.796875 -14.15625 8.988281 -14.109375 9.203125 -14.035156 L 9.125 -11.769531 C 8.835938 -11.859375 8.589844 -11.921875 8.382812 -11.957031 C 8.175781 -11.992188 7.910156 -12.011719 7.585938 -12.011719 C 5.351562 -12.011719 4.238281 -10.6875 4.238281 -8.042969 L 4.238281 0 L 1.917969 0 Z M 1.917969 -14.226562 "/></g></g></g><g fill="#202020" fill-opacity="1"><g transform="translate(138.997662, 690.919209)"><g><path d="M 8.097656 0.1875 C 6.621094 0.1875 5.375 -0.160156 4.359375 -0.863281 C 3.34375 -1.566406 2.589844 -2.480469 2.105469 -3.601562 C 1.621094 -4.726562 1.375 -5.929688 1.375 -7.207031 C 1.375 -8.484375 1.621094 -9.6875 2.105469 -10.808594 C 2.589844 -11.933594 3.34375 -12.847656 4.359375 -13.550781 C 5.375 -14.253906 6.621094 -14.601562 8.097656 -14.601562 C 9.933594 -14.601562 11.378906 -14.070312 12.429688 -13.011719 C 13.484375 -11.949219 14.117188 -10.644531 14.332031 -9.097656 L 12.066406 -9.097656 C 11.902344 -10.140625 11.488281 -10.992188 10.824219 -11.648438 C 10.15625 -12.304688 9.257812 -12.632812 8.125 -12.632812 C 6.683594 -12.632812 5.59375 -12.113281 4.84375 -11.082031 C 4.097656 -10.046875 3.726562 -8.753906 3.726562 -7.207031 C 3.726562 -5.660156 4.097656 -4.367188 4.84375 -3.332031 C 5.59375 -2.300781 6.683594 -1.78125 8.125 -1.78125 C 9.257812 -1.78125 10.15625 -2.105469 10.824219 -2.753906 C 11.488281 -3.402344 11.902344 -4.253906 12.066406 -5.316406 L 14.332031 -5.316406 C 14.117188 -3.769531 13.484375 -2.464844 12.429688 -1.402344 C 11.378906 -0.34375 9.933594 0.1875 8.097656 0.1875 Z M 8.097656 0.1875 "/></g></g></g><g fill="#202020" fill-opacity="1"><g transform="translate(154.542869, 690.919209)"><g><path d="M 8.015625 0.1875 C 6.558594 0.1875 5.332031 -0.160156 4.332031 -0.863281 C 3.332031 -1.566406 2.589844 -2.484375 2.105469 -3.617188 C 1.621094 -4.75 1.375 -5.949219 1.375 -7.207031 C 1.375 -8.484375 1.621094 -9.6875 2.105469 -10.808594 C 2.589844 -11.933594 3.339844 -12.847656 4.347656 -13.550781 C 5.351562 -14.253906 6.585938 -14.601562 8.042969 -14.601562 C 9.953125 -14.601562 11.476562 -13.964844 12.617188 -12.6875 C 13.761719 -11.410156 14.332031 -9.574219 14.332031 -7.179688 L 14.332031 -6.53125 L 3.699219 -6.53125 L 3.699219 -6.34375 C 3.699219 -5.550781 3.878906 -4.804688 4.238281 -4.101562 C 4.597656 -3.402344 5.101562 -2.835938 5.75 -2.402344 C 6.398438 -1.96875 7.144531 -1.753906 7.988281 -1.753906 C 8.90625 -1.753906 9.699219 -1.988281 10.363281 -2.457031 C 11.03125 -2.925781 11.527344 -3.554688 11.851562 -4.347656 L 14.144531 -4.347656 C 13.765625 -3.050781 13.058594 -1.96875 12.023438 -1.105469 C 10.992188 -0.242188 9.65625 0.1875 8.015625 0.1875 Z M 12.039062 -8.179688 C 11.964844 -9.796875 11.570312 -10.96875 10.851562 -11.6875 C 10.132812 -12.40625 9.1875 -12.765625 8.015625 -12.765625 C 6.738281 -12.765625 5.722656 -12.34375 4.964844 -11.5 C 4.210938 -10.652344 3.804688 -9.546875 3.753906 -8.179688 Z M 12.039062 -8.179688 "/></g></g></g><g fill="#202020" fill-opacity="1"><g transform="translate(170.276995, 690.919209)"><g><path d="M 3.507812 0.1875 C 3.058594 0.1875 2.6875 0.03125 2.390625 -0.285156 C 2.09375 -0.597656 1.945312 -0.972656 1.945312 -1.402344 C 1.945312 -1.835938 2.09375 -2.199219 2.390625 -2.496094 C 2.6875 -2.792969 3.058594 -2.941406 3.507812 -2.941406 C 3.957031 -2.941406 4.332031 -2.792969 4.628906 -2.496094 C 4.925781 -2.199219 5.074219 -1.835938 5.074219 -1.402344 C 5.074219 -0.972656 4.921875 -0.597656 4.617188 -0.285156 C 4.308594 0.03125 3.941406 0.1875 3.507812 0.1875 Z M 3.507812 -10.957031 C 3.058594 -10.957031 2.6875 -11.117188 2.390625 -11.429688 C 2.09375 -11.746094 1.945312 -12.121094 1.945312 -12.550781 C 1.945312 -12.984375 2.09375 -13.347656 2.390625 -13.644531 C 2.6875 -13.941406 3.058594 -14.089844 3.507812 -14.089844 C 3.957031 -14.089844 4.332031 -13.941406 4.628906 -13.644531 C 4.925781 -13.347656 5.074219 -12.984375 5.074219 -12.550781 C 5.074219 -12.121094 4.921875 -11.746094 4.617188 -11.429688 C 4.308594 -11.117188 3.941406 -10.957031 3.507812 -10.957031 Z M 3.507812 -10.957031 "/></g></g></g><g fill="#202020" fill-opacity="1"><g transform="translate(178.184542, 690.919209)"><g/></g></g><g fill="#202020" fill-opacity="1"><g transform="translate(184.391828, 690.919209)"><g><path d="M 9.988281 0.1875 C 8.222656 0.1875 6.703125 -0.230469 5.425781 -1.066406 C 4.148438 -1.902344 3.171875 -3.058594 2.496094 -4.535156 C 1.820312 -6.011719 1.484375 -7.683594 1.484375 -9.554688 C 1.484375 -11.425781 1.820312 -13.101562 2.496094 -14.574219 C 3.171875 -16.050781 4.148438 -17.207031 5.425781 -18.042969 C 6.703125 -18.882812 8.222656 -19.300781 9.988281 -19.300781 C 12.109375 -19.300781 13.863281 -18.703125 15.25 -17.503906 C 16.636719 -16.308594 17.5625 -14.691406 18.03125 -12.660156 L 15.738281 -12.660156 C 15.359375 -14.046875 14.664062 -15.148438 13.660156 -15.964844 C 12.652344 -16.785156 11.4375 -17.195312 10.015625 -17.195312 C 8.054688 -17.195312 6.550781 -16.507812 5.507812 -15.128906 C 4.460938 -13.753906 3.941406 -11.902344 3.941406 -9.582031 C 3.941406 -7.242188 4.460938 -5.386719 5.507812 -4.007812 C 6.550781 -2.632812 8.054688 -1.945312 10.015625 -1.945312 C 11.363281 -1.945312 12.523438 -2.308594 13.496094 -3.035156 C 14.46875 -3.765625 15.160156 -4.742188 15.574219 -5.964844 L 17.867188 -5.964844 C 17.363281 -4.09375 16.433594 -2.601562 15.074219 -1.484375 C 13.714844 -0.367188 12.019531 0.1875 9.988281 0.1875 Z M 9.988281 0.1875 "/></g></g></g><g fill="#202020" fill-opacity="1"><g transform="translate(203.60743, 690.919209)"><g><path d="M 7.234375 0.1875 C 5.972656 0.1875 4.898438 -0.136719 4.007812 -0.78125 C 3.117188 -1.429688 2.4375 -2.3125 1.96875 -3.429688 C 1.503906 -4.542969 1.269531 -5.804688 1.269531 -7.207031 C 1.269531 -8.609375 1.507812 -9.875 1.984375 -11 C 2.460938 -12.125 3.152344 -13.007812 4.0625 -13.644531 C 4.972656 -14.285156 6.054688 -14.601562 7.316406 -14.601562 C 8.574219 -14.601562 9.589844 -14.304688 10.363281 -13.710938 C 11.140625 -13.117188 11.722656 -12.40625 12.121094 -11.578125 L 12.308594 -11.578125 L 12.308594 -14.226562 L 14.65625 -14.226562 L 14.65625 0 L 12.308594 0 L 12.308594 -2.914062 L 12.121094 -2.914062 C 11.6875 -2.070312 11.074219 -1.339844 10.285156 -0.730469 C 9.492188 -0.117188 8.476562 0.1875 7.234375 0.1875 Z M 7.960938 -1.808594 C 9.347656 -1.808594 10.410156 -2.324219 11.148438 -3.359375 C 11.886719 -4.394531 12.253906 -5.675781 12.253906 -7.207031 C 12.253906 -8.738281 11.886719 -10.019531 11.148438 -11.054688 C 10.410156 -12.089844 9.347656 -12.605469 7.960938 -12.605469 C 6.542969 -12.605469 5.464844 -12.09375 4.738281 -11.066406 C 4.007812 -10.042969 3.644531 -8.761719 3.644531 -7.234375 C 3.644531 -5.6875 4.007812 -4.394531 4.738281 -3.359375 C 5.464844 -2.324219 6.542969 -1.808594 7.960938 -1.808594 Z M 7.960938 -1.808594 "/></g></g></g><g fill="#202020" fill-opacity="1"><g transform="translate(220.340122, 690.919209)"><g><path d="M 1.917969 -14.226562 L 4.238281 -14.226562 L 4.238281 -11.957031 L 4.398438 -11.957031 C 4.632812 -12.585938 5.050781 -13.121094 5.65625 -13.5625 C 6.257812 -14.003906 7.019531 -14.226562 7.9375 -14.226562 C 8.222656 -14.226562 8.453125 -14.210938 8.625 -14.183594 C 8.796875 -14.15625 8.988281 -14.109375 9.203125 -14.035156 L 9.125 -11.769531 C 8.835938 -11.859375 8.589844 -11.921875 8.382812 -11.957031 C 8.175781 -11.992188 7.910156 -12.011719 7.585938 -12.011719 C 5.351562 -12.011719 4.238281 -10.6875 4.238281 -8.042969 L 4.238281 0 L 1.917969 0 Z M 1.917969 -14.226562 "/></g></g></g><g fill="#202020" fill-opacity="1"><g transform="translate(229.866962, 690.919209)"><g><path d="M 7.234375 0.1875 C 5.972656 0.1875 4.898438 -0.136719 4.007812 -0.78125 C 3.117188 -1.429688 2.4375 -2.3125 1.96875 -3.429688 C 1.503906 -4.542969 1.269531 -5.804688 1.269531 -7.207031 C 1.269531 -8.609375 1.507812 -9.875 1.984375 -11 C 2.460938 -12.125 3.152344 -13.007812 4.0625 -13.644531 C 4.972656 -14.285156 6.054688 -14.601562 7.316406 -14.601562 C 8.574219 -14.601562 9.589844 -14.304688 10.363281 -13.710938 C 11.140625 -13.117188 11.722656 -12.40625 12.121094 -11.578125 L 12.308594 -11.578125 L 12.308594 -14.226562 L 14.65625 -14.226562 L 14.65625 0 L 12.308594 0 L 12.308594 -2.914062 L 12.121094 -2.914062 C 11.6875 -2.070312 11.074219 -1.339844 10.285156 -0.730469 C 9.492188 -0.117188 8.476562 0.1875 7.234375 0.1875 Z M 7.960938 -1.808594 C 9.347656 -1.808594 10.410156 -2.324219 11.148438 -3.359375 C 11.886719 -4.394531 12.253906 -5.675781 12.253906 -7.207031 C 12.253906 -8.738281 11.886719 -10.019531 11.148438 -11.054688 C 10.410156 -12.089844 9.347656 -12.605469 7.960938 -12.605469 C 6.542969 -12.605469 5.464844 -12.09375 4.738281 -11.066406 C 4.007812 -10.042969 3.644531 -8.761719 3.644531 -7.234375 C 3.644531 -5.6875 4.007812 -4.394531 4.738281 -3.359375 C 5.464844 -2.324219 6.542969 -1.808594 7.960938 -1.808594 Z M 7.960938 -1.808594 "/></g></g></g><g fill="#202020" fill-opacity="1"><g transform="translate(246.599654, 690.919209)"><g/></g></g><g fill="#202020" fill-opacity="1"><g transform="translate(252.80694, 690.919209)"><g><path d="M 1.96875 -18.894531 L 4.292969 -18.894531 L 4.292969 -10.527344 L 4.425781 -10.527344 L 11.929688 -18.894531 L 14.765625 -18.894531 L 7.316406 -10.769531 L 15.332031 0 L 12.605469 0 L 5.882812 -9.070312 L 4.292969 -7.367188 L 4.292969 0 L 1.96875 0 Z M 1.96875 -18.894531 "/></g></g></g><g fill="#202020" fill-opacity="1"><g transform="translate(269.647584, 690.919209)"><g><path d="M 8.015625 0.1875 C 6.558594 0.1875 5.332031 -0.160156 4.332031 -0.863281 C 3.332031 -1.566406 2.589844 -2.484375 2.105469 -3.617188 C 1.621094 -4.75 1.375 -5.949219 1.375 -7.207031 C 1.375 -8.484375 1.621094 -9.6875 2.105469 -10.808594 C 2.589844 -11.933594 3.339844 -12.847656 4.347656 -13.550781 C 5.351562 -14.253906 6.585938 -14.601562 8.042969 -14.601562 C 9.953125 -14.601562 11.476562 -13.964844 12.617188 -12.6875 C 13.761719 -11.410156 14.332031 -9.574219 14.332031 -7.179688 L 14.332031 -6.53125 L 3.699219 -6.53125 L 3.699219 -6.34375 C 3.699219 -5.550781 3.878906 -4.804688 4.238281 -4.101562 C 4.597656 -3.402344 5.101562 -2.835938 5.75 -2.402344 C 6.398438 -1.96875 7.144531 -1.753906 7.988281 -1.753906 C 8.90625 -1.753906 9.699219 -1.988281 10.363281 -2.457031 C 11.03125 -2.925781 11.527344 -3.554688 11.851562 -4.347656 L 14.144531 -4.347656 C 13.765625 -3.050781 13.058594 -1.96875 12.023438 -1.105469 C 10.992188 -0.242188 9.65625 0.1875 8.015625 0.1875 Z M 12.039062 -8.179688 C 11.964844 -9.796875 11.570312 -10.96875 10.851562 -11.6875 C 10.132812 -12.40625 9.1875 -12.765625 8.015625 -12.765625 C 6.738281 -12.765625 5.722656 -12.34375 4.964844 -11.5 C 4.210938 -10.652344 3.804688 -9.546875 3.753906 -8.179688 Z M 12.039062 -8.179688 "/></g></g></g><g fill="#202020" fill-opacity="1"><g transform="translate(285.381722, 690.919209)"><g><path d="M 1.917969 -14.226562 L 4.238281 -14.226562 L 4.238281 -11.957031 L 4.398438 -11.957031 C 4.632812 -12.585938 5.050781 -13.121094 5.65625 -13.5625 C 6.257812 -14.003906 7.019531 -14.226562 7.9375 -14.226562 C 8.222656 -14.226562 8.453125 -14.210938 8.625 -14.183594 C 8.796875 -14.15625 8.988281 -14.109375 9.203125 -14.035156 L 9.125 -11.769531 C 8.835938 -11.859375 8.589844 -11.921875 8.382812 -11.957031 C 8.175781 -11.992188 7.910156 -12.011719 7.585938 -12.011719 C 5.351562 -12.011719 4.238281 -10.6875 4.238281 -8.042969 L 4.238281 0 L 1.917969 0 Z M 1.917969 -14.226562 "/></g></g></g><g fill="#202020" fill-opacity="1"><g transform="translate(294.908561, 690.919209)"><g><path d="M 3.535156 -16.871094 C 3.105469 -16.871094 2.75 -17.015625 2.46875 -17.300781 C 2.191406 -17.589844 2.050781 -17.949219 2.050781 -18.382812 C 2.050781 -18.8125 2.191406 -19.171875 2.46875 -19.460938 C 2.75 -19.75 3.105469 -19.894531 3.535156 -19.894531 C 3.96875 -19.894531 4.332031 -19.746094 4.628906 -19.449219 C 4.925781 -19.152344 5.074219 -18.796875 5.074219 -18.382812 C 5.074219 -17.96875 4.925781 -17.613281 4.628906 -17.316406 C 4.332031 -17.019531 3.96875 -16.871094 3.535156 -16.871094 Z M 0.835938 5.910156 C 0.117188 5.910156 -0.511719 5.839844 -1.050781 5.695312 L -1.050781 4.023438 C -0.746094 4.09375 -0.324219 4.128906 0.214844 4.128906 C 0.863281 4.128906 1.339844 4.007812 1.648438 3.765625 C 1.953125 3.523438 2.140625 3.234375 2.214844 2.902344 C 2.285156 2.570312 2.320312 2.140625 2.320312 1.621094 L 2.320312 -14.414062 L 4.644531 -14.414062 L 4.667969 2.160156 C 4.667969 3.167969 4.417969 4.042969 3.914062 4.792969 C 3.410156 5.539062 2.382812 5.910156 0.835938 5.910156 Z M 0.835938 5.910156 "/></g></g></g><g fill="#202020" fill-opacity="1"><g transform="translate(301.736564, 690.919209)"><g><path d="M 7.234375 0.1875 C 5.972656 0.1875 4.898438 -0.136719 4.007812 -0.78125 C 3.117188 -1.429688 2.4375 -2.3125 1.96875 -3.429688 C 1.503906 -4.542969 1.269531 -5.804688 1.269531 -7.207031 C 1.269531 -8.609375 1.507812 -9.875 1.984375 -11 C 2.460938 -12.125 3.152344 -13.007812 4.0625 -13.644531 C 4.972656 -14.285156 6.054688 -14.601562 7.316406 -14.601562 C 8.574219 -14.601562 9.589844 -14.304688 10.363281 -13.710938 C 11.140625 -13.117188 11.722656 -12.40625 12.121094 -11.578125 L 12.308594 -11.578125 L 12.308594 -14.226562 L 14.65625 -14.226562 L 14.65625 0 L 12.308594 0 L 12.308594 -2.914062 L 12.121094 -2.914062 C 11.6875 -2.070312 11.074219 -1.339844 10.285156 -0.730469 C 9.492188 -0.117188 8.476562 0.1875 7.234375 0.1875 Z M 7.960938 -1.808594 C 9.347656 -1.808594 10.410156 -2.324219 11.148438 -3.359375 C 11.886719 -4.394531 12.253906 -5.675781 12.253906 -7.207031 C 12.253906 -8.738281 11.886719 -10.019531 11.148438 -11.054688 C 10.410156 -12.089844 9.347656 -12.605469 7.960938 -12.605469 C 6.542969 -12.605469 5.464844 -12.09375 4.738281 -11.066406 C 4.007812 -10.042969 3.644531 -8.761719 3.644531 -7.234375 C 3.644531 -5.6875 4.007812 -4.394531 4.738281 -3.359375 C 5.464844 -2.324219 6.542969 -1.808594 7.960938 -1.808594 Z M 7.960938 -1.808594 "/></g></g></g><g fill="#202020" fill-opacity="1"><g transform="translate(318.469245, 690.919209)"><g/></g></g><g fill="#202020" fill-opacity="1"><g transform="translate(324.676543, 690.919209)"><g><path d="M 8.257812 0.214844 C 6.800781 0.214844 5.554688 -0.0859375 4.519531 -0.6875 C 3.488281 -1.292969 2.707031 -2.070312 2.1875 -3.023438 C 1.664062 -3.976562 1.402344 -4.976562 1.402344 -6.019531 L 1.402344 -6.152344 L 3.96875 -6.152344 L 3.96875 -6.019531 C 3.96875 -5.390625 4.117188 -4.757812 4.414062 -4.128906 C 4.710938 -3.5 5.183594 -2.972656 5.832031 -2.550781 C 6.476562 -2.128906 7.304688 -1.917969 8.3125 -1.917969 C 9.5 -1.917969 10.480469 -2.222656 11.257812 -2.835938 C 12.03125 -3.445312 12.417969 -4.273438 12.417969 -5.316406 C 12.417969 -6.179688 12.132812 -6.871094 11.566406 -7.382812 C 11 -7.894531 10.273438 -8.242188 9.394531 -8.421875 L 6.640625 -8.933594 C 3.472656 -9.636719 1.890625 -11.300781 1.890625 -13.929688 C 1.890625 -15.007812 2.152344 -15.953125 2.671875 -16.761719 C 3.195312 -17.570312 3.917969 -18.199219 4.84375 -18.636719 C 5.773438 -19.078125 6.847656 -19.300781 8.070312 -19.300781 C 9.457031 -19.300781 10.644531 -19.019531 11.632812 -18.460938 C 12.625 -17.90625 13.371094 -17.179688 13.875 -16.289062 C 14.378906 -15.398438 14.628906 -14.476562 14.628906 -13.523438 L 14.628906 -13.414062 L 12.066406 -13.414062 L 12.066406 -13.496094 C 12.066406 -14.035156 11.933594 -14.589844 11.675781 -15.15625 C 11.414062 -15.722656 10.980469 -16.214844 10.378906 -16.628906 C 9.777344 -17.042969 8.980469 -17.25 7.988281 -17.25 C 6.855469 -17.25 5.953125 -16.933594 5.277344 -16.304688 C 4.601562 -15.671875 4.265625 -14.890625 4.265625 -13.957031 C 4.265625 -13.164062 4.527344 -12.515625 5.046875 -12.011719 C 5.570312 -11.507812 6.28125 -11.164062 7.179688 -10.984375 L 9.664062 -10.5 C 13.136719 -9.796875 14.871094 -8.097656 14.871094 -5.398438 C 14.871094 -4.300781 14.597656 -3.328125 14.050781 -2.484375 C 13.5 -1.636719 12.722656 -0.976562 11.714844 -0.5 C 10.707031 -0.0234375 9.554688 0.214844 8.257812 0.214844 Z M 8.257812 0.214844 "/></g></g></g><g fill="#202020" fill-opacity="1"><g transform="translate(340.842489, 690.919209)"><g><path d="M 5.832031 -12.363281 L 5.832031 -4.101562 C 5.832031 -3.4375 5.863281 -2.945312 5.925781 -2.632812 C 5.988281 -2.316406 6.160156 -2.070312 6.4375 -1.890625 C 6.714844 -1.710938 7.171875 -1.621094 7.800781 -1.621094 C 8.234375 -1.621094 8.699219 -1.683594 9.203125 -1.808594 L 9.203125 -0.136719 C 9.078125 -0.0820312 8.804688 -0.0273438 8.382812 0.0273438 C 7.957031 0.0820312 7.523438 0.109375 7.070312 0.109375 C 6.027344 0.109375 5.25 -0.0390625 4.738281 -0.335938 C 4.222656 -0.632812 3.890625 -1.039062 3.738281 -1.550781 C 3.585938 -2.066406 3.507812 -2.746094 3.507812 -3.589844 L 3.507812 -12.363281 L 0.863281 -12.363281 L 0.863281 -14.226562 L 3.507812 -14.226562 L 3.507812 -18.894531 L 5.832031 -18.894531 L 5.832031 -14.226562 L 9.203125 -14.226562 L 9.203125 -12.363281 Z M 5.832031 -12.363281 "/></g></g></g><g fill="#202020" fill-opacity="1"><g transform="translate(351.448827, 690.919209)"><g><path d="M 7.234375 0.1875 C 5.972656 0.1875 4.898438 -0.136719 4.007812 -0.78125 C 3.117188 -1.429688 2.4375 -2.3125 1.96875 -3.429688 C 1.503906 -4.542969 1.269531 -5.804688 1.269531 -7.207031 C 1.269531 -8.609375 1.507812 -9.875 1.984375 -11 C 2.460938 -12.125 3.152344 -13.007812 4.0625 -13.644531 C 4.972656 -14.285156 6.054688 -14.601562 7.316406 -14.601562 C 8.574219 -14.601562 9.589844 -14.304688 10.363281 -13.710938 C 11.140625 -13.117188 11.722656 -12.40625 12.121094 -11.578125 L 12.308594 -11.578125 L 12.308594 -14.226562 L 14.65625 -14.226562 L 14.65625 0 L 12.308594 0 L 12.308594 -2.914062 L 12.121094 -2.914062 C 11.6875 -2.070312 11.074219 -1.339844 10.285156 -0.730469 C 9.492188 -0.117188 8.476562 0.1875 7.234375 0.1875 Z M 7.960938 -1.808594 C 9.347656 -1.808594 10.410156 -2.324219 11.148438 -3.359375 C 11.886719 -4.394531 12.253906 -5.675781 12.253906 -7.207031 C 12.253906 -8.738281 11.886719 -10.019531 11.148438 -11.054688 C 10.410156 -12.089844 9.347656 -12.605469 7.960938 -12.605469 C 6.542969 -12.605469 5.464844 -12.09375 4.738281 -11.066406 C 4.007812 -10.042969 3.644531 -8.761719 3.644531 -7.234375 C 3.644531 -5.6875 4.007812 -4.394531 4.738281 -3.359375 C 5.464844 -2.324219 6.542969 -1.808594 7.960938 -1.808594 Z M 7.960938 -1.808594 "/></g></g></g><g fill="#202020" fill-opacity="1"><g transform="translate(368.18153, 690.919209)"><g><path d="M 1.917969 -14.226562 L 4.238281 -14.226562 L 4.238281 -11.957031 L 4.398438 -11.957031 C 4.632812 -12.585938 5.050781 -13.121094 5.65625 -13.5625 C 6.257812 -14.003906 7.019531 -14.226562 7.9375 -14.226562 C 8.222656 -14.226562 8.453125 -14.210938 8.625 -14.183594 C 8.796875 -14.15625 8.988281 -14.109375 9.203125 -14.035156 L 9.125 -11.769531 C 8.835938 -11.859375 8.589844 -11.921875 8.382812 -11.957031 C 8.175781 -11.992188 7.910156 -12.011719 7.585938 -12.011719 C 5.351562 -12.011719 4.238281 -10.6875 4.238281 -8.042969 L 4.238281 0 L 1.917969 0 Z M 1.917969 -14.226562 "/></g></g></g><g fill="#202020" fill-opacity="1"><g transform="translate(377.70837, 690.919209)"><g/></g></g><g fill="#202020" fill-opacity="1"><g transform="translate(383.915668, 690.919209)"><g><path d="M 2.023438 -18.894531 L 8.933594 -18.894531 C 10.625 -18.894531 12.105469 -18.511719 13.375 -17.746094 C 14.644531 -16.984375 15.625 -15.894531 16.316406 -14.480469 C 17.011719 -13.070312 17.355469 -11.398438 17.355469 -9.472656 C 17.355469 -7.550781 17.011719 -5.871094 16.316406 -4.441406 C 15.625 -3.007812 14.640625 -1.910156 13.359375 -1.148438 C 12.082031 -0.382812 10.597656 0 8.90625 0 L 2.023438 0 Z M 8.582031 -2.160156 C 10.492188 -2.160156 12.019531 -2.785156 13.171875 -4.035156 C 14.324219 -5.285156 14.898438 -7.097656 14.898438 -9.472656 C 14.898438 -11.851562 14.328125 -13.664062 13.1875 -14.914062 C 12.042969 -16.164062 10.507812 -16.789062 8.582031 -16.789062 L 4.292969 -16.789062 L 4.292969 -2.160156 Z M 8.582031 -2.160156 "/></g></g></g><g fill="#202020" fill-opacity="1"><g transform="translate(402.45656, 690.919209)"><g><path d="M 8.015625 0.1875 C 6.558594 0.1875 5.332031 -0.160156 4.332031 -0.863281 C 3.332031 -1.566406 2.589844 -2.484375 2.105469 -3.617188 C 1.621094 -4.75 1.375 -5.949219 1.375 -7.207031 C 1.375 -8.484375 1.621094 -9.6875 2.105469 -10.808594 C 2.589844 -11.933594 3.339844 -12.847656 4.347656 -13.550781 C 5.351562 -14.253906 6.585938 -14.601562 8.042969 -14.601562 C 9.953125 -14.601562 11.476562 -13.964844 12.617188 -12.6875 C 13.761719 -11.410156 14.332031 -9.574219 14.332031 -7.179688 L 14.332031 -6.53125 L 3.699219 -6.53125 L 3.699219 -6.34375 C 3.699219 -5.550781 3.878906 -4.804688 4.238281 -4.101562 C 4.597656 -3.402344 5.101562 -2.835938 5.75 -2.402344 C 6.398438 -1.96875 7.144531 -1.753906 7.988281 -1.753906 C 8.90625 -1.753906 9.699219 -1.988281 10.363281 -2.457031 C 11.03125 -2.925781 11.527344 -3.554688 11.851562 -4.347656 L 14.144531 -4.347656 C 13.765625 -3.050781 13.058594 -1.96875 12.023438 -1.105469 C 10.992188 -0.242188 9.65625 0.1875 8.015625 0.1875 Z M 12.039062 -8.179688 C 11.964844 -9.796875 11.570312 -10.96875 10.851562 -11.6875 C 10.132812 -12.40625 9.1875 -12.765625 8.015625 -12.765625 C 6.738281 -12.765625 5.722656 -12.34375 4.964844 -11.5 C 4.210938 -10.652344 3.804688 -9.546875 3.753906 -8.179688 Z M 12.039062 -8.179688 "/></g></g></g><g fill="#202020" fill-opacity="1"><g transform="translate(418.190675, 690.919209)"><g><path d="M 5.667969 0.109375 C 4.605469 0.109375 3.816406 -0.0625 3.292969 -0.40625 C 2.769531 -0.746094 2.441406 -1.191406 2.308594 -1.742188 C 2.171875 -2.289062 2.105469 -3.003906 2.105469 -3.886719 L 2.132812 -20.246094 L 4.453125 -20.246094 L 4.453125 -4.238281 C 4.453125 -3.554688 4.484375 -3.046875 4.546875 -2.710938 C 4.609375 -2.378906 4.78125 -2.113281 5.0625 -1.917969 C 5.339844 -1.71875 5.785156 -1.621094 6.398438 -1.621094 C 6.773438 -1.621094 7.109375 -1.648438 7.394531 -1.699219 L 7.394531 -0.0273438 C 6.910156 0.0625 6.335938 0.109375 5.667969 0.109375 Z M 5.667969 0.109375 "/></g></g></g><g fill="#202020" fill-opacity="1"><g transform="translate(426.664979, 690.919209)"><g><path d="M 5.832031 -12.363281 L 5.832031 -4.101562 C 5.832031 -3.4375 5.863281 -2.945312 5.925781 -2.632812 C 5.988281 -2.316406 6.160156 -2.070312 6.4375 -1.890625 C 6.714844 -1.710938 7.171875 -1.621094 7.800781 -1.621094 C 8.234375 -1.621094 8.699219 -1.683594 9.203125 -1.808594 L 9.203125 -0.136719 C 9.078125 -0.0820312 8.804688 -0.0273438 8.382812 0.0273438 C 7.957031 0.0820312 7.523438 0.109375 7.070312 0.109375 C 6.027344 0.109375 5.25 -0.0390625 4.738281 -0.335938 C 4.222656 -0.632812 3.890625 -1.039062 3.738281 -1.550781 C 3.585938 -2.066406 3.507812 -2.746094 3.507812 -3.589844 L 3.507812 -12.363281 L 0.863281 -12.363281 L 0.863281 -14.226562 L 3.507812 -14.226562 L 3.507812 -18.894531 L 5.832031 -18.894531 L 5.832031 -14.226562 L 9.203125 -14.226562 L 9.203125 -12.363281 Z M 5.832031 -12.363281 "/></g></g></g><g fill="#202020" fill-opacity="1"><g transform="translate(437.271317, 690.919209)"><g><path d="M 7.234375 0.1875 C 5.972656 0.1875 4.898438 -0.136719 4.007812 -0.78125 C 3.117188 -1.429688 2.4375 -2.3125 1.96875 -3.429688 C 1.503906 -4.542969 1.269531 -5.804688 1.269531 -7.207031 C 1.269531 -8.609375 1.507812 -9.875 1.984375 -11 C 2.460938 -12.125 3.152344 -13.007812 4.0625 -13.644531 C 4.972656 -14.285156 6.054688 -14.601562 7.316406 -14.601562 C 8.574219 -14.601562 9.589844 -14.304688 10.363281 -13.710938 C 11.140625 -13.117188 11.722656 -12.40625 12.121094 -11.578125 L 12.308594 -11.578125 L 12.308594 -14.226562 L 14.65625 -14.226562 L 14.65625 0 L 12.308594 0 L 12.308594 -2.914062 L 12.121094 -2.914062 C 11.6875 -2.070312 11.074219 -1.339844 10.285156 -0.730469 C 9.492188 -0.117188 8.476562 0.1875 7.234375 0.1875 Z M 7.960938 -1.808594 C 9.347656 -1.808594 10.410156 -2.324219 11.148438 -3.359375 C 11.886719 -4.394531 12.253906 -5.675781 12.253906 -7.207031 C 12.253906 -8.738281 11.886719 -10.019531 11.148438 -11.054688 C 10.410156 -12.089844 9.347656 -12.605469 7.960938 -12.605469 C 6.542969 -12.605469 5.464844 -12.09375 4.738281 -11.066406 C 4.007812 -10.042969 3.644531 -8.761719 3.644531 -7.234375 C 3.644531 -5.6875 4.007812 -4.394531 4.738281 -3.359375 C 5.464844 -2.324219 6.542969 -1.808594 7.960938 -1.808594 Z M 7.960938 -1.808594 "/></g></g></g><g fill="#202020" fill-opacity="1"><g transform="translate(454.00402, 690.919209)"><g/></g></g><g fill="#202020" fill-opacity="1"><g transform="translate(460.211318, 690.919209)"><g><path d="M 9.609375 5.75 C 8.476562 5.03125 7.410156 4.050781 6.410156 2.808594 C 5.410156 1.566406 4.59375 0.0390625 3.953125 -1.769531 C 3.316406 -3.578125 2.996094 -5.585938 2.996094 -7.800781 C 2.996094 -10.105469 3.328125 -12.179688 3.996094 -14.023438 C 4.660156 -15.867188 5.492188 -17.398438 6.492188 -18.613281 C 7.492188 -19.824219 8.519531 -20.75 9.582031 -21.378906 L 10.285156 -20.675781 C 9.546875 -19.992188 8.804688 -19.046875 8.058594 -17.84375 C 7.308594 -16.636719 6.679688 -15.167969 6.167969 -13.441406 C 5.65625 -11.714844 5.398438 -9.835938 5.398438 -7.800781 C 5.398438 -5.765625 5.660156 -3.886719 6.179688 -2.160156 C 6.703125 -0.433594 7.332031 1.035156 8.070312 2.242188 C 8.808594 3.445312 9.546875 4.382812 10.285156 5.046875 Z M 9.609375 5.75 "/></g></g></g><g fill="#202020" fill-opacity="1"><g transform="translate(472.625868, 690.919209)"><g><path d="M 3.15625 0.0820312 C 2.402344 0.0820312 1.800781 0.0195312 1.351562 -0.109375 L 1.351562 -1.808594 C 1.78125 -1.738281 2.195312 -1.699219 2.589844 -1.699219 C 3.257812 -1.699219 3.742188 -1.820312 4.050781 -2.066406 C 4.355469 -2.308594 4.542969 -2.597656 4.617188 -2.929688 C 4.6875 -3.261719 4.722656 -3.699219 4.722656 -4.238281 L 4.722656 -18.894531 L 7.019531 -18.894531 L 7.046875 -3.671875 C 7.046875 -2.664062 6.789062 -1.785156 6.277344 -1.039062 C 5.761719 -0.292969 4.722656 0.0820312 3.15625 0.0820312 Z M 3.15625 0.0820312 "/></g></g></g><g fill="#202020" fill-opacity="1"><g transform="translate(481.990797, 690.919209)"><g><path d="M 8.042969 0.1875 C 6.605469 0.1875 5.386719 -0.15625 4.386719 -0.851562 C 3.386719 -1.542969 2.636719 -2.453125 2.132812 -3.578125 C 1.628906 -4.703125 1.375 -5.910156 1.375 -7.207031 C 1.375 -8.503906 1.628906 -9.710938 2.132812 -10.835938 C 2.636719 -11.960938 3.386719 -12.871094 4.386719 -13.5625 C 5.386719 -14.257812 6.605469 -14.601562 8.042969 -14.601562 C 9.484375 -14.601562 10.703125 -14.257812 11.703125 -13.5625 C 12.699219 -12.871094 13.445312 -11.957031 13.941406 -10.824219 C 14.4375 -9.691406 14.683594 -8.484375 14.683594 -7.207031 C 14.683594 -5.929688 14.433594 -4.722656 13.929688 -3.589844 C 13.425781 -2.457031 12.671875 -1.542969 11.675781 -0.851562 C 10.675781 -0.15625 9.464844 0.1875 8.042969 0.1875 Z M 8.042969 -1.808594 C 8.925781 -1.808594 9.695312 -2.050781 10.351562 -2.539062 C 11.007812 -3.023438 11.507812 -3.675781 11.851562 -4.496094 C 12.191406 -5.3125 12.363281 -6.226562 12.363281 -7.234375 C 12.363281 -8.78125 11.976562 -10.066406 11.203125 -11.09375 C 10.429688 -12.121094 9.375 -12.632812 8.042969 -12.632812 C 7.144531 -12.632812 6.367188 -12.390625 5.707031 -11.902344 C 5.050781 -11.417969 4.554688 -10.765625 4.210938 -9.945312 C 3.867188 -9.128906 3.699219 -8.222656 3.699219 -7.234375 C 3.699219 -5.6875 4.085938 -4.394531 4.859375 -3.359375 C 5.632812 -2.324219 6.695312 -1.808594 8.042969 -1.808594 Z M 8.042969 -1.808594 "/></g></g></g><g fill="#202020" fill-opacity="1"><g transform="translate(498.04878, 690.919209)"><g><path d="M 6.882812 0.1875 C 5.730469 0.1875 4.734375 -0.0390625 3.886719 -0.5 C 3.042969 -0.957031 2.398438 -1.546875 1.957031 -2.265625 C 1.515625 -2.988281 1.296875 -3.742188 1.296875 -4.535156 L 1.296875 -4.667969 L 3.617188 -4.667969 L 3.617188 -4.5625 C 3.617188 -4.113281 3.742188 -3.667969 3.996094 -3.226562 C 4.246094 -2.785156 4.625 -2.425781 5.128906 -2.144531 C 5.632812 -1.867188 6.246094 -1.726562 6.964844 -1.726562 C 7.828125 -1.726562 8.542969 -1.9375 9.109375 -2.363281 C 9.675781 -2.785156 9.960938 -3.363281 9.960938 -4.101562 C 9.960938 -4.714844 9.738281 -5.199219 9.300781 -5.558594 C 8.859375 -5.921875 8.304688 -6.152344 7.640625 -6.261719 L 5.777344 -6.53125 C 4.605469 -6.710938 3.625 -7.113281 2.835938 -7.734375 C 2.042969 -8.355469 1.648438 -9.257812 1.648438 -10.445312 C 1.648438 -11.757812 2.117188 -12.78125 3.0625 -13.507812 C 4.007812 -14.238281 5.21875 -14.601562 6.695312 -14.601562 C 7.792969 -14.601562 8.730469 -14.402344 9.515625 -13.996094 C 10.296875 -13.589844 10.894531 -13.058594 11.308594 -12.402344 C 11.722656 -11.746094 11.929688 -11.03125 11.929688 -10.257812 L 11.929688 -10.148438 L 9.609375 -10.148438 L 9.609375 -10.203125 C 9.609375 -10.5625 9.515625 -10.941406 9.324219 -11.335938 C 9.136719 -11.734375 8.816406 -12.074219 8.367188 -12.363281 C 7.917969 -12.652344 7.34375 -12.792969 6.640625 -12.792969 C 5.777344 -12.792969 5.082031 -12.582031 4.5625 -12.160156 C 4.039062 -11.738281 3.777344 -11.183594 3.777344 -10.5 C 3.777344 -9.941406 3.984375 -9.484375 4.398438 -9.125 C 4.8125 -8.761719 5.335938 -8.53125 5.964844 -8.421875 L 7.988281 -8.097656 C 9.175781 -7.898438 10.175781 -7.492188 10.984375 -6.871094 C 11.796875 -6.25 12.199219 -5.335938 12.199219 -4.128906 C 12.199219 -3.265625 11.972656 -2.511719 11.511719 -1.863281 C 11.054688 -1.214844 10.417969 -0.710938 9.609375 -0.351562 C 8.800781 0.0078125 7.890625 0.1875 6.882812 0.1875 Z M 6.882812 0.1875 "/></g></g></g><g fill="#202020" fill-opacity="1"><g transform="translate(511.434933, 690.919209)"><g><path d="M 8.015625 0.1875 C 6.558594 0.1875 5.332031 -0.160156 4.332031 -0.863281 C 3.332031 -1.566406 2.589844 -2.484375 2.105469 -3.617188 C 1.621094 -4.75 1.375 -5.949219 1.375 -7.207031 C 1.375 -8.484375 1.621094 -9.6875 2.105469 -10.808594 C 2.589844 -11.933594 3.339844 -12.847656 4.347656 -13.550781 C 5.351562 -14.253906 6.585938 -14.601562 8.042969 -14.601562 C 9.953125 -14.601562 11.476562 -13.964844 12.617188 -12.6875 C 13.761719 -11.410156 14.332031 -9.574219 14.332031 -7.179688 L 14.332031 -6.53125 L 3.699219 -6.53125 L 3.699219 -6.34375 C 3.699219 -5.550781 3.878906 -4.804688 4.238281 -4.101562 C 4.597656 -3.402344 5.101562 -2.835938 5.75 -2.402344 C 6.398438 -1.96875 7.144531 -1.753906 7.988281 -1.753906 C 8.90625 -1.753906 9.699219 -1.988281 10.363281 -2.457031 C 11.03125 -2.925781 11.527344 -3.554688 11.851562 -4.347656 L 14.144531 -4.347656 C 13.765625 -3.050781 13.058594 -1.96875 12.023438 -1.105469 C 10.992188 -0.242188 9.65625 0.1875 8.015625 0.1875 Z M 12.039062 -8.179688 C 11.964844 -9.796875 11.570312 -10.96875 10.851562 -11.6875 C 10.132812 -12.40625 9.1875 -12.765625 8.015625 -12.765625 C 6.738281 -12.765625 5.722656 -12.34375 4.964844 -11.5 C 4.210938 -10.652344 3.804688 -9.546875 3.753906 -8.179688 Z M 12.039062 -8.179688 "/></g></g></g><g fill="#202020" fill-opacity="1"><g transform="translate(527.169048, 690.919209)"><g><path d="M 9.421875 0.1875 C 8.179688 0.1875 7.160156 -0.117188 6.371094 -0.730469 C 5.578125 -1.339844 4.964844 -2.070312 4.535156 -2.914062 L 4.347656 -2.914062 L 4.347656 5.480469 L 1.996094 5.480469 L 1.996094 -14.226562 L 4.347656 -14.226562 L 4.347656 -11.578125 L 4.535156 -11.578125 C 4.929688 -12.40625 5.515625 -13.117188 6.289062 -13.710938 C 7.0625 -14.304688 8.078125 -14.601562 9.339844 -14.601562 C 10.617188 -14.601562 11.710938 -14.285156 12.617188 -13.644531 C 13.527344 -13.007812 14.214844 -12.125 14.683594 -11 C 15.152344 -9.875 15.386719 -8.609375 15.386719 -7.207031 C 15.386719 -5.804688 15.152344 -4.542969 14.683594 -3.429688 C 14.214844 -2.3125 13.53125 -1.429688 12.632812 -0.78125 C 11.734375 -0.136719 10.660156 0.1875 9.421875 0.1875 Z M 8.691406 -1.808594 C 10.09375 -1.808594 11.160156 -2.320312 11.890625 -3.347656 C 12.617188 -4.371094 12.984375 -5.660156 12.984375 -7.207031 C 12.984375 -8.738281 12.625 -10.015625 11.902344 -11.039062 C 11.183594 -12.066406 10.113281 -12.578125 8.691406 -12.578125 C 7.289062 -12.578125 6.222656 -12.066406 5.492188 -11.039062 C 4.765625 -10.015625 4.398438 -8.738281 4.398438 -7.207031 C 4.398438 -5.675781 4.769531 -4.394531 5.507812 -3.359375 C 6.246094 -2.324219 7.304688 -1.808594 8.691406 -1.808594 Z M 8.691406 -1.808594 "/></g></g></g><g fill="#202020" fill-opacity="1"><g transform="translate(543.955699, 690.919209)"><g><path d="M 2.023438 -20.164062 L 4.347656 -20.164062 L 4.347656 -11.660156 L 4.5625 -11.660156 C 4.921875 -12.488281 5.507812 -13.1875 6.316406 -13.753906 C 7.125 -14.320312 8.117188 -14.601562 9.285156 -14.601562 C 10.492188 -14.601562 11.5 -14.320312 12.308594 -13.753906 C 13.117188 -13.1875 13.714844 -12.4375 14.105469 -11.511719 C 14.492188 -10.585938 14.683594 -9.582031 14.683594 -8.503906 L 14.683594 0 L 12.363281 0 L 12.363281 -8.207031 C 12.363281 -9.609375 12 -10.679688 11.269531 -11.417969 C 10.539062 -12.15625 9.574219 -12.523438 8.367188 -12.523438 C 7.214844 -12.523438 6.257812 -12.136719 5.492188 -11.363281 C 4.726562 -10.589844 4.347656 -9.539062 4.347656 -8.207031 L 4.347656 0 L 2.023438 0 Z M 2.023438 -20.164062 "/></g></g></g><g fill="#202020" fill-opacity="1"><g transform="translate(560.472498, 690.919209)"><g/></g></g><g fill="#202020" fill-opacity="1"><g transform="translate(566.679773, 690.919209)"><g><path d="M 13.039062 -5.507812 L 5.34375 -5.507812 L 3.347656 0 L 0.972656 0 L 8.070312 -18.894531 L 10.285156 -18.894531 L 17.4375 0 L 15.0625 0 Z M 12.363281 -7.367188 L 9.203125 -15.925781 L 9.097656 -15.925781 L 6.019531 -7.367188 Z M 12.363281 -7.367188 "/></g></g></g><g fill="#202020" fill-opacity="1"><g transform="translate(585.031747, 690.919209)"><g><path d="M 3.699219 0.1875 C 3.25 0.1875 2.875 0.03125 2.578125 -0.285156 C 2.28125 -0.597656 2.132812 -0.972656 2.132812 -1.402344 C 2.132812 -1.835938 2.28125 -2.199219 2.578125 -2.496094 C 2.875 -2.792969 3.25 -2.941406 3.699219 -2.941406 C 4.148438 -2.941406 4.519531 -2.792969 4.816406 -2.496094 C 5.113281 -2.199219 5.261719 -1.835938 5.261719 -1.402344 C 5.261719 -0.972656 5.109375 -0.597656 4.804688 -0.285156 C 4.5 0.03125 4.128906 0.1875 3.699219 0.1875 Z M 3.699219 0.1875 "/></g></g></g><g fill="#202020" fill-opacity="1"><g transform="translate(592.399544, 690.919209)"><g/></g></g><g fill="#202020" fill-opacity="1"><g transform="translate(598.606819, 690.919209)"><g><path d="M 16.304688 -18.894531 L 16.304688 0 L 13.957031 0 L 13.957031 -8.554688 L 4.347656 -8.554688 L 4.347656 0 L 2.023438 0 L 2.023438 -18.894531 L 4.347656 -18.894531 L 4.347656 -10.445312 L 13.957031 -10.445312 L 13.957031 -18.894531 Z M 16.304688 -18.894531 "/></g></g></g><g fill="#202020" fill-opacity="1"><g transform="translate(616.931831, 690.919209)"><g><path d="M 14.414062 0 L 12.066406 0 L 12.066406 -2.699219 L 11.902344 -2.699219 C 11.527344 -1.871094 10.945312 -1.175781 10.164062 -0.605469 C 9.378906 -0.0390625 8.421875 0.242188 7.289062 0.242188 C 6.101562 0.242188 5.109375 -0.046875 4.320312 -0.621094 C 3.527344 -1.195312 2.945312 -1.945312 2.578125 -2.859375 C 2.207031 -3.777344 2.023438 -4.777344 2.023438 -5.855469 L 2.023438 -14.226562 L 4.347656 -14.226562 L 4.347656 -6.152344 C 4.347656 -4.769531 4.695312 -3.703125 5.398438 -2.957031 C 6.101562 -2.207031 7.019531 -1.835938 8.152344 -1.835938 C 9.339844 -1.835938 10.289062 -2.234375 11 -3.035156 C 11.710938 -3.835938 12.066406 -4.875 12.066406 -6.152344 L 12.066406 -14.226562 L 14.414062 -14.226562 Z M 14.414062 0 "/></g></g></g><g fill="#202020" fill-opacity="1"><g transform="translate(633.178733, 690.919209)"><g><path d="M 5.832031 -12.363281 L 5.832031 -4.101562 C 5.832031 -3.4375 5.863281 -2.945312 5.925781 -2.632812 C 5.988281 -2.316406 6.160156 -2.070312 6.4375 -1.890625 C 6.714844 -1.710938 7.171875 -1.621094 7.800781 -1.621094 C 8.234375 -1.621094 8.699219 -1.683594 9.203125 -1.808594 L 9.203125 -0.136719 C 9.078125 -0.0820312 8.804688 -0.0273438 8.382812 0.0273438 C 7.957031 0.0820312 7.523438 0.109375 7.070312 0.109375 C 6.027344 0.109375 5.25 -0.0390625 4.738281 -0.335938 C 4.222656 -0.632812 3.890625 -1.039062 3.738281 -1.550781 C 3.585938 -2.066406 3.507812 -2.746094 3.507812 -3.589844 L 3.507812 -12.363281 L 0.863281 -12.363281 L 0.863281 -14.226562 L 3.507812 -14.226562 L 3.507812 -18.894531 L 5.832031 -18.894531 L 5.832031 -14.226562 L 9.203125 -14.226562 L 9.203125 -12.363281 Z M 5.832031 -12.363281 "/></g></g></g><g fill="#202020" fill-opacity="1"><g transform="translate(643.785071, 690.919209)"><g><path d="M 7.234375 0.1875 C 5.972656 0.1875 4.898438 -0.136719 4.007812 -0.78125 C 3.117188 -1.429688 2.4375 -2.3125 1.96875 -3.429688 C 1.503906 -4.542969 1.269531 -5.804688 1.269531 -7.207031 C 1.269531 -8.609375 1.507812 -9.875 1.984375 -11 C 2.460938 -12.125 3.152344 -13.007812 4.0625 -13.644531 C 4.972656 -14.285156 6.054688 -14.601562 7.316406 -14.601562 C 8.574219 -14.601562 9.589844 -14.304688 10.363281 -13.710938 C 11.140625 -13.117188 11.722656 -12.40625 12.121094 -11.578125 L 12.308594 -11.578125 L 12.308594 -14.226562 L 14.65625 -14.226562 L 14.65625 0 L 12.308594 0 L 12.308594 -2.914062 L 12.121094 -2.914062 C 11.6875 -2.070312 11.074219 -1.339844 10.285156 -0.730469 C 9.492188 -0.117188 8.476562 0.1875 7.234375 0.1875 Z M 7.960938 -1.808594 C 9.347656 -1.808594 10.410156 -2.324219 11.148438 -3.359375 C 11.886719 -4.394531 12.253906 -5.675781 12.253906 -7.207031 C 12.253906 -8.738281 11.886719 -10.019531 11.148438 -11.054688 C 10.410156 -12.089844 9.347656 -12.605469 7.960938 -12.605469 C 6.542969 -12.605469 5.464844 -12.09375 4.738281 -11.066406 C 4.007812 -10.042969 3.644531 -8.761719 3.644531 -7.234375 C 3.644531 -5.6875 4.007812 -4.394531 4.738281 -3.359375 C 5.464844 -2.324219 6.542969 -1.808594 7.960938 -1.808594 Z M 7.960938 -1.808594 "/></g></g></g><g fill="#202020" fill-opacity="1"><g transform="translate(660.517797, 690.919209)"><g><path d="M 9.421875 0.1875 C 8.179688 0.1875 7.160156 -0.117188 6.371094 -0.730469 C 5.578125 -1.339844 4.964844 -2.070312 4.535156 -2.914062 L 4.347656 -2.914062 L 4.347656 5.480469 L 1.996094 5.480469 L 1.996094 -14.226562 L 4.347656 -14.226562 L 4.347656 -11.578125 L 4.535156 -11.578125 C 4.929688 -12.40625 5.515625 -13.117188 6.289062 -13.710938 C 7.0625 -14.304688 8.078125 -14.601562 9.339844 -14.601562 C 10.617188 -14.601562 11.710938 -14.285156 12.617188 -13.644531 C 13.527344 -13.007812 14.214844 -12.125 14.683594 -11 C 15.152344 -9.875 15.386719 -8.609375 15.386719 -7.207031 C 15.386719 -5.804688 15.152344 -4.542969 14.683594 -3.429688 C 14.214844 -2.3125 13.53125 -1.429688 12.632812 -0.78125 C 11.734375 -0.136719 10.660156 0.1875 9.421875 0.1875 Z M 8.691406 -1.808594 C 10.09375 -1.808594 11.160156 -2.320312 11.890625 -3.347656 C 12.617188 -4.371094 12.984375 -5.660156 12.984375 -7.207031 C 12.984375 -8.738281 12.625 -10.015625 11.902344 -11.039062 C 11.183594 -12.066406 10.113281 -12.578125 8.691406 -12.578125 C 7.289062 -12.578125 6.222656 -12.066406 5.492188 -11.039062 C 4.765625 -10.015625 4.398438 -8.738281 4.398438 -7.207031 C 4.398438 -5.675781 4.769531 -4.394531 5.507812 -3.359375 C 6.246094 -2.324219 7.304688 -1.808594 8.691406 -1.808594 Z M 8.691406 -1.808594 "/></g></g></g><g fill="#202020" fill-opacity="1"><g transform="translate(677.304448, 690.919209)"><g><path d="M 8.015625 0.1875 C 6.558594 0.1875 5.332031 -0.160156 4.332031 -0.863281 C 3.332031 -1.566406 2.589844 -2.484375 2.105469 -3.617188 C 1.621094 -4.75 1.375 -5.949219 1.375 -7.207031 C 1.375 -8.484375 1.621094 -9.6875 2.105469 -10.808594 C 2.589844 -11.933594 3.339844 -12.847656 4.347656 -13.550781 C 5.351562 -14.253906 6.585938 -14.601562 8.042969 -14.601562 C 9.953125 -14.601562 11.476562 -13.964844 12.617188 -12.6875 C 13.761719 -11.410156 14.332031 -9.574219 14.332031 -7.179688 L 14.332031 -6.53125 L 3.699219 -6.53125 L 3.699219 -6.34375 C 3.699219 -5.550781 3.878906 -4.804688 4.238281 -4.101562 C 4.597656 -3.402344 5.101562 -2.835938 5.75 -2.402344 C 6.398438 -1.96875 7.144531 -1.753906 7.988281 -1.753906 C 8.90625 -1.753906 9.699219 -1.988281 10.363281 -2.457031 C 11.03125 -2.925781 11.527344 -3.554688 11.851562 -4.347656 L 14.144531 -4.347656 C 13.765625 -3.050781 13.058594 -1.96875 12.023438 -1.105469 C 10.992188 -0.242188 9.65625 0.1875 8.015625 0.1875 Z M 12.039062 -8.179688 C 11.964844 -9.796875 11.570312 -10.96875 10.851562 -11.6875 C 10.132812 -12.40625 9.1875 -12.765625 8.015625 -12.765625 C 6.738281 -12.765625 5.722656 -12.34375 4.964844 -11.5 C 4.210938 -10.652344 3.804688 -9.546875 3.753906 -8.179688 Z M 12.039062 -8.179688 "/></g></g></g><g fill="#202020" fill-opacity="1"><g transform="translate(693.038563, 690.919209)"><g><path d="M 7.234375 0.1875 C 5.972656 0.1875 4.898438 -0.136719 4.007812 -0.78125 C 3.117188 -1.429688 2.4375 -2.3125 1.96875 -3.429688 C 1.503906 -4.542969 1.269531 -5.804688 1.269531 -7.207031 C 1.269531 -8.609375 1.507812 -9.875 1.984375 -11 C 2.460938 -12.125 3.152344 -13.007812 4.0625 -13.644531 C 4.972656 -14.285156 6.054688 -14.601562 7.316406 -14.601562 C 8.574219 -14.601562 9.589844 -14.304688 10.363281 -13.710938 C 11.140625 -13.117188 11.722656 -12.40625 12.121094 -11.578125 L 12.308594 -11.578125 L 12.308594 -14.226562 L 14.65625 -14.226562 L 14.65625 0 L 12.308594 0 L 12.308594 -2.914062 L 12.121094 -2.914062 C 11.6875 -2.070312 11.074219 -1.339844 10.285156 -0.730469 C 9.492188 -0.117188 8.476562 0.1875 7.234375 0.1875 Z M 7.960938 -1.808594 C 9.347656 -1.808594 10.410156 -2.324219 11.148438 -3.359375 C 11.886719 -4.394531 12.253906 -5.675781 12.253906 -7.207031 C 12.253906 -8.738281 11.886719 -10.019531 11.148438 -11.054688 C 10.410156 -12.089844 9.347656 -12.605469 7.960938 -12.605469 C 6.542969 -12.605469 5.464844 -12.09375 4.738281 -11.066406 C 4.007812 -10.042969 3.644531 -8.761719 3.644531 -7.234375 C 3.644531 -5.6875 4.007812 -4.394531 4.738281 -3.359375 C 5.464844 -2.324219 6.542969 -1.808594 7.960938 -1.808594 Z M 7.960938 -1.808594 "/></g></g></g><g fill="#202020" fill-opacity="1"><g transform="translate(709.771243, 690.919209)"><g><path d="M 2.914062 5.046875 C 3.652344 4.382812 4.394531 3.445312 5.140625 2.242188 C 5.890625 1.035156 6.523438 -0.433594 7.046875 -2.160156 C 7.566406 -3.886719 7.828125 -5.765625 7.828125 -7.800781 C 7.828125 -9.835938 7.566406 -11.714844 7.046875 -13.441406 C 6.523438 -15.167969 5.890625 -16.636719 5.140625 -17.84375 C 4.394531 -19.046875 3.652344 -19.992188 2.914062 -20.675781 L 3.617188 -21.378906 C 4.679688 -20.75 5.714844 -19.820312 6.722656 -18.597656 C 7.730469 -17.375 8.566406 -15.84375 9.230469 -14.007812 C 9.898438 -12.171875 10.230469 -10.105469 10.230469 -7.800781 C 10.230469 -5.585938 9.910156 -3.578125 9.273438 -1.769531 C 8.632812 0.0390625 7.8125 1.566406 6.816406 2.808594 C 5.816406 4.050781 4.75 5.03125 3.617188 5.75 Z M 2.914062 5.046875 "/></g></g></g></svg>