<svg xmlns="http://www.w3.org/2000/svg" xmlns:xlink="http://www.w3.org/1999/xlink" width="1920" zoomAndPan="magnify" viewBox="0 0 1440 809.999993" height="1080" preserveAspectRatio="xMidYMid meet" version="1.0"><defs><g/></defs><rect x="-144" width="1728" fill="#ffffff" y="-80.999999" height="971.999992" fill-opacity="1"/><rect x="-144" width="1728" fill="#faf4eb" y="-80.999999" height="971.999992" fill-opacity="1"/><path fill="#2d3e70" d="M 0 729 L 1439.964844 729 L 1439.964844 810 L 0 810 Z M 0 729 " fill-opacity="1" fill-rule="nonzero"/><g fill="#2d3e70" fill-opacity="1"><g transform="translate(244.019529, 390.937822)"><g><path d="M 3.640625 -64.117188 L 1.398438 -64.257812 L 6.859375 -90.714844 L 79.65625 -90.714844 L 85.535156 -64.257812 L 83.15625 -64.117188 C 81.105469 -68.597656 78.816406 -72.679688 76.296875 -76.367188 C 73.777344 -80.054688 70.699219 -82.992188 67.058594 -85.1875 C 63.417969 -87.378906 58.9375 -88.476562 53.617188 -88.476562 L 49.839844 -88.476562 L 49.839844 -9.941406 C 49.839844 -7.234375 50.632812 -5.320312 52.21875 -4.199219 C 53.804688 -3.078125 55.671875 -2.425781 57.816406 -2.238281 L 57.816406 0 L 27.300781 0 L 27.300781 -2.238281 C 29.445312 -2.425781 31.335938 -3.078125 32.96875 -4.199219 C 34.601562 -5.320312 35.417969 -7.234375 35.417969 -9.941406 L 35.417969 -88.476562 L 31.5 -88.476562 C 26.367188 -88.476562 22.097656 -87.332031 18.6875 -85.046875 C 15.28125 -82.761719 12.414062 -79.75 10.078125 -76.015625 C 7.746094 -72.285156 5.601562 -68.316406 3.640625 -64.117188 Z M 3.640625 -64.117188 "/></g></g></g><g fill="#2d3e70" fill-opacity="1"><g transform="translate(329.414754, 390.937822)"><g><path d="M 1.539062 -57.539062 L 22.679688 -64.257812 L 22.679688 -9.941406 C 22.679688 -4.992188 24.871094 -2.472656 29.257812 -2.378906 L 29.257812 0 L 1.539062 0 L 1.539062 -2.378906 C 6.019531 -2.472656 8.257812 -4.992188 8.257812 -9.941406 L 8.257812 -47.316406 C 8.257812 -52.171875 6.019531 -54.738281 1.539062 -55.019531 Z M 3.5 -81.195312 C 3.5 -83.808594 4.433594 -86.050781 6.300781 -87.917969 C 8.167969 -89.785156 10.40625 -90.714844 13.019531 -90.714844 C 15.632812 -90.714844 17.894531 -89.785156 19.808594 -87.917969 C 21.722656 -86.050781 22.679688 -83.808594 22.679688 -81.195312 C 22.679688 -78.582031 21.699219 -76.296875 19.738281 -74.335938 C 17.78125 -72.378906 15.539062 -71.398438 13.019531 -71.398438 C 10.40625 -71.398438 8.167969 -72.378906 6.300781 -74.335938 C 4.433594 -76.296875 3.5 -78.582031 3.5 -81.195312 Z M 3.5 -81.195312 "/></g></g></g><g fill="#2d3e70" fill-opacity="1"><g transform="translate(359.373073, 390.937822)"><g><path d="M 1.121094 -57.539062 L 22.257812 -64.257812 L 22.257812 -58.238281 L 23.800781 -59.636719 C 26.226562 -61.785156 28.933594 -63.371094 31.917969 -64.398438 C 34.90625 -65.425781 37.984375 -65.9375 41.160156 -65.9375 C 44.984375 -65.9375 48.648438 -65.308594 52.148438 -64.046875 C 55.648438 -62.789062 58.238281 -60.382812 59.917969 -56.839844 L 60.617188 -55.4375 L 61.597656 -56.699219 C 63.929688 -59.871094 66.871094 -62.203125 70.417969 -63.699219 C 73.964844 -65.191406 77.652344 -65.9375 81.476562 -65.9375 C 87.542969 -65.9375 92.328125 -64.46875 95.828125 -61.527344 C 99.328125 -58.589844 101.078125 -53.945312 101.078125 -47.597656 L 101.078125 -9.941406 C 101.078125 -4.992188 103.316406 -2.472656 107.796875 -2.378906 L 107.796875 0 L 80.078125 0 L 80.078125 -2.378906 C 84.464844 -2.472656 86.65625 -4.992188 86.65625 -9.941406 L 86.65625 -47.316406 C 86.65625 -49.652344 86.261719 -51.984375 85.46875 -54.316406 C 84.671875 -56.652344 83.414062 -58.589844 81.6875 -60.128906 C 79.960938 -61.667969 77.652344 -62.4375 74.757812 -62.4375 C 72.238281 -62.4375 69.996094 -61.667969 68.039062 -60.128906 C 66.078125 -58.589844 64.515625 -56.699219 63.347656 -54.457031 C 62.179688 -52.21875 61.597656 -49.929688 61.597656 -47.597656 L 61.597656 -9.941406 C 61.597656 -4.992188 63.835938 -2.472656 68.316406 -2.378906 L 68.316406 0 L 40.597656 0 L 40.597656 -2.378906 C 43.023438 -2.472656 44.726562 -3.125 45.707031 -4.339844 C 46.6875 -5.554688 47.179688 -7.417969 47.179688 -9.941406 L 47.179688 -47.316406 C 47.179688 -51.425781 46.339844 -54.972656 44.660156 -57.957031 C 42.976562 -60.945312 39.710938 -62.4375 34.859375 -62.4375 C 32.246094 -62.4375 29.980469 -61.644531 28.070312 -60.058594 C 26.15625 -58.472656 24.710938 -56.511719 23.730469 -54.179688 C 22.75 -51.84375 22.257812 -49.558594 22.257812 -47.316406 L 22.257812 -9.941406 C 22.257812 -4.992188 24.453125 -2.472656 28.839844 -2.378906 L 28.839844 0 L 1.121094 0 L 1.121094 -2.378906 C 5.601562 -2.472656 7.839844 -4.992188 7.839844 -9.941406 L 7.839844 -47.316406 C 7.839844 -52.171875 5.601562 -54.738281 1.121094 -55.019531 Z M 1.121094 -57.539062 "/></g></g></g><g fill="#2d3e70" fill-opacity="1"><g transform="translate(468.146974, 390.937822)"><g><path d="M 3.5 -32.058594 C 3.5 -38.125 4.597656 -43.726562 6.789062 -48.859375 C 8.984375 -53.992188 12.226562 -58.121094 16.519531 -61.246094 C 20.8125 -64.375 26.132812 -65.9375 32.480469 -65.9375 C 37.984375 -65.9375 42.675781 -64.699219 46.546875 -62.226562 C 50.421875 -59.753906 53.382812 -56.371094 55.4375 -52.078125 C 57.492188 -47.785156 58.519531 -42.976562 58.519531 -37.660156 L 58.519531 -37.238281 L 18.621094 -37.238281 L 18.621094 -35.277344 C 18.621094 -32.292969 18.992188 -29.210938 19.738281 -26.039062 C 20.484375 -22.867188 21.652344 -19.902344 23.238281 -17.148438 C 24.824219 -14.394531 26.902344 -12.15625 29.46875 -10.429688 C 32.035156 -8.703125 35.183594 -7.839844 38.917969 -7.839844 C 42.371094 -7.839844 45.753906 -8.65625 49.066406 -10.289062 C 52.382812 -11.921875 55.066406 -14.140625 57.117188 -16.9375 L 58.378906 -16.097656 C 55.578125 -10.6875 52.335938 -6.417969 48.648438 -3.289062 C 44.960938 -0.164062 39.804688 1.398438 33.179688 1.398438 C 26.738281 1.398438 21.324219 -0.09375 16.9375 -3.078125 C 12.554688 -6.066406 9.214844 -10.101562 6.929688 -15.191406 C 4.644531 -20.277344 3.5 -25.898438 3.5 -32.058594 Z M 18.898438 -40.457031 L 18.898438 -39.480469 L 43.539062 -39.480469 L 43.539062 -40.457031 C 43.445312 -42.136719 43.1875 -44.261719 42.769531 -46.828125 C 42.347656 -49.394531 41.695312 -51.984375 40.808594 -54.597656 C 39.921875 -57.210938 38.730469 -59.40625 37.238281 -61.179688 C 35.746094 -62.949219 33.925781 -63.835938 31.777344 -63.835938 C 29.539062 -63.835938 27.648438 -62.949219 26.109375 -61.179688 C 24.570312 -59.40625 23.285156 -57.234375 22.257812 -54.667969 C 21.234375 -52.101562 20.460938 -49.511719 19.949219 -46.898438 C 19.4375 -44.285156 19.085938 -42.136719 18.898438 -40.457031 Z M 18.898438 -40.457031 "/></g></g></g><g fill="#2d3e70" fill-opacity="1"><g transform="translate(530.303496, 390.937822)"><g/></g></g><g fill="#2d3e70" fill-opacity="1"><g transform="translate(557.461972, 390.937822)"><g><path d="M 1.261719 -90.714844 L 24.777344 -90.714844 C 27.207031 -90.714844 29.65625 -90.738281 32.128906 -90.785156 C 34.601562 -90.832031 37.144531 -90.808594 39.757812 -90.714844 C 42.183594 -90.625 44.660156 -90.484375 47.179688 -90.296875 C 49.699219 -90.109375 52.125 -89.785156 54.457031 -89.316406 C 61.738281 -87.824219 67.5 -84.882812 71.746094 -80.496094 C 75.992188 -76.109375 79.027344 -70.789062 80.847656 -64.539062 C 82.667969 -58.285156 83.578125 -51.613281 83.578125 -44.519531 C 83.578125 -37.519531 82.597656 -30.9375 80.636719 -24.777344 C 78.675781 -18.621094 75.503906 -13.417969 71.117188 -9.167969 C 66.730469 -4.921875 60.851562 -2.238281 53.476562 -1.121094 C 48.90625 -0.464844 44.121094 -0.117188 39.128906 -0.0703125 C 34.136719 -0.0234375 29.351562 0 24.777344 0 L 1.261719 0 L 1.261719 -2.238281 C 3.40625 -2.425781 5.296875 -3.078125 6.929688 -4.199219 C 8.5625 -5.320312 9.378906 -7.234375 9.378906 -9.941406 L 9.378906 -80.777344 C 9.378906 -83.484375 8.5625 -85.421875 6.929688 -86.585938 C 5.296875 -87.753906 3.40625 -88.382812 1.261719 -88.476562 Z M 23.800781 -2.238281 L 24.777344 -2.238281 C 28.980469 -2.238281 33.320312 -2.496094 37.796875 -3.011719 C 42.277344 -3.523438 46.476562 -4.804688 50.398438 -6.859375 C 55.15625 -9.378906 58.820312 -12.808594 61.386719 -17.148438 C 63.953125 -21.488281 65.75 -26.226562 66.777344 -31.359375 C 67.804688 -36.492188 68.316406 -41.4375 68.316406 -46.199219 C 68.316406 -49.464844 68.015625 -53.128906 67.40625 -57.1875 C 66.800781 -61.246094 65.773438 -65.285156 64.328125 -69.296875 C 62.882812 -73.3125 60.921875 -76.855469 58.449219 -79.9375 C 55.976562 -83.015625 52.871094 -85.164062 49.136719 -86.375 C 47.085938 -87.125 44.566406 -87.636719 41.578125 -87.917969 C 38.59375 -88.195312 35.605469 -88.382812 32.617188 -88.476562 C 29.632812 -88.570312 27.019531 -88.617188 24.777344 -88.617188 L 23.800781 -88.617188 Z M 23.800781 -2.238281 "/></g></g></g><g fill="#2d3e70" fill-opacity="1"><g transform="translate(643.557152, 390.937822)"><g><path d="M 3.5 -32.058594 C 3.5 -38.125 4.597656 -43.726562 6.789062 -48.859375 C 8.984375 -53.992188 12.226562 -58.121094 16.519531 -61.246094 C 20.8125 -64.375 26.132812 -65.9375 32.480469 -65.9375 C 37.984375 -65.9375 42.675781 -64.699219 46.546875 -62.226562 C 50.421875 -59.753906 53.382812 -56.371094 55.4375 -52.078125 C 57.492188 -47.785156 58.519531 -42.976562 58.519531 -37.660156 L 58.519531 -37.238281 L 18.621094 -37.238281 L 18.621094 -35.277344 C 18.621094 -32.292969 18.992188 -29.210938 19.738281 -26.039062 C 20.484375 -22.867188 21.652344 -19.902344 23.238281 -17.148438 C 24.824219 -14.394531 26.902344 -12.15625 29.46875 -10.429688 C 32.035156 -8.703125 35.183594 -7.839844 38.917969 -7.839844 C 42.371094 -7.839844 45.753906 -8.65625 49.066406 -10.289062 C 52.382812 -11.921875 55.066406 -14.140625 57.117188 -16.9375 L 58.378906 -16.097656 C 55.578125 -10.6875 52.335938 -6.417969 48.648438 -3.289062 C 44.960938 -0.164062 39.804688 1.398438 33.179688 1.398438 C 26.738281 1.398438 21.324219 -0.09375 16.9375 -3.078125 C 12.554688 -6.066406 9.214844 -10.101562 6.929688 -15.191406 C 4.644531 -20.277344 3.5 -25.898438 3.5 -32.058594 Z M 18.898438 -40.457031 L 18.898438 -39.480469 L 43.539062 -39.480469 L 43.539062 -40.457031 C 43.445312 -42.136719 43.1875 -44.261719 42.769531 -46.828125 C 42.347656 -49.394531 41.695312 -51.984375 40.808594 -54.597656 C 39.921875 -57.210938 38.730469 -59.40625 37.238281 -61.179688 C 35.746094 -62.949219 33.925781 -63.835938 31.777344 -63.835938 C 29.539062 -63.835938 27.648438 -62.949219 26.109375 -61.179688 C 24.570312 -59.40625 23.285156 -57.234375 22.257812 -54.667969 C 21.234375 -52.101562 20.460938 -49.511719 19.949219 -46.898438 C 19.4375 -44.285156 19.085938 -42.136719 18.898438 -40.457031 Z M 18.898438 -40.457031 "/></g></g></g><g fill="#2d3e70" fill-opacity="1"><g transform="translate(705.713674, 390.937822)"><g><path d="M 0.980469 -90.996094 L 22.121094 -97.578125 L 22.121094 -9.941406 C 22.121094 -4.992188 24.3125 -2.472656 28.699219 -2.378906 L 28.699219 0 L 0.980469 0 L 0.980469 -2.378906 C 5.460938 -2.472656 7.699219 -4.992188 7.699219 -9.941406 L 7.699219 -80.777344 C 7.699219 -85.628906 5.460938 -88.195312 0.980469 -88.476562 Z M 0.980469 -90.996094 "/></g></g></g><g fill="#2d3e70" fill-opacity="1"><g transform="translate(735.392002, 390.937822)"><g><path d="M 24.078125 1.261719 C 20.160156 1.261719 16.566406 0.558594 13.300781 -0.839844 C 10.03125 -2.238281 7.394531 -4.363281 5.390625 -7.210938 C 3.382812 -10.054688 2.378906 -13.53125 2.378906 -17.640625 C 2.378906 -22.492188 3.5 -26.574219 5.738281 -29.890625 C 7.980469 -33.203125 11.011719 -35.722656 14.839844 -37.449219 C 18.664062 -39.175781 22.867188 -40.039062 27.4375 -40.039062 C 29.117188 -40.039062 30.777344 -39.921875 32.410156 -39.6875 C 34.042969 -39.457031 35.605469 -39.011719 37.097656 -38.359375 L 38.5 -37.796875 L 38.5 -48.019531 C 38.5 -49.417969 38.453125 -51.097656 38.359375 -53.058594 C 38.265625 -55.019531 37.984375 -56.605469 37.519531 -57.816406 C 37.050781 -59.496094 36.234375 -60.921875 35.070312 -62.085938 C 33.902344 -63.253906 32.199219 -63.835938 29.957031 -63.835938 C 27.160156 -63.835938 25.058594 -63.042969 23.660156 -61.457031 C 22.257812 -59.871094 21.347656 -57.957031 20.929688 -55.71875 C 20.507812 -53.476562 20.300781 -51.378906 20.300781 -49.417969 C 20.300781 -47.925781 19.484375 -46.804688 17.847656 -46.058594 C 16.214844 -45.3125 14.558594 -44.9375 12.878906 -44.9375 C 11.292969 -44.9375 9.730469 -45.289062 8.191406 -45.988281 C 6.648438 -46.6875 5.878906 -47.785156 5.878906 -49.277344 C 5.878906 -53.476562 7.140625 -56.792969 9.660156 -59.21875 C 12.179688 -61.644531 15.328125 -63.371094 19.109375 -64.398438 C 22.890625 -65.425781 26.597656 -65.9375 30.238281 -65.9375 C 37.050781 -65.9375 42.535156 -64.351562 46.6875 -61.179688 C 50.839844 -58.003906 52.917969 -52.917969 52.917969 -45.917969 L 52.917969 -10.5 C 52.917969 -10.21875 52.917969 -9.964844 52.917969 -9.730469 C 52.917969 -9.496094 52.917969 -9.238281 52.917969 -8.960938 C 52.917969 -8.679688 52.941406 -8.375 52.988281 -8.050781 C 53.035156 -7.722656 53.105469 -7.417969 53.199219 -7.140625 C 53.382812 -6.578125 53.6875 -6.042969 54.109375 -5.53125 C 54.527344 -5.015625 55.203125 -4.761719 56.136719 -4.761719 C 57.164062 -4.761719 58.144531 -5.085938 59.078125 -5.738281 L 60.199219 -4.339844 C 58.703125 -2.566406 56.90625 -1.285156 54.808594 -0.488281 C 52.707031 0.304688 50.445312 0.699219 48.019531 0.699219 C 46.246094 0.699219 44.636719 0.328125 43.1875 -0.421875 C 41.742188 -1.167969 40.597656 -2.285156 39.757812 -3.78125 L 39.199219 -4.898438 L 38.21875 -4.058594 C 36.351562 -2.101562 34.207031 -0.722656 31.777344 0.0703125 C 29.351562 0.863281 26.785156 1.261719 24.078125 1.261719 Z M 17.5 -17.078125 C 17.5 -14.933594 17.78125 -12.644531 18.339844 -10.21875 C 18.898438 -7.792969 19.949219 -5.738281 21.488281 -4.058594 C 23.027344 -2.378906 25.292969 -1.539062 28.277344 -1.539062 C 29.679688 -1.539062 31.171875 -1.890625 32.757812 -2.589844 C 34.34375 -3.289062 35.699219 -4.292969 36.820312 -5.601562 C 37.9375 -6.90625 38.5 -8.398438 38.5 -10.078125 L 38.5 -35.839844 L 37.796875 -36.117188 C 37.144531 -36.398438 36.421875 -36.585938 35.628906 -36.679688 C 34.835938 -36.773438 34.066406 -36.820312 33.320312 -36.820312 C 29.492188 -36.820312 26.414062 -35.863281 24.078125 -33.949219 C 21.746094 -32.035156 20.066406 -29.5625 19.039062 -26.527344 C 18.011719 -23.496094 17.5 -20.347656 17.5 -17.078125 Z M 17.5 -17.078125 "/></g></g></g><g fill="#2d3e70" fill-opacity="1"><g transform="translate(796.848603, 390.937822)"><g><path d="M 11.757812 32.058594 C 8.304688 32.058594 5.25 30.960938 2.589844 28.769531 C -0.0703125 26.574219 -1.398438 23.660156 -1.398438 20.019531 C -1.398438 17.964844 -0.675781 16.285156 0.769531 14.980469 C 2.214844 13.671875 3.917969 13.019531 5.878906 13.019531 C 8.027344 13.019531 9.636719 13.671875 10.710938 14.980469 C 11.78125 16.285156 12.507812 18.011719 12.878906 20.160156 C 12.972656 20.71875 13.089844 21.324219 13.230469 21.980469 C 13.371094 22.632812 13.625 23.238281 14 23.800781 C 14.28125 24.453125 14.699219 25.011719 15.257812 25.480469 C 15.820312 25.945312 16.566406 26.179688 17.5 26.179688 C 19.367188 26.179688 21.140625 25.175781 22.820312 23.167969 C 24.5 21.164062 25.945312 19.039062 27.160156 16.800781 C 28.558594 14.371094 29.796875 11.96875 30.867188 9.589844 C 31.941406 7.210938 32.757812 5.460938 33.320312 4.339844 L 33.457031 3.917969 L 11.058594 -52.359375 C 10.21875 -54.316406 8.75 -56.464844 6.648438 -58.796875 C 4.550781 -61.132812 2.238281 -62.484375 -0.28125 -62.859375 L -0.28125 -65.097656 L 28.417969 -65.097656 L 28.417969 -62.859375 C 27.484375 -62.671875 26.667969 -62.25 25.96875 -61.597656 C 25.269531 -60.945312 24.917969 -59.964844 24.917969 -58.65625 C 24.917969 -57.910156 25.058594 -57.164062 25.339844 -56.417969 C 25.433594 -56.230469 25.550781 -55.996094 25.6875 -55.71875 C 25.828125 -55.4375 25.945312 -55.113281 26.039062 -54.738281 L 42.136719 -13.859375 L 58.796875 -50.679688 C 59.359375 -51.984375 59.636719 -53.339844 59.636719 -54.738281 C 59.636719 -56.976562 59.007812 -58.65625 57.746094 -59.777344 C 56.488281 -60.898438 54.996094 -61.691406 53.269531 -62.15625 C 51.542969 -62.625 49.929688 -62.859375 48.4375 -62.859375 L 48.4375 -65.097656 L 73.21875 -65.097656 L 73.21875 -62.71875 C 71.628906 -62.4375 70.066406 -61.621094 68.527344 -60.269531 C 66.988281 -58.914062 65.65625 -57.445312 64.539062 -55.859375 C 63.417969 -54.269531 62.578125 -52.871094 62.019531 -51.65625 L 37.519531 0.558594 C 36.492188 2.707031 35.464844 4.898438 34.4375 7.140625 C 33.414062 9.378906 32.386719 11.621094 31.359375 13.859375 C 30.050781 16.378906 28.511719 19.0625 26.738281 21.910156 C 24.964844 24.753906 22.84375 27.160156 20.371094 29.117188 C 17.894531 31.078125 15.027344 32.058594 11.757812 32.058594 Z M 11.757812 32.058594 "/></g></g></g><g fill="#2d3e70" fill-opacity="1"><g transform="translate(868.244626, 390.937822)"><g/></g></g><g fill="#2d3e70" fill-opacity="1"><g transform="translate(895.403102, 390.937822)"><g><path d="M 1.960938 -88.476562 L 1.960938 -90.714844 C 7.464844 -90.714844 12.902344 -90.738281 18.269531 -90.785156 C 23.636719 -90.832031 29.027344 -90.855469 34.4375 -90.855469 C 37.707031 -90.855469 40.949219 -90.785156 44.167969 -90.648438 C 47.386719 -90.507812 50.492188 -90.015625 53.476562 -89.175781 C 58.703125 -87.777344 62.765625 -85.117188 65.65625 -81.195312 C 68.550781 -77.277344 69.996094 -72.609375 69.996094 -67.199219 C 69.996094 -61.785156 68.714844 -57.351562 66.148438 -53.898438 C 63.582031 -50.445312 60.175781 -47.925781 55.929688 -46.339844 C 51.679688 -44.75 47.039062 -43.957031 42 -43.957031 C 46.199219 -43.773438 49.628906 -42.558594 52.289062 -40.320312 C 54.949219 -38.078125 57.09375 -35.347656 58.726562 -32.128906 C 60.359375 -28.910156 61.785156 -25.710938 62.996094 -22.539062 C 63.464844 -21.324219 63.90625 -20.136719 64.328125 -18.96875 C 64.746094 -17.800781 65.144531 -16.660156 65.519531 -15.539062 C 65.984375 -14.417969 66.449219 -13.324219 66.917969 -12.25 C 67.382812 -11.175781 67.851562 -10.171875 68.316406 -9.238281 C 69.34375 -7.464844 70.511719 -5.972656 71.816406 -4.761719 C 73.125 -3.546875 74.757812 -2.753906 76.71875 -2.378906 L 76.71875 0 L 61.738281 0 C 58.378906 0 55.789062 -1.492188 53.96875 -4.480469 C 52.148438 -7.464844 50.539062 -11.199219 49.136719 -15.679688 C 48.484375 -17.824219 47.808594 -20.066406 47.109375 -22.398438 C 46.410156 -24.734375 45.636719 -26.972656 44.796875 -29.117188 C 43.023438 -33.691406 40.832031 -37.191406 38.21875 -39.617188 C 35.605469 -42.046875 31.683594 -43.257812 26.460938 -43.257812 L 24.5 -43.257812 L 24.5 -9.941406 C 24.5 -5.085938 26.691406 -2.519531 31.078125 -2.238281 L 31.078125 0 L 1.960938 0 L 1.960938 -2.378906 C 4.105469 -2.472656 5.996094 -3.078125 7.628906 -4.199219 C 9.261719 -5.320312 10.078125 -7.234375 10.078125 -9.941406 L 10.078125 -80.777344 C 10.078125 -83.484375 9.261719 -85.421875 7.628906 -86.585938 C 5.996094 -87.753906 4.105469 -88.382812 1.960938 -88.476562 Z M 25.480469 -88.757812 L 24.5 -88.757812 L 24.5 -45.636719 L 25.480469 -45.636719 C 26.785156 -45.636719 28.230469 -45.636719 29.820312 -45.636719 C 31.40625 -45.636719 33.039062 -45.683594 34.71875 -45.777344 C 36.398438 -45.964844 38.054688 -46.175781 39.6875 -46.410156 C 41.320312 -46.640625 42.746094 -46.992188 43.957031 -47.457031 C 47.878906 -49.042969 50.679688 -51.773438 52.359375 -55.648438 C 54.039062 -59.519531 54.878906 -63.371094 54.878906 -67.199219 C 54.878906 -71.023438 54.039062 -74.851562 52.359375 -78.675781 C 50.679688 -82.503906 47.878906 -85.210938 43.957031 -86.796875 C 42.746094 -87.261719 41.320312 -87.636719 39.6875 -87.917969 C 38.054688 -88.195312 36.398438 -88.382812 34.71875 -88.476562 C 33.039062 -88.664062 31.40625 -88.757812 29.820312 -88.757812 C 28.230469 -88.757812 26.785156 -88.757812 25.480469 -88.757812 Z M 25.480469 -88.757812 "/></g></g></g><g fill="#2d3e70" fill-opacity="1"><g transform="translate(971.278847, 390.937822)"><g><path d="M 3.5 -32.058594 C 3.5 -38.125 4.597656 -43.726562 6.789062 -48.859375 C 8.984375 -53.992188 12.226562 -58.121094 16.519531 -61.246094 C 20.8125 -64.375 26.132812 -65.9375 32.480469 -65.9375 C 37.984375 -65.9375 42.675781 -64.699219 46.546875 -62.226562 C 50.421875 -59.753906 53.382812 -56.371094 55.4375 -52.078125 C 57.492188 -47.785156 58.519531 -42.976562 58.519531 -37.660156 L 58.519531 -37.238281 L 18.621094 -37.238281 L 18.621094 -35.277344 C 18.621094 -32.292969 18.992188 -29.210938 19.738281 -26.039062 C 20.484375 -22.867188 21.652344 -19.902344 23.238281 -17.148438 C 24.824219 -14.394531 26.902344 -12.15625 29.46875 -10.429688 C 32.035156 -8.703125 35.183594 -7.839844 38.917969 -7.839844 C 42.371094 -7.839844 45.753906 -8.65625 49.066406 -10.289062 C 52.382812 -11.921875 55.066406 -14.140625 57.117188 -16.9375 L 58.378906 -16.097656 C 55.578125 -10.6875 52.335938 -6.417969 48.648438 -3.289062 C 44.960938 -0.164062 39.804688 1.398438 33.179688 1.398438 C 26.738281 1.398438 21.324219 -0.09375 16.9375 -3.078125 C 12.554688 -6.066406 9.214844 -10.101562 6.929688 -15.191406 C 4.644531 -20.277344 3.5 -25.898438 3.5 -32.058594 Z M 18.898438 -40.457031 L 18.898438 -39.480469 L 43.539062 -39.480469 L 43.539062 -40.457031 C 43.445312 -42.136719 43.1875 -44.261719 42.769531 -46.828125 C 42.347656 -49.394531 41.695312 -51.984375 40.808594 -54.597656 C 39.921875 -57.210938 38.730469 -59.40625 37.238281 -61.179688 C 35.746094 -62.949219 33.925781 -63.835938 31.777344 -63.835938 C 29.539062 -63.835938 27.648438 -62.949219 26.109375 -61.179688 C 24.570312 -59.40625 23.285156 -57.234375 22.257812 -54.667969 C 21.234375 -52.101562 20.460938 -49.511719 19.949219 -46.898438 C 19.4375 -44.285156 19.085938 -42.136719 18.898438 -40.457031 Z M 18.898438 -40.457031 "/></g></g></g><g fill="#2d3e70" fill-opacity="1"><g transform="translate(1033.435322, 390.937822)"><g><path d="M 0.980469 -90.996094 L 22.121094 -97.578125 L 22.121094 -9.941406 C 22.121094 -4.992188 24.3125 -2.472656 28.699219 -2.378906 L 28.699219 0 L 0.980469 0 L 0.980469 -2.378906 C 5.460938 -2.472656 7.699219 -4.992188 7.699219 -9.941406 L 7.699219 -80.777344 C 7.699219 -85.628906 5.460938 -88.195312 0.980469 -88.476562 Z M 0.980469 -90.996094 "/></g></g></g><g fill="#2d3e70" fill-opacity="1"><g transform="translate(1063.113696, 390.937822)"><g><path d="M 24.078125 1.261719 C 20.160156 1.261719 16.566406 0.558594 13.300781 -0.839844 C 10.03125 -2.238281 7.394531 -4.363281 5.390625 -7.210938 C 3.382812 -10.054688 2.378906 -13.53125 2.378906 -17.640625 C 2.378906 -22.492188 3.5 -26.574219 5.738281 -29.890625 C 7.980469 -33.203125 11.011719 -35.722656 14.839844 -37.449219 C 18.664062 -39.175781 22.867188 -40.039062 27.4375 -40.039062 C 29.117188 -40.039062 30.777344 -39.921875 32.410156 -39.6875 C 34.042969 -39.457031 35.605469 -39.011719 37.097656 -38.359375 L 38.5 -37.796875 L 38.5 -48.019531 C 38.5 -49.417969 38.453125 -51.097656 38.359375 -53.058594 C 38.265625 -55.019531 37.984375 -56.605469 37.519531 -57.816406 C 37.050781 -59.496094 36.234375 -60.921875 35.070312 -62.085938 C 33.902344 -63.253906 32.199219 -63.835938 29.957031 -63.835938 C 27.160156 -63.835938 25.058594 -63.042969 23.660156 -61.457031 C 22.257812 -59.871094 21.347656 -57.957031 20.929688 -55.71875 C 20.507812 -53.476562 20.300781 -51.378906 20.300781 -49.417969 C 20.300781 -47.925781 19.484375 -46.804688 17.847656 -46.058594 C 16.214844 -45.3125 14.558594 -44.9375 12.878906 -44.9375 C 11.292969 -44.9375 9.730469 -45.289062 8.191406 -45.988281 C 6.648438 -46.6875 5.878906 -47.785156 5.878906 -49.277344 C 5.878906 -53.476562 7.140625 -56.792969 9.660156 -59.21875 C 12.179688 -61.644531 15.328125 -63.371094 19.109375 -64.398438 C 22.890625 -65.425781 26.597656 -65.9375 30.238281 -65.9375 C 37.050781 -65.9375 42.535156 -64.351562 46.6875 -61.179688 C 50.839844 -58.003906 52.917969 -52.917969 52.917969 -45.917969 L 52.917969 -10.5 C 52.917969 -10.21875 52.917969 -9.964844 52.917969 -9.730469 C 52.917969 -9.496094 52.917969 -9.238281 52.917969 -8.960938 C 52.917969 -8.679688 52.941406 -8.375 52.988281 -8.050781 C 53.035156 -7.722656 53.105469 -7.417969 53.199219 -7.140625 C 53.382812 -6.578125 53.6875 -6.042969 54.109375 -5.53125 C 54.527344 -5.015625 55.203125 -4.761719 56.136719 -4.761719 C 57.164062 -4.761719 58.144531 -5.085938 59.078125 -5.738281 L 60.199219 -4.339844 C 58.703125 -2.566406 56.90625 -1.285156 54.808594 -0.488281 C 52.707031 0.304688 50.445312 0.699219 48.019531 0.699219 C 46.246094 0.699219 44.636719 0.328125 43.1875 -0.421875 C 41.742188 -1.167969 40.597656 -2.285156 39.757812 -3.78125 L 39.199219 -4.898438 L 38.21875 -4.058594 C 36.351562 -2.101562 34.207031 -0.722656 31.777344 0.0703125 C 29.351562 0.863281 26.785156 1.261719 24.078125 1.261719 Z M 17.5 -17.078125 C 17.5 -14.933594 17.78125 -12.644531 18.339844 -10.21875 C 18.898438 -7.792969 19.949219 -5.738281 21.488281 -4.058594 C 23.027344 -2.378906 25.292969 -1.539062 28.277344 -1.539062 C 29.679688 -1.539062 31.171875 -1.890625 32.757812 -2.589844 C 34.34375 -3.289062 35.699219 -4.292969 36.820312 -5.601562 C 37.9375 -6.90625 38.5 -8.398438 38.5 -10.078125 L 38.5 -35.839844 L 37.796875 -36.117188 C 37.144531 -36.398438 36.421875 -36.585938 35.628906 -36.679688 C 34.835938 -36.773438 34.066406 -36.820312 33.320312 -36.820312 C 29.492188 -36.820312 26.414062 -35.863281 24.078125 -33.949219 C 21.746094 -32.035156 20.066406 -29.5625 19.039062 -26.527344 C 18.011719 -23.496094 17.5 -20.347656 17.5 -17.078125 Z M 17.5 -17.078125 "/></g></g></g><g fill="#2d3e70" fill-opacity="1"><g transform="translate(1124.570297, 390.937822)"><g><path d="M 11.757812 32.058594 C 8.304688 32.058594 5.25 30.960938 2.589844 28.769531 C -0.0703125 26.574219 -1.398438 23.660156 -1.398438 20.019531 C -1.398438 17.964844 -0.675781 16.285156 0.769531 14.980469 C 2.214844 13.671875 3.917969 13.019531 5.878906 13.019531 C 8.027344 13.019531 9.636719 13.671875 10.710938 14.980469 C 11.78125 16.285156 12.507812 18.011719 12.878906 20.160156 C 12.972656 20.71875 13.089844 21.324219 13.230469 21.980469 C 13.371094 22.632812 13.625 23.238281 14 23.800781 C 14.28125 24.453125 14.699219 25.011719 15.257812 25.480469 C 15.820312 25.945312 16.566406 26.179688 17.5 26.179688 C 19.367188 26.179688 21.140625 25.175781 22.820312 23.167969 C 24.5 21.164062 25.945312 19.039062 27.160156 16.800781 C 28.558594 14.371094 29.796875 11.96875 30.867188 9.589844 C 31.941406 7.210938 32.757812 5.460938 33.320312 4.339844 L 33.457031 3.917969 L 11.058594 -52.359375 C 10.21875 -54.316406 8.75 -56.464844 6.648438 -58.796875 C 4.550781 -61.132812 2.238281 -62.484375 -0.28125 -62.859375 L -0.28125 -65.097656 L 28.417969 -65.097656 L 28.417969 -62.859375 C 27.484375 -62.671875 26.667969 -62.25 25.96875 -61.597656 C 25.269531 -60.945312 24.917969 -59.964844 24.917969 -58.65625 C 24.917969 -57.910156 25.058594 -57.164062 25.339844 -56.417969 C 25.433594 -56.230469 25.550781 -55.996094 25.6875 -55.71875 C 25.828125 -55.4375 25.945312 -55.113281 26.039062 -54.738281 L 42.136719 -13.859375 L 58.796875 -50.679688 C 59.359375 -51.984375 59.636719 -53.339844 59.636719 -54.738281 C 59.636719 -56.976562 59.007812 -58.65625 57.746094 -59.777344 C 56.488281 -60.898438 54.996094 -61.691406 53.269531 -62.15625 C 51.542969 -62.625 49.929688 -62.859375 48.4375 -62.859375 L 48.4375 -65.097656 L 73.21875 -65.097656 L 73.21875 -62.71875 C 71.628906 -62.4375 70.066406 -61.621094 68.527344 -60.269531 C 66.988281 -58.914062 65.65625 -57.445312 64.539062 -55.859375 C 63.417969 -54.269531 62.578125 -52.871094 62.019531 -51.65625 L 37.519531 0.558594 C 36.492188 2.707031 35.464844 4.898438 34.4375 7.140625 C 33.414062 9.378906 32.386719 11.621094 31.359375 13.859375 C 30.050781 16.378906 28.511719 19.0625 26.738281 21.910156 C 24.964844 24.753906 22.84375 27.160156 20.371094 29.117188 C 17.894531 31.078125 15.027344 32.058594 11.757812 32.058594 Z M 11.757812 32.058594 "/></g></g></g><g fill="#ffffff" fill-opacity="1"><g transform="translate(81.000002, 777.374981)"><g><path d="M 5.148438 -5.023438 L 2.898438 -5.023438 L 2.898438 0 L 1.351562 0 L 1.351562 -12.601562 L 5.632812 -12.601562 C 6.652344 -12.601562 7.492188 -12.414062 8.144531 -12.042969 C 8.800781 -11.671875 9.269531 -11.195312 9.558594 -10.621094 C 9.847656 -10.042969 9.988281 -9.4375 9.988281 -8.800781 C 9.988281 -7.925781 9.730469 -7.140625 9.207031 -6.445312 C 8.683594 -5.746094 7.871094 -5.304688 6.769531 -5.113281 L 10.097656 0 L 8.386719 0 Z M 2.898438 -6.355469 L 5.4375 -6.355469 C 6.289062 -6.355469 7.007812 -6.539062 7.597656 -6.910156 C 8.183594 -7.285156 8.476562 -7.914062 8.476562 -8.800781 C 8.476562 -9.679688 8.183594 -10.296875 7.597656 -10.65625 C 7.007812 -11.015625 6.289062 -11.195312 5.4375 -11.195312 L 2.898438 -11.195312 Z M 2.898438 -6.355469 "/></g></g></g><g fill="#ffffff" fill-opacity="1"><g transform="translate(91.88997, 777.374981)"><g><path d="M 4.714844 0.0195312 L 4.714844 -4.554688 L 0.613281 -12.601562 L 2.304688 -12.601562 L 5.4375 -6.300781 L 5.5625 -6.300781 L 8.675781 -12.601562 L 10.367188 -12.601562 L 6.28125 -4.554688 L 6.28125 0 Z M 4.714844 0.0195312 "/></g></g></g><g fill="#ffffff" fill-opacity="1"><g transform="translate(102.941941, 777.374981)"><g><path d="M 8.695312 -3.671875 L 3.5625 -3.671875 L 2.230469 0 L 0.648438 0 L 5.382812 -12.601562 L 6.859375 -12.601562 L 11.628906 0 L 10.042969 0 Z M 8.242188 -4.914062 L 6.136719 -10.621094 L 6.066406 -10.621094 L 4.015625 -4.914062 Z M 8.242188 -4.914062 "/></g></g></g><g fill="#ffffff" fill-opacity="1"><g transform="translate(115.1819, 777.374981)"><g><path d="M 1.351562 -12.601562 L 3.097656 -12.601562 L 9.847656 -2.484375 L 9.917969 -2.484375 L 9.917969 -12.601562 L 11.449219 -12.601562 L 11.449219 0 L 9.683594 0 L 2.953125 -9.972656 L 2.878906 -9.972656 L 2.878906 0 L 1.351562 0 Z M 1.351562 -12.601562 "/></g></g></g><g fill="#ffffff" fill-opacity="1"><g transform="translate(127.979862, 777.374981)"><g/></g></g><g fill="#ffffff" fill-opacity="1"><g transform="translate(132.119854, 777.374981)"><g><path d="M 1.402344 -12.601562 L 2.96875 -12.601562 L 2.96875 0 L 1.402344 0 Z M 1.402344 -12.601562 "/></g></g></g><g fill="#ffffff" fill-opacity="1"><g transform="translate(136.493843, 777.374981)"><g><path d="M 1.351562 -12.601562 L 6.390625 -12.601562 C 7.230469 -12.601562 7.917969 -12.4375 8.449219 -12.113281 C 8.984375 -11.789062 9.367188 -11.386719 9.59375 -10.898438 C 9.820312 -10.414062 9.9375 -9.910156 9.9375 -9.394531 C 9.9375 -8.855469 9.820312 -8.386719 9.59375 -7.992188 C 9.367188 -7.597656 9.089844 -7.289062 8.765625 -7.074219 C 8.441406 -6.859375 8.136719 -6.71875 7.847656 -6.660156 L 7.847656 -6.550781 C 8.160156 -6.527344 8.523438 -6.417969 8.9375 -6.21875 C 9.351562 -6.019531 9.71875 -5.703125 10.035156 -5.265625 C 10.351562 -4.828125 10.511719 -4.273438 10.511719 -3.601562 C 10.511719 -3 10.378906 -2.425781 10.105469 -1.882812 C 9.835938 -1.335938 9.414062 -0.886719 8.839844 -0.53125 C 8.261719 -0.175781 7.542969 0 6.679688 0 L 1.351562 0 Z M 5.941406 -7.074219 C 6.625 -7.074219 7.210938 -7.25 7.703125 -7.605469 C 8.195312 -7.960938 8.441406 -8.507812 8.441406 -9.253906 C 8.441406 -9.960938 8.203125 -10.476562 7.730469 -10.800781 C 7.257812 -11.125 6.660156 -11.285156 5.941406 -11.285156 L 2.863281 -11.285156 L 2.863281 -7.074219 Z M 6.28125 -1.3125 C 7.0625 -1.3125 7.710938 -1.492188 8.226562 -1.855469 C 8.742188 -2.214844 9 -2.800781 9 -3.617188 C 9 -4.421875 8.742188 -4.996094 8.226562 -5.335938 C 7.710938 -5.679688 7.0625 -5.851562 6.28125 -5.851562 L 2.863281 -5.851562 L 2.863281 -1.3125 Z M 6.28125 -1.3125 "/></g></g></g><g fill="#ffffff" fill-opacity="1"><g transform="translate(147.725806, 777.374981)"><g><path d="M 5.148438 -5.023438 L 2.898438 -5.023438 L 2.898438 0 L 1.351562 0 L 1.351562 -12.601562 L 5.632812 -12.601562 C 6.652344 -12.601562 7.492188 -12.414062 8.144531 -12.042969 C 8.800781 -11.671875 9.269531 -11.195312 9.558594 -10.621094 C 9.847656 -10.042969 9.988281 -9.4375 9.988281 -8.800781 C 9.988281 -7.925781 9.730469 -7.140625 9.207031 -6.445312 C 8.683594 -5.746094 7.871094 -5.304688 6.769531 -5.113281 L 10.097656 0 L 8.386719 0 Z M 2.898438 -6.355469 L 5.4375 -6.355469 C 6.289062 -6.355469 7.007812 -6.539062 7.597656 -6.910156 C 8.183594 -7.285156 8.476562 -7.914062 8.476562 -8.800781 C 8.476562 -9.679688 8.183594 -10.296875 7.597656 -10.65625 C 7.007812 -11.015625 6.289062 -11.195312 5.4375 -11.195312 L 2.898438 -11.195312 Z M 2.898438 -6.355469 "/></g></g></g><g fill="#ffffff" fill-opacity="1"><g transform="translate(158.615775, 777.374981)"><g><path d="M 8.695312 -3.671875 L 3.5625 -3.671875 L 2.230469 0 L 0.648438 0 L 5.382812 -12.601562 L 6.859375 -12.601562 L 11.628906 0 L 10.042969 0 Z M 8.242188 -4.914062 L 6.136719 -10.621094 L 6.066406 -10.621094 L 4.015625 -4.914062 Z M 8.242188 -4.914062 "/></g></g></g><g fill="#ffffff" fill-opacity="1"><g transform="translate(170.855734, 777.374981)"><g><path d="M 10.871094 -12.601562 L 10.871094 0 L 9.304688 0 L 9.304688 -5.707031 L 2.898438 -5.707031 L 2.898438 0 L 1.351562 0 L 1.351562 -12.601562 L 2.898438 -12.601562 L 2.898438 -6.964844 L 9.304688 -6.964844 L 9.304688 -12.601562 Z M 10.871094 -12.601562 "/></g></g></g><g fill="#ffffff" fill-opacity="1"><g transform="translate(183.077703, 777.374981)"><g><path d="M 1.402344 -12.601562 L 2.96875 -12.601562 L 2.96875 0 L 1.402344 0 Z M 1.402344 -12.601562 "/></g></g></g><g fill="#ffffff" fill-opacity="1"><g transform="translate(187.451692, 777.374981)"><g><path d="M 1.351562 -12.601562 L 3.636719 -12.601562 L 7.378906 -2.953125 L 7.433594 -2.953125 L 11.179688 -12.601562 L 13.464844 -12.601562 L 13.464844 0 L 11.933594 0 L 11.933594 -10.207031 L 11.863281 -10.207031 L 7.957031 0 L 6.839844 0 L 2.953125 -10.207031 L 2.878906 -10.207031 L 2.878906 0 L 1.351562 0 Z M 1.351562 -12.601562 "/></g></g></g></svg>